<?xml version="1.0" encoding="utf-8"?>
<!-- Generator: Adobe Illustrator 27.5.0, SVG Export Plug-In . SVG Version: 6.00 Build 0)  -->
<svg version="1.1" xmlns="http://www.w3.org/2000/svg" xmlns:xlink="http://www.w3.org/1999/xlink" x="0px" y="0px"
	 viewBox="0 0 500 500" xml:space="preserve">

<g id="OBJECTS">
	<g>
		<path style="fill:#BBE2F2;" d="M216.787,158.105c-15.627-56.689-86.048-74.951-126.406-32.584
			c-0.58,0.608-1.158,1.227-1.737,1.856c-57.859,62.895-30.526,217.887,90.224,257.171c120.75,39.284,246.346-32.452,253.402-96.579
			c7.056-64.127-48.652-84.277-135.105-66.345C248.321,231.754,226.515,193.395,216.787,158.105z"/>
		<path style="fill:#BBE2F2;" d="M317.235,167.801c-16.156,2.63-20.633,16.944-8.159,27.098c4.123,3.356,10.011,6.145,18.399,7.536
			c31.954,5.301,48.911-8.837,36.102-27.167C355.672,163.955,333.245,165.195,317.235,167.801z"/>
		<path style="fill:#BBE2F2;" d="M59.635,282.345c-10.044-12.925-24.754-10.003-27.697,5.81c-0.973,5.227-0.602,11.731,2.192,19.762
			c10.644,30.592,31.174,38.711,41.135,18.69C81.414,314.25,69.589,295.153,59.635,282.345z"/>
		<path style="fill:#BBE2F2;" d="M443.658,295.421c-1.488,7.791,4.945,13.31,12.235,10.307c2.409-0.992,4.84-2.905,7.002-6.269
			c8.236-12.813,4.065-23.803-7.403-22.675C448.414,277.481,445.133,287.7,443.658,295.421z"/>
		<path style="fill:#BBE2F2;" d="M402.815,213.204c7.765,1.621,13.392-4.718,10.514-12.057c-0.951-2.426-2.823-4.889-6.148-7.108
			c-12.67-8.453-23.731-4.47-22.798,7.016C384.959,208.143,395.12,211.598,402.815,213.204z"/>
		<path style="fill:#BBE2F2;" d="M214.089,129.83c6.148,5.012,14.061,1.975,14.884-5.866c0.272-2.591-0.256-5.639-2.188-9.14
			c-7.359-13.336-19.011-14.889-23.469-4.263C200.565,117.12,207.997,124.863,214.089,129.83z"/>
	</g>
	<g>
		<path style="fill:#1C31B5;" d="M462.909,334.396c12.329-12.394,21.718-26.401,12.378-28.584
			c-9.349-2.186-25.05,22.223-27.786,44.44l-2.738,7.335c2.277-16.156-3.259-35.836-11.365-36.647
			c-8.054-0.806-3.179,11.959,3.218,22.876c4.869,8.31,6.153,14.866,6.473,18.254l-12.932,34.643
			c3.532-25.595-5.238-56.648-18.063-57.931c-12.779-1.278-5.044,18.976,5.105,36.298c7.67,13.09,9.735,23.443,10.262,28.853
			l-2.578,6.908c1.128,0.635,2.259,1.263,3.394,1.884l15.385-41.216c2.968-2.216,7.475-4.894,13.892-7.065
			c11.986-4.055,24.033-10.503,17.421-15.172c-5.738-4.052-19.228,3.747-28.52,14.754l5.321-14.254
			C454.175,345.646,457.588,339.745,462.909,334.396z"/>
		<path style="fill:#1C31B5;" d="M74.272,172.699c1.599-14.969,0.354-29.437-7.096-25.869c-7.457,3.572-4.843,28.428,5.295,44.823
			l2.115,6.402c-7.18-12.077-21.506-22.309-27.386-18.485c-5.843,3.8,4.312,9.745,14.492,13.628
			c7.75,2.956,12.145,6.667,14.187,8.77l9.99,30.237c-11.425-19.093-34.054-35.219-43.358-29.168
			c-9.271,6.03,6.841,15.463,22.995,21.625c12.207,4.656,19.175,10.496,22.445,13.845l1.992,6.029
			c1.1-0.181,2.198-0.369,3.295-0.564l-11.885-35.973c0.799-3.088,2.382-7.316,5.521-12.233c5.864-9.184,10.478-20.008,3.521-19.58
			c-6.038,0.372-10.893,12.882-11.2,25.282l-4.11-12.44C74.471,184.962,73.582,179.16,74.272,172.699z"/>
		<g>
			<g>
				<path style="fill:#009CF8;" d="M379.684,375.569c0.157,0.848,0.338,1.774,0.55,2.758l0,0.002
					c2.22,10.322,7.67,27.218,19.933,30.541c0,0-6.675-34.804,17.115-43.869c23.79-9.065,21.159-17.696,19.799-33.059
					s-6.617-18.292,9.89-32.683c16.507-14.391,13.35-35.826,13.35-35.826s-15.622,24.474-32.307,25.042
					c-16.685,0.568-19.608,14.812-18.896,25.405c0.711,10.592-13.459,11.79-21.127,17.934c-7.668,6.144-9.112,38.408-9.112,38.408
					S379.091,372.332,379.684,375.569z"/>
			</g>
			<g>
				<path style="fill:#006BDE;" d="M379.684,375.569c0.157,0.848,0.338,1.774,0.55,2.758c1.711-5.179,4.117-9.529,6.37-12.867
					c5.336-7.907,12.852-14.402,19.611-16.951c10.762-4.055,16.018-14.611,17.036-34.228c0.59-11.386,12.503-18.112,12.625-18.178
					c0.348-0.193,0.475-0.633,0.282-0.981c-0.193-0.35-0.633-0.477-0.981-0.284c-0.52,0.287-12.737,7.171-13.369,19.367
					c-0.983,18.964-5.95,29.128-16.102,32.954c-7.132,2.687-14.721,9.226-20.3,17.491
					C383.434,367.572,381.347,371.25,379.684,375.569z"/>
			</g>
		</g>
		<g>
			<g>
				<path style="fill:#006BDE;" d="M116.358,408.681h16.717c-9.033-1.493-31.428-11.107-33.425-30.386
					c-2.529-24.419-11.225-24.114-25.876-26.667c-14.652-2.554-18.688,1.616-27.991-17.342
					c-9.303-18.957-30.058-21.347-30.058-21.347s18.917,20.641,15.297,36.327c-3.62,15.687,8.924,21.951,18.97,23.923
					c10.046,1.971,7.638,15.471,11.455,24.143c1.742,3.957,8.873,8.059,16.111,11.349H116.358z"/>
			</g>
			<g>
				<path style="fill:#1C31B5;" d="M80.149,384.643c0.73,7.313,4.935,16.01,11.248,23.263c0.222,0.255,0.453,0.514,0.689,0.774
					h1.902c-0.544-0.573-1.06-1.139-1.539-1.69c-6.039-6.938-10.222-15.555-10.916-22.486c-1.102-11.035-9.629-18.557-27.653-24.384
					c-10.462-3.381-13.766-16.152-13.796-16.283c-0.093-0.372-0.472-0.6-0.844-0.507c-0.374,0.093-0.602,0.471-0.509,0.843
					c0.138,0.556,3.514,13.65,14.719,17.272C70.873,367.079,79.108,374.233,80.149,384.643z"/>
			</g>
		</g>
		<g>
			<g>
				<path style="fill:#009CF8;" d="M125.374,363.362c-0.354,1.186-0.755,2.478-1.208,3.85l-0.001,0.003
					c-4.753,14.384-14.503,38.61-32.508,41.465c0,0,14.25-49.585-18.295-66.174s-27.465-28.497-23.163-50.204
					c4.301-21.707,12.251-25.078-9.085-48.145c-21.336-23.067-13.537-53.16-13.537-53.16s18.524,37.315,42.239,40.69
					c23.716,3.375,25.695,24.145,23.052,39.147c-2.643,15.002,17.388,18.888,27.382,28.832c9.994,9.943,7.095,56.192,7.095,56.192
					S126.718,358.834,125.374,363.362z"/>
			</g>
			<g>
				<path style="fill:#006BDE;" d="M125.374,363.362c-0.354,1.186-0.755,2.478-1.208,3.85c-1.644-7.651-4.409-14.227-7.109-19.335
					c-6.397-12.1-16.12-22.521-25.37-27.196c-14.73-7.439-20.604-23.306-19.042-51.447c0.909-16.334-15.051-27.761-15.216-27.872
					c-0.467-0.329-0.581-0.976-0.252-1.443c0.33-0.47,0.977-0.584,1.444-0.255c0.697,0.489,17.067,12.188,16.095,29.684
					c-1.512,27.204,4.01,42.467,17.904,49.487c9.761,4.93,19.583,15.425,26.271,28.073
					C121.254,351.377,123.667,356.944,125.374,363.362z"/>
			</g>
		</g>
	</g>
	<g>
		<g>
			<path style="fill:#18315B;" d="M138.283,397.02c0.055,3.77,0.123,7.693,0.206,11.66h36.36c0.069-4.343,0.122-8.505,0.162-12.41
				c0.109-10.583,0.122-19.292,0.113-24.705c-0.004-3.84-0.02-6.017-0.02-6.017l-37.076-0.393c0,0,0,3.203,0.028,8.442
				C138.08,379.419,138.145,387.755,138.283,397.02z"/>
			<path style="fill:#000B29;" d="M138.056,373.596c0.024,5.823,0.089,14.159,0.227,23.424c11.422,0.872,23.943,0.88,36.728-0.75
				c0.11-10.583,0.122-19.292,0.114-24.705L138.056,373.596z"/>
		</g>
		<g>
			<path style="fill:#18315B;" d="M92.46,388.66c0.041,5.927,0.111,12.716,0.229,20.021h36.363c0.09-4.277,0.162-8.503,0.221-12.54
				c0.126-8.665,0.191-16.466,0.223-22.074c0.028-5.519,0.028-8.912,0.028-8.912l-37.093,0.393c0,0-0.028,3.933-0.02,10.55
				C92.412,379.597,92.428,383.843,92.46,388.66z"/>
			<path style="fill:#000B29;" d="M92.412,376.098c0,3.499,0.016,7.744,0.049,12.562c7.384,2.177,20.602,5.563,36.813,7.481
				c0.126-8.665,0.191-16.466,0.223-22.074L92.412,376.098z"/>
		</g>
		<g>
			<path style="fill:#18315B;" d="M153.366,170.081c0,0,5.843-5.627,5.824-11.184c-0.02-5.557-3.797-3.915-5.824-9.093
				c-2.027-5.178-8.05-8.336-11.353-7.704c-3.303,0.632-10.277-12.251-19.735-9.978c-9.459,2.273-8.636,14.398-12.71,16.166
				c-4.074,1.768-2.938,8.967-0.79,10.609c2.147,1.642,3.056,8.24,4.264,8.091C114.249,166.839,153.366,170.081,153.366,170.081z"/>
			<g>
				<path style="fill:#F97853;" d="M114.041,169.948c0,0-3.674-4.898-6.405-0.848c-2.732,4.05,1.13,16.012,7.818,13.092
					L114.041,169.948z"/>
				<g>
					<path style="fill:#EA5143;" d="M113.994,178.496c-0.247,0-0.474-0.163-0.544-0.413c-1.036-3.693-4.863-5.19-4.901-5.205
						c-0.291-0.111-0.438-0.437-0.327-0.729c0.11-0.292,0.437-0.439,0.728-0.328c0.179,0.067,4.395,1.704,5.589,5.957
						c0.084,0.301-0.091,0.612-0.391,0.697C114.096,178.489,114.044,178.496,113.994,178.496z"/>
				</g>
				<g>
					<path style="fill:#EA5143;" d="M110.132,176.635c-0.105,0-0.211-0.029-0.305-0.09c-0.262-0.169-0.338-0.519-0.169-0.781
						c0.028-0.044,0.705-1.076,2.121-1.71c0.283-0.128,0.619,0,0.746,0.285c0.127,0.285,0,0.619-0.285,0.746
						c-1.095,0.49-1.627,1.283-1.632,1.29C110.499,176.544,110.317,176.635,110.132,176.635z"/>
				</g>
			</g>
			<g>
				<path style="fill:#F97853;" d="M151.899,169.948c0,0,3.673-4.898,6.405-0.848c2.731,4.05-1.13,16.012-7.818,13.092
					L151.899,169.948z"/>
				<g>
					<path style="fill:#EA5143;" d="M151.946,178.496c0.247,0,0.474-0.163,0.544-0.413c1.036-3.693,4.862-5.19,4.901-5.205
						c0.291-0.111,0.438-0.437,0.327-0.729c-0.111-0.292-0.437-0.439-0.728-0.328c-0.179,0.067-4.395,1.704-5.589,5.957
						c-0.084,0.301,0.091,0.612,0.392,0.697C151.844,178.489,151.896,178.496,151.946,178.496z"/>
				</g>
				<g>
					<g>
						<path style="fill:#EA5143;" d="M155.808,176.635c0.105,0,0.211-0.029,0.305-0.09c0.263-0.169,0.338-0.519,0.169-0.781
							c-0.028-0.044-0.705-1.076-2.121-1.71c-0.283-0.128-0.619,0-0.747,0.285c-0.127,0.285,0,0.619,0.285,0.746
							c1.095,0.49,1.627,1.283,1.632,1.29C155.441,176.544,155.622,176.635,155.808,176.635z"/>
					</g>
				</g>
			</g>
			<path style="fill:#FFA681;" d="M142.013,192.339v11.896c0,0-3.548,6.059-8.345,6.471c-4.793,0.418-9.052-5.216-9.052-5.216
				v-12.314L142.013,192.339z"/>
			<path style="fill:#F97853;" d="M142.013,192.339v5.279c-3.219,3.573-8.937,4.465-17.398,3.216v-7.658L142.013,192.339z"/>
			<path style="fill:#FFA681;" d="M154.555,161.787c-0.22,4.623-0.661,10.404-1.543,15.027c-0.22,1.153-0.469,2.238-0.746,3.21
				c-2.504,8.765-8.765,23.798-26.296,17.536c-7.743-2.763-11.331-11.387-12.931-20.159c-1.085-5.957-1.249-11.975-1.17-16.276
				c0.085-4.391,2.481-8.404,6.301-10.568c10.348-5.866,21.267-3.679,28.455-0.916C151.616,151.558,154.809,156.458,154.555,161.787
				z"/>
			<path style="fill:#18315B;" d="M113.04,177.401c0,0,1.701,10.135,3.308,13.83c1.61,3.694,5.999,4.391,7.647,7.513
				c2.351,4.452,5.935,7.981,11.83,5.831c4.905-1.789,4.683-4.297,7.431-6.237c4.708-3.324,7.041-6.982,7.231-10.013
				c0.189-3.031,2.527-11.511,2.527-11.511l-2.527-0.178c0,0-1.44,2.982-3.558,6.267c-2.126-4.668-12.367-1.273-12.367-1.273
				l-1.955,0.633l-2.008-0.633c0,0-10.363-3.251-12.409,1.644c-1.254-1.917-2.273-4.073-2.736-6.358L113.04,177.401z
				 M132.606,183.842c11.746-2.016,9.647,4.861,9.571,5.108v0.004c-0.004,0.004-0.004,0.004-0.004,0.004
				c-0.796,0.758-1.607,1.394-2.414,1.83c-4.551,2.459-5.043,2.088-6.839,2.167c-1.826,0.087-4.346-0.455-6.903-1.883
				c-0.796-0.447-1.985-1.311-3.289-2.501C122.729,188.57,120.883,182.262,132.606,183.842z"/>
			<path style="fill:#18315B;" d="M125.547,171.5c0,1.27-0.654,2.299-1.462,2.299c-0.807,0-1.462-1.029-1.462-2.299
				c0-1.27,0.655-2.299,1.462-2.299C124.892,169.201,125.547,170.23,125.547,171.5z"/>
			<path style="fill:#18315B;" d="M142.925,171.5c0,1.27-0.655,2.299-1.462,2.299c-0.807,0-1.462-1.029-1.462-2.299
				c0-1.27,0.654-2.299,1.462-2.299C142.27,169.201,142.925,170.23,142.925,171.5z"/>
			<path style="fill:#18315B;" d="M147.217,163.929c0,0-6.041-2.387-10.692-0.378l0.465,2.587c0,0,6.826-0.577,10.266,0.816
				C147.565,165.958,147.61,164.952,147.217,163.929z"/>
			<path style="fill:#18315B;" d="M118.496,163.941c0,0,6.085-2.405,10.77-0.381l-0.469,2.606c0,0-6.877-0.582-10.342,0.822
				C118.146,165.985,118.1,164.971,118.496,163.941z"/>
			<g>
				<path style="fill:#F97853;" d="M133.166,181.137c0.953,0,1.899-0.371,2.046-0.431c0.289-0.118,0.427-0.448,0.309-0.736
					c-0.117-0.289-0.448-0.428-0.736-0.31c-0.51,0.207-1.736,0.532-2.267,0.214c-0.103-0.061-0.242-0.183-0.278-0.526
					c-0.204-1.974,0.336-8.589,0.342-8.655c0.026-0.311-0.206-0.584-0.517-0.609c-0.312-0.026-0.584,0.206-0.609,0.517
					c-0.023,0.276-0.554,6.787-0.339,8.864c0.081,0.782,0.491,1.182,0.822,1.38C132.299,181.06,132.734,181.137,133.166,181.137z"/>
			</g>
			<path style="fill:#FFFFFF;" d="M125.962,184.973c0.429,2.159,1.855,6.13,6.659,6.13c4.816,0,6.166-3.629,6.63-6.13H125.962z"/>
			<path style="fill:#18315B;" d="M154.555,161.787c-0.22,4.623-0.661,10.404-1.543,15.027l-2.526-0.179
				c0,0,0.612-3.903,0.895-6.447c0.283-2.543,0.763-7.297-1.408-7.89c-2.165-0.588-0.894-6.011-3.906-8.362
				c-3.012-2.357-9.704-4.431-14.146-1.695c-4.442,2.73-9.495,1.221-11.54,1.695c-2.051,0.469-4.832,3.295-4.08,5.934
				c0.757,2.633-1.503,4.239-2.051,6.968c-0.548,2.73,1.204,10.076,1.204,10.076l-2.413,0.486
				c-1.085-5.957-1.249-11.975-1.17-16.276c0.085-4.391,2.481-8.404,6.301-10.568c10.348-5.866,21.267-3.679,28.455-0.916
				C151.616,151.558,154.809,156.458,154.555,161.787z"/>
		</g>
		<g>
			<g>
				<path style="fill:#006BDE;" d="M182.787,383.424c-11.435,2.896-22.87,4.769-34.313,5.631c-0.519,0.038-1.033,0.076-1.552,0.111
					c-1.573,0.106-3.146,0.194-4.718,0.262c-7.783,0.335-15.568,0.204-23.354-0.396c-1.57-0.121-3.138-0.26-4.708-0.421
					c-0.501-0.048-1.003-0.101-1.507-0.159c-9.295-1.008-18.588-2.687-27.891-5.028c-0.093-8.569,0.013-35.661,0.539-65.041
					c0.061-3.531,0.129-7.095,0.207-10.664c0.824-38.721,2.414-78.026,5.275-81.963c2.742-3.768,11.007-8.557,18.908-12.877
					c0.471-0.257,0.943-0.514,1.411-0.769c1.777-0.965,3.513-1.9,5.147-2.788c3.501-1.905,6.52-3.599,8.385-4.907v1.076
					c0,0,4.254,5.631,9.048,5.215c4.37-0.375,7.697-5.424,8.262-6.329c2.062,1.452,5.764,3.453,10.056,5.721
					c1.195,0.633,2.43,1.28,3.69,1.948c0.464,0.244,0.93,0.491,1.399,0.741c8.738,4.635,18.159,9.86,20.987,13.744
					c0.212,0.287,0.413,0.769,0.605,1.429c1.674,5.666,2.712,24.468,3.344,47.237c0.003,0.081,0.005,0.164,0.008,0.247
					c0.028,0.92,0.05,1.847,0.073,2.78c0.005,0.121,0.007,0.245,0.01,0.368c0.207,7.987,0.363,16.395,0.484,24.844
					c0.01,0.67,0.023,1.341,0.03,2.011c0.003,0.338,0.008,0.67,0.01,1.008c0.028,1.663,0.045,3.327,0.061,4.983
					c0.018,1.222,0.033,2.442,0.043,3.665C183.042,345.641,182.913,374.446,182.787,383.424z"/>
			</g>
			<g>
				<path style="fill:#264CBE;" d="M182.089,278.225c-2.752-4.494-5.706-9.081-8.489-13.139c-0.008-0.01-0.015-0.02-0.02-0.03
					c-1.169-1.704-2.306-3.312-3.387-4.781c-0.018-0.028-0.035-0.053-0.055-0.076c-0.338-0.461-0.673-0.91-1.001-1.346
					c-0.053-0.076-0.093-0.154-0.118-0.237l-0.003-0.003c-0.088-0.295,0.01-0.622,0.27-0.819c0.335-0.255,0.812-0.189,1.064,0.146
					c3.342,4.428,7.617,10.795,11.659,17.257c0.003,0.081,0.005,0.164,0.008,0.247C182.044,276.365,182.066,277.293,182.089,278.225
					z"/>
			</g>
			<path style="fill:#006BDE;" d="M178.176,225.907c0,0,17.245,31.594,27.757,47.607c0,0,5.978-5.492,13.753-12.839
				c8.43-7.966,19.959-21.279,19.959-21.279l6.38,7.566c0,0-25.904,46.615-37.522,52.474c-11.619,5.859-33.029-35.608-33.029-35.608
				L178.176,225.907z"/>
			<g>
				<path style="fill:#264CBE;" d="M105.16,350.427c-0.01,0-0.019,0-0.028,0c-0.43-0.015-0.767-0.377-0.752-0.808
					c0.904-25.515-12.326-33.781-12.46-33.861c-0.368-0.222-0.489-0.701-0.268-1.07c0.221-0.369,0.698-0.49,1.068-0.27
					c0.147,0.087,3.645,2.212,7.032,7.657c3.092,4.97,6.676,13.793,6.186,27.599C105.924,350.095,105.578,350.427,105.16,350.427z"
					/>
			</g>
			<g>
				<path style="fill:#264CBE;" d="M161.603,326.389c-0.403,0-0.745-0.31-0.777-0.719c-0.419-5.373,1.351-9.292,3.592-14.254
					c0.656-1.452,1.333-2.952,2.027-4.635c4.349-10.547,2.163-22.606,2.141-22.727c-0.079-0.423,0.199-0.831,0.623-0.91
					c0.424-0.08,0.831,0.2,0.91,0.623c0.096,0.511,2.291,12.638-2.232,23.609c-0.704,1.707-1.387,3.219-2.048,4.683
					c-2.233,4.944-3.846,8.516-3.458,13.491c0.033,0.429-0.288,0.805-0.717,0.838C161.644,326.388,161.624,326.389,161.603,326.389z
					"/>
			</g>
			<g>
				<path style="fill:#FFFFFF;" d="M116.231,209.322c0.333,2.512,0.822,5.771,1.356,9.472c0.163,1.099,0.326,2.239,0.493,3.41
					c0.542,3.823,1.103,7.983,1.58,12.189c0.129,1.129,0.25,2.262,0.364,3.391c0.421,4.164,0.739,8.301,0.853,12.147
					c0.038,1.163,0.053,2.3,0.046,3.403c-0.008,2.936-0.171,5.634-0.527,7.942c-0.228,1.459-0.428,2.883-0.606,4.278
					c-0.148,1.156-0.28,2.292-0.398,3.41c-0.455,4.339-0.682,8.378-0.746,12.185c-0.019,1.156-0.023,2.289-0.011,3.399
					c0.034,4.323,0.28,8.351,0.636,12.185c0.106,1.148,0.223,2.277,0.345,3.391c0.466,4.191,1.034,8.18,1.569,12.125
					c0.155,1.129,0.307,2.254,0.455,3.38c0.231,1.803,0.451,3.607,0.64,5.422c0.201,1.925,0.33,4.175,0.39,6.672
					c0.03,1.091,0.045,2.232,0.049,3.41c0.015,3.732-0.08,7.866-0.254,12.189c-0.045,1.129-0.095,2.273-0.151,3.429
					c-0.193,4.016-0.447,8.146-0.731,12.223c-0.083,1.148-0.167,2.289-0.254,3.425c-0.315,4.244-0.663,8.378-1.016,12.223
					c-0.106,1.167-0.212,2.308-0.318,3.414c-0.406,4.232-0.799,7.995-1.144,10.996c7.786,0.599,15.573,0.731,23.355,0.394
					c0.182-3.194,0.678-8.347,1.167-14.413c0.091-1.11,0.178-2.254,0.265-3.421c0.292-3.857,0.557-7.979,0.731-12.14
					c0.049-1.14,0.091-2.285,0.121-3.425c0.118-4.153,0.121-8.279-0.057-12.147c-0.053-1.175-0.121-2.323-0.212-3.44
					c-0.091-1.144-0.201-2.258-0.333-3.334c-0.375-3.039-0.519-5.956-0.5-8.843c0.004-1.144,0.034-2.281,0.087-3.421
					c0.178-3.956,0.61-7.919,1.11-12.128c0.133-1.118,0.273-2.255,0.413-3.414c0.451-3.743,0.921-7.714,1.292-12.06
					c0.098-1.114,0.186-2.254,0.269-3.421c0.258-3.728,0.432-7.733,0.459-12.098c0.007-1.125,0.004-2.273-0.011-3.448
					c-0.042-3.778-0.201-7.82-0.508-12.174c-0.027-0.386-0.053-0.777-0.083-1.171c-0.057-0.762-0.106-1.531-0.14-2.3
					c-0.201-3.971-0.148-8.055,0.076-12.128c0.061-1.144,0.136-2.288,0.224-3.433c0.314-4.077,0.773-8.116,1.303-11.988
					c0.155-1.152,0.318-2.292,0.485-3.414c0.637-4.244,1.322-8.237,1.951-11.806c0.209-1.174,0.409-2.304,0.599-3.38
					c0.428-2.41,0.799-4.558,1.072-6.377c-4.293-2.27-7.995-4.27-10.056-5.721c-0.565,0.906-3.891,5.952-8.264,6.328
					c-4.793,0.417-9.048-5.214-9.048-5.214v-1.076C122.751,205.723,119.732,207.417,116.231,209.322z"/>
				<g>
					<g>
						<path style="fill:#E3E3E3;" d="M117.587,218.795c0.163,1.099,0.326,2.239,0.493,3.41c4.301,0.098,9.351-0.546,15.436-1.951
							c6.517-1.5,12.265-1.239,16.796-0.398c0.209-1.174,0.409-2.304,0.599-3.38c-4.91-0.906-11.105-1.167-18.16,0.458
							C126.745,218.318,121.743,218.954,117.587,218.795z"/>
					</g>
					<g>
						<path style="fill:#E3E3E3;" d="M119.66,234.394c0.129,1.129,0.25,2.262,0.364,3.391c3.861-0.102,8.302-0.747,13.493-1.948
							c5.392-1.243,10.264-1.273,14.36-0.762c0.155-1.152,0.318-2.292,0.485-3.414c-4.441-0.549-9.726-0.504-15.61,0.853
							C127.711,233.678,123.377,234.314,119.66,234.394z"/>
					</g>
					<g>
						<path style="fill:#E3E3E3;" d="M120.876,249.932c0.038,1.163,0.053,2.3,0.046,3.403c3.649-0.171,7.802-0.807,12.594-1.914
							c4.736-1.091,9.071-1.247,12.833-0.924c0.061-1.144,0.136-2.288,0.224-3.433c-4.047-0.333-8.711-0.144-13.822,1.034
							C128.253,249.137,124.316,249.755,120.876,249.932z"/>
					</g>
					<g>
						<path style="fill:#E3E3E3;" d="M119.391,268.964c4.009-0.045,8.646-0.697,14.125-1.959c4.797-1.106,9.184-1.25,12.981-0.909
							c-0.027-0.386-0.053-0.777-0.083-1.171c-0.057-0.762-0.106-1.531-0.14-2.3c-3.978-0.299-8.536-0.095-13.523,1.057
							c-4.982,1.152-9.272,1.781-12.962,1.872C119.641,266.71,119.508,267.847,119.391,268.964z"/>
					</g>
					<g>
						<path style="fill:#E3E3E3;" d="M118.633,284.548c4.179,0.034,9.056-0.614,14.883-1.959c5.028-1.159,9.594-1.269,13.5-0.871
							c0.007-1.125,0.004-2.273-0.011-3.448c-4.145-0.383-8.957-0.224-14.254,0.996c-5.505,1.269-10.166,1.91-14.106,1.883
							C118.625,282.305,118.621,283.438,118.633,284.548z"/>
					</g>
					<g>
						<path style="fill:#E3E3E3;" d="M119.269,296.734c0.106,1.148,0.223,2.277,0.345,3.391c3.956-0.064,8.525-0.712,13.902-1.951
							c4.717-1.087,9.033-1.254,12.773-0.936c0.098-1.114,0.186-2.254,0.269-3.421c-4.047-0.333-8.703-0.144-13.807,1.034
							C127.537,296.052,123.074,296.692,119.269,296.734z"/>
					</g>
					<g>
						<path style="fill:#E3E3E3;" d="M121.183,312.249c0.155,1.129,0.307,2.254,0.455,3.38c3.475-0.216,7.392-0.837,11.878-1.872
							c4.016-0.928,7.741-1.182,11.068-1.046c0.133-1.118,0.273-2.255,0.413-3.414c-3.668-0.167-7.786,0.106-12.246,1.137
							C128.382,311.439,124.547,312.052,121.183,312.249z"/>
					</g>
					<g>
						<path style="fill:#E3E3E3;" d="M122.668,327.723c0.03,1.091,0.045,2.232,0.049,3.41c3.202-0.269,6.775-0.864,10.798-1.796
							c3.543-0.815,6.858-1.11,9.87-1.076c0.004-1.144,0.034-2.281,0.087-3.421c-3.27-0.034-6.869,0.288-10.723,1.178
							C129.015,326.879,125.665,327.451,122.668,327.723z"/>
					</g>
					<g>
						<path style="fill:#E3E3E3;" d="M122.312,346.751c3.304-0.254,7.006-0.864,11.204-1.83c3.952-0.909,7.624-1.171,10.916-1.042
							c-0.053-1.175-0.121-2.323-0.212-3.44c-3.467-0.099-7.32,0.205-11.469,1.159c-3.823,0.883-7.237,1.463-10.287,1.724
							C122.418,344.452,122.369,345.596,122.312,346.751z"/>
					</g>
					<g>
						<path style="fill:#E3E3E3;" d="M121.327,362.4c3.55-0.201,7.57-0.83,12.189-1.894c3.929-0.906,7.578-1.171,10.852-1.053
							c0.049-1.14,0.091-2.285,0.121-3.425c-3.535-0.121-7.479,0.174-11.738,1.156c-4.194,0.97-7.9,1.572-11.17,1.792
							C121.497,360.123,121.414,361.263,121.327,362.4z"/>
					</g>
					<g>
						<path style="fill:#E3E3E3;" d="M119.993,378.037c3.869-0.098,8.317-0.746,13.523-1.948c3.535-0.815,6.847-1.114,9.855-1.076
							c0.091-1.11,0.178-2.254,0.265-3.421c-3.315-0.049-6.968,0.269-10.886,1.174c-4.747,1.095-8.87,1.72-12.439,1.857
							C120.205,375.79,120.099,376.931,119.993,378.037z"/>
					</g>
				</g>
			</g>
			<g>
				<g>
					<path style="fill:#264CBE;" d="M146.921,389.165c0.519-0.034,1.034-0.072,1.553-0.11c3.069-18.043,1.3-44.528,0.64-52.644
						c-0.682-8.427,0.629-19.263,3.596-29.721c2.304-8.123,0.89-26.958-0.243-42.091c-0.318-4.247-0.621-8.26-0.799-11.556
						c-0.58-10.655,3.277-30.372,5.403-40.254c-0.47-0.25-0.936-0.496-1.398-0.743c-2.129,9.783-6.127,29.948-5.521,41.08
						c0.182,3.312,0.485,7.332,0.803,11.587c1.125,15.016,2.527,33.699,0.299,41.561c-3.016,10.628-4.346,21.658-3.649,30.258
						C148.262,344.66,150.043,371.311,146.921,389.165z"/>
				</g>
				<g>
					<path style="fill:#264CBE;" d="M115.484,315.75c1.804,11.094,1.235,18.301,0.576,26.64c-0.212,2.698-0.432,5.483-0.587,8.559
						c-0.481,9.654-2.114,29.095-2.838,37.503c0.504,0.057,1.004,0.11,1.508,0.159c0.724-8.408,2.361-27.898,2.845-37.586
						c0.152-3.054,0.371-5.831,0.584-8.514c0.663-8.438,1.239-15.728-0.595-27.004c-0.39-2.421-0.807-4.876-1.22-7.32
						c-2.042-12.091-4.157-24.594-3.156-30.584c0.242-1.463,0.553-3.122,0.887-4.88c1.356-7.229,3.05-16.224,2.516-24.03
						c-0.531-7.737-3.702-28.686-4.918-36.582c-0.47,0.254-0.939,0.512-1.413,0.769c1.269,8.256,4.304,28.402,4.819,35.915
						c0.519,7.612-1.152,16.505-2.493,23.647c-0.334,1.766-0.648,3.433-0.894,4.91c-1.038,6.241,1,18.308,3.16,31.088
						C114.677,310.882,115.09,313.333,115.484,315.75z"/>
				</g>
			</g>
		</g>
		<g>
			<path style="fill:#FFA681;" d="M85.66,238.623c0,0-15.437,51.479-19.26,69.825c-3.823,18.346-4.119,56.485-4.119,56.485
				s-6.749,14.01-6.908,20.244c-0.17,6.646,3.319,11.935,2.921,16.284c-0.398,4.35,4.897,1.988,3.401-6.822
				s2.748-16.789,4.58-16.533c1.832,0.256-1.516,9.619,0.111,12.993c1.626,3.374,3.732-3.18,5.825-7.157
				c2.174-4.13,2.046-13.14,1.057-19.572c-0.989-6.432,10.67-45.5,10.726-56.82l14.764-49.889
				C98.759,257.661,93.881,236.835,85.66,238.623z"/>
			<path style="fill:#006BDE;" d="M100.65,256.408c-0.523,3.308-2.353,8.987-4.717,16.133v0.004
				c-0.201,0.602-0.406,1.216-0.61,1.841c-0.011,0.026-0.023,0.057-0.03,0.087c-0.591,1.777-1.209,3.637-1.845,5.562
				c-0.004,0.011-0.007,0.023-0.011,0.034c-2.618,7.949-5.517,17.043-7.949,26.386c-0.837,3.198-1.618,6.43-2.311,9.65
				c-0.887,4.111-1.637,8.211-2.186,12.223c-1.974,14.455-5.748,32.763-5.748,32.763c-5.536,2.273-14.19-0.727-14.19-0.727
				s-0.224-26.367,1.012-36.613c1.527-12.667,3.471-21.684,5.88-32.036c6.631-28.489,18.301-56.364,21.502-63.757
				c0.254-0.591,0.455-1.05,0.595-1.368h2.755C98.218,230.037,102.064,247.496,100.65,256.408z"/>
			<path style="fill:#009CF8;" d="M60.602,355.086l0.434,6.067c0,0,8.228,2.674,14.396,0.791l1.631-5.412
				C71.124,356.846,65.637,356.7,60.602,355.086z"/>
			<g>
				<path style="fill:#264CBE;" d="M95.933,272.541v0.004c0,0.087-0.015,0.174-0.045,0.261c-0.186,0.512-0.375,1.038-0.565,1.58
					c-0.011,0.026-0.023,0.057-0.03,0.087c-0.606,1.72-1.224,3.592-1.845,5.562c-0.004,0.011-0.007,0.023-0.011,0.034
					c-3.224,10.245-6.502,23.135-8.01,31.369c0.015-1.656,0.034-3.319,0.061-4.982c-0.837,3.198-1.618,6.43-2.311,9.65
					c0.311-3.02,1.175-7.544,2.353-12.67c2.38-10.374,6.032-23.223,8.934-31.149c0.144-0.394,0.58-0.595,0.974-0.451
					C95.744,271.95,95.933,272.234,95.933,272.541z"/>
			</g>
		</g>
	</g>
	<g>
		<g>
			<g>
				<g>
					<path style="fill:#18315B;" d="M372.072,408.681h36.465c-0.121-2.529-0.241-4.954-0.357-7.243
						c-0.636-12.486-1.176-20.988-1.176-20.988l-29.655,1.317l-2.459,0.111l-4.362,0.195c0,0,0.421,7.602,1.076,18.74
						C371.748,403.276,371.905,405.915,372.072,408.681z"/>
				</g>
			</g>
			<path style="fill:#000B29;" d="M374.889,381.878l-4.362,0.195c0,0,0.421,7.602,1.076,18.74
				c11.394,0.95,23.834,1.337,36.576,0.624c-0.636-12.486-1.176-20.988-1.176-20.988l-29.655,1.317L374.889,381.878z"/>
			<g>
				<path style="fill:#000B29;" d="M378.86,408.681c-0.667-11.557-1.213-21.431-1.513-26.913l-2.459,0.111
					c0.299,5.457,0.843,15.285,1.508,26.802H378.86z"/>
			</g>
		</g>
		<g>
			<g>
				<g>
					<path style="fill:#18315B;" d="M361.374,408.681c0.188-3.131,0.364-6.1,0.525-8.837c0.628-10.609,1.022-17.771,1.022-17.771
						l-4.734-0.211l-2.455-0.111l-29.291-1.302c0,0-0.322,5.067-0.762,13.121c-0.233,4.292-0.5,9.436-0.77,15.11H361.374z"/>
				</g>
			</g>
			<path style="fill:#000B29;" d="M325.678,393.57c7.951,1.869,20.77,4.493,36.22,6.273c0.628-10.609,1.022-17.771,1.022-17.771
				l-4.734-0.211l-2.455-0.111l-29.291-1.302C326.44,380.449,326.119,385.516,325.678,393.57z"/>
			<g>
				<path style="fill:#000B29;" d="M356.679,408.681c0.665-11.529,1.209-21.365,1.507-26.818l-2.455-0.111
					c-0.3,5.479-0.847,15.36-1.514,26.929H356.679z"/>
			</g>
		</g>
		<g>
			<g>
				<g>
					<path style="fill:#006BDE;" d="M412.298,386.133c-7.428,2.044-14.855,3.587-22.283,4.622c-2.583,0.363-5.164,0.665-7.745,0.902
						c-3.481,0.323-6.961,0.539-10.439,0.648c-5.754,0.176-11.508,0.05-17.265-0.376c-11.128-0.814-22.253-2.757-33.383-5.797
						c-0.103-10.376,0.053-47.587,0.832-83.478c0.038-1.611,0.073-3.221,0.113-4.824c0.005-0.34,0.015-0.681,0.023-1.021
						c0.008-0.371,0.018-0.741,0.028-1.109c0.025-1.139,0.055-2.273,0.083-3.402c0.058-2.306,0.118-4.592,0.184-6.855
						c0.04-1.353,0.081-2.699,0.121-4.033c0.007-0.277,0.018-0.552,0.025-0.827c0.028-0.88,0.055-1.754,0.083-2.624c0,0,0,0,0-0.003
						c0.01-0.27,0.018-0.539,0.028-0.809c0.025-0.802,0.053-1.598,0.078-2.387c0.025-0.673,0.048-1.336,0.071-2.001
						c0.862-24.211,2.122-43.308,3.927-46c3.06-4.564,13.482-10.623,21.864-15.556c2.987-1.754,6.553-3.579,8.594-4.932
						c2.977,2.397,5.137,4.562,9.55,4.413c4.937-0.169,6.155-3.138,8.038-5.684c1.149,0.746,4.068,3.14,5.585,4.03
						c1.298,0.766,2.704,1.578,4.171,2.422c2.268,1.298,4.68,2.677,7.07,4.083c3.541,2.084,7.032,4.234,9.928,6.288
						c2.891,2.054,5.187,4.017,6.324,5.719c1.638,2.46,2.699,18.386,3.382,39.346c0.028,0.733,0.048,1.477,0.076,2.225
						c0.003,0.091,0.003,0.181,0.003,0.275c0.028,0.761,0.051,1.543,0.068,2.324c0.068,2.359,0.131,4.769,0.197,7.218
						c0.013,0.517,0.025,1.038,0.033,1.558c0.01,0.391,0.023,0.784,0.025,1.169c0.023,1.008,0.045,2.019,0.068,3.039
						c0.005,0.204,0.008,0.408,0.013,0.613c0.056,2.689,0.108,5.416,0.156,8.166c0.015,0.804,0.028,1.611,0.04,2.417
						C412.585,333.629,412.441,374.983,412.298,386.133z"/>
				</g>
			</g>
			<path style="fill:#264CBE;" d="M411.962,295.896L400.2,307.827l-10.959-11.11l-10.956,11.11l-10.999-11.155l-11.004,11.155
				l-11.072-11.228l-11.075,11.228l-11.957-12.126c0.025-1.139,0.055-2.273,0.083-3.402c0.058-2.306,0.118-4.592,0.184-6.855
				l11.69-11.856l11.075,11.231l11.072-11.231l11.004,11.155l10.999-11.155l10.956,11.11l10.959-11.11l11.566,11.725
				c0.056,2.689,0.108,5.416,0.156,8.166C411.937,294.283,411.95,295.089,411.962,295.896z"/>
			<g>
				<path style="fill:#264CBE;" d="M391.659,357.392c-0.001,0-0.002,0-0.003,0c-15.75-0.069-29.193-7.236-37.697-13.236
					c-9.197-6.489-14.771-13.064-14.826-13.13c-0.269-0.32-0.228-0.798,0.092-1.068c0.321-0.269,0.799-0.228,1.068,0.092
					c0.054,0.064,5.527,6.514,14.575,12.892c8.319,5.864,21.456,12.867,36.795,12.935c0.418,0.002,0.756,0.343,0.755,0.761
					C392.415,357.055,392.076,357.392,391.659,357.392z"/>
			</g>
			<g>
				<path style="fill:#264CBE;" d="M381.835,348.077c-13.41-2.636-25.28-12.907-25.819-13.378c-0.315-0.276-0.347-0.754-0.072-1.069
					c0.276-0.315,0.754-0.346,1.069-0.072c0.139,0.122,14.108,12.201,28.343,13.5c0.423,0.035,0.724,0.407,0.686,0.823
					c-0.038,0.417-0.407,0.724-0.823,0.686C384.084,348.464,382.954,348.297,381.835,348.077z"/>
			</g>
			<g>
				<path style="fill:#264CBE;" d="M354.978,231.528c-0.357,0-0.675-0.253-0.744-0.617c-0.078-0.411,0.192-0.808,0.603-0.886
					c19.202-3.644,24.989-15.996,25.046-16.121c0.172-0.381,0.621-0.551,1.003-0.378c0.381,0.172,0.551,0.621,0.378,1.003
					c-0.243,0.537-6.176,13.197-26.144,16.986C355.073,231.523,355.025,231.528,354.978,231.528z"/>
			</g>
			<g>
				<path style="fill:#264CBE;" d="M331.549,264.779v0.005c-0.018,0.083-0.056,0.166-0.103,0.242
					c-0.287,0.461-0.587,0.938-0.887,1.424c-0.015,0.028-0.033,0.05-0.045,0.081c-0.96,1.553-1.961,3.249-2.992,5.041
					c-0.003,0.013-0.008,0.02-0.018,0.03c-1.611,2.82-3.279,5.878-4.912,8.983c0.028-0.88,0.055-1.754,0.083-2.624c0,0,0,0,0-0.003
					c0.01-0.27,0.018-0.539,0.028-0.809c2.634-4.89,5.26-9.464,7.463-12.932c0.227-0.355,0.693-0.456,1.048-0.234
					C331.489,264.162,331.615,264.479,331.549,264.779z"/>
			</g>
		</g>
		<g>
			<path style="fill:#FFA681;" d="M428.308,236.693c0,0,24.555-7.892,31.821-24.005c2.102-4.667-15.212-52.046-15.212-52.046
				l-8.357,0.404c0,0,2.382,16.439,3.825,25.747c1.187,7.653,3.105,16.798,3.752,19.809c0.141,0.653,0.22,1.016,0.22,1.016
				c-0.41,0.071-0.821,0.15-1.239,0.233c-11.472,2.33-26.12,9.803-26.12,9.803L428.308,236.693z"/>
			<g>
				<g>
					<path style="fill:#F97853;" d="M450.525,212.16c0.349,0.254,0.848,0.178,1.098-0.173c0.264-0.356,0.184-0.849-0.173-1.098
						c-1.786-1.298-4.482-2.821-7.313-4.286c0.141,0.653,0.22,1.016,0.22,1.016c-0.41,0.071-0.821,0.15-1.239,0.233
						C446,209.333,448.759,210.875,450.525,212.16z"/>
				</g>
			</g>
			<path style="fill:#006BDE;" d="M390.737,215.017c0,0-7.427,17.43,11.482,27.134c13.086,6.716,42.896-10.818,42.896-10.818
				l-10.628-22.565C434.487,208.768,407.212,220.019,390.737,215.017z"/>
			<path style="fill:#FFA681;" d="M440.639,134.004c-0.74,0.519-0.589,3.72-0.263,6.735c-0.104,0.015-0.211,0.033-0.318,0.052
				c-0.879-4.024-2.629-10.868-4.125-9.562c-0.98,0.855,0.332,6.757,1.226,10.286c-0.185,0.057-0.37,0.115-0.555,0.175
				c-1.127-4.19-3.557-12.261-5.174-10.692c-1.079,1.047,0.992,8.154,2.142,11.779c-0.161,0.063-0.317,0.124-0.471,0.185
				c-1.1-3.517-3.45-10.17-5.06-8.607c-1.458,1.415,2.719,11.473,2.719,11.473l0,0l1.095,3.948c0,0-1.301,0.562-3.333-1.736
				c-2.032-2.298-4.46-2.702-2.773,0.622c1.907,3.757,4.729,6.451,5.971,9.109c1.243,2.658,5.151,3.537,5.151,3.537l7.847-0.379
				c0,0,1.522-13.263-1.405-19.585l0,0C442.811,137.588,441.927,133.101,440.639,134.004z"/>
		</g>
		<g>
			<path style="fill:#18315B;" d="M343.549,164.591c0,13.366,8.228,22.576,21.589,22.576c13.366,0,22.684-9.901,22.684-23.268
				c0-3.686-0.601-7.128-1.758-10.174c-0.068-0.181-0.136-0.363-0.21-0.539c-0.142-0.346-0.289-0.692-0.448-1.026
				c-0.233-0.516-0.493-1.021-0.766-1.508c-3.482-6.261-9.72-10.242-18.101-10.242C350.513,140.411,343.549,151.225,343.549,164.591
				z"/>
			<g>
				<path style="fill:#F97853;" d="M346.55,170.346c0,0-3.713-4.951-6.474-0.857c-2.761,4.094,1.143,16.186,7.902,13.234
					L346.55,170.346z"/>
				<g>
					<path style="fill:#EA5143;" d="M346.502,178.987c-0.25,0-0.479-0.165-0.55-0.417c-1.048-3.733-4.915-5.246-4.954-5.261
						c-0.294-0.113-0.443-0.442-0.331-0.737c0.112-0.295,0.441-0.443,0.736-0.332c0.181,0.068,4.443,1.722,5.649,6.021
						c0.085,0.304-0.092,0.619-0.396,0.704C346.605,178.98,346.553,178.987,346.502,178.987z"/>
				</g>
				<g>
					<path style="fill:#EA5143;" d="M342.598,177.106c-0.106,0-0.213-0.029-0.309-0.091c-0.265-0.171-0.342-0.524-0.171-0.79
						c0.029-0.044,0.713-1.088,2.144-1.728c0.287-0.13,0.626,0,0.755,0.288c0.129,0.288,0,0.626-0.288,0.754
						c-1.107,0.495-1.645,1.297-1.65,1.305C342.97,177.014,342.786,177.106,342.598,177.106z"/>
				</g>
			</g>
			<g>
				<path style="fill:#F97853;" d="M384.817,170.346c0,0,3.713-4.951,6.474-0.857c2.761,4.094-1.143,16.186-7.903,13.234
					L384.817,170.346z"/>
				<g>
					<path style="fill:#EA5143;" d="M384.865,178.987c0.249,0,0.479-0.165,0.55-0.417c1.048-3.733,4.915-5.246,4.954-5.261
						c0.294-0.113,0.443-0.442,0.331-0.737c-0.112-0.295-0.441-0.443-0.736-0.332c-0.181,0.068-4.443,1.722-5.65,6.021
						c-0.085,0.304,0.092,0.619,0.396,0.704C384.762,178.98,384.814,178.987,384.865,178.987z"/>
				</g>
				<g>
					<g>
						<g>
							<path style="fill:#EA5143;" d="M388.769,177.106c0.106,0,0.213-0.029,0.309-0.091c0.265-0.171,0.342-0.524,0.171-0.79
								c-0.028-0.044-0.713-1.088-2.144-1.728c-0.286-0.13-0.626,0-0.755,0.288c-0.129,0.288,0,0.626,0.288,0.754
								c1.107,0.495,1.645,1.297,1.65,1.305C388.397,177.014,388.581,177.106,388.769,177.106z"/>
						</g>
					</g>
				</g>
			</g>
			<path style="fill:#FFA681;" d="M374.824,192.979v12.025c0,0-3.586,6.124-8.436,6.541c-4.845,0.423-9.15-5.273-9.15-5.273v-12.448
				L374.824,192.979z"/>
			<path style="fill:#F97853;" d="M374.824,192.979v5.336c-3.254,3.611-9.034,4.513-17.586,3.25v-7.741L374.824,192.979z"/>
			<path style="fill:#FFA681;" d="M387.502,162.097c-0.223,4.673-0.669,10.517-1.56,15.19c-0.223,1.165-0.474,2.262-0.754,3.245
				c-2.531,8.86-8.86,24.056-26.581,17.726c-7.826-2.794-11.454-11.511-13.07-20.377c-1.097-6.021-1.263-12.105-1.182-16.452
				c0.086-4.438,2.508-8.495,6.37-10.683c10.46-5.93,21.497-3.719,28.763-0.925C384.531,151.757,387.759,156.71,387.502,162.097z"/>
			<path style="fill:#18315B;" d="M358.085,171.915c0,1.284-0.662,2.324-1.478,2.324c-0.816,0-1.478-1.04-1.478-2.324
				c0-1.284,0.662-2.324,1.478-2.324C357.424,169.591,358.085,170.632,358.085,171.915z"/>
			<path style="fill:#18315B;" d="M375.502,171.868c0,1.284-0.661,2.324-1.478,2.324c-0.816,0-1.478-1.04-1.478-2.324
				c0-1.284,0.662-2.324,1.478-2.324C374.84,169.543,375.502,170.584,375.502,171.868z"/>
			<path style="fill:#18315B;" d="M378.841,163.88c0,0-4.662-1.843-8.252-0.292l0.359,1.996c0,0,5.269-0.446,7.923,0.63
				C379.109,165.447,379.144,164.67,378.841,163.88z"/>
			<path style="fill:#18315B;" d="M351.677,163.88c0,0,4.662-1.843,8.252-0.292l-0.359,1.996c0,0-5.268-0.446-7.923,0.63
				C351.409,165.447,351.374,164.67,351.677,163.88z"/>
			<g>
				<path style="fill:#F97853;" d="M365.882,181.656c0.964,0,1.919-0.375,2.068-0.436c0.292-0.119,0.431-0.452,0.312-0.745
					c-0.119-0.292-0.453-0.432-0.744-0.313c-0.516,0.209-1.755,0.538-2.292,0.217c-0.103-0.062-0.245-0.185-0.281-0.532
					c-0.206-1.995,0.34-8.682,0.345-8.749c0.026-0.314-0.208-0.59-0.522-0.616c-0.316-0.027-0.59,0.208-0.616,0.522
					c-0.023,0.279-0.56,6.861-0.343,8.96c0.082,0.79,0.497,1.195,0.831,1.395C365.006,181.579,365.445,181.656,365.882,181.656z"/>
			</g>
			<path style="fill:#FFFFFF;" d="M358.211,184.557c0.95,3.296,3.649,6.584,7.368,6.63c3.715-0.045,6.415-3.334,7.364-6.63H358.211z
				"/>
			<g>
				<path style="fill:#F97853;" d="M365.261,194.767c1.479,0,2.732-0.749,2.785-0.781c0.27-0.163,0.356-0.515,0.193-0.785
					c-0.163-0.27-0.515-0.356-0.785-0.193c-0.009,0.006-1.041,0.615-2.193,0.615c-1.057,0-2.069-0.606-2.079-0.613
					c-0.268-0.165-0.62-0.083-0.786,0.186c-0.166,0.268-0.083,0.62,0.186,0.786C362.633,194.016,363.865,194.767,365.261,194.767z"
					/>
			</g>
			<path style="fill:#18315B;" d="M386.898,170.447h-2.589c0.286-2.599,0.696-7.177-1.438-7.833
				c-6.746-2.072,1.996-6.839-1.049-9.216c-3.045-2.382-10.624-1.361-15.895-1.532c-5.303-0.172-13.826-0.097-15.894,0.383
				c-2.074,0.474-0.937,3.917-0.177,6.585c0.766,2.662-2.542,5.61-3.096,8.37c-0.159,0.792-0.126,1.968,0.001,3.243h-2.158
				c-0.256-3.358-0.294-6.484-0.248-9.019c0.086-4.438,2.508-8.495,6.37-10.683c10.46-5.93,21.497-3.719,28.763-0.925
				c5.044,1.936,8.272,6.889,8.015,12.276C387.38,164.657,387.19,167.569,386.898,170.447z"/>
			<g>
				<g>
					<path style="fill:#FFFFFF;" d="M356.347,178.645c-3.566,0-6.467-2.901-6.467-6.467c0-3.566,2.901-6.467,6.467-6.467
						c3.566,0,6.467,2.901,6.467,6.467C362.814,175.744,359.913,178.645,356.347,178.645z M356.347,166.719
						c-3.01,0-5.459,2.449-5.459,5.459c0,3.01,2.449,5.459,5.459,5.459c3.01,0,5.459-2.449,5.459-5.459
						C361.806,169.168,359.357,166.719,356.347,166.719z"/>
				</g>
				<g>
					<path style="fill:#FFFFFF;" d="M374.024,178.645c-3.566,0-6.467-2.901-6.467-6.467c0-3.566,2.901-6.467,6.467-6.467
						c3.566,0,6.467,2.901,6.467,6.467C380.491,175.744,377.59,178.645,374.024,178.645z M374.024,166.719
						c-3.01,0-5.459,2.449-5.459,5.459c0,3.01,2.449,5.459,5.459,5.459s5.459-2.449,5.459-5.459
						C379.483,169.168,377.034,166.719,374.024,166.719z"/>
				</g>
				<g>
					<path style="fill:#FFFFFF;" d="M350.973,170.095c-0.128,0-0.257-0.049-0.355-0.146l0,0c-0.029-0.029-2.967-2.879-6.821-1.98
						c-0.27,0.064-0.542-0.105-0.605-0.376c-0.063-0.271,0.105-0.542,0.376-0.605c4.407-1.028,7.625,2.112,7.76,2.247
						c0.197,0.196,0.198,0.516,0.002,0.713C351.232,170.046,351.102,170.095,350.973,170.095z"/>
				</g>
				<g>
					<path style="fill:#FFFFFF;" d="M379.517,170.095c-0.164,0-0.326-0.081-0.423-0.229c-0.152-0.233-0.087-0.545,0.146-0.697
						c0.193-0.126,4.769-3.078,8.663-2.437c0.275,0.045,0.461,0.305,0.415,0.579c-0.045,0.274-0.303,0.46-0.579,0.415
						c-3.505-0.577-7.903,2.257-7.948,2.286C379.707,170.069,379.612,170.095,379.517,170.095z"/>
				</g>
				<g>
					<path style="fill:#FFFFFF;" d="M367.912,170.726c-0.011-0.016-1.209-1.635-2.784-1.635c-1.559,0-2.642,1.617-2.652,1.633
						l-0.844-0.551c0.056-0.085,1.385-2.09,3.496-2.09c2.095,0,3.541,1.97,3.601,2.054L367.912,170.726z"/>
				</g>
			</g>
		</g>
		<g>
			<path style="fill:#FFA681;" d="M329.42,263.829c0,0-6.813,13.192-14.835,23.641c-2.367,3.082-4.837,5.925-7.271,8.121
				c-3.944,3.561-7.79,5.424-10.923,3.843c-11.619-5.857-37.521-52.472-37.521-52.472l6.379-7.566c0,0,11.528,13.313,19.959,21.28
				c7.775,7.347,13.754,12.839,13.754,12.839c1.076-1.638,2.223-3.433,3.415-5.333c1.268-2.016,2.583-4.151,3.922-6.346
				c9.708-15.939,20.481-35.074,20.481-35.074L329.42,263.829z"/>
			<path style="fill:#F97853;" d="M314.585,287.47c-2.367,3.082-4.837,5.925-7.271,8.121l-4.937-27.409
				c1.268-2.016,2.583-4.151,3.922-6.346L314.585,287.47z"/>
			<path style="fill:#006BDE;" d="M326.778,226.762l-23.284,36.62l7.815,32.209l19.268-31.374
				C330.577,264.217,332.913,242.753,326.778,226.762z"/>
		</g>
	</g>
	<g>
		<g>
			<path style="fill:#006BDE;" d="M297.501,408.681c-1.663-9.216-3.302-19.61-4.792-29.703c-0.327-2.232-0.646-4.445-0.962-6.629
				c-1.195-8.357-2.262-16.259-3.119-22.817c-0.327-2.491-0.62-4.791-0.887-6.843c-0.831-6.546-1.319-10.612-1.319-10.612
				l-36.769,1.39l-36.882-1.39c0,0-0.951,8.045-2.473,19.709c-0.278,2.123-0.575,4.362-0.887,6.7
				c-0.819,6.121-1.755,12.881-2.762,19.803c-0.015,0.101-0.03,0.203-0.045,0.304c-0.316,2.157-0.635,4.329-0.966,6.501
				c-0.004,0.03-0.007,0.056-0.015,0.086v0.004c-0.789,5.249-1.616,10.491-2.457,15.534c-0.346,2.082-0.695,4.126-1.049,6.117
				c-0.109,0.621-0.219,1.234-0.328,1.844H297.501z"/>
			<g>
				<path style="fill:#264CBE;" d="M221.247,343.121c0,1.914-1.551,3.466-3.465,3.466c-1.914,0-3.466-1.552-3.466-3.466
					c0-1.914,1.552-3.465,3.466-3.465C219.696,339.656,221.247,341.207,221.247,343.121z"/>
				<path style="fill:#264CBE;" d="M229.847,356.547c0,1.914-1.552,3.465-3.465,3.465c-1.914,0-3.466-1.552-3.466-3.465
					c0-1.914,1.552-3.465,3.466-3.465C228.295,353.081,229.847,354.633,229.847,356.547z"/>
				<path style="fill:#264CBE;" d="M246.766,349.616c0,1.914-1.552,3.465-3.465,3.465c-1.914,0-3.465-1.552-3.465-3.465
					c0-1.914,1.551-3.465,3.465-3.465C245.215,346.151,246.766,347.702,246.766,349.616z"/>
				<path style="fill:#264CBE;" d="M220.063,370.805c0,1.914-1.552,3.466-3.465,3.466c-1.914,0-3.465-1.552-3.465-3.466
					c0-1.914,1.551-3.465,3.465-3.465C218.511,367.34,220.063,368.891,220.063,370.805z"/>
				<path style="fill:#264CBE;" d="M241.205,369.323c0,1.914-1.551,3.465-3.465,3.465c-1.914,0-3.465-1.551-3.465-3.465
					s1.552-3.465,3.465-3.465C239.653,365.858,241.205,367.409,241.205,369.323z"/>
				<path style="fill:#264CBE;" d="M212.554,355.037c0,1.804-1.375,3.288-3.141,3.45c0.312-2.337,0.609-4.577,0.887-6.7
					C211.619,352.279,212.554,353.545,212.554,355.037z"/>
				<path style="fill:#264CBE;" d="M275.658,389.683c0,1.914-1.551,3.465-3.465,3.465c-1.914,0-3.466-1.552-3.466-3.465
					c0-1.914,1.552-3.466,3.466-3.466C274.106,386.217,275.658,387.769,275.658,389.683z"/>
				<path style="fill:#264CBE;" d="M274.021,370.805c0,1.914-1.552,3.466-3.465,3.466c-1.914,0-3.465-1.552-3.465-3.466
					c0-1.914,1.552-3.465,3.465-3.465C272.469,367.34,274.021,368.891,274.021,370.805z"/>
				<path style="fill:#264CBE;" d="M292.709,378.977c-0.417,0.177-0.879,0.274-1.36,0.274c-1.913,0-3.465-1.552-3.465-3.465
					c0-1.913,1.552-3.464,3.465-3.464c0.135,0,0.267,0.007,0.398,0.026C292.063,374.532,292.382,376.745,292.709,378.977z"/>
				<path style="fill:#264CBE;" d="M277.486,403.518c0,1.914-1.552,3.465-3.465,3.465c-1.914,0-3.465-1.551-3.465-3.465
					c0-1.914,1.551-3.466,3.465-3.466C275.934,400.052,277.486,401.604,277.486,403.518z"/>
				<path style="fill:#264CBE;" d="M292.309,397.986c0,1.914-1.552,3.465-3.466,3.465c-1.914,0-3.465-1.552-3.465-3.465
					c0-1.914,1.551-3.465,3.465-3.465C290.758,394.52,292.309,396.072,292.309,397.986z"/>
				<path style="fill:#264CBE;" d="M261.465,408.681c-0.623-0.911-1.668-1.51-2.856-1.51c-1.188,0-2.233,0.599-2.856,1.51H261.465z"
					/>
				<path style="fill:#264CBE;" d="M217.782,392.697c0,1.914-1.552,3.465-3.466,3.465c-1.914,0-3.465-1.551-3.465-3.465
					c0-1.914,1.551-3.466,3.465-3.466C216.231,389.231,217.782,390.783,217.782,392.697z"/>
				<path style="fill:#264CBE;" d="M208.639,381.75c0,1.759-1.311,3.213-3.014,3.431c0.008-0.03,0.011-0.056,0.015-0.086
					c0.331-2.172,0.65-4.344,0.966-6.501C207.804,379.143,208.639,380.349,208.639,381.75z"/>
				<path style="fill:#264CBE;" d="M204.588,403.515c0,1.567-1.041,2.89-2.469,3.322c0.353-1.991,0.703-4.036,1.049-6.117
					C204.028,401.35,204.588,402.369,204.588,403.515z"/>
				<path style="fill:#264CBE;" d="M226.382,404.982c0,1.914-1.552,3.466-3.466,3.466c-1.914,0-3.465-1.552-3.465-3.466
					s1.552-3.465,3.465-3.465C224.83,401.516,226.382,403.068,226.382,404.982z"/>
				<path style="fill:#264CBE;" d="M244.67,402.268c0,1.914-1.552,3.466-3.465,3.466s-3.465-1.552-3.465-3.466
					c0-1.914,1.551-3.465,3.465-3.465S244.67,400.354,244.67,402.268z"/>
				<path style="fill:#264CBE;" d="M231.623,385.229c0,1.914-1.552,3.466-3.466,3.466c-1.914,0-3.465-1.552-3.465-3.466
					c0-1.914,1.551-3.465,3.465-3.465C230.071,381.764,231.623,383.316,231.623,385.229z"/>
				<path style="fill:#264CBE;" d="M250.232,381.764c0,1.914-1.551,3.465-3.465,3.465c-1.914,0-3.465-1.551-3.465-3.465
					s1.552-3.465,3.465-3.465C248.68,378.299,250.232,379.85,250.232,381.764z"/>
				<path style="fill:#264CBE;" d="M258.609,363.478c0,1.914-1.551,3.465-3.465,3.465c-1.914,0-3.466-1.552-3.466-3.465
					c0-1.914,1.552-3.466,3.466-3.466C257.057,360.012,258.609,361.564,258.609,363.478z"/>
				<path style="fill:#264CBE;" d="M288.628,349.532c-0.24,0.056-0.488,0.083-0.744,0.083c-1.917,0-3.465-1.552-3.465-3.465
					c0-1.864,1.473-3.389,3.322-3.461C288.008,344.741,288.302,347.041,288.628,349.532z"/>
				<path style="fill:#264CBE;" d="M270.555,349.616c0,1.914-1.552,3.465-3.465,3.465c-1.914,0-3.465-1.552-3.465-3.465
					c0-1.914,1.551-3.465,3.465-3.465C269.004,346.151,270.555,347.702,270.555,349.616z"/>
				<path style="fill:#264CBE;" d="M283.248,361.966c0,1.914-1.551,3.465-3.465,3.465s-3.465-1.552-3.465-3.465
					c0-1.914,1.552-3.466,3.465-3.466S283.248,360.052,283.248,361.966z"/>
				<path style="fill:#264CBE;" d="M262.074,392.697c0,1.914-1.552,3.465-3.465,3.465c-1.914,0-3.465-1.551-3.465-3.465
					c0-1.914,1.551-3.466,3.465-3.466C260.523,389.231,262.074,390.783,262.074,392.697z"/>
			</g>
			<path style="fill:#009CF8;" d="M288.659,332.987c-19.397,12.663-55.012,11.671-77.393,0c2.138-13.317,4.953-26.65,4.348-44.374
				c-0.068-1.943-0.15-3.874-0.248-5.787c-0.086-1.665-0.184-3.318-0.289-4.953c-1.932-29.487-6.963-53.596-4.491-56.711
				c1.079-1.364,2.878-2.837,5.099-4.344c0.872-0.594,1.804-1.195,2.788-1.796c2.322-1.417,4.904-2.845,7.496-4.235
				c6.151-3.284,12.396-6.332,15.527-8.413c3.104,1.353,5.576,2.093,8.241,2.078c0.071,0,0.15,0,0.229-0.008
				c0.072,0.008,0.15,0.008,0.222,0.008c2.664,0.015,5.137-0.725,8.244-2.078c2.905,1.932,8.372,4.626,13.952,7.564
				c4.1,2.161,8.259,4.453,11.498,6.677c2.119,1.454,3.852,2.882,4.911,4.22c1.225,1.544,0.71,8.316-0.338,18.349
				c-1.037,9.871-2.589,22.907-3.528,37.235c-0.259,3.979-0.473,8.056-0.616,12.194C283.71,306.338,286.521,319.67,288.659,332.987z
				"/>
			<g>
				<path style="fill:#006BDE;" d="M276.797,318.26c-0.001,0-0.002,0-0.003,0c-15.62-0.069-28.952-7.176-37.386-13.127
					c-9.121-6.435-14.649-12.956-14.704-13.022c-0.267-0.317-0.226-0.792,0.091-1.059c0.318-0.267,0.792-0.226,1.059,0.091
					c0.054,0.064,5.481,6.461,14.454,12.785c8.25,5.815,21.279,12.761,36.491,12.828c0.415,0.002,0.75,0.34,0.748,0.755
					C277.547,317.926,277.21,318.26,276.797,318.26z"/>
			</g>
			<g>
				<path style="fill:#006BDE;" d="M266.456,309.167c-13.299-2.614-25.072-12.8-25.606-13.268c-0.312-0.274-0.344-0.748-0.071-1.06
					c0.273-0.313,0.748-0.343,1.061-0.071c0.138,0.121,13.992,12.1,28.109,13.389c0.42,0.034,0.718,0.404,0.68,0.816
					c-0.038,0.413-0.403,0.718-0.817,0.68C268.686,309.55,267.565,309.385,266.456,309.167z"/>
			</g>
			<g>
				<path style="fill:#006BDE;" d="M246.766,240.36c-0.354,0-0.669-0.251-0.738-0.612c-0.077-0.408,0.191-0.801,0.598-0.879
					c19.043-3.614,24.783-15.865,24.839-15.988c0.171-0.378,0.616-0.546,0.995-0.375c0.378,0.171,0.546,0.616,0.375,0.994
					c-0.241,0.533-6.125,13.088-25.928,16.845C246.859,240.355,246.812,240.36,246.766,240.36z"/>
			</g>
			<path style="fill:#FFA681;" d="M272.383,209.939c-3.78,8.622-13.072,17.55-25.156,15.462
				c-11.702-2.023-17.252-8.212-21.257-14.614c6.152-3.285,12.398-6.329,15.526-8.412c3.104,1.351,5.577,2.091,8.239,2.079
				c0.072,0,0.153,0,0.229-0.008c0.072,0.008,0.153,0.008,0.225,0.008c2.662,0.012,5.135-0.728,8.244-2.079
				C261.337,204.305,266.806,206.999,272.383,209.939z"/>
			<g>
				<path style="fill:#FFFFFF;" d="M262.281,203.006c-0.334-0.004-0.599,0.264-0.602,0.594c-0.004,0.485-0.202,11.881-10.432,12.764
					c-9.489,0.825-13.417-8.259-14.63-12.027c-0.071-0.221-0.276-0.369-0.508-0.369h-0.112c-0.365,0-0.623,0.356-0.508,0.702
					c1.295,3.888,5.431,13.277,15.098,12.932c0.251-0.009,0.505-0.025,0.763-0.047c11.322-0.977,11.524-13.818,11.525-13.948
					C262.877,203.277,262.611,203.008,262.281,203.006z"/>
			</g>
		</g>
		<g>
			<path style="fill:#18315B;" d="M269.513,142.43c0,0,9.143,14.162,8.141,28.913c-1.002,14.751,1.348,31.779-11.852,31.031
				c-13.199-0.748-36.743,5.292-44.226-6.197C214.093,184.689,269.513,142.43,269.513,142.43z"/>
			<path style="fill:#000B29;" d="M272.901,168.47c0,0,2.373,21.382-7.773,27.269c-10.146,5.887-17.489-0.686-17.489-0.686
				S269.026,165.25,272.901,168.47z"/>
			<g>
				<g>
					<path style="fill:#F97853;" d="M230.757,168.371c0,0-3.643-4.857-6.352-0.841c-2.709,4.017,1.121,15.88,7.753,12.984
						L230.757,168.371z"/>
					<g>
						<path style="fill:#EA5143;" d="M230.71,176.848c-0.245,0-0.47-0.162-0.54-0.409c-1.028-3.663-4.822-5.147-4.861-5.162
							c-0.289-0.11-0.434-0.434-0.325-0.723c0.11-0.289,0.433-0.435,0.722-0.326c0.177,0.067,4.359,1.69,5.543,5.908
							c0.083,0.298-0.09,0.607-0.388,0.691C230.811,176.841,230.76,176.848,230.71,176.848z"/>
					</g>
					<g>
						<path style="fill:#EA5143;" d="M226.879,175.003c-0.104,0-0.209-0.029-0.303-0.089c-0.26-0.168-0.335-0.514-0.168-0.775
							c0.028-0.043,0.699-1.067,2.104-1.696c0.281-0.127,0.614,0,0.74,0.283c0.126,0.282,0,0.614-0.283,0.74
							c-1.086,0.486-1.614,1.272-1.619,1.28C227.244,174.913,227.064,175.003,226.879,175.003z"/>
					</g>
				</g>
				<g>
					<path style="fill:#F97853;" d="M268.302,168.371c0,0,3.643-4.857,6.352-0.841c2.709,4.017-1.121,15.88-7.753,12.984
						L268.302,168.371z"/>
					<g>
						<path style="fill:#EA5143;" d="M268.348,176.848c0.245,0,0.47-0.162,0.54-0.409c1.028-3.663,4.822-5.147,4.861-5.162
							c0.289-0.11,0.434-0.434,0.325-0.723c-0.11-0.289-0.433-0.435-0.722-0.326c-0.177,0.067-4.359,1.69-5.543,5.908
							c-0.083,0.298,0.09,0.607,0.388,0.691C268.248,176.841,268.299,176.848,268.348,176.848z"/>
					</g>
					<g>
						<path style="fill:#EA5143;" d="M272.179,175.003c0.104,0,0.209-0.029,0.303-0.089c0.26-0.168,0.335-0.514,0.168-0.775
							c-0.028-0.043-0.699-1.067-2.104-1.696c-0.281-0.127-0.614,0-0.74,0.283c-0.126,0.282,0,0.614,0.283,0.74
							c1.086,0.486,1.614,1.272,1.619,1.28C271.814,174.913,271.995,175.003,272.179,175.003z"/>
					</g>
				</g>
				<path style="fill:#FFA681;" d="M258.497,190.577v11.798c0,0-3.519,6.008-8.277,6.418c-4.753,0.415-8.977-5.173-8.977-5.173
					v-12.213L258.497,190.577z"/>
				<path style="fill:#F97853;" d="M258.497,190.577v5.235c-3.193,3.543-8.861,4.798-17.253,3.56l-0.001-7.965L258.497,190.577z"/>
				<path style="fill:#FFA681;" d="M270.936,160.277c-0.219,4.585-0.656,10.318-1.53,14.903c-0.219,1.143-0.465,2.219-0.74,3.184
					c-2.483,8.693-8.693,23.602-26.079,17.392c-7.679-2.741-11.238-11.294-12.824-19.992c-1.076-5.908-1.239-11.877-1.16-16.142
					c0.084-4.355,2.46-8.334,6.249-10.481c10.262-5.818,21.091-3.649,28.22-0.908C268.021,150.133,271.188,154.992,270.936,160.277z
					"/>
				<path style="fill:#18315B;" d="M241.873,169.063c0,1.259-0.649,2.281-1.45,2.281c-0.801,0-1.45-1.021-1.45-2.281
					c0-1.259,0.649-2.28,1.45-2.28C241.223,166.783,241.873,167.804,241.873,169.063z"/>
				<path style="fill:#18315B;" d="M259.775,169.063c0,1.259-0.649,2.281-1.45,2.281s-1.45-1.021-1.45-2.281
					c0-1.259,0.649-2.28,1.45-2.28S259.775,167.804,259.775,169.063z"/>
				<path style="fill:#18315B;" d="M237.551,162.274c1.204-0.34,3.636-0.922,6.202-0.929c0.675-0.002,1.192,0.598,1.073,1.263
					l-0.003,0.017c-0.095,0.531-0.57,0.906-1.109,0.881c-1.746-0.081-6.328,0.164-8.492,1.041c-0.044-0.376,0.178-0.788,0.493-1.153
					C236.193,162.839,236.847,162.473,237.551,162.274z"/>
				<path style="fill:#18315B;" d="M260.976,162.321c-1.205-0.34-3.636-0.922-6.202-0.929c-0.675-0.002-1.192,0.598-1.073,1.263
					l0.003,0.017c0.095,0.531,0.57,0.906,1.108,0.881c1.746-0.081,6.328,0.164,8.492,1.041c0.044-0.376-0.178-0.788-0.493-1.154
					C262.334,162.885,261.679,162.519,260.976,162.321z"/>
				<g>
					<path style="fill:#F97853;" d="M249.724,179.467c-0.429,0-0.86-0.076-1.219-0.291c-0.327-0.196-0.735-0.593-0.815-1.368
						c-0.213-2.06,0.314-8.517,0.337-8.791c0.025-0.309,0.296-0.538,0.605-0.513c0.309,0.025,0.538,0.296,0.513,0.605
						c-0.006,0.066-0.541,6.627-0.339,8.584c0.035,0.34,0.174,0.461,0.276,0.522c0.526,0.315,1.742-0.007,2.248-0.212
						c0.286-0.118,0.614,0.021,0.73,0.307c0.117,0.286-0.02,0.613-0.307,0.73C251.607,179.099,250.67,179.467,249.724,179.467z"/>
				</g>
				<path style="fill:#FFFFFF;" d="M242.606,183.006c0.424,2.132,1.832,6.054,6.576,6.054c4.756,0,6.09-3.584,6.548-6.054H242.606z"
					/>
				<g>
					<path style="fill:#F97853;" d="M249.115,192.331c-1.369,0-2.578-0.737-2.629-0.769c-0.263-0.163-0.345-0.508-0.182-0.771
						c0.162-0.263,0.507-0.344,0.77-0.183l0,0c0.01,0.006,0.996,0.602,2.041,0.602c1.13,0,2.143-0.599,2.153-0.605
						c0.266-0.159,0.609-0.074,0.769,0.191c0.16,0.264,0.075,0.608-0.189,0.768C251.795,191.596,250.565,192.331,249.115,192.331z"
						/>
				</g>
			</g>
			<path style="fill:#18315B;" d="M273.193,159.364c-0.18,0.511-0.68,0.838-1.349,1.033c0.049,1.236-0.081,2.723-0.203,4.148
				c-0.692,8.101-2.735,9.523-3.197,7.52c-0.304-1.33-0.286-8.959-0.139-11.447c-1.601-0.105-2.969-0.372-2.969-0.372l-1.879-7.865
				l-0.658,7.767c-2.818,0.981-9.394-0.59-9.394-0.59l-2.206-7.752l-1.364,7.459c-4.227,2.059-9.511,0.688-9.511,0.688l-1.214-8.045
				l-2.803,8.045c0,0-9.018,3.235-9.116,0c-0.06-1.883,1.319-7.185,2.484-11.292c1.27-4.479,4.212-8.263,8.192-10.397
				c11.186-6.005,23.016-2.811,27.074-0.387C273.546,143.014,273.193,159.364,273.193,159.364z"/>
			<path style="fill:#18315B;" d="M232.158,143.029c0,0-7.424,8.83-9.867,24.601c-2.443,15.771-5.825,27.423,3.679,32.631
				c10.286,5.636,9.395-5.923,9.247-9.065c-0.148-3.142-8.897-11.729-3.059-35.915C234.043,147.473,232.158,143.029,232.158,143.029
				z"/>
			<path style="fill:#000B29;" d="M230.423,175.619c0,0,0,0.008,0,0.019c0.004,0.117,0.011,0.744,0.056,1.725
				c0.023,0.609,0.06,1.349,0.116,2.191c0.35,5.313,1.383,14.49,4.419,17.672c1.199,1.259,3.51,1.89,6.23,2.146v-4.175
				c-2.867-1.36-5.103-3.596-6.835-6.347c-1.071-2.319-2.916-5.948-3.78-11.656L230.423,175.619z"/>
			<path style="fill:#FFFFFF;" d="M271.07,180.781c0,0.725-0.588,1.313-1.313,1.313s-1.313-0.588-1.313-1.313
				c0-0.725,0.588-1.313,1.313-1.313S271.07,180.055,271.07,180.781z"/>
		</g>
		<g>
			<path style="fill:#009CF8;" d="M297.83,279.702c-3.719,10.648-20.377,9.873-39.349,4.052c-0.027-0.008-0.055-0.018-0.082-0.025
				c-0.06-0.017-0.117-0.037-0.177-0.055l-2.61-0.832c-0.36-0.117-0.722-0.237-1.082-0.36c-2.045-0.685-4.104-1.425-6.172-2.21
				c-6.779-2.575-13.61-5.627-20.052-8.881l0.045-0.112l1.94-5.039l0.662-1.715c0,0,35.172,3.832,52.856,0.135
				c0.3-0.063,0.592-0.125,0.88-0.192c-0.07-0.392-0.092-0.793-0.202-1.167c-9.37-31.9,0.877-38.016,4.307-42.465
				C288.794,220.834,304.852,259.6,297.83,279.702z"/>
			<g>
				<path style="fill:#006BDE;" d="M292.099,269.829c-0.105,0.05-0.217,0.075-0.328,0.075c-0.277,0-0.545-0.155-0.675-0.42
					c-1.34-2.745-5.889-4.377-7.286-4.824c0.3-0.063,0.592-0.125,0.88-0.192c-0.07-0.392-0.137-0.782-0.202-1.167
					c1.777,0.587,6.419,2.377,7.956,5.527C292.626,269.196,292.471,269.646,292.099,269.829z"/>
			</g>
			<g>
				<path style="fill:#006BDE;" d="M242.837,268.492c-7.178,0-13.007-0.413-13.515-0.45c-0.413-0.03-0.723-0.389-0.693-0.802
					c0.03-0.413,0.389-0.72,0.803-0.693c0.265,0.019,26.648,1.885,37.05-2.334c0.383-0.155,0.821,0.029,0.977,0.413
					c0.155,0.384-0.029,0.821-0.413,0.977C261.287,267.938,251.156,268.492,242.837,268.492z"/>
			</g>
			<g>
				<path style="fill:#006BDE;" d="M255.612,282.841c0.003,0,0.003,0,0.003,0c6.019-1.66,11.491-3.277,14.65-4.289
					c4.387-1.407,8.016-5.841,9.666-9.611c0.165-0.38,0.607-0.552,0.987-0.385c0.38,0.165,0.552,0.607,0.387,0.987
					c-1.785,4.077-5.749,8.886-10.583,10.438c-2.293,0.735-5.795,1.785-9.842,2.94C259.155,283.415,257.321,283.387,255.612,282.841
					L255.612,282.841z"/>
			</g>
			<g>
				<path style="fill:#009CF8;" d="M271.837,277.685c-54.356,18.307-71.078,6.326-71.078,6.326
					c-3.659-33.092,9.826-62.85,9.826-62.85c3.984,6.569,8.489,18.035,8.489,18.035l1.19,25.366l-0.09,0.705l-0.043,0.332
					l-0.225,1.735l-0.005,0.035c0.115,0.025,0.232,0.05,0.35,0.075c16.442,3.469,46.512-0.407,46.512-0.407L271.837,277.685z"/>
				<g>
					<path style="fill:#006BDE;" d="M220.251,267.444c-2.935,2.46-5.722,5.294-8.206,8.551c-0.25,0.33-0.722,0.395-1.052,0.143
						c-0.33-0.25-0.392-0.72-0.145-1.05c0.003,0,0.003-0.003,0.003-0.003c2.792-3.667,5.956-6.806,9.281-9.486l-0.225,1.735
						l-0.005,0.035C220.016,267.394,220.133,267.419,220.251,267.444z"/>
				</g>
				<path style="fill:#FFA681;" d="M266.763,267.037c0,0,6.018-13.67,15.167-12.453l2.759,9.884
					c-5.008,2.127-5.741,10.714-12.851,13.217L266.763,267.037z"/>
			</g>
			<path style="fill:#FFA681;" d="M230.955,264.525c0,0-3.8-8.92-13.802-11.509c-10.002-2.59-16.374,2.124-17.045,3.902
				c-0.671,1.779,3.772,0.079,3.772,0.079s-2.894,0.819-4.554,3.539c-1.66,2.72,4.041-0.215,4.041-0.215s-4.088,1.792-4.608,3.453
				c-0.52,1.661,4.872-1.145,5.885-1.092c0,0-4.815,1.914-4.782,3.628c0.033,1.714,5.531-1.081,9.636-0.86
				c4.106,0.221,10.401,1.922,10.401,1.922c3.36,0.639,6.571,1.113,9.476,1.247L230.955,264.525z"/>
		</g>
	</g>
	<g>
		<g>
			<g>
				<g>
					<g>
						<path style="fill:#006BDE;" d="M327.535,125.831c-3.702,0-6.714-3.012-6.714-6.714s3.012-6.714,6.714-6.714
							c3.702,0,6.714,3.012,6.714,6.714S331.237,125.831,327.535,125.831z M327.535,114.51c-2.541,0-4.608,2.067-4.608,4.608
							c0,2.541,2.067,4.607,4.608,4.607c2.541,0,4.607-2.067,4.607-4.607C332.143,116.577,330.076,114.51,327.535,114.51z"/>
					</g>
					<g>
						<path style="fill:#009CF8;" d="M386.11,114.425c-3.702,0-6.714-3.012-6.714-6.714c0-3.702,3.012-6.714,6.714-6.714
							c3.702,0,6.714,3.012,6.714,6.714C392.824,111.413,389.812,114.425,386.11,114.425z M386.11,103.104
							c-2.541,0-4.608,2.067-4.608,4.608c0,2.541,2.067,4.608,4.608,4.608c2.54,0,4.607-2.067,4.607-4.608
							C390.718,105.17,388.651,103.104,386.11,103.104z"/>
					</g>
					<g>
						<g>
							<g>
								<path style="fill:#006BDE;" d="M394.405,136.242c-0.581,0-1.053-0.471-1.053-1.053v-4.644c0-0.582,0.472-1.053,1.053-1.053
									c0.582,0,1.053,0.471,1.053,1.053v4.644C395.458,135.77,394.987,136.242,394.405,136.242z"/>
							</g>
							<g>
								<path style="fill:#006BDE;" d="M394.405,144.369c-0.581,0-1.053-0.471-1.053-1.053v-4.644c0-0.582,0.472-1.053,1.053-1.053
									c0.582,0,1.053,0.471,1.053,1.053v4.644C395.458,143.898,394.987,144.369,394.405,144.369z"/>
							</g>
						</g>
						<g>
							<g>
								<path style="fill:#006BDE;" d="M400.924,137.983h-4.172c-0.582,0-1.053-0.471-1.053-1.053c0-0.582,0.472-1.053,1.053-1.053
									h4.172c0.581,0,1.053,0.471,1.053,1.053C401.977,137.512,401.506,137.983,400.924,137.983z"/>
							</g>
							<g>
								<path style="fill:#006BDE;" d="M392.058,137.983h-4.172c-0.581,0-1.053-0.471-1.053-1.053c0-0.582,0.472-1.053,1.053-1.053
									h4.172c0.582,0,1.053,0.471,1.053,1.053C393.111,137.512,392.64,137.983,392.058,137.983z"/>
							</g>
						</g>
					</g>
					<g>
						<g>
							<g>
								<g>
									<path style="fill:#1C31B5;" d="M358.943,108.107c-0.582,0-1.053-0.472-1.053-1.053v-4.644c0-0.582,0.472-1.053,1.053-1.053
										s1.053,0.471,1.053,1.053v4.644C359.996,107.635,359.525,108.107,358.943,108.107z"/>
								</g>
								<g>
									<path style="fill:#1C31B5;" d="M358.943,116.234c-0.582,0-1.053-0.471-1.053-1.053v-4.644c0-0.582,0.472-1.053,1.053-1.053
										s1.053,0.471,1.053,1.053v4.644C359.996,115.763,359.525,116.234,358.943,116.234z"/>
								</g>
							</g>
							<g>
								<g>
									<path style="fill:#1C31B5;" d="M365.462,109.849h-4.172c-0.581,0-1.053-0.472-1.053-1.053c0-0.582,0.472-1.053,1.053-1.053
										h4.172c0.582,0,1.053,0.471,1.053,1.053C366.515,109.377,366.044,109.849,365.462,109.849z"/>
								</g>
								<g>
									<path style="fill:#1C31B5;" d="M356.596,109.849h-4.172c-0.582,0-1.053-0.472-1.053-1.053c0-0.582,0.472-1.053,1.053-1.053
										h4.172c0.582,0,1.053,0.471,1.053,1.053C357.65,109.377,357.178,109.849,356.596,109.849z"/>
								</g>
							</g>
						</g>
					</g>
				</g>
			</g>
			<g>
				<g>
					<g>
						<path style="fill:#006BDE;" d="M87.568,102.082c0-3.702,3.012-6.714,6.714-6.714c3.702,0,6.714,3.012,6.714,6.714
							c0,3.702-3.012,6.714-6.714,6.714C90.58,108.795,87.568,105.784,87.568,102.082z M89.675,102.082
							c0,2.541,2.067,4.607,4.607,4.607c2.541,0,4.607-2.067,4.607-4.607c0-2.541-2.067-4.608-4.607-4.608
							C91.742,97.474,89.675,99.541,89.675,102.082z"/>
					</g>
					<g>
						<path style="fill:#009CF8;" d="M60.607,127.672c0-3.702,3.012-6.714,6.714-6.714c3.702,0,6.714,3.012,6.714,6.714
							c0,3.702-3.012,6.714-6.714,6.714C63.618,134.386,60.607,131.374,60.607,127.672z M62.713,127.672
							c0,2.541,2.067,4.607,4.608,4.607c2.541,0,4.607-2.067,4.607-4.607c0-2.541-2.067-4.608-4.607-4.608
							C64.78,123.064,62.713,125.131,62.713,127.672z"/>
					</g>
					<g>
						<g>
							<g>
								<path style="fill:#006BDE;" d="M46.648,137.093c0.582,0,1.053-0.471,1.053-1.053v-4.644c0-0.582-0.472-1.053-1.053-1.053
									s-1.053,0.471-1.053,1.053v4.644C45.595,136.622,46.067,137.093,46.648,137.093z"/>
							</g>
							<g>
								<path style="fill:#006BDE;" d="M46.648,145.221c0.582,0,1.053-0.471,1.053-1.053v-4.644c0-0.582-0.472-1.053-1.053-1.053
									s-1.053,0.471-1.053,1.053v4.644C45.595,144.749,46.067,145.221,46.648,145.221z"/>
							</g>
						</g>
						<g>
							<g>
								<path style="fill:#006BDE;" d="M40.129,138.835h4.172c0.582,0,1.053-0.472,1.053-1.053c0-0.582-0.472-1.053-1.053-1.053
									h-4.172c-0.581,0-1.053,0.471-1.053,1.053C39.076,138.363,39.548,138.835,40.129,138.835z"/>
							</g>
							<g>
								<path style="fill:#006BDE;" d="M48.995,138.835h4.172c0.582,0,1.053-0.472,1.053-1.053c0-0.582-0.472-1.053-1.053-1.053
									h-4.172c-0.582,0-1.053,0.471-1.053,1.053C47.942,138.363,48.414,138.835,48.995,138.835z"/>
							</g>
						</g>
					</g>
					<g>
						<g>
							<g>
								<g>
									<path style="fill:#1C31B5;" d="M70.915,101.393c0.581,0,1.053-0.471,1.053-1.053v-4.644c0-0.582-0.472-1.053-1.053-1.053
										s-1.053,0.471-1.053,1.053v4.644C69.862,100.922,70.333,101.393,70.915,101.393z"/>
								</g>
								<g>
									<path style="fill:#1C31B5;" d="M70.915,109.521c0.581,0,1.053-0.471,1.053-1.053v-4.644c0-0.582-0.472-1.053-1.053-1.053
										s-1.053,0.472-1.053,1.053v4.644C69.862,109.049,70.333,109.521,70.915,109.521z"/>
								</g>
							</g>
							<g>
								<g>
									<path style="fill:#1C31B5;" d="M64.396,103.135h4.172c0.581,0,1.053-0.471,1.053-1.053c0-0.582-0.472-1.053-1.053-1.053
										h-4.172c-0.582,0-1.053,0.472-1.053,1.053C63.343,102.663,63.814,103.135,64.396,103.135z"/>
								</g>
								<g>
									<path style="fill:#1C31B5;" d="M73.262,103.135h4.172c0.582,0,1.053-0.471,1.053-1.053c0-0.582-0.472-1.053-1.053-1.053
										h-4.172c-0.582,0-1.053,0.472-1.053,1.053C72.209,102.663,72.68,103.135,73.262,103.135z"/>
								</g>
							</g>
						</g>
					</g>
				</g>
			</g>
		</g>
		<g>
			<g>
				<g>
					<path style="fill:#BBE2F2;" d="M271.69,102.564c-0.122,0.013-0.248-0.004-0.369-0.055c-1.278-0.539-2.027-0.791-2.035-0.794
						c-0.392-0.131-0.603-0.554-0.473-0.946c0.131-0.392,0.554-0.603,0.946-0.473c0.032,0.011,0.805,0.27,2.143,0.834
						c0.38,0.161,0.559,0.599,0.398,0.98C272.191,102.371,271.952,102.536,271.69,102.564z"/>
				</g>
				<g>
					<path style="fill:#BBE2F2;" d="M309.799,142.673c0.509,1.357,0.985,2.756,1.416,4.159c0.107,0.347,0.444,0.561,0.793,0.524
						c0.047-0.005,0.095-0.015,0.142-0.029c0.395-0.121,0.616-0.54,0.495-0.934c-0.44-1.432-0.926-2.86-1.445-4.244
						c-0.145-0.386-0.574-0.582-0.962-0.438C309.85,141.855,309.654,142.286,309.799,142.673z"/>
					<path style="fill:#BBE2F2;" d="M312.38,151.068c0.343,1.405,0.652,2.851,0.921,4.299c0.072,0.386,0.429,0.648,0.813,0.607
						c0.019-0.002,0.039-0.005,0.058-0.008c0.406-0.076,0.674-0.466,0.599-0.872c-0.273-1.475-0.589-2.949-0.938-4.381
						c-0.098-0.401-0.503-0.647-0.904-0.549C312.528,150.262,312.283,150.667,312.38,151.068z"/>
					<path style="fill:#BBE2F2;" d="M315.534,173.65c0.371-0.039,0.662-0.35,0.668-0.732c0.023-1.5,0.012-3.006-0.032-4.475
						c-0.012-0.413-0.357-0.737-0.77-0.725c-0.418,0.015-0.737,0.357-0.725,0.77c0.044,1.446,0.054,2.929,0.032,4.407
						c-0.006,0.413,0.323,0.753,0.736,0.759C315.474,173.655,315.504,173.653,315.534,173.65z"/>
					<path style="fill:#BBE2F2;" d="M314.628,158.873c-0.41,0.053-0.699,0.428-0.645,0.838c0.088,0.676,0.168,1.359,0.239,2.03
						c0.082,0.774,0.155,1.565,0.216,2.349c0.032,0.412,0.392,0.719,0.804,0.687c0.007-0.001,0.013-0.001,0.02-0.002
						c0.401-0.042,0.698-0.397,0.667-0.802c-0.063-0.797-0.136-1.601-0.219-2.389c-0.072-0.683-0.154-1.378-0.243-2.066
						c-0.052-0.403-0.417-0.69-0.819-0.647C314.641,158.872,314.634,158.872,314.628,158.873z"/>
					<path style="fill:#BBE2F2;" d="M308.131,138.61c0.135,0.303,0.448,0.471,0.761,0.438c0.076-0.008,0.153-0.028,0.227-0.061
						c0.377-0.169,0.546-0.611,0.377-0.988c-0.609-1.362-1.269-2.72-1.961-4.035c-0.192-0.366-0.644-0.506-1.01-0.314
						c-0.365,0.192-0.506,0.644-0.314,1.01C306.889,135.948,307.534,137.276,308.131,138.61z"/>
					<path style="fill:#BBE2F2;" d="M275.293,104.368c1.284,0.656,2.58,1.37,3.852,2.123c0.144,0.085,0.305,0.117,0.459,0.1
						c0.227-0.024,0.44-0.151,0.566-0.363c0.21-0.355,0.093-0.814-0.262-1.024c-1.298-0.769-2.622-1.498-3.933-2.168
						c-0.367-0.187-0.818-0.042-1.006,0.326C274.78,103.729,274.925,104.179,275.293,104.368z"/>
					<path style="fill:#BBE2F2;" d="M286.437,111.409c0.158,0.121,0.349,0.169,0.532,0.149c0.197-0.021,0.386-0.12,0.516-0.29
						c0.251-0.328,0.188-0.798-0.141-1.048c-1.184-0.904-2.41-1.784-3.644-2.617c-0.343-0.231-0.807-0.141-1.038,0.202
						c-0.231,0.342-0.141,0.807,0.202,1.038C284.074,109.659,285.276,110.523,286.437,111.409z"/>
					<path style="fill:#BBE2F2;" d="M299.002,123.652c0.165,0.207,0.418,0.302,0.663,0.276c0.137-0.015,0.272-0.067,0.388-0.16
						c0.322-0.258,0.375-0.729,0.116-1.051c-0.929-1.16-1.909-2.309-2.913-3.413c-0.277-0.306-0.75-0.329-1.056-0.051
						c-0.306,0.278-0.328,0.751-0.05,1.056C297.132,121.391,298.092,122.516,299.002,123.652z"/>
					<path style="fill:#BBE2F2;" d="M293.095,117.15c0.166,0.161,0.387,0.23,0.601,0.208c0.168-0.018,0.33-0.092,0.457-0.222
						c0.288-0.296,0.281-0.769-0.014-1.057c-1.063-1.035-2.177-2.054-3.31-3.031c-0.313-0.27-0.785-0.234-1.054,0.078
						c-0.27,0.313-0.235,0.785,0.078,1.054C290.962,115.137,292.053,116.136,293.095,117.15z"/>
					<path style="fill:#BBE2F2;" d="M304.045,130.84c0.156,0.255,0.439,0.384,0.717,0.354c0.107-0.011,0.213-0.046,0.311-0.105
						c0.352-0.215,0.464-0.676,0.248-1.028c-0.776-1.271-1.603-2.534-2.458-3.754c-0.237-0.338-0.703-0.42-1.042-0.183
						c-0.338,0.237-0.42,0.704-0.183,1.042C302.475,128.36,303.285,129.596,304.045,130.84z"/>
				</g>
			</g>
			<g>
				<g>
					<polygon style="fill:#009CF8;" points="271.675,97.448 274.948,85.328 234.85,85.672 					"/>
					<polygon style="fill:#006BDE;" points="234.85,85.671 269.729,100.374 269.821,100.414 271.322,102.899 271.675,97.448 					
						"/>
					<polygon style="fill:#006BDE;" points="271.322,102.899 268.071,102.387 269.821,100.414 					"/>
					<polygon style="fill:#009CF8;" points="265.433,98.563 269.822,100.413 260.783,110.598 234.85,85.672 					"/>
				</g>
			</g>
		</g>
	</g>
	<g>
		<path style="fill:#1C31B5;" d="M456.055,416.312v0.731c0,4.214-3.418,7.632-7.634,7.632H52.473c-4.217,0-7.632-3.418-7.632-7.632
			v-0.731c0-4.214,3.415-7.632,7.632-7.632h395.948C452.638,408.681,456.055,412.098,456.055,416.312z"/>
		<path style="fill:#006BDE;" d="M456.055,416.312v0.365H44.841v-0.365c0-4.214,3.415-7.632,7.632-7.632h395.948
			C452.638,408.681,456.055,412.098,456.055,416.312z"/>
	</g>
	<g>
		<path style="fill:#18315B;" d="M311.044,384.671H186.658c-2.972,0-5.381-2.409-5.381-5.381v-65.077
			c0-2.972,2.409-5.381,5.381-5.381h124.385c2.972,0,5.381,2.409,5.381,5.381v65.077
			C316.425,382.262,314.015,384.671,311.044,384.671z"/>
		<rect x="238.386" y="384.585" style="fill:#000B29;" width="20.931" height="23.861"/>
		<circle style="fill:#1D567E;" cx="248.617" cy="347.681" r="10.388"/>
		<path style="fill:#18315B;" d="M275.51,408.445h-53.988v-1.819c0-3.67,2.975-6.646,6.645-6.646h40.697
			c3.67,0,6.645,2.975,6.645,6.646V408.445z"/>
	</g>
</g>

</svg>
