<svg version="1.1" id="Layer_1" xmlns="http://www.w3.org/2000/svg" xmlns:xlink="http://www.w3.org/1999/xlink" 
	 width="800px" height="800px" viewBox="0 0 23 32" enable-background="new 0 0 23 32" xml:space="preserve">
<g>
	<path fill="#fff" d="M0,30.5C0,31.327,0.673,32,1.5,32h20c0.827,0,1.5-0.673,1.5-1.5v-23C23,6.673,22.327,6,21.5,6h-18
		C2.121,6,1,4.879,1,3.5S2.121,1,3.5,1H22c0.276,0,0.5-0.224,0.5-0.5S22.276,0,22,0H3.5C1.57,0,0,1.57,0,3.5
		c0,0.123,0.007,0.244,0.019,0.364C0.007,3.907,0,3.953,0,4V30.5z M1,5.947C1.636,6.597,2.521,7,3.5,7h18C21.775,7,22,7.225,22,7.5
		v23c0,0.275-0.225,0.5-0.5,0.5h-20C1.225,31,1,30.775,1,30.5V5.947z"/>
	<path fill="#fff" d="M22,3H4C3.724,3,3.5,3.224,3.5,3.5S3.724,4,4,4h18c0.276,0,0.5-0.224,0.5-0.5S22.276,3,22,3z"/>
</g>
</svg>