<svg xmlns="http://www.w3.org/2000/svg" width="70" height="70" viewBox="0 0 70 70" fill="none">
  <path d="M49.0874 45.6166C51.0416 44.3333 53.6083 45.7333 53.6083 48.0666V51.8291C53.6083 55.5333 50.7208 59.5 47.2499 60.6666L37.9458 63.7583C36.3124 64.3125 33.6583 64.3125 32.0541 63.7583L22.7499 60.6666C19.2499 59.5 16.3916 55.5333 16.3916 51.8291V48.0375C16.3916 45.7333 18.9583 44.3333 20.8833 45.5875L26.8916 49.4958C29.1958 51.0416 32.1124 51.8 35.0291 51.8C37.9458 51.8 40.8624 51.0416 43.1666 49.4958L49.0874 45.6166Z" fill="#EBEBEB"/>
  <path d="M58.2749 18.8417L40.8041 7.37917C37.6541 5.30834 32.4624 5.30834 29.3124 7.37917L11.7541 18.8417C6.12494 22.4875 6.12494 30.7417 11.7541 34.4167L16.4208 37.45L29.3124 45.85C32.4624 47.9208 37.6541 47.9208 40.8041 45.85L53.6083 37.45L57.6041 34.825V43.75C57.6041 44.9458 58.5958 45.9375 59.7916 45.9375C60.9874 45.9375 61.9791 44.9458 61.9791 43.75V29.4C63.1458 25.6375 61.9499 21.2625 58.2749 18.8417Z" fill="#EBEBEB"/>
</svg>