<svg xmlns="http://www.w3.org/2000/svg" viewBox="0 0 24 24" id="code-forces"><path fill="#F44336" d="M24 19.5V12a1.5 1.5 0 0 0-1.5-1.5h-3A1.5 1.5 0 0 0 18 12v7.5a1.5 1.5 0 0 0 1.5 1.5h3a1.5 1.5 0 0 0 1.5-1.5z"></path><path fill="#2196F3" d="M13.5 21a1.5 1.5 0 0 0 1.5-1.5v-15A1.5 1.5 0 0 0 13.5 3h-3C9.673 3 9 3.672 9 4.5v15c0 .828.673 1.5 1.5 1.5h3z"></path><path fill="#FFC107" d="M0 19.5c0 .828.673 1.5 1.5 1.5h3A1.5 1.5 0 0 0 6 19.5V9a1.5 1.5 0 0 0-1.5-1.5h-3C.673 7.5 0 8.172 0 9v10.5z"></path></svg>