<svg xmlns="http://www.w3.org/2000/svg" viewBox="0 0 750 500"><g id="freepik--Floor--inject-66"><polygon points="73.33 399.43 148.74 399.19 224.16 399.1 375 398.93 525.84 399.1 601.26 399.18 676.67 399.43 601.26 399.67 525.84 399.76 375 399.93 224.16 399.76 148.74 399.67 73.33 399.43" style="fill:#263238"></polygon></g><g id="freepik--Shadow--inject-66"><ellipse cx="375" cy="429.47" rx="306.75" ry="28.85" style="fill:#ebebeb"></ellipse></g><g id="freepik--character-2--inject-66"><polygon points="404.73 314.99 402.36 329.22 386.28 416.04 383.69 416.04 395.38 329.22 397.11 314.99 404.73 314.99" style="fill:#dbdbdb"></polygon><polygon points="397.11 314.99 404.73 314.99 402.36 329.22 395.38 329.22 397.11 314.99" style="fill:#a6a6a6"></polygon><polygon points="455.21 416.04 452.62 416.04 436.55 329.22 434.17 314.99 441.8 314.99 443.52 329.22 455.21 416.04" style="fill:#dbdbdb"></polygon><polygon points="441.8 314.99 443.52 329.22 436.55 329.22 434.17 314.99 441.8 314.99" style="fill:#a6a6a6"></polygon><polygon points="503.43 416.04 500.84 416.04 484.77 329.22 482.39 314.99 490.02 314.99 491.74 329.22 503.43 416.04" style="fill:#dbdbdb"></polygon><polygon points="491.74 329.22 484.77 329.22 482.39 314.99 490.02 314.99 491.74 329.22" style="fill:#a6a6a6"></polygon><polygon points="499.32 321.67 381.52 321.67 381.52 309.26 425.62 309.26 440.44 223.03 494.83 223.03 499.32 321.67" style="fill:#dbdbdb"></polygon><polygon points="499.32 321.67 492.9 321.67 488.72 223.03 494.83 223.03 499.32 321.67" style="fill:#a6a6a6"></polygon><path d="M447.57,155.73c15.18,7.17,24.67,36.59,17,60.51-8.27,25.84-34.73,30.77-49.94,25.25-16.14-5.86-21-23.7-13.69-34.37,7.08-10.31,18.74-13.37,21.9-22.79,1.51-4.51,1.31-12.84,3.25-19.6C428.29,157.19,438.39,151.4,447.57,155.73Z" style="fill:#263238"></path><path d="M453.43,159.83A64.6,64.6,0,0,1,467,182a51.69,51.69,0,0,1,2.85,12.77,49.67,49.67,0,0,1,.14,6.57,59.33,59.33,0,0,1-.71,6.52c-1.46,8.6-5,17-11,23.45a37.11,37.11,0,0,1-10.5,7.78,37.74,37.74,0,0,1-12.49,3.61,38,38,0,0,0,22.47-11.87c5.83-6.37,9.27-14.64,10.64-23.12a60.07,60.07,0,0,0,.74-6.42,47.74,47.74,0,0,0-.1-6.44,54.6,54.6,0,0,0-2.68-12.62,65.18,65.18,0,0,0-5.38-11.78A67.49,67.49,0,0,0,453.43,159.83Z" style="fill:#263238"></path><path d="M424.55,173.34a39.6,39.6,0,0,1-1,7.16,22.89,22.89,0,0,1-2.84,6.7,19.45,19.45,0,0,1-5.05,5.3c-2,1.39-3.93,2.77-5.8,4.25a35.86,35.86,0,0,0-9.54,10.48,21.51,21.51,0,0,0-2.51,13.8,21,21,0,0,1-.34-7.21,18.67,18.67,0,0,1,.82-3.55,21.66,21.66,0,0,1,1.42-3.37c2.26-4.36,5.82-7.85,9.58-10.87,1.9-1.51,3.91-2.86,5.88-4.22a19.89,19.89,0,0,0,4.93-5C422.8,182.89,423.89,178.08,424.55,173.34Z" style="fill:#263238"></path><path d="M392.89,426.78c2.28-.31,59.65-28.94,61.11-31.35.18-.28-2.29-5.52-5.81-12.64-7.93-16.13-23.8-43.41-23.8-43.41l-34.54,19.41,19,36s-6.38,7.72-11.56,14.28c0,0,0,0,0,0a90.61,90.61,0,0,0-6.43,8.7C389.56,420.62,390.62,427.1,392.89,426.78Z" style="fill:#f7a9a0"></path><path d="M454,395.43c-1.46,2.41-58.83,31-61.11,31.35s-3.33-6.16-2-9a90.61,90.61,0,0,1,6.43-8.7v0c2.74-3.46,5.81-7.25,8.09-10.06-1.68,2.51-4.46,7.09-2.83,8,3,1.64,28.72-11.71,45.63-24.21C451.71,389.91,454.18,395.15,454,395.43Z" style="fill:#263238"></path><path d="M402,391.61l40-21.12s-30.53-59.82-29.73-60.87c2.8-3.61,36.61-2,51.21-16.48,15.46-15.36,3.65-37.24,3.65-37.24H426.8s.37,11-1.37,12.4c-1.14.95-60.53,6.68-62.86,22.35C358.55,317.78,402,391.61,402,391.61Z" style="fill:#37474f"></path><path d="M399.55,384.16c4.81-2.91,9.74-5.59,14.69-8.26s9.93-5.27,15-7.76c2.84-1.41,5.74-2.68,8.58-4.08a.08.08,0,0,1,.07.14c-2.49,1.34-4.91,2.81-7.4,4.16s-4.9,2.65-7.36,4c-5,2.63-10,5.2-14.94,7.81-2.81,1.46-5.65,2.85-8.51,4.21A.1.1,0,0,1,399.55,384.16Z" style="fill:#263238"></path><path d="M396.43,303c1-2.05,3.62-2.35,5.59-2.84l16.11-4c9.52-2.35,19.32-4.58,27.85-9.62,4.07-2.41,8-5.45,10.06-9.85s2-9.07,2.07-13.72c0-1.14-.06-2.29-.14-3.43,0-.1.15-.1.16,0,.29,4.57.76,9.14-.26,13.67a18.43,18.43,0,0,1-2.56,6.16,21.12,21.12,0,0,1-4.65,4.88c-7.54,5.92-17,8.75-26.14,11.08-5.17,1.32-10.36,2.58-15.55,3.85l-8,2a7.33,7.33,0,0,0-3.29,1.3,3.44,3.44,0,0,0-1,2.9,11,11,0,0,0,.81,3.18c.48,1.25,1,2.5,1.49,3.74q1.49,3.64,3,7.26,3.13,7.29,6.52,14.46c4.49,9.53,9.29,18.92,14.18,28.25.61,1.17,1.2,2.34,1.8,3.51,0,.07-.07.13-.11.06-5.24-9.23-10.14-18.67-14.8-28.2s-9-19.07-12.77-28.92C396.2,306.9,395.56,304.76,396.43,303Z" style="fill:#263238"></path><path d="M283.76,428.91c2.19.72,66.3,0,68.66-1.5.29-.17.31-13.91.31-13.91,10.52-23.9,20-47,20-47L328,366.43l-15.86,40.7s-9.12,4.16-16.65,7.8h0a89.66,89.66,0,0,0-9.58,5C283.46,421.91,281.58,428.2,283.76,428.91Z" style="fill:#f7a9a0"></path><path d="M353,413c-.07.17-.15.33-.22.5,0,0,0,13.74-.31,13.91-2.36,1.54-66.47,2.22-68.66,1.5s-.3-7,2.1-9a89.66,89.66,0,0,1,9.58-5h0c2.41-1.17,5-2.39,7.38-3.5-2.49,1.63-5.44,3.94-4.51,5.18C300.48,419.49,332.31,417.81,353,413Z" style="fill:#263238"></path><path d="M315.41,398.53l48.4-.35s24.34-62.7,28.27-66.9c2-2.13,15.31-4.5,31.22-8l.08,0c5.88-1.29,12.11-2.73,18.24-4.39,16-4.26,31.33-9.86,38.32-17.6,14.63-16.17,0-45.39,0-45.39H438.73s-1,12.72,2.13,20.51c0,0-30.32,4.45-55.85,12.74-14.47,4.69-27.4,10.62-32.41,17.68C342.83,320.61,315.41,398.53,315.41,398.53Z" style="fill:#37474f"></path><path d="M320.87,391.27c5.61-.41,11.22-.56,16.84-.69s11.24-.19,16.86-.13c3.16,0,6.33.21,9.49.26.1,0,.11.15,0,.15-2.83.07-5.65.28-8.48.35s-5.57.15-8.36.19c-5.62.1-11.24.12-16.86.19-3.16,0-6.33,0-9.49-.11A.11.11,0,0,1,320.87,391.27Z" style="fill:#263238"></path><path d="M459,261.91a2.38,2.38,0,0,0,.23.55.07.07,0,0,1,0,.09c.55,1.69.77,3.48,1.29,5.17a8.11,8.11,0,0,0,3.13,4.47c3.2,2.22,7,3.23,10.76,4.15.12,0,.08.2,0,.21a20.44,20.44,0,0,1-6.35-1,16.62,16.62,0,0,1-5.35-2.56,8.35,8.35,0,0,1-3.06-4.62,27.19,27.19,0,0,1-.54-3,22.71,22.71,0,0,1-.37-3.48A.16.16,0,0,1,459,261.91Z" style="fill:#263238"></path><path d="M433.33,273.57a47,47,0,0,1,7.4,2.83l.12.05a1.74,1.74,0,0,1-.11-.45l-.09-.53c0-.19,0-.38-.06-.56l0-.29v0a2.17,2.17,0,0,1-1.59-.82,5.9,5.9,0,0,1-1-2.33c-.28-1.05-.53-2.11-.77-3.18s-.47-2.38-.66-3.57a24.9,24.9,0,0,1-.41-3.55.17.17,0,0,1,.34,0c.27,1.09.4,2.22.6,3.33s.45,2.21.7,3.32.53,2.19.83,3.28.55,2.38,1.67,2.7c2.31.65,1.27-4.54,1.17-5.55-.23-2.36-.38-4.76-.79-7.08,0-.1.13-.14.15,0,.5,2.14,1.08,4.24,1.46,6.41.19,1.07.32,2.14.44,3.21a5,5,0,0,1-.22,2.76,2,2,0,0,1-1.53,1.13l.08.25c0,.17.11.34.15.51l.12.53a1.29,1.29,0,0,1,.08.64.27.27,0,0,1-.12.14c1,.43,2,.86,3,1.31a24.26,24.26,0,0,1,3.55,1.73c.14.06,0,.24-.1.22a27.56,27.56,0,0,1-3.72-1.35c-1.24-.48-2.46-1-3.68-1.49a45.6,45.6,0,0,1-7-3.28C433.11,273.71,433.2,273.54,433.33,273.57Z" style="fill:#263238"></path><path d="M367.45,367.86q3.84-9.47,8.11-18.76t9-18.38c1.37-2.63,2.62-5.29,5.38-6.71a19.78,19.78,0,0,1,4-1.41c1.61-.43,3.22-.84,4.83-1.25,13.13-3.32,26.4-6.05,39.43-9.71,6.52-1.83,13-3.89,19.29-6.35,5.12-2,10.23-4.33,14.49-7.86a23.52,23.52,0,0,0,5.2-5.92c1.62-2.71,5.39-10.07-.2-32.35,0-.1.11-.17.13-.07,4.47,15.87,3.52,24.51,2.71,27.66a20.33,20.33,0,0,1-3.66,7.39c-3.3,4.21-8,7.14-12.73,9.42a132.21,132.21,0,0,1-17.67,6.62c-13,4.07-26.32,6.92-39.56,10.06q-4.94,1.17-9.83,2.41c-2.93.75-6.34,1.34-8.44,3.72a19.48,19.48,0,0,0-2.44,4c-.79,1.51-1.56,3-2.33,4.56q-2.37,4.68-4.63,9.4-8.92,18.66-16.25,38.05c-.61,1.59-1.2,3.19-1.82,4.79a.1.1,0,0,1-.19-.06C362.38,380.63,364.89,374.22,367.45,367.86Z" style="fill:#263238"></path><path d="M381.79,353.38a184.67,184.67,0,0,1,6.87-17.27c1.28-2.53,2.73-5.54,5.53-6.62a39,39,0,0,1,4.59-1.26c1.63-.41,3.25-.81,4.88-1.2q4.89-1.17,9.81-2.19a111.6,111.6,0,0,1,11-1.88c.09,0,.09.13,0,.15-3.13.91-6.33,1.6-9.5,2.37s-6.2,1.46-9.29,2.22-6.35,1.57-9.51,2.4a7.79,7.79,0,0,0-3.71,2c-1.42,1.39-9.67,20.3-10.46,21.83C381.82,354.35,381.66,353.84,381.79,353.38Z" style="fill:#263238"></path><path d="M362.49,298.19a99.4,99.4,0,0,1,17.57-8.4c4.61-1.64,9.35-2.9,14.07-4.18q14.55-4,29.43-6.63,4.23-.75,8.48-1.43a75.19,75.19,0,0,1,8.33-1,.09.09,0,0,1,0,.17c-2.45.61-5,1-7.46,1.41s-4.91.86-7.36,1.33q-7.35,1.41-14.64,3.06c-9.63,2.19-19.22,4.77-28.69,7.56-7.88,2.32-15.32,6.61-19.55,8.5A.21.21,0,0,1,362.49,298.19Z" style="fill:#263238"></path><path d="M443.92,207.16c-5,19.78-9.14,35.12-14.69,39-4.49,3.08-33,9.85-38.58,10.44-2.2.23-4,.38-5.33.5-3.22.28-9-20.87-6.73-23.52.51-.6,2.62-1.11,5.59-1.55,10-1.47,30.89-2.16,32.05-3.31s7.37-9.76,15.75-21c5.79-7.78,9.45-10.17,11.49-8.09C444.62,200.75,444.88,203.34,443.92,207.16Z" style="fill:#f7a9a0"></path><path d="M390.65,256.55a83.85,83.85,0,0,1-10.27,4c-2.79.77-10.91,2.76-12.06-.24-.78-2,3.85-3.77,7.1-5.07,1.71-.68,3.84-2.43,3.35-3.53-.85-1.93-5.25-.08-8.16,1.55-5.62,3.16-13.12,8.87-16.48,6-1.27-1.09.25-3,2.46-4.88-3.57,2.17-7.38,3.93-8.84,2.78a1.86,1.86,0,0,1-.37-2.54,2.49,2.49,0,0,1-2.73-.47c-1.14-1.22-.55-3,.74-4.8a1.41,1.41,0,0,1-1-.7c-2.38-3.76,10-14.25,14.23-15.19,12.47-2.77,25.67-1.49,25.67-1.49C389.07,236,390.66,256.54,390.65,256.55Z" style="fill:#f7a9a0"></path><path d="M372.55,244.69a20.24,20.24,0,0,0-8.33,3.06c-2.94,1.95-5.28,4.64-8,6.85-.08.06,0,.17.09.11,1.28-1.15,2.68-2.17,4-3.26s2.56-2.19,3.92-3.16a20,20,0,0,1,8.31-3.55S372.58,244.68,372.55,244.69Z" style="fill:#263238"></path><path d="M370.31,239.38a50.25,50.25,0,0,0-9.69,3.2c-3.34,1.64-6,4.35-8.57,7q-2.34,2.35-4.56,4.81c-.07.06,0,.18.09.11,2.63-2.7,5.34-5.33,8.14-7.86a26.39,26.39,0,0,1,8.87-5.41c1.88-.69,3.81-1.22,5.74-1.76C370.36,239.43,370.35,239.37,370.31,239.38Z" style="fill:#263238"></path><path d="M366.9,234.72c-3.19.6-6,1.12-8.8,2.77a45.85,45.85,0,0,0-8.68,7.26c-1.41,1.47-2.78,3-4.12,4.51-.05.06.06.16.11.1a104.32,104.32,0,0,1,9.83-9.44,20.72,20.72,0,0,1,5.46-3.44,38,38,0,0,1,6.2-1.74S366.91,234.72,366.9,234.72Z" style="fill:#263238"></path><path d="M390.13,231.16l4.15,25.75s29.63-4.26,36.71-10.45,12.05-31.21,14-40.68-3.26-10.9-10.89-1.91-17.72,23.92-18.48,24.48S390.13,231.16,390.13,231.16Z" style="fill:#6A78E1"></path><g style="opacity:0.1"><path d="M445.16,200.14H437.8l.43-.34h6.83A2.75,2.75,0,0,1,445.16,200.14Z"></path><path d="M445.35,203.28a1.84,1.84,0,0,1,0,.33h-11l.29-.33Z"></path><path d="M444.79,206.75c0,.11,0,.23-.07.34H431.46a4,4,0,0,1,.27-.34Z"></path><path d="M444.07,210.23c0,.11-.05.22-.07.33H428.74l.26-.33Z"></path><path d="M443.33,213.7c0,.11-.06.23-.08.34H426.12c.08-.11.17-.22.25-.34Z"></path><path d="M442.54,217.18c0,.11-.06.22-.08.33h-18.9l.24-.33Z"></path><path d="M441.7,220.65c0,.11-.06.23-.08.34H421l.26-.34Z"></path><path d="M440.8,224.13c0,.11-.06.22-.08.33H418.54l.24-.33Z"></path><path d="M439.84,227.6c0,.11-.07.23-.1.34H416l.27-.34Z"></path><path d="M438.77,231.08c0,.11-.07.22-.1.33h-48.5l0-.25.82-.08Z"></path><path d="M437.59,234.55l-.12.34H390.73l-.05-.34Z"></path><path d="M436.22,238c0,.11-.09.22-.14.33H391.29l-.05-.33Z"></path><path d="M434.59,241.5a3.72,3.72,0,0,1-.19.34H391.85l-.05-.34Z"></path><path d="M432.38,245l-.28.33H392.41l-.05-.33Z"></path><path d="M427.87,248.45l-.71.34H393l-.05-.34Z"></path><path d="M418.3,251.93l-1.19.33H393.53l0-.33Z"></path><path d="M403.17,255.4l-1.86.34h-7.22l0-.34Z"></path></g><polygon points="391.56 259.45 398.78 258.15 393.77 228.75 386.77 229.56 391.56 259.45" style="fill:#6A78E1"></polygon><path d="M396.62,243.4c-.4-2-.8-4.05-1.22-6.07s-.76-4.07-1.33-6c0-.09-.18-.08-.17,0,.18,2,.58,4,.91,5.92s.71,4.16,1.08,6.24c.72,4.1,1.62,8.16,2.58,12.22,0,.1.16.06.15,0C398.05,251.55,397.41,247.47,396.62,243.4Z" style="fill:#263238"></path><path d="M426,243.23l-2.55,25.3s50.24,4.58,62.81,3.14c0,0-12.86-57.84-27.07-72-7.11-7.06-15.05-6.16-19.9-.79-1.23,1.36-15.66,22.29-16.94,30.1C421.25,235.9,426,243.23,426,243.23Z" style="fill:#6A78E1"></path><path d="M432.79,208.65a0,0,0,0,0-.08-.05c-1,1.51-2,3.06-2.89,4.62.29-.75.58-1.49.91-2.22,0-.09-.1-.17-.14-.08-.51,1.13-1,2.23-1.52,3.37-.08.19-.15.38-.22.57l-.56.94a78.75,78.75,0,0,0-3.92,7.23c-2.58,5.61-3,8.28-1.61,13.24a20.52,20.52,0,0,0,3.19,6.94,43.94,43.94,0,0,0-.66,6.1c0,.07.22,0,.24-.05a48.3,48.3,0,0,0,.89-6c0-.08-3.89-8.22-3.55-12.65.35-4.61,2.93-8.85,5-12.88a.05.05,0,0,0,.08,0c.09-.23.19-.45.28-.67l.24-.46C429.87,213.93,431.38,211.31,432.79,208.65Z" style="fill:#263238"></path><g style="opacity:0.1"><path d="M455.32,196.66H441.88l.52-.33h12.34Z"></path><path d="M459.62,200.14H438.36l.25-.34h20.68Z"></path><path d="M462.38,203.61H436l.23-.33h26Z"></path><path d="M464.57,207.09H433.65l.22-.34h30.5A3.79,3.79,0,0,1,464.57,207.09Z"></path><path d="M466.45,210.56h-35l.21-.33h34.63Z"></path><path d="M468.13,214h-38.8c.07-.11.13-.23.21-.34H468Z"></path><path d="M469.68,217.51H427.33l.18-.33h42C469.58,217.29,469.63,217.4,469.68,217.51Z"></path><path d="M471.11,221H425.47c.06-.11.11-.22.18-.34H471C471,220.76,471.07,220.88,471.11,221Z"></path><path d="M472.45,224.46H423.83l.15-.33h48.35Z"></path><path d="M473.73,227.94H422.59a1.62,1.62,0,0,1,.1-.34h50.92Z"></path><path d="M475,231.41H422.18v-.33h52.66C474.87,231.19,474.91,231.3,475,231.41Z"></path><path d="M476.12,234.89H422.6c0-.11-.05-.23-.07-.34H476Z"></path><path d="M477.23,238.36h-53.6l-.12-.33h53.62C477.16,238.14,477.2,238.25,477.23,238.36Z"></path><path d="M478.31,241.84H425.2l-.17-.34h53.18Z"></path><path d="M479.36,245.31H425.79l0-.33h53.44C479.29,245.09,479.32,245.2,479.36,245.31Z"></path><path d="M480.36,248.79H425.44l0-.34h54.79C480.3,248.56,480.33,248.68,480.36,248.79Z"></path><path d="M481.34,252.26H425.09l0-.33h56.13Z"></path><path d="M482.29,255.74H424.74l0-.34H482.2Z"></path><path d="M483.21,259.21H424.39l0-.33h58.7Z"></path><path d="M484.1,262.69H424l0-.34H484Z"></path><path d="M485,266.16H423.69l0-.33h61.16C484.9,265.94,484.93,266.05,485,266.16Z"></path><path d="M485.79,269.64H436.65l-4.21-.34h53.27C485.74,269.42,485.77,269.53,485.79,269.64Z"></path></g><path d="M447,194.89c-5.58,1.83-11.72,10.7-10.76,12s5.37-1.67,5.37-1.67,0,3.89,2.39,4.22,6.66-4.41,7.86-8C453.64,196.05,451.74,193.33,447,194.89Z" style="fill:#fff"></path><path d="M451.66,197.27c-.27,1-5.27,7.31-9.83,6.93-1.48-.13-1.16-8.26-1.16-8.26l-.11-.61L439,186.85l10.11-6,1.46-.79s.28,2.35.6,5.28c0,.14,0,.27,0,.42a4,4,0,0,1,.06.47c.06.44.11.89.15,1.33s.07.67.09,1,.06.71.09,1.06A55.17,55.17,0,0,1,451.66,197.27Z" style="fill:#f7a9a0"></path><path d="M451.15,185.35a17.3,17.3,0,0,1-10.59,10L439,186.85l10.11-6,1.46-.79S450.83,182.42,451.15,185.35Z" style="fill:#263238"></path><path d="M426.92,175.26c.21,15.14,9.3,16.73,12.57,16.68,3,0,13.05-.57,14.41-15.65s-5.75-19.78-12.53-20S426.71,160.12,426.92,175.26Z" style="fill:#f7a9a0"></path><path d="M429.1,171a8.39,8.39,0,0,0,1-.22,1.75,1.75,0,0,0,1-.44.54.54,0,0,0,0-.65,1.35,1.35,0,0,0-1.32-.3,2,2,0,0,0-1.23.71A.57.57,0,0,0,429.1,171Z" style="fill:#263238"></path><path d="M439.05,171a8.92,8.92,0,0,1-1-.2,1.77,1.77,0,0,1-1-.4.54.54,0,0,1,0-.66,1.33,1.33,0,0,1,1.31-.33,1.91,1.91,0,0,1,1.24.68A.57.57,0,0,1,439.05,171Z" style="fill:#263238"></path><path d="M437.08,174.82s.08.05.08.09c-.05,1,.08,2.22,1,2.57,0,0,0,.07,0,.06C437,177.37,436.87,175.79,437.08,174.82Z" style="fill:#263238"></path><path d="M438,173.75c1.66-.11,1.76,3.22.22,3.32S436.62,173.84,438,173.75Z" style="fill:#263238"></path><path d="M438.67,173.91c.3.18.59.5.94.53s.7-.33,1-.67c0,0,.06,0,.06,0,0,.64-.2,1.3-.88,1.42s-1.09-.45-1.26-1.09C438.45,174,438.55,173.84,438.67,173.91Z" style="fill:#263238"></path><path d="M431.15,174.79s-.08.06-.08.1c.07,1,0,2.22-.94,2.59,0,0,0,.07,0,.06C431.27,177.34,431.38,175.76,431.15,174.79Z" style="fill:#263238"></path><path d="M430.19,173.75c-1.67-.06-1.67,3.26-.13,3.32S431.58,173.81,430.19,173.75Z" style="fill:#263238"></path><path d="M429.49,174c-.26.17-.52.49-.84.51s-.63-.33-.86-.68c0,0-.05,0-.05,0,0,.63.19,1.3.8,1.42s1-.43,1.12-1.07C429.69,174.08,429.6,173.9,429.49,174Z" style="fill:#263238"></path><path d="M437.4,183c-.22.26-.45.61-.82.67a2.71,2.71,0,0,1-1.12-.17s-.07,0,0,0a1.36,1.36,0,0,0,1.34.46,1.11,1.11,0,0,0,.75-1C437.52,183,437.44,183,437.4,183Z" style="fill:#263238"></path><path d="M433,179.37a21.88,21.88,0,0,0-.17,2.27c0,.07.17.1.42.11h0a3.45,3.45,0,0,0,3.33-1.35c.05-.07,0-.14-.11-.1a5.22,5.22,0,0,1-3.14,1c-.05-.2.41-2.63.3-2.64a6.47,6.47,0,0,0-1.65.4c.3-3.22,1.11-6.38,1.36-9.59a.11.11,0,0,0-.2-.05,52.67,52.67,0,0,0-1.89,10.28C431.26,180.07,432.74,179.5,433,179.37Z" style="fill:#263238"></path><path d="M433.28,181.26a4.27,4.27,0,0,0,1.56,1.45,1.92,1.92,0,0,0,1.14.17c.85-.14.94-.9.85-1.56a4.83,4.83,0,0,0-.28-1A5.52,5.52,0,0,1,433.28,181.26Z" style="fill:#263238"></path><path d="M434.84,182.71a1.92,1.92,0,0,0,1.14.17c.85-.14.94-.9.85-1.56A2,2,0,0,0,434.84,182.71Z" style="fill:#ff9bbc"></path><path d="M453.2,177c-3.9.16-5.94-11.7-6.18-13.16.1.93.62,5.84.25,6.06a3.68,3.68,0,0,1-1.23-.14h0a12.94,12.94,0,0,0-.28-1.75,7.06,7.06,0,0,0-.12,1.68l-.74-.15a14.08,14.08,0,0,0-.65-3.71c-.15-.45-.12,1.65-.42,3.51a46.89,46.89,0,0,0-10.32-1c-1,0-1.81.11-2.54.2-.12-1.45-.07-3-.15-2.67a14,14,0,0,0-.4,2.75c-.4.05-.77.11-1.1.17-.26-2.05.47-5.4.18-4.87a14.52,14.52,0,0,0-1.6,5.2c-1.38.38-1.74.68-1.81.32a17.18,17.18,0,0,1,4.39-11c4.51-4.94,14.12-6.84,20.12-.2,0,0,4.73,2.59,5.8,7.27S455.45,177,453.2,177Z" style="fill:#263238"></path><path d="M451.51,177.48s2.81-5,5.06-4.07.47,8-1.94,9.21a2.56,2.56,0,0,1-3.55-1Z" style="fill:#f7a9a0"></path><path d="M456,175.42s.06.05,0,.07c-1.68.89-2.44,2.61-2.92,4.36a1.41,1.41,0,0,1,2.06-.6c.05,0,0,.11,0,.1a1.58,1.58,0,0,0-1.67.72,7.64,7.64,0,0,0-.69,1.48c-.07.17-.36.11-.32-.07v0C452.2,179.2,453.63,175.89,456,175.42Z" style="fill:#263238"></path><path d="M460.06,215.65c-7.53,16.78-21.62,35.5-26.7,35.52-11,0-37.78-13.44-45.27-20-2.48-2.18,9.74-21.35,13.23-21.84s28.6,15.16,30.62,14.39c1.77-.69,13.86-10.58,19.76-15.64C463.44,198,462.27,210.74,460.06,215.65Z" style="fill:#f7a9a0"></path><path d="M393.28,234.75c-8.28-5.81-18.94-12.54-23.67-22.93a5.7,5.7,0,0,1-.44-3.67c-2.2-4.62-.68-7.05-.68-7.05-.73-4.93,1.17-7.19,1.17-7.19s-2.53-5.46.51-7.53c3.4-2.33,6.28,5.78,10.6,9.27,9.88,8,26.16,16.61,29.24,18.63Z" style="fill:#f7a9a0"></path><path d="M385.23,211.31a81.37,81.37,0,0,1-8.25-7.49,81.67,81.67,0,0,1-7.19-9.88.1.1,0,0,0-.17.09,43.19,43.19,0,0,0,15.5,17.41C385.27,211.54,385.37,211.43,385.23,211.31Z" style="fill:#263238"></path><path d="M381.27,218c-2.66-2.51-7.29-6.93-12.67-16.94,0,0-.08,0-.06,0a38.63,38.63,0,0,0,12.61,17C381.32,218.24,381.44,218.14,381.27,218Z" style="fill:#263238"></path><path d="M379.07,221.52c-4.35-4.43-6.53-7.77-9.86-13.36a0,0,0,1,0-.06,0c3.11,6.75,5,8.85,9.79,13.5C379.1,221.85,379.24,221.69,379.07,221.52Z" style="fill:#263238"></path><path d="M393.28,204.54c1.7.53,2-.36.2-3s-11.09-11.43-7.74-14.41,16.29,9.64,18.94,14.22,5.33,12.9,5.33,12.9C407,212.33,399.24,208.29,393.28,204.54Z" style="fill:#f7a9a0"></path><path d="M412.44,214l-12.52,25.16s26.28,15.74,34.81,12.63,23.66-29.59,26-37.05,1.75-15.15-8.54-7.59S432.76,223,431.87,223.1,412.44,214,412.44,214Z" style="fill:#6A78E1"></path><path d="M412.44,214l-12.52,25.16s26.28,15.74,34.81,12.63,23.66-29.59,26-37.05,1.75-15.15-8.54-7.59S432.76,223,431.87,223.1,412.44,214,412.44,214Z" style="fill:#6A78E1"></path><g style="opacity:0.1"><path d="M461.76,207.09h-9.48l.46-.34h9Z"></path><path d="M461.73,210.23a1.88,1.88,0,0,1-.05.33h-14l.42-.33Z"></path><path d="M412.44,214l.05,0h-.06Z"></path><path d="M461,213.7c0,.11-.06.23-.1.34H443.28l.42-.34Z"></path><path d="M418.92,217.18l.67.33H410.7l.16-.33Z"></path><path d="M459.81,217.18l-.15.33H439l.4-.33Z"></path><path d="M426.16,220.65l.74.34H409l.17-.34Z"></path><path d="M458.2,220.65,458,221H434.78l.42-.34Z"></path><path d="M456.41,224.13l-.17.33h-49l.16-.33Z"></path><path d="M454.5,227.6l-.2.34H405.51l.17-.34Z"></path><path d="M452.44,231.08l-.19.33H403.78l.17-.33Z"></path><path d="M450.28,234.55a4,4,0,0,1-.22.34h-48l.17-.34Z"></path><path d="M448,238l-.23.33H400.32l.17-.33Z"></path><path d="M445.48,241.5l-.26.34H404.63l-.61-.34Z"></path><path d="M442.72,245l-.28.33H411.33l-.68-.33Z"></path><path d="M439.51,248.45l-.36.34H419l-.83-.34Z"></path><path d="M434.3,251.93a12.21,12.21,0,0,1-5.2,0Z"></path></g><polygon points="395.59 238.39 402.18 241.62 415.37 214.28 409.45 211.48 395.59 238.39" style="fill:#6A78E1"></polygon><path d="M409.45,227.86q1.33-2.79,2.64-5.59c.87-1.86,1.82-3.72,2.55-5.64,0-.08-.1-.17-.15-.08-1,1.69-1.9,3.52-2.81,5.29s-1.91,3.75-2.86,5.64c-1.87,3.73-3.59,7.51-5.24,11.34,0,.09.1.14.14.06C405.72,235.25,407.65,231.6,409.45,227.86Z" style="fill:#263238"></path><path d="M446.81,211.3c-1.12.73-14,11.24-14.58,11.55s-1.32-.15-1.92-.44c-2.43-1.15-4.84-2.33-7.25-3.52-2.71-1.33-5.29-2.43-8-3.76-.09,0-.17.09-.08.14,2.47,1.33,4.69,2.66,7.18,3.95s5,2.55,7.54,3.77c.94.45,1.91,1.12,2.89.45,1.15-.79,13.25-10.79,14.35-12A.11.11,0,0,0,446.81,211.3Z" style="fill:#263238"></path><path d="M458.12,222.16c-1.73,2.62-3.37,5.31-5.12,7.91s-3.61,5.27-5.51,7.84-3.67,4.89-5.63,7.22a43.28,43.28,0,0,1-3.2,3.43,12,12,0,0,1-3.71,2.63,10.39,10.39,0,0,1-4.76.55c-.79-.07-1.58-.18-2.36-.31-1.62-.38-3.22-.86-4.8-1.37a82.61,82.61,0,0,1-13-5.65c-1.18-.62-2.35-1.26-3.52-1.88s-2.6-1.37-3.84-1.91a8.32,8.32,0,0,0-.46.84c-.5-.33-6.31-3.06-6.43-3.1a11.7,11.7,0,0,0,.65-1.52c0-.09,0-.15-.1-.07a10.2,10.2,0,0,0-1,1.85s6.83,3.26,6.9,3.22.51-1,.51-1c1.09.61,2.18,1.25,3.24,1.91s2.16,1.28,3.25,1.9c2.19,1.22,4.4,2.4,6.68,3.45,4.33,2,9,3.92,13.8,4.47a12.1,12.1,0,0,0,4-.21c3.07-.54,5.19-3,7.17-5.19a137.61,137.61,0,0,0,11.6-15.46c.38-.56.75-1.13,1.12-1.7a42.1,42.1,0,0,1,3.91-4.21c.08-.06,0-.17-.11-.1-.91.83-1.83,1.68-2.69,2.58,1.25-2,2.45-3.95,3.53-6C458.33,222.15,458.18,222.07,458.12,222.16Z" style="fill:#263238"></path></g><g id="freepik--character-1--inject-66"><polygon points="217.74 315.17 220.11 329.38 236.19 416.07 238.78 416.07 227.09 329.38 225.36 315.17 217.74 315.17" style="fill:#dbdbdb"></polygon><polygon points="225.36 315.17 217.74 315.17 220.11 329.38 227.09 329.38 225.36 315.17" style="fill:#a6a6a6"></polygon><polygon points="167.25 416.07 169.84 416.07 185.92 329.38 188.29 315.17 180.67 315.17 178.94 329.38 167.25 416.07" style="fill:#dbdbdb"></polygon><polygon points="180.67 315.17 178.94 329.38 185.92 329.38 188.29 315.17 180.67 315.17" style="fill:#a6a6a6"></polygon><polygon points="119.03 416.07 121.62 416.07 137.7 329.38 140.07 315.17 132.45 315.17 130.72 329.38 119.03 416.07" style="fill:#dbdbdb"></polygon><polygon points="130.72 329.38 137.7 329.38 140.07 315.17 132.45 315.17 130.72 329.38" style="fill:#a6a6a6"></polygon><polygon points="123.14 321.84 240.94 321.84 240.94 309.45 196.84 309.45 182.02 223.34 127.63 223.34 123.14 321.84" style="fill:#dbdbdb"></polygon><polygon points="123.14 321.84 129.56 321.84 133.75 223.34 127.63 223.34 123.14 321.84" style="fill:#a6a6a6"></polygon><path d="M232.72,426.49c-2.23.28-62.88-13.87-64.85-15.78-.24-.21,1.9-11.94,1.9-11.94.95-4.8,17.48-43.83,17.48-43.83l39.65,9.78L210.1,401s7.56,5.12,14.05,10l0,0a86.13,86.13,0,0,1,8.21,6.57C234.31,419.88,234.93,426.23,232.72,426.49Z" style="fill:#ad6359"></path><path d="M232.89,426.66c-2.3.24-63.44-13.46-65.43-15.46-.77-.75.71-9.76,2.81-20.6,0-.11,0-.22.07-.34l39.54,8.4-.16.67s21.05,15.7,23,18.13S235.19,426.43,232.89,426.66Z" style="fill:#6A78E1"></path><path d="M232.73,424.14c-10.25-2.56-51.83-11.93-62.16-13.69-.08,0-.1,0,0,.07,10.1,2.76,51.76,11.79,62.13,13.79C232.91,424.35,233,424.2,232.73,424.14Z" style="fill:#263238"></path><path d="M214.25,399.76c-3.89-1.66-9-2.15-12.74,0-.14.08,0,.29.12.28a58,58,0,0,1,12.49.19A.27.27,0,0,0,214.25,399.76Z" style="fill:#263238"></path><path d="M216.78,402.18c-3.89-1.67-9-2.16-12.73,0-.15.08,0,.28.11.27a58.61,58.61,0,0,1,12.49.2A.27.27,0,0,0,216.78,402.18Z" style="fill:#263238"></path><path d="M219.31,404.6c-3.89-1.67-9-2.16-12.73,0-.15.09,0,.29.12.28a58.52,58.52,0,0,1,12.48.2A.27.27,0,0,0,219.31,404.6Z" style="fill:#263238"></path><path d="M221.51,392.11c-1.1-2.55-4.29-2.23-6.31-1.19a22.27,22.27,0,0,0-8.33,7.88.12.12,0,0,0,.07.17.51.51,0,0,0,.52.65c3.63-.49,7.56-.56,10.93-2.15C220.36,396.55,222.55,394.52,221.51,392.11Zm-8.7,5.64c-1.78.29-3.56.48-5.33.83a64.11,64.11,0,0,1,5-4.49,22.2,22.2,0,0,1,2.67-1.84c1.45-.83,6.75-2.09,5,2.19C219.21,396.8,214.93,397.42,212.81,397.75Z" style="fill:#263238"></path><path d="M196.8,395.43c3,2.17,6.88,3,10.36,4.1a.51.51,0,0,0,.63-.54.11.11,0,0,0,.1-.15,22.22,22.22,0,0,0-6.76-9.27c-1.78-1.39-4.86-2.28-6.41,0S195,394.16,196.8,395.43Zm-1.18-3.3c-.9-4.52,4.08-2.31,5.36-1.24a24.86,24.86,0,0,1,2.29,2.3c1.5,1.67,2.74,3.52,4.06,5.32-1.67-.66-3.39-1.18-5.09-1.78C200.22,396,196.12,394.63,195.62,392.13Z" style="fill:#263238"></path><path d="M211.67,402,169.58,392s36.2-82.82,33.11-86.91c-1.54-2.05-40.73-2.65-53.19-13.21-16.19-13.72-5.33-34.67-5.33-34.67l43.77-1.3s-.53,9.14,1.17,10.52c1.13.92,53.28,5.3,59,22.87C255.14,310.88,211.67,402,211.67,402Z" style="fill:#37474f"></path><path d="M211.66,395.44c-1.1-.52-12-3.71-14.45-4.34-4.92-1.26-9.86-2.49-14.82-3.62-2.58-.59-8.12-1.88-8.46-1.82-.16,0-.19.3-.05.35,4.81,1.59,9.68,2.93,14.55,4.28s21.64,5.39,23.11,5.49C211.68,395.79,211.81,395.52,211.66,395.44Z" style="fill:#263238"></path><path d="M210.18,301.49a6.64,6.64,0,0,0-3.3-1l-18.95-3.18c-5.92-1-11.86-1.87-17.74-3-4.88-.94-9.83-2.2-14.05-4.84a20.36,20.36,0,0,1-8.6-11.26,36.37,36.37,0,0,1-1.12-14.42c.12-1.18.33-2.35.55-3.51a.07.07,0,0,0-.14,0c-1.6,9-1.74,19.37,5,26.51,3.28,3.48,7.78,5.53,12.37,6.85a138.11,138.11,0,0,0,15.92,3.09l19,3.17c3,.5,6.13.9,9.14,1.53a3.17,3.17,0,0,1,1.65.72,2.36,2.36,0,0,1,.27,2.19c-.31,1.49-.71,3-1.14,4.42-3.45,11.77-30,74.11-30.66,75.41-.07.13.15.24.22.1,5.8-10.32,25.92-59.88,29.74-71a70.7,70.7,0,0,0,2.49-8.66C211,303.48,211.1,302.28,210.18,301.49Z" style="fill:#263238"></path><path d="M295.32,429.14c-2.12.72-62.83-.14-65.14-1.62-2.53-2.41-3.6-59.68-3.6-59.68l39-.32,2.44,41.12s8.43,3.51,15.76,7c0,0,0,0,0,0a85.79,85.79,0,0,1,9.37,4.81C295.56,422.34,297.44,428.44,295.32,429.14Z" style="fill:#ad6359"></path><path d="M296.56,429.18c-2.19.73-64.85.43-67.23-1.1-.91-.56-1.4-9.68-1.67-20.72,0-.11,0-.23,0-.34l40.43-.26,0,.68s23.94,10.83,26.37,12.79S298.76,428.47,296.56,429.18Z" style="fill:#6A78E1"></path><path d="M295.87,426.75c-10.57-.3-53.19-.56-63.66-.06-.08,0-.08.06,0,.06,10.46.54,53.09.45,63.66.18C296.09,426.92,296.09,426.76,295.87,426.75Z" style="fill:#263238"></path><path d="M272.58,406.9c-4.15-.8-9.24-.19-12.43,2.76-.12.11,0,.28.18.24a58.46,58.46,0,0,1,12.23-2.48A.26.26,0,0,0,272.58,406.9Z" style="fill:#263238"></path><path d="M275.57,408.72c-4.15-.8-9.24-.19-12.43,2.76-.12.11,0,.28.18.24a58.59,58.59,0,0,1,12.23-2.48A.26.26,0,0,0,275.57,408.72Z" style="fill:#263238"></path><path d="M278.56,410.54c-4.15-.8-9.24-.19-12.43,2.76-.12.11,0,.28.18.24a58.56,58.56,0,0,1,12.24-2.48A.26.26,0,0,0,278.56,410.54Z" style="fill:#263238"></path><path d="M278,397.87c-1.62-2.26-4.67-1.26-6.41.19a22.11,22.11,0,0,0-6.45,9.48c0,.08,0,.13.1.15a.52.52,0,0,0,.65.52c3.44-1.26,7.27-2.17,10.22-4.44C277.86,402.45,279.56,400,278,397.87Zm-7.29,7.37c-1.67.66-3.37,1.23-5,1.95,1.26-1.84,2.44-3.73,3.88-5.45a23.68,23.68,0,0,1,2.22-2.37c1.24-1.12,6.15-3.48,5.39,1.07C276.8,403,272.74,404.46,270.74,405.24Z" style="fill:#263238"></path><path d="M254.61,406.4c3.42,1.48,7.36,1.42,11,1.79a.51.51,0,0,0,.5-.66.11.11,0,0,0,.06-.17,22.17,22.17,0,0,0-8.58-7.61c-2-1-5.25-1.19-6.26,1.39S252.62,405.54,254.61,406.4Zm-1.86-3c-1.85-4.22,3.49-3.13,5-2.35a23.84,23.84,0,0,1,2.73,1.75,65.68,65.68,0,0,1,5.11,4.33c-1.78-.3-3.57-.43-5.35-.66C258.08,406.23,253.77,405.76,252.75,403.43Z" style="fill:#263238"></path><path d="M270.24,409.23l-44.05,0s.56-81.47-2.89-85.88c-4.6-5.88-69-5.74-82.81-24.91-12.4-17.22-1.93-41.58-1.93-41.58l48.76-1.45a100,100,0,0,1-4.52,15.34s58.75,10.83,75.2,28.82C269.11,311.74,270.24,409.23,270.24,409.23Z" style="fill:#37474f"></path><path d="M191.38,267.43a23.12,23.12,0,0,0-4.13,1.33c-1.4.53-2.78,1.14-4.13,1.79a79.93,79.93,0,0,0-7.71,4.36.07.07,0,0,0,.07.12c2.64-1.37,5.37-2.6,8.09-3.78l3.94-1.69a43.09,43.09,0,0,0,4-1.76C191.66,267.7,191.57,267.4,191.38,267.43Z" style="fill:#263238"></path><path d="M188.46,255.41c-.56,2.23-1.05,4.47-1.69,6.67-.29,1-.58,2-1,3-.32.83-.81,1.77-1.77,2s-1.42-.74-1.33-1.65.36-2,.56-3,.46-2.3.67-3.46c.11-.58.22-1.16.32-1.74,0-.15.13-1.26.21-1.57,0,0,0,.05.06,0h0a.11.11,0,0,0,.07-.06c0-.09,0-.1-.06-.17a.09.09,0,0,0-.1,0c-.21.11-.23.4-.29.61-.18.57-.37,1.13-.53,1.7-.31,1.06-.61,2.12-.88,3.19s-.53,2.15-.8,3.22a5.06,5.06,0,0,0-.21,2.47,1.88,1.88,0,0,0,1.75,1.42,1.55,1.55,0,0,0-.12.22c-.1.21-.17.45-.25.67s-.16.46-.23.7a1.86,1.86,0,0,0-.06.34c0,.13,0,.25,0,.38s.25.32.35.13.14-.2.2-.31a1.8,1.8,0,0,0,.16-.38c.08-.22.14-.44.2-.67s.13-.45.17-.68,0-.27,0-.41a2.55,2.55,0,0,0,1.28-.48,4.2,4.2,0,0,0,1.33-2c.34-.93.6-1.89.86-2.84a42.4,42.4,0,0,0,1.42-7.16C188.88,255.24,188.52,255.15,188.46,255.41Z" style="fill:#263238"></path><path d="M159.45,260.85c-.2,1.11-.33,2.22-.58,3.31s-.54,2.15-.89,3.19a11.56,11.56,0,0,1-1.36,2.86,10.73,10.73,0,0,1-2.16,2.2,18.63,18.63,0,0,1-5.23,2.91,24.65,24.65,0,0,1-2.9.85c-.52.11-1,.2-1.56.27a3.18,3.18,0,0,0-1.25.29.25.25,0,0,0,0,.43,4.4,4.4,0,0,0,2.31.07,16,16,0,0,0,2.47-.43,18.1,18.1,0,0,0,4.67-2,14.79,14.79,0,0,0,3.9-3.18,11.08,11.08,0,0,0,2.09-4.57,22.46,22.46,0,0,0,.68-6.21A.11.11,0,0,0,159.45,260.85Z" style="fill:#263238"></path><path d="M232.53,352.11q-.65-10.38-1.72-20.71c-.18-1.7-.35-3.4-.56-5.1a16,16,0,0,0-.86-3.87c-1-2.59-3.17-3.9-5.78-4.56-3.08-.78-6.27-1.24-9.41-1.75s-6.41-1-9.63-1.43c-6.51-.91-13-1.75-19.52-2.84a154.9,154.9,0,0,1-19.15-4.3c-5.76-1.74-11.66-3.89-16.28-7.88-9.92-8.59-10.28-23-9.07-35,.17-1.71.38-3.4.59-5.1,0-.09-.13-.12-.14,0-.79,6.78-1.7,13.61-1,20.44a33.29,33.29,0,0,0,5.42,15.84c3.36,4.81,8.34,7.92,13.71,10.09a108.1,108.1,0,0,0,18.27,5.26c12.87,2.69,26,3.83,39,6,1.6.28,3.19.57,4.78.88a19.31,19.31,0,0,1,4.31,1.15c3,1.31,3.76,4.17,4.12,7.13.85,6.86,1.42,13.77,1.92,20.66,1,13.89,1.53,27.86,1.5,41.79,0,1.72,0,9.51,0,11.23,0,.15.24.14.24,0C233.59,386.05,233.41,366,232.53,352.11Z" style="fill:#263238"></path><path d="M268.18,402.71a26.31,26.31,0,0,0-3.65-.31c-1.28-.07-2.57-.14-3.85-.19-2.52-.1-5.05-.17-7.57-.18-5.09,0-10.17,0-15.26.11-2.65.06-8.33.17-8.65.31-.15.07-.11.34,0,.35,5,.36,10.1.47,15.15.59s10.1.23,15.15.1c1.39,0,2.79-.1,4.19-.16a31.12,31.12,0,0,0,4.42-.26C268.29,403,268.35,402.74,268.18,402.71Z" style="fill:#263238"></path><path d="M183.11,270.89a164.33,164.33,0,0,1,26.6,5.46,185.41,185.41,0,0,1,25.67,9.28c4.67,2.09,9.18,4.43,13.66,6.9.09,0,0,.17-.08.13a208.48,208.48,0,0,0-25-10.89,202.78,202.78,0,0,0-26-7.54c-5-1.08-10-1.92-15-2.75C182.68,271.43,182.77,270.86,183.11,270.89Z" style="fill:#263238"></path><path d="M226,341.14c-.32-4.79-.81-9.57-1.59-14.3-.32-1.92-.41-4.39-2.41-5.34-.94-.44-19.6-3.68-22.27-3.63-.12,0-.18.18-.06.23s18,3.46,20.23,4a3.46,3.46,0,0,1,2.49,1.29,8.94,8.94,0,0,1,.76,3.07,196,196,0,0,1,2.47,28.1q.1,3.9.14,7.81c0,2.67-.09,5.38.11,8.05a.22.22,0,0,0,.44,0c.2-2.43.13-4.89.14-7.33s0-4.88,0-7.32C226.44,350.88,226.33,346,226,341.14Z" style="fill:#263238"></path><path d="M186.54,209.34c4.15,19.35,5.06,33.32,10.47,37,4.36,3,10.53,5.13,16.88,6.68a158.85,158.85,0,0,0,20.62,3.34c2.13.22,3.91.37,5.18.48,3.12.26,8.64-20.27,6.47-22.83-.5-.58-2.55-1.07-5.44-1.49-9.71-1.4-28.87-2-30-3.16s-8.89-14.43-15.65-26.87C188.6,190.61,183.91,197.05,186.54,209.34Z" style="fill:#dd6a57"></path><path d="M233.45,254.66a75,75,0,0,0,9.24,3.6c2.52.68,9.82,2.44,10.84-.25.7-1.84-3.47-3.38-6.39-4.53-1.54-.61-3.46-2.18-3-3.17.76-1.73,4.72-.08,7.34,1.38,5.06,2.82,11.82,7.93,14.83,5.34,1.14-1-.23-2.7-2.23-4.38,3.23,1.94,6.66,3.51,8,2.48a1.69,1.69,0,0,0,.33-2.29,2.25,2.25,0,0,0,2.46-.42c1-1.1.48-2.69-.68-4.31a1.27,1.27,0,0,0,.93-.64c2.13-3.37-9-12.77-12.83-13.6a84.91,84.91,0,0,0-23.09-1.28C234.82,236.17,233.44,254.65,233.45,254.66Z" style="fill:#dd6a57"></path><path d="M249.69,244a18.21,18.21,0,0,1,7.51,2.73c2.64,1.74,4.75,4.15,7.19,6.13.07,0,0,.15-.08.1-1.15-1-2.42-1.94-3.61-2.92s-2.3-2-3.53-2.83a18.15,18.15,0,0,0-7.48-3.17S249.66,244,249.69,244Z" style="fill:#263238"></path><path d="M251.69,239.2a45.12,45.12,0,0,1,8.72,2.84c3,1.47,5.39,3.9,7.73,6.24,1.4,1.41,2.78,2.84,4.11,4.31.06.06,0,.16-.08.1q-3.56-3.63-7.33-7a24,24,0,0,0-8-4.83c-1.69-.61-3.43-1.09-5.16-1.57C251.65,239.24,251.66,239.19,251.69,239.2Z" style="fill:#263238"></path><path d="M254.75,235c2.87.54,5.37,1,7.92,2.47a40.8,40.8,0,0,1,7.82,6.5c1.28,1.31,2.51,2.66,3.72,4,0,.05,0,.14-.1.08a95.62,95.62,0,0,0-8.86-8.45,18.73,18.73,0,0,0-4.92-3.07,34.7,34.7,0,0,0-5.58-1.55S254.74,235,254.75,235Z" style="fill:#263238"></path><path d="M229.42,257.08l9.52-25.31s-26.09-1.59-27.75-2.7-10-17.11-16.32-27.87c-5-8.45-11.36-8-8.77,8.9,2.73,17.79,5,31.79,9.4,36C202.87,253.07,229.42,257.08,229.42,257.08Z" style="fill:#6A78E1"></path><path d="M229.42,257.08l9.52-25.31s-26.09-1.59-27.75-2.7-10-17.11-16.32-27.87c-5-8.45-11.36-8-8.77,8.9,2.73,17.79,5,31.79,9.4,36C202.87,253.07,229.42,257.08,229.42,257.08Z" style="opacity:0.1"></path><path d="M229.17,243.78q1.14-3,2.21-6c.74-2.07,1.31-4.2,2.11-6.24,0-.09-.11-.12-.14,0-.76,2-1.75,4-2.57,6s-1.58,3.93-2.34,5.91c-1.52,4-3.07,8-4.31,12.1a.11.11,0,0,0,.21.08C226.13,251.79,227.65,247.76,229.17,243.78Z" style="fill:#263238"></path><path d="M208.7,252.38c-5.46-1.68-10.56-3.82-13.2-6.33-4.37-4.16-6.67-18.16-9.4-36-2.08-13.5,1.6-16.5,5.71-12.83Z" style="fill:#263238"></path><path d="M195.35,263.65c-1.51,1.19-60.91,1.26-61.16.83-.67-1.14,16-55.15,41.48-71.73,4.49-2.92,11.27-.81,14.19,1.53,1.46,1.17,5.66,10,6.18,17.16S196.3,262.89,195.35,263.65Z" style="fill:#6A78E1"></path><path d="M274.32,183.16s4.58-3.5,6.71-.19-2.94,6-2.94,6Z" style="fill:#455a64"></path><path d="M244.24,210.81h0l-5.61.51-1.86.18.92-1.62,2.78-4.9h0l34-21.93,3.76,5.83-34,21.94Z" style="fill:#455a64"></path><polygon points="238.61 211.33 236.76 211.5 237.68 209.88 238.61 211.33" style="fill:#37474f"></polygon><polygon points="277.43 190.12 273.03 183.31 274.38 182.43 278.78 189.25 277.43 190.12" style="fill:#37474f"></polygon><polygon points="275.93 191.08 271.53 184.27 272.88 183.4 277.29 190.21 275.93 191.08" style="fill:#37474f"></polygon><polygon points="271.53 184.27 272.95 186.47 259.85 193.19 259.37 192.35 271.53 184.27" style="fill:#37474f"></polygon><path d="M172.41,206.26c5,16.06,15.77,32.63,25.23,34.59s34.39-7.59,42-10.83c2.94-1.25-5.71-26.43-8.85-25.07-5.33,2.31-28.52,14.34-30.32,13.77-1.14-.36-10.81-8.34-18.89-16.6C171.12,191.39,170.86,201.28,172.41,206.26Z" style="fill:#dd6a57"></path><path d="M268.92,197c.76,3.1-7.05,4.32-7.05,4.32A5.94,5.94,0,0,1,265,203.9c1.12,2.14-1.76,4.85-1.76,4.85A7.24,7.24,0,0,1,266,212c.87,2.17-1.64,5.31-1.64,5.31a6.37,6.37,0,0,1,.69,4.39c-1,4-6.91,5.93-10.67,7.21s-15.64,1.4-17.9,1.65l-8.45-24s15.24-10.54,19.88-11.42C251.83,194.32,267.76,192.27,268.92,197Z" style="fill:#dd6a57"></path><path d="M261.79,201.26a53.72,53.72,0,0,0-13,1.47.08.08,0,1,0,0,.15c4.19-.89,8.72-.69,12.93-1.41A.11.11,0,0,0,261.79,201.26Z" style="fill:#263238"></path><path d="M263,208.46a11.56,11.56,0,0,0-2.92.53c-1,.26-2,.54-3,.83q-3,.87-6,1.9c-.09,0-.06.17,0,.14,2-.57,4-1.12,6.08-1.61q1.53-.37,3.06-.72a13.14,13.14,0,0,0,2.86-.78A.15.15,0,0,0,263,208.46Z" style="fill:#263238"></path><path d="M264.29,217.3a8,8,0,0,0-2.6.62l-2.75.84c-1.83.55-3.67,1.1-5.52,1.58a.08.08,0,1,0,0,.15c1.88-.49,3.78-.94,5.66-1.44l2.77-.76a7.38,7.38,0,0,0,2.45-.9S264.34,217.3,264.29,217.3Z" style="fill:#263238"></path><path d="M223.42,207.2l10.1,27.49s-28.61,9.83-37.21,6.89S176.46,220.63,173,210s-2.08-19.35,10.73-7.06,16.35,15,17.2,14.84S223.42,207.2,223.42,207.2Z" style="fill:#6A78E1"></path><path d="M223.42,207.2l10.1,27.49s-28.61,9.83-37.21,6.89S176.46,220.63,173,210s-2.08-19.35,10.73-7.06,16.35,15,17.2,14.84S223.42,207.2,223.42,207.2Z" style="opacity:0.1"></path><path d="M233.22,234.67c-4.32,1.38-8.63,2.72-13,3.81s-15.64,3.41-20.22,3.39a11.53,11.53,0,0,1-6-2,24.37,24.37,0,0,1-4.79-4.22c-1.49-1.62-2.9-3.32-4.28-5-1.59-1.94-3.11-3.92-4.62-5.92s-3.2-4.19-4.65-6.39c0-.07-.18,0-.13.07,1.27,2,2.47,3.94,3.77,5.87.54.79,1.09,1.57,1.65,2.35-.31-.25-.6-.5-.91-.73-1.16-.87-2.35-1.7-3.46-2.64a.07.07,0,1,0-.09.11c1.13.88,2.17,1.86,3.23,2.83.51.47,1,.93,1.57,1.37.25.21.5.42.76.62l.1.09,1.16,1.56c1.39,1.83,2.81,3.65,4.28,5.42a29.61,29.61,0,0,0,4.6,4.56,13,13,0,0,0,5.67,2.74c4.25.67,15.88-1.69,20.42-2.78a116.46,116.46,0,0,0,15.07-4.61C233.64,235,233.54,234.57,233.22,234.67Z" style="fill:#263238"></path><path d="M205,216c-.64.26-2.92,1.53-3.68,1.56a2.82,2.82,0,0,1-1.93-.88c-.59-.49-1.17-1-1.77-1.51l-2.22-1.83c0-.06-.07-.11-.1-.16l-.33-.5c-.23-.33-.46-.65-.7-1-.47-.62-1-1.23-1.44-1.84-.06-.07-.16,0-.1.1.48.63.92,1.3,1.36,2l.42.66-.36-.3c-.58-.47-2.43-1.94-3.57-2.93-.07-.07-.17,0-.09.11,1,.87,3.33,3,4,3.63q1.85,1.71,3.75,3.38c1,.83,2,1.92,3.38,1.63a17.24,17.24,0,0,0,3.55-2C205.21,216.06,205.07,215.92,205,216Z" style="fill:#263238"></path><path d="M224.08,222.74c-.71-2-1.43-4-2.18-6s-1.71-4.05-2.42-6.12c0-.09-.16,0-.13.06.74,2.05,1.25,4.19,1.93,6.26s1.33,4,2,6c1.42,4,2.83,8.1,4.52,12,0,.12.25.06.21-.07C226.92,230.81,225.48,226.76,224.08,222.74Z" style="fill:#263238"></path><path d="M188.89,203c-3.41.71-9.09-4.63-11.27-8.89-.15-.3,1.37-11.77,1.43-14.07,0-.48,14.38,3.91,14.38,3.91a36.72,36.72,0,0,0-1.65,8.81C191.78,193.08,192.19,202.29,188.89,203Z" style="fill:#dd6a57"></path><path d="M191.86,193.69s0,.1,0,.15h-.07a9.35,9.35,0,0,1-1.42,0c-7.87-.4-10.25-10.14-10.88-13.87,2.44.4,13.93,3.91,13.93,3.91a36.72,36.72,0,0,0-1.65,8.81v.32A4.17,4.17,0,0,0,191.86,193.69Z" style="fill:#263238"></path><path d="M179.21,162.76c-2.05,5-.78,20,2.54,23.59,4.81,5.27,13.39,6.56,18.05.63,4.53-5.76,2.52-25.28-1.25-28.66C193,153.35,182.24,155.44,179.21,162.76Z" style="fill:#dd6a57"></path><path d="M181.39,186.17h0" style="fill:none;stroke:#f6a89f;stroke-linecap:round;stroke-linejoin:round;stroke-width:0px"></path><path d="M193,173.1s-.08.05-.07.09c.11,1,.07,2.19-.82,2.59,0,0,0,.07,0,.06C193.24,175.59,193.28,174,193,173.1Z" style="fill:#263238"></path><path d="M192,172.11c-1.64,0-1.51,3.28,0,3.28S193.39,172.11,192,172.11Z" style="fill:#263238"></path><path d="M198.62,173s.08,0,.08.09c0,1,.19,2.17,1.12,2.47a0,0,0,0,1,0,.06C198.69,175.53,198.46,174,198.62,173Z" style="fill:#263238"></path><path d="M199.48,171.93c1.63-.19,1.89,3.07.38,3.25S198.12,172.09,199.48,171.93Z" style="fill:#263238"></path><path d="M190.66,170.67a10.51,10.51,0,0,0,1.25-.5,2.12,2.12,0,0,0,1.18-.75.69.69,0,0,0-.14-.83,1.74,1.74,0,0,0-1.74-.11,2.48,2.48,0,0,0-1.41,1.15A.74.74,0,0,0,190.66,170.67Z" style="fill:#263238"></path><path d="M200.68,170.23a12,12,0,0,1-1.32-.29,2.14,2.14,0,0,1-1.28-.54.7.7,0,0,1,0-.85,1.74,1.74,0,0,1,1.7-.39,2.55,2.55,0,0,1,1.58.9A.74.74,0,0,1,200.68,170.23Z" style="fill:#263238"></path><path d="M192.18,182.54c.25.23.51.54.88.56a2.77,2.77,0,0,0,1.08-.3,0,0,0,0,1,.05,0,1.39,1.39,0,0,1-1.27.6,1.07,1.07,0,0,1-.83-.86C192.07,182.53,192.14,182.51,192.18,182.54Z" style="fill:#263238"></path><path d="M193.12,179.46a3.47,3.47,0,0,0,2.37,1.44,4.36,4.36,0,0,0,1.25,0l.23,0,.22,0a.26.26,0,0,0,.2-.24h0a.43.43,0,0,0,0-.11h0v-.09c0-.78-.14-2-.14-2,.3.13,1.78.73,1.74.32a52,52,0,0,0-1.77-10.39.09.09,0,0,0-.18,0c.2,3.25,1,6.44,1.22,9.7a5.91,5.91,0,0,0-1.66-.43c-.11,0,.29,2.28.26,2.63v0a4.83,4.83,0,0,1-3.62-1C193.14,179.31,193.06,179.38,193.12,179.46Z" style="fill:#263238"></path><path d="M196.26,180.53a4.1,4.1,0,0,1-1.59,1.34,1.84,1.84,0,0,1-1.12.11c-.82-.18-.87-.92-.74-1.56a4.54,4.54,0,0,1,.32-1A5.32,5.32,0,0,0,196.26,180.53Z" style="fill:#263238"></path><path d="M194.67,181.87a1.84,1.84,0,0,1-1.12.11c-.82-.18-.87-.92-.74-1.56A1.91,1.91,0,0,1,194.67,181.87Z" style="fill:#ff99ba"></path><path d="M200.63,164.34c-5.17,3.53-12.24-1.82-12.24-1.82a5.62,5.62,0,0,1-5.7,3.55s-1,8.73-3.32,8.71c-3.52,0-4.6-11.93-3.49-14.27s4.09-2.94,4.09-2.94a5.74,5.74,0,0,1,2.39-3.47c2.4-1.83,10.68.64,10.68.64a7.64,7.64,0,0,1,2.12-2.85,2.17,2.17,0,0,1,3.13.28,5.18,5.18,0,0,0-.84,2.16c-.42,2.55,1.67,2.55,1.65.23a3.58,3.58,0,0,0-.81-2.39c1-1.51,2.72-2,3.74-1.19C203.89,152.45,204.92,161.4,200.63,164.34Z" style="fill:#263238"></path><path d="M181.2,175.08s-3-5-5.24-4-.27,8.14,2.2,9.28a2.6,2.6,0,0,0,3.58-1.12Z" style="fill:#dd6a57"></path><path d="M176.58,173.1s-.05.05,0,.07c1.74.85,2.55,2.58,3.08,4.34a1.44,1.44,0,0,0-2.11-.55c-.05,0,0,.11,0,.1a1.61,1.61,0,0,1,1.71.69,7.27,7.27,0,0,1,.73,1.48c.07.17.37.1.32-.09v0C180.54,176.83,179,173.51,176.58,173.1Z" style="fill:#263238"></path></g><g id="freepik--Table--inject-66"><polygon points="204.73 270.67 179.99 433.01 175.12 433.01 190.38 270.67 204.73 270.67" style="fill:#455a64"></polygon><polygon points="204.72 270.67 202.36 286.18 188.92 286.18 190.38 270.67 204.72 270.67" style="fill:#263238"></polygon><polygon points="545.27 270.67 570.01 433.01 574.88 433.01 559.62 270.67 545.27 270.67" style="fill:#455a64"></polygon><polygon points="545.28 270.67 547.64 286.18 561.08 286.18 559.62 270.67 545.28 270.67" style="fill:#263238"></polygon><rect x="165.92" y="259.13" width="418.16" height="8.16" style="fill:#455a64"></rect><rect x="170.53" y="267.3" width="408.93" height="3.37" style="fill:#263238"></rect></g><g id="freepik--character-3--inject-66"><polygon points="536.28 332.64 533.91 346.88 517.83 433.69 515.24 433.69 526.93 346.88 528.66 332.64 536.28 332.64" style="fill:#dbdbdb"></polygon><polygon points="528.66 332.64 536.28 332.64 533.91 346.88 526.93 346.88 528.66 332.64" style="fill:#a6a6a6"></polygon><polygon points="586.77 433.69 584.18 433.69 568.1 346.88 565.73 332.64 573.35 332.64 575.08 346.88 586.77 433.69" style="fill:#dbdbdb"></polygon><polygon points="573.35 332.64 575.08 346.88 568.1 346.88 565.73 332.64 573.35 332.64" style="fill:#a6a6a6"></polygon><polygon points="634.99 433.69 632.4 433.69 616.32 346.88 613.95 332.64 621.57 332.64 623.3 346.88 634.99 433.69" style="fill:#dbdbdb"></polygon><polygon points="623.3 346.88 616.32 346.88 613.95 332.64 621.57 332.64 623.3 346.88" style="fill:#a6a6a6"></polygon><polygon points="630.88 339.33 513.08 339.33 513.08 326.92 557.18 326.92 572 240.69 626.39 240.69 630.88 339.33" style="fill:#dbdbdb"></polygon><polygon points="630.88 339.33 624.46 339.33 620.27 240.69 626.39 240.69 630.88 339.33" style="fill:#a6a6a6"></polygon><path d="M506.41,453.39c2.28.22,64.36-14.64,66.32-16.65.24-.23-1-5.87-2.79-13.56l0-.16c-1.12-4.87-19.25-44.32-19.25-44.32L510.41,390l18.32,36.6s-7.57,5.48-14.05,10.68l0,0a87.11,87.11,0,0,0-8.19,7C504.57,446.67,504.13,453.2,506.41,453.39Z" style="fill:#dd6a57"></path><path d="M506.41,453.39c2.28.22,64.36-14.64,66.32-16.65.24-.23-1-5.87-2.79-13.57l0-.14c-.41-1.82-3.2-8.45-6.53-16-6.62,1.79-30.36,8.23-39,10.91l4.34,8.67s-7.57,5.48-14.06,10.68v0a87.11,87.11,0,0,0-8.19,7C504.57,446.68,504.13,453.2,506.41,453.39Z" style="fill:#fff"></path><path d="M506.2,453.69c2.35.2,64.48-14.83,66.49-16.9.76-.78-.62-10.58-4-21l-40,9.74s-20.44,16.21-22.4,18.72S503.86,453.49,506.2,453.69Z" style="fill:#6A78E1"></path><path d="M506.49,451c10.36-2.78,52.37-13,62.82-14.94.08,0,.1,0,0,.06-10.21,3-52.31,12.85-62.79,15.05C506.31,451.21,506.28,451.05,506.49,451Z" style="fill:#263238"></path><path d="M509.67,441.08a8.63,8.63,0,0,1,6.85,1,8.36,8.36,0,0,1,3.67,5c0,.06-.1.09-.13,0a9.94,9.94,0,0,0-10.36-5.93C509.62,441.22,509.59,441.1,509.67,441.08Z" style="fill:#263238"></path><path d="M525.6,427.39c4.15-1.06,9.34-.76,12.75,2,.14.11,0,.29-.16.26a59.58,59.58,0,0,0-12.54-1.75A.27.27,0,0,1,525.6,427.39Z" style="fill:#263238"></path><path d="M522.68,429.42c4.16-1.06,9.35-.76,12.76,2,.13.11,0,.3-.16.26A59.58,59.58,0,0,0,522.73,430,.27.27,0,0,1,522.68,429.42Z" style="fill:#263238"></path><path d="M519.77,431.46c4.15-1.07,9.34-.77,12.76,2,.13.1,0,.29-.17.26A58.85,58.85,0,0,0,519.82,432,.27.27,0,0,1,519.77,431.46Z" style="fill:#263238"></path><path d="M516.85,433.49c4.16-1.07,9.35-.76,12.76,2,.13.11,0,.29-.16.26A59.58,59.58,0,0,0,516.91,434,.27.27,0,0,1,516.85,433.49Z" style="fill:#263238"></path><path d="M564.26,426.79c4.68-1.11,6.43,6.16,1.74,7.28S559.58,427.91,564.26,426.79Z" style="fill:#263238"></path><path d="M520.21,423.39c2.95,2.36,6.82,3.35,10.29,4.69.36.14.65-.2.67-.52a.12.12,0,0,0,.1-.15,22.53,22.53,0,0,0-6.37-9.74c-1.74-1.51-4.81-2.57-6.5-.31S518.49,422,520.21,423.39Zm-1-3.41c-.68-4.63,4.26-2.14,5.49-1a24.33,24.33,0,0,1,2.21,2.44c1.43,1.77,2.59,3.71,3.84,5.61-1.66-.76-3.37-1.37-5.06-2.07C523.65,424.15,519.56,422.54,519.18,420Z" style="fill:#263238"></path><path d="M545.43,421.17c-1-2.64-4.24-2.48-6.33-1.53a22.5,22.5,0,0,0-8.84,7.57.11.11,0,0,0,0,.17.53.53,0,0,0,.5.69c3.7-.31,7.69-.18,11.19-1.62C544,425.61,546.36,423.67,545.43,421.17Zm-9.11,5.28c-1.81.2-3.63.3-5.44.57,1.73-1.47,3.39-3,5.27-4.31A22.83,22.83,0,0,1,539,421c1.51-.77,6.95-1.78,5,2.48C542.86,425.82,538.49,426.22,536.32,426.45Z" style="fill:#263238"></path><path d="M524.18,423.21l43.11-12.93s-35.53-74-34.41-77.82c.74-2.51,54-2.69,69.64-16.71,16.16-14.51,3.57-43,3.57-43l-44.79-.23s.77,9.34-.94,10.8c-1.13,1-62.37,6.36-74.1,28.88C475.62,332.62,524.18,423.21,524.18,423.21Z" style="fill:#263238"></path><path d="M532.87,332.46c-.19.64.67,3.3,2.25,7.28l-32.19,39.55c-11.48-26.17-22.28-56.35-16.67-67.1,11.73-22.52,73-27.91,74.1-28.88,1.7-1.45.94-10.81.94-10.81l28.43.15-47.25,58C536.79,331.32,533.07,331.81,532.87,332.46Z" style="fill:#263238"></path><path d="M523.11,414.09a27.36,27.36,0,0,1,3.51-1.3c1.25-.43,2.49-.85,3.74-1.25q3.69-1.2,7.42-2.26c5-1.41,10-2.8,15.06-4.08,2.63-.67,8.26-2.13,8.61-2.07a.2.2,0,0,1,.06.36c-4.88,1.74-9.83,3.23-14.77,4.74s-9.89,3-14.9,4.26c-1.39.35-2.78.66-4.17,1a32.06,32.06,0,0,1-4.43.95C523.09,414.45,523,414.17,523.11,414.09Z" style="fill:#455a64"></path><path d="M603.69,281.27c-.14-1.5-.31-3-.48-4.48,0-.17-.29-.17-.27,0,.6,6.06,1.21,12.26.1,18.3a26.09,26.09,0,0,1-8,14.5c-8.88,8.28-21.31,10.72-32.89,12.69-6.63,1.13-13.3,2-20,2.66q-4.92.48-9.86.79c-3.25.2-6.52.23-9.78.41-1,.06-2,.53-1.79,1.71a8.13,8.13,0,0,0,.79,2c.34.8.7,1.59,1,2.38q2,4.44,3.94,8.86,4.1,9.14,8.3,18.2,8.34,18,17.32,35.72l2.23,4.4c0,.09.19,0,.15-.09q-8.58-17.94-16.94-36c-2.76-6-5.53-11.93-8.26-17.92q-2.06-4.49-4.08-9l-2-4.5-1-2.25c-.28-.63-1.29-2.12-.59-2.71.46-.38,1.43-.25,2-.27l2.6-.08c1.65-.06,3.29-.12,4.94-.21q5-.24,10-.68c6.51-.56,13-1.39,19.45-2.43,11.51-1.85,24-3.94,33.23-11.66a27.7,27.7,0,0,0,8.83-12.88C604.39,293.16,604.23,287.11,603.69,281.27Z" style="fill:#455a64"></path><path d="M411.69,396.63c1.62,1.62,58.91,29.78,61.7,29.47.33,0,3-5.15,6.5-12.23l.07-.13c2.25-4.48,22.63-42.12,22.63-42.12l-35.65-18.05L446,390.2s-9.33-.61-17.64-.74h0a87.52,87.52,0,0,0-10.77.16C414.55,390.28,410.06,395,411.69,396.63Z" style="fill:#dd6a57"></path><path d="M411.69,396.63c1.62,1.62,58.91,29.78,61.71,29.47.32,0,3-5.15,6.49-12.22l.07-.14c.16-.31.32-.63.49-.94s.23-.46.35-.68.36-.68.54-1c1.55-2.95,4.1-7.71,6.91-12.92L451.9,379.87,446,390.2s-9.32-.6-17.63-.74h0a90.28,90.28,0,0,0-10.76.15C414.56,390.29,410.05,395,411.69,396.63Z" style="fill:#fff"></path><path d="M411.34,396.73c1.68,1.65,59.12,29.7,62,29.39,1.09-.12,6.28-8.55,10.27-18.73l-37-18s-26.08-.54-29.19.14S409.66,395.08,411.34,396.73Z" style="fill:#6A78E1"></path><path d="M413.29,394.84c9.74,4.46,48.62,23.39,57.91,28.55.08,0,.05.09,0,.06-9.75-4.22-48.48-23.46-58-28.46C413,394.89,413.08,394.74,413.29,394.84Z" style="fill:#263238"></path><path d="M422.05,389.23a8.6,8.6,0,0,1,4.62,5.16,8.39,8.39,0,0,1-.36,6.19c0,.06-.14,0-.12-.06A9.94,9.94,0,0,0,422,389.35C421.92,389.3,422,389.19,422.05,389.23Z" style="fill:#263238"></path><path d="M443.05,388.84c3.88,1.83,7.68,5.37,8.54,9.69,0,.17-.21.22-.29.1a59.67,59.67,0,0,0-8.55-9.35A.27.27,0,0,1,443.05,388.84Z" style="fill:#263238"></path><path d="M439.51,388.55c3.88,1.83,7.68,5.37,8.54,9.69,0,.17-.21.21-.29.1a59.67,59.67,0,0,0-8.55-9.35A.27.27,0,0,1,439.51,388.55Z" style="fill:#263238"></path><path d="M436,388.26c3.88,1.82,7.68,5.37,8.54,9.69,0,.17-.21.21-.29.09a59.6,59.6,0,0,0-8.55-9.34A.27.27,0,0,1,436,388.26Z" style="fill:#263238"></path><path d="M432.43,388c3.88,1.83,7.68,5.37,8.53,9.69,0,.17-.2.22-.29.1a58.62,58.62,0,0,0-8.54-9.34A.27.27,0,0,1,432.43,388Z" style="fill:#263238"></path><path d="M473.21,413c4.32,2.13,1,8.84-3.3,6.71S468.89,410.91,473.21,413Z" style="fill:#263238"></path><path d="M441.46,382.32c.76,3.7,3.11,6.94,4.93,10.18a.52.52,0,0,0,.84,0,.1.1,0,0,0,.17,0,22.55,22.55,0,0,0,1.32-11.56c-.39-2.27-2.07-5.05-4.81-4.38S441,380.16,441.46,382.32Zm1.38-3.28c2.43-4,4.64,1.07,4.85,2.75a24.08,24.08,0,0,1,.14,3.29,66.77,66.77,0,0,1-.62,6.77c-.79-1.65-1.72-3.21-2.58-4.83C443.62,385.1,441.5,381.25,442.84,379Z" style="fill:#263238"></path><path d="M462.29,396.7c.93-2.67-1.68-4.61-3.9-5.21a22.59,22.59,0,0,0-11.63.18.11.11,0,0,0-.07.17.53.53,0,0,0-.06.85c3.05,2.12,6,4.76,9.65,5.89C458.39,399.23,461.41,399.22,462.29,396.7ZM451.91,395c-1.52-1-3-2.08-4.55-3a64.27,64.27,0,0,1,6.8,0,24.1,24.1,0,0,1,3.26.45c1.65.38,6.48,3.07,2.26,5.1C457.35,398.64,453.73,396.16,451.91,395Z" style="fill:#263238"></path><path d="M446.17,384.28l43,21.47s33.55-68.21,37.23-72.6c4.9-5.86,68.81,2.41,83.89-16.51,15.59-19.57,2.23-43.87,2.23-43.87l-48.65,0A40.67,40.67,0,0,0,566.52,286s-55.63-3.31-71.37,12C483.07,309.76,446.17,384.28,446.17,384.28Z" style="fill:#263238"></path><path d="M575.39,290.94a83.79,83.79,0,0,0-7.74-4.73,31.72,31.72,0,0,0-5.86-2.37c-1.42-.34-2-.45-.71.18l3.58,1.7-.76,0c-.95-.05-1.91-.08-2.87-.11-1.87,0-3.74,0-5.61,0-3.8,0-7.55.33-11.34.52-.1,0-.1.16,0,.16,3.78-.12,7.58.08,11.36.06,1.87,0,3.74.05,5.61.08l2.75.05a22.44,22.44,0,0,0,2.32,0l1,.5c2.75,1.3,5.5,2.65,8.15,4.14C575.38,291.1,575.47,291,575.39,290.94Z" style="fill:#455a64"></path><path d="M562.71,270.92c.5,2.3.92,4.61,1.5,6.88.26,1.05.52,2.11.88,3.13.3.86.77,1.84,1.74,2.06s1.48-.7,1.42-1.63-.3-2.1-.47-3.13c-.2-1.19-.4-2.38-.57-3.58-.09-.59-.18-1.19-.26-1.79,0-.15-.1-1.29-.17-1.62,0,0,0,.06-.06.05h0a.07.07,0,0,1-.07-.06c0-.09,0-.11.06-.17a.11.11,0,0,1,.11,0c.21.13.22.42.28.64.16.59.33,1.17.48,1.75.28,1.1.55,2.2.79,3.31s.47,2.21.7,3.32a5.06,5.06,0,0,1,.14,2.53,2,2,0,0,1-1.84,1.4,1.51,1.51,0,0,1,.11.22c.09.23.16.47.24.7s.14.48.2.72a2.25,2.25,0,0,1,.06.36c0,.13,0,.26,0,.39a.19.19,0,0,1-.36.12,3.62,3.62,0,0,0-.2-.33,2.62,2.62,0,0,1-.15-.39q-.11-.35-.18-.69c0-.23-.11-.47-.14-.7a2,2,0,0,1,0-.42,2.59,2.59,0,0,1-1.3-.55,4.39,4.39,0,0,1-1.29-2.12c-.31-1-.54-1.95-.78-2.93a42.06,42.06,0,0,1-1.2-7.38A.21.21,0,0,1,562.71,270.92Z" style="fill:#455a64"></path><path d="M586.17,277.46c.17,1.13.26,2.28.48,3.41s.48,2.21.8,3.28a12.16,12.16,0,0,0,1.29,3,11,11,0,0,0,2.14,2.33,18.93,18.93,0,0,0,5.24,3.16,25.92,25.92,0,0,0,2.94,1c.52.13,1.05.24,1.58.33a3.29,3.29,0,0,1,1.27.34.25.25,0,0,1,0,.44,4.61,4.61,0,0,1-2.36,0,15.69,15.69,0,0,1-2.52-.53,18.23,18.23,0,0,1-4.7-2.17,14.85,14.85,0,0,1-3.88-3.4,11.23,11.23,0,0,1-2-4.75,23.11,23.11,0,0,1-.48-6.37A.11.11,0,0,1,586.17,277.46Z" style="fill:#455a64"></path><path d="M454.9,376.46a25.48,25.48,0,0,1,3.45,1.46c1.19.54,2.39,1.09,3.58,1.65,2.33,1.12,4.64,2.26,6.93,3.46,4.62,2.41,9.22,4.84,13.76,7.37,2.37,1.32,7.47,4.13,7.68,4.41.11.13-.06.36-.2.3-4.74-2.08-9.37-4.39-14-6.69s-9.24-4.61-13.75-7.13c-1.25-.7-2.48-1.43-3.72-2.15a29.34,29.34,0,0,1-3.87-2.35C454.64,376.7,454.73,376.41,454.9,376.46Z" style="fill:#455a64"></path><path d="M612.48,284.08a.17.17,0,0,0-.33,0c.1,10.56-1.54,22.37-9.67,30-8.91,8.31-21.77,9.3-33.35,9.2-6.64-.05-13.27-.22-19.92,0s-13.41.54-20,1.38a11,11,0,0,0-6.8,3.26,35,35,0,0,0-4.51,6.48q-5,8.31-9.71,16.8Q498.81,368,490.87,385.6q-1,2.17-2,4.37c0,.1.1.18.15.08q8.07-17.64,17.37-34.67,4.63-8.52,9.58-16.87c1.55-2.61,3-5.29,4.78-7.79,1.53-2.21,3.44-4.29,6.09-5.09a24.94,24.94,0,0,1,5-.72c1.7-.16,3.39-.3,5.09-.42q5-.36,10-.54c6.7-.25,13.38-.16,20.08,0,11.63.21,24.34-.19,34-7.6a27.36,27.36,0,0,0,9-12.51,49.4,49.4,0,0,0,2.59-15.73Q612.53,286.08,612.48,284.08Z" style="fill:#455a64"></path><path d="M542.85,330.35c-2.37,0-4.74.14-7.11.22a28.38,28.38,0,0,0-5.89.53c-1.79.44-3.22.66-4.69,2.67-1.83,2.5-11.82,21.8-16,30.34-1.17,2.37-2.32,4.74-3.44,7.13s-2.2,5-3.36,7.45c0,.09.1.17.14.08,1-2.06,2.17-4.07,3.23-6.11s2.1-4.11,3.13-6.18Q512,360.24,515.1,354c2.07-4.12,4.6-8.14,6.7-12.24,1.77-3.45,4.19-8.16,5.87-8.86A28,28,0,0,1,535,331.1c2.61-.18,5.23-.34,7.84-.56A.1.1,0,0,0,542.85,330.35Z" style="fill:#455a64"></path><path d="M580.15,220c-4.84,8.25-34.92,41.69-55.89,39-7.12-.91-4.74-29.48,11-56.81.46-.81,21.62,4,21.11,9.09-.05.55-4.59,13.88-5.08,13.49s8.23-4.11,22.74-10.1C580.88,211.82,583,215,580.15,220Z" style="fill:#ad6359"></path><path d="M551.42,223.6c-2.33,6.83-4.79,13.61-7.43,20.32-.74,1.87-1.46,3.74-2.18,5.62,0,.06.08.1.11,0a104.93,104.93,0,0,0,4.48-9.84c1.32-3.33,2.58-6.71,3.56-10.15.57-2,1.1-4,1.59-6C551.57,223.55,551.45,223.52,551.42,223.6Z" style="fill:#263238"></path><path d="M532.81,207.27s3.36-8.65,8.53-13.38c3.58-3.26,8.61-8.53,22.43-4.3,3.28,1,8.62,6.57,6.55,8.49s-6.32-3.92-11.15-4.47c0,0,4.48,5.1,3.35,8.35a64.39,64.39,0,0,1-3.57,8.27,14.54,14.54,0,0,1-1.61-.53s-1.16,3-5.66,5Z" style="fill:#ad6359"></path><path d="M545.25,191.32c2.54-.06,7.92-.09,12.33,1.42,4.9,1.67,13.89,6.21,12.61,9.81-.93,2.65-4.51,1.21-4.51,1.21s3.32,2.66,2,4.87c-1.24,2-4,.73-4,.73s1.74,2,.17,3.66c-1.89,2-6.42-3.35-10.13-2.93C552.89,210.19,545.25,191.32,545.25,191.32Z" style="fill:#ad6359"></path><path d="M555,197.62a20.62,20.62,0,0,1,10.71,6c.07.08.05.17,0,.11a51.05,51.05,0,0,0-10.7-6.1A0,0,0,0,1,555,197.62Z" style="fill:#263238"></path><path d="M557.31,192.25a20.62,20.62,0,0,1,10.71,6c.07.08.05.17,0,.11a51.2,51.2,0,0,0-10.69-6.11S557.29,192.24,557.31,192.25Z" style="fill:#263238"></path><path d="M553.41,202.61a23.3,23.3,0,0,1,10.33,6.67c.06.08,0,.18,0,.11a54.57,54.57,0,0,0-10.31-6.73S553.38,202.61,553.41,202.61Z" style="fill:#263238"></path><path d="M557,210.75a9.81,9.81,0,0,0-5.82-1.62.06.06,0,0,0,0,.12c1.67.37,3,.75,3.05.76-2.12,2.56-5.88,3.61-7.48,3.91-.11,0-.07.17,0,.17,3,0,6.23-1.34,7.67-4a25.61,25.61,0,0,0,2.53.75S557,210.78,557,210.75Z" style="fill:#263238"></path><path d="M551.44,223.33l18.48,10.56a159.48,159.48,0,0,0,10.84-12.61c4.6-6.44,3.29-9.66-6.15-7.43C568.3,215.34,551.44,223.33,551.44,223.33Z" style="fill:#6A78E1"></path><path d="M567.55,223.55a6.81,6.81,0,0,1-.89-1.51,6.7,6.7,0,0,1-.49-1.67,6.34,6.34,0,0,1,.88,1.5A6.8,6.8,0,0,1,567.55,223.55Z" style="fill:#fff"></path><path d="M576.33,221.35a6.76,6.76,0,0,1,1.51-.88,6.33,6.33,0,0,1,1.67-.5,7,7,0,0,1-3.18,1.38Z" style="fill:#fff"></path><path d="M572.73,230.86l-.3.32a5.92,5.92,0,0,1-1.24-.71A6,6,0,0,1,572.73,230.86Z" style="fill:#fff"></path><path d="M574.08,217a7.31,7.31,0,0,1-3.23-1.27,6.37,6.37,0,0,1,1.69.44A6.75,6.75,0,0,1,574.08,217Z" style="fill:#fff"></path><path d="M558,222.28a6.37,6.37,0,0,1-.44,1.69,6.75,6.75,0,0,1-.83,1.54,6.37,6.37,0,0,1,.44-1.69A6.75,6.75,0,0,1,558,222.28Z" style="fill:#fff"></path><path d="M567.66,232.61c.22.08,2.15,1.1,2.27,1.21.84-.93,1.67-1.88,2.53-2.8.43-.46.86-.92,1.3-1.37s1-1.08,1.45-1.51c.07-.07.16,0,.1.08-.5.63-.9,1.07-1.34,1.61s-.79.95-1.21,1.41c-.87,1-1.76,2.06-2.68,3a21.36,21.36,0,0,1-2.46-1.56S567.62,232.6,567.66,232.61Z" style="fill:#263238"></path><path d="M554.31,222.65c2.8,1.35,5.57,2.74,8.28,4.25,1.35.76,2.69,1.53,4,2.33s2.58,1.72,3.92,2.5c.07,0,0,.16-.08.11-1.29-.84-2.71-1.52-4.05-2.29s-2.68-1.54-4-2.3c-2.7-1.51-5.4-3-8.13-4.49C554.17,222.72,554.24,222.62,554.31,222.65Z" style="fill:#263238"></path><path d="M559.66,275s19.39,4.6,56.12,1.42c0,0-14.36-45.85-25.93-58.21-5.26-5.62-10.41-4.76-14.77-1.15-1.09.91-14.58,18-15.72,24-1,5.28,3.28,11.13,3.28,11.13Z" style="fill:#6A78E1"></path><path d="M597.34,256.82a7.25,7.25,0,0,1-1.38-3.18,6.4,6.4,0,0,1,.88,1.51A6.33,6.33,0,0,1,597.34,256.82Z" style="fill:#fff"></path><path d="M581.53,237.17a6.81,6.81,0,0,1-.89-1.51,6.7,6.7,0,0,1-.49-1.67,7.25,7.25,0,0,1,1.38,3.18Z" style="fill:#fff"></path><path d="M609.83,274.61a6.4,6.4,0,0,1-.88-1.51,6.33,6.33,0,0,1-.5-1.67,6.52,6.52,0,0,1,.89,1.5A6.78,6.78,0,0,1,609.83,274.61Z" style="fill:#fff"></path><path d="M574.7,261.48a6.7,6.7,0,0,1-.88-1.5,6.38,6.38,0,0,1-.49-1.68,6.76,6.76,0,0,1,.88,1.51A6.31,6.31,0,0,1,574.7,261.48Z" style="fill:#fff"></path><path d="M586.18,218.51a6.4,6.4,0,0,1-.88-1.51,6.33,6.33,0,0,1-.5-1.67,7,7,0,0,1,1.38,3.18Z" style="fill:#fff"></path><path d="M583.25,254.22a6.81,6.81,0,0,1,1.51-.89,6.7,6.7,0,0,1,1.67-.49,6.34,6.34,0,0,1-1.5.88A6.8,6.8,0,0,1,583.25,254.22Z" style="fill:#fff"></path><path d="M564.79,245a6.81,6.81,0,0,1,1.51-.89,6.7,6.7,0,0,1,1.67-.49,6.34,6.34,0,0,1-1.5.88A6.8,6.8,0,0,1,564.79,245Z" style="fill:#fff"></path><path d="M576.33,221.35a6.76,6.76,0,0,1,1.51-.88,6.33,6.33,0,0,1,1.67-.5,7,7,0,0,1-3.18,1.38Z" style="fill:#fff"></path><path d="M575.45,273a7.39,7.39,0,0,1,3.18-1.38,6.38,6.38,0,0,1-1.5.89A6.78,6.78,0,0,1,575.45,273Z" style="fill:#fff"></path><path d="M595.54,233a7,7,0,0,1,3.18-1.38,6.4,6.4,0,0,1-1.51.88A6.72,6.72,0,0,1,595.54,233Z" style="fill:#fff"></path><path d="M598.79,268a6.21,6.21,0,0,1,1.51-.88,6.33,6.33,0,0,1,1.67-.5,7.39,7.39,0,0,1-3.18,1.38Z" style="fill:#fff"></path><path d="M589.7,263.7a6.78,6.78,0,0,1-1.69-.44,6.36,6.36,0,0,1-1.53-.84,6.78,6.78,0,0,1,1.69.44A6.36,6.36,0,0,1,589.7,263.7Z" style="fill:#fff"></path><path d="M566.43,255.81a6.39,6.39,0,0,1-1.69-.45,6.06,6.06,0,0,1-1.54-.83,6.78,6.78,0,0,1,1.69.44A6.42,6.42,0,0,1,566.43,255.81Z" style="fill:#fff"></path><path d="M592.1,241.42a7.21,7.21,0,0,1-3.22-1.27,6.37,6.37,0,0,1,1.69.44A6.69,6.69,0,0,1,592.1,241.42Z" style="fill:#fff"></path><path d="M574.42,231.75a6.78,6.78,0,0,1-1.69-.44,6.42,6.42,0,0,1-1.54-.84,6.78,6.78,0,0,1,1.69.44A6.42,6.42,0,0,1,574.42,231.75Z" style="fill:#fff"></path><path d="M609.15,259.78a7,7,0,0,1-1.69-.44,6.56,6.56,0,0,1-1.53-.84,6.78,6.78,0,0,1,1.69.44A6.36,6.36,0,0,1,609.15,259.78Z" style="fill:#fff"></path><path d="M602.83,243.23a7.31,7.31,0,0,1-1.27,3.23,6.37,6.37,0,0,1,.44-1.69A6.75,6.75,0,0,1,602.83,243.23Z" style="fill:#fff"></path><path d="M576.77,245.64a6.37,6.37,0,0,1-.44,1.69,6.69,6.69,0,0,1-.83,1.53,6.47,6.47,0,0,1,.44-1.69A6.9,6.9,0,0,1,576.77,245.64Z" style="fill:#fff"></path><path d="M567,268.25a6.78,6.78,0,0,1-.44,1.69,6.36,6.36,0,0,1-.84,1.53,6.78,6.78,0,0,1,.44-1.69A7,7,0,0,1,567,268.25Z" style="fill:#fff"></path><path d="M592.09,271.92a6.37,6.37,0,0,1-.44,1.69,6.69,6.69,0,0,1-.83,1.53,6.37,6.37,0,0,1,.44-1.69A6.9,6.9,0,0,1,592.09,271.92Z" style="fill:#fff"></path><path d="M588.63,226.32a6.78,6.78,0,0,1-.44,1.69,6.69,6.69,0,0,1-.83,1.53,6,6,0,0,1,.44-1.69A6.52,6.52,0,0,1,588.63,226.32Z" style="fill:#fff"></path><path d="M564.51,233.5a6.78,6.78,0,0,1-.44,1.69,6.42,6.42,0,0,1-.84,1.54,6.78,6.78,0,0,1,.44-1.69A6.42,6.42,0,0,1,564.51,233.5Z" style="fill:#fff"></path><path d="M568,226.14c-1.69,2.7-3.53,5.3-5.23,8a37.25,37.25,0,0,0-2.37,4.1,10.5,10.5,0,0,0-1.16,4.54,8.07,8.07,0,0,1,.09-2.4,11,11,0,0,1,.72-2.3,31.15,31.15,0,0,1,2.3-4.21c.81-1.22,1.64-2.44,2.5-3.62.14-.42.31-.83.47-1.24a14.19,14.19,0,0,1,.88-1.74,14.73,14.73,0,0,1-.65,1.83c-.08.17-.15.33-.22.5Q566.59,227.83,568,226.14Z" style="fill:#263238"></path><path d="M578.78,182.83c1.57,2.31,13.41,7.91,19.59-2.2,6.09-9.95-6.61-22.82-16.59-15.71C575.08,169.69,575.47,177.93,578.78,182.83Z" style="fill:#263238"></path><path d="M583.53,216c0,1-3.52,8.19-8,8.8-1.46.2-2.9-7.73-2.9-7.73l-.24-.56-3.34-7.85,8.48-8,1.24-1.08s.77,2.21,1.71,5c0,.13.09.26.13.4s.11.3.16.44c.15.41.29.83.43,1.25s.21.63.31,1,.2.67.31,1A54.22,54.22,0,0,1,583.53,216Z" style="fill:#ad6359"></path><path d="M580.48,204.55a17.07,17.07,0,0,1-8.09,11.91l-3.34-7.85,8.48-8,1.24-1.08S579.54,201.79,580.48,204.55Z" style="fill:#263238"></path><path d="M556.24,194.4c-2.67,14.74,5.85,18,9,18.58,2.89.52,12.78,1.93,17-12.46s-1.83-20.28-8.36-21.82S558.91,179.66,556.24,194.4Z" style="fill:#ad6359"></path><path d="M564,212.58a11.7,11.7,0,0,1-4.88-3.28,13.5,13.5,0,0,1-2.43-4.68c-1.13-3.64-.7-7.49.09-11.15.49-2.23,1.15-4.41,1.75-6.61,0-.16-.19-.2-.25-.06-1.52,4-2.87,8.1-3,12.38a16.53,16.53,0,0,0,3.11,10.34,10,10,0,0,0,5.53,3.21A.08.08,0,0,0,564,212.58Z" style="fill:#263238"></path><path d="M558.78,192.24a8.89,8.89,0,0,0,1-.06,1.66,1.66,0,0,0,1.05-.25.55.55,0,0,0,.1-.64,1.32,1.32,0,0,0-1.24-.51,1.91,1.91,0,0,0-1.31.49A.57.57,0,0,0,558.78,192.24Z" style="fill:#263238"></path><path d="M568.93,193.81a8.78,8.78,0,0,1-1-.37,1.61,1.61,0,0,1-.91-.56.53.53,0,0,1,.1-.64,1.31,1.31,0,0,1,1.34-.1,1.89,1.89,0,0,1,1.09.87A.56.56,0,0,1,568.93,193.81Z" style="fill:#263238"></path><path d="M566,197.07s.07.07.06.11c-.22,1-.29,2.17.55,2.67,0,0,0,.07,0,.06C565.52,199.55,565.64,198,566,197.07Z" style="fill:#263238"></path><path d="M567.1,196.19c1.63.17,1.17,3.43-.35,3.27S565.72,196.05,567.1,196.19Z" style="fill:#263238"></path><path d="M567.71,196.45c.26.23.49.59.83.68s.74-.21,1.05-.5c0,0,0,0,0,.05-.08.62-.41,1.23-1.1,1.23s-1-.62-1-1.27C567.48,196.52,567.61,196.36,567.71,196.45Z" style="fill:#263238"></path><path d="M560.43,196.06s-.09,0-.09.08c-.11,1-.4,2.16-1.36,2.37,0,0,0,.06,0,.06C560.12,198.56,560.49,197,560.43,196.06Z" style="fill:#263238"></path><path d="M559.67,194.88c-1.61-.34-2.18,2.9-.69,3.22S561,195.17,559.67,194.88Z" style="fill:#263238"></path><path d="M559,195c-.28.13-.59.39-.9.36s-.56-.44-.73-.81c0,0-.05,0-.06,0-.12.61,0,1.29.55,1.52s1-.26,1.27-.85C559.12,195.12,559.07,194.93,559,195Z" style="fill:#263238"></path><path d="M564.94,205.38c-.26.21-.54.52-.91.51a2.61,2.61,0,0,1-1.07-.36,0,0,0,0,0-.05.05,1.41,1.41,0,0,0,1.24.68,1.11,1.11,0,0,0,.89-.83C565.06,205.38,565,205.35,564.94,205.38Z" style="fill:#263238"></path><path d="M561.3,203.13a4.12,4.12,0,0,0,1.35,1.62,1.86,1.86,0,0,0,1.09.31c.85,0,1-.77,1-1.43a4.1,4.1,0,0,0-.15-1A5.35,5.35,0,0,1,561.3,203.13Z" style="fill:#263238"></path><path d="M562.65,204.75a1.86,1.86,0,0,0,1.09.31c.85,0,1-.77,1-1.43A1.92,1.92,0,0,0,562.65,204.75Z" style="fill:#ff9cbd"></path><path d="M561.29,201.08s-.44,1.48-.55,2.19c0,.06.16.12.4.17h0a3.42,3.42,0,0,0,3.48-.76c.06-.06,0-.14-.09-.11a5.2,5.2,0,0,1-3.22.41c0-.21.84-2.5.73-2.53a6.12,6.12,0,0,0-1.67.12c.83-3.1,2.15-6,2.92-9.13,0-.11-.13-.17-.17-.07a51.32,51.32,0,0,0-3.57,9.69C559.44,201.47,561,201.16,561.29,201.08Z" style="fill:#263238"></path><path d="M580.93,201.46c-1.57-.44-4.76-5.72-3.2-13.43,0,0-.92,7-.62,8.14s-1.78-3-.61-9.21a25.58,25.58,0,0,1-7.08,1.91c-3.11.18-4.89-.24-5-.5s4.44-.67,5.9-1.76c0,0-8.58,1.92-12.23,1.41-.42-.06,1-8.71,7.29-11.12s14.27,3.43,16.14,6.23c0,0,2.68,1,4.8,5.77S582.62,201.94,580.93,201.46Z" style="fill:#263238"></path><path d="M566.91,202.25a4.72,4.72,0,0,1-3.13-5.87h0a4.7,4.7,0,1,1,4.28,6.06A4.61,4.61,0,0,1,566.91,202.25Zm-2.53-5.69a4.07,4.07,0,1,0,5.08-2.71,3.81,3.81,0,0,0-1-.17A4.09,4.09,0,0,0,564.38,196.56Z" style="fill:#6A78E1"></path><path d="M557.12,200.61c-1.91-.32-3.11-2.65-2.69-5.21a5.65,5.65,0,0,1,1.51-3.08,2.93,2.93,0,0,1,4.95.81,5.56,5.56,0,0,1,.44,3.41c-.39,2.42-2.11,4.18-3.9,4.1Zm-.74-7.84a5,5,0,0,0-1.33,2.73c-.37,2.22.61,4.23,2.17,4.49s3.13-1.34,3.5-3.56a5.06,5.06,0,0,0-.39-3,2.52,2.52,0,0,0-1.79-1.46l-.24,0A2.61,2.61,0,0,0,556.38,192.77Z" style="fill:#6A78E1"></path><path d="M563.85,196.94l.47-.41c-.6-.7-2.1-1.77-3.43-.74l.38.5C562.47,195.37,563.79,196.88,563.85,196.94Z" style="fill:#6A78E1"></path><path d="M584.32,201.53l.6-.19c-.09-.28-.93-2.74-2.27-3.19s-9.71-1-10.06-1l-.05.63c2.42.16,8.93.67,9.91,1S584.1,200.86,584.32,201.53Z" style="fill:#6A78E1"></path><path d="M581.27,206a2.67,2.67,0,0,1-.71.11,2,2,0,0,1-.7,0,2.18,2.18,0,0,1-.83-.36,2.51,2.51,0,0,1-.53-.49,3.06,3.06,0,0,1-.49-.89l1.2-3.91s3.69-4.35,5.69-3S583.84,205.27,581.27,206Z" style="fill:#ad6359"></path><path d="M584,199.24a0,0,0,0,1,0,.06,6.41,6.41,0,0,0-3.67,3.69,1.39,1.39,0,0,1,2.12-.19s0,.1-.06.09a1.55,1.55,0,0,0-1.76.38,8.12,8.12,0,0,0-.94,1.3c-.1.15-.37,0-.29-.13v0C579.57,202.18,581.58,199.24,584,199.24Z" style="fill:#263238"></path><path d="M581.12,205.31a.69.69,0,0,1-.86.47.69.69,0,1,1,.86-.47Z" style="fill:#fff"></path><path d="M582.64,204.4a.49.49,0,1,1-.33-.61A.49.49,0,0,1,582.64,204.4Z" style="fill:#fff"></path><path d="M592.85,223c7.12,17.42,15.45,45.89,7.34,49.53-13.35,6-46.63,2.47-54.19,1.36-3.26-.48-4-22.83-1.13-24.93s37,5.19,37.84,3.19c.46-1.14.46-11.95.57-25.36C583.41,211.27,590.81,218,592.85,223Z" style="fill:#ad6359"></path><path d="M550.85,248.72s-9.65-2.71-16.05-4.18c-3.56-.82-9.81-1.68-12.7-1.09-4.34.89-21.89,7.39-20.41,11.68,1.34,3.88,15.72-3.61,15.72-3.61s-15.17,6.28-12.7,10.66,17.59-6.25,17.59-6.25-15.44,6.8-12.18,10.91c2.47,3.11,16.7-5.75,16.7-5.75S513.59,267,516,270.34c2.66,3.65,16.3-3.7,16.3-3.7,7.52,7.37,14.12,7.81,18.85,7.56C552.28,274.14,550.85,248.72,550.85,248.72Z" style="fill:#ad6359"></path><path d="M522.51,249c-1.8.67-3.64,1.34-5.38,2.17s-3.46,1.73-5.12,2.72a33.42,33.42,0,0,0-6.08,4.46c3.51-2.8,9.7-5.88,11.44-6.71s3.44-1.74,5.18-2.58C522.59,249.05,522.56,249,522.51,249Z" style="fill:#263238"></path><path d="M525.63,255.25c-2.27,1-4.56,1.83-6.79,2.89s-4.24,2.25-6.38,3.45c-.16.09-.06.15.11.07,2.19-1.12,4.3-2,6.5-3.08s4.36-2.27,6.59-3.28A0,0,0,1,0,525.63,255.25Z" style="fill:#263238"></path><path d="M529.27,260.12a55.36,55.36,0,0,0-10,5.21c-.16.1,0,.16.15.07,3.31-1.8,5.89-3.23,10-5.16C529.38,260.21,529.35,260.09,529.27,260.12Z" style="fill:#263238"></path><path d="M552.48,249q-6.3-1.74-12.64-3.37c-4-1-8.18-2.24-12.36-2.48a22,22,0,0,0-6.86.64c-.1,0,0,.16,0,.15a35.15,35.15,0,0,1,12.55.7c4.06.84,8.09,1.91,12.12,2.91,2.36.58,4.73,1.1,7.1,1.63A.09.09,0,1,0,552.48,249Z" style="fill:#263238"></path><path d="M602,245.07l-20.51-5.69a158.77,158.77,0,0,1,1.32-16.58c1.34-7.8,4.54-9.13,9.61-.86C595.78,227.48,602,245.07,602,245.07Z" style="fill:#6A78E1"></path><path d="M586.18,218.51a6.4,6.4,0,0,1-.88-1.51.26.26,0,0,1,.27-.42l.12.25A6.78,6.78,0,0,1,586.18,218.51Z" style="fill:#fff"></path><path d="M597.24,232.49h0a6.72,6.72,0,0,1-1.67.5,6.74,6.74,0,0,1,1.5-.89l0,0C597.13,232.22,597.18,232.36,597.24,232.49Z" style="fill:#fff"></path><path d="M592.1,241.42a7.21,7.21,0,0,1-3.22-1.27,6.37,6.37,0,0,1,1.69.44A6.69,6.69,0,0,1,592.1,241.42Z" style="fill:#fff"></path><path d="M602,245.07l-.08,0a.3.3,0,0,1,0-.1Z" style="fill:#fff"></path><path d="M588.63,226.32a6.78,6.78,0,0,1-.44,1.69,6.69,6.69,0,0,1-.83,1.53,6,6,0,0,1,.44-1.69A6.52,6.52,0,0,1,588.63,226.32Z" style="fill:#fff"></path><path d="M584,240.08c-.21-.1-2.29-.75-2.46-.76.07-1.25.16-2.51.21-3.77,0-.62,0-1.25,0-1.88s.05-1.48.06-2.1a.07.07,0,1,0-.13,0c-.09.8-.13,1.39-.2,2.08s-.12,1.24-.15,1.86c-.08,1.31-.22,2.7-.24,4a21.85,21.85,0,0,0,2.84.65S584,240.1,584,240.08Z" style="fill:#263238"></path><path d="M600.44,242.55c-2.93-1-5.86-2-8.85-2.88-1.49-.43-3-.84-4.48-1.23s-3-.61-4.53-1c-.08,0-.11.11,0,.13,1.51.32,3,.85,4.48,1.26l4.47,1.25c3,.85,6,1.69,8.91,2.61C600.49,242.7,600.52,242.58,600.44,242.55Z" style="fill:#263238"></path></g><g id="freepik--Charts--inject-66"><rect x="427.69" y="88.62" width="85.11" height="59.34" style="fill:#ebebeb"></rect><polygon points="432.57 94.52 470.25 94.44 507.92 94.52 470.25 94.6 432.57 94.52" style="fill:#c7c7c7"></polygon><polygon points="432.57 97.59 470.25 97.51 507.92 97.59 470.25 97.67 432.57 97.59" style="fill:#c7c7c7"></polygon><polygon points="432.57 100.67 470.25 100.58 507.92 100.67 470.25 100.75 432.57 100.67" style="fill:#c7c7c7"></polygon><polygon points="432.57 103.74 470.25 103.66 507.92 103.74 470.25 103.82 432.57 103.74" style="fill:#c7c7c7"></polygon><polygon points="432.57 106.81 470.25 106.73 507.92 106.81 470.25 106.89 432.57 106.81" style="fill:#c7c7c7"></polygon><polygon points="432.57 109.88 470.25 109.8 507.92 109.88 470.25 109.97 432.57 109.88" style="fill:#c7c7c7"></polygon><polygon points="432.57 112.96 470.25 112.88 507.92 112.96 470.25 113.04 432.57 112.96" style="fill:#c7c7c7"></polygon><polygon points="432.57 116.03 470.25 115.95 507.92 116.03 470.25 116.11 432.57 116.03" style="fill:#c7c7c7"></polygon><polygon points="432.57 119.1 470.25 119.02 507.92 119.1 470.25 119.18 432.57 119.1" style="fill:#c7c7c7"></polygon><polygon points="432.57 122.17 470.25 122.09 507.92 122.17 470.25 122.26 432.57 122.17" style="fill:#c7c7c7"></polygon><polygon points="432.57 125.25 470.25 125.17 507.92 125.25 470.25 125.33 432.57 125.25" style="fill:#c7c7c7"></polygon><polygon points="432.57 128.32 470.25 128.24 507.92 128.32 470.25 128.4 432.57 128.32" style="fill:#c7c7c7"></polygon><polygon points="432.57 131.39 470.25 131.31 507.92 131.39 470.25 131.47 432.57 131.39" style="fill:#c7c7c7"></polygon><polygon points="432.57 134.47 470.25 134.38 507.92 134.47 470.25 134.55 432.57 134.47" style="fill:#c7c7c7"></polygon><polygon points="432.57 137.54 470.25 137.46 507.92 137.54 470.25 137.62 432.57 137.54" style="fill:#c7c7c7"></polygon><rect x="440.54" y="116.03" width="5.71" height="25.09" style="fill:#6A78E1"></rect><rect x="451.14" y="105.42" width="5.71" height="35.7" style="fill:#fff"></rect><rect x="461.74" y="104.71" width="5.71" height="36.41" style="fill:#6A78E1"></rect><rect x="472.34" y="102.67" width="5.71" height="38.45" style="fill:#fff"></rect><rect x="482.94" y="103.66" width="5.71" height="37.46" style="fill:#6A78E1"></rect><rect x="493.54" y="99.43" width="5.71" height="41.69" style="fill:#fff"></rect><rect x="440.54" y="143.7" width="5.71" height="0.52" style="fill:#c7c7c7"></rect><rect x="451.14" y="143.7" width="5.71" height="0.52" style="fill:#c7c7c7"></rect><rect x="461.74" y="143.7" width="5.71" height="0.52" style="fill:#c7c7c7"></rect><rect x="472.34" y="143.7" width="5.71" height="0.52" style="fill:#c7c7c7"></rect><rect x="482.94" y="143.7" width="5.71" height="0.52" style="fill:#c7c7c7"></rect><rect x="493.54" y="143.7" width="5.71" height="0.52" style="fill:#c7c7c7"></rect><path d="M434.32,138.52a36.19,36.19,0,0,1,6-8.05,15.56,15.56,0,0,1,2-1.61c.74-.47,1.49-.81,2.19-1.24a25.37,25.37,0,0,0,3.93-3,87.18,87.18,0,0,0,6.85-7.26A58.62,58.62,0,0,1,462.2,110a18.68,18.68,0,0,1,4.35-2.74,15.92,15.92,0,0,1,5-1.18,34.67,34.67,0,0,1,10.08.93,20,20,0,0,0,4.9.5,14.13,14.13,0,0,0,4.75-1.19,40.72,40.72,0,0,0,8.52-5.19,38.34,38.34,0,0,1-8.32,5.64,14.78,14.78,0,0,1-4.91,1.37,20.88,20.88,0,0,1-5.07-.37,36.24,36.24,0,0,0-9.86-.78,14.78,14.78,0,0,0-4.72,1.15,17.93,17.93,0,0,0-4.09,2.63A56.56,56.56,0,0,0,456,118a74.93,74.93,0,0,1-7,7.23,26.29,26.29,0,0,1-4.12,3c-.75.43-1.53.77-2.21,1.18a14.06,14.06,0,0,0-2,1.49A38.54,38.54,0,0,0,434.32,138.52Z" style="fill:#263238"></path><path d="M434.61,92.36l.13,12.19.09,12.19c.06,8.13.07,16.25.09,24.38l-.31-.3h18.33l18.33,0,18.32.1,18.33.18-18.33.18-18.32.1-18.33,0H434.31v-.3q0-12.19.09-24.38l.09-12.19Z" style="fill:#c7c7c7"></path><rect x="223.02" y="128.33" width="97.56" height="51.42" style="fill:#dbdbdb"></rect><rect x="229.26" y="134.81" width="85.07" height="4.44" style="fill:#fff"></rect><rect x="229.26" y="134.81" width="33.72" height="4.44" style="fill:#6A78E1"></rect><rect x="229.26" y="143.31" width="85.07" height="4.44" style="fill:#fff"></rect><rect x="229.26" y="143.31" width="76.38" height="4.44" style="fill:#6A78E1"></rect><rect x="229.26" y="151.81" width="85.07" height="4.44" style="fill:#fff"></rect><rect x="229.26" y="151.81" width="31.09" height="4.44" style="fill:#6A78E1"></rect><rect x="229.26" y="160.31" width="85.07" height="4.44" style="fill:#fff"></rect><rect x="229.26" y="160.31" width="62.57" height="4.44" style="fill:#6A78E1"></rect><rect x="229.26" y="168.81" width="85.07" height="4.44" style="fill:#fff"></rect><rect x="229.26" y="168.81" width="40.71" height="4.44" style="fill:#6A78E1"></rect></g><g id="freepik--light-bulb--inject-66"><path d="M403.41,95.5c-2.23,18.66-14.22,22.06-16.24,27a86.59,86.59,0,0,0-2.52,9.54l-19.5,0a83.63,83.63,0,0,0-2.47-9.55c-2-5-14-8.44-16.1-27.1-1.4-12.27,7.86-31.6,28.49-31.55S404.86,83.25,403.41,95.5Z" style="fill:#6A78E1"></path><rect x="366.76" y="102.02" width="1" height="31.55" transform="translate(-15.26 68.44) rotate(-10.43)" style="fill:#fff"></rect><rect x="366.85" y="117.33" width="31.55" height="1" transform="translate(195.85 471.95) rotate(-79.31)" style="fill:#fff"></rect><path d="M375,112.62h0c-1.52,0-3.06-1.22-4.33-3.43-.06-.1-.12-.2-.17-.3a2.36,2.36,0,0,1-1.67.91h0c-2.92,0-4.08-6-4.12-6.29l.49-.09c0,.06,1.12,5.87,3.63,5.88h0a2,2,0,0,0,1.42-.9c-1.23-2.53-1.91-5.85-1-7.36a1.49,1.49,0,0,1,1.35-.79h0a1.76,1.76,0,0,1,1.61.92c.88,1.53.23,4.68-.93,6.68a5.86,5.86,0,0,1-.4.61c.08.17.17.32.26.48.68,1.19,2.09,3.18,3.9,3.18h0c1.21,0,2.42-1,3.43-2.68l.24-.43a5.9,5.9,0,0,1-.69-1c-1.2-2.1-1.45-5.21-.53-6.79a1.79,1.79,0,0,1,1.58-1h0a1.37,1.37,0,0,1,1.23.76c.86,1.5.38,5.07-1,7.88a2.8,2.8,0,0,0,2,.82h0c1.78,0,3.37-4.26,3.83-5.9l.48.14c-.07.25-1.78,6.26-4.31,6.26h0a3.26,3.26,0,0,1-2.19-.85l-.18.32C378,111,376.75,112.62,375,112.62Zm4-11.85a1.3,1.3,0,0,0-1.15.74c-.82,1.42-.57,4.36.53,6.29a5.88,5.88,0,0,0,.5.72c1.22-2.62,1.68-5.92.92-7.24a.89.89,0,0,0-.8-.51Zm-8.48,0a1,1,0,0,0-.92.54c-.69,1.2-.24,4.12,1,6.66l.22-.35c1.06-1.84,1.71-4.83.93-6.18a1.26,1.26,0,0,0-1.18-.67Z" style="fill:#fff"></path><rect x="362.88" y="131.21" width="24.05" height="4.7" transform="translate(0.32 -0.88) rotate(0.14)" style="fill:#455a64"></rect><rect x="362.86" y="136.67" width="24.05" height="4.7" transform="translate(0.33 -0.88) rotate(0.14)" style="fill:#455a64"></rect><rect x="362.85" y="142.13" width="24.05" height="4.7" transform="translate(0.34 -0.88) rotate(0.13)" style="fill:#455a64"></rect><path d="M376,48.51a15.35,15.35,0,0,1-.12,7.77,13.29,13.29,0,0,1-.44-3.89A13.64,13.64,0,0,1,376,48.51Z" style="fill:#263238"></path><path d="M354.15,53.84A13.52,13.52,0,0,1,356.48,57a13.67,13.67,0,0,1,1.46,3.64,13.52,13.52,0,0,1-2.33-3.15A13.8,13.8,0,0,1,354.15,53.84Z" style="fill:#263238"></path><path d="M337.94,69.36a15.23,15.23,0,0,1,6.67,4,15.48,15.48,0,0,1-6.67-4Z" style="fill:#263238"></path><path d="M331.65,90.9a15.35,15.35,0,0,1,7.77.12,13.29,13.29,0,0,1-3.89.44A13.64,13.64,0,0,1,331.65,90.9Z" style="fill:#263238"></path><path d="M337,112.7a15.5,15.5,0,0,1,6.79-3.78A15.24,15.24,0,0,1,337,112.7Z" style="fill:#263238"></path><path d="M412.06,114.36a15.23,15.23,0,0,1-6.67-4,15.48,15.48,0,0,1,6.67,4Z" style="fill:#263238"></path><path d="M418.35,92.82a15.35,15.35,0,0,1-7.77-.12,13.29,13.29,0,0,1,3.89-.44A13.64,13.64,0,0,1,418.35,92.82Z" style="fill:#263238"></path><path d="M413,71a13.52,13.52,0,0,1-3.15,2.33,13.67,13.67,0,0,1-3.64,1.46,13.52,13.52,0,0,1,3.15-2.33A13.8,13.8,0,0,1,413,71Z" style="fill:#263238"></path><path d="M397.5,54.8a15.23,15.23,0,0,1-4,6.67,15.48,15.48,0,0,1,4-6.67Z" style="fill:#263238"></path></g><g id="freepik--Device--inject-66"><rect x="348.33" y="256.43" width="60.23" height="2.7" style="fill:#c7c7c7"></rect><rect x="348.33" y="256.43" width="30.31" height="2.7" style="fill:#a6a6a6"></rect><polygon points="375.38 259.13 316.68 259.13 309.01 219.26 367.71 219.26 375.38 259.13" style="fill:#c7c7c7"></polygon><path d="M345.77,239.2a3.22,3.22,0,0,1-3.26,3.57,4,4,0,0,1-3.89-3.57,3.22,3.22,0,0,1,3.26-3.57A4,4,0,0,1,345.77,239.2Z" style="fill:#a6a6a6"></path></g><g id="freepik--Lamp--inject-66"><polygon points="284.07 252.98 282.27 252.75 291.54 182.27 325.17 163.81 326.04 165.4 293.22 183.42 284.07 252.98" style="fill:#263238"></polygon><path d="M289.82,182.84a2.56,2.56,0,1,0,2.56-2.56A2.55,2.55,0,0,0,289.82,182.84Z" style="fill:#6A78E1"></path><path d="M322.69,164.61a2.56,2.56,0,1,0,2.56-2.56A2.56,2.56,0,0,0,322.69,164.61Z" style="fill:#6A78E1"></path><polygon points="342.45 166.95 330.42 180.38 324.87 173.52 321.49 169.34 330.51 159.28 335.03 162.19 342.45 166.95" style="fill:#6A78E1"></polygon><polygon points="342.45 166.95 330.42 180.38 324.87 173.52 335.03 162.19 342.45 166.95" style="opacity:0.1"></polygon><polygon points="359.89 173.58 338.92 196.99 324.98 179.22 340.7 161.67 359.89 173.58" style="fill:#6A78E1"></polygon><polygon points="299.64 259.13 268.61 259.13 270.51 249.38 297.74 249.38 299.64 259.13" style="fill:#6A78E1"></polygon></g><g id="freepik--speech-bubble--inject-66"><path d="M412.21,172.85a11.72,11.72,0,0,0,2-6.47c0-8.19-9-14.83-20.08-14.83s-20.07,6.64-20.07,14.83,9,14.83,20.07,14.83a24.14,24.14,0,0,0,13.85-4.1l6.92,1.76Z" style="fill:#6A78E1"></path><path d="M386.91,166.38a2.08,2.08,0,1,1-2.08-2.08A2.08,2.08,0,0,1,386.91,166.38Z" style="fill:#263238"></path><circle cx="394.13" cy="166.38" r="2.08" style="fill:#263238"></circle><circle cx="403.44" cy="166.38" r="2.08" style="fill:#263238"></circle></g></svg>