<svg width="424" height="424" viewBox="0 0 424 424" fill="none" xmlns="http://www.w3.org/2000/svg">
<rect width="424" height="424" fill="white"/>
<path d="M251.316 124.426C250.943 124.736 250.508 125.471 250.508 125.803C250.508 126.051 249.608 127.428 249.442 127.428C249.225 127.428 248.976 127.749 248.811 128.235C248.386 129.426 245.084 134.695 243.894 136.071C243.552 136.465 243.138 136.993 242.983 137.231C242.6 137.81 242.268 137.821 241.461 137.293L240.871 136.899L240.933 136.268C241.005 135.678 240.985 135.616 240.767 135.461C240.633 135.367 240.405 135.295 240.25 135.295H239.97L239.898 134.001L239.825 132.707L239.339 132.283C238.759 131.765 238.366 131.558 237.983 131.548C237.589 131.537 237.382 131.713 237.258 132.189C237.155 132.562 237.093 132.614 236.42 132.883C235.747 133.142 235.633 133.235 235.167 133.866C234.888 134.26 234.639 134.57 234.619 134.57C234.598 134.57 234.287 134.436 233.925 134.26C233.325 133.97 232.6 133.846 232.6 134.022C232.6 134.073 232.424 134.291 232.196 134.519L231.803 134.933L229.329 134.798C227.973 134.726 226.782 134.622 226.7 134.57C226.12 134.177 225.468 133.949 224.94 133.949C224.174 133.949 223.822 134.177 223.397 134.984C223.149 135.45 222.963 135.668 222.725 135.761C222.538 135.844 222.331 135.978 222.259 136.061C222.186 136.144 221.917 136.299 221.658 136.392C221.182 136.579 221.182 136.579 220.986 136.33C220.747 136.04 220.81 135.626 221.12 135.398C221.7 134.984 221.834 134.788 221.834 134.374C221.834 133.701 221.617 133.577 220.292 133.494C219.671 133.463 219.091 133.452 219.008 133.494C218.915 133.525 218.76 133.773 218.667 134.032C218.563 134.301 218.48 134.529 218.47 134.539C218.46 134.56 218.211 134.477 217.911 134.363C217.269 134.115 216.317 134.001 215.789 134.094C215.582 134.136 215.251 134.312 215.054 134.477L214.702 134.788L212.963 134.684C212.011 134.622 209.288 134.498 206.928 134.415C201.752 134.229 199.185 134.094 196.794 133.887L194.982 133.732L194.454 134.26C193.916 134.798 193.916 134.798 193.512 134.674C192.871 134.488 189.61 134.322 186.846 134.343C180.925 134.394 176.07 134.829 174.921 135.409C174.59 135.585 174.29 135.606 172.654 135.606C170.884 135.606 170.729 135.626 170.035 135.875C169.393 136.113 169.021 136.154 167.178 136.258L165.056 136.382L164.745 136.982C164.518 137.407 164.394 137.552 164.28 137.51C163.855 137.324 163.576 137.365 162.913 137.717C161.93 138.235 161.205 138.4 159.652 138.473C158.535 138.525 158.193 138.504 157.758 138.359L157.22 138.183L156.785 138.463C156.412 138.711 155.885 138.835 152.541 139.446C148.98 140.088 148.711 140.15 148.504 140.398C148.307 140.647 148.245 140.657 147.821 140.574C147.355 140.481 147.355 140.491 146.961 140.947C146.703 141.247 146.475 141.402 146.32 141.402C146.185 141.402 145.937 141.516 145.771 141.661C145.471 141.91 145.409 141.92 143.97 141.92H142.49L141.775 142.438C141.382 142.717 140.999 142.955 140.916 142.955C140.833 142.955 140.647 143.09 140.492 143.255C140.285 143.493 140.036 143.607 139.467 143.731C139.053 143.825 138.173 144.166 137.49 144.508L136.248 145.129L135.068 145.015C134.426 144.953 133.38 144.922 132.738 144.953C131.093 145.025 130.43 145.357 130.43 146.092C130.43 146.319 130.285 146.402 129.157 146.878C128.298 147.23 127.749 147.406 127.449 147.406C127.19 147.406 126.817 147.499 126.569 147.634C126.227 147.81 125.906 147.872 125.068 147.903C123.753 147.955 123.702 148.007 123.702 149.187C123.702 149.891 123.733 150.005 123.929 150.139C124.281 150.388 124.54 150.336 124.944 149.953L125.306 149.601L130.896 149.487C133.97 149.425 136.962 149.342 137.531 149.311L138.577 149.249L138.877 148.866L139.167 148.472L140.989 148.4C142.976 148.317 144.881 148.162 148.494 147.769C149.808 147.624 151.578 147.448 152.427 147.365L153.98 147.22L154.29 147.51C154.466 147.675 154.694 147.82 154.808 147.841C154.974 147.862 155.025 147.81 155.046 147.531L155.077 147.199H158.379H161.671L161.992 147.468C162.396 147.81 162.572 148.121 162.437 148.255C162.385 148.307 161.837 148.441 161.216 148.545C160.336 148.69 160.036 148.7 159.787 148.607C159.611 148.545 158.886 148.493 158.172 148.493C156.899 148.493 156.858 148.504 156.154 148.856L155.429 149.207L155.843 149.29C156.071 149.342 158.172 149.363 160.501 149.352L164.745 149.321L164.777 149.549C164.797 149.673 164.932 149.818 165.118 149.891C165.708 150.139 165.439 150.315 164.228 150.512C163.431 150.636 162.924 150.812 162.665 151.081C162.468 151.278 158.69 151.847 157.448 151.868L156.878 151.878L157.396 152.116C157.686 152.251 158.017 152.365 158.152 152.365C158.514 152.375 158.752 152.541 159.011 152.955C159.145 153.172 159.394 153.4 159.611 153.483L159.984 153.638L159.746 153.824C159.332 154.166 158.493 154.259 156.692 154.187C155.305 154.124 154.891 154.145 154.29 154.29C153.897 154.383 153.307 154.497 152.996 154.549C152.582 154.611 151.992 154.87 150.823 155.501C149.104 156.433 149.032 156.516 149.487 156.981C149.663 157.157 149.829 157.189 150.75 157.189C151.33 157.189 152.054 157.126 152.355 157.044C152.965 156.888 153.514 156.495 153.514 156.215C153.514 156.05 153.742 156.029 156.34 155.967C161.381 155.843 166.702 155.294 171.039 154.435C172.685 154.104 172.685 154.104 173.451 154.28L174.227 154.445L174.942 154.083C175.708 153.7 175.967 153.659 176.474 153.835C176.795 153.948 176.981 154.249 176.857 154.445C176.753 154.611 176.846 154.58 177.654 154.145L178.41 153.741L180.169 153.99C182.436 154.3 182.498 154.3 183.088 153.928C183.647 153.565 184.072 153.534 185.003 153.783C185.625 153.938 185.625 153.938 185.966 153.679C186.277 153.441 186.411 153.41 187.146 153.41C187.902 153.41 187.985 153.431 188.181 153.669C188.347 153.897 188.368 153.99 188.275 154.249C188.119 154.704 187.55 155.087 186.95 155.149C186.608 155.18 186.432 155.242 186.432 155.336C186.432 155.553 186.039 155.605 185.086 155.491C184.6 155.439 184.072 155.418 183.917 155.449C183.596 155.512 183.327 155.832 183.327 156.153C183.327 156.34 183.213 156.402 182.581 156.547C179.269 157.313 179.59 157.199 179.134 157.747C178.772 158.182 178.658 158.255 178.223 158.317C177.426 158.431 175.863 158.865 174.611 159.321C173.524 159.714 173.389 159.797 172.716 160.46L171.992 161.164L171.37 161.019C170.47 160.801 170.428 160.812 170.252 161.267C170.097 161.66 170.077 161.671 169.486 161.712C169.072 161.743 168.607 161.888 167.954 162.188C167.24 162.52 166.816 162.644 166.153 162.716C165.149 162.83 164.787 163.047 164.994 163.441C165.097 163.627 165.201 163.658 165.76 163.648C166.112 163.648 166.919 163.72 167.54 163.803L168.679 163.969L168.886 163.731C169 163.606 169.197 163.368 169.331 163.203L169.569 162.892L170.573 163.016C171.122 163.089 172.281 163.234 173.13 163.348C173.989 163.462 175.107 163.555 175.635 163.555C176.494 163.555 176.598 163.534 176.743 163.327C176.898 163.12 176.94 163.11 178.213 163.182C179.527 163.244 179.538 163.244 179.807 162.985L180.076 162.727L180.428 163.089L180.78 163.451H181.794C182.819 163.451 182.819 163.451 183.161 163.099C183.71 162.551 184.082 162.54 185.759 163.006C186.504 163.223 186.784 163.358 187.136 163.679C187.685 164.176 188.109 164.197 188.192 163.72C188.233 163.472 188.347 163.389 188.906 163.161C189.413 162.965 189.579 162.84 189.662 162.613C189.827 162.116 190.086 162.137 191.245 162.727C192.405 163.317 192.85 163.368 192.85 162.913C192.85 162.696 192.871 162.696 194.382 162.768C196.028 162.851 197.612 163.037 198.709 163.296C199.278 163.431 199.465 163.524 199.734 163.834L200.065 164.217L200.137 163.731C200.22 163.161 200.614 162.664 201.059 162.561C201.318 162.499 201.338 162.52 201.338 162.809C201.338 163.203 201.504 163.327 202.084 163.41C202.508 163.472 202.653 163.575 203.471 164.393C203.968 164.9 204.361 165.325 204.33 165.346C204.309 165.366 203.978 165.563 203.595 165.77C202.963 166.122 202.881 166.205 202.787 166.588C202.601 167.312 202.197 168.213 201.483 169.455C200.469 171.225 199.817 172.602 199.682 173.233C199.578 173.72 199.527 173.803 199.33 173.803C198.812 173.803 198.336 174.745 198.109 176.235C198.015 176.846 197.943 177.043 197.757 177.167C197.612 177.26 197.487 177.478 197.446 177.705C197.405 177.933 197.26 178.181 197.073 178.337C196.908 178.471 196.556 179.051 196.276 179.641C195.842 180.552 195.686 180.769 195.086 181.297L194.403 181.898V182.922V183.958L193.223 185.479C192.146 186.866 192.043 187.053 191.97 187.57C191.929 187.881 191.732 188.626 191.546 189.227C191.349 189.827 191.194 190.386 191.194 190.489C191.194 190.583 191.028 190.748 190.831 190.872C190.552 191.028 190.448 191.183 190.355 191.556C190.262 191.918 190.107 192.146 189.61 192.612C189.258 192.932 188.73 193.347 188.419 193.543C187.798 193.947 187.747 194.04 187.519 195.303C187.302 196.462 187.043 197.063 186.701 197.197C186.546 197.249 186.432 197.332 186.432 197.373C186.432 197.549 186.215 199.33 186.163 199.557C186.121 199.775 186.08 199.785 185.562 199.723C185.066 199.661 184.993 199.682 184.89 199.868C184.827 199.982 184.776 200.21 184.776 200.355C184.776 200.52 184.517 201.027 184.155 201.597L183.534 202.549L183.689 203.16C183.886 203.905 183.896 204.888 183.72 204.837C183.647 204.806 183.471 204.588 183.327 204.33C183.057 203.874 182.705 203.667 182.705 203.957C182.705 204.05 182.364 204.381 181.95 204.713L181.204 205.313L180.811 206.503C180.387 207.797 179.993 208.646 179.186 210.033C178.906 210.52 178.575 211.162 178.461 211.462C178.099 212.414 178.244 213.387 178.71 213.211C178.886 213.139 179.186 212.217 179.186 211.762C179.186 211.586 179.217 211.472 179.248 211.503C179.352 211.617 179.59 212.766 179.517 212.88C179.165 213.48 178.275 214.257 178.109 214.101C178.078 214.07 178.047 213.894 178.047 213.718C178.047 213.315 177.944 212.932 177.84 212.932C177.592 212.932 174.994 217.165 174.828 217.849C174.766 218.107 174.517 218.615 174.29 218.967C173.762 219.784 173.389 220.571 173.389 220.902C173.379 221.047 173.265 221.296 173.13 221.472C172.727 221.948 172.136 223.594 171.226 226.699C170.501 229.194 170.077 230.54 169.818 231.171C169.714 231.43 169.383 231.399 169.197 231.109C168.99 230.798 169.124 230.426 169.549 230.105C169.911 229.836 169.88 229.701 169.455 229.701C169.041 229.701 168.607 230.105 168.203 230.881L167.861 231.533L168.089 232.227C168.358 233.055 168.4 234.152 168.161 234.152C167.965 234.152 166.774 235.001 166.764 235.146C166.764 235.208 166.433 235.809 166.019 236.492C165.18 237.879 164.766 238.8 164.549 239.722C164.414 240.301 164.425 240.363 164.58 240.508C165.025 240.912 165.48 240.519 165.729 239.514C165.863 238.997 166.547 238.086 167.654 236.947C167.965 236.626 168.213 236.305 168.213 236.223C168.213 236.14 168.358 235.86 168.524 235.612C168.7 235.363 168.834 235.053 168.834 234.918C168.834 234.722 169 234.577 169.642 234.204C170.097 233.945 170.646 233.531 170.884 233.272C171.298 232.807 171.598 232.682 171.671 232.931C171.826 233.417 171.836 233.635 171.702 233.635C171.422 233.635 171.05 234.038 170.925 234.442C170.832 234.742 170.718 234.887 170.511 234.96C170.284 235.043 170.097 235.343 169.466 236.616C168.793 237.962 168.648 238.179 168.431 238.21C168.141 238.241 167.944 238.562 167.851 239.131C167.81 239.432 167.737 239.525 167.53 239.577C167.344 239.628 167.209 239.784 167.064 240.105C166.836 240.622 166.215 241.057 165.553 241.16C165.336 241.191 165.128 241.274 165.087 241.336C165.046 241.398 165.004 241.73 165.004 242.071C165.004 243.282 164.942 243.438 164.269 243.893C163.772 244.235 163.348 244.721 163.348 244.959C163.348 244.98 163.627 245.177 163.969 245.384C164.311 245.591 164.59 245.798 164.59 245.85C164.59 246.15 164.28 246.616 163.659 247.247C162.375 248.541 162.302 249.255 163.431 249.473C164.166 249.607 164.445 249.493 164.59 248.976C164.725 248.469 165.066 248.023 165.315 248.023C165.449 248.023 165.812 247.589 166.474 246.605C167.458 245.146 168.648 243.779 169.166 243.51C169.569 243.303 170.045 243.324 170.18 243.562C170.346 243.872 170.304 244.162 170.087 244.224C169.787 244.297 169.569 244.701 169.311 245.684C169.083 246.543 168.752 247.092 168.472 247.092C168.41 247.092 168.275 247.361 168.172 247.682C167.892 248.582 167.499 249.255 167.209 249.328C167.033 249.38 166.661 249.845 165.926 250.932C165.17 252.071 164.839 252.475 164.694 252.475C164.569 252.475 164.207 252.361 163.866 252.216C163.151 251.916 162.81 251.895 162.582 252.123C162.323 252.371 162.24 252.588 162.158 253.116C162.054 253.779 161.733 254.089 160.988 254.234C159.911 254.452 159.621 254.555 159.518 254.752C159.435 254.897 159.445 255.021 159.528 255.176C159.642 255.394 159.632 255.394 159.404 255.228C159.031 254.969 158.535 255.011 158.286 255.332C158.162 255.487 158.069 255.673 158.069 255.746C158.069 255.818 157.841 256.16 157.551 256.501C157.168 256.957 157.075 257.133 157.189 257.174C157.427 257.267 157.375 257.505 157.065 257.713C156.764 257.899 156.216 257.971 153.255 258.158C151.257 258.282 148.835 258.851 148.038 259.389C146.361 260.487 143.545 261.232 137.303 262.205C135.482 262.485 133.887 262.743 133.743 262.774C133.598 262.816 133.266 263.054 132.997 263.313C132.521 263.789 132.5 263.789 132.117 263.675C131.258 263.416 131.31 263.406 130.834 263.975C130.585 264.275 130.264 264.731 130.119 264.99C129.819 265.549 129.26 265.901 128.536 265.994L128.039 266.066L128.277 266.325L128.515 266.594L128.246 266.429C127.977 266.263 127.956 266.263 127.314 266.646C126.942 266.853 126.496 267.143 126.32 267.277C126.031 267.484 126.01 267.536 126.144 267.629C126.238 267.702 126.269 267.826 126.238 267.919C126.113 268.24 125.73 268.323 122.563 268.675C121.797 268.758 120.679 268.944 120.089 269.089C119.116 269.327 118.961 269.399 118.422 269.865C118.029 270.207 117.729 270.383 117.553 270.383C117.408 270.383 117.108 270.476 116.901 270.59C116.683 270.704 116.383 270.797 116.228 270.797C116.072 270.797 115.596 270.942 115.161 271.107C114.727 271.273 114.23 271.418 114.044 271.418C113.495 271.418 112.946 271.625 112.77 271.884C112.615 272.122 112.543 272.143 111.735 272.143C111.052 272.143 110.845 272.174 110.803 272.298C110.762 272.381 110.607 272.453 110.452 272.453C109.851 272.453 110.017 272.898 110.772 273.281L111.135 273.468L111.859 273.064C112.532 272.691 112.625 272.66 113.443 272.66C114.251 272.66 114.344 272.639 114.613 272.381L114.903 272.101L115.482 272.288L116.072 272.474L116.311 272.174C116.445 272.018 116.549 271.853 116.559 271.801C116.559 271.76 116.662 271.749 116.797 271.77C116.921 271.801 117.615 271.853 118.35 271.894C119.074 271.925 119.664 271.998 119.664 272.049C119.664 272.288 119.147 272.66 118.816 272.66C118.609 272.66 118.257 272.805 117.905 273.022C117.532 273.261 117.221 273.385 116.973 273.385C116.455 273.385 114.313 273.923 113.112 274.358C111.859 274.813 110.514 275.445 110.048 275.807C109.789 275.993 109.561 276.076 109.261 276.076C108.785 276.076 108.216 276.242 107.967 276.438C107.884 276.511 107.419 276.594 106.932 276.635C106.445 276.666 105.514 276.79 104.862 276.904C104.21 277.018 103.444 277.111 103.164 277.111C102.719 277.111 102.605 277.163 102.046 277.629C101.477 278.105 101.384 278.146 100.897 278.146C100.338 278.146 98.3609 278.405 98.2781 278.488C98.2056 278.561 99.6652 278.954 100.483 279.088C101.394 279.233 101.891 279.151 102.16 278.809L102.377 278.54L102.947 278.861C103.392 279.109 103.568 279.161 103.713 279.078C103.816 279.026 104.53 278.985 105.286 278.985C106.249 278.995 106.901 278.944 107.398 278.83C107.802 278.726 108.495 278.602 108.951 278.55C109.551 278.478 109.841 278.385 110.006 278.229C110.244 278.012 110.244 278.012 110.866 278.198C111.383 278.354 111.549 278.364 111.89 278.26C112.118 278.198 112.398 278.022 112.511 277.877C112.739 277.588 114.406 276.966 114.747 277.049C114.861 277.08 115.213 277.194 115.524 277.308C116.124 277.525 116.373 277.463 116.279 277.122C116.207 276.842 116.362 276.79 117.491 276.697C118.464 276.625 118.536 276.604 118.981 276.231C119.25 276.014 119.457 275.89 119.457 275.931C119.457 276.066 119.064 277.536 119.023 277.588C119.002 277.608 118.526 277.546 117.977 277.453L116.963 277.287L116.166 277.701C115.72 277.939 115.068 278.178 114.706 278.25C113.174 278.53 111.569 279.306 111.507 279.792C111.466 280.03 111.476 280.041 112.025 279.958C112.325 279.917 113.236 279.865 114.054 279.844C115.348 279.813 115.586 279.782 115.886 279.596C116.259 279.368 116.476 279.399 116.756 279.741C116.869 279.875 116.859 279.917 116.704 279.968C116.59 279.999 116.186 280.175 115.783 280.362C115.389 280.548 114.872 280.745 114.644 280.817C113.547 281.117 113.091 281.345 112.687 281.811L112.263 282.277L111.249 282.391C110.69 282.453 110.1 282.567 109.934 282.649C109.768 282.732 109.416 282.805 109.158 282.805C108.837 282.805 108.557 282.888 108.278 283.063C107.946 283.271 107.739 283.322 107.16 283.322C106.59 283.322 106.414 283.364 106.269 283.519C106.156 283.643 105.897 283.726 105.483 283.767C105.058 283.798 104.665 283.933 104.168 284.192C103.702 284.44 103.33 284.564 103.05 284.564C102.636 284.564 102.636 284.575 102.408 285.155C102.274 285.486 102.17 285.796 102.16 285.848C102.16 285.9 102.326 286.014 102.522 286.096C102.947 286.262 103.433 286.19 103.35 285.983C103.278 285.796 103.578 285.558 103.775 285.641C103.858 285.672 103.93 285.776 103.93 285.869C103.93 286.014 104.127 286.024 105.742 285.993C107.719 285.962 107.76 285.941 107.76 285.362C107.76 285.082 107.77 285.082 108.433 285.082C108.837 285.082 109.24 285.02 109.416 284.927C110.193 284.523 112.905 284.088 115.213 283.995C116.383 283.943 116.642 283.902 117.066 283.685C117.708 283.364 118.629 283.229 118.629 283.446C118.629 283.685 118.402 283.83 117.874 283.933C117.615 283.974 117.253 284.14 117.077 284.295C116.787 284.533 116.662 284.564 115.959 284.564C115.524 284.564 114.861 284.596 114.489 284.627C113.857 284.689 113.785 284.72 113.578 285.041C113.36 285.372 113.319 285.393 112.729 285.393C112.149 285.393 112.108 285.413 111.839 285.755C111.58 286.096 111.538 286.117 110.917 286.117C110.503 286.117 110.224 286.169 110.151 286.252C110.079 286.345 109.872 286.376 109.499 286.345C109.033 286.314 108.857 286.355 108.34 286.624C108.009 286.8 107.667 286.945 107.584 286.945C107.501 286.945 107.232 287.111 106.994 287.308C106.725 287.525 106.435 287.67 106.269 287.67C105.918 287.67 105.597 287.825 105.327 288.136C105.214 288.26 104.769 288.488 104.344 288.633C103.92 288.778 102.895 289.14 102.067 289.43C100.224 290.082 99.6134 290.227 98.1953 290.351C97.4914 290.413 97.0152 290.506 96.9117 290.599C96.7771 290.713 96.3009 290.765 95.1002 290.817C92.4087 290.92 90.0072 291.283 89.7794 291.604C89.4793 292.028 88.5269 292.1 86.5705 291.852C86.0632 291.79 86.0322 291.8 85.8769 292.08C85.5664 292.67 85.5974 292.659 84.7796 292.38C84.3656 292.235 84.0136 292.131 84.0033 292.152C83.7548 292.432 83.2373 293.394 83.2787 293.467C83.3097 293.529 83.5582 293.57 83.8273 293.581C84.3863 293.591 85.3697 293.746 84.997 293.767C84.8521 293.767 83.7962 293.964 82.6472 294.191C80.2664 294.668 78.6412 294.864 77.9683 294.771C77.6371 294.73 77.4507 294.75 77.3369 294.854C77.223 294.947 76.7468 295.009 75.7738 295.051C74.9146 295.092 73.6828 295.237 72.5648 295.434C71.364 295.651 70.3599 295.765 69.5836 295.775C68.6519 295.796 68.4138 295.827 68.3724 295.951C68.3414 296.034 68.2378 296.22 68.1343 296.355L67.9377 296.593L67.4201 296.334L66.9025 296.065L66.5712 296.645C66.3953 296.966 66.2607 297.235 66.2814 297.255C66.3849 297.359 67.7513 297.483 67.7824 297.4C67.8031 297.338 68.0619 297.297 68.3517 297.297C68.6519 297.297 69.4697 297.224 70.1839 297.142C70.8982 297.059 72.0369 296.955 72.7201 296.924C73.7966 296.862 74.0037 296.821 74.2418 296.614C74.397 296.489 74.7179 296.355 74.9457 296.313C75.2562 296.262 75.4736 296.138 75.722 295.868C76.0119 295.547 76.0843 295.516 76.2293 295.63C76.3224 295.703 76.3949 295.879 76.3949 296.003C76.3949 296.282 76.4466 296.303 77.4714 296.469L78.2685 296.603L78.7033 296.179L79.138 295.765L80.432 295.858C82.0365 295.972 82.5127 295.899 84.614 295.227C85.5043 294.947 86.4048 294.709 86.6015 294.709C86.9638 294.709 88.9927 295.092 89.1584 295.196C89.2101 295.227 89.148 295.32 89.0238 295.403C88.8996 295.485 88.765 295.672 88.7132 295.796C88.6408 295.972 88.5062 296.065 88.2267 296.106C86.2806 296.427 85.0591 296.748 85.1212 296.914C85.2144 297.204 86.2703 297.431 87.7919 297.483L89.2929 297.525L89.4586 297.276C89.6035 297.059 89.7484 297.007 90.2867 296.945C90.649 296.904 91.7773 296.759 92.8021 296.614C93.8269 296.458 95.1105 296.334 95.6488 296.324C96.7253 296.313 97.0048 296.407 97.7398 297.028C97.9468 297.204 98.3195 297.463 98.5783 297.597L99.0441 297.846L99.3753 297.576C99.5927 297.39 99.8205 297.297 100.059 297.297C100.245 297.297 100.783 297.224 101.249 297.131C102.025 296.966 102.139 296.966 102.791 297.131C103.909 297.4 104.675 297.307 105.058 296.852C105.172 296.707 105.421 296.676 106.632 296.676C108.185 296.676 109.447 296.531 111.828 296.065L113.36 295.765L114.002 295.972C114.354 296.086 114.996 296.2 115.431 296.231C116.145 296.282 116.238 296.272 116.445 296.065C116.642 295.868 116.714 295.858 117.077 295.951C117.625 296.096 117.987 295.993 118.143 295.641C118.288 295.309 119.095 294.398 119.25 294.398C119.312 294.398 119.706 294.502 120.12 294.626L120.886 294.854L122.169 294.378C124.012 293.695 124.83 293.539 126.227 293.591C127.283 293.643 127.418 293.622 127.863 293.394C128.277 293.187 128.453 293.167 128.939 293.218C129.322 293.27 129.612 293.374 129.809 293.529C130.616 294.212 131.776 294.109 133.711 293.198C134.115 293.001 134.478 292.846 134.519 292.846C134.56 292.846 134.571 292.98 134.54 293.156C134.457 293.57 134.685 293.57 135.005 293.167C135.233 292.877 135.316 292.856 136.848 292.639C137.728 292.514 139.125 292.276 139.953 292.111L141.454 291.79L142.345 292.007C142.842 292.131 143.659 292.235 144.187 292.256C145.098 292.276 145.14 292.266 145.367 291.997C145.668 291.635 146.133 291.583 146.516 291.893C146.899 292.194 147.013 292.183 147.717 291.79C148.193 291.531 148.359 291.376 148.473 291.065C148.659 290.589 148.97 290.537 149.239 290.941L149.404 291.21L149.56 290.91C149.643 290.755 149.725 290.61 149.736 290.599C149.746 290.579 150.098 290.682 150.512 290.827C150.926 290.972 151.278 291.076 151.288 291.055C151.299 291.045 151.402 290.869 151.527 290.662C151.713 290.351 151.796 290.299 152.054 290.341C152.375 290.382 153.545 289.958 155.274 289.15L156.247 288.695L157.21 288.767C157.737 288.809 158.172 288.871 158.172 288.902C158.172 288.943 158.007 289.461 157.81 290.061C157.603 290.651 157.468 291.231 157.489 291.355C157.52 291.469 157.427 291.842 157.292 292.183C157.147 292.514 157.034 292.846 157.034 292.918C157.034 292.98 157.21 293.125 157.417 293.229C157.624 293.332 157.82 293.477 157.841 293.55C157.882 293.684 157.52 294.067 156.63 294.802C155.75 295.527 155.719 295.982 156.516 296.303C156.878 296.448 156.982 296.448 157.282 296.324C157.665 296.169 157.872 295.868 158.69 294.305C159.228 293.28 159.642 292.825 159.849 293.032C159.922 293.115 159.704 294.15 159.508 294.626C159.404 294.875 159.332 294.916 159.011 294.916H158.628V295.403C158.628 296.003 158.265 296.976 157.903 297.338C157.686 297.545 157.613 297.752 157.551 298.332C157.479 298.984 157.427 299.108 157.065 299.502C156.682 299.916 155.791 301.158 155.791 301.272C155.791 301.313 155.916 301.334 156.061 301.334H156.33L156.102 301.717C155.988 301.924 155.543 302.524 155.139 303.063C154.197 304.284 153.98 304.646 153.721 305.433C153.607 305.775 153.4 306.21 153.276 306.396L153.038 306.738L153.379 307.079C153.804 307.504 153.804 307.659 153.411 308.259C153.059 308.818 152.375 310.713 152.375 311.137C152.375 311.582 152.655 311.913 152.976 311.872C153.214 311.841 153.255 311.789 153.255 311.52C153.255 311.251 153.493 310.92 154.497 309.719C156.847 306.945 157.748 305.475 157.396 304.988C157.323 304.895 156.971 304.688 156.609 304.543C156.092 304.346 155.926 304.222 155.853 303.994C155.719 303.632 155.853 303.394 156.268 303.239C156.671 303.094 158.731 301.044 158.773 300.744C158.876 299.926 159.435 298.963 160.336 298.084L160.946 297.483L160.791 297.121C160.667 296.81 160.667 296.738 160.791 296.645C160.874 296.572 160.967 296.293 161.009 296.013C161.091 295.351 161.505 294.461 161.816 294.264C161.94 294.181 162.323 294.046 162.654 293.974C163.162 293.871 163.244 293.819 163.244 293.612C163.244 293.477 163.296 293.136 163.358 292.846C163.483 292.276 163.71 292.152 163.824 292.587C163.928 293.011 163.772 293.539 163.1 295.061C162.334 296.779 162.147 297.266 162.23 297.359C162.271 297.39 162.634 297.266 163.027 297.09C163.596 296.831 163.762 296.696 163.762 296.531C163.772 296.407 163.907 296.055 164.073 295.744C164.249 295.434 164.383 295.071 164.383 294.947C164.383 294.678 165.139 293.539 166.112 292.328C166.495 291.842 167.044 291.148 167.333 290.786L167.841 290.113L168.027 290.755L168.224 291.396L167.044 293.498C165.77 295.734 163.762 299.502 163.762 299.626C163.762 299.667 163.876 299.833 164.021 300.009C164.321 300.371 164.445 300.806 164.538 301.893C164.58 302.348 164.673 302.897 164.756 303.125L164.901 303.529L163.969 304.709C163.452 305.35 163.037 305.909 163.037 305.93C163.037 305.961 163.182 306.065 163.358 306.147C163.897 306.427 164.093 306.23 165.449 303.974C166.215 302.68 166.754 302.017 167.199 301.789C167.602 301.582 167.665 301.665 167.406 302.028C167.209 302.297 167.209 302.338 167.354 302.618C167.613 303.114 167.489 304.584 167.085 305.785C166.692 306.945 165.915 308.58 165.336 309.481C164.984 310.009 164.901 310.247 164.818 310.94C164.756 311.499 164.632 311.903 164.456 312.213C164.197 312.659 163.762 314.035 163.762 314.418C163.762 314.522 163.348 315.05 162.83 315.588C161.899 316.561 161.692 316.965 162.106 316.965C162.302 316.965 162.302 316.996 162.013 317.348C161.588 317.886 161.412 318.424 161.278 319.677C161.205 320.298 161.071 320.919 160.957 321.157C160.843 321.385 160.46 322.617 160.098 323.9C159.611 325.639 159.456 326.343 159.487 326.695C159.528 327.109 159.466 327.275 158.907 328.248C158.555 328.848 158.245 329.501 158.214 329.697C158.162 329.966 157.976 330.205 157.53 330.608C156.795 331.281 156.557 331.685 155.988 333.165C155.75 333.786 155.439 334.469 155.305 334.666C154.891 335.297 155.067 335.774 155.719 335.722C156.381 335.67 157.013 334.904 157.354 333.734C157.489 333.269 157.841 332.544 158.379 331.664C158.535 331.405 158.886 330.588 159.156 329.853C159.497 328.921 159.735 328.424 159.932 328.248C160.087 328.103 160.481 327.762 160.812 327.482C161.133 327.203 161.495 326.778 161.619 326.53C161.816 326.105 161.826 326.054 161.671 325.743L161.516 325.401L162.064 324.791C163.244 323.497 164.487 321.416 165.501 319.035C165.781 318.383 166.536 316.447 167.178 314.739C169.269 309.16 170.47 306.789 172.168 304.905C172.985 304.005 176.36 297.007 176.07 296.821C175.884 296.707 175.987 296.407 176.536 295.485C177.209 294.357 179.631 290.744 180.521 289.523C181.101 288.726 181.153 288.622 181.153 288.115C181.153 287.308 181.184 287.297 183.275 287.484C183.544 287.515 183.596 287.473 183.751 287.049C183.844 286.79 184.01 286.262 184.124 285.858C184.351 284.989 184.496 284.927 185.138 285.382C185.562 285.682 185.914 285.796 185.914 285.62C185.925 285.579 186.008 285.434 186.121 285.299L186.328 285.061L187.105 285.237L187.881 285.403L188.192 285.155C188.357 285.01 188.73 284.844 189.02 284.782C189.31 284.72 189.682 284.564 189.848 284.451C190.076 284.275 190.231 284.244 190.511 284.285C190.718 284.316 190.883 284.306 190.883 284.244C190.883 284.088 191.825 283.529 192.084 283.529C192.208 283.529 192.384 283.415 192.477 283.271C192.57 283.126 192.819 282.97 193.067 282.908C193.295 282.846 193.564 282.712 193.678 282.598C193.968 282.308 194.889 282.235 196.473 282.38C199.413 282.66 199.164 282.649 199.164 282.401C199.164 282.121 199.723 281.77 200.179 281.77C200.438 281.77 200.51 281.728 200.51 281.563C200.51 281.128 200.821 281.066 203.74 280.993L206.504 280.921L207.114 280.175C207.767 279.389 208.688 278.105 208.688 278.002C208.688 277.971 208.595 277.939 208.47 277.939C208.232 277.939 207.839 277.753 207.736 277.588C207.632 277.432 207.849 277.215 208.119 277.215C208.305 277.215 208.377 277.142 208.429 276.904C208.47 276.739 208.553 276.583 208.615 276.583C208.905 276.552 209.174 276.625 209.485 276.811C210.199 277.256 210.593 276.594 210.53 275.051C210.499 274.109 210.51 274.058 210.717 274.027C210.955 273.996 211.514 274.41 211.7 274.741C211.783 274.906 211.742 275.062 211.483 275.507C211.1 276.18 211.162 276.2 212.083 275.766C212.539 275.548 212.901 275.455 213.253 275.455C213.615 275.455 213.812 275.403 213.957 275.258C214.143 275.072 214.381 275.051 216.607 274.979C218.667 274.917 219.091 274.875 219.267 274.73C219.474 274.565 219.474 274.555 219.298 274.182C219.133 273.82 218.46 273.136 217.849 272.691L217.549 272.474L217.911 272.08C218.108 271.853 218.377 271.49 218.511 271.273L218.77 270.869L219.039 271.201C219.267 271.459 219.34 271.677 219.391 272.256C219.474 273.167 219.661 273.55 220.075 273.644C220.478 273.737 220.83 273.664 222.166 273.209L223.263 272.826L223.501 271.708C223.698 270.787 223.78 270.59 223.936 270.59C224.039 270.59 224.308 270.497 224.536 270.372C224.836 270.228 225.054 270.186 225.281 270.238C225.727 270.331 226.358 270.652 226.834 271.035C227.052 271.201 227.238 271.325 227.248 271.304C227.259 271.283 227.321 271.17 227.383 271.056C227.445 270.942 227.611 270.828 227.735 270.818C227.869 270.797 228.087 270.714 228.211 270.621C228.387 270.507 228.708 270.476 229.546 270.507C230.644 270.538 230.654 270.538 230.902 270.248C231.037 270.093 231.151 269.865 231.151 269.751C231.151 269.575 231.202 269.555 231.513 269.617C231.772 269.658 231.875 269.648 231.875 269.544C231.875 269.379 230.995 268.551 230.726 268.468C230.426 268.375 230.488 267.961 230.851 267.598C231.42 267.029 231.875 267.236 231.875 268.074C231.875 268.561 232.113 268.934 232.424 268.934C232.755 268.934 234.07 268.137 235.229 267.236L236.223 266.46L236.647 267.05C236.886 267.371 237.113 267.681 237.155 267.722C237.196 267.764 237.558 267.547 237.962 267.226C238.459 266.843 238.79 266.656 238.987 266.656C239.318 266.656 239.743 266.915 239.743 267.112C239.743 267.308 240.757 267.981 241.161 268.064C241.73 268.178 242.351 267.671 242.631 266.863C242.744 266.532 242.734 266.491 242.486 266.315C242.227 266.118 242.144 265.787 242.33 265.673C242.393 265.642 242.569 265.704 242.744 265.828C242.92 265.952 243.448 266.118 244.028 266.232C244.991 266.408 245.001 266.408 245.405 266.201C246.047 265.859 246.523 265.445 246.74 265.052C246.927 264.71 246.927 264.679 246.751 264.513C246.595 264.358 246.368 264.327 245.229 264.327C244.484 264.327 243.883 264.296 243.883 264.244C243.883 264.203 244.08 263.872 244.318 263.509C244.68 262.971 244.825 262.837 245.094 262.795C245.27 262.764 245.746 262.598 246.14 262.422C247.206 261.957 247.268 261.967 247.972 262.878L248.562 263.654L248.976 263.292C249.194 263.085 249.421 262.95 249.463 262.971C249.514 263.002 249.577 263.209 249.618 263.427C249.649 263.654 249.752 263.892 249.835 263.965C249.97 264.079 250.063 264.027 250.405 263.665C250.819 263.23 250.819 263.23 250.819 262.412C250.819 261.46 250.933 261.367 251.45 261.884C251.699 262.133 251.75 262.278 251.75 262.661C251.75 263.085 251.771 263.137 251.988 263.137C252.806 263.137 253.717 262.588 253.562 262.184C253.489 261.998 253.075 261.791 252.775 261.791C252.62 261.791 252.578 261.739 252.62 261.605C252.651 261.512 252.796 260.963 252.951 260.383L253.22 259.338L253.665 259.441C254.193 259.565 254.576 259.483 254.866 259.193C255.073 258.986 255.094 258.986 255.28 259.162C255.539 259.4 255.529 259.928 255.26 260.28C255.021 260.59 254.835 260.621 254.649 260.394C254.338 260.021 254.193 260.797 254.473 261.325C254.556 261.501 254.742 261.739 254.887 261.874L255.146 262.112L255.208 261.863C255.249 261.698 255.529 261.429 255.994 261.118C256.75 260.611 257.175 260.062 257.299 259.441C257.351 259.182 257.319 259.089 257.144 258.975C257.019 258.903 256.926 258.768 256.926 258.675C256.926 258.53 257.061 258.499 257.692 258.458C258.5 258.427 258.893 258.22 258.893 257.857C258.893 257.671 259.566 257.392 260.787 257.06C261.253 256.926 261.419 256.833 261.543 256.605C261.709 256.274 262.174 255.994 262.547 255.994C262.682 255.994 262.93 255.839 263.137 255.632C263.334 255.435 263.52 255.27 263.561 255.27C263.603 255.27 263.737 255.446 263.862 255.653C264.079 256.015 264.1 256.036 264.214 255.849C264.472 255.383 264.783 255.166 265.156 255.166C265.487 255.166 265.694 255.021 266.895 253.976C268.106 252.92 268.303 252.785 268.644 252.785C269.12 252.785 269.503 252.62 269.7 252.319C269.783 252.195 269.99 252.061 270.155 252.03C270.352 251.988 270.601 251.802 270.818 251.543C272.029 250.032 273.447 248.489 273.582 248.51C273.675 248.52 273.954 248.562 274.213 248.603C274.793 248.676 274.969 248.51 275.176 247.734C275.342 247.092 275.362 247.061 276.025 246.802C276.428 246.647 276.553 246.543 276.615 246.295C276.729 245.87 277.236 245.384 278.033 244.949C278.996 244.421 279.358 244.131 279.575 243.728C279.669 243.541 280.072 243.127 280.466 242.817C281.107 242.299 281.232 242.247 281.78 242.206C282.474 242.154 282.878 241.926 283.116 241.43C283.24 241.171 283.354 241.098 283.675 241.057C283.902 241.026 284.203 240.912 284.347 240.798C284.73 240.519 285.258 239.597 285.507 238.8L285.714 238.117L286.946 237.279C287.619 236.813 288.271 236.43 288.385 236.43C288.975 236.43 289.068 236.14 288.602 235.809C288.022 235.395 288.271 234.877 289.037 234.877C289.44 234.877 289.637 234.722 289.637 234.411C289.637 233.873 289.989 233.21 290.683 232.424C291.293 231.74 291.552 231.326 292.318 229.753C293.074 228.221 293.208 227.869 293.094 227.776C292.867 227.589 292.919 227.538 293.622 227.206C294.047 226.999 294.295 226.823 294.295 226.72C294.295 226.616 294.409 226.296 294.554 225.995C294.699 225.685 294.813 225.343 294.813 225.229C294.813 225.115 295.144 224.67 295.569 224.225C295.972 223.78 296.883 222.59 297.587 221.565C298.281 220.55 298.995 219.546 299.171 219.339C299.481 218.967 299.492 218.956 299.657 216.762L299.833 214.567L300.165 214.433C300.517 214.277 300.713 213.832 300.713 213.139C300.713 212.735 301.086 211.306 302.1 207.839C302.473 206.545 302.804 205.303 302.846 205.075C302.908 204.702 302.887 204.65 302.711 204.65C302.38 204.65 302.173 204.982 301.945 205.903C301.686 206.907 301.614 207.031 301.241 207.031C300.869 207.031 300.713 206.855 300.713 206.441C300.713 205.675 301.717 203.615 302.08 203.615C302.349 203.615 302.525 203.139 302.732 201.949C302.96 200.572 303.167 199.92 303.415 199.744C303.632 199.599 303.643 199.464 303.808 193.874L303.984 188.15L303.643 187.57C303.177 186.804 303.022 186.225 302.939 185.013C302.846 183.699 302.67 183.15 302.049 182.332C301.769 181.96 301.541 181.566 301.541 181.453C301.541 181.08 301.345 180.852 300.786 180.573C299.74 180.045 299.502 179.672 299.368 178.388C299.316 177.912 299.202 177.281 299.098 176.991C298.902 176.391 298.374 175.821 297.929 175.718C297.597 175.645 297.597 175.656 297.39 174.372C297.277 173.679 297.245 173.616 296.573 172.923L295.879 172.198L295.703 170.987C295.558 169.931 295.475 169.672 295.103 169.02C294.875 168.606 294.637 168.244 294.585 168.234C294.533 168.213 294.357 168.078 294.192 167.933C293.809 167.613 293.778 167.281 294.13 167.281C294.482 167.281 295.537 168.172 295.537 168.472C295.537 169.145 296.883 171.008 297.38 171.008C297.929 171.008 297.856 170.407 297.163 169.238C296.407 167.944 295.827 167.312 294.978 166.867C294.44 166.577 294.295 166.453 294.295 166.256C294.295 165.987 293.798 165.459 293.281 165.19C293.001 165.045 292.96 164.973 293.001 164.724C293.115 164.155 291.521 162.406 290.641 162.116C290.434 162.043 290.051 161.722 289.658 161.288C289.151 160.718 288.944 160.563 288.633 160.501C288.074 160.408 287.794 160.19 287.691 159.797C287.619 159.518 287.556 159.466 287.246 159.435C286.739 159.393 286.376 159.238 285.496 158.679C285.062 158.4 284.523 158.099 284.306 158.017C284.078 157.923 283.54 157.499 283.116 157.085C282.443 156.422 282.194 156.267 281.19 155.822L280.041 155.325L278.882 154C278.188 153.224 277.64 152.686 277.526 152.686C277.194 152.686 276.47 152.323 275 151.412C273.499 150.47 273.199 150.336 271.936 150.046C269.069 149.373 266.957 148.328 266.791 147.499C266.739 147.241 266.677 147.21 266.046 147.096C264.514 146.837 263.717 146.475 263.52 145.957C263.458 145.791 263.334 145.626 263.241 145.584C263.054 145.512 259.493 144.301 259.462 144.301C259.452 144.301 259.411 144.435 259.379 144.611C259.255 145.201 258.531 144.984 257.351 144.001C256.346 143.162 256.129 143.059 255.353 143.059C254.494 143.059 253.966 142.789 253.759 142.251C253.748 142.241 253.417 142.365 253.013 142.541C252.164 142.903 251.864 142.924 251.274 142.655C250.591 142.344 250.477 141.972 250.57 140.409C250.632 139.187 250.653 139.115 250.881 139.063C251.347 138.939 251.481 138.67 251.523 137.645C251.564 136.713 251.574 136.682 251.957 136.268C252.402 135.781 252.578 135.171 252.578 134.094C252.578 132.883 252.206 132.397 251.285 132.397C250.519 132.397 250.363 132.541 250.425 133.225C250.467 133.649 250.425 133.96 250.229 134.508C250.022 135.15 249.877 135.347 249.183 136.04C248.748 136.485 248.334 136.848 248.262 136.848C248.2 136.848 248.044 136.723 247.92 136.568C247.641 136.216 247.693 135.74 248.076 134.974C248.22 134.695 248.396 134.218 248.479 133.918C248.562 133.608 248.728 133.163 248.852 132.924C249.059 132.51 249.991 129.405 249.991 129.125C249.991 128.856 250.218 128.504 250.498 128.339C250.808 128.163 250.839 128.08 250.984 126.776C251.046 126.227 251.088 126.155 251.336 126.072C251.492 126.01 251.668 125.854 251.74 125.709C251.864 125.42 251.895 124.115 251.771 124.115C251.73 124.115 251.523 124.25 251.316 124.426ZM291.19 164.228C291.19 164.528 290.9 164.693 290.765 164.476C290.589 164.197 290.662 163.969 290.931 163.969C291.138 163.969 291.19 164.021 291.19 164.228ZM239.743 169.61C239.743 170.397 238.79 171.96 238.086 172.322C237.807 172.467 237.6 172.664 237.569 172.799C237.476 173.171 237.124 173.088 236.979 172.664C236.741 171.971 236.844 171.111 237.196 170.884C237.258 170.842 237.413 170.801 237.548 170.801C237.714 170.801 237.776 170.739 237.776 170.563C237.776 170.418 237.993 170.138 238.397 169.755C238.832 169.362 239.039 169.082 239.08 168.844L239.152 168.492L239.442 168.844C239.66 169.103 239.732 169.31 239.743 169.61ZM244.101 170.345C244.38 170.656 245.063 170.997 245.394 171.008C245.55 171.008 245.643 171.091 245.684 171.267C245.829 171.846 247.413 172.426 251.16 173.285C253.148 173.741 256.057 174.558 258.23 175.262C258.665 175.397 258.893 175.542 258.965 175.697C259.028 175.832 259.286 176.008 259.628 176.132C260.032 176.287 260.197 176.411 260.239 176.587C260.27 176.753 260.415 176.867 260.653 176.95C260.86 177.012 261.098 177.198 261.222 177.384C261.336 177.56 261.574 177.767 261.76 177.83C262.112 177.964 262.568 178.43 263.116 179.227C263.313 179.506 263.593 179.776 263.8 179.858C264.214 180.034 265.611 181.432 266.098 182.156C266.294 182.446 266.481 182.85 266.522 183.036C266.553 183.223 266.698 183.533 266.843 183.72C266.988 183.906 267.122 184.247 267.143 184.506C267.195 184.9 267.278 185.024 267.795 185.479C268.323 185.955 268.396 186.059 268.458 186.514C268.489 186.804 268.613 187.146 268.727 187.291L268.934 187.56L268.623 190.541C267.94 196.907 267.423 199.485 266.18 202.528C265.383 204.474 263.944 207.031 263.644 207.031C263.137 207.031 263.147 207.611 263.665 208.863L263.976 209.598L263.717 210.116C263.334 210.872 262.475 211.897 260.301 214.226C259.235 215.364 258.241 216.482 258.106 216.72C257.951 216.979 257.361 217.538 256.522 218.201C255.705 218.853 255.135 219.381 255.063 219.567C254.701 220.426 251.14 223.2 249.752 223.708C249.245 223.884 247.92 225.24 247.92 225.571C247.92 225.985 247.755 226.13 247.299 226.13C246.916 226.13 246.875 226.151 246.792 226.461C246.657 226.927 246.419 227.206 245.529 227.941C245.105 228.293 244.691 228.666 244.608 228.77C244.494 228.904 244.235 228.966 243.583 229.018C242.62 229.09 241.865 229.36 241.771 229.66C241.73 229.774 241.192 230.126 240.467 230.498C239.784 230.861 238.252 231.751 237.051 232.496C234.443 234.111 233.314 234.732 231.741 235.374C230.902 235.726 230.478 235.964 230.281 236.192C229.888 236.657 229.225 236.875 227.207 237.206C226.958 237.247 226.813 237.33 226.772 237.455C226.751 237.568 226.596 237.734 226.451 237.827C226.13 238.045 225.147 238.293 224.629 238.293C224.422 238.293 223.863 238.459 223.387 238.666C222.901 238.862 222.166 239.173 221.752 239.349C221.203 239.577 220.965 239.732 220.892 239.918C220.747 240.301 220.044 240.56 218.76 240.684C217.921 240.767 217.59 240.839 217.435 240.995C217.042 241.347 216.348 241.523 215.095 241.574L213.905 241.626L213.77 241.926C213.615 242.289 213.253 242.496 212.611 242.589C212.218 242.651 212.145 242.692 212.145 242.879C212.156 243.096 212.125 243.106 210.81 243.106C209.557 243.117 209.423 243.138 208.947 243.386C208.667 243.541 208.294 243.686 208.119 243.707C207.953 243.738 207.56 243.862 207.259 243.997C206.731 244.235 206.7 244.235 206.597 244.048C206.442 243.779 205.707 243.469 205.189 243.469H204.734L204.806 243.024C204.93 242.33 205.375 241.305 205.624 241.181C206.214 240.871 206.721 240.187 206.721 239.68C206.721 239.535 206.794 239.131 206.876 238.8C206.969 238.469 207.083 237.858 207.135 237.455C207.218 236.792 207.27 236.668 207.632 236.285C207.849 236.057 208.243 235.488 208.481 235.032C208.729 234.577 209.05 234.018 209.205 233.79C209.557 233.241 209.671 232.983 210.147 231.564C210.593 230.26 210.613 230.115 210.406 230.115C210.147 230.115 210.034 229.37 210.23 228.987C210.323 228.832 210.417 228.821 211.12 228.904C211.555 228.946 211.98 228.966 212.052 228.935C212.342 228.832 212.839 227.548 213.098 226.275C213.232 225.571 213.429 224.805 213.522 224.588C213.719 224.142 214.185 223.801 214.609 223.801C214.847 223.801 214.93 223.708 215.199 223.149C215.592 222.3 215.706 221.73 215.478 221.73C215.189 221.73 215.427 221.43 215.82 221.306C216.182 221.203 216.203 221.161 216.607 220.043C217.052 218.78 217.042 218.801 216.928 218.056L216.845 217.538L217.062 217.735C217.228 217.89 217.311 217.9 217.425 217.807C217.58 217.683 218.087 216.182 218.377 214.992L218.543 214.298L219.402 213.967L220.271 213.636L220.364 213.149C220.427 212.89 220.551 212.228 220.644 211.679L220.83 210.685L221.441 210.354L222.041 210.023V209.329C222.041 208.656 222.052 208.625 222.404 208.346C222.704 208.108 222.766 207.994 222.766 207.673C222.766 207.456 222.88 207.073 223.014 206.824C223.149 206.565 223.387 206.11 223.532 205.799C223.729 205.396 224.153 204.899 225.033 204.04C225.706 203.377 226.348 202.673 226.441 202.477C226.544 202.28 226.669 201.742 226.71 201.297C226.772 200.717 226.855 200.386 227 200.21C227.114 200.054 227.704 199.03 228.304 197.922L229.391 195.903V194.765V193.626L230.167 193.212C230.592 192.984 230.944 192.788 230.944 192.777C230.944 192.767 230.84 192.591 230.726 192.384C230.385 191.814 230.488 191.121 231.047 190.138C231.347 189.61 231.565 189.33 231.71 189.309C231.865 189.289 231.958 189.133 232.082 188.73C232.248 188.15 232.486 187.881 232.848 187.881C233.014 187.871 233.252 187.56 233.821 186.639C234.639 185.314 234.629 185.334 235.043 183.844C235.188 183.305 235.467 182.56 235.654 182.188C235.85 181.815 236.078 181.225 236.182 180.863C236.358 180.221 236.358 180.221 236.119 179.703C235.985 179.413 235.84 179.186 235.799 179.186C235.757 179.186 235.602 179.548 235.436 179.983C235.281 180.428 235.064 181.028 234.96 181.318C234.712 182.001 234.422 182.322 234.122 182.229C233.418 182.022 233.418 181.287 234.101 180.138C234.629 179.248 234.66 179.092 234.349 178.813C234.163 178.647 234.142 178.533 234.184 178.047C234.236 177.55 234.298 177.436 234.66 177.115C235.022 176.794 235.291 176.422 235.291 176.235C235.291 176.204 235.177 176.132 235.043 176.08L234.784 175.987L235.002 175.335C235.281 174.486 235.322 174.455 235.768 174.662C236.026 174.786 236.192 174.983 236.358 175.335C236.565 175.78 236.585 175.966 236.565 177.395C236.534 179.103 236.534 179.092 237.093 178.875C237.465 178.74 237.641 178.409 237.89 177.415C238.117 176.473 238.304 176.204 238.832 176.039C239.411 175.852 239.743 174.786 239.743 173.13C239.743 171.867 239.722 171.898 240.829 171.981C241.761 172.043 241.792 172.043 242.186 171.753C242.61 171.443 243.231 170.79 243.521 170.345C243.738 170.014 243.79 170.014 244.101 170.345ZM233.832 176.256C233.677 176.67 232.755 177.664 232.082 178.15C231.668 178.451 231.461 178.668 231.461 178.813C231.461 178.937 231.316 179.237 231.151 179.486C230.975 179.734 230.84 180.003 230.84 180.086C230.84 180.19 230.757 180.21 230.561 180.159C229.536 179.91 229.515 179.858 229.909 178.388C230.095 177.716 230.302 177.063 230.385 176.929C230.468 176.805 230.851 176.494 231.244 176.246C231.937 175.801 232.289 175.335 232.289 174.869C232.289 174.465 232.445 174.538 233.18 175.262C233.852 175.935 233.915 176.028 233.832 176.256ZM228.832 181.297C228.687 181.494 228.563 181.742 228.563 181.856C228.563 182.167 228.325 182.312 228.107 182.156C227.828 181.949 227.942 181.639 228.366 181.442C228.563 181.349 228.791 181.204 228.863 181.111C229.132 180.79 229.101 180.945 228.832 181.297ZM234.153 182.85C234.153 182.881 234.111 183.016 234.049 183.161C233.956 183.409 233.894 183.43 233.387 183.43C232.724 183.43 232.672 183.481 232.507 184.382C232.383 185.076 232.155 185.552 231.875 185.738C231.761 185.8 231.668 185.945 231.668 186.049C231.668 186.307 231.492 186.628 231.151 187.001C230.985 187.167 230.778 187.508 230.685 187.746C230.333 188.647 229.991 188.243 230.209 187.177C230.281 186.835 230.468 186.37 230.675 186.069C230.871 185.78 231.078 185.303 231.14 184.993C231.389 183.802 231.824 183.233 232.517 183.212C232.652 183.212 232.993 183.119 233.273 183.016C233.77 182.829 234.153 182.757 234.153 182.85ZM195.697 183.533C195.697 184.02 195.417 184.082 195.231 183.637C195.117 183.357 195.117 183.295 195.241 183.212C195.521 183.036 195.697 183.161 195.697 183.533ZM193.854 186.825C193.906 187.301 193.885 187.405 193.678 187.622C193.378 187.933 193.264 187.943 192.912 187.663C192.591 187.415 192.643 187.26 193.047 187.26C193.326 187.26 193.347 187.239 193.409 186.628C193.471 186.069 193.502 186.007 193.637 186.142C193.719 186.225 193.813 186.535 193.854 186.825ZM300.465 190.334C300.434 191.069 300.351 192.632 300.289 193.833C300.237 195.023 300.113 196.659 300.03 197.456C299.947 198.253 299.833 199.444 299.782 200.096C299.73 200.748 299.637 201.452 299.564 201.648C299.305 202.414 298.902 202.58 298.55 202.073C298.136 201.493 298.105 201.276 298.219 199.578C298.281 198.698 298.384 197.208 298.436 196.266C298.715 191.959 299.481 189.02 300.33 189.02C300.517 189.02 300.527 189.071 300.465 190.334ZM229.391 192.467C229.391 192.58 229.194 192.974 228.956 193.347C228.646 193.823 228.49 194.206 228.397 194.713C228.232 195.551 227.797 196.452 226.689 198.243C225.178 200.675 224.629 201.866 224.629 202.725C224.629 203.108 224.567 203.212 224.039 203.739C223.708 204.06 223.315 204.361 223.159 204.392C222.963 204.443 222.869 204.537 222.849 204.723C222.797 205.178 222.528 205.251 222.103 204.92C221.679 204.599 221.679 204.588 221.896 205.344C222.031 205.81 222.041 205.996 221.948 206.307C221.886 206.524 221.834 206.793 221.834 206.907C221.834 207.528 221.348 207.901 220.851 207.673C220.592 207.549 220.178 206.855 220.178 206.545C220.178 206.441 220.054 206.027 219.909 205.613L219.64 204.868L219.34 205.013C218.729 205.334 218.315 205.158 218.315 204.588C218.315 204.112 218.408 203.936 218.739 203.771C219.391 203.429 220.012 203.698 220.199 204.402C220.313 204.806 220.364 204.868 220.582 204.837C220.872 204.806 220.975 204.65 221.058 204.112C221.11 203.76 221.151 203.729 221.493 203.698C221.824 203.667 221.876 203.626 221.99 203.253C222.062 203.025 222.331 202.394 222.6 201.855C222.869 201.317 223.108 200.696 223.149 200.479C223.19 200.168 223.273 200.054 223.48 199.982C223.625 199.92 223.853 199.764 223.987 199.62C224.122 199.485 224.308 199.371 224.412 199.371C224.557 199.371 224.816 198.905 225.53 197.322C226.223 195.789 226.513 195.251 226.7 195.158C227.083 194.972 227.217 194.723 227.217 194.226C227.217 193.823 227.248 193.761 227.507 193.667C227.662 193.605 228.087 193.212 228.459 192.798C228.967 192.208 229.153 192.053 229.256 192.146C229.329 192.208 229.391 192.353 229.391 192.467ZM222.528 194.371C222.569 194.972 222.549 195.117 222.362 195.344C222.124 195.645 221.772 195.758 221.441 195.634C221.12 195.51 221.141 195.21 221.451 195.282C221.669 195.344 221.7 195.293 221.824 194.692C221.99 193.895 222.228 193.409 222.373 193.554C222.435 193.616 222.507 193.978 222.528 194.371ZM219.112 200.696C218.832 201.007 218.522 201.783 218.522 202.218C218.511 202.59 218.408 202.756 217.476 203.853C216.897 204.526 216.41 205.054 216.389 205.033C216.307 204.951 216.897 203.408 217.394 202.404C218.025 201.152 218.563 200.51 218.988 200.51C219.257 200.51 219.267 200.52 219.112 200.696ZM215.209 202.777C215.396 203.232 215.313 203.553 215.002 203.595C214.775 203.626 214.516 203.915 213.957 204.775C213.915 204.837 213.791 204.847 213.667 204.806C213.149 204.64 213.594 203.563 214.526 202.766C214.94 202.404 215.054 202.404 215.209 202.777ZM216.037 206.11C215.799 206.741 215.427 207.29 215.416 207.021C215.416 206.71 215.706 205.903 215.944 205.561C216.276 205.106 216.317 205.375 216.037 206.11ZM296.5 207.435C296.894 207.87 297.245 208.47 297.163 208.553C297.069 208.636 296.345 208.398 296.148 208.211C296.003 208.087 295.952 207.89 295.952 207.528C295.952 207.259 295.993 207.031 296.045 207.031C296.096 207.031 296.303 207.218 296.5 207.435ZM297.328 209.474L297.608 209.536V210.437C297.608 211.306 297.618 211.348 297.867 211.462C298.011 211.524 298.125 211.627 298.125 211.689C298.125 211.938 297.825 212.497 297.618 212.642C297.39 212.797 297.39 212.807 297.566 213.501C297.773 214.319 297.732 214.381 296.914 214.381C296.293 214.381 296.107 214.515 295.952 215.126L295.838 215.54L295.33 215.499C294.533 215.416 294.461 215.313 294.533 214.277C294.564 213.791 294.782 212.652 295.01 211.741C295.227 210.83 295.444 209.909 295.486 209.692L295.548 209.288L296.293 209.36C296.707 209.391 297.163 209.443 297.328 209.474ZM214.381 209.888C214.381 210.075 214.133 210.344 213.957 210.344C213.688 210.344 213.47 209.888 213.657 209.681C213.77 209.536 213.812 209.536 214.081 209.681C214.247 209.764 214.381 209.857 214.381 209.888ZM180.366 209.785C180.604 210.013 180.583 210.344 180.325 210.344C180.055 210.344 179.848 209.971 180.024 209.764C180.169 209.588 180.169 209.588 180.366 209.785ZM181.857 210.675C182.002 210.82 182.022 211.234 181.877 211.327C181.67 211.451 181.36 211.172 181.36 210.861C181.36 210.53 181.619 210.437 181.857 210.675ZM212.321 211.172C212.528 211.286 212.59 211.586 212.404 211.586C212.197 211.586 211.897 211.369 211.897 211.224C211.897 211.037 212.042 211.027 212.321 211.172ZM211.607 212.487C211.876 212.725 211.845 212.921 211.566 212.849C211.307 212.787 211.172 212.652 211.172 212.435C211.172 212.259 211.379 212.28 211.607 212.487ZM180.325 215.685C180.066 216.938 179.683 217.776 179.331 217.859C179.155 217.9 179.082 217.994 179.082 218.159C179.082 218.729 178.606 219.453 178.234 219.453C178.13 219.453 178.047 219.432 178.047 219.412C178.047 219.391 178.254 218.718 178.513 217.921C179.062 216.203 179.683 214.919 180.149 214.526C180.459 214.257 180.48 214.257 180.511 214.453C180.532 214.567 180.449 215.116 180.325 215.685ZM210.344 215.199C210.499 215.488 210.468 215.727 210.282 215.799C210.075 215.872 209.93 215.664 209.93 215.281C209.93 214.95 210.178 214.898 210.344 215.199ZM216.803 215.344C216.876 215.54 216.866 215.664 216.783 215.747C216.607 215.923 216.348 215.664 216.348 215.292C216.348 214.898 216.659 214.93 216.803 215.344ZM292.981 217.279C293.291 217.279 293.571 217.662 293.571 218.076C293.571 218.511 292.887 220.064 289.968 226.223L288.105 230.157L287.515 230.591C287.018 230.964 286.873 231.026 286.573 230.974C286.335 230.933 286.138 230.974 285.952 231.099C285.807 231.192 285.672 231.254 285.652 231.233C285.631 231.213 285.507 230.923 285.372 230.581C285.238 230.239 285.072 229.96 285.02 229.96C284.969 229.96 284.741 230.157 284.523 230.405L284.12 230.85L284.399 231.13L284.668 231.42L284.347 231.73C283.757 232.279 282.815 233.624 282.588 234.246L282.37 234.856L281.511 234.929C281.035 234.97 280.59 234.98 280.528 234.96C280.466 234.939 280.786 234.587 281.242 234.163C281.842 233.624 282.08 233.345 282.08 233.159C282.08 233.024 282.205 232.6 282.35 232.217C282.753 231.161 282.909 230.612 282.909 230.25C282.909 229.722 283.074 229.422 283.395 229.349C283.975 229.204 284.989 228.625 285.341 228.242C285.528 228.024 285.745 227.662 285.817 227.434C285.921 227.093 286.149 226.834 287.039 226.068C287.639 225.54 288.281 225.053 288.467 224.981C288.705 224.877 288.809 224.753 288.861 224.505C288.964 224.029 289.192 223.697 289.42 223.697C289.544 223.697 289.813 223.428 290.144 222.983L290.662 222.269L290.289 222.196C289.772 222.103 289.327 221.637 289.327 221.192C289.327 220.385 290.02 218.822 291.138 217.114L291.718 216.213L292.266 216.751C292.556 217.041 292.877 217.279 292.981 217.279ZM209.537 217.021C209.64 217.238 209.63 217.321 209.485 217.466C209.236 217.704 208.957 217.517 208.916 217.083C208.885 216.793 208.916 216.762 209.154 216.762C209.34 216.762 209.454 216.845 209.537 217.021ZM207.321 219.919C207.363 220.209 207.104 220.54 206.887 220.457C206.69 220.385 206.669 219.96 206.845 219.784C207.032 219.598 207.28 219.681 207.321 219.919ZM295.952 220.654C296.107 221.058 296.076 221.172 295.744 221.565C295.569 221.762 295.351 222.165 295.268 222.476C295.175 222.776 294.958 223.252 294.792 223.542C294.409 224.173 293.571 225.25 293.467 225.25C293.426 225.25 293.333 225.115 293.26 224.939C293.136 224.65 293.157 224.588 293.571 223.966C293.809 223.594 294.161 223.2 294.357 223.087C294.709 222.88 294.709 222.869 294.709 222.113C294.709 221.337 294.803 221.109 295.144 221.109C295.268 221.109 295.33 221.027 295.33 220.871C295.33 220.374 295.786 220.219 295.952 220.654ZM212.963 220.654C213.387 220.871 213.76 221.213 213.76 221.379C213.76 221.451 213.615 221.596 213.439 221.699C212.746 222.103 211.845 223.604 211.597 224.774C211.472 225.333 211.131 225.871 210.882 225.871C210.841 225.871 210.686 225.674 210.551 225.447C210.344 225.074 210.323 224.929 210.375 224.308C210.448 223.47 210.862 222.528 211.483 221.772C211.711 221.492 211.897 221.203 211.897 221.12C211.897 220.923 212.301 220.488 212.487 220.488C212.57 220.488 212.777 220.561 212.963 220.654ZM174.673 221.441C174.755 221.586 174.745 221.658 174.611 221.793C174.362 222.041 174.114 221.906 174.114 221.523C174.114 221.254 174.145 221.203 174.331 221.234C174.455 221.254 174.611 221.347 174.673 221.441ZM176.443 222.476C176.401 222.61 176.225 223.035 176.049 223.438C175.853 223.894 175.697 224.494 175.625 225.043C175.542 225.716 175.47 225.964 175.304 226.099C175.004 226.358 174.9 226.327 174.652 225.892L174.435 225.498L174.683 225.198C174.9 224.929 174.931 224.784 174.942 224.039C174.942 222.911 175.035 222.724 175.76 222.476C176.526 222.217 176.515 222.217 176.443 222.476ZM204.547 229.712C204.547 230.146 204.495 230.312 204.226 230.643C203.957 230.985 203.885 231.192 203.812 231.823L203.729 232.589L202.384 234.183C200.986 235.84 200.148 236.74 199.993 236.74C199.848 236.74 199.682 236.378 199.62 235.881L199.558 235.436L200.334 234.742C200.759 234.359 201.183 234.049 201.276 234.049C201.525 234.049 201.856 233.676 201.856 233.386C201.856 233.065 202.446 232.237 203.367 231.264C204.019 230.571 204.112 230.415 204.185 229.97C204.268 229.37 204.33 229.184 204.454 229.184C204.506 229.184 204.547 229.422 204.547 229.712ZM172.23 230.798C172.53 230.881 172.561 231.357 172.25 231.357C172.064 231.357 171.836 231.088 171.836 230.85C171.836 230.726 171.898 230.716 172.23 230.798ZM208.357 231.244C208.502 231.337 208.481 231.357 208.222 231.357C207.994 231.368 207.86 231.451 207.704 231.689C207.311 232.31 207.063 232.134 207.177 231.316L207.249 230.861L207.715 231.005C207.963 231.078 208.253 231.192 208.357 231.244ZM205.603 234.68L206.162 235.001L206.069 235.84C206.017 236.305 205.955 236.709 205.934 236.73C205.914 236.761 205.665 236.688 205.396 236.575C205.013 236.419 204.889 236.305 204.806 236.036C204.754 235.86 204.661 235.705 204.589 235.705C204.382 235.705 204.216 235.415 204.288 235.188C204.371 234.939 204.837 234.359 204.961 234.359C205.013 234.359 205.293 234.504 205.603 234.68ZM286.325 234.711C286.325 234.898 285.838 235.529 285.569 235.695C285.051 236.016 284.565 236.575 284.41 237.009C284.337 237.237 284.213 237.403 284.13 237.392C283.292 237.289 283.002 237.237 283.033 237.175C283.261 236.678 283.623 236.223 283.84 236.171C284.389 236.036 284.969 235.612 285.103 235.239C285.176 235.012 285.31 234.856 285.445 234.825C285.559 234.805 285.745 234.763 285.859 234.742C286.169 234.67 286.325 234.66 286.325 234.711ZM204.796 237.361C205.148 237.361 205.334 237.527 205.189 237.703C204.93 238.013 204.651 237.982 204.257 237.599L203.874 237.237L204.226 237.299C204.413 237.33 204.671 237.361 204.796 237.361ZM281.128 239.049C281.159 239.297 281.076 239.38 280.486 239.753C279.958 240.084 279.803 240.239 279.803 240.425C279.803 240.581 279.741 240.674 279.648 240.674C279.544 240.674 279.493 240.57 279.493 240.384C279.503 240.177 279.617 240.022 279.969 239.753C280.228 239.556 280.497 239.235 280.579 239.049C280.766 238.614 281.076 238.614 281.128 239.049ZM273.437 240.891C274.048 241.347 274.079 241.388 273.882 241.585C273.665 241.802 273.199 241.73 273.023 241.461C272.847 241.202 272.692 240.467 272.805 240.467C272.847 240.467 273.126 240.663 273.437 240.891ZM220.489 242.33C220.489 242.61 220.199 242.661 219.971 242.434C219.712 242.175 219.712 241.957 219.95 241.823C220.085 241.74 220.168 241.761 220.313 241.926C220.406 242.051 220.489 242.227 220.489 242.33ZM218.957 242.537C219.06 242.734 219.112 242.91 219.091 242.941C218.998 243.024 218.646 242.63 218.594 242.372C218.532 242.009 218.739 242.113 218.957 242.537ZM277.194 242.579C277.246 243.138 276.998 243.469 276.542 243.469C276.242 243.469 276.159 243.521 276.077 243.738C276.014 243.883 275.921 243.986 275.849 243.966C275.559 243.862 275.683 243.655 276.273 243.241C276.822 242.848 276.905 242.755 276.905 242.454C276.905 241.968 277.153 242.082 277.194 242.579ZM217.704 243.055C217.932 243.055 217.973 243.355 217.777 243.552C217.59 243.738 217.507 243.707 217.331 243.365C217.135 242.982 217.135 242.91 217.342 242.993C217.435 243.024 217.59 243.055 217.704 243.055ZM216.431 244.235C216.389 244.545 216.1 244.556 215.955 244.245C215.768 243.841 215.799 243.779 216.151 243.904C216.389 243.986 216.452 244.069 216.431 244.235ZM214.94 244.597C215.22 244.897 215.095 245.115 214.816 244.835C214.588 244.607 214.516 244.4 214.671 244.4C214.723 244.4 214.847 244.494 214.94 244.597ZM210.168 244.732L210.396 244.97L210.158 245.001C209.909 245.042 209.412 244.773 209.412 244.607C209.412 244.411 209.93 244.504 210.168 244.732ZM273.313 246.295C271.511 248.023 270.3 248.914 269.586 249.028C269.11 249.11 268.737 249.504 268.064 250.653C267.433 251.729 266.843 252.33 266.305 252.423C266.004 252.485 265.86 252.433 265.321 252.071C264.835 251.729 264.69 251.584 264.69 251.377C264.69 250.943 265.073 250.342 265.684 249.814C266.004 249.545 266.45 249.141 266.667 248.914C267.05 248.541 267.112 248.52 267.536 248.572C267.992 248.645 267.992 248.634 268.064 248.272C268.147 247.827 268.354 247.609 268.675 247.609C268.851 247.609 268.934 247.672 268.955 247.837C268.975 248.034 269.048 248.075 269.317 248.065C269.783 248.044 270.683 247.371 272.184 245.943C273.137 245.022 273.509 244.742 273.841 244.649L274.265 244.545L274.296 244.939C274.327 245.311 274.286 245.373 273.313 246.295ZM204.63 244.98L204.951 245.042L204.744 245.467C204.485 245.963 203.812 246.885 203.698 246.885C203.533 246.885 203.305 246.243 203.305 245.756C203.305 244.98 203.636 244.783 204.63 244.98ZM208.688 245.373C208.688 245.663 208.564 245.85 208.377 245.85C208.129 245.85 208.036 245.694 208.119 245.436C208.191 245.197 208.688 245.146 208.688 245.373ZM212.611 245.87C212.477 246.357 212.342 246.44 212.259 246.067C212.176 245.694 212.249 245.539 212.518 245.539C212.684 245.539 212.694 245.58 212.611 245.87ZM201.732 246.222C201.959 246.378 202.052 246.781 201.845 246.781C201.587 246.781 201.338 246.554 201.338 246.315C201.338 246.015 201.411 245.995 201.732 246.222ZM211.276 246.46C211.276 246.73 210.996 246.999 210.81 246.926C210.717 246.885 210.655 246.73 210.655 246.564C210.655 246.295 210.696 246.264 210.965 246.264C211.203 246.264 211.276 246.315 211.276 246.46ZM200.407 250.539C200.407 250.974 200.241 251.16 199.972 251.015C199.723 250.88 199.713 250.332 199.972 250.27C200.355 250.166 200.407 250.197 200.407 250.539ZM264.586 251.895C264.586 252.216 264.234 252.475 263.789 252.475C263.53 252.475 263.417 252.537 263.303 252.754C263.22 252.92 262.878 253.251 262.537 253.51C262.185 253.769 261.843 254.121 261.75 254.297C261.543 254.742 261.025 255.321 260.591 255.58C260.394 255.715 260.239 255.891 260.239 256.005C260.239 256.377 259.794 256.543 258.955 256.491C258.189 256.439 258.189 256.439 258.127 256.719C258.054 257.112 257.599 257.278 256.895 257.195C256.346 257.122 256.336 257.122 255.601 257.692L254.856 258.272V257.857C254.856 257.63 254.742 257.143 254.597 256.76C254.452 256.388 254.338 256.005 254.338 255.932C254.338 255.653 254.638 255.787 254.928 256.201C255.291 256.708 255.477 256.791 255.684 256.532C255.777 256.408 256.346 256.16 257.04 255.932C258.086 255.601 258.251 255.508 258.365 255.249C258.634 254.638 261.212 252.972 263.323 252.05C264.41 251.574 264.586 251.553 264.586 251.895ZM250.343 257.961C250.498 258.24 250.694 258.479 250.777 258.479C251.243 258.479 250.902 259.358 250.094 260.218L249.587 260.756L249.38 260.528C249.08 260.218 248.759 259.307 248.821 258.975C248.883 258.655 249.121 258.416 249.421 258.354C249.566 258.334 249.639 258.22 249.659 258.013C249.701 257.702 249.846 257.443 249.991 257.443C250.032 257.443 250.187 257.671 250.343 257.961ZM240.591 258.768C240.664 258.955 240.829 259.11 241.026 259.182L241.337 259.307L240.912 259.741C240.685 259.99 240.457 260.29 240.426 260.404C240.343 260.683 240.043 260.766 239.618 260.642C239.256 260.538 239.246 260.549 238.604 261.077C237.962 261.605 237.548 261.791 237.051 261.791C236.699 261.791 236.399 261.926 235.436 262.505C232.952 264.017 231.182 264.265 231.027 263.137C230.995 262.899 230.964 262.93 230.695 263.396C229.95 264.689 229.505 265 228.418 265C227.59 265 227.259 264.855 227.114 264.451C227.01 264.13 227.093 263.975 227.393 263.965C227.642 263.965 227.942 263.427 227.942 262.981V262.547L228.749 262.174C229.743 261.708 230.312 261.667 230.685 262.05C230.83 262.184 230.944 262.412 230.944 262.547C230.944 262.723 231.016 262.826 231.182 262.868C231.617 262.981 232.051 262.93 232.32 262.723C232.465 262.609 232.652 262.516 232.745 262.516C233.221 262.516 233.625 262.215 233.894 261.656C234.204 260.984 234.142 261.015 236.534 260.383C238.107 259.969 238.397 259.866 238.707 259.565C239.328 258.986 240.063 258.479 240.281 258.479C240.415 258.479 240.529 258.582 240.591 258.768ZM245.788 260.435C245.891 260.549 245.953 260.746 245.933 260.88C245.912 261.077 245.809 261.139 245.405 261.222C245.074 261.294 244.836 261.418 244.711 261.584C244.597 261.729 244.504 261.791 244.504 261.739C244.515 261.47 244.742 260.683 244.877 260.466C245.063 260.176 245.539 260.166 245.788 260.435ZM242.186 263.468C241.73 264.555 241.699 264.596 241.306 264.524C240.902 264.451 240.467 264.224 240.467 264.079C240.467 263.747 241.533 263.147 242.154 263.137C242.32 263.137 242.32 263.168 242.186 263.468ZM223.708 264.803C223.874 264.917 224.143 265.217 224.308 265.455L224.619 265.901L223.511 266.242C222.704 266.501 222.145 266.605 221.451 266.636L220.489 266.677V266.211V265.745L221.369 265.424C221.855 265.248 222.362 265.083 222.507 265.041C222.652 265.01 222.818 264.886 222.88 264.783C223.014 264.524 223.335 264.534 223.708 264.803ZM228.107 266.46C228.615 266.594 228.604 266.584 228.459 266.874C228.387 267.008 228.242 267.07 228.004 267.07C227.611 267.07 227.476 266.946 227.362 266.511C227.3 266.253 227.31 266.222 227.476 266.284C227.579 266.315 227.859 266.397 228.107 266.46ZM218.346 268.002L219.246 268.664V269.203C219.246 269.596 219.195 269.772 219.039 269.917C218.915 270.031 218.791 270.072 218.739 270.01C218.698 269.958 218.325 269.513 217.911 269.016L217.176 268.116L215.706 268.633C214.909 268.913 214.226 269.13 214.205 269.099C214.185 269.079 214.34 268.706 214.557 268.271L214.94 267.484H215.375C215.717 267.484 215.903 267.412 216.244 267.122L216.679 266.76L217.062 267.039C217.28 267.205 217.849 267.629 218.346 268.002ZM225.126 267.257C225.178 267.598 224.857 267.681 224.609 267.391C224.339 267.05 224.381 266.946 224.764 266.988C225.012 267.008 225.105 267.07 225.126 267.257ZM214.878 270.497L215.52 271.18L214.93 271.242C214.599 271.283 214.029 271.408 213.657 271.521C212.818 271.78 211.162 271.811 210.965 271.584C210.737 271.304 210.882 270.973 211.276 270.869C211.711 270.755 211.897 270.621 211.897 270.393C211.897 270.248 212.042 270.228 212.839 270.228C213.698 270.228 213.802 270.207 213.957 270C214.05 269.876 214.143 269.782 214.174 269.793C214.205 269.803 214.516 270.124 214.878 270.497ZM197.156 273.219C198.233 273.581 199.133 273.975 199.216 274.109C199.32 274.285 198.523 274.441 197.891 274.379C197.353 274.316 197.136 274.347 196.556 274.565C196.09 274.741 195.759 274.813 195.541 274.772C195.345 274.73 195.231 274.751 195.231 274.813C195.231 274.989 194.434 275.424 193.461 275.786L192.591 276.107L190.925 275.983C190.014 275.921 189.103 275.838 188.896 275.807L188.533 275.745L188.616 275.248C188.751 274.42 188.865 274.285 189.361 274.368C189.6 274.399 190.5 274.451 191.359 274.482C193.927 274.575 195.376 274.192 195.8 273.312C195.914 273.074 196.028 272.878 196.069 272.867C196.1 272.867 196.587 273.022 197.156 273.219ZM132.335 276.376C132.511 276.697 132.469 276.801 132.169 276.801C132.024 276.801 131.983 276.718 131.983 276.438C131.983 276.004 132.128 275.973 132.335 276.376ZM202.591 277.101C202.912 277.432 202.994 277.836 202.736 277.836C202.208 277.836 201.649 277.349 201.649 276.894C201.649 276.666 202.291 276.811 202.591 277.101ZM204.547 277.567C204.547 277.795 204.464 277.981 204.268 278.157C204.03 278.374 204.009 278.385 204.081 278.198C204.123 278.084 204.206 277.795 204.257 277.546C204.371 277.049 204.547 277.06 204.547 277.567ZM200.821 278.219C200.821 278.343 199.786 279.109 199.713 279.037C199.692 279.026 199.858 278.623 200.065 278.146L200.458 277.287L200.634 277.691C200.738 277.919 200.821 278.157 200.821 278.219ZM197.922 278.581C198.378 279.202 198.305 279.699 197.767 279.699C197.643 279.699 197.394 279.865 197.198 280.062C196.908 280.362 196.773 280.424 196.411 280.424C196.152 280.424 195.883 280.496 195.738 280.61C195.603 280.714 194.558 281.169 193.43 281.625C191.97 282.204 191.349 282.494 191.318 282.629C191.256 282.877 191.08 282.805 190.8 282.391C190.293 281.635 190.366 281.252 191.007 281.252C191.308 281.252 191.742 281.117 192.332 280.838C192.819 280.61 193.316 280.424 193.45 280.424C193.585 280.424 194.071 280.196 194.537 279.917C195.003 279.637 195.852 279.13 196.421 278.788C196.991 278.447 197.487 278.167 197.529 278.157C197.581 278.157 197.746 278.343 197.922 278.581ZM120.151 278.519C120.182 278.602 120.141 278.757 120.047 278.85C119.892 278.995 119.871 278.995 119.809 278.84C119.727 278.623 119.82 278.354 119.975 278.354C120.037 278.354 120.11 278.426 120.151 278.519ZM126.579 278.478C126.797 278.695 126.724 278.975 126.455 278.975C126.217 278.975 126.082 278.809 126.082 278.498C126.082 278.322 126.403 278.302 126.579 278.478ZM117.936 278.933C118.381 279.016 118.433 279.202 118.07 279.44C117.894 279.565 117.76 279.575 117.563 279.503C117.335 279.409 117.077 279.109 117.077 278.933C117.077 278.85 117.439 278.861 117.936 278.933ZM122.573 279.347C122.739 279.554 122.584 279.844 122.273 279.886C122.035 279.927 121.631 279.575 121.631 279.337C121.631 279.12 122.387 279.13 122.573 279.347ZM127.366 280.548C127.211 280.796 126.973 281.169 126.838 281.387C126.621 281.728 126.569 281.77 126.424 281.656C126.186 281.449 126.072 281.076 126.176 280.807C126.238 280.641 126.455 280.486 126.828 280.341C127.625 280.03 127.677 280.051 127.366 280.548ZM128.018 282.391C128.236 282.587 128.422 282.991 128.339 283.074C128.318 283.095 128.091 282.898 127.842 282.649C127.459 282.266 127.418 282.184 127.594 282.184C127.708 282.184 127.904 282.277 128.018 282.391ZM126.02 283.115L126.082 283.581L125.927 283.271C125.761 282.929 125.72 282.391 125.865 282.546C125.917 282.608 125.989 282.856 126.02 283.115ZM123.94 283.208C124.219 283.312 124.53 283.602 124.53 283.747C124.53 283.798 124.343 283.84 124.116 283.84C123.764 283.84 123.681 283.798 123.598 283.571C123.412 283.095 123.474 283.032 123.94 283.208ZM121.59 283.798L122.128 283.871L122.035 284.192C121.983 284.368 121.807 284.637 121.631 284.782L121.31 285.051L120.617 284.885C120.234 284.782 119.934 284.689 119.934 284.658C119.944 284.637 120.006 284.42 120.078 284.171C120.213 283.747 120.234 283.736 120.637 283.736C120.876 283.736 121.3 283.767 121.59 283.798ZM86.7464 293.477C86.4877 293.519 86.1461 293.591 85.9804 293.622C85.732 293.663 85.7009 293.653 85.8148 293.519C85.908 293.405 86.1253 293.363 86.5808 293.374L87.2123 293.384L86.7464 293.477ZM98.3195 296.407C98.2988 296.562 98.2263 296.614 98.0814 296.593C97.8019 296.541 97.8019 296.541 97.8847 296.096L97.9572 295.703L98.1539 295.951C98.2574 296.086 98.3402 296.293 98.3195 296.407Z" fill="#1582FF"/>
<path d="M224.474 272.66C223.915 272.898 223.428 273.105 223.407 273.126C223.314 273.219 223.625 273.788 223.904 274.058C224.163 274.306 224.267 274.337 224.619 274.285C225.55 274.161 226.803 273.271 226.803 272.733C226.803 272.391 226.72 272.35 226.047 272.287C225.592 272.246 225.354 272.298 224.474 272.66Z" fill="#1582FF"/>
<path d="M223.045 274.42C222.569 274.503 220.374 275.124 220.292 275.207C220.178 275.31 220.55 275.559 220.819 275.559C221.327 275.559 222.352 275.248 223.159 274.865C224.256 274.327 224.236 274.223 223.045 274.42Z" fill="#1582FF"/>
<path d="M97.5638 278.571C96.6322 278.778 96.2595 278.902 96.3009 279.016C96.4045 279.337 97.5535 279.109 97.9365 278.705C98.1849 278.436 98.1746 278.436 97.5638 278.571Z" fill="#1582FF"/>
<path d="M101.528 286.283C101.156 286.479 100.959 287.132 101.156 287.535C101.228 287.691 101.342 287.804 101.394 287.784C101.456 287.763 101.673 287.38 101.88 286.925C102.253 286.138 102.253 286.117 102.036 286.117C101.911 286.128 101.684 286.19 101.528 286.283Z" fill="#1582FF"/>
</svg>
