<svg xmlns="http://www.w3.org/2000/svg" enable-background="new 0 0 60.3 66.2" viewBox="0 0 60.3 66.2" id="devfolio"><g><g><path fill="#3770ff" d="M60.3,36.4C60.3,52,48.6,64.7,33.8,66c0,0-19.1,0.5-25.4-0.1c-2.4-0.3-4.4-1.8-5.3-4c0.9,0.4,1.8,0.7,2.8,0.8
			C8,62.9,11.5,63,16.4,63c7.2,0,15.1-0.2,15.1-0.2h0.1c7.9-0.7,15.2-4.3,20.4-10.2c4.5-5,7.4-11.3,8.2-17.9
			C60.3,35.2,60.3,35.8,60.3,36.4z"></path><path fill="#3770ff" d="M58,30c0,15.6-11.7,28.3-26.6,29.5c0,0-19.1,0.5-25.4-0.1c-3.4-0.3-5.9-3.5-6-7.1l0.1-45
			c0.1-3.6,2.7-6.8,6.1-7.1c6.3-0.5,25.4,0.1,25.4,0.1C46.4,1.6,58,14.4,58,30z"></path></g></g></svg>