<!DOCTYPE svg PUBLIC "-//W3C//DTD SVG 1.1//EN" "http://www.w3.org/Graphics/SVG/1.1/DTD/svg11.dtd">
<!-- Uploaded to: SVG Repo, www.svgrepo.com, Transformed by: SVG Repo Mixer Tools -->
<svg width="800px" height="800px" viewBox="0 0 24 24" fill="none" xmlns="http://www.w3.org/2000/svg">
<g id="SVGRepo_bgCarrier" stroke-width="0"/>
<g id="SVGRepo_tracerCarrier" stroke-linecap="round" stroke-linejoin="round"/>
<g id="SVGRepo_iconCarrier"> <path d="M2.99902 3L20.999 21M9.8433 9.91364C9.32066 10.4536 8.99902 11.1892 8.99902 12C8.99902 13.6569 10.3422 15 11.999 15C12.8215 15 13.5667 14.669 14.1086 14.133M6.49902 6.64715C4.59972 7.90034 3.15305 9.78394 2.45703 12C3.73128 16.0571 7.52159 19 11.9992 19C13.9881 19 15.8414 18.4194 17.3988 17.4184M10.999 5.04939C11.328 5.01673 11.6617 5 11.9992 5C16.4769 5 20.2672 7.94291 21.5414 12C21.2607 12.894 20.8577 13.7338 20.3522 14.5" stroke="#ffffff" stroke-width="2" stroke-linecap="round" stroke-linejoin="round"/> </g>
</svg>