<svg xmlns="http://www.w3.org/2000/svg" width="107" height="26" viewBox="0 0 107 26" fill="none">
  <path d="M5.70547 5.69548H4.83089V2.26493C4.83089 1.98429 4.84846 1.63969 4.88258 1.23318H4.8681C4.83215 1.40294 4.78378 1.56984 4.72337 1.73255L3.13754 5.69548H2.53071L0.940746 1.76247C0.881043 1.58969 0.834053 1.41279 0.800151 1.23318H0.785678C0.80532 1.44572 0.814624 1.79136 0.814624 2.27215V5.69548H0V0.394372H1.24054L2.63719 3.92501C2.71857 4.12278 2.78762 4.32539 2.84395 4.53167H2.86256C2.95353 4.25654 3.02762 4.05019 3.08482 3.91263L4.50731 0.396436H5.70444L5.70547 5.69548ZM7.08454 1.11556C6.95103 1.11805 6.82174 1.06887 6.72375 0.97834C6.67476 0.934831 6.63588 0.881179 6.60981 0.821126C6.58375 0.761073 6.57112 0.696067 6.57282 0.630642C6.57136 0.564797 6.58408 0.499405 6.61011 0.438887C6.63615 0.378369 6.6749 0.324135 6.72375 0.279849C6.82048 0.186861 6.95026 0.136017 7.08454 0.138499C7.22169 0.135463 7.35456 0.186212 7.45464 0.279849C7.50263 0.324005 7.54093 0.377605 7.56713 0.43727C7.59333 0.496936 7.60685 0.561372 7.60685 0.626515C7.60685 0.691658 7.59333 0.756095 7.56713 0.81576C7.54093 0.875426 7.50263 0.929026 7.45464 0.973181C7.40538 1.02006 7.34733 1.05678 7.28382 1.08121C7.22031 1.10564 7.15259 1.11732 7.08454 1.11556ZM7.51046 5.69548H6.65139V1.91001H7.51046V5.69548ZM11.1597 5.52215C10.8301 5.70373 10.4579 5.79419 10.0815 5.78421C9.51911 5.78421 9.06459 5.60882 8.71793 5.25802C8.37126 4.90723 8.19897 4.45189 8.20103 3.89199C8.20103 3.26744 8.38677 2.76636 8.75825 2.38874C9.12972 2.01112 9.62663 1.82196 10.249 1.82128C10.5639 1.81478 10.8764 1.87674 11.1649 2.00287V2.80144C10.9241 2.61188 10.627 2.50771 10.3203 2.50532C10.1538 2.49983 9.9881 2.52974 9.83411 2.59307C9.68011 2.6564 9.54138 2.75169 9.42711 2.87263C9.18779 3.13518 9.06252 3.48171 9.07872 3.83628C9.07872 4.22834 9.18795 4.53786 9.40643 4.76485C9.52113 4.87975 9.65867 4.9694 9.81019 5.02804C9.96171 5.08668 10.1239 5.11301 10.2862 5.10532C10.6073 5.10109 10.9168 4.98462 11.1608 4.7762L11.1597 5.52215ZM14.0223 2.72715C13.8909 2.6377 13.7333 2.59483 13.5747 2.6054C13.4482 2.60594 13.3239 2.63758 13.2126 2.6975C13.1014 2.75743 13.0067 2.8438 12.9368 2.94898C12.7673 3.17802 12.6815 3.48961 12.6815 3.88477V5.69548H11.8214V1.91001H12.6804V2.69001H12.6949C12.7638 2.45165 12.8981 2.23725 13.0826 2.07096C13.2428 1.9274 13.4503 1.84771 13.6656 1.84707C13.7883 1.83978 13.9109 1.8643 14.0213 1.91826L14.0223 2.72715ZM16.0557 5.78421C15.4706 5.78421 15.0034 5.60744 14.6539 5.2539C14.3045 4.90035 14.1298 4.43159 14.1298 3.84763C14.1298 3.21069 14.3117 2.71408 14.6756 2.35779C15.0395 2.00149 15.5306 1.82265 16.1488 1.82128C16.7415 1.82128 17.2033 1.99495 17.5341 2.34231C17.8649 2.68966 18.0303 3.17114 18.0303 3.78675C18.0303 4.39136 17.8518 4.87525 17.4948 5.23842C17.1378 5.6016 16.6578 5.78353 16.0547 5.78421H16.0557ZM16.0961 2.50532C15.9453 2.49875 15.795 2.52698 15.657 2.58782C15.5189 2.64867 15.3968 2.74048 15.3001 2.85612C15.105 3.09067 15.0075 3.4136 15.0075 3.82493C15.0075 4.22215 15.1057 4.53477 15.3042 4.76279C15.402 4.87545 15.5239 4.96467 15.661 5.0238C15.7981 5.08292 15.9468 5.11044 16.0961 5.10429C16.2434 5.11282 16.3908 5.08685 16.5263 5.02845C16.6618 4.97005 16.7817 4.88084 16.8766 4.76794C17.0575 4.54406 17.1485 4.22421 17.1485 3.81048C17.1485 3.39675 17.0575 3.07175 16.8766 2.8458C16.7824 2.73163 16.6625 2.64127 16.5267 2.58211C16.3909 2.52294 16.243 2.49663 16.095 2.50532H16.0961ZM18.4738 5.57786V4.78239C18.7775 5.02084 19.1532 5.14958 19.5396 5.14763C20.0586 5.14763 20.3181 4.99493 20.3181 4.68953C20.3204 4.61091 20.2968 4.5337 20.2509 4.46977C20.2024 4.40497 20.1416 4.35029 20.072 4.30882C19.9878 4.25755 19.8984 4.21536 19.8053 4.18294L19.4621 4.05707C19.3179 4.0005 19.1774 3.93503 19.0413 3.86104C18.9268 3.79886 18.8223 3.71992 18.7312 3.62683C18.6496 3.54082 18.586 3.43946 18.5441 3.32866C18.5004 3.20406 18.4794 3.07269 18.482 2.94072C18.4783 2.77079 18.5231 2.60329 18.6113 2.45786C18.7 2.31668 18.819 2.19687 18.9597 2.10707C19.1121 2.00885 19.2798 1.93635 19.4559 1.89247C19.6432 1.84386 19.8361 1.81958 20.0296 1.82025C20.3507 1.81488 20.67 1.86874 20.9714 1.97913V2.72921C20.7004 2.54609 20.3796 2.45063 20.0524 2.4558C19.9531 2.4547 19.8541 2.46614 19.7577 2.48985C19.6785 2.50819 19.6027 2.5392 19.5334 2.58167C19.4753 2.61764 19.4262 2.66633 19.3897 2.72405C19.3549 2.7786 19.3366 2.84201 19.337 2.90667C19.3349 2.97902 19.3531 3.05052 19.3897 3.11302C19.4283 3.17416 19.4807 3.22541 19.5427 3.26263C19.6202 3.31029 19.7023 3.35004 19.7877 3.38128C19.8828 3.41739 19.9945 3.45556 20.1154 3.49786C20.2654 3.55899 20.412 3.62787 20.5548 3.70421C20.6754 3.76705 20.7867 3.84621 20.8856 3.93945C20.9763 4.02464 21.0484 4.12754 21.0975 4.24175C21.1497 4.37295 21.1747 4.51335 21.1709 4.65445C21.1751 4.8315 21.1289 5.00609 21.0376 5.15794C20.9477 5.3018 20.8261 5.4232 20.6819 5.51286C20.5224 5.60988 20.3477 5.67962 20.1651 5.71921C19.964 5.7654 19.7583 5.78825 19.552 5.78731C19.1828 5.79497 18.8161 5.72355 18.4769 5.57786H18.4738ZM23.4742 5.78421C22.8891 5.78421 22.4218 5.60744 22.0724 5.2539C21.723 4.90035 21.5483 4.43159 21.5483 3.84763C21.5483 3.21069 21.7302 2.71408 22.0941 2.35779C22.458 2.00149 22.949 1.82265 23.5672 1.82128C24.1593 1.82128 24.621 1.99495 24.9525 2.34231C25.284 2.68966 25.4494 3.17114 25.4487 3.78675C25.4487 4.39136 25.2702 4.87525 24.9132 5.23842C24.5562 5.6016 24.0776 5.78353 23.4773 5.78421H23.4742ZM23.5145 2.50532C23.3637 2.49875 23.2135 2.52698 23.0754 2.58782C22.9374 2.64867 22.8152 2.74048 22.7185 2.85612C22.5248 3.09067 22.428 3.4136 22.428 3.82493C22.428 4.22181 22.5266 4.53443 22.7237 4.76279C22.8217 4.87542 22.9439 4.9646 23.0811 5.02371C23.2184 5.08283 23.3672 5.11037 23.5166 5.10429C23.664 5.11282 23.8113 5.08685 23.9468 5.02845C24.0823 4.97005 24.2023 4.88084 24.2971 4.76794C24.478 4.54406 24.569 4.22421 24.569 3.81048C24.569 3.39675 24.478 3.07175 24.2971 2.8458C24.2031 2.73192 24.0836 2.64174 23.9481 2.58259C23.8127 2.52343 23.6652 2.49696 23.5176 2.50532H23.5145ZM28.1521 0.789531C28.0316 0.720838 27.8949 0.685239 27.7562 0.686356C27.3385 0.686356 27.1297 0.921939 27.1297 1.3931V1.90898H28.0105V2.58167H27.1328V5.69445H26.2727V2.58271H25.6328V1.91001H26.2809V1.29096C26.2723 1.11439 26.303 0.938108 26.371 0.774847C26.4389 0.611586 26.5423 0.465421 26.6738 0.346912C26.8809 0.184994 27.1241 0.075393 27.3827 0.0274309C27.6414 -0.0205313 27.9078 -0.0054347 28.1593 0.0714363L28.1521 0.789531ZM30.6838 5.65525C30.4755 5.74722 30.2488 5.79028 30.0212 5.78112C29.2851 5.78112 28.9171 5.42861 28.9171 4.72358V2.58271H28.2834V1.91001H28.9171V1.03406L29.7762 0.789531V1.91001H30.6838V2.58271H29.7762V4.47596C29.7762 4.69985 29.8175 4.8608 29.8982 4.95675C29.9515 5.0091 30.0157 5.04909 30.0863 5.07388C30.1569 5.09866 30.2321 5.10764 30.3065 5.10017C30.443 5.10334 30.5763 5.05923 30.6838 4.97533V5.65525ZM35.2759 0.789531C35.1554 0.720838 35.0188 0.685239 34.88 0.686356C34.4623 0.686356 34.2535 0.921939 34.2535 1.3931V1.90898H35.1436V2.58167H34.2659V5.69445H33.4058V2.58271H32.7576V1.91001H33.4058V1.29096C33.3972 1.11439 33.4279 0.938108 33.4958 0.774847C33.5638 0.611586 33.6672 0.465421 33.7986 0.346912C34.0057 0.184994 34.2489 0.075393 34.5076 0.0274309C34.7662 -0.0205313 35.0326 -0.0054347 35.2842 0.0714363L35.2759 0.789531ZM37.2401 5.78421C36.655 5.78421 36.1877 5.60744 35.8383 5.2539C35.4889 4.90035 35.3142 4.43159 35.3142 3.84763C35.3142 3.21069 35.4961 2.71408 35.86 2.35779C36.2239 2.00149 36.715 1.82265 37.3332 1.82128C37.9259 1.82128 38.3876 1.99495 38.7184 2.34231C39.0492 2.68966 39.2147 3.17114 39.2147 3.78675C39.2147 4.39136 39.0362 4.87525 38.6791 5.23842C38.3222 5.6016 37.8432 5.78353 37.2422 5.78421H37.2401ZM37.2804 2.50532C37.1297 2.49875 36.9794 2.52698 36.8413 2.58782C36.7033 2.64867 36.5811 2.74048 36.4844 2.85612C36.2894 3.09067 36.1919 3.4136 36.1919 3.82493C36.1919 4.22181 36.2904 4.53443 36.4875 4.76279C36.5856 4.87542 36.7077 4.9646 36.845 5.02371C36.9822 5.08283 37.1311 5.11037 37.2804 5.10429C37.4278 5.11282 37.5751 5.08685 37.7106 5.02845C37.8462 4.97005 37.9661 4.88084 38.0609 4.76794C38.2419 4.54406 38.3328 4.22421 38.3328 3.81048C38.3328 3.39675 38.2419 3.07175 38.0609 2.8458C37.9671 2.73206 37.8477 2.64197 37.7124 2.58283C37.5772 2.52368 37.4299 2.49713 37.2825 2.50532H37.2804ZM42.0617 2.72715C41.9304 2.6377 41.7727 2.59483 41.6141 2.6054C41.4876 2.60594 41.3633 2.63758 41.2521 2.6975C41.1408 2.75743 41.0461 2.8438 40.9762 2.94898C40.8094 3.17665 40.726 3.48858 40.726 3.88477V5.69548H39.8659V1.91001H40.726V2.69001H40.7405C40.8091 2.45149 40.9434 2.237 41.1282 2.07096C41.2873 1.92757 41.4937 1.84753 41.7081 1.84604C41.8308 1.83889 41.9533 1.8634 42.0638 1.91723L42.0617 2.72715ZM44.2275 5.48501V4.57913C44.3157 4.6575 44.4133 4.72472 44.518 4.77929C44.6329 4.83892 44.7525 4.88896 44.8757 4.9289C44.9995 4.9689 45.1259 5.00027 45.254 5.02278C45.3689 5.04411 45.4855 5.05516 45.6024 5.0558C45.9725 5.0558 46.2485 4.99493 46.4295 4.87112C46.5177 4.81327 46.5893 4.73344 46.6371 4.63954C46.685 4.54563 46.7075 4.44088 46.7024 4.33564C46.7068 4.22213 46.6777 4.10982 46.6186 4.01271C46.5511 3.91286 46.4651 3.82673 46.3654 3.7589C46.2437 3.67539 46.1154 3.6019 45.9818 3.53913C45.835 3.46898 45.6769 3.39572 45.5094 3.31937C45.3285 3.22342 45.161 3.1254 45.0049 3.02739C44.8572 2.93449 44.7212 2.82435 44.5996 2.69929C44.4859 2.5817 44.3942 2.44472 44.3288 2.29485C44.2603 2.1273 44.2269 1.94752 44.2306 1.76659C44.2252 1.53885 44.2836 1.31412 44.3991 1.11763C44.5111 0.934517 44.663 0.778987 44.8436 0.662626C45.0366 0.539191 45.2491 0.449194 45.4722 0.396436C45.7073 0.338627 45.9485 0.309526 46.1906 0.309769C46.7468 0.309769 47.1517 0.372706 47.4053 0.498579V1.36731C47.1042 1.14995 46.7165 1.04128 46.2423 1.04128C46.1112 1.04136 45.9804 1.0538 45.8516 1.07842C45.7297 1.10047 45.6122 1.14156 45.5032 1.20017C45.4049 1.25367 45.3197 1.3284 45.254 1.4189C45.1875 1.51281 45.1533 1.62581 45.1569 1.7408C45.1537 1.84874 45.1794 1.95558 45.2313 2.05032C45.2866 2.14313 45.3605 2.22356 45.4484 2.2866C45.5578 2.36607 45.6745 2.43515 45.7968 2.49294C45.9332 2.56001 46.0924 2.63326 46.2723 2.71271C46.457 2.80831 46.6317 2.90943 46.7964 3.01604C46.9537 3.1162 47.099 3.23389 47.2296 3.36683C47.3516 3.49179 47.4518 3.63615 47.5263 3.79398C47.6014 3.96202 47.6388 4.14443 47.6359 4.32842C47.6434 4.56557 47.587 4.80039 47.4725 5.00834C47.3644 5.19139 47.2133 5.34543 47.0322 5.45715C46.8372 5.57806 46.6223 5.66331 46.3974 5.7089C46.1476 5.76151 45.8929 5.78745 45.6376 5.78628C45.5281 5.78525 45.4187 5.77871 45.3099 5.76667C45.1806 5.75326 45.0473 5.73263 44.9118 5.70683C44.7817 5.6827 44.6529 5.65136 44.5263 5.61294C44.4221 5.58376 44.3223 5.54073 44.2296 5.48501H44.2275ZM50.0984 5.65525C49.89 5.74722 49.6633 5.79028 49.4357 5.78112C48.6996 5.78112 48.3316 5.42861 48.3316 4.72358V2.58271H47.6979V1.91001H48.3316V1.03406L49.1907 0.789531V1.91001H50.0984V2.58271H49.1928V4.47596C49.1928 4.69985 49.2341 4.8608 49.3148 4.95675C49.3681 5.0091 49.4323 5.04909 49.5029 5.07388C49.5735 5.09866 49.6487 5.10764 49.7231 5.10017C49.8596 5.10334 49.9929 5.05923 50.1004 4.97533L50.0984 5.65525ZM53.6298 5.69548H52.7955V5.10429H52.781C52.6729 5.31474 52.5072 5.49031 52.3032 5.61064C52.0992 5.73098 51.8652 5.79116 51.6284 5.78421C51.2562 5.78421 50.9636 5.68104 50.7528 5.48191C50.6466 5.37767 50.5635 5.25238 50.5088 5.11413C50.4542 4.97587 50.4291 4.82772 50.4354 4.67921C50.4354 3.96387 50.8489 3.54739 51.6759 3.42977L52.8027 3.27088C52.8027 2.73025 52.5457 2.46027 52.0315 2.46096C51.5807 2.46043 51.1455 2.62615 50.8096 2.92628V2.1762C51.2304 1.93433 51.7094 1.81162 52.1949 1.82128C53.1535 1.82128 53.6329 2.2921 53.6329 3.23374L53.6298 5.69548ZM52.8027 3.83834L52.0057 3.94874C51.8086 3.96502 51.6179 4.02645 51.4485 4.12826C51.3231 4.2163 51.2607 4.36969 51.2614 4.58842C51.2592 4.66276 51.2735 4.73666 51.3034 4.80481C51.3333 4.87296 51.3779 4.93366 51.434 4.98255C51.5628 5.08996 51.7275 5.14487 51.8951 5.13628C52.0169 5.13945 52.138 5.1165 52.2502 5.06898C52.3623 5.02146 52.463 4.95047 52.5453 4.8608C52.7188 4.67227 52.8113 4.42331 52.8027 4.16747V3.83834ZM56.4758 2.72921C56.3444 2.63976 56.1868 2.59689 56.0282 2.60747C55.9017 2.60801 55.7774 2.63964 55.6661 2.69957C55.5549 2.75949 55.4602 2.84586 55.3903 2.95104C55.2208 3.18009 55.135 3.49167 55.135 3.88683V5.69755H54.2759V1.91001H55.135V2.69001H55.1494C55.2184 2.45165 55.3527 2.23725 55.5371 2.07096C55.6968 1.9271 55.904 1.84702 56.1191 1.84604C56.2418 1.83889 56.3643 1.8634 56.4748 1.91723L56.4758 2.72921ZM59.1481 5.65731C58.9398 5.74928 58.7131 5.79234 58.4855 5.78318C57.7494 5.78318 57.3814 5.43067 57.3814 4.72564V2.58271H56.7497V1.91001H57.3835V1.03406L58.2436 0.789531V1.91001H59.1502V2.58271H58.2436V4.47596C58.2436 4.69985 58.2839 4.8608 58.3656 4.95675C58.4187 5.00908 58.4828 5.04907 58.5532 5.07385C58.6236 5.09864 58.6986 5.10763 58.7729 5.10017C58.9094 5.10351 59.0428 5.05938 59.1502 4.97533L59.1481 5.65731ZM63.0765 5.69755H62.2175V5.09913H62.2019C62.0954 5.31363 61.9288 5.49269 61.7224 5.61465C61.516 5.73661 61.2786 5.79622 61.0389 5.78628C60.143 5.78628 59.695 5.24908 59.695 4.17469V1.91001H60.5551V4.0839C60.5551 4.76347 60.818 5.10361 61.3439 5.10429C61.4629 5.10723 61.581 5.08355 61.6895 5.03499C61.7981 4.98642 61.8944 4.91422 61.9714 4.82366C62.1424 4.61754 62.2304 4.35534 62.2185 4.08802V1.91001H63.0776L63.0765 5.69755ZM64.6272 5.13937H64.6065V7.43914H63.7475V1.91001H64.6065V2.57548H64.622C64.9156 2.07268 65.3453 1.82128 65.9112 1.82128C66.3936 1.82128 66.7689 1.99014 67.037 2.32786C67.3051 2.66559 67.4398 3.11921 67.4412 3.68874C67.4412 4.31879 67.2892 4.824 66.9853 5.20437C66.838 5.39006 66.6489 5.53842 66.4333 5.63738C66.2178 5.73635 65.9818 5.78312 65.7447 5.7739C65.5176 5.7803 65.2931 5.72431 65.0956 5.61206C64.8982 5.4998 64.7354 5.33557 64.6251 5.13731L64.6272 5.13937ZM64.6065 3.64437V4.11588C64.6003 4.37545 64.6952 4.62732 64.8712 4.8185C64.9645 4.91698 65.0782 4.99389 65.2045 5.04382C65.3307 5.09375 65.4664 5.1155 65.6019 5.10753C65.7375 5.09957 65.8697 5.06209 65.9892 4.99772C66.1087 4.93335 66.2126 4.84365 66.2937 4.73493C66.4756 4.48731 66.5666 4.14339 66.5666 3.70318C66.5666 3.33072 66.4818 3.03977 66.3123 2.82826C66.2309 2.72536 66.1263 2.64313 66.007 2.58826C65.8877 2.53339 65.7571 2.50745 65.6258 2.51255C65.4861 2.5078 65.3471 2.53455 65.2191 2.59082C65.0911 2.64709 64.9775 2.73142 64.8867 2.83755C64.6975 3.0632 64.5978 3.35027 64.6065 3.64437ZM67.865 5.57786V4.78239C68.1672 5.01923 68.5404 5.14786 68.9247 5.14763C69.4416 5.14763 69.7021 4.99493 69.7021 4.68953C69.7048 4.61102 69.6815 4.53379 69.6359 4.46977C69.5871 4.40487 69.526 4.35018 69.456 4.30882C69.3718 4.25755 69.2824 4.21536 69.1893 4.18294L68.8451 4.0581C68.7008 4.00174 68.5602 3.93626 68.4243 3.86207C68.3096 3.80016 68.205 3.72119 68.1142 3.62787C68.0326 3.54185 67.969 3.44049 67.9271 3.32969C67.8825 3.20529 67.8612 3.07382 67.864 2.94175C67.8607 2.77188 67.9055 2.60453 67.9932 2.4589C68.0819 2.31771 68.2009 2.1979 68.3416 2.1081C68.4941 2.00988 68.6617 1.93738 68.8378 1.8935C69.0255 1.84495 69.2187 1.82067 69.4126 1.82128C69.7333 1.81592 70.0523 1.86979 70.3534 1.98017V2.73025C70.0825 2.547 69.7615 2.45153 69.4343 2.45683C69.3354 2.45566 69.2367 2.4671 69.1407 2.49088C69.0614 2.50903 68.9856 2.54005 68.9164 2.58271C68.8578 2.61838 68.8082 2.66711 68.7717 2.72509C68.7376 2.77993 68.7197 2.8432 68.72 2.90771C68.718 2.9799 68.7359 3.05126 68.7717 3.11405C68.8103 3.17546 68.8631 3.22676 68.9257 3.26366C69.0027 3.31153 69.0844 3.3513 69.1697 3.38231C69.2648 3.41842 69.3764 3.4566 69.4974 3.4989C69.6474 3.55982 69.7941 3.6287 69.9367 3.70525C70.0575 3.76834 70.1691 3.84748 70.2686 3.94048C70.3571 4.02638 70.4275 4.12919 70.4753 4.24278C70.5284 4.37376 70.5537 4.51427 70.5498 4.65548C70.554 4.83253 70.5077 5.00712 70.4164 5.15898C70.3263 5.3026 70.2047 5.42395 70.0608 5.5139C69.9012 5.61081 69.7265 5.68054 69.5439 5.72025C69.3429 5.76649 69.1372 5.78934 68.9309 5.78834C68.5633 5.79494 68.1985 5.72318 67.8609 5.57786H67.865Z" fill="white"/>
  <path d="M7.39675 15.0705H2.88013V18.2029H7.02665V20.5346H2.88013V25.4921H0V12.7294H7.39675V15.0705ZM12.6267 25.715C11.1049 25.715 9.9085 25.2892 9.03736 24.4377C8.16623 23.5862 7.73066 22.4306 7.73066 20.971C7.73066 19.4633 8.18243 18.284 9.08596 17.4332C9.98949 16.5823 11.21 16.1572 12.7476 16.1579C14.2639 16.1579 15.4527 16.5837 16.3142 17.4352C17.1757 18.2868 17.6068 19.4128 17.6075 20.8132C17.6075 22.3264 17.1629 23.5219 16.2739 24.3995C15.3848 25.2772 14.1677 25.7157 12.6225 25.715H12.6267ZM12.698 18.3102C12.0323 18.3102 11.5154 18.5385 11.1473 18.9952C10.7793 19.452 10.5949 20.0985 10.5942 20.9349C10.5942 22.6854 11.3017 23.5607 12.7166 23.5607C14.0667 23.5607 14.7415 22.6617 14.7408 20.8637C14.738 19.1613 14.0557 18.3102 12.6939 18.3102H12.698ZM27.1307 25.4921H24.3219V24.1024H24.2775C23.5814 25.1768 22.651 25.714 21.4862 25.714C19.369 25.714 18.3108 24.4353 18.3115 21.8779V16.3787H21.1203V21.6262C21.1203 22.9138 21.6316 23.5576 22.6544 23.5576C22.8834 23.5664 23.1115 23.5233 23.3215 23.4316C23.5315 23.34 23.718 23.2021 23.867 23.0283C24.1703 22.6755 24.3219 22.1964 24.3219 21.5911V16.3787H27.1307V25.4921ZM36.8607 25.4921H34.0478V20.4283C34.0478 19.0162 33.5426 18.3102 32.5322 18.3102C32.3019 18.3053 32.0736 18.3533 31.8648 18.4505C31.656 18.5476 31.4723 18.6913 31.3279 18.8704C31.0122 19.2439 30.8548 19.7185 30.8554 20.2942V25.4921H28.0373V16.3787H30.8554V17.8232H30.8906C31.5619 16.713 32.5398 16.1579 33.8245 16.1579C35.8466 16.1579 36.8573 17.4098 36.8566 19.9135L36.8607 25.4921ZM47.0414 25.4921H44.2202V24.2375H44.1841C43.5424 25.2218 42.6003 25.7143 41.3577 25.715C40.215 25.715 39.2963 25.313 38.6016 24.5089C37.9069 23.7048 37.5592 22.5819 37.5585 21.1402C37.5585 19.6332 37.9417 18.4257 38.7081 17.5178C39.4745 16.6098 40.4779 16.1566 41.7185 16.1579C42.8963 16.1579 43.7168 16.5792 44.1799 17.4218H44.2161V12H47.0332L47.0414 25.4921ZM44.2771 21.0556V20.3706C44.2959 19.8309 44.1115 19.3038 43.7602 18.8931C43.5781 18.6961 43.3548 18.5416 43.1061 18.4405C42.8575 18.3394 42.5895 18.2943 42.3214 18.3082C42.0532 18.3222 41.7914 18.395 41.5546 18.5214C41.3179 18.6478 41.1119 18.8247 40.9514 19.0396C40.5999 19.53 40.4245 20.202 40.4252 21.0556C40.4252 21.8576 40.5944 22.4746 40.9328 22.9066C41.2712 23.3385 41.7409 23.5552 42.3419 23.5566C42.6124 23.5619 42.8803 23.5025 43.1231 23.3833C43.3659 23.2641 43.5766 23.0886 43.7375 22.8715C44.0945 22.4175 44.273 21.8136 44.273 21.0598L44.2771 21.0556ZM56.4892 21.7325H50.5325C50.6277 23.0552 51.463 23.7165 53.0384 23.7165C54.0433 23.7165 54.9261 23.4792 55.687 23.0046V25.034C54.8428 25.4853 53.7459 25.7109 52.3965 25.7109C50.9223 25.7109 49.7779 25.303 48.9633 24.4872C48.1486 23.6715 47.7413 22.5334 47.7413 21.0732C47.7413 19.5599 48.1814 18.3614 49.0615 17.4775C49.9416 16.5937 51.0236 16.1517 52.3076 16.1517C53.6391 16.1517 54.6691 16.5462 55.3975 17.3352C56.126 18.1241 56.4899 19.1954 56.4892 20.549V21.7325ZM53.8768 20.0053C53.8768 18.6984 53.3479 18.045 52.29 18.045C52.065 18.0456 51.843 18.0962 51.64 18.1931C51.4371 18.29 51.2583 18.4308 51.1166 18.6052C50.7781 18.9988 50.5682 19.4863 50.515 20.0022L53.8768 20.0053ZM63.2585 18.9106C62.8928 18.7206 62.4849 18.6258 62.0727 18.6352C61.46 18.6352 60.9814 18.859 60.6368 19.3068C60.2922 19.7546 60.1199 20.3644 60.1199 21.1361V25.488H57.2976V16.3787H60.1199V18.0698H60.155C60.6016 16.8358 61.4042 16.2188 62.5627 16.2188C62.7992 16.2076 63.0355 16.2427 63.2585 16.322V18.9106ZM63.9025 25.2476V22.9736C64.3368 23.2372 64.8026 23.4451 65.2888 23.5927C65.7122 23.7238 66.1523 23.7933 66.5955 23.799C67.0952 23.799 67.4891 23.7303 67.7771 23.5927C68.0652 23.4551 68.2096 23.2488 68.2103 22.9736C68.212 22.8897 68.1952 22.8065 68.1613 22.7297C68.1274 22.6528 68.0771 22.5844 68.0139 22.529C67.8638 22.399 67.6934 22.2944 67.5094 22.2194C67.2905 22.1249 67.0657 22.0446 66.8364 21.979C66.5924 21.9103 66.3578 21.8301 66.1324 21.7387C65.8017 21.6169 65.4809 21.4696 65.173 21.2981C64.9132 21.1539 64.6783 20.9689 64.4773 20.7502C64.2886 20.5398 64.1432 20.2944 64.0493 20.028C63.9455 19.7151 63.8959 19.3867 63.9025 19.0571C63.8898 18.5958 64.0058 18.14 64.2375 17.7406C64.4589 17.3735 64.7643 17.0638 65.1286 16.8368C65.5213 16.5938 65.9528 16.4193 66.4043 16.321C66.8943 16.2094 67.3955 16.154 67.8981 16.1559C68.31 16.1563 68.7212 16.1877 69.1283 16.2498C69.5442 16.3119 69.9552 16.4025 70.3585 16.5211V18.6878C70.0007 18.4788 69.6151 18.3215 69.2131 18.2204C68.8215 18.1184 68.4186 18.0661 68.0139 18.0646C67.8404 18.0642 67.6673 18.0804 67.497 18.1131C67.3473 18.1414 67.202 18.1893 67.0649 18.2555C66.9487 18.3108 66.8476 18.3932 66.7702 18.4959C66.7006 18.5933 66.6643 18.7105 66.6669 18.8302C66.6641 18.9878 66.7218 19.1406 66.8281 19.2573C66.9451 19.3856 67.0854 19.4907 67.2417 19.5668C67.427 19.6587 67.6192 19.7363 67.8164 19.799C68.0284 19.8671 68.2372 19.9362 68.446 20.0053C68.7938 20.1251 69.1333 20.2678 69.4622 20.4325C69.7477 20.5746 70.0107 20.7578 70.2427 20.9762C70.4585 21.1818 70.6286 21.4303 70.7421 21.7056C70.882 22.0926 70.9384 22.5046 70.9076 22.9148C70.8767 23.325 70.7594 23.7241 70.5632 24.0859C70.3315 24.4665 70.0126 24.7868 69.6328 25.0206C69.2182 25.2711 68.7636 25.4487 68.2889 25.5458C67.7687 25.6567 67.2381 25.7121 66.7061 25.7109C65.7505 25.7231 64.8001 25.5677 63.8984 25.2517L63.9025 25.2476ZM86.0493 25.488H83.1547V20.2942H77.8576V25.4921H74.9775V12.7294H77.8576V17.8201H83.1547V12.7294H86.0493V25.488ZM95.7793 25.488H92.9705V24.1024H92.9261C92.23 25.1768 91.2996 25.714 90.1349 25.714C88.0177 25.714 86.9594 24.4353 86.9601 21.8779V16.3787H89.7689V21.6262C89.7689 22.9138 90.2803 23.5576 91.303 23.5576C91.5321 23.5664 91.7601 23.5233 91.9701 23.4316C92.1801 23.34 92.3666 23.2021 92.5157 23.0283C92.8182 22.6755 92.9699 22.1964 92.9705 21.5911V16.3787H95.7793V25.488ZM99.5434 24.4284H99.5072V25.488H96.6891V12H99.5072V17.7489H99.5423C100.236 16.6883 101.224 16.1579 102.505 16.1579C103.683 16.1579 104.59 16.5613 105.225 17.3682C105.86 18.175 106.179 19.2786 106.179 20.679C106.179 22.1985 105.808 23.418 105.065 24.3376C104.322 25.2572 103.331 25.7164 102.092 25.715C100.968 25.715 100.117 25.2875 99.5392 24.4325L99.5434 24.4284ZM99.4638 20.5841V21.523C99.4638 22.1097 99.633 22.596 99.9714 22.9819C100.131 23.1692 100.332 23.3184 100.557 23.4186C100.782 23.5187 101.027 23.5673 101.274 23.5607C101.916 23.5607 102.414 23.3131 102.768 22.8179C103.121 22.3226 103.298 21.621 103.298 20.7131C103.298 19.9565 103.136 19.3677 102.812 18.9467C102.488 18.5258 102.026 18.3136 101.426 18.3102C101.159 18.3045 100.895 18.3582 100.652 18.4674C100.409 18.5767 100.193 18.7387 100.021 18.9416C99.6467 19.3639 99.4596 19.9128 99.4596 20.5883L99.4638 20.5841Z" fill="#D59DFF"/>
</svg>