<svg xmlns="http://www.w3.org/2000/svg" width="68" height="68" viewBox="0 0 68 68" fill="none">
  <circle cx="34" cy="34" r="34" fill="#FAFAFA"/>
  <path d="M34.2633 12.6413C34.5627 11.72 35.8661 11.72 36.1654 12.6413L40.7149 26.6433C40.8488 27.0553 41.2328 27.3343 41.666 27.3343L56.3886 27.3343C57.3573 27.3343 57.7601 28.5739 56.9764 29.1433L45.0656 37.797C44.7151 38.0517 44.5684 38.5031 44.7023 38.9151L49.2518 52.9171C49.5512 53.8384 48.4967 54.6045 47.713 54.0351L35.8021 45.3814C35.4517 45.1268 34.9771 45.1268 34.6266 45.3814L22.7157 54.0352C21.932 54.6046 20.8775 53.8384 21.1769 52.9171L25.7264 38.9151C25.8603 38.5031 25.7136 38.0517 25.3632 37.797L13.4523 29.1433C12.6686 28.5739 13.0714 27.3343 14.0401 27.3343L28.7627 27.3343C29.1959 27.3343 29.5799 27.0553 29.7138 26.6433L34.2633 12.6413Z" fill="#0E0F10"/>
</svg>