<svg xmlns="http://www.w3.org/2000/svg" viewBox="0 0 48 48" id="widget" fill="#FFFFFF"><path d="M18 8H2A1 1 0 0 0 1 9V25a1 1 0 0 0 1 1H18a1 1 0 0 0 1-1V9A1 1 0 0 0 18 8zM17 24H3V10H17zM18 28H2a1 1 0 0 0-1 1V45a1 1 0 0 0 1 1H18a1 1 0 0 0 1-1V29A1 1 0 0 0 18 28zM17 44H3V30H17zM38 28H22a1 1 0 0 0-1 1V45a1 1 0 0 0 1 1H38a1 1 0 0 0 1-1V29A1 1 0 0 0 38 28zM37 44H23V30H37zM46.5 10.21l-13.86-8a1 1 0 0 0-1.37.37l-8 13.86a1 1 0 0 0 .37 1.37l13.86 8a1 1 0 0 0 1.37-.37l8-13.86A1 1 0 0 0 46.5 10.21zM37.63 23.56l-12.12-7 7-12.12 12.12 7z" data-name="Layer 2"></path></svg>