<svg width="52" height="56" viewBox="0 0 52 56" fill="none" xmlns="http://www.w3.org/2000/svg">
<g filter="url(#filter0_d_10_92)">
<path d="M26 2C30.549 2 34.9958 3.34893 38.7781 5.8762C42.5604 8.40347 45.5084 11.9956 47.2492 16.1983C48.99 20.401 49.4455 25.0255 48.5581 29.4871C47.6706 33.9486 45.4801 38.0468 42.2635 41.2635C39.0468 44.4801 34.9486 46.6706 30.4871 47.5581C26.0255 48.4455 21.401 47.99 17.1983 46.2492C12.9956 44.5084 9.40347 41.5604 6.8762 37.7781C4.34893 33.9958 3 29.549 3 25C3 18.9 5.42321 13.0499 9.73654 8.73654C14.0499 4.42321 19.9 2 26 2Z" fill="white"/>
</g>
<path d="M36.4061 31.794C35.1614 31.0377 33.8433 30.4095 32.4721 29.919V29.009C33.1221 28.588 33.3721 27.509 33.7601 25.602C33.8101 25.356 33.8601 25.102 33.9151 24.853C34.4371 23.7907 35.0632 22.7828 35.7841 21.844C36.9651 20.194 38.1841 18.489 38.0611 16.479L37.9801 16.184C37.4539 15.0154 36.7011 13.9629 35.7653 13.0875C34.8294 12.212 33.7291 11.5311 32.5281 11.084C31.9278 10.8769 31.3136 10.7129 30.6901 10.593C30.4811 10.549 30.3011 10.511 30.1501 10.472L30.0971 10.462C28.7297 10.1816 27.3396 10.027 25.9441 9.99999C25.3583 9.99783 24.7731 10.0379 24.1931 10.12C23.4254 10.2801 22.683 10.5435 21.9861 10.903C21.2276 11.3055 20.4079 11.5801 19.5601 11.716L19.3771 11.752C18.2943 12.0414 17.3581 12.7238 16.7511 13.666L16.6591 13.795L16.5851 13.922C16.0515 15.0431 15.9106 16.3111 16.1851 17.522L16.2011 17.583C16.4011 18.227 16.6431 18.852 16.8741 19.457C17.3692 20.6137 17.7276 21.8242 17.9421 23.064L18.0321 23.332C18.2288 23.7452 18.3826 24.1774 18.4911 24.622C18.7567 25.8667 19.3352 27.0231 20.1721 27.982V28.082V29.508C18.5212 30.2892 16.9139 31.1591 15.3571 32.114C14.8091 32.521 14.0911 33.514 15.4071 34.349C16.4181 34.99 19.6421 36.673 19.6321 36.77C19.5228 37.6917 19.7539 38.6217 20.2821 39.385C20.6305 39.7602 21.0562 40.0556 21.5297 40.2506C22.0032 40.4457 22.5134 40.5359 23.0251 40.515C24.0691 40.5303 25.0843 40.1725 25.8881 39.506C26.057 39.3562 26.2093 39.1886 26.3421 39.006C26.4753 39.1885 26.6278 39.3562 26.7971 39.506C27.6008 40.1725 28.616 40.5303 29.6601 40.515C30.1717 40.5359 30.6819 40.4457 31.1554 40.2506C31.6289 40.0556 32.0546 39.7602 32.4031 39.385C32.9898 38.4904 33.2084 37.4038 33.0131 36.352C33.0131 36.352 35.1971 34.732 36.2211 33.764C36.3808 33.6604 36.515 33.522 36.6137 33.3592C36.7123 33.1964 36.7728 33.0133 36.7906 32.8238C36.8084 32.6342 36.783 32.4431 36.7164 32.2648C36.6498 32.0864 36.5437 31.9255 36.4061 31.794Z" fill="white"/>
<path d="M34.004 31.228C34.7164 31.445 35.3726 31.8157 35.926 32.314C35.9735 32.3417 36.0133 32.3808 36.0418 32.4278C36.0702 32.4747 36.0865 32.5281 36.089 32.583C36.089 32.7503 35.964 32.9107 35.714 33.064C35.2586 33.368 34.819 33.6951 34.397 34.044C33.9817 34.3853 33.5451 34.6999 33.09 34.986C33.0306 35.0166 32.9649 35.0331 32.898 35.034C32.8048 35.035 32.7149 34.9991 32.648 34.934C32.6148 34.9043 32.5881 34.868 32.5699 34.8273C32.5516 34.7866 32.5421 34.7426 32.542 34.698C32.5429 34.6193 32.5736 34.5439 32.628 34.487C32.7707 34.3047 32.9552 34.1596 33.166 34.064C33.4106 33.9284 33.6422 33.7707 33.858 33.593C34.1914 33.3263 34.422 33.15 34.55 33.064C34.832 32.9233 34.973 32.8233 34.973 32.764C34.9728 32.7507 34.9694 32.7377 34.963 32.726C34.7898 32.4404 34.5208 32.2257 34.204 32.12C33.89 32.0307 33.5727 31.9377 33.252 31.841C32.9322 31.7611 32.642 31.591 32.416 31.351C32.403 31.3311 32.3963 31.3078 32.397 31.284C32.408 31.1849 32.4562 31.0937 32.532 31.029C32.5636 30.9896 32.6028 30.957 32.6473 30.9331C32.6918 30.9092 32.7407 30.8945 32.791 30.89C32.8414 30.8772 32.8931 30.8709 32.945 30.871C33.1345 30.8808 33.3204 30.9263 33.493 31.005C33.6597 31.0757 33.8297 31.1497 34.003 31.227L34.004 31.228ZM19.003 30.909C19.133 30.9038 19.2606 30.9449 19.363 31.025C19.4052 31.0562 19.4397 31.0967 19.4638 31.1433C19.4879 31.19 19.501 31.2415 19.502 31.294C19.5019 31.3314 19.4943 31.3684 19.4795 31.4028C19.4647 31.4372 19.4431 31.4682 19.416 31.494C19.0344 31.8258 18.5899 32.0775 18.109 32.234C17.6244 32.3887 17.1962 32.683 16.878 33.08C17.3335 33.3467 17.8054 33.5842 18.291 33.791C19.2204 34.2077 19.701 34.4223 19.733 34.435C19.7886 34.4569 19.8361 34.4955 19.8689 34.5454C19.9016 34.5954 19.9181 34.6543 19.916 34.714C19.9226 34.7923 19.9088 34.8711 19.8761 34.9425C19.8433 35.014 19.7927 35.0758 19.729 35.122C19.5953 35.2329 19.4267 35.2928 19.253 35.291C19.1845 35.2909 19.1166 35.2777 19.053 35.252C18.9534 35.1555 18.8475 35.0656 18.736 34.983C17.89 34.5217 16.9864 34.0827 16.025 33.666C15.925 33.628 15.833 33.592 15.737 33.561C15.6835 33.5405 15.6361 33.5068 15.599 33.4631C15.562 33.4195 15.5365 33.3671 15.525 33.311C15.5296 33.1646 15.5644 33.0207 15.6272 32.8884C15.69 32.756 15.7795 32.6381 15.89 32.542C16.3439 32.2142 16.8341 31.94 17.351 31.725C17.8623 31.5171 18.3439 31.2424 18.783 30.908L19.003 30.909Z" fill="#4A352A"/>
<path d="M25.041 30.904C24.9213 30.718 24.7716 30.553 24.598 30.416C24.4594 30.3196 24.2938 30.2696 24.125 30.273C24.0685 30.2712 24.0123 30.2815 23.96 30.303L22.893 30.671C22.825 30.692 22.7541 30.7021 22.683 30.701C22.5611 30.7059 22.441 30.6708 22.341 30.601C22.214 30.4894 22.1062 30.3577 22.022 30.211L21.729 30.411C21.8555 30.6129 22.0155 30.7918 22.202 30.94C22.3513 31.034 22.5258 31.08 22.702 31.072C22.791 31.072 22.8796 31.0592 22.965 31.034L23.941 30.681C24.0084 30.6555 24.0799 30.6427 24.152 30.643C24.2575 30.6377 24.3621 30.6646 24.452 30.72C24.5745 30.8207 24.6811 30.9394 24.768 31.072L25.046 30.906" fill="#4A352A"/>
<path fill-rule="evenodd" clip-rule="evenodd" d="M32.232 36.784C32.767 39.984 28.852 40.295 27.246 38.858C26.136 37.865 26.446 36.485 28.04 36.569C29.44 36.643 30.269 38.45 32.232 36.784Z" fill="#4A352A"/>
<path fill-rule="evenodd" clip-rule="evenodd" d="M20.344 36.784C19.809 39.984 23.724 40.295 25.33 38.858C26.44 37.865 26.13 36.485 24.536 36.569C23.136 36.643 22.307 38.45 20.344 36.784Z" fill="#4A352A"/>
<path d="M24.184 32.138C23.9889 32.0072 23.7577 31.9411 23.523 31.949C23.2386 31.9376 22.9614 32.0393 22.752 32.232C22.6341 32.3466 22.5476 32.4895 22.5007 32.6471C22.4538 32.8046 22.448 32.9716 22.484 33.132C22.5116 33.4376 22.6292 33.7282 22.822 33.967C22.9022 34.0779 23.0073 34.1684 23.1289 34.2313C23.2505 34.2941 23.3851 34.3276 23.522 34.329C23.7044 34.3253 23.883 34.2765 24.042 34.187C24.2109 34.0648 24.3439 33.8994 24.427 33.7082C24.51 33.5169 24.5401 33.3069 24.514 33.1C24.5385 32.925 24.5213 32.7467 24.464 32.5795C24.4067 32.4124 24.3107 32.2611 24.184 32.138ZM23.509 33.412C23.4425 33.412 23.3776 33.3923 23.3223 33.3554C23.2671 33.3184 23.224 33.266 23.1986 33.2046C23.1731 33.1432 23.1665 33.0756 23.1794 33.0104C23.1924 32.9453 23.2244 32.8854 23.2714 32.8384C23.3184 32.7914 23.3783 32.7594 23.4434 32.7465C23.5086 32.7335 23.5762 32.7401 23.6376 32.7656C23.699 32.791 23.7514 32.8341 23.7884 32.8893C23.8253 32.9446 23.845 33.0095 23.845 33.076C23.845 33.1644 23.8101 33.2493 23.748 33.3122C23.6858 33.3751 23.6014 33.4109 23.513 33.412H23.509Z" fill="#4A352A"/>
<path d="M26.5281 36.292C26.6248 36.2921 26.7207 36.2745 26.8111 36.24C26.8983 36.2062 26.9805 36.1605 27.0551 36.104C27.128 36.0475 27.195 35.9839 27.2551 35.914C27.3132 35.8476 27.366 35.7767 27.4131 35.702C27.4544 35.638 27.4912 35.5712 27.5231 35.502C27.5476 35.4491 27.5677 35.3942 27.5831 35.338C27.5801 35.3275 27.5757 35.3174 27.5701 35.308C27.5647 35.2971 27.5583 35.2868 27.5511 35.277C27.5441 35.269 27.5391 35.265 27.5361 35.266C27.463 35.4081 27.3671 35.5371 27.2521 35.648C27.1513 35.7432 27.0322 35.817 26.9021 35.865C26.7696 35.9121 26.6297 35.9351 26.4891 35.933C26.3734 35.9344 26.2583 35.9172 26.1481 35.882C26.05 35.8506 25.958 35.8026 25.8761 35.74C25.7933 35.6752 25.7196 35.5996 25.6571 35.515C25.589 35.4238 25.5291 35.3268 25.4781 35.225C25.4781 35.225 25.4701 35.225 25.4631 35.235C25.4557 35.2432 25.4493 35.2523 25.4441 35.262C25.4408 35.2689 25.4391 35.2764 25.4391 35.284C25.4883 35.4189 25.5495 35.5491 25.6221 35.673C25.6903 35.7894 25.7722 35.8971 25.8661 35.994C25.9527 36.0837 26.0542 36.1578 26.1661 36.213C26.278 36.2659 26.4003 36.2936 26.5241 36.294" fill="#4A352A"/>
<path d="M29.65 32.115C29.455 31.9842 29.2237 31.9181 28.989 31.926C28.7044 31.9146 28.4268 32.0164 28.217 32.209C28.0993 32.3237 28.0129 32.4666 27.966 32.6242C27.9191 32.7817 27.9132 32.9486 27.949 33.109C27.9769 33.4144 28.0949 33.7047 28.288 33.943C28.3682 34.0539 28.4733 34.1445 28.5949 34.2074C28.7165 34.2702 28.8511 34.3037 28.988 34.305C29.1704 34.3012 29.349 34.2524 29.508 34.163C29.6771 34.0411 29.8102 33.8759 29.8934 33.6849C29.9766 33.4938 30.0069 33.2838 29.981 33.077C30.0054 32.9019 29.9882 32.7235 29.9307 32.5564C29.8732 32.3892 29.777 32.238 29.65 32.115ZM28.876 33.454C28.8095 33.454 28.7446 33.4343 28.6893 33.3974C28.6341 33.3605 28.591 33.308 28.5656 33.2466C28.5401 33.1852 28.5335 33.1176 28.5464 33.0524C28.5594 32.9873 28.5914 32.9274 28.6384 32.8804C28.6854 32.8334 28.7453 32.8014 28.8104 32.7885C28.8756 32.7755 28.9432 32.7821 29.0046 32.8076C29.066 32.833 29.1184 32.8761 29.1554 32.9313C29.1923 32.9866 29.212 33.0515 29.212 33.118C29.212 33.2071 29.1766 33.2926 29.1136 33.3556C29.0506 33.4186 28.9651 33.454 28.876 33.454Z" fill="#4A352A"/>
<path d="M31.9611 28.297C32.5081 28.058 32.7891 26.214 33.1611 24.497C34.4911 21.455 37.4611 19.216 37.2851 16.386C34.8391 11.612 31.4291 11.442 29.9661 11.062C28.1052 10.6405 26.1879 10.5264 24.2901 10.724C22.9451 10.924 21.2011 12.216 19.5901 12.324C18.6037 12.5868 17.7596 13.2259 17.2391 14.104C16.7719 15.0762 16.6468 16.1778 16.8841 17.23C17.6392 19.0469 18.2325 20.9268 18.6571 22.848C19.2781 23.948 19.3221 26.016 20.7411 27.41C25.0881 25.34 28.6391 26.946 31.9611 28.297Z" fill="url(#paint0_linear_10_92)"/>
<path d="M31.9101 28.319L31.5041 28.153C28.2421 26.821 24.8681 25.443 20.7041 27.425L20.6801 27.436L20.6621 27.418C19.8731 26.5338 19.3327 25.4562 19.0961 24.295C18.974 23.7951 18.7979 23.3099 18.5711 22.848V22.835C18.3484 21.5369 17.9756 20.269 17.4601 19.057C17.2321 18.457 16.9961 17.845 16.7991 17.219C16.5608 16.1582 16.6862 15.048 17.1551 14.067L17.2551 13.926C17.778 13.1101 18.5893 12.5213 19.5271 12.277C20.4667 12.1394 21.3757 11.8421 22.2151 11.398C22.8536 11.0686 23.5323 10.8238 24.2341 10.67C26.1357 10.4675 28.0578 10.5817 29.9221 11.008C30.0911 11.052 30.2801 11.092 30.4981 11.138C31.9731 11.3679 33.3664 11.9659 34.549 12.8769C35.7316 13.7879 36.6655 14.9825 37.2641 16.35V16.365C37.3741 18.125 36.2761 19.658 35.1141 21.281C34.3475 22.2802 33.6872 23.3567 33.1441 24.493C33.0871 24.763 33.0291 25.043 32.9731 25.32C32.6681 26.815 32.4041 28.106 31.9281 28.314L31.9101 28.319ZM24.9381 26.357C27.2283 26.4944 29.4689 27.0815 31.5321 28.085L31.9091 28.239C32.3421 28.025 32.6091 26.703 32.8981 25.305C32.9551 25.028 33.0121 24.748 33.0711 24.47C33.6183 23.3262 34.284 22.243 35.0571 21.238C36.2101 19.628 37.2991 18.108 37.1941 16.377C35.0431 12.177 32.1881 11.57 30.4821 11.21C30.2631 11.164 30.0731 11.124 29.9051 11.08C28.0497 10.6556 26.1368 10.5417 24.2441 10.743C23.5489 10.8957 22.8766 11.1385 22.2441 11.465C21.4011 11.9114 20.4879 12.2101 19.5441 12.348C18.6244 12.5904 17.8297 13.1702 17.3181 13.972L17.2181 14.107C16.758 15.0722 16.6355 16.1639 16.8701 17.207C17.0701 17.828 17.3011 18.443 17.5291 19.038C18.0453 20.2508 18.4194 21.5192 18.6441 22.818C18.8718 23.2834 19.0488 23.7718 19.1721 24.275C19.4053 25.4149 19.932 26.4741 20.7001 27.348C22.0199 26.7021 23.4687 26.3633 24.9381 26.357Z" fill="#BFAF98"/>
<path fill-rule="evenodd" clip-rule="evenodd" d="M20.8691 28.617C22.4361 27.786 26.3521 25.73 31.5991 29.335C31.7469 28.4976 31.7621 27.6421 31.6441 26.8C31.4961 24.8 23.6651 22.356 20.8251 26.758L20.8691 28.616" fill="url(#paint1_linear_10_92)"/>
<path d="M31.6071 29.363L31.5871 29.349C29.6535 27.8967 27.2659 27.1805 24.8521 27.329C23.4507 27.4852 22.0964 27.9277 20.8731 28.629L20.8501 28.641V28.615L20.8071 26.755C21.1989 26.159 21.7074 25.6485 22.3019 25.2544C22.8964 24.8603 23.5646 24.5908 24.2661 24.462C25.6299 24.19 27.0378 24.2334 28.3821 24.589C30.2481 25.064 31.5941 25.976 31.6561 26.805C31.7737 27.6485 31.7585 28.5052 31.6111 29.344L31.6071 29.363ZM25.6221 27.263C27.7716 27.3209 29.852 28.0348 31.5841 29.309C31.727 28.4811 31.7405 27.6361 31.6241 26.804C31.5651 26.004 30.1981 25.08 28.3741 24.615C27.035 24.261 25.6326 24.2175 24.2741 24.488C23.5775 24.6161 22.914 24.8838 22.3235 25.2749C21.7331 25.666 21.2278 26.1726 20.8381 26.764L20.8811 28.592C22.1014 27.8938 23.4519 27.4534 24.8491 27.298C25.1085 27.274 25.3671 27.262 25.6251 27.262L25.6221 27.263Z" fill="#C9BDA9"/>
<path fill-rule="evenodd" clip-rule="evenodd" d="M18.6641 13.79C18.4231 15.007 19.5001 18.85 19.1401 20.868C18.75 19.4459 18.4718 17.9955 18.3081 16.53C18.0646 15.8511 17.7241 15.2111 17.2971 14.63C16.9731 14.33 18.0371 12.577 18.6631 13.788" fill="url(#paint2_linear_10_92)"/>
<path d="M21.1231 26.161V26.155C19.7031 24.494 19.1231 21.634 18.6231 19.222C18.2321 17.308 17.8981 15.677 17.2541 15.162C17.1749 15.0564 17.1249 14.9319 17.1091 14.801C17.0857 14.5566 17.1347 14.3107 17.2501 14.094C17.3646 13.8627 17.5347 13.6634 17.7451 13.514C17.8829 13.4157 18.0425 13.3522 18.2101 13.329V13.361C18.0478 13.3833 17.8934 13.4447 17.7601 13.54C17.617 13.7172 17.4901 13.907 17.3811 14.107C17.0651 14.738 17.7201 14.707 17.9811 15.051C18.6341 15.575 18.6881 17.299 19.0811 19.218C19.5741 21.626 19.7331 24.482 21.1471 26.136V26.142L21.1211 26.163" fill="#9C8461"/>
<path fill-rule="evenodd" clip-rule="evenodd" d="M21.0692 13.291C20.8282 14.509 21.4452 17.302 21.0852 19.321C20.6952 17.8989 20.417 16.4485 20.2532 14.983C19.9262 14.274 19.5352 13.465 19.3062 13.046C19.1062 12.672 20.1802 12.163 21.0692 13.291Z" fill="url(#paint3_linear_10_92)"/>
<path d="M20.5991 12.867C20.5041 12.7856 20.3909 12.7282 20.2692 12.6995C20.1474 12.6708 20.0205 12.6717 19.8991 12.702C19.801 12.7123 19.7068 12.7466 19.6251 12.802C19.5551 12.8511 19.5073 12.9258 19.4921 13.01C19.4781 13.137 19.3921 13.159 19.5111 13.393C20.4259 14.8079 20.9614 16.4344 21.0661 18.116C21.2771 20.506 21.0001 23.152 22.5821 25.027L22.5561 25.047C20.9671 23.164 20.7331 20.512 20.5221 18.118C20.3561 16.237 20.2041 14.518 19.4221 13.454C19.356 13.3809 19.3052 13.2953 19.2729 13.2022C19.2406 13.109 19.2274 13.0103 19.2341 12.912C19.251 12.8201 19.3035 12.7385 19.3801 12.685C19.4667 12.6256 19.5667 12.5888 19.6711 12.578C20.0083 12.5508 20.3442 12.644 20.6191 12.841L20.5991 12.867Z" fill="#9C8461"/>
<path d="M24.9411 11.153C25.6721 12.375 24.3281 17.867 24.0911 21.322C24.0711 21.611 21.4911 9.922 24.9411 11.153Z" fill="url(#paint4_linear_10_92)"/>
<path d="M24.6341 24.373C23.6002 21.503 22.9722 18.5027 22.7681 15.459C22.6889 14.4526 22.7696 13.4401 23.0071 12.459C23.2381 11.675 23.6391 11.159 24.2591 11.071C24.4876 11.042 24.7195 11.0593 24.9411 11.122L24.9321 11.153C24.7075 11.1121 24.4768 11.1193 24.2551 11.174C23.7351 11.291 23.7961 11.616 23.4551 12.352C23.1886 13.2971 23.1031 14.2841 23.2031 15.261C23.6461 18.161 24.1911 22.113 24.6621 24.361L24.6301 24.372" fill="#AA9572"/>
<path d="M27.0602 24.184C27.0282 23.95 26.9952 23.709 26.9602 23.465C26.4182 19.554 25.7542 14.765 28.0812 11.331L28.1102 11.348C27.1572 13.892 27.0262 18.739 26.9102 20.303C26.8612 20.979 26.9392 22.427 26.9912 23.46L27.0912 24.179H27.0572" fill="#C3AE8A"/>
<path d="M29.5871 24.691C29.6691 22.663 29.8871 20.291 30.0791 18.24C30.5671 15.65 31.8861 14.423 32.2291 11.804L32.2351 11.771C31.0484 13.7574 30.2603 15.956 29.9151 18.244C29.5923 20.3758 29.4941 22.5357 29.6221 24.688H29.5871" fill="url(#paint5_linear_10_92)"/>
<path d="M35.6781 14.878C34.6291 18.129 33.3781 21.307 32.1091 24.522C32.1421 20.265 34.4261 15.142 35.6781 14.878Z" fill="url(#paint6_linear_10_92)"/>
<path d="M31.5092 25.956C32.0103 25.2266 32.2373 24.3436 32.1502 23.463C32.1391 22.4091 32.3288 21.3628 32.7092 20.38C32.7212 20.342 32.7402 20.274 32.7662 20.18C33.0732 19.104 34.3092 14.78 35.7522 14.86V14.893C34.6212 14.85 33.1842 19.127 32.8432 20.193C32.8172 20.283 32.8111 20.339 32.7971 20.381C32.4884 21.3815 32.2995 22.415 32.2342 23.46C32.3075 24.3546 32.0593 25.246 31.5342 25.974L31.5092 25.952" fill="#9C8461"/>
<defs>
<filter id="filter0_d_10_92" x="1" y="1" width="50" height="50" filterUnits="userSpaceOnUse" color-interpolation-filters="sRGB">
<feFlood flood-opacity="0" result="BackgroundImageFix"/>
<feColorMatrix in="SourceAlpha" type="matrix" values="0 0 0 0 0 0 0 0 0 0 0 0 0 0 0 0 0 0 127 0" result="hardAlpha"/>
<feOffset dy="1"/>
<feGaussianBlur stdDeviation="1"/>
<feColorMatrix type="matrix" values="0 0 0 0 0 0 0 0 0 0 0 0 0 0 0 0 0 0 0.1 0"/>
<feBlend mode="normal" in2="BackgroundImageFix" result="effect1_dropShadow_10_92"/>
<feBlend mode="normal" in="SourceGraphic" in2="effect1_dropShadow_10_92" result="shape"/>
</filter>
<linearGradient id="paint0_linear_10_92" x1="16.7668" y1="19.4635" x2="37.2926" y2="19.4635" gradientUnits="userSpaceOnUse">
<stop offset="0.04" stop-color="#FAF8E8"/>
<stop offset="0.418" stop-color="#FAF8E8"/>
<stop offset="0.485" stop-color="#F4F0DD"/>
<stop offset="0.599" stop-color="#E4DBC2"/>
<stop offset="0.747" stop-color="#CBB895"/>
<stop offset="0.797" stop-color="#C2AC85"/>
<stop offset="1" stop-color="#AF9672"/>
</linearGradient>
<linearGradient id="paint1_linear_10_92" x1="20.837" y1="26.7933" x2="31.7222" y2="26.7933" gradientUnits="userSpaceOnUse">
<stop stop-color="#F9F9EC"/>
<stop offset="0.0525879" stop-color="#F9F9EC"/>
<stop offset="0.3844" stop-color="#F9F9EC"/>
<stop offset="0.5145" stop-color="#F5F4E5"/>
<stop offset="0.7094" stop-color="#EAE5D0"/>
<stop offset="0.9441" stop-color="#D9CCAF"/>
<stop offset="0.9987" stop-color="#D4C6A6"/>
</linearGradient>
<linearGradient id="paint2_linear_10_92" x1="17.2371" y1="17.1172" x2="19.2144" y2="17.1172" gradientUnits="userSpaceOnUse">
<stop stop-color="#E5D4BF"/>
<stop offset="1" stop-color="#F2E8D7"/>
</linearGradient>
<linearGradient id="paint3_linear_10_92" x1="20.1627" y1="14.9732" x2="21.4185" y2="15.1221" gradientUnits="userSpaceOnUse">
<stop stop-color="#E9DAC7"/>
<stop offset="0.494" stop-color="#ECE1D2"/>
<stop offset="1" stop-color="#EEE5D7"/>
</linearGradient>
<linearGradient id="paint4_linear_10_92" x1="23.1458" y1="16.1947" x2="25.1566" y2="16.1947" gradientUnits="userSpaceOnUse">
<stop stop-color="#E9DAC7"/>
<stop offset="1" stop-color="#EBDECC"/>
</linearGradient>
<linearGradient id="paint5_linear_10_92" x1="30.9227" y1="16.0604" x2="29.8881" y2="18.2605" gradientUnits="userSpaceOnUse">
<stop stop-color="#AF9677"/>
<stop offset="1" stop-color="#BFAD8F"/>
</linearGradient>
<linearGradient id="paint6_linear_10_92" x1="32.1091" y1="19.7" x2="35.6781" y2="19.7" gradientUnits="userSpaceOnUse">
<stop stop-color="#B29F88"/>
<stop offset="0.255" stop-color="#B4A28B"/>
<stop offset="1" stop-color="#B8A790"/>
</linearGradient>
</defs>
</svg>
