<svg xmlns="http://www.w3.org/2000/svg" width="163" height="35" viewBox="0 0 163 35" fill="none">
	<g clip-path="url(#clip0_13_134)">
		<path d="M148.973 6.17969V28.8203H152.14V24.5729L154.813 21.4557L158.954 28.8203H162.715L157.09 18.9036L162.567 12.2682H158.904L152.14 19.8698V6.17969H148.973Z" fill="#D2D2D2"/>
		<path d="M138.728 29.1667C143.397 29.1667 146.532 25.7214 146.532 20.5443C146.532 15.4036 143.397 11.9219 138.728 11.9219C134.06 11.9219 130.925 15.4036 130.925 20.5443C130.925 25.7214 134.06 29.1667 138.728 29.1667ZM138.728 26.1406C136.006 26.1406 134.241 23.8073 134.241 20.5443C134.241 17.2813 136.006 14.9479 138.728 14.9479C141.45 14.9479 143.249 17.2813 143.249 20.5443C143.232 23.8073 141.434 26.1406 138.728 26.1406Z" fill="#D2D2D2"/>
		<path d="M121.44 29.1667C126.009 29.1667 129.078 25.7214 129.078 20.5443C129.078 15.4036 126.009 11.9219 121.44 11.9219C116.87 11.9219 113.785 15.4036 113.785 20.5443C113.802 25.7214 116.87 29.1667 121.44 29.1667ZM121.44 26.1406C118.767 26.1406 117.051 23.8073 117.051 20.5443C117.051 17.2813 118.784 14.9479 121.44 14.9479C124.112 14.9479 125.861 17.2813 125.861 20.5443C125.861 23.8073 124.112 26.1406 121.44 26.1406Z" fill="#D2D2D2"/>
		<path d="M96.0509 6.17969V28.8203H103.936C108.952 28.8203 111.641 26.3594 111.641 22.4948C111.641 19.1771 109.743 17.901 106.988 17.3724C109.446 16.7891 110.849 14.7656 110.849 12.013C110.849 8.27604 108.242 6.17969 103.673 6.17969H96.0509ZM99.4658 9.22396H103.772C106.147 9.22396 107.45 10.4635 107.45 12.4687C107.45 14.5104 106.114 15.987 103.772 15.987H99.4658V9.22396ZM99.4658 19.0312H103.953C106.592 19.0312 108.16 20.0703 108.16 22.3125C108.16 24.4271 106.708 25.6849 103.986 25.6849H99.4823V19.0312H99.4658Z" fill="#D2D2D2"/>
		<path d="M86.4332 24.2812C86.4332 27.3073 87.6704 28.8385 90.5409 28.8385H93.5928V25.7031H91.1843C90.046 25.7031 89.6336 25.2109 89.6336 23.9166V15.987H93.2464V13.1068H89.6336V8.22134H86.4332V13.125H83.8102V16.0052H86.4332V24.2812Z" fill="#D2D2D2"/>
		<path d="M80.1313 7.10938C79.0425 7.10938 78.1847 8.02083 78.1847 9.22396C78.1847 10.4635 79.0425 11.3385 80.1313 11.3385C81.2201 11.3385 82.0779 10.4635 82.0779 9.22396C82.0779 8.02083 81.2201 7.10938 80.1313 7.10938Z" fill="#D2D2D2"/>
		<path d="M78.5311 28.8203V13.1068H81.7315V28.8203H78.5311Z" fill="#D2D2D2"/>
		<path d="M66.1584 29.0026C60.3185 29.0026 56.2932 24.3177 56.2932 17.4088C56.2932 10.5 60.2195 6.03384 66.4224 6.03384C70.8435 6.03384 74.2089 8.23957 75.2977 13.125H71.7344C70.959 10.4271 68.7979 9.24218 66.3234 9.24218C62.3641 9.24218 59.8071 12.5417 59.8071 17.4088C59.8071 22.276 62.3311 25.7943 66.3234 25.7943C69.5403 25.7943 72.0643 23.6979 72.2293 20.0338V19.0312H66.5049V15.987H75.5617V28.8385H72.9717L72.6087 25.5208C71.6024 27.125 69.4578 29.0026 66.1584 29.0026Z" fill="#D2D2D2"/>
		<path fill-rule="evenodd" clip-rule="evenodd" d="M26.0873 0.432043L40.7201 8.58048C41.3965 8.9633 41.413 10.0206 40.7366 10.4216L21.7486 21.5961C20.6928 22.2159 19.4226 22.2341 18.3503 21.6326L6.42298 14.9789C4.95475 14.3409 3.33805 15.5258 3.33805 17.3123C3.33805 18.7524 4.06392 20.0649 5.2187 20.7029L17.179 27.3565C17.9049 26.5362 18.9277 26.0076 20.0495 26.0076C21.1383 26.0076 22.1281 26.4998 22.8539 27.2836L37.7507 18.5336C37.7177 18.2784 37.6847 18.005 37.6847 17.7498C37.6847 15.2706 39.4829 13.2654 41.7099 13.2654C43.937 13.2654 45.7352 15.2706 45.7352 17.7498C45.7352 20.2289 43.937 22.2341 41.7099 22.2341C40.6211 22.2341 39.6313 21.7602 38.922 20.9763L24.0252 29.7446C24.0582 29.9998 24.0912 30.255 24.0912 30.5102C24.0912 32.9893 22.293 34.9946 20.066 34.9946C17.8389 34.9946 16.0407 32.9893 16.0407 30.5102C16.0407 30.2732 16.0572 30.0544 16.0902 29.8357L3.96494 23.0727C2.05129 22.0336 0.86351 19.8826 0.86351 17.531V16.2185C0.86351 14.432 1.75435 12.7914 3.17308 11.9529L22.689 0.468502C23.7613 -0.15129 25.015 -0.169519 26.0873 0.432043ZM20.0495 32.242C20.9073 32.242 21.6002 31.4763 21.6002 30.5102C21.6002 29.5623 20.9073 28.7784 20.0495 28.7784C19.1916 28.7784 18.4987 29.544 18.4987 30.5102C18.4987 31.4581 19.1916 32.242 20.0495 32.242ZM43.2607 17.7498C43.2607 18.6977 42.5678 19.4815 41.7099 19.4815C40.8521 19.4815 40.1592 18.7159 40.1592 17.7498C40.1592 16.8018 40.8521 16.018 41.7099 16.018C42.5678 16.0362 43.2607 16.8018 43.2607 17.7498Z" fill="#D2D2D2"/>
	</g>
	<defs>
		<clipPath id="clip0_13_134">
			<rect width="162" height="35" fill="white" transform="translate(0.86351)"/>
		</clipPath>
	</defs>
</svg>