<?xml version="1.0" encoding="utf-8"?>
<!-- Generator: Adobe Illustrator 27.3.1, SVG Export Plug-In . SVG Version: 6.00 Build 0)  -->
<svg version="1.1" id="Layer_1" xmlns="http://www.w3.org/2000/svg" xmlns:xlink="http://www.w3.org/1999/xlink" x="0px" y="0px"
	 viewBox="0 0 982 192" style="enable-background:new 0 0 982 192;" xml:space="preserve">
<style type="text/css">
	.st0{fill:#FFFFFF;}
	.st1{fill-rule:evenodd;clip-rule:evenodd;fill:#FFFFFF;}
</style>
<g>
	<path class="st0" d="M897.8,33.9v124.2H917v-23.3l16.2-17.1l25.1,40.4h22.8L947,103.7l33.2-36.4H958L917,109V33.9H897.8z"/>
	<path class="st0" d="M835.7,160c28.3,0,47.3-18.9,47.3-47.3c0-28.2-19-47.3-47.3-47.3s-47.3,19.1-47.3,47.3
		C788.4,141.1,807.4,160,835.7,160z M835.7,143.4c-16.5,0-27.2-12.8-27.2-30.7c0-17.9,10.7-30.7,27.2-30.7
		c16.5,0,27.4,12.8,27.4,30.7C863,130.6,852.1,143.4,835.7,143.4z"/>
	<path class="st0" d="M730.9,160c27.7,0,46.3-18.9,46.3-47.3c0-28.2-18.6-47.3-46.3-47.3c-27.7,0-46.4,19.1-46.4,47.3
		C684.6,141.1,703.2,160,730.9,160z M730.9,143.4c-16.2,0-26.6-12.8-26.6-30.7c0-17.9,10.5-30.7,26.6-30.7
		c16.2,0,26.8,12.8,26.8,30.7C757.7,130.6,747.1,143.4,730.9,143.4z"/>
	<path class="st0" d="M577,33.9v124.2h47.8c30.4,0,46.7-13.5,46.7-34.7c0-18.2-11.5-25.2-28.2-28.1c14.9-3.2,23.4-14.3,23.4-29.4
		c0-20.5-15.8-32-43.5-32H577z M597.7,50.6h26.1c14.4,0,22.3,6.8,22.3,17.8c0,11.2-8.1,19.3-22.3,19.3h-26.1V50.6z M597.7,104.4
		h27.2c16,0,25.5,5.7,25.5,18c0,11.6-8.8,18.5-25.3,18.5h-27.3V104.4z"/>
	<path class="st0" d="M518.7,133.2c0,16.6,7.5,25,24.9,25h18.5V141h-14.6c-6.9,0-9.4-2.7-9.4-9.8V87.7h21.9V71.9h-21.9V45.1h-19.4
		v26.9h-15.9l0,15.8h15.9V133.2z"/>
	<path class="st0" d="M480.5,39c-6.6,0-11.8,5-11.8,11.6c0,6.8,5.2,11.6,11.8,11.6c6.6,0,11.8-4.8,11.8-11.6
		C492.3,44,487.1,39,480.5,39z"/>
	<path class="st0" d="M470.8,158.1V71.9h19.4v86.2H470.8z"/>
	<path class="st0" d="M395.8,159.1c-35.4,0-59.8-25.7-59.8-63.6c0-37.9,23.8-62.4,61.4-62.4c26.8,0,47.2,12.1,53.8,38.9h-21.6
		c-4.7-14.8-17.8-21.3-32.8-21.3c-24,0-39.5,18.1-39.5,44.8c0,26.7,15.3,46,39.5,46c19.5,0,34.8-11.5,35.8-31.6v-5.5h-34.7V87.7
		h54.9v70.5h-15.7l-2.2-18.2C428.8,148.8,415.8,159.1,395.8,159.1z"/>
	<path class="st1" d="M152.9,2.4l88.7,44.7c4.1,2.1,4.2,7.9,0.1,10.1l-115.1,61.3c-6.4,3.4-14.1,3.5-20.6,0.2L33.7,82.2
		C24.8,78.7,15,85.2,15,95c0,7.9,4.4,15.1,11.4,18.6l72.5,36.5c4.4-4.5,10.6-7.4,17.4-7.4c6.6,0,12.6,2.7,17,7l90.3-48
		c-0.2-1.4-0.4-2.9-0.4-4.3c0-13.6,10.9-24.6,24.4-24.6s24.4,11,24.4,24.6c0,13.6-10.9,24.6-24.4,24.6c-6.6,0-12.6-2.6-16.9-6.9
		l-90.3,48.1c0.2,1.4,0.4,2.8,0.4,4.2c0,13.6-10.9,24.6-24.4,24.6s-24.4-11-24.4-24.6c0-1.3,0.1-2.5,0.3-3.7l-73.5-37.1
		C7.2,120.9,0,109.1,0,96.2V89c0-9.8,5.4-18.8,14-23.4l118.3-63C138.8-0.8,146.4-0.9,152.9,2.4z M116.3,176.9c5.2,0,9.4-4.2,9.4-9.5
		c0-5.2-4.2-9.5-9.4-9.5s-9.4,4.2-9.4,9.5C106.9,172.6,111.1,176.9,116.3,176.9z M257,97.4c0,5.2-4.2,9.5-9.4,9.5
		c-5.2,0-9.4-4.2-9.4-9.5c0-5.2,4.2-9.5,9.4-9.5C252.8,88,257,92.2,257,97.4z"/>
</g>
</svg>
