<?xml version="1.0" encoding="UTF-8"?>
<svg version="1.1" viewBox="0 0 1600 800" width="1280" height="1280" xmlns="http://www.w3.org/2000/svg">
<path transform="translate(199,254)" d="m0 0c0.902 0.416 1.8 0.833 2.73 1.26 24.1 12.1 47.6 37.8 56.5 63.3 0.627 2.17 1.22 4.36 1.76 6.55 1.65 4.76 4.76 7.84 8.61 11 6.91 5.93 13.7 12.4 17.4 20.9v2h2c1.34 3.33 2.67 6.66 4 10 0.273 0.679 0.547 1.36 0.828 2.06 0.769 1.97 1.48 3.95 2.17 5.94 0.281 0.785 0.562 1.57 0.852 2.38 5.5 17.3 1.89 39.7-5.94 55.9-0.449 0.862-0.449 0.862-0.907 1.74h-2c-0.25 0.722-0.5 1.44-0.758 2.19-1.35 3.06-2.98 5.24-5.12 7.81-0.678 0.825-1.36 1.65-2.05 2.5-0.683 0.825-1.37 1.65-2.07 2.5-0.666 0.855-1.33 1.71-2.02 2.59-4.76 5.79-10.4 9.94-17 13.4-1.64 1.02-1.64 1.02-3.31 2.06-3.62 2.08-7.39 3.17-11.4 4.28-2.4 0.642-2.4 0.642-5.04 1.78-14.1 5.49-33.7 3.11-48.5 3.32-6.49 0.0915-13 0.195-19.5 0.3-1.26 0.0205-2.52 0.0409-3.82 0.062-9.1 0.154-18.2 0.403-27.3 0.754-18.8 0.693-37.6 0.852-56.4-0.438-1.16-0.0784-2.32-0.157-3.52-0.238-21.3-1.64-34.7-9.69-48.6-25.6-14.5-17.4-25.3-34.8-23.3-58.3 0.418-4.02 1.04-7.99 1.71-12 0.173-1.03 0.345-2.06 0.523-3.12 2.7-12.9 10-27.6 19.5-36.9 0.966-1.16 1.92-2.33 2.88-3.5 3.25-3.82 6.35-5.91 11.1-7.5 0.0387-0.926 0.0387-0.926 0.0781-1.87 0.372-5.55 1.38-9.86 3.82-14.9 1.14-2.37 2.06-4.76 2.97-7.21 2.13-5.4 5.04-10.2 8.12-15.1 0.519-0.884 1.04-1.77 1.57-2.68 1.56-2.54 3.28-4.24 5.43-6.32 1.09-1.29 2.17-2.58 3.25-3.88 3.05-3.54 6.31-6.24 10.1-8.9 1.75-1.15 1.75-1.15 2.6-3.23 1.65-1.03 3.32-2.02 5-3 1.36-0.935 2.71-1.87 4.06-2.81 32.3-21.5 73.7-25.5 109-9.19zm-91 55c-1.72 2.27-2.75 4.41-4 7 1.49 2.98 4.01 3.35 6.95 4.62 13 5.87 26.6 12.4 35.1 24.4 0.25 3.38 0.25 3.38-1 7-1.74 1.86-3.61 3.39-5.61 4.97-3.73 3.16-6.86 6.83-10.1 10.5-6.16 6.84-6.16 6.84-11.3 8.55v-2c-1.96-1.4-3.97-2.72-6-4-0.928-0.681-1.86-1.36-2.81-2.06-8.91-5.41-18-5.87-28.2-4.94-5.88 1.45-10.5 3.9-15 8-0.99 0.742-1.98 1.49-3 2.25-5.7 4.8-9.11 11.4-10 18.8-0.785 10.9-0.115 19.7 7.06 28.3 8.71 8.97 20.6 12.7 33 13.1 2.14 0.0115 4.29 0.0071 6.43-0.011 1.77 0.00307 1.77 0.00307 3.58 0.0062 3.87 0.00299 7.75-0.0154 11.6-0.0345 2.72-0.00464 5.44-0.00504 8.16-0.00568 5.69-0.00368 11.4-0.0186 17.1-0.0412 7.25-0.0288 14.5-0.0392 21.7-0.0437 6.29-0.00402 12.6-0.0165 18.9-0.0303 1.99-0.00405 3.98-0.00693 5.97-0.0098 17.5-0.024 17.5-0.024 35-0.534 0.709-0.0233 1.42-0.0465 2.15-0.0705 5.96-0.323 9.35-2.36 13.4-6.59 1.49-1.11 1.49-1.11 3-2.25 0.66-0.578 1.32-1.15 2-1.75v-2c0.99-0.33 1.98-0.66 3-1 1.43-1.91 1.43-1.91 2.62-4.25 0.638-1.15 0.638-1.15 1.29-2.33 3.48-7.75 3.06-18.1 0.969-26.2-4.01-10.1-12.3-17.6-21.9-22.2-2.33-0.379-4.66-0.719-7-1-0.17-1.09-0.34-2.18-0.516-3.3-1.94-11.9-4.63-23-10.5-33.7-0.369-0.728-0.737-1.46-1.12-2.21-8.26-15.9-22.3-23.5-38.9-28.8-21.9-5.14-45-0.853-62 14z" fill="#EEEFF1"/>
<path transform="translate(229,298)" d="m0 0v3c0.922-0.108 0.922-0.108 1.86-0.219 1.21-0.139 1.21-0.139 2.45-0.281 0.801-0.0928 1.6-0.186 2.43-0.281 2.26-0.219 2.26-0.219 5.26-0.219v2c1.58 0.0928 1.58 0.0928 3.19 0.188 4.68 0.998 5.89 2.05 8.81 5.81 2.92 4.9 5.05 9.82 6.56 15.3 1.65 5.84 4.52 8.93 9.06 12.8 6.91 5.93 13.7 12.4 17.4 20.9v2h2c1.34 3.33 2.67 6.66 4 10 0.41 1.02 0.41 1.02 0.828 2.06 0.769 1.97 1.48 3.95 2.17 5.94 0.281 0.785 0.562 1.57 0.852 2.38 5.5 17.3 1.89 39.7-5.94 55.9-0.299 0.574-0.599 1.15-0.907 1.74h-2c-0.25 0.722-0.5 1.44-0.758 2.19-1.35 3.06-2.98 5.24-5.12 7.81-0.678 0.825-1.36 1.65-2.05 2.5-0.683 0.825-1.37 1.65-2.07 2.5-0.666 0.855-1.33 1.71-2.02 2.59-4.76 5.79-10.4 9.94-17 13.4-1.09 0.681-2.19 1.36-3.31 2.06-3.62 2.08-7.39 3.17-11.4 4.28-2.4 0.642-2.4 0.642-5.04 1.78-11.1 4.32-25.9 3.02-37.6 3.19-1.09 0.0297-2.19 0.0595-3.31 0.0901-7.27 0.0525-12.8-1.17-19.3-4.4v-2h-3c-1-1.33-2-2.67-3-4h-3c0.938-2 0.938-2 3-4 3.03-0.365 5.97-0.229 9 0v-5c0.66 0.66 1.32 1.32 2 2-0.33 0.99-0.66 1.98-1 3h2v-6c-2.08-0.553-3.84-1-6-1-1.32-0.66-2.64-1.32-4-2v-10c1.58-0.217 1.58-0.217 3.19-0.438 2.97-0.438 5.88-0.941 8.81-1.56h-4v-3c3.63-0.33 7.26-0.66 11-1v2h3c-0.495-0.99-0.495-0.99-1-2 1.65-0.33 3.3-0.66 5-1 0.33-0.99 0.66-1.98 1-3 1.65-0.33 3.3-0.66 5-1-0.99-0.66-1.98-1.32-3-2 0.746-0.0292 1.49-0.0583 2.26-0.0884 3.42-0.15 6.83-0.343 10.2-0.537 1.17-0.0451 2.35-0.0902 3.55-0.137 7.81-0.483 12.3-1.88 17.9-7.24 1.22-0.946 2.45-1.88 3.69-2.81 5.17-4.49 8.32-10.4 9.31-17.2 0.757-12.6-0.789-21.2-9-31-4.64-4.8-10.4-8.31-16.8-10-3.19-1-3.19-1-4.33-2.69-1.03-2.78-1.38-5.37-1.73-8.31-1.08-7.57-2.77-15.1-6.78-21.7-1.34-2.27-1.34-2.27-0.906-4.15 0.278-1.05 0.278-1.05 0.562-2.12-0.309-1.05-0.619-2.1-0.938-3.19-1.23-4.41-1.25-8.27-1.06-12.8h3c0.33-1.65 0.66-3.3 1-5h2v-2h13v-2h-10v-1c3.73-0.575 7.21-1 11-1z" fill="#EEEFF1"/>
<path transform="translate(519,294)" d="m0 0c1.36 1.64 2.7 3.31 4 5 0.66 0.33 1.32 0.66 2 1v5h-2c-0.268 0.639-0.536 1.28-0.812 1.94-1.19 2.06-1.19 2.06-4.19 3.06-0.33 0.99-0.66 1.98-1 3-8.06 0.632-8.06 0.632-11.7-1.81-0.763-0.722-1.53-1.44-2.31-2.19-15.4-8.55-36.1-9.73-53-5-4.74 2.08-9.09 4.52-13.2 7.69-1.82 1.31-1.82 1.31-3.82 1.31-0.33 0.99-0.66 1.98-1 3-1.52 1.43-1.52 1.43-3.38 2.88-2.98 2.44-4.74 4.75-6.62 8.12h-2c-0.248 0.784-0.495 1.57-0.75 2.38-3.77 10.9-3.77 10.9-6.31 15.6-2.53 5.6-2.12 11.9-2.12 17.9-0.0184 1.29-0.0184 1.29-0.0371 2.61-0.0293 12.9 4.37 24.9 12.8 34.7 1.45 1.84 1.45 1.84 2.45 4.84 0.99 0.33 1.98 0.66 3 1 1.15 1.18 2.29 2.36 3.44 3.54 10.7 10 25.9 15 40.4 14.7 10.3-0.807 19.9-2.48 29.2-7.26 2-0.988 2-0.988 4-0.988v-2c1.24-0.773 1.24-0.773 2.5-1.56 8.98-5.75 14.9-15.2 17.5-25.4v-10c-17.2-0.33-34.3-0.66-52-1v-2h-2c-0.406-11.4-0.406-11.4 2-16 3.9-2.05 7.24-2.25 11.6-2.26 1.31-0.0063 2.63-0.0126 3.98-0.0191 1.43 0.00358 2.85 0.00768 4.28 0.0123 1.47-0.00135 2.94-0.00329 4.4-0.0058 3.07-0.00294 6.14 0.00132 9.21 0.0107 3.94 0.0114 7.88 0.00481 11.8-0.00714 3.03-0.00722 6.05-0.00493 9.08 2.56e-4 1.45 0.00134 2.91-3.08e-4 4.36-0.00496 2.03-0.00506 4.05 0.00402 6.08 0.0138 1.15 0.00159 2.31 0.00318 3.49 0.00482 2.71 0.254 2.71 0.254 4.71 2.25 0.259 2.52 0.259 2.52 0.266 5.68 0.00258 1.16 0.00516 2.32 0.00781 3.51-0.00773 1.22-0.0155 2.43-0.0234 3.69 0.00773 1.18 0.0155 2.36 0.0234 3.57-0.021 9.53-0.282 19.5-4.59 28.2-0.659 1.34-0.659 1.34-1.33 2.71-0.447 0.86-0.895 1.72-1.36 2.61-0.416 0.829-0.833 1.66-1.26 2.51-2.83 5.41-5.67 10.5-11.7 12.5-0.681 1.33-1.35 2.66-2 4-15 14.1-35.2 17.5-55.1 17.2-14.6-0.683-27.2-2.28-39.9-10.2-0.887-0.536-1.77-1.07-2.69-1.62-4.85-3.28-9.05-7.38-13.3-11.4l-2.81-2.57c-15.6-14.8-23.6-35.1-24.3-56.6 0.169-3.02 0.565-5.88 1.1-8.86l0.324-1.9c2.63-14.9 8.71-28 17.7-40.1 0.619-0.866 1.24-1.73 1.88-2.62 2.5-2.79 5.2-5.19 8.05-7.61 1.31-1.11 2.6-2.25 3.87-3.41 4.11-3.72 8.18-6.07 13.2-8.36 0.913-0.474 1.83-0.949 2.77-1.44 26.6-13.4 58.9-11.5 83.2 6.44z" fill="#FBFCFE"/>
<path transform="translate(199,254)" d="m0 0c0.902 0.416 1.8 0.833 2.73 1.26 19.3 9.74 36.2 27.3 47.3 45.7 0.688 2.29 0.688 2.29 1 4-0.675-0.205-1.35-0.41-2.05-0.621-0.892-0.269-1.78-0.539-2.7-0.816-0.882-0.267-1.76-0.534-2.67-0.809-4.73-1.38-8.59-1.85-13.6-1.75-0.33-0.66-0.66-1.32-1-2h-3c0.99 0.33 1.98 0.66 3 1v2h-13v2h-2v5c-0.99 0.495-0.99 0.495-2 1-0.66-0.33-1.32-0.66-2-1 0.311 2.06 0.624 4.13 0.938 6.19 0.174 1.15 0.348 2.3 0.527 3.48 0.449 2.8 0.956 5.56 1.54 8.33-3-1-3-1-4.18-2.82-0.563-1.14-0.563-1.14-1.14-2.3-7.69-14.4-21.6-21.1-36.7-25.9-18.9-4.43-38.1-1.56-54.5 8.32-2.44 1.56-2.44 1.56-4.17 3.4-1.29 1.29-1.29 1.29-3.29 1.29-0.289 0.763-0.578 1.53-0.875 2.31-1.12 2.69-1.12 2.69-3.12 5.69-3.26 0.293-3.26 0.293-7.12 0.188-1.92-0.0406-1.92-0.0406-3.88-0.082-0.987-0.0348-1.97-0.0696-2.99-0.105v2c-6.35 2.72-12.6 5.35-19.3 7.32-1.96 0.626-1.96 0.626-3.74 2.68-1.65 0.392-3.32 0.721-5 1-0.66 0.165-1.32 0.33-2 0.5-2.32 0.58-4.65 1.04-7 1.5 0-2 0-2 1-3-2.97-0.33-5.94-0.66-9-1-0.989-2.56-1.21-4.38-0.316-6.98 0.697-1.53 1.41-3.05 2.15-4.56 1.16-2.43 2.1-4.87 3.04-7.39 2.13-5.4 5.04-10.2 8.12-15.1 0.519-0.884 1.04-1.77 1.57-2.68 1.56-2.54 3.28-4.24 5.43-6.32 1.09-1.29 2.17-2.58 3.25-3.88 3.05-3.54 6.31-6.24 10.1-8.9 1.75-1.15 1.75-1.15 2.6-3.23 1.65-1.03 3.32-2.02 5-3 1.36-0.935 2.71-1.87 4.06-2.81 32.3-21.5 73.7-25.5 109-9.19z" fill="#FBFCFE"/>
<path transform="translate(866 346)" d="m0 0c2.8 2.47 2.8 2.47 5.07 2.14 2.3-0.832 2.3-0.832 4.38-2.93 3.51-2.51 6.35-2.45 10.5-2.27 1.03 0.0145 1.03 0.0145 2.07 0.0293 5.01 0.114 5.01 0.114 6.18 1.28 0.104 1.37 0.14 2.75 0.147 4.12 0.00716 0.888 0.0143 1.78 0.0217 2.69 0.00269 0.983 0.00538 1.97 0.00815 2.98 0.00657 1.03 0.0131 2.06 0.0199 3.12 0.0198 3.43 0.0314 6.86 0.0414 10.3 0.00408 1.17 0.00815 2.34 0.0124 3.55 0.0209 6.22 0.0352 12.4 0.0445 18.6 0.011 6.39 0.0453 12.8 0.0852 19.2 0.0263 4.93 0.0345 9.87 0.0381 14.8 0.00484 2.35 0.0164 4.71 0.035 7.06 0.238 32.1 0.238 32.1-9.45 44.6-0.639 0.887-1.28 1.77-1.94 2.69-7.34 8.23-18.4 14.3-29.5 15.6-2.49 0.114-4.96 0.13-7.45 0.0884-0.875-0.00798-1.75-0.016-2.65-0.0242-12.4-0.272-22-3.61-31-12.2-0.551-0.509-1.1-1.02-1.67-1.54-8.57-8.02-8.57-8.02-10.8-12.8 0-1.81 0-1.81 1.12-3.23 2.46-2.07 5.06-3.35 7.94-4.77 1.06-0.53 2.13-1.06 3.22-1.61 2.71-1.21 2.71-1.21 4.71-1.21 1.69 1.86 1.69 1.86 3.56 4.31 0.62 0.801 1.24 1.6 1.88 2.43 1.56 2.26 1.56 2.26 2.56 5.26 2.21 1.09 2.21 1.09 5 2 1.04 0.507 2.09 1.01 3.16 1.54 4.07 1.75 7.76 1.96 12.2 1.9 0.743-0.0054 1.49-0.0108 2.25-0.0164 5.93-0.164 11.4-1.11 16.4-4.42 0.66-0.99 1.32-1.98 2-3h2c3.54-9.57 5.33-18.8 5-29-2.64 0.33-5.28 0.66-8 1-0.495 1.49-0.495 1.49-1 3-6.35 2.68-13 2.37-19.8 2.38-1.12 0.0245-2.25 0.049-3.41 0.0742-14 0.0487-23.3-5.66-33.3-15-7.46-7.47-10.7-15.1-13.5-25.1-0.788-3.18-0.788-3.18-1.95-5.34-1.03-10.5 2.73-18.7 7-28 1.01-2.33 2.01-4.66 3-7h2c0.246-0.732 0.492-1.46 0.746-2.22 4.81-10.7 16.6-16.1 26.9-20 10.9-3.69 24.9-2.1 34.1 4.96zm-42.2 21.6c-0.894 1.2-1.75 2.43-2.56 3.69-0.69 1.05-0.69 1.05-1.39 2.13-5.66 9.38-6.42 18.1-4.61 28.9 2.56 9.1 8.82 16.4 17 21 7.94 3.89 19 3.08 27.2 0.312 8.85-3.85 12.2-10.7 15.8-19.3 0.979-3.59 0.979-3.59 1-7 0.0374-0.695 0.0748-1.39 0.113-2.11 0.349-10.7-2.58-20.7-9.68-28.8-7.61-6.44-13.4-8.76-23.5-8.54-7.55 0.922-14.2 4.17-19.3 9.79zm-30.6 20.7 1 4z" fill="#FBFCFE"/>
<path transform="translate(60,420)" d="m0 0c0.801 0.58 0.801 0.58 1.62 1.17 10.9 7.62 22.1 11.2 35.3 11 0.962-0.00292 1.92-0.00584 2.92-0.00885 2.08-0.00758 4.16-0.0198 6.24-0.0361 3.31-0.0257 6.62-0.0386 9.94-0.0483 8.24-0.0266 16.5-0.0747 24.7-0.123 6.95-0.0398 13.9-0.071 20.9-0.0911 3.23-0.0127 6.45-0.0378 9.68-0.0634 13-0.0635 25.8 0.679 38.7 2.18-2.28 1.2-4 2-6.56 2.44-2.77 0.639-3.6 1.47-5.44 3.56-0.66 0.33-1.32 0.66-2 1 0.33 0.66 0.66 1.32 1 2-2.97 0.495-2.97 0.495-6 1-0.33-0.66-0.66-1.32-1-2h3c-1.03-1.26-1.03-1.26-3.29-1.1-0.917 0.0116-1.83 0.0232-2.78 0.0352-0.919 0.00902-1.84 0.018-2.79 0.0273-0.71 0.0116-1.42 0.0232-2.15 0.0352 0.33 0.66 0.66 1.32 1 2 2.02 0.652 2.02 0.652 4 1v1c-1.79 0.168-3.58 0.334-5.38 0.5-0.998 0.0928-2 0.186-3.02 0.281-2.6 0.219-2.6 0.219-4.6 0.219 0.33 3.3 0.66 6.6 1 10h2c1.34 0.649 2.67 1.32 4 2 0.99 0.33 1.98 0.66 3 1v6h-2v-4c-0.33 1.32-0.66 2.64-1 4-0.638 0.049-1.28 0.098-1.93 0.148-0.826 0.0748-1.65 0.15-2.5 0.227-0.824 0.0696-1.65 0.139-2.5 0.211-1.02 0.205-1.02 0.205-2.07 0.414-0.33 0.66-0.66 1.32-1 2 0.99 0.681 0.99 0.681 2 1.38 0.66 0.536 1.32 1.07 2 1.62v2h3v2c0.722 0.124 1.44 0.248 2.19 0.375 2.77 0.615 5.21 1.51 7.81 2.62v1c-7.6 0.266-15.2 0.528-22.8 0.782-3.53 0.119-7.07 0.239-10.6 0.363-50 1.76-50 1.76-71.9-0.0205-1.14-0.0786-2.28-0.157-3.46-0.238-17.9-1.35-31-6.87-43.3-19.9 0.725-0.833 0.725-0.833 1.46-1.68 1.76-2.66 1.95-4.22 2.1-7.38 0.182-3.67 0.32-4.76 2.44-7.94-0.33-0.66-0.66-1.32-1-2h4c0.495-4.45 0.495-4.45 1-9 7.75-2.12 7.75-2.12 10-1-0.33-0.99-0.66-1.98-1-3 0.938-2.69 0.938-2.69 2-5 0.66 0.33 1.32 0.66 2 1 0.33-1.32 0.66-2.64 1-4z" fill="#FBFCFE"/>
<path transform="translate(1600,297)" d="m0 0v145h-13c-2.31-2.31-2.5-3.48-3.12-6.62-0.168-0.817-0.335-1.63-0.508-2.48-0.121-0.626-0.242-1.25-0.367-1.9-1.11 0.701-2.23 1.4-3.38 2.12-1.54 0.96-3.08 1.92-4.62 2.88-0.864 0.539-1.73 1.08-2.62 1.63-0.869 0.534-1.74 1.07-2.63 1.62-0.81 0.5-1.62 1-2.45 1.52-5.77 3.1-12.1 2.45-18.5 2.48-1.65 0.0309-1.65 0.0309-3.33 0.0625-12.8 0.0612-20.5-3.54-29.7-12.4-4.86-5.15-8.06-10.4-10.8-16.9-0.393-0.807-0.786-1.61-1.19-2.45-4.08-9.3-4.72-21.7-1.62-31.4 0.584-1.38 1.19-2.76 1.81-4.12 0.34-0.928 0.681-1.86 1.03-2.81 3.7-9.79 9.86-21.6 19.8-26.2 1.05-0.493 1.05-0.493 2.12-0.996 0.683-0.311 1.37-0.621 2.07-0.941 1.13-0.536 2.27-1.07 3.44-1.62 10.5-4.04 19.7-4.64 30.4-0.855 4.89 2.26 9.06 5.26 13.4 8.46 2.26 1.63 4.32 2.83 6.81 4.02-0.00999-1-0.00999-1-0.0202-2.03-0.0663-6.96-0.112-13.9-0.145-20.9-0.0151-2.6-0.0356-5.2-0.0615-7.8-0.0363-3.73-0.0534-7.46-0.0667-11.2-0.0155-1.17-0.031-2.33-0.0469-3.53-2.27e-4 -1.08-4.53e-4 -2.16-6.87e-4 -3.28-0.00999-1.43-0.00999-1.43-0.0202-2.89 0.426-2.84 1.09-3.7 3.36-5.41 4.7-1.52 8.89-1 14-1zm-17 58 1 2zm-56.3 11.6c-1.56 2.26-2.29 3.75-2.69 6.44h-2c-4.33 11.7-4.85 26.1-1 38 1.39 2.82 1.39 2.82 3 5 0.66 0.99 1.32 1.98 2 3h2c0.365 0.907 0.365 0.907 0.738 1.83 2.26 3.89 6.26 5.4 10.3 7.17 8.37 2.05 19.9 2.45 28-1 2.94-2.08 5.47-4.44 8-7 0.691-0.638 1.38-1.28 2.09-1.93 7.25-7.86 6.81-20 6.91-30.1 0.0129-0.892 0.0258-1.78 0.0391-2.7-0.385-8.24-5.5-16.4-11-22.3-6.86-6.2-16.5-7.62-25.6-7.29-9.11 1.08-14.6 4.09-20.7 10.8zm20.3 62.4v1h7v-1h-7z" fill="#FBFCFE"/>
<path transform="translate(763 351)" d="m0 0c5.85 4.63 9.14 10.8 12.5 17.3 0.414 0.788 0.828 1.58 1.25 2.39 5.84 12 6.3 25.9 2.81 38.6-1.78 4.98-4.33 9.47-7.07 14h-2c-0.235 0.731-0.469 1.46-0.711 2.21-3.44 7.43-11.8 13-19.3 15.8-7.08 2.14-14 2.33-21.4 2.31-1.06 0.0161-2.12 0.0322-3.21 0.0488-15.7 0.00962-25.3-5.48-36.8-15.6-1.65-1.73-1.65-1.73-1.65-3.73-0.99-0.33-1.98-0.66-3-1-1.5-2.19-1.5-2.19-3-5-0.495-0.908-0.99-1.82-1.5-2.75-3.36-7.27-5.08-13.8-5.06-21.8 0.00145-1.29 0.00145-1.29 0.00293-2.61 0.3-11.2 4.48-23.9 12-32.4 0.773-0.681 0.773-0.681 1.56-1.38 0.681-0.743 1.36-1.49 2.06-2.25 21.1-20.8 49.2-19.6 72.4-4.09zm-59.5 19.3c-5.39 6.6-6.39 14.1-6.38 22.4 8.86e-4 0.74 0.00177 1.48 0.00269 2.24 0.132 6.11 1.43 11 4.37 16.4 0.619 1.36 0.619 1.36 1.25 2.75 4.68 6.02 11.3 9.98 18.8 11.2 9.66 0.999 19 1.23 27-5 6.25-5.8 10.6-12.3 11.1-21 0.08-2.3 0.108-4.6 0.124-6.9 0.0206-0.777 0.0412-1.55 0.0625-2.36 0.0355-5.28-0.874-8.98-3.31-13.8-0.437-0.878-0.874-1.76-1.32-2.66-4.14-7.29-8.44-11.8-16.4-14.7-15.3-2.94-24.7 0.412-35.3 11.4z" fill="#FBFCFE"/>
<path transform="translate(647 352)" d="m0 0c4.33 4.05 8.1 8.2 9.27 14.1h2c0.735 1.97 1.47 3.94 2.2 5.91 0.605 1.59 1.25 3.15 1.92 4.71 4.27 11.6 2.96 27.2-2.12 38.4-1.25 2.4-2.6 4.68-4 7-0.413 0.825-0.825 1.65-1.25 2.5-8.27 11.8-22.7 17.7-36.4 20.2-8.71 1.14-8.71 1.14-12.4-0.691-2.16-0.268-4.33-0.514-6.5-0.75-13.9-2.04-22.8-9.44-31.5-20.2-7.99-11.7-10.6-25-9-39 2.26-11.4 7.41-22.1 16-30 0.406-0.63 0.812-1.26 1.23-1.91 17.3-20.4 52.5-15.2 70.5-0.211zm-55.2 13.7c-0.836 1.14-1.67 2.29-2.5 3.44-0.492 0.467-0.985 0.933-1.49 1.41-6.5 6.83-7.79 16-7.66 25 0.523 9.09 3.53 16.7 9.77 23.4 9.09 6.61 19.6 7.23 30.4 6.19 8.68-1.64 14.1-6.88 19-14 5.11-9.06 5.55-19.5 3.15-29.5-3.02-8.77-7.82-16.1-15.8-21-10.8-4.88-26.7-4.4-34.8 5.06z" fill="#FBFCFE"/>
<path transform="translate(1012,341)" d="m0 0c0.705 0.233 1.41 0.467 2.14 0.707 7.2 2.75 14.9 7.94 18.1 15.1 0.354 1.1 0.354 1.1 0.715 2.21h2c1.18 2.22 2.34 4.45 3.5 6.69 0.334 0.626 0.668 1.25 1.01 1.9 3.38 6.58 3.38 6.58 2.49 10.4-3.51 3.67-7.67 5.25-12.4 6.88-1.43 0.517-2.87 1.04-4.3 1.55-0.723 0.26-1.45 0.52-2.19 0.788-5.13 1.88-10.2 3.98-15.3 6.02-3.23 1.3-6.46 2.59-9.69 3.88-1.24 0.497-2.49 0.995-3.73 1.49-13.5 5.38-13.5 5.38-16.2 6.32-0.755 0.352-1.51 0.704-2.29 1.07-1.18 3.31-1.29 5.18-0.125 8.5 4.22 4.96 9.6 8.68 16.1 9.5 11.6 0.602 20.7 0.944 30-7h2c0.495-1.98 0.495-1.98 1-4 2.68-0.405 4.44-0.335 6.79 1.08 1.2 0.89 2.39 1.8 3.57 2.73 1.75 1.39 1.75 1.39 4.65 2.19v2h2c-0.25 2.88-0.25 2.88-1 6-2 1.19-2 1.19-4 2-0.495 1.49-0.495 1.49-1 3-1.32 0.685-2.66 1.35-4 2-0.598 0.619-1.2 1.24-1.81 1.88-5.88 5.71-11.4 6.75-19.4 7.73-2.74 0.236-2.74 0.236-4.79 1.39-14 1.46-27.6-2.58-38.6-11.3-9.84-7.99-17.1-16.8-19.2-29.8-1.45-17.4-0.0604-33.3 11.4-47.4 1.18-1.27 1.18-1.27 2.38-2.56 0.66-0.722 1.32-1.44 2-2.19 12.6-11.4 31.9-16.5 48-10.8zm-36 27.3c-3.76 4.74-6.1 8.07-6.15 14.3-0.0142 0.785-0.0284 1.57-0.043 2.38 0.0388 2.28 0.0388 2.28 2.23 4.06 5.8 0.248 10.8-1.51 16-4 5.14-2.37 10.3-4.52 15.6-6.5 4.77-1.81 9.06-3.79 13.4-6.5 0.419-2.79 0.419-2.79 0-6-2.29-2.79-2.29-2.79-5-5-0.66-0.66-1.32-1.32-2-2-3.98-1.12-7.88-1.17-12-1.19-1.2-0.0142-2.39-0.0284-3.62-0.043-7.62 0.52-13.4 4.94-18.4 10.5z" fill="#FBFCFE"/>
<path transform="translate(1212 307)" d="m0 0c6.05 4.9 6.05 4.9 6.66 9.68-0.175 3.01-0.641 4.34-2.06 7.12-2.44 1.94-2.44 1.94-5.56 2.25-3.58-0.782-5.75-2.71-8.5-5.06-9.65-8.21-21-10.4-33.3-10.4-0.773-0.0122-1.55-0.0245-2.34-0.0371-4.92-0.0125-9.01 0.635-13.7 2.22-0.938 0.307-1.88 0.614-2.84 0.93-7.48 2.66-13.6 5.27-19.2 11.1h-2c-0.272 0.584-0.544 1.17-0.824 1.77-1.16 2.2-2.45 3.98-3.99 5.92-11.2 14.9-13.9 30.9-11.8 49 2.44 13.7 9.39 26.5 20.8 34.7 16.5 11.3 33.1 13.8 52.8 10.3 9.68-2.44 18.9-8.73 26-15.7 2.25-0.562 2.25-0.562 5 0 3.5 2.86 5.69 5.71 6.75 10.1-1.06 4.05-3.48 5.59-6.75 7.88-1.31 1.02-2.62 2.04-3.94 3.06-13 9.63-25.4 11.8-41.2 12.6-0.946 0.0485-1.89 0.097-2.87 0.147-1.33 0.0568-1.33 0.0568-2.68 0.115-0.798 0.0344-1.6 0.0688-2.42 0.104-1.85-0.0535-1.85-0.0535-2.85-1.05-2.31-0.301-4.62-0.565-6.94-0.812-19.6-2.41-35.1-15-47-30.1-9.34-13.1-12.4-25.6-12.3-41.5-0.00773-1.06-0.0155-2.11-0.0234-3.2 0.0487-19.8 6.98-38 20.8-52.3 1.15-1.04 2.32-2.06 3.5-3.06 0.724-0.652 1.45-1.3 2.2-1.98 24.3-20.9 64.8-22.4 90.6-3.77z" fill="#FBFCFE"/>
<path transform="translate(1354,345)" d="m0 0c10.7 7.1 20.5 17.1 23.2 30 0.129 0.743 0.258 1.49 0.391 2.25 0.196 1.77 0.196 1.77 1.36 2.75 0.255 4.39 0.185 8.79 0.188 13.2 0.0122 1.23 0.0245 2.47 0.0371 3.74 0.00193 1.19 0.00387 2.39 0.00586 3.62 0.00411 1.09 0.00822 2.19 0.0125 3.31-0.258 3.34-1.06 6.02-2.24 9.14-0.268 0.763-0.536 1.53-0.812 2.31-3.32 7.51-6.7 12.6-13.2 17.7-0.681 0.701-1.36 1.4-2.06 2.12-4.72 4.57-9.34 6.54-15.8 7.56-4.46 0.408-4.46 0.408-8.19 2.31-12 1.53-28.2-1.58-38-9-2.62-2.31-2.62-2.31-5-5-0.831-0.862-0.831-0.862-1.68-1.74-9.46-10.1-12.7-21.3-12.7-34.9 0.00161-0.966 0.00322-1.93 0.00488-2.93 0.183-10.8 2.22-19.5 8.37-28.4 0.33-0.99 0.66-1.98 1-3 0.99-0.66 1.98-1.32 3-2 0.33-0.99 0.66-1.98 1-3 5.18-4.28 11-7.91 17-11 0.632-0.373 1.26-0.745 1.91-1.13 12.3-6.25 30.4-4.62 42.1 2.13zm-49.3 21.6c-1.28 1.76-2.5 3.53-3.68 5.36-0.519 0.781-1.04 1.56-1.57 2.37-4.94 9.12-4.45 22.3-2.25 32.2 2.97 8.85 9.95 16.1 18.1 20.4 9.05 3.38 20.6 2.81 29.7 0.0117 7.76-4.11 13.2-11 16.1-19.2 1.04-4.65 1.15-8.96 1.11-13.7 0.00773-0.847 0.0155-1.69 0.0234-2.57-0.0329-10.7-2.17-18.3-9.27-26.6-6.08-5.99-14.5-10-23.1-10.4-9.16 1.03-19.3 4.71-25.2 12.1z" fill="#FBFCFE"/>
<path transform="translate(1406 344)" d="m0 0c1.08 0.018 2.16 0.0361 3.27 0.0547 1.23 0.0348 1.23 0.0348 2.48 0.0703 1.23 2.45 1.14 4.08 1.17 6.82 0.0135 1.01 0.027 2.01 0.0409 3.05 0.0104 1.1 0.0209 2.19 0.0316 3.32 0.033 2.33 0.0662 4.66 0.0996 6.99 0.047 3.67 0.0913 7.33 0.131 11-1.01 24.9-1.01 24.9 6.52 47.8 2.33 1.81 2.33 1.81 4.94 2.88 0.834 0.389 1.67 0.779 2.53 1.18 7.22 2.69 15.1 3.26 22.3 0.258 3.95-1.97 7.09-4.23 10.2-7.31 0.495-1.49 0.495-1.49 1-3 0.66-0.33 1.32-0.66 2-1 1.07-3.21 1.18-5.66 1.27-9.04 0.0335-1.24 0.067-2.49 0.102-3.77 0.0238-0.997 0.0238-0.997 0.0481-2.01 0.0503-2.09 0.107-4.17 0.166-6.26 0.166-5.93 0.322-11.9 0.469-17.8 0.0906-3.63 0.19-7.26 0.295-10.9 0.0382-1.38 0.0728-2.76 0.104-4.14 0.0437-1.93 0.0999-3.87 0.157-5.8 0.0281-1.1 0.0561-2.2 0.0851-3.33 0.318-3.05 0.859-5.27 2.31-7.97 2.94-0.981 4.99-1.16 8.06-1.19 1.32-0.0213 1.32-0.0213 2.66-0.043 2.28 0.23 2.28 0.23 4.28 2.23 0.188 3.01 0.252 5.93 0.227 8.95 2.92e-4 0.927 5.84e-4 1.85 8.85e-4 2.81-0.0014 3.07-0.017 6.15-0.0326 9.22-0.00373 2.13-0.00658 4.25-0.00858 6.38-0.00765 5.61-0.0273 11.2-0.0494 16.8-0.0204 5.72-0.0296 11.4-0.0397 17.2-0.0215 11.2-0.0556 22.4-0.0977 33.7-2.48 1.24-4.24 1.17-7 1.19-0.887 0.0142-1.77 0.0284-2.69 0.043-2.31-0.23-2.31-0.23-4.31-2.23-0.856-2.63-1.39-5.3-2-8-4.56 1.27-7.41 2.95-11 6-8.07 6.34-17.9 7.96-28 7-0.495-0.495-0.495-0.495-1-1-1.52-0.272-3.04-0.517-4.56-0.75-5.15-0.978-9.45-2.78-13.4-6.25v-2h-2c-8.19-8.38-11.1-19.2-11.1-30.6 7.55e-5 -1.3 1.51e-4 -2.6 2.29e-4 -3.94 0.00511-1.4 0.0103-2.81 0.0156-4.21 0.00187-1.45 0.00329-2.9 0.00429-4.35 0.0038-3.8 0.0136-7.6 0.0247-11.4 0.0103-3.88 0.0148-7.76 0.0198-11.6 0.0107-7.6 0.0277-15.2 0.0488-22.8 3.62-1.97 6.11-2.22 10.2-2.12zm-9.25 2.12v6h1v-6h-1z" fill="#FBFCFE"/>
<path transform="translate(934,286)" d="m0 0c0.388 2.19 0.388 2.19 0.405 4.96 0.014 1.05 0.028 2.1 0.0424 3.18 1.36e-4 1.16 2.72e-4 2.32 4.12e-4 3.51 0.0177 1.83 0.0177 1.83 0.0358 3.69 0.0293 3.35 0.0453 6.7 0.055 10.1 0.0131 3.53 0.0423 7.06 0.0694 10.6 0.0434 5.95 0.0754 11.9 0.1 17.9 0.0282 6.81 0.0703 13.6 0.121 20.4 0.0546 7.31 0.0999 14.6 0.142 21.9 0.0124 2.07 0.0263 4.14 0.0405 6.21 0.116 17.6-0.163 35-1.01 52.6-0.711 0.0126-1.42 0.0251-2.15 0.0381-0.933 0.0167-1.87 0.0333-2.83 0.0505-1.39 0.0247-1.39 0.0247-2.8 0.0498-1.95 0.037-3.9 0.0824-5.86 0.132-0.848 0.00749-1.7 0.015-2.57 0.0227-1.3 0.0236-1.3 0.0236-2.63 0.0476-0.711-0.112-1.42-0.225-2.15-0.341-2.32-3.47-2.25-4.81-2.26-8.91-0.00708-1.23-0.0142-2.47-0.0215-3.74 0.00229-1.37 0.0048-2.74 0.00751-4.11-0.00435-1.44-0.00953-2.88-0.0155-4.32-0.0134-3.92-0.014-7.83-0.0114-11.7 0.00107-3.27-0.00381-6.54-0.00861-9.8-0.0111-7.71-0.0115-15.4-0.00549-23.1 0.00604-7.95-0.00627-15.9-0.0276-23.9-0.0176-6.83-0.0236-13.7-0.0204-20.5 0.00181-4.08-8.3e-4 -8.16-0.0147-12.2-0.0126-3.84-0.0106-7.67 0.00241-11.5 0.00237-1.41-3.74e-4 -2.81-0.00862-4.22-0.0105-1.92-5.7e-4 -3.85 0.0103-5.77-1.68e-4 -1.08-3.35e-4 -2.15-5.08e-4 -3.26 0.431-3.34 1.38-5.21 3.37-7.9 5.79-3.04 14.5-3.66 20 0zm-22 5v56h1v-56h-1z" fill="#FCFDFF"/>
<path transform="translate(1250 298)" d="m0 0c1.09 0.0232 2.18 0.0464 3.3 0.0703 1.1 0.018 2.19 0.0361 3.32 0.0547 0.843 0.0232 1.69 0.0464 2.55 0.0703 3.07 5.93 3.42 10.8 3.36 17.4 0.00204 1.02 0.00409 2.04 0.0062 3.09 3e-3 3.37-0.0155 6.74-0.0345 10.1-0.00306 2.37-0.00494 4.74-0.00568 7.11-0.0046 4.98-0.019 9.95-0.0412 14.9-0.028 6.3-0.0392 12.6-0.0437 18.9-0.00523 6.09-0.0197 12.2-0.0344 18.3-0.00188 1.12-0.00376 2.25-0.0057 3.41-0.0359 16.6-0.484 33.2-1.2 49.8-3.35 0.906-6.27 1.1-9.75 1.06-0.985-0.00902-1.97-0.018-2.98-0.0273-1.12-0.0174-1.12-0.0174-2.27-0.0352v-2h-2c-0.0235-12.6-0.0411-25.3-0.0518-37.9-0.00514-5.88-0.0121-11.8-0.0236-17.6-0.0853-44.8-0.0853-44.8 0.398-66.2 0.0372-1.65 0.0714-3.3 0.102-4.95 0.044-2.23 0.101-4.47 0.163-6.7 0.031-1.24 0.062-2.48 0.094-3.76 0.433-3.91 1.19-4.79 5.14-5.06z" fill="#FBFCFE"/>
<path transform="translate(1218 485)" d="m0 0c4.19 3.56 7.72 6.88 9.46 12.2 0.188 3.38 0.188 3.38 0 6-3.7-0.271-5.53-0.557-8.27-3.14-0.694-0.88-1.39-1.76-2.1-2.67-4.51-5.27-8.13-8.52-15.1-9.55-6.07-0.312-9.52 1.03-14.5 4.37h-2c-1.86 5.71-3.24 10.9-0.938 16.7 5.42 6.47 14.3 8.21 22.1 10.5 7.63 2.39 15.5 6.46 20 13.4 2.15 6.07 2.2 13.2 0.863 19.4-2.38 4.87-5.39 8.02-10.5 9.94-2.17 0.498-4.29 0.788-6.5 1.06-0.33 0.33-0.66 0.66-1 1-5.87 0.412-11.4-0.243-17.2-1.25-0.677-0.109-1.35-0.218-2.05-0.331-6.94-1.3-12.4-4.92-16.8-10.4-1.1-3.86-1.29-7.14 0-11 2.06-0.688 2.06-0.688 4-1 0.364 0.748 0.727 1.5 1.1 2.27 3.88 7.84 3.88 7.84 10.9 12.7 2.81 0.562 5.18 0.885 8 1 0.821 0.04 1.64 0.0799 2.49 0.121 6.28 0.162 12 0.158 16.9-4.31 2-3.47 2.56-5.8 2.62-9.81-1.62-5.31-3.49-7.86-8-11-3.28-1.43-3.28-1.43-6.81-2.56-1.24-0.424-2.47-0.848-3.75-1.29-1.14-0.38-2.27-0.761-3.44-1.15-8.99-3.02-17.1-7.35-23-15-1.87-5.52-1.77-10.9 0.688-16.2 4.04-7.2 9.69-10.9 17.4-13.5 8.84-2.45 17.8-1.89 25.5 3.46z" fill="#FBFCFE"/>
<path transform="translate(1516 503)" d="m0 0c1.12-0.0258 2.24-0.0516 3.4-0.0781 6.37 0.648 9.71 4.54 13.6 9.21 5.09 6.84 5.76 14.3 5.77 22.6 0.0122 0.738 0.0245 1.48 0.0371 2.24 0.012 4.51-0.511 8.08-2.22 12.3-0.425 1.07-0.425 1.07-0.859 2.16-2.3 4.92-4.61 7.79-9.14 10.8-8.76 2.27-17.7 0.918-26.4-0.66-0.843-0.112-1.69-0.224-2.55-0.34-1.74 1.74-1.36 4.19-1.54 6.57-0.131 1.69-0.131 1.69-0.264 3.41-0.087 1.18-0.174 2.37-0.264 3.59-0.0909 1.19-0.182 2.38-0.275 3.6-0.225 2.95-0.445 5.89-0.662 8.84h-5c-1.49-2.97-1.14-6-1.13-9.26-0.00175-0.748-0.0035-1.5-0.00531-2.27-0.00441-2.48-0.00148-4.96 0.00189-7.44-6.73e-4 -1.72-0.00164-3.44-0.0029-5.16-0.00148-3.6 6.74e-4 -7.21 0.00534-10.8 0.0057-4.63 0.00242-9.25-0.00357-13.9-0.00361-3.55-0.00247-7.1 1.28e-4 -10.6 6.68e-4 -1.71-1.56e-4 -3.41-0.00248-5.12-0.00253-2.38 0.00132-4.76 0.0069-7.15-0.00202-0.71-0.00405-1.42-0.00613-2.15 0.0213-4.88 0.0213-4.88 1.14-7.11 1.21 0.16 1.21 0.16 2.45 0.324 1.6 0.18 1.6 0.18 3.24 0.363 1.06 0.128 2.11 0.255 3.2 0.387 3.63-0.0865 5.17-1.04 8.11-3.07 3.3-1.1 5.9-1.2 9.38-1.25zm-10.5 8.06c-0.848 0.336-1.7 0.673-2.57 1.02-3.82 1.94-5.69 4.24-7.3 8.17-0.455 4.45-0.37 8.91-0.375 13.4-0.0245 1.22-0.049 2.44-0.0742 3.7-0.0865 8.8-0.0865 8.8 4.45 15.9 6.35 4.6 13.4 4.78 21 4 3.25-1.62 3.25-1.62 5-4v-2h2c2.75-9.78 4.53-23.9-0.164-33.3-3.54-4.65-6.18-7.03-11.8-8.67-3.84-0.282-6.57 0.363-10.1 1.81z" fill="#FAFBFD"/>
<path transform="translate(1321,508)" d="m0 0c5.16 6.37 5.31 14.9 5.41 22.8 0.0194 0.899 0.0387 1.8 0.0587 2.72 0.0593 2.84 0.106 5.68 0.152 8.53 0.0382 1.94 0.0773 3.88 0.117 5.82 0.0955 4.73 0.18 9.46 0.258 14.2-7.69 0.0781-7.69 0.0781-10.5-0.625-2.98-0.448-5.13 0.338-7.99 1.13-7.82 1.54-16.6 1.83-23.5-2.51-4.82-5.07-5.39-9.37-5.25-16.1 0.389-4.44 1.05-7.63 4.25-10.9 10.4-5.88 21.4-6.19 33-6-0.242-6.8-0.242-6.8-2.75-13-4.21-3.74-8.31-4.55-13.8-4.46-5.32 1.01-9.66 4.71-13.4 8.46-2.62-0.375-2.62-0.375-5-1 0.418-4.88 2.32-6.88 6-10 9.89-6.89 23.7-7.24 33 1zm-34.2 32.3c-1.11 3.66-0.801 6 0.188 9.69 2.44 3.92 4.49 5.92 9 7 7.24 0.57 13.1 0.403 18.9-4.38 3-3.9 2.64-8.19 2.59-12.9-0.296-2.66-0.296-2.66-1.56-4.54-7.96-4.85-23-1.31-29.1 5.15z" fill="#FAFBFD"/>
<path transform="translate(1076 505)" d="m0 0c6.96 4.55 11.6 12.3 13.8 20.2 1.02 9.71 0.436 19.1-4 28h-2c-0.0928 0.928-0.0928 0.928-0.188 1.88-0.812 2.12-0.812 2.12-3.38 3.38-0.804 0.247-1.61 0.495-2.44 0.75v2c-8.48 2.77-18.9 3.63-27.6 1-6.15-3.58-11.9-9.92-14-16.9-0.754-3.6-0.668-7.19-0.692-10.9-0.0206-0.773-0.0412-1.55-0.0625-2.34-0.0618-9.2 3.38-15.8 8.94-23 8.58-6.77 21.5-8.61 31.6-4.03zm-28 11.3c-4.72 11.4-5.82 22.2-1.19 33.9 3.56 4.78 8.13 7.12 14 8 3.7-0.145 7.33-0.51 11-1 0.33-0.99 0.66-1.98 1-3 0.928-0.155 0.928-0.155 1.88-0.312 2.44-0.536 2.44-0.536 3.81-3.44 3.34-8.28 4.11-20.4 1-28.9-0.557-1.09-1.11-2.19-1.69-3.31-0.619-1.36-0.619-1.36-1.25-2.75-3.03-3.89-6.37-5.83-11.1-6.67-7.37-0.408-12.6 1.93-17.4 7.55z" fill="#FBFCFE"/>
<path transform="translate(1427,504)" d="m0 0c1.65 0.33 3.3 0.66 5 1-0.0209 1.16-0.0419 2.33-0.0635 3.53-0.0729 4.36-0.118 8.71-0.156 13.1-0.02 1.88-0.0472 3.76-0.082 5.64-0.049 2.71-0.0713 5.43-0.0889 8.14-0.031 1.24-0.031 1.24-0.0626 2.51-0.00228 6.03 1.31 10.9 4.45 16.1 5.25 3.65 12.5 2.2 18.4 1.12 2.49-0.428 2.49-0.428 4.56-1.12 1.15-2.31 1.14-3.65 1.16-6.22 0.0154-1.31 0.0154-1.31 0.0311-2.64 0.0073-0.943 0.0146-1.89 0.0221-2.86 0.0281-1.99 0.0567-3.97 0.0859-5.96 0.0413-3.14 0.0782-6.28 0.104-9.41 0.0275-3.02 0.0734-6.05 0.122-9.07 0.00325-0.941 0.00651-1.88 0.00986-2.85 0.0166-0.874 0.0331-1.75 0.0502-2.65 0.00809-0.769 0.0162-1.54 0.0245-2.33 0.496-2.55 1.34-3.45 3.39-5.02 2.56-0.312 2.56-0.312 5 0 2 2 2 2 2.24 4.33-0.00666 1.46-0.00666 1.46-0.0135 2.95-1.51e-4 1.1-3.02e-4 2.2-4.58e-4 3.34-0.0103 1.19-0.0206 2.39-0.0313 3.61-0.00283 1.22-0.00566 2.44-0.00858 3.69-0.0112 3.9-0.0363 7.81-0.0617 11.7-0.01 2.64-0.0192 5.28-0.0273 7.92-0.0221 6.48-0.0556 13-0.0977 19.5-1-0.0116-2-0.0232-3.04-0.0352-1.34-0.00939-2.68-0.0185-4.03-0.0273-1.31-0.0116-2.62-0.0232-3.97-0.0352-3.74 0.0922-7.27 0.512-11 1.1-6.27 0.34-12.2 0.599-18-2v-2h-2c-4.19-5.99-4.54-10.5-4.39-17.7 0.00566-1.01 0.0113-2.02 0.0172-3.06 0.0223-3.21 0.0725-6.42 0.123-9.63 0.0201-2.18 0.0383-4.37 0.0547-6.55 0.044-5.34 0.111-10.7 0.195-16h2v-2z" fill="#FBFCFE"/>
<path transform="translate(1590,506)" d="m0 0v2c0.598 0.0619 1.2 0.124 1.81 0.188 2.19 0.812 2.19 0.812 3.94 3.06 1.31 2.87 1.52 4.64 1.25 7.75-5.52-0.394-7.91-2.42-12-6-5.29-3.57-10.8-4.02-17-3-3.49 2.68-3.89 4.24-4.5 8.56 0.61 4.19 1.17 4.89 4.5 7.44 3.23 1.25 6.53 2.12 9.88 3 8.66 2.29 14.7 4.41 20.1 12 1.75 3.5 1.56 7.18 1 11-1.97 4.13-4.99 7.74-9 10-4.59 1.23-9.16 1.22-13.9 1.25-0.777 0.0206-1.55 0.0412-2.36 0.0625-6.56 0.0441-11.9-1.42-17.1-5.56-2.62-2.75-2.62-2.75-3.75-6.31 0.125-3.44 0.125-3.44 2.06-5.88 0.681-0.516 1.36-1.03 2.06-1.56 0.352 0.531 0.704 1.06 1.07 1.61 3.23 4.62 6.3 8.82 11.9 10.4 6.25 0.757 11.9 1.27 17.4-2 2.28-4.2 2.38-6.25 1.62-11-3.47-3.47-6.41-4.62-11.2-5.5-9.1-1.94-16.6-3.78-22.6-11.3-2.09-3.69-1.9-5.97-1.22-10.2 1.99-5.44 7.26-8.95 12-12 7.86-2.8 16.6-1.4 24 2z" fill="#FAFBFD"/>
<path transform="translate(1392,489)" d="m0 0c4.75 0.75 4.75 0.75 7 3 0.195 2.6 0.195 2.6 0.125 5.62-0.018 1-0.0361 2.01-0.0547 3.04-0.0232 0.771-0.0464 1.54-0.0703 2.34h8c0.33 0.99 0.66 1.98 1 3h2v2c-3.3 1.32-6.6 2.64-10 4-0.33 14.2-0.66 28.4-1 43 4.45 0.99 4.45 0.99 9 2 1 1 1 1 1.06 3.56-0.0206 0.804-0.0412 1.61-0.0625 2.44-2.25-0.0331-4.5-0.103-6.75-0.188-1.25-0.0348-2.51-0.0696-3.8-0.105-3.45-0.707-3.45-0.707-5.84-3.01-5.7-9.55-3.84-24.3-4.17-35-0.0434-1.34-0.087-2.68-0.131-4.01-0.105-3.22-0.207-6.45-0.307-9.67-2.31-0.33-4.62-0.66-7-1-0.33-0.99-0.66-1.98-1-3 2-3 2-3 5-3.62 1.48-0.186 1.48-0.186 3-0.375 0.66-0.33 1.32-0.66 2-1 0.693-3.04 0.693-3.04 1.12-6.56 0.168-1.2 0.335-2.4 0.508-3.63 0.121-0.927 0.242-1.85 0.367-2.81zm9 15v1h6v-1h-6z" fill="#FAFBFD"/>
<path transform="translate(1249,489)" d="m0 0c2.97 0.495 2.97 0.495 6 1v13c3.3 0.66 6.6 1.32 10 2 0.33 1.65 0.66 3.3 1 5-0.638 0.0606-1.28 0.121-1.93 0.184-1.24 0.126-1.24 0.126-2.5 0.254-1.24 0.122-1.24 0.122-2.5 0.246-2.05 0.106-2.05 0.106-3.07 1.32-0.0927 1.35-0.117 2.71-0.114 4.06 1.13e-4 1.29 1.13e-4 1.29 2.29e-4 2.61 0.00516 0.935 0.0103 1.87 0.0156 2.83 0.00212 1.43 0.00212 1.43 0.00429 2.89 0.00562 3.06 0.0182 6.11 0.0309 9.17 0.00501 2.07 0.00958 4.13 0.0137 6.2 0.0111 5.08 0.0283 10.2 0.0488 15.2 0.94 0.182 0.94 0.182 1.9 0.367 0.817 0.168 1.63 0.335 2.48 0.508 0.812 0.162 1.62 0.325 2.46 0.492 2.16 0.633 2.16 0.633 4.16 2.63v3c-5.36 1.03-10.7 1.45-16 0-4.53-3.57-5.09-9.58-6-15-0.0797-2.2-0.108-4.41-0.0977-6.61 0.00322-1.25 0.00645-2.49 0.00977-3.78 0.0126-1.94 0.0126-1.94 0.0254-3.92 0.00677-1.97 0.00677-1.97 0.0137-3.98 0.0118-3.24 0.0282-6.47 0.0488-9.71h1c-0.33-2.97-0.66-5.94-1-9h-7c-0.66-1.32-1.32-2.64-2-4 3.45-2.3 5.94-2.47 10-3 1.8-1.8 1.34-4.57 1.5-7 0.389-5.89 0.389-5.89 1.5-7z" fill="#FAFBFD"/>
<path transform="translate(118,324)" d="m0 0c11.2 2.95 19.5 10.7 27.6 18.6 1.38 2.44 1.38 2.44 1.75 5.69-2.6 7.1-9.43 11.4-15.4 15.8-2.87-4.75-2.87-4.75-4-7-0.626 0.0232-1.25 0.0464-1.9 0.0703-0.817 0.018-1.63 0.0361-2.48 0.0547-0.812 0.0232-1.62 0.0464-2.46 0.0703-2.16-0.195-2.16-0.195-4.16-2.2 0.375-2.62 0.375-2.62 1-5h2c-0.495-1.11-0.99-2.23-1.5-3.38-1.61-4.22-1.72-7.86-1.51-12.3 0.104-2.3 0.104-2.3-0.543-4.45-0.615-2.52 0.24-3.68 1.55-5.84z" fill="#FBFCFE"/>
<path transform="translate(1026,477)" d="m0 0c0.495 2.48 0.495 2.48 1 5-0.592 0.182-1.18 0.364-1.79 0.551-7.86 2.22-7.86 2.22-13.6 7.64-0.862 3.88-0.288 6.9 0.375 10.8 5.45 1.98 5.45 1.98 11 4-0.33 1.65-0.66 3.3-1 5h-3c-0.495-0.495-0.495-0.495-1-1v1c-1.98 0.66-3.96 1.32-6 2-0.0251 1.23-0.0501 2.45-0.0759 3.71-0.0947 4.58-0.195 9.16-0.296 13.7-0.0431 1.98-0.0848 3.95-0.125 5.93-0.0583 2.85-0.122 5.7-0.186 8.56-0.0251 1.31-0.0251 1.31-0.0506 2.64-0.131 5.53-0.585 10.9-1.27 16.4h-4c-1.19-2.39-1.15-3.92-1.19-6.59-0.0251-1.43-0.0251-1.43-0.0507-2.88-0.0136-1.03-0.0272-2.06-0.0411-3.12-0.0184-1.06-0.0368-2.11-0.0558-3.2-0.0589-3.38-0.112-6.77-0.163-10.1-0.0676-4.45-0.141-8.89-0.219-13.3-0.0136-1.03-0.0272-2.06-0.0411-3.12-0.0167-0.954-0.0334-1.91-0.0507-2.89-0.0125-0.84-0.0251-1.68-0.038-2.55-0.0736-2.35-0.0736-2.35-1.15-5.17-0.928 0.0206-1.86 0.0412-2.81 0.0625-3.19-0.0625-3.19-0.0625-6.19-1.06 0.5-1.88 0.5-1.88 2-4 2.65-0.985 5.21-1.46 8-2-0.33-0.66-0.66-1.32-1-2-0.675-6.91 1.44-13.4 5.62-18.9 4.45-4.77 11-7.38 17.4-5.12zm-22 18v5h1v-5h-1z" fill="#FBFCFE"/>
<path transform="translate(1517 503)" d="m0 0c1.64-0.0251 1.64-0.0251 3.32-0.0508 6.29 0.732 9.65 4.62 13.5 9.24 5.09 6.84 5.76 14.3 5.77 22.6 0.0122 0.738 0.0245 1.48 0.0371 2.24 0.012 4.51-0.511 8.08-2.22 12.3-0.425 1.07-0.425 1.07-0.859 2.16-2.3 4.92-4.61 7.79-9.14 10.8-3.64 0.978-7.05 1.11-10.8 1.06-0.976-0.00902-1.95-0.018-2.96-0.0273-0.736-0.0116-1.47-0.0232-2.23-0.0352v-1c3.63-0.66 7.26-1.32 11-2-1.58 0.0309-1.58 0.0309-3.19 0.0625-3.14-0.0515-5.78-0.328-8.81-1.06v-1c0.664-0.0258 1.33-0.0516 2.01-0.0781 5.51-0.354 9.03-0.708 13-4.92 0.33-0.66 0.66-1.32 1-2h2c2.77-18 2.77-18-2.12-34.8-2.7-3.41-5.58-5.39-9.88-6.25-3.68-0.219-7.32-0.18-11 0 4.07-2.71 7.15-2.58 12-3h-13v-2c4.32-1.63 7.95-2.3 12.6-2.31z" fill="#FBFCFE"/>
<path transform="translate(1131,504)" d="m0 0c0.33 1.65 0.66 3.3 1 5-0.784 0.248-1.57 0.495-2.38 0.75-3 1.04-5.97 2.11-8.94 3.25-1.29 0.495-1.29 0.495-2.61 1-2.24 0.819-2.24 0.819-3.07 3-0.146 1.45-0.236 2.9-0.297 4.36-0.04 0.901-0.0799 1.8-0.121 2.73-0.0386 0.974-0.0772 1.95-0.117 2.95-0.043 0.996-0.086 1.99-0.13 3.02-0.137 3.19-0.267 6.38-0.397 9.57-0.0914 2.16-0.183 4.32-0.275 6.48-0.225 5.3-0.446 10.6-0.662 15.9-2.33 0.0424-4.67 0.0409-7 0-1.68-1.68-1.13-3.74-1.13-6.04-0.00315-1.07-0.0063-2.15-0.00955-3.26 0.00202-1.17 0.00405-2.34 0.00613-3.54-9.57e-4 -1.19-0.00191-2.38-0.0029-3.61-6.82e-4 -2.53 0.00117-5.06 0.00534-7.58 0.00534-3.88 5.84e-5 -7.76-0.00635-11.6 6.61e-4 -2.45 0.00194-4.9 0.00391-7.35-0.00202-1.17-0.00405-2.34-0.00613-3.54 0.00473-1.62 0.00473-1.62 0.00955-3.27 7.96e-4 -0.952 0.00159-1.9 0.00241-2.88 0.127-2.28 0.127-2.28 1.13-4.28 7.75 0.875 7.75 0.875 10 2 1.94-0.505 1.94-0.505 4-1.38 0.701-0.276 1.4-0.552 2.12-0.836 3.62-1.52 4.95-1.72 8.88-0.789z" fill="#FBFCFE"/>
<path transform="translate(46.8 339)" d="m0 0c4.37 1.26 8.72 1.6 13.2 1.94 0.66 2.64 1.32 5.28 2 8-3.64 2.43-5.71 2.16-10 2v2c-0.66 0.66-1.32 1.32-2 2v2h-2v2c-4.78 2.91-7.55 3.2-13 2-0.33-1.98-0.66-3.96-1-6-4.46-0.99-4.46-0.99-9-2 0.47-4.23 0.919-6.14 4-9 1.52-1.81 3.01-3.64 4.5-5.48 4.18-4.24 8.49-1.3 13.2 0.539z" fill="#FBFCFE"/>
<path transform="translate(1371,504)" d="m0 0c0.33 1.65 0.66 3.3 1 5-1.42 0.34-1.42 0.34-2.88 0.688-6.33 1.82-13.8 4.32-17.1 10.3-0.48 3.19-0.489 6.36-0.512 9.58-0.0269 1.39-0.0269 1.39-0.0544 2.81-0.0541 2.95-0.088 5.91-0.121 8.86-0.0332 2.01-0.0677 4.01-0.104 6.02-0.0849 4.91-0.152 9.82-0.209 14.7-2.38 0.125-2.38 0.125-5 0-2-2-2-2-2.25-4.25 0.00143-0.934 0.00285-1.87 0.00432-2.83-0.00308-1.06-0.00615-2.12-0.00932-3.21 0.00719-1.15 0.0144-2.29 0.0218-3.47 6.87e-4 -1.76 6.87e-4 -1.76 0.00139-3.55 0.00303-2.48 0.0109-4.96 0.0233-7.44 0.0183-3.81 0.0205-7.62 0.0203-11.4 0.00492-2.4 0.0107-4.81 0.0176-7.21 0.00111-1.15 0.00223-2.3 0.00337-3.48 0.00638-1.05 0.0128-2.11 0.0193-3.2 0.00381-0.933 0.00762-1.87 0.0116-2.83 0.134-2.12 0.134-2.12 1.13-3.12 3.13-0.0264 6.24 0.0288 9.37 0.127 6.05 0.101 10.5-2.36 16.6-2.13z" fill="#FAFBFD"/>
<path transform="translate(1427,504)" d="m0 0c1.65 0.33 3.3 0.66 5 1-0.0209 1.16-0.0419 2.33-0.0635 3.53-0.0729 4.36-0.118 8.71-0.156 13.1-0.02 1.88-0.0472 3.76-0.082 5.64-0.049 2.71-0.0713 5.43-0.0889 8.14-0.031 1.24-0.031 1.24-0.0626 2.51-0.00226 5.99 1.23 11 4.45 16.1 2.7 1.88 2.7 1.88 5.75 2.56 0.985 0.29 1.97 0.58 2.98 0.879 0.748 0.184 1.5 0.369 2.27 0.559v2c0.66 0.33 1.32 0.66 2 1v2c-12.7 0.369-12.7 0.369-18-2v-2h-2c-4.19-5.99-4.54-10.5-4.39-17.7 0.00566-1.01 0.0113-2.02 0.0172-3.06 0.0223-3.21 0.0725-6.42 0.123-9.63 0.0201-2.18 0.0383-4.37 0.0547-6.55 0.044-5.34 0.111-10.7 0.195-16h2v-2z" fill="#FBFCFE"/>
<path transform="translate(1311,528)" d="m0 0c1.69 2.06 1.69 2.06 3 4-0.33 0.66-0.66 1.32-1 2-2.14 0.235-4.29 0.361-6.44 0.438-9.16 0.334-9.16 0.334-17.6 3.56-1.31 2.28-1.95 4.27-2.5 6.84-0.5 2.16-0.5 2.16-2.5 5.16v-3h-2v6c-0.66-0.33-1.32-0.66-2-1-0.791-12-0.791-12 2.29-17.3 5.86-5.9 15.5-7.23 23.5-7.78 2.24 0.0547 2.24 0.0547 5.24 1.05z" fill="#F9FAFC"/>
<path transform="translate(247,414)" d="m0 0c0.99 0.33 1.98 0.66 3 1 0.201 3.72 0.152 4.77-2 8-0.205 2.8-0.263 4.47 1 7h-3v2c0.99 0.33 1.98 0.66 3 1-1.05-0.0619-2.1-0.124-3.19-0.188-3.75-0.146-3.75-0.146-6.12 1.75-4.15 2.22-8.18 1.41-12.7 0.438-2.31-1.05-2.31-1.05-4-2 0.545-0.208 1.09-0.415 1.65-0.629 9.68-3.95 16.6-9.66 22.3-18.4z" fill="#FBFCFE"/>
<path transform="translate(1026,477)" d="m0 0c0.33 1.65 0.66 3.3 1 5-0.592 0.182-1.18 0.364-1.79 0.551-6.46 1.99-6.46 1.99-12.2 5.45-1.35 2.57-1.35 2.57-2 5h-2v8c-0.66-1.32-1.32-2.64-2-4-0.33 1.65-0.66 3.3-1 5-0.99-0.33-1.98-0.66-3-1-0.538-6.99 1.39-13.3 5.62-18.9 4.45-4.77 11-7.38 17.4-5.12zm-22 18v5h1v-5h-1z" fill="#F8F9FB"/>
<path transform="translate(1590,506)" d="m0 0v2c0.598 0.0619 1.2 0.124 1.81 0.188 2.19 0.812 2.19 0.812 3.94 3.06 1.31 2.87 1.52 4.64 1.25 7.75-5.52-0.394-7.91-2.42-12-6-5.37-3.5-10.8-3.68-17-4v-1c5.94-0.495 5.94-0.495 12-1-6.93-0.495-6.93-0.495-14-1v-2c8.19-2.42 16.4-1.53 24 2z" fill="#FBFCFE"/>
<path transform="translate(1282,547)" d="m0 0h5c0.371 0.928 0.743 1.86 1.12 2.81 2.3 3.91 3.62 4.72 7.88 6.19 3.33 0.507 6.64 0.807 10 1-2 3-2 3-4.62 3.69-0.784 0.103-1.57 0.206-2.38 0.312l4 2c-8.2 0.401-14.1 0.431-20.5-5.19-2.15-4.02-1.4-6.4-0.5-10.8z" fill="#FBFCFE"/>
<path transform="translate(914,290)" d="m0 0v62c-0.99-0.33-1.98-0.66-3-1v-60c2-1 2-1 3-1z" fill="#EEEFF1"/>
<path transform="translate(1008,513)" d="m0 0h1c1.19 34.5 1.19 34.5 1 50h-2c-0.801-6.63-1.1-13.1-0.879-19.7 0.0236-0.874 0.0472-1.75 0.0715-2.65 0.0757-2.75 0.16-5.5 0.245-8.25 0.0533-1.88 0.106-3.76 0.158-5.64 0.128-4.58 0.264-9.15 0.404-13.7z" fill="#EFF0F2"/>
<path transform="translate(1131,504)" d="m0 0c0.33 1.65 0.66 3.3 1 5-5.13 2.1-9.56 2.22-15 2 0.66-0.33 1.32-0.66 2-1v-2c-0.99-0.33-1.98-0.66-3-1 0.831-0.307 0.831-0.307 1.68-0.621 0.724-0.269 1.45-0.539 2.2-0.816 0.719-0.267 1.44-0.534 2.18-0.809 3.67-1.42 4.99-1.69 8.95-0.754z" fill="#F7F8FA"/>
<path transform="translate(1189,559)" d="m0 0h24c-4 5-4 5-6.11 5.56-6.96-0.383-12.2-1.27-17.9-5.56z" fill="#F4F5F7"/>
<path transform="translate(1311,528)" d="m0 0c1.69 2.06 1.69 2.06 3 4-0.33 0.66-0.66 1.32-1 2-2.94 0.414-2.94 0.414-6.56 0.625-1.2 0.0748-2.4 0.15-3.63 0.227-1.39 0.0735-1.39 0.0735-2.81 0.148v-2c-2.31 0.33-4.62 0.66-7 1 0.33-0.66 0.66-1.32 1-2 2.07-0.633 2.07-0.633 4.56-1.12 0.826-0.168 1.65-0.335 2.5-0.508 0.957-0.182 0.957-0.182 1.93-0.367-0.99-0.66-1.98-1.32-3-2 7.62-1.12 7.62-1.12 11 0z" fill="#EEEFF1"/>
<path transform="translate(1427,504)" d="m0 0c2.47 0.495 2.47 0.495 5 1l-2 1c0.0116 0.972 0.0232 1.94 0.0352 2.95 0.0948 12-0.404 24-1.04 36.1h-1c-0.33-13.5-0.66-27.1-1-41z" fill="#EEEFF1"/>
<path transform="translate(1371,504)" d="m0 0c0.33 1.32 0.66 2.64 1 4-0.568 0.121-1.14 0.242-1.72 0.367-4.82 1.05-9.55 2.22-14.3 3.63 0.33-0.66 0.66-1.32 1-2h2c0.0825-0.619 0.165-1.24 0.25-1.88 0.75-2.12 0.75-2.12 2.38-3.38 3.18-1 6.07-0.877 9.38-0.75z" fill="#F6F7F9"/>
<path transform="translate(1510 506)" d="m0 0c1.26 0.018 2.53 0.0361 3.83 0.0547 0.964 0.0232 1.93 0.0464 2.92 0.0703 0.33 0.66 0.66 1.32 1 2-3.3 0.33-6.6 0.66-10 1 0.33 0.66 0.66 1.32 1 2-2.97 0.66-5.94 1.32-9 2-0.33-1.65-0.66-3.3-1-5 3.7-2.38 6.93-2.21 11.2-2.12z" fill="#EEEFF1"/>
<path transform="translate(1400,503)" d="m0 0h7c0.33 0.99 0.66 1.98 1 3h2v2c-4.45 1.49-4.45 1.49-9 3-1-4-1-4-1-8zm1 1v1h6v-1h-6z" fill="#EEEFF1"/>
<path transform="translate(1503,558)" d="m0 0c6.93 0.33 13.9 0.66 21 1-2.82 2.82-4.73 2.98-8.69 3.25-4.6-0.0341-8.12-1.45-12.3-3.25v-1z" fill="#EEEFF1"/>
<path transform="translate(1262 557)" d="m0 0c3.5 0.25 3.5 0.25 5.5 2.25v3c-2.31 0.33-4.62 0.66-7 1v-2c-1.32-0.66-2.64-1.32-4-2 2-2 2-2 5.5-2.25z" fill="#EFF0F2"/>
<path transform="translate(1564,505)" d="m0 0c2.63 0.114 5.25 0.24 7.88 0.375 0.746 0.0309 1.49 0.0619 2.26 0.0938 5.64 0.305 5.64 0.305 7.86 2.53-7.92 0.495-7.92 0.495-16 1-0.66-1.32-1.32-2.64-2-4z" fill="#EEEFF1"/>
<path transform="translate(1396,346)" d="m0 0h3v13c-0.99-0.33-1.98-0.66-3-1v-12z" fill="#EFF0F2"/>
<path transform="translate(998,504)" d="m0 0c2.62 1.44 2.62 1.44 5 3-1.12 1.56-1.12 1.56-3 3-3.19-0.312-3.19-0.312-6-1 1.75-3.88 1.75-3.88 4-5z" fill="#D5D6D8"/>
<path transform="translate(1302 528)" d="m0 0c0.91 0.102 1.82 0.204 2.76 0.309 0.699 0.0838 1.4 0.168 2.12 0.254-4.03 2.23-7.45 2.54-12 3v-3c2.62-1.31 4.23-0.896 7.12-0.562z" fill="#FAFBFD"/>
<path transform="translate(1016,504)" d="m0 0c2.31 0.33 4.62 0.66 7 1-0.33 1.65-0.66 3.3-1 5h-3v-2c-1.32-0.33-2.64-0.66-4-1 0.99-0.33 1.98-0.66 3-1-0.66-0.66-1.32-1.32-2-2z" fill="#EEEFF1"/>
<path transform="translate(1279,384)" d="m0 0h1v20h-1v-20z" fill="#F0F1F3"/>
<path transform="translate(1496,574)" d="m0 0h1v14h-1v-14z" fill="#000002"/>
<path transform="translate(1262,414)" d="m0 0h1v12h-1v-12z" fill="#000002"/>
<path transform="translate(1279,542)" d="m0 0h1v9h-1v-9z" fill="#EFF0F2"/>
<path transform="translate(87,431)" d="m0 0h5v1h-5v-1z" fill="#F3F4F6"/>
<path transform="translate(1432,541)" d="m0 0 1 4z" fill="#000002"/>
<path transform="translate(1548,444)" d="m0 0 4 1z" fill="#000002"/>
<path transform="translate(935,381)" d="m0 0 1 4z" fill="#000002"/>
<path transform="translate(1019,503)" d="m0 0c3 1 3 1 3 1z" fill="#EEEFF1"/>
<path transform="translate(512,314)" d="m0 0c3 1 3 1 3 1z" fill="#000002"/>
<path transform="translate(1259,503)" d="m0 0 2 1z" fill="#EEEFF1"/>
<path transform="translate(843,444)" d="m0 0 2 1z" fill="#000002"/>
<path transform="translate(852,359)" d="m0 0 2 1z" fill="#000002"/>
<path transform="translate(1332,356)" d="m0 0 2 1z" fill="#000002"/>
<path transform="translate(1326,356)" d="m0 0 2 1z" fill="#000002"/>
</svg>
