<?xml version="1.0" encoding="UTF-8"?>
<svg version="1.1" viewBox="0 0 1600 496" width="1280" height="1280" xmlns="http://www.w3.org/2000/svg">
<path transform="translate(308,27)" d="m0 0c3.66 3.39 5.29 5.6 5.63 10.6 0.00933 1.75-0.0143 3.51-0.0664 5.26-0.0122 0.918-0.0245 1.84-0.0371 2.78-0.253 8.48-1.97 16.3-4.53 24.3 0.619 0.248 1.24 0.495 1.88 0.75 2.55 1.5 3.14 2.49 4.12 5.25 1.17 8.11-1.1 16.2-3 24 16.1-9.62 31.4-20.2 45.1-33 3.39-2.39 5.74-2.85 9.86-3.01 3.57 1.59 4.81 2.72 7 6 3.31 18.6-9.72 40-19.8 54.7-4.33 6.12-9.15 11.7-14.3 17.1-1.97 1.96-1.97 1.96-2.93 4.11 0.887-0.0619 1.77-0.124 2.69-0.188 3.76 0.213 5.4 0.838 8.31 3.19 1.63 2.4 2.11 4.03 1.79 6.92-1.25 6.11-3.55 11-6.73 16.3-0.486 0.826-0.972 1.65-1.47 2.5-4.5 7.45-9.72 13.9-15.6 20.2-0.772 0.891-1.54 1.78-2.34 2.7-7.53 8.65-16.1 16.9-25.7 23.3h-2c-0.0206 1.2-0.0412 2.39-0.0625 3.62-0.597 4.37-2.04 6.16-5.49 8.8-3.81 2.46-7.75 4.7-11.7 6.86-3.46 1.73-3.46 1.73-5.71 4.71 0.815 0.257 1.63 0.513 2.47 0.777 2.54 0.88 4.97 1.8 7.44 2.85 15 6.35 30.5 10.9 46.1 15.4 2.93 0.851 5.85 1.7 8.78 2.57 1.61 0.475 3.23 0.945 4.84 1.41 13.2 3.89 24.2 10.2 31.7 22.1 4.57 9.33 4.31 22.2 1.05 32-2.65 6.12-6.25 12.5-11.4 16.9-3.78 0.658-5.47 0.326-8.75-1.69-3.3-3.64-3.16-8.53-3.74-13.2-0.891-5.44-3.09-8.02-7.38-11.3-11.8-6.09-27.1-5.97-40.2-5.95-1.02-0.00132-2.04-0.00264-3.09-4e-3 -3.27-0.0019-6.55 0.00437-9.82 0.0118-1.67 0.00133-1.67 0.00133-3.37 0.00269-16.9 0.0159-33.8 0.249-50.7 1.12 3.81 10.8 7.84 20.9 14.3 30.4 5.77 8.57 9.35 15.8 10.1 26.3 0.71 8.55 1.27 14.9 7.73 21.1 1.86 1.57 3.75 3.06 5.68 4.53 4.08 3.18 5.92 6.49 6.68 11.7 0.00991 7.47-0.907 13-5.91 18.8-1.53 1.31-1.53 1.31-4.15 1.75-4.57-0.592-8.28-2.4-12.4-4.44-0.266 0.593-0.531 1.19-0.805 1.8-1.98 3.65-4.68 6.03-8.2 8.2-7.09 1.56-11.5-1.59-17.5-5.27-2.54-1.73-2.54-1.73-4.54-3.73-2.97 0.35-5.69 1.21-8.56 2.06-5.41 1.34-10.9 1.75-16.4 0.938-3.59-3.09-4.81-6.08-5.27-10.8-0.244-7.87 0.495-13.8 5.27-20.2 1.59-1.37 3.19-2.73 4.81-4.06 3.62-3.41 4.78-5.96 5.06-11-0.0139-14.1-5.46-26.5-15.3-36.6-2.4-2.3-4.9-4.47-7.44-6.62-7.94-6.89-14.5-14.3-19.2-23.7-1.91-2.43-1.91-2.43-5.59-2.17-1.05 0.0649-1.05 0.0649-2.12 0.131-4.03 0.0311-7.73-1.27-11.6-2.42l-2.42-0.697c-3.11-0.903-6.2-1.84-9.27-2.87 0.323 0.549 0.645 1.1 0.978 1.66 1.47 2.51 2.93 5.01 4.4 7.52 0.508 0.864 1.02 1.73 1.54 2.62 0.49 0.841 0.98 1.68 1.48 2.55 0.45 0.77 0.901 1.54 1.36 2.33 3.5 6.54 3.62 12 3.61 19.3-0.00133 1.68-0.00133 1.68-0.00269 3.4-0.12 8.41-0.339 17.7-5.98 24.5-1.9 2.81-1.8 4.95-1.89 8.32-0.424 7.13-1.07 12.2-6.19 17.6-7.21 4.76-14.6 6.44-23.3 6.19l-2.59-1.07c-2.97-1.14-3.94-0.763-6.85 0.383-6.29 2.1-12.9 3.26-19.6 2.69-3.08-1.82-4.67-2.89-5.71-6.36-0.0348-0.789-0.0696-1.58-0.105-2.39-0.0477-0.799-0.0954-1.6-0.145-2.42-0.0142-0.603-0.0284-1.21-0.043-1.83l-2.7 0.141-3.55 0.109-3.52 0.141c-3.23-0.391-3.23-0.391-5.62-2.21-1.62-2.18-1.62-2.18-2.24-5.37 1.01-6.13 3.98-10.5 8.68-14.6 10.2-7.15 23.5-11.2 35.9-11.2 2.89-9.37 2.89-9.37 3-19-3.31-3.08-6.69-4.95-10.8-6.73-1.11-0.492-2.22-0.985-3.37-1.49-2.31-1.01-4.62-2.01-6.93-3-13.1-5.82-24.4-14.2-29.9-27.8-3.2-11.2-1.8-26 3.16-36.4 1.1-3.34 0.822-5.18-0.164-8.55-1.93-3.18-1.93-3.18-4.38-6.19-0.791-1.02-1.58-2.05-2.4-3.11-0.735-0.893-1.47-1.79-2.23-2.71-0.487-0.615-0.975-1.23-1.48-1.86-2.17-1.62-3.89-1.35-6.52-1.14l-0.48 2.45c-1.04 4.75-1.93 8.67-4.64 12.7-3.93 2.48-7.25 3.19-11.9 2.81-6.78-2.85-11-9.94-14.2-16.3-2.27-7.32-2.11-17 1.11-24 3.59-6.08 8.59-11.5 13.8-16.2 1.66-1.5 1.66-1.5 3.27-4.43 0.0642-2.4 0.0642-2.4-0.289-5.02-0.108-0.98-0.217-1.96-0.329-2.97-0.581-4.57-1.22-9.13-1.88-13.7-5.16-37.1-7.41-82.1 15.7-114 2.42-2.97 5-5.7 7.81-8.31 0.527-0.532 1.05-1.06 1.6-1.61 15.1-14.5 34.7-16.7 54.6-16.9 1.09-0.0159 1.09-0.0159 2.2-0.0322 12.1-0.135 25.3 0.589 34.9 8.77 3.09 3.26 5.37 6.92 7.67 10.8 0.958 1.48 1.92 2.96 2.88 4.44 2.12 3.31 2.12 3.31 2.12 5.56l2.79 0.228c3.46 0.288 6.92 0.585 10.4 0.889 1.49 0.129 2.98 0.254 4.47 0.375 20.5 1.67 20.5 1.67 25.4 6.51 2.68 5.37 2.22 10.7 2.25 16.6l0.0625 3.17c0.0565 11.4-2.67 22.3-10.7 30.8-3.25 1.86-5.91 2.12-9.62 2.5-1.45 0.505-1.45 0.505-2.94 1.02-5.44 1.61-11.1 1.15-16.7 1.04-2.22-0.0345-4.44-0.0647-6.66-0.0898-0.977-0.018-1.95-0.0359-2.96-0.0544-2.7 0.0802-5.13 0.471-7.75 1.08 1.24 0.392 2.48 0.784 3.75 1.19 6.54 2.18 13.2 4.6 19.3 7.94 2.39 1.06 4.35 1.14 6.96 1.25 3.6 0.281 4.7 0.392 7.62 2.69 0.454 0.639 0.908 1.28 1.38 1.94 4.29-1.41 6.87-3.46 10.1-6.56 3.63-3.41 7.31-6.68 11.2-9.81 15.6-12.7 30.3-26.2 44.6-40.4 1.41-1.39 2.82-2.78 4.22-4.17 6.06-6.05 11.5-12.4 16.9-19.1 0.875-1.04 1.76-2.07 2.64-3.1 5.53-6.43 10.4-13.1 15.1-20.2 4.06-6.01 8.63-10.5 16.3-7.7zm-193 40 4 1zm-7 6v6h1v-6h-1zm90 4v13h1v-13h-1zm-1 17 1 2zm-45 11-1 2h3v-2h-2zm8 4 1 2zm-10 2-1 2h2l-1-2zm9 0v3zm-18 1v5h1v-5h-1zm29 0-1 2h2l-1-2zm-54 5v1h10v-1h-10zm15 3-2 3c0.99-0.33 1.98-0.66 3-1-0.33-0.66-0.66-1.32-1-2zm-20 1v2h2v-2h-2zm2 2 1 2zm-35 9v5h1v-5h-1zm58 0 1 2zm8 0 1 2zm15 3 1 2zm7 3c-0.33 0.99-0.66 1.98-1 3 0.99 1.49 0.99 1.49 2 3v-6h-1zm30 3 1 2zm-1 2 1 3zm-8 5 1 3zm8 3 1 3zm14 35 1 2zm2 3 1 2zm3 5 1 2zm1 2v2l2-1-2-1zm5 9 1 2zm-131 1c-0.33 1.32-0.66 2.64-1 4h2c-0.33-1.32-0.66-2.64-1-4zm-49 2 1 2zm1 2 1 2zm2 1 1 2zm47 0c-0.33 1.32-0.66 2.64-1 4l2-1c-0.33-0.99-0.66-1.98-1-3zm1 3 1 2zm14 0 1 2zm-61 2c0.33 0.66 0.66 1.32 1 2 0.33-0.66 0.66-1.32 1-2h-2zm2 2c0.33 1.32 0.66 2.64 1 4 0.33-0.66 0.66-1.32 1-2-0.66-0.66-1.32-1.32-2-2zm-4 6c-0.33 0.66-0.66 1.32-1 2 0.99-0.33 1.98-0.66 3-1-0.66-0.33-1.32-0.66-2-1zm-4 5 1 2zm-1 5 1 4zm-1 6 1 2zm132 9-2 5h2l1-5h-1zm57 2 1 2zm2 3 1 2zm-61 1 1 3zm62 1 1 2zm-64 2c0.33 1.65 0.66 3.3 1 5h1v-5h-2zm65 1 1 2zm1 2v7h2c-0.33-2.31-0.66-4.62-1-7h-1zm-67 4c0.33 3.96 0.66 7.92 1 12h1v-12h-2zm69 3c-1.02 3.39-1.17 6.53-1.19 10.1-0.0142 1.04-0.0284 2.09-0.043 3.16 0.0225 2.99 0.0225 2.99 2.23 5.78 1.76-6.05 1.62-12.9 0-19h-1zm-67 10c-1.33 6.1-0.466 11 1 17 2.62-3.93 1.88-5.6 1.12-10.2l-0.617-3.86c-0.168-0.976-0.335-1.95-0.508-2.96h-1zm3 15 1 3zm-1 3 1 2zm-39 1 2 6 2-2c-0.319-2.11-0.319-2.11-1-4h-3zm100 3 1 2zm-96 1 1 2zm238 2v6h1v-6h-1zm-237 1 1 2zm94 0 1 2zm2 1c-0.33 2.64-0.66 5.28-1 8 2.35-1.9 2.35-1.9 2.12-5.12-0.0619-1.42-0.0619-1.42-0.125-2.88h-1zm1 7c-0.33 1.65-0.66 3.3-1 5l2-2c-0.33-0.99-0.66-1.98-1-3zm1 4 1 2zm-1 2 1 2zm1 2 1 3zm-90 1 1 2zm4 7v7h1v-7h-1zm0 15v5h1v-5h-1zm99 0 1 2zm1 2 1 2zm4 5c-1.35 2.13-1.35 2.13-0.0625 5.12l1.06 2.88c0.66-0.99 1.32-1.98 2-3-0.802-2.67-0.802-2.67-2-5h-1zm3 6 1 3zm-111 1 1 2zm-1 2 1 2zm111 0 1 4zm2 0v5h1v-5h-1zm-114 2 1 2zm-2 3 1 2zm117 1v8h1v-8h-1zm-117 3v12h1v-12h-1zm118 6c-0.33 2.31-0.66 4.62-1 7h2v-7h-1zm-183 2v2h18v-1c-5.94-0.33-11.9-0.66-18-1zm43 5c-0.33 0.66-0.66 1.32-1 2h2c-0.33-0.66-0.66-1.32-1-2zm20 0 1 2zm121 0 1 2zm-144 2c-0.99 0.99-1.98 1.98-3 3l5-2-2-1zm22 0-5 4 5-1v-3zm-36.7 5.44-3.57 0.871-2.74 0.691v1c1.73-0.115 3.46-0.243 5.19-0.375 0.963-0.0696 1.93-0.139 2.92-0.211 2.91-0.416 5.22-1.21 7.89-2.41-3.81-1.27-5.82-0.521-9.69 0.438zm20.7-1.44v1h11v-1h-11zm156 16 1 3zm-20 3 1 4zm18 3 1 2z" fill="#C0FABA"/>
<path transform="translate(308,27)" d="m0 0c3.66 3.39 5.29 5.6 5.63 10.6 0.00933 1.75-0.0143 3.51-0.0664 5.26-0.0122 0.918-0.0245 1.84-0.0371 2.78-0.253 8.48-1.97 16.3-4.53 24.3 0.619 0.248 1.24 0.495 1.88 0.75 2.55 1.5 3.14 2.49 4.12 5.25 1.17 8.11-1.1 16.2-3 24 16.1-9.62 31.4-20.2 45.1-33 3.39-2.39 5.74-2.85 9.86-3.01 3.57 1.59 4.81 2.72 7 6 3.31 18.6-9.72 40-19.8 54.7-4.33 6.12-9.15 11.7-14.3 17.1-1.97 1.96-1.97 1.96-2.93 4.11 0.887-0.0619 1.77-0.124 2.69-0.188 3.76 0.213 5.4 0.838 8.31 3.19 1.63 2.4 2.11 4.03 1.79 6.92-1.25 6.11-3.55 11-6.73 16.3-0.486 0.826-0.972 1.65-1.47 2.5-4.5 7.45-9.72 13.9-15.6 20.2-0.772 0.891-1.54 1.78-2.34 2.7-7.53 8.65-16.1 16.9-25.7 23.3h-2c-0.0206 1.2-0.0412 2.39-0.0625 3.62-0.597 4.37-2.04 6.16-5.49 8.8-3.81 2.46-7.75 4.7-11.7 6.86-3.46 1.73-3.46 1.73-5.71 4.71 0.815 0.257 1.63 0.513 2.47 0.777 2.54 0.88 4.97 1.8 7.44 2.85 15 6.35 30.5 10.9 46.1 15.4 2.93 0.851 5.85 1.7 8.78 2.57 1.61 0.475 3.23 0.945 4.84 1.41 13.2 3.89 24.2 10.2 31.7 22.1 4.57 9.33 4.31 22.2 1.05 32-2.65 6.12-6.25 12.5-11.4 16.9-3.78 0.658-5.47 0.326-8.75-1.69-3.3-3.64-3.16-8.53-3.74-13.2-0.891-5.44-3.09-8.02-7.38-11.3-11.8-6.09-27.1-5.97-40.2-5.95-1.02-0.00132-2.04-0.00264-3.09-4e-3 -3.27-0.0019-6.55 0.00437-9.82 0.0118-1.67 0.00133-1.67 0.00133-3.37 0.00269-16.9 0.0159-33.8 0.249-50.7 1.12 3.81 10.8 7.84 20.9 14.3 30.4 5.77 8.57 9.35 15.8 10.1 26.3 0.71 8.55 1.27 14.9 7.73 21.1 1.86 1.57 3.75 3.06 5.68 4.53 4.08 3.18 5.92 6.49 6.68 11.7 0.00991 7.47-0.907 13-5.91 18.8-1.53 1.31-1.53 1.31-4.15 1.75-4.57-0.592-8.28-2.4-12.4-4.44-0.266 0.593-0.531 1.19-0.805 1.8-1.98 3.65-4.68 6.03-8.2 8.2-7.09 1.56-11.5-1.59-17.5-5.27-2.54-1.73-2.54-1.73-4.54-3.73-2.97 0.35-5.69 1.21-8.56 2.06-5.41 1.34-10.9 1.75-16.4 0.938-3.59-3.09-4.81-6.08-5.27-10.8-0.244-7.87 0.495-13.8 5.27-20.2 1.59-1.37 3.19-2.73 4.81-4.06 3.62-3.41 4.78-5.96 5.06-11-0.0139-14.1-5.46-26.5-15.3-36.6-2.4-2.3-4.9-4.47-7.44-6.62-7.94-6.89-14.5-14.3-19.2-23.7-1.91-2.43-1.91-2.43-5.59-2.17-1.05 0.0649-1.05 0.0649-2.12 0.131-4.03 0.0311-7.73-1.27-11.6-2.42l-2.42-0.697c-3.11-0.903-6.2-1.84-9.27-2.87 0.323 0.549 0.645 1.1 0.978 1.66 1.47 2.51 2.93 5.01 4.4 7.52 0.508 0.864 1.02 1.73 1.54 2.62 0.49 0.841 0.98 1.68 1.48 2.55 0.45 0.77 0.901 1.54 1.36 2.33 3.5 6.54 3.62 12 3.61 19.3-0.00133 1.68-0.00133 1.68-0.00269 3.4-0.12 8.41-0.339 17.7-5.98 24.5-1.9 2.81-1.8 4.95-1.89 8.32-0.424 7.13-1.07 12.2-6.19 17.6-7.21 4.76-14.6 6.44-23.3 6.19l-2.59-1.07c-2.97-1.14-3.94-0.763-6.85 0.383-6.29 2.1-12.9 3.26-19.6 2.69-3.08-1.82-4.67-2.89-5.71-6.36-0.0348-0.789-0.0696-1.58-0.105-2.39-0.0477-0.799-0.0954-1.6-0.145-2.42-0.0142-0.603-0.0284-1.21-0.043-1.83l-2.7 0.141-3.55 0.109-3.52 0.141c-3.23-0.391-3.23-0.391-5.62-2.21-1.62-2.18-1.62-2.18-2.24-5.37 1.01-6.13 3.98-10.5 8.68-14.6 10.2-7.15 23.5-11.2 35.9-11.2 2.89-9.37 2.89-9.37 3-19-3.31-3.08-6.69-4.95-10.8-6.73-1.11-0.492-2.22-0.985-3.37-1.49-2.31-1.01-4.62-2.01-6.93-3-13.1-5.82-24.4-14.2-29.9-27.8-3.2-11.2-1.8-26 3.16-36.4 1.1-3.34 0.822-5.18-0.164-8.55-1.93-3.18-1.93-3.18-4.38-6.19-0.791-1.02-1.58-2.05-2.4-3.11-0.735-0.893-1.47-1.79-2.23-2.71-0.487-0.615-0.975-1.23-1.48-1.86-2.17-1.62-3.89-1.35-6.52-1.14l-0.48 2.45c-1.04 4.75-1.93 8.67-4.64 12.7-3.93 2.48-7.25 3.19-11.9 2.81-6.78-2.85-11-9.94-14.2-16.3-2.27-7.32-2.11-17 1.11-24 3.59-6.08 8.59-11.5 13.8-16.2 1.66-1.5 1.66-1.5 3.27-4.43 0.0642-2.4 0.0642-2.4-0.289-5.02-0.108-0.98-0.217-1.96-0.329-2.97-0.581-4.57-1.22-9.13-1.88-13.7-5.16-37.1-7.41-82.1 15.7-114 2.42-2.97 5-5.7 7.81-8.31 0.527-0.532 1.05-1.06 1.6-1.61 15.1-14.5 34.7-16.7 54.6-16.9 1.09-0.0159 1.09-0.0159 2.2-0.0322 12.1-0.135 25.3 0.589 34.9 8.77 3.09 3.26 5.37 6.92 7.67 10.8 0.958 1.48 1.92 2.96 2.88 4.44 2.12 3.31 2.12 3.31 2.12 5.56l2.79 0.228c3.46 0.288 6.92 0.585 10.4 0.889 1.49 0.129 2.98 0.254 4.47 0.375 20.5 1.67 20.5 1.67 25.4 6.51 2.68 5.37 2.22 10.7 2.25 16.6l0.0625 3.17c0.0565 11.4-2.67 22.3-10.7 30.8-3.25 1.86-5.91 2.12-9.62 2.5-1.45 0.505-1.45 0.505-2.94 1.02-5.44 1.61-11.1 1.15-16.7 1.04-2.22-0.0345-4.44-0.0647-6.66-0.0898-0.977-0.018-1.95-0.0359-2.96-0.0544-2.7 0.0802-5.13 0.471-7.75 1.08 1.24 0.392 2.48 0.784 3.75 1.19 6.54 2.18 13.2 4.6 19.3 7.94 2.39 1.06 4.35 1.14 6.96 1.25 3.6 0.281 4.7 0.392 7.62 2.69 0.454 0.639 0.908 1.28 1.38 1.94 4.29-1.41 6.87-3.46 10.1-6.56 3.63-3.41 7.31-6.68 11.2-9.81 15.6-12.7 30.3-26.2 44.6-40.4 1.41-1.39 2.82-2.78 4.22-4.17 6.06-6.05 11.5-12.4 16.9-19.1 0.875-1.04 1.76-2.07 2.64-3.1 5.53-6.43 10.4-13.1 15.1-20.2 4.06-6.01 8.63-10.5 16.3-7.7zm-254 29c-0.33 0.99-0.66 1.98-1 3-0.598 0.578-1.2 1.16-1.81 1.75-17.6 18.1-17.6 51.2-17.4 74.5 0.564 39.7 9.33 78.5 34 110 0.721 0.938 0.721 0.938 1.46 1.89 1.19 1.51 2.46 2.97 3.73 4.42h2c0.268 0.639 0.536 1.28 0.812 1.94 1.07 2.39 1.07 2.39 4.19 3.06 0.667 1.33 1.33 2.67 2 4 0.99 0.33 1.98 0.66 3 1 0.33 0.99 0.66 1.98 1 3 3.22 2.33 3.22 2.33 7 3 0.33 0.99 0.66 1.98 1 3 0.99 0.33 1.98 0.66 3 1 0.99 0.33 1.98 0.66 3 1 0.33 0.99 0.66 1.98 1 3 2.18 1.27 4.29 2.38 6.56 3.44 1.21 0.582 2.42 1.16 3.63 1.75 0.622 0.294 1.24 0.589 1.89 0.892 1.97 0.947 3.91 1.94 5.86 2.93 9.93 4.98 20.6 8.7 31.2 11.9 0.673 0.211 1.35 0.423 2.04 0.64 4.79 1.4 8.91 1.6 13.8 1.42 2.1-7.44 2.1-13.5 0-21-0.33-0.33-0.66-0.66-1-1-0.0727-2.35-0.0837-4.71-0.0625-7.06l0.0273-3.91 0.0352-3.03h1c0.186-1.95 0.186-1.95 0.375-3.94 0.211-2.21 0.211-2.21 0.625-4.06l2-1c-0.309 0.969-0.619 1.94-0.938 2.94-1.82 6.5-2.64 12.1-0.66 18.7 0.775 3.05 1.1 6.1 1.47 9.23 2.33 16.5 11.4 28.8 22.9 40.4 0.733 0.739 1.47 1.48 2.22 2.24 3.91 3.93 3.91 3.93 8.7 6.58 2.33 0.933 2.33 0.933 3.46 3.28l0.863 2.66c0.91 1.52 1.85 3.02 2.81 4.5 8.16 13.4 10.3 26.7 8.95 42.2-1 3.02-2.39 3.84-5.01 5.59-5.12 3.78-9.14 7.61-10.1 14.1-0.0658 2.28-0.0745 4.32 0.367 6.56 2.62 2.62 3.91 2.36 7.56 2.44 5.57-0.0604 9.08-1.3 13.7-4.34 1.74-1.09 1.74-1.09 3.74-1.09 0.33 0.66 0.66 1.32 1 2h2c0.33 0.99 0.66 1.98 1 3h2c0.235 0.624 0.469 1.25 0.711 1.89 1.66 2.71 2.9 3 5.91 3.86 0.817 0.242 1.63 0.485 2.48 0.734l1.9 0.516c4.01-3.68 6.45-7.19 9-12 3.79 1 6.72 1.81 10 4 3.04 0.417 3.04 0.417 6 0 2.06-3.09 2.59-4.98 2.52-8.67-1.37-6.16-6.27-12-11.5-15.3h-2v-2c-0.99-0.681-0.99-0.681-2-1.38-0.66-0.536-1.32-1.07-2-1.62v-11c-0.66-0.33-1.32-0.66-2-1 0.0232-0.964 0.0464-1.93 0.0703-2.92 0.018-1.26 0.0361-2.53 0.0547-3.83 0.0232-1.25 0.0464-2.51 0.0703-3.8-0.184-3.25-0.537-4.75-2.2-7.45-0.309-0.866-0.619-1.73-0.938-2.62-0.947-2.68-0.947-2.68-4.06-4.38-0.433-1.14-0.433-1.14-0.875-2.31-0.99-2.86-0.99-2.86-3.5-5-2.8-2.86-4.14-5.4-5.73-9.02-0.788-1.86-0.788-1.86-2.89-2.67-0.5-2-0.5-2-1-5-0.326-1.52-0.66-3.04-1-4.56-0.165-0.744-0.33-1.49-0.5-2.25-0.327-1.43-0.682-2.85-1.07-4.27-0.434-1.91-0.434-1.91-0.371-4.98 0.196-3.13 0.196-3.13-2.06-5.94 0.172-2.05 0.172-2.05 0.75-4.31 0.201-0.794 0.402-1.59 0.609-2.41 2.01-7.17 2.01-7.17 3.69-10.1 2.39-5.38 1.13-12.6-0.0508-18.1 4.09 8.51 3.77 17.5 2.38 26.7-0.751 3.45-0.751 3.45 1.62 6.31 2.48 0.282 4.71 0.368 7.19 0.325 0.742-0.00117 1.48-0.00234 2.25-0.00354 2.47-0.00722 4.93-0.0355 7.4-0.0634 1.73-0.00814 3.45-0.0148 5.18-0.0201 4.56-0.0172 9.13-0.0514 13.7-0.0901 7.25-0.059 14.5-0.0936 21.7-0.126 2.51-0.0137 5.01-0.0354 7.52-0.0583 7.93-0.0591 15.8 0.0216 23.8 0.395 0.725 0.0288 1.45 0.0576 2.2 0.0872 9.24 0.509 18.7 3.57 25.1 10.6 4.23 6.05 5.09 12.8 6 20 5.97-4.28 8.04-9.04 10-16 1.5-9.95-0.342-17.7-6-26-2.64-2.98-2.64-2.98-6-5-0.65-0.477-1.3-0.954-1.97-1.45-7.34-5.01-15.5-6.9-24-9.03-3.04-0.775-6.05-1.65-9.07-2.53-1.03-0.292-1.03-0.292-2.08-0.59-17.8-5.07-35.2-11.2-51.9-19.4-0.659-0.32-1.32-0.64-2-0.97-2.15-1.05-4.3-2.1-6.44-3.16-0.663-0.325-1.33-0.65-2.01-0.984-4.06-2.03-7.81-4.3-11.6-6.89-0.763-0.454-1.53-0.908-2.31-1.38-3.25-1.96-6.37-4.09-9.5-6.22-2.12-1.43-2.12-1.43-4.28-2.38-2.18-1.17-3.3-2.41-4.84-4.34-1.79-2.18-3.53-4.15-5.56-6.12-4.39-4.5-8.02-9.1-10.4-14.9-4.05-9.68-10.6-18.6-20.3-23.1-8.98-3.56-16.6-4.72-26.2-4.84-5.21-0.187-7.7-0.947-11.6-4.66-1.65-1.03-3.32-2.03-5-3-0.723-0.472-1.45-0.944-2.19-1.43-10.8-6.58-23.7-9.13-36.2-10.4-6.82-0.81-11.9-3.4-17.9-6.66-2.54-1.62-2.54-1.62-4.77-1.46v-2c-0.825-0.804-1.65-1.61-2.5-2.44-2.5-2.56-2.5-2.56-2.5-5.56l1.84 1.61c1.26 1.06 1.26 1.06 2.54 2.14 1.22 1.04 1.22 1.04 2.46 2.11 7.84 5.3 15.3 6.57 24.5 7.14 15.8 1.35 30.4 6.71 45.2 12.1 7.39 2.67 14.5 3.85 22.4 2.87 2.73-1.97 2.73-1.97 4-5 0.557-1.05 1.11-2.1 1.69-3.19 0.433-0.928 0.866-1.86 1.31-2.81 0.33-0.66 0.66-1.32 1-2-0.737-4.42-1.43-6.49-4.81-9.5-3.59-1.69-4.49-1.37-8.19-0.5-2.31-1.44-2.31-1.44-4-3l-2 1c-0.66-0.99-1.32-1.98-2-3-0.33 0.33-0.66 0.66-1 1-2.02-0.602-4.02-1.27-6-2-0.33-0.66-0.66-1.32-1-2h-5v-2c-1.29-0.363-2.58-0.715-3.88-1.06-0.719-0.197-1.44-0.394-2.18-0.598-2.02-0.551-2.02-0.551-3.95 0.66-0.598-0.165-1.2-0.33-1.81-0.5-2.72-0.622-4.45-0.0699-7.19 0.5-2.18 0.289-4.37 0.537-6.56 0.75-1.12 0.119-2.23 0.237-3.38 0.359-3.53-0.126-4.64-0.59-7.06-3.11-1.27-2.26-1.27-2.26-2.25-4.69-0.503-1.21-0.503-1.21-1.02-2.45-0.242-0.615-0.485-1.23-0.734-1.86h-2l1-3c2.06 0.115 4.13 0.242 6.19 0.375l3.48 0.211c3.13 0.389 5.48 1.1 8.33 2.41-0.33 0.66-0.66 1.32-1 2 0.99-0.33 1.98-0.66 3-1 1.23-3.01 1.23-3.01 2-6 1.98 0.66 3.96 1.32 6 2 0.33-2.64 0.66-5.28 1-8 1.09 0.495 2.19 0.99 3.31 1.5 3.49 1.69 3.49 1.69 6.69 1.5v-5l2-1 2 5h3c0.33 0.66 0.66 1.32 1 2 1.11-2.39 1.11-2.39 2-5-0.33-0.66-0.66-1.32-1-2 0.701 0.784 1.4 1.57 2.12 2.38 2.97 2.71 5.03 3.64 8.88 4.62l1-3-1-2 4-1c0.433 0.959 0.433 0.959 0.875 1.94 0.953 2.21 0.953 2.21 3.12 3.06 2.51-1.26 2.87-2.5 4-5 0.598 0.33 1.2 0.66 1.81 1 2.24 1.21 2.24 1.21 5.19 1 0.266-0.554 0.531-1.11 0.805-1.68 0.353-0.724 0.706-1.45 1.07-2.2 0.348-0.719 0.696-1.44 1.05-2.18 1.07-1.95 1.07-1.95 3.07-3.95 1.31-5.3 1.18-10.7 1.19-16.1 0.0122-0.893 0.0245-1.79 0.0371-2.71 0.00193-0.862 0.00387-1.72 0.00586-2.61 0.00411-0.779 0.00822-1.56 0.0125-2.36-0.279-2.52-0.833-4.09-2.24-6.19-2.5-0.627-4.64-0.972-7.19-1.19-0.71-0.0762-1.42-0.152-2.15-0.231-3.58-0.366-7.15-0.622-10.7-0.781-14.2-0.646-14.2-0.646-19.9-4.8-3.78-4.24-6.63-9.07-9.56-13.9-0.372-0.596-0.744-1.19-1.13-1.81-0.488-0.801-0.488-0.801-0.986-1.62-5.12-6.39-11.6-7.46-19.3-8.66-4.76-0.403-9.47-0.478-14.2-0.438-1.27 0.00757-2.54 0.0151-3.85 0.0229-18.7 0.328-38.9 4.89-51.9 19.4zm144 21v13h1v-13h-1zm-1 17 1 2zm-56 18v5h1v-5h-1zm18 23 1 2zm37 6 1 2zm-1 2 1 3zm-8 5 1 3zm8 3 1 3zm14 35 1 2zm2 3 1 2zm3 5 1 2zm1 2v2l2-1-2-1zm5 9 1 2zm-180 3 1 2zm1 2 1 2zm2 1 1 2zm1 5c0.33 0.66 0.66 1.32 1 2 0.33-0.66 0.66-1.32 1-2h-2zm2 2c0.33 1.32 0.66 2.64 1 4 0.33-0.66 0.66-1.32 1-2-0.66-0.66-1.32-1.32-2-2zm-4 6c-0.33 0.66-0.66 1.32-1 2 0.99-0.33 1.98-0.66 3-1-0.66-0.33-1.32-0.66-2-1zm-4 5 1 2zm-1 5 1 4zm-1 6 1 2zm132 53 1 3zm-1 3 1 2zm-39 1 2 6 2-2c-0.319-2.11-0.319-2.11-1-4h-3zm100 3 1 2zm-96 1 1 2zm238 2v6h1v-6h-1zm-237 1 1 2zm98 12 1 2zm-90 5 1 2zm4 7v7h1v-7h-1zm0 15v5h1v-5h-1zm-4 14 1 2zm-1 2 1 2zm-1 2 1 2zm-2 3 1 2zm117 1v8h1v-8h-1zm-117 3v12h1v-12h-1zm-65 8v2h18v-1c-5.94-0.33-11.9-0.66-18-1zm43 5c-0.33 0.66-0.66 1.32-1 2h2c-0.33-0.66-0.66-1.32-1-2zm20 0 1 2zm121 0 1 2zm-144 2c-0.99 0.99-1.98 1.98-3 3l5-2-2-1zm22 0-5 4 5-1v-3zm-36.7 5.44-3.57 0.871-2.74 0.691v1c1.73-0.115 3.46-0.243 5.19-0.375 0.963-0.0696 1.93-0.139 2.92-0.211 2.91-0.416 5.22-1.21 7.89-2.41-3.81-1.27-5.82-0.521-9.69 0.438zm20.7-1.44v1h11v-1h-11zm156 16 1 3z" fill="#000100"/>
<path transform="translate(1419,83)" d="m0 0h64c1.32 5.28 2.64 10.6 4 16 1.56 5.83 1.56 5.83 3.13 11.7 0.712 2.73 1.35 5.45 1.93 8.21 0.615 2.9 1.41 5.64 2.38 8.44 1.52 4.41 2.65 8.86 3.75 13.4 2.37 9.62 5.03 19.2 7.79 28.7 3.01 10.6 5.75 21.2 8.47 31.9 2.07 8.1 4.23 16.2 6.55 24.2 1.75 6.09 3.44 12.2 5.13 18.3 0.347 1.24 0.694 2.49 1.05 3.77 4.82 17.4 4.82 17.4 4.82 23.4l2-1c0.00423-0.946 0.00846-1.89 0.0128-2.87 0.103-23 0.212-46 0.327-69 0.0553-11.1 0.109-22.2 0.158-33.3 0.0428-9.69 0.0891-19.4 0.14-29.1 0.0266-5.13 0.0515-10.3 0.0722-15.4 0.0196-4.83 0.0437-9.65 0.0714-14.5 0.00937-1.77 0.017-3.55 0.0229-5.32 0.00826-2.42 0.0225-4.83 0.0384-7.25 9.78e-4 -0.707 0.00196-1.41 0.00296-2.14 0.0255-3.01 0.194-5.32 1.16-8.2h45c-0.33 0.66-0.66 1.32-1 2-0.0943 1.75-0.124 3.51-0.123 5.26-0.00199 1.12-0.00398 2.24-0.00603 3.4 0.00437 1.86 0.00437 1.86 0.00883 3.77-8.54e-4 1.31-0.00171 2.63-0.00259 3.98-0.00224 3.66 0.00178 7.31 0.00678 11 0.0043 3.94 0.00286 7.87 0.0021 11.8-5.25e-4 6.83 0.00262 13.7 0.00824 20.5 0.00812 9.87 0.0107 19.7 0.012 29.6 0.00219 16 0.00885 32 0.0183 48 0.00917 15.6 0.0163 31.1 0.0205 46.7 2.63e-4 0.958 5.25e-4 1.92 7.96e-4 2.9 0.00131 4.81 0.00257 9.61 0.00381 14.4 0.0104 39.9 0.0283 79.8 0.0503 120h-51c-0.33-1.32-0.66-2.64-1-4h-2c-0.675-2.06-1.34-4.12-2-6.19-0.371-1.15-0.743-2.3-1.12-3.48-0.789-3-0.875-5.27-0.875-8.33-0.99-1.48-0.99-1.48-2-3-1.14-3.63-1.33-7.3-1.62-11.1-0.125-0.636-0.25-1.27-0.379-1.93-0.66-0.33-1.32-0.66-2-1-0.852-2.51-0.852-2.51-1.62-5.69-0.26-1.04-0.521-2.07-0.789-3.14-0.579-3.14-0.691-5.99-0.586-9.18-0.66-0.33-1.32-0.66-2-1-0.724-2.11-1.34-4.26-1.91-6.41-0.172-0.648-0.345-1.3-0.522-1.96-0.364-1.38-0.725-2.75-1.08-4.13-0.542-2.09-1.1-4.18-1.65-6.26-2.71-10.3-2.71-10.3-3.32-14.9-0.465-2.98-1.07-4.72-2.51-7.3-0.442-1.34-0.848-2.69-1.22-4.05-0.21-0.763-0.42-1.53-0.637-2.31-0.213-0.789-0.425-1.58-0.645-2.39-0.213-0.773-0.425-1.55-0.645-2.34-1.74-6.35-3.37-12.7-4.82-19.1-0.16-0.705-0.321-1.41-0.486-2.14-0.324-1.43-0.644-2.86-0.961-4.29-0.805-3.51-1.72-6.85-3.04-10.2-1.9-4.88-3.14-9.89-4.43-15-0.53-2.06-1.06-4.12-1.59-6.18-0.26-1.02-0.52-2.04-0.789-3.09-1.05-4.1-2.11-8.2-3.18-12.3-0.194-0.744-0.388-1.49-0.588-2.25-1.22-4.62-2.49-9.23-3.81-13.8-0.317-1.12-0.634-2.23-0.961-3.38-0.623-2.18-1.25-4.36-1.88-6.54-1.59-5.57-2.77-10.9-3.32-16.6-0.313-1.67-0.637-3.34-1-5h-2c0.243 1.47 0.243 1.47 0.492 2.98 0.59 4.15 0.653 8.22 0.641 12.4 9.57e-4 0.777 0.00191 1.55 0.0029 2.36 6.76e-4 1.63-0.00114 3.26-0.00534 4.9-0.00537 2.49-2.93e-5 4.98 0.00635 7.47-6.61e-4 1.59-0.00194 3.18-0.00391 4.78 0.00202 0.74 0.00405 1.48 0.00613 2.24-0.0126 2.78-0.0383 5.42-0.64 8.14-0.626 3.43-0.634 6.78-0.62 10.2-0.00128 1.12-0.00128 1.12-0.00259 2.27-0.00164 2.5 0.00385 5 0.00932 7.5 2.82e-4 1.79 1.24e-4 3.59-4.43e-4 5.38-2.87e-4 4.87 0.00559 9.73 0.0126 14.6 0.00625 5.09 0.00684 10.2 0.00803 15.3 0.00311 9.63 0.0113 19.3 0.0213 28.9 0.0112 11 0.0167 21.9 0.0217 32.9 0.0105 22.6 0.0288 45.1 0.0503 67.7h-45c-1.02-3.06-1.13-5.11-1.13-8.31-0.00261-1.11-0.00522-2.22-0.0079-3.36 0.00223-1.22 0.00446-2.45 0.00676-3.7-0.00156-1.29-0.00312-2.59-0.00473-3.92-0.00419-3.6-0.00211-7.2 9.86e-4 -10.8 0.00226-3.88-0.00123-7.76-0.00398-11.6-0.00445-7.61-0.00348-15.2-5.87e-4 -22.8 0.00226-6.18 0.00257-12.4 0.00148-18.5-1.53e-4 -0.879-3.06e-4 -1.76-4.64e-4 -2.66-3.2e-4 -1.78-6.44e-4 -3.57-9.73e-4 -5.35-0.00285-16.7 4.31e-4 -33.5 0.0058-50.2 0.00447-14.4 0.00369-28.8-9.19e-4 -43.1-0.00535-16.7-0.00746-33.4-0.00439-50.1 3.19e-4 -1.78 6.33e-4 -3.56 9.43e-4 -5.33 1.54e-4 -0.875 3.09e-4 -1.75 4.68e-4 -2.65 8.65e-4 -6.18-5.97e-4 -12.4-0.00295-18.5-0.0028-7.52-0.00206-15 0.00328-22.6 0.00263-3.84 0.00365-7.68 3.51e-4 -11.5-0.00351-4.16 6.73e-4 -8.31 0.00568-12.5-0.00223-1.22-0.00446-2.45-0.00676-3.7 0.00261-1.11 0.00522-2.22 0.0079-3.36 1.62e-4 -0.96 3.25e-4 -1.92 4.92e-4 -2.91 0.125-2.4 0.125-2.4 1.13-5.4zm59 138 1 2zm1 3 1 2zm4 15 1 3zm4 15 1 2zm1 4 1 2zm47 12 1 4zm-42 6 1 2zm3 11 1 2zm1 4 1 2zm1 4 1 2zm5 18 1 2zm3 11 1 2zm1 4 1 2zm4 15 1 2zm5 18 1 2zm7 26 1 2zm1 3 1 2zm2 8 1 2z" fill="#FBFCFE"/>
<path transform="translate(431,83)" d="m0 0h50c-0.33 0.66-0.66 1.32-1 2-0.0934 1.8-0.122 3.6-0.12 5.4-0.00137 1.15-0.00275 2.29-0.00417 3.48 0.0036 1.26 0.00719 2.53 0.0109 3.83 2.82e-4 1.34 1.24e-4 2.68-4.43e-4 4.02-2.88e-4 3.64 0.0056 7.29 0.0126 10.9 0.00624 3.81 0.00684 7.61 0.00803 11.4 0.00311 7.21 0.0113 14.4 0.0213 21.6 0.0112 8.21 0.0167 16.4 0.0217 24.6 0.0105 16.9 0.0288 33.8 0.0503 50.7 29.2 0.495 29.2 0.495 59 1-0.00524-4.14-0.0105-8.28-0.0159-12.5-0.0165-13.6-0.0277-27.3-0.0359-40.9-0.00516-8.28-0.0122-16.6-0.0236-24.8-0.00995-7.21-0.0164-14.4-0.0186-21.6-0.00131-3.82-0.00439-7.64-0.0116-11.5-0.00677-3.59-0.00889-7.19-0.00738-10.8-4.08e-4 -1.95-0.0058-3.91-0.0113-5.86 0.00137-1.16 0.00275-2.31 0.00417-3.5-9.22e-4 -1.01-0.00184-2.02-0.00279-3.06 0.123-2.39 0.123-2.39 1.12-4.39h51v323h-51c-1.02-3.07-1.14-5.19-1.16-8.41-0.00979-1.12-0.0196-2.25-0.0297-3.4-0.00576-1.23-0.0115-2.47-0.0174-3.74-0.0099-1.3-0.0198-2.6-0.03-3.93-0.027-3.56-0.0481-7.12-0.068-10.7-0.0219-3.72-0.0492-7.44-0.0761-11.2-0.0499-7.04-0.0949-14.1-0.138-21.1-0.0494-8.02-0.104-16-0.16-24.1-0.114-16.5-0.221-33-0.323-49.5h2v-2h-59c-0.33 45.5-0.66 91.1-1 138h-49c-1.02-3.06-1.13-5.11-1.13-8.31-0.00261-1.11-0.00522-2.22-0.0079-3.36 0.00223-1.22 0.00446-2.45 0.00676-3.7-0.00156-1.29-0.00312-2.59-0.00473-3.92-0.00419-3.6-0.00211-7.2 9.86e-4 -10.8 0.00226-3.88-0.00123-7.76-0.00398-11.6-0.00445-7.61-0.00348-15.2-5.87e-4 -22.8 0.00226-6.18 0.00257-12.4 0.00148-18.5-1.53e-4 -0.879-3.06e-4 -1.76-4.64e-4 -2.66-3.2e-4 -1.78-6.44e-4 -3.57-9.73e-4 -5.35-0.00285-16.7 4.31e-4 -33.5 0.0058-50.2 0.00447-14.4 0.00369-28.8-9.19e-4 -43.1-0.00535-16.7-0.00746-33.4-0.00439-50.1 3.19e-4 -1.78 6.33e-4 -3.56 9.43e-4 -5.33 1.54e-4 -0.875 3.09e-4 -1.75 4.68e-4 -2.65 8.65e-4 -6.18-5.97e-4 -12.4-0.00295-18.5-0.0028-7.52-0.00206-15 0.00328-22.6 0.00263-3.84 0.00365-7.68 3.51e-4 -11.5-0.00351-4.16 6.73e-4 -8.31 0.00568-12.5-0.00223-1.22-0.00446-2.45-0.00676-3.7 0.00261-1.11 0.00522-2.22 0.0079-3.36 1.62e-4 -0.96 3.25e-4 -1.92 4.92e-4 -2.91 0.125-2.4 0.125-2.4 1.13-5.4z" fill="#FAFBFD"/>
<path transform="translate(1040 78.9)" d="m0 0c19.7-0.349 41.9 2.4 57 16.3 2.84 3.05 5.41 6.31 7.96 9.61 1.66 2.22 1.66 2.22 3.7 4.17 3 5.54 3 5.54 3 8 0.66 0.33 1.32 0.66 2 1 0.762 1.76 0.762 1.76 1.47 4.04 0.26 0.827 0.519 1.65 0.787 2.51 0.265 0.871 0.53 1.74 0.803 2.64 0.269 0.851 0.538 1.7 0.814 2.58 2.26 7.3 3.27 14 3.27 21.7 0.00368 0.836 0.00735 1.67 0.0111 2.53 0.011 2.79 0.0149 5.59 0.0187 8.38 0.00627 2.01 0.0129 4.01 0.0199 6.02 0.021 6.58 0.0314 13.2 0.0414 19.7 0.00405 2.27 0.00817 4.54 0.0124 6.81 0.019 10.7 0.0333 21.3 0.0416 32 0.00976 12.3 0.0361 24.6 0.0765 36.9 0.0302 9.52 0.045 19 0.0483 28.6 0.00234 5.68 0.0112 11.4 0.0365 17 0.0234 5.35 0.0275 10.7 0.0172 16-4.92e-4 1.95 0.00574 3.91 0.0196 5.86 0.152 22.8-5.19 42.9-21.2 59.8-15.7 15.1-36.9 19.2-58 19-21.9-0.483-41.4-6.75-56.9-22.7-5.08-5.81-12.4-15.5-12.4-23.5-0.66-0.33-1.32-0.66-2-1-0.816-1.71-0.816-1.71-1.56-3.81-0.249-0.687-0.498-1.37-0.754-2.08-3.83-11.8-2.83-25-2.83-37.2-3e-3 -1.79-0.0064-3.58-0.0102-5.37-0.00877-4.82-0.0112-9.64-0.0118-14.5-7.14e-4 -3.02-0.00286-6.04-0.0055-9.07-0.00923-10.6-0.0133-21.1-0.0125-31.7 6.01e-4 -9.81-0.00995-19.6-0.0257-29.4-0.0131-8.46-0.0184-16.9-0.0178-25.4 2.54e-4 -5.04-0.00252-10.1-0.0132-15.1-0.00976-4.74-0.0097-9.48-0.00248-14.2 0.00104-1.73-0.00126-3.45-0.00736-5.18-0.0779-23.6 2.89-46.4 17.3-66h2c0.0696-0.839 0.0696-0.839 0.141-1.7 1.27-3.39 3.79-5.08 6.61-7.18 0.583-0.439 1.17-0.878 1.77-1.33 13.7-10 30.1-14.3 46.9-14.9zm-16.4 54.1c-5.1 6.34-6.3 13.1-6.62 21.1-0.0376 0.845-0.0752 1.69-0.114 2.56-0.559 14.6-0.415 29.3-0.404 43.9 0.00257 4.49 1.74e-4 8.97-0.00139 13.5-0.00181 7.53 5.51e-4 15.1 0.00534 22.6 0.00544 8.65 0.00367 17.3-0.00183 26-0.00456 7.48-0.00517 15-0.00256 22.5 0.00154 4.45 0.00181 8.89-0.00154 13.3-0.00293 4.18-8.17e-4 8.36 0.00489 12.5 0.0013 1.52 9.78e-4 3.04-0.00126 4.55-0.0109 8.15 0.134 16.3 0.516 24.4 0.0304 0.769 0.0607 1.54 0.092 2.33 0.357 6.72 3.32 10.9 8.28 15.4 6.7 5.39 13 6.96 21.6 6.72 8.23-0.947 14.1-3.78 19.3-10.2 3.18-4.97 3.63-9.39 3.59-15.2 0.00468-1.22 0.00468-1.22 0.00945-2.46 0.00797-2.71 0.00166-5.43-0.00463-8.14 0.00271-1.95 0.00627-3.89 0.0106-5.84 0.00912-5.29 0.00558-10.6-7.58e-4 -15.9-0.00506-5.54-3.67e-4 -11.1 0.00277-16.6 0.00364-9.3-0.00116-18.6-0.0107-27.9-0.0109-10.7-0.00737-21.5 0.00365-32.2 0.00909-9.23 0.0104-18.5 0.00512-27.7-0.00311-5.51-0.00355-11 0.00307-16.5 0.00579-5.18 0.00174-10.4-0.00979-15.6-0.00264-1.9-0.0019-3.8 0.00253-5.7 0.0055-2.6-0.00143-5.2-0.0114-7.8 0.00669-1.12 0.00669-1.12 0.0135-2.26-0.0685-9.3-1.95-17.3-8.27-24.3-10.7-8.82-28.4-6.03-38 3zm-56 214 1 4zm1 5 1 3z" fill="#FBFCFE"/>
<path transform="translate(698 78.9)" d="m0 0c19.3-0.374 40.5 2.21 55.9 15.1v2c0.99 0.33 1.98 0.66 3 1 3.39 3.05 5.76 6.05 8 10l2 2c3 5.54 3 5.54 3 8 0.66 0.33 1.32 0.66 2 1 6.87 14.2 7.73 30.3 7.63 45.8 0.00516 2 0.0124 3.99 0.0217 5.99 0.0183 5.36 0.00571 10.7-0.0141 16.1-0.0165 5.64-0.00755 11.3-0.00248 16.9 0.0045 9.46-0.0112 18.9-0.0393 28.4-0.0321 10.9-0.032 21.8-0.0148 32.7 0.0159 10.5 0.0091 21.1-0.00794 31.6-0.00683 4.46-0.00588 8.93 0.00154 13.4 0.00772 5.26-0.00465 10.5-0.0318 15.8-0.00682 1.92-0.00705 3.84 2.16e-4 5.76 0.0757 22.6-4.82 43.3-20.8 60.2-15.9 15.2-37.2 19.9-58.6 19.6-11.5-0.348-22.4-1.93-33.1-6.29-1.48-0.597-1.48-0.597-2.99-1.21-14.9-6.7-25.4-19-32-33.8v-2c-0.66-0.33-1.32-0.66-2-1-11.9-18.8-6.16-53.1-6.17-74.7-7.19e-4 -2.74-0.00287-5.48-0.0055-8.22-0.0092-9.61-0.0133-19.2-0.0125-28.8 6.01e-4 -8.89-0.00997-17.8-0.0257-26.7-0.0132-7.69-0.0184-15.4-0.0178-23.1 2.52e-4 -4.57-0.00245-9.13-0.0132-13.7-0.071-32.6-0.071-32.6 1.08-45.1 0.0713-0.775 0.143-1.55 0.216-2.35 2.18-19.5 11.5-37 26.5-49.5 13.6-10 29.9-14.3 46.6-15zm-17.1 55.1c-8.61 12.9-6.26 32.1-6.56 47.1-0.0208 0.99-0.0417 1.98-0.0632 3-0.893 44.1-0.76 88.4 6.71e-4 132 0.0153 1.03 0.0306 2.06 0.0463 3.12-0.557 19-0.557 19 5.58 36.3 1.83 1.13 1.83 1.13 4 2 0.908 0.66 1.82 1.32 2.75 2 7.33 4.51 15.8 5.19 24.1 3.38 6.95-2.15 11.4-5.14 15.2-11.4 3.77-9.78 3.43-20 3.4-30.3 0.00571-1.82 0.0127-3.64 0.0208-5.45 0.0178-4.91 0.0168-9.81 0.0111-14.7-0.00311-4.11 0.00302-8.22 0.00904-12.3 0.014-9.71 0.0125-19.4 0.0011-29.1-0.0115-9.98 0.00258-20 0.0294-29.9 0.0222-8.6 0.0288-17.2 0.0229-25.8-0.00335-5.12-0.00107-10.2 0.0163-15.4 0.0156-4.82 0.0114-9.65-0.00731-14.5-0.00365-1.76-6.76e-4 -3.51 0.00989-5.27 0.0695-12.5-0.159-26.5-7.52-37.2-5.68-4.87-12-6.63-19.4-7.31-8.32 0.718-15.7 3.21-21.6 9.31zm-55 213 1 2zm1 6 1 3zm1 4 1 3zm1 4 1 2z" fill="#FBFCFE"/>
<path transform="translate(1156,83)" d="m0 0c11-0.0466 21.9-0.082 32.9-0.104 5.1-0.0104 10.2-0.0245 15.3-0.0473 4.93-0.0219 9.86-0.0337 14.8-0.0389 1.87-0.00366 3.74-0.0108 5.61-0.0217 20.2-0.113 43.1 0.93 58.8 15.5 7.13 7.68 13.4 15.7 16.6 25.7 0.495 1.18 0.99 2.35 1.5 3.56 10.6 29.4 10.8 83.2 0.5 113-0.349 1.07-0.699 2.14-1.06 3.25-5.69 15.4-17 26.5-31.7 33.4-20.4 8.24-41.4 7.31-63.2 7.31-0.33 39.9-0.66 79.9-1 121h-49c-1.02-3.06-1.13-5.12-1.13-8.33-0.00261-1.11-0.00522-2.22-0.0079-3.37 0.00223-1.23 0.00446-2.45 0.00676-3.72-0.00156-1.3-0.00312-2.6-0.00473-3.94-0.00419-3.62-0.00211-7.23 9.86e-4 -10.8 0.00226-3.9-0.00123-7.79-0.00398-11.7-0.00445-7.63-0.00348-15.3-5.87e-4 -22.9 0.00226-6.2 0.00257-12.4 0.00148-18.6-1.53e-4 -0.882-3.06e-4 -1.76-4.64e-4 -2.67-3.2e-4 -1.79-6.44e-4 -3.58-9.73e-4 -5.37-0.00285-16.8 4.31e-4 -33.6 0.0058-50.4 0.00447-14.4 0.00369-28.9-9.19e-4 -43.3-0.00535-16.7-0.00746-33.5-0.00439-50.2 3.19e-4 -1.78 6.33e-4 -3.57 9.43e-4 -5.35 1.54e-4 -0.878 3.09e-4 -1.76 4.68e-4 -2.66 8.65e-4 -6.2-5.97e-4 -12.4-0.00295-18.6-0.0028-7.55-0.00206-15.1 0.00328-22.6 0.00264-3.85 0.00364-7.71 3.51e-4 -11.6-0.00351-4.17 6.69e-4 -8.34 0.00568-12.5-0.00223-1.23-0.00446-2.46-0.00676-3.73 0.00261-1.11 0.00522-2.22 0.0079-3.36 1.62e-4 -0.964 3.25e-4 -1.93 4.92e-4 -2.92 0.125-2.28 0.125-2.28 1.13-4.28zm50 46c-1.15 2.3-1.13 3.6-1.13 6.16-0.00426 0.872-0.00853 1.74-0.0129 2.64 4.53e-4 0.959 9.06e-4 1.92 0.00137 2.91-0.00336 1.01-0.00672 2.02-0.0102 3.06-0.00953 3.35-0.0115 6.69-0.0125 10-0.00321 2.32-0.00658 4.64-0.0101 6.96-6e-3 4.87-0.00784 9.73-0.00725 14.6 1.02e-4 6.24-0.0135 12.5-0.0308 18.7-0.0111 4.79-0.0131 9.58-0.0126 14.4-0.00118 2.3-0.00562 4.6-0.0133 6.91-0.00977 3.22-0.00693 6.44-8.95e-4 9.65-0.00562 0.955-0.0112 1.91-0.017 2.89 0.00419 0.878 0.00839 1.76 0.0127 2.66-5.45e-4 0.761-0.00109 1.52-0.00165 2.3 0.283 2.4 1.06 4.03 2.25 6.11 4.09 0.1 8.18 0.172 12.3 0.22 1.39 0.0199 2.77 0.0471 4.16 0.082 9.11 0.224 18.3 0.386 25.5-6.02 5.12-5.4 6.31-11.1 6.38-18.4 0.00832-0.69 0.0166-1.38 0.0252-2.09 0.024-2.27 0.0329-4.54 0.0395-6.81 0.00898-1.59 0.0181-3.19 0.0274-4.78 0.0165-3.34 0.0242-6.68 0.0271-10 0.00536-4.25 0.0429-8.49 0.0887-12.7 0.03-3.3 0.037-6.59 0.038-9.89 0.00416-1.56 0.0164-3.13 0.0375-4.69 0.128-10.3-0.68-19.5-5.59-28.8-5.74-5.47-11.7-6.13-19.4-6.1-1.06 0.00212-1.06 0.00212-2.14 0.00429-2.24 0.00558-4.48 0.0181-6.72 0.0309-1.52 0.00502-3.05 0.00958-4.57 0.0137-3.73 0.011-7.45 0.0283-11.2 0.0488z" fill="#FAFBFD"/>
<path transform="translate(814,83)" d="m0 0h50c-0.33 0.66-0.66 1.32-1 2-0.0885 1.51-0.114 3.02-0.107 4.53 0.00149 0.958 0.00298 1.92 0.00452 2.9 0.0102 1.59 0.0102 1.59 0.0206 3.21 0.00484 1.68 0.00484 1.68 0.00979 3.4 0.0121 3.78 0.0315 7.56 0.0508 11.3 0.0107 2.7 0.0199 5.4 0.0291 8.1 0.0207 5.83 0.0452 11.7 0.0721 17.5 0.0389 8.42 0.0723 16.8 0.104 25.3 0.0521 13.7 0.109 27.3 0.168 41 0.0577 13.3 0.113 26.6 0.166 39.8 0.00487 1.23 0.00487 1.23 0.00985 2.48 0.0163 4.1 0.0325 8.21 0.0488 12.3 0.135 34.1 0.278 68.1 0.424 102 27.7 0.33 55.4 0.66 84 1 0.33 1.32 0.66 2.64 1 4-0.33 0.33-0.66 0.66-1 1v41h-134c-1.02-3.06-1.13-5.11-1.13-8.31-0.00261-1.11-0.00522-2.22-0.0079-3.36 0.00223-1.22 0.00446-2.45 0.00676-3.7-0.00156-1.29-0.00312-2.59-0.00473-3.92-0.00419-3.6-0.00211-7.2 9.86e-4 -10.8 0.00226-3.88-0.00123-7.76-0.00398-11.6-0.00445-7.61-0.00348-15.2-5.87e-4 -22.8 0.00226-6.18 0.00257-12.4 0.00148-18.5-1.53e-4 -0.879-3.06e-4 -1.76-4.64e-4 -2.66-3.2e-4 -1.78-6.44e-4 -3.57-9.73e-4 -5.35-0.00285-16.7 4.31e-4 -33.5 0.0058-50.2 0.00447-14.4 0.00369-28.8-9.19e-4 -43.1-0.00535-16.7-0.00746-33.4-0.00439-50.1 3.19e-4 -1.78 6.33e-4 -3.56 9.43e-4 -5.33 1.54e-4 -0.875 3.09e-4 -1.75 4.68e-4 -2.65 8.65e-4 -6.18-5.97e-4 -12.4-0.00295-18.5-0.0028-7.52-0.00206-15 0.00328-22.6 0.00263-3.84 0.00365-7.68 3.51e-4 -11.5-0.00351-4.16 6.73e-4 -8.31 0.00568-12.5-0.00223-1.22-0.00446-2.45-0.00676-3.7 0.00261-1.11 0.00522-2.22 0.0079-3.36 1.62e-4 -0.96 3.25e-4 -1.92 4.92e-4 -2.91 0.125-2.4 0.125-2.4 1.13-5.4z" fill="#FBFCFE"/>
<path transform="translate(77,139)" d="m0 0c0.763 0.784 1.53 1.57 2.31 2.38 2.6 2.7 2.6 2.7 5.69 4.62v2c0.723 0.278 1.45 0.557 2.19 0.844 2.81 1.16 2.81 1.16 5.21 2.38 6.22 3.14 11.7 4.38 18.6 5.2 13 1.71 27 4.82 37.3 13.5 6.26 5.17 11 5.68 18.9 5.83 12.1 0.26 22.8 3.63 31.8 12 4.14 4.4 6.99 9.25 9.75 14.6 1.36 2.61 2.82 5.11 4.36 7.61 0.437 0.73 0.874 1.46 1.32 2.21 3.13 4.97 6.46 8.69 11 12.4 1.64 1.41 1.64 1.41 2.64 3.41 1.65 0.944 3.31 1.88 4.98 2.8 2.13 1.26 4.01 2.68 5.96 4.2 3.16 2.42 6.29 4.25 9.88 5.95 2.53 1.22 4.97 2.57 7.43 3.93 16.9 9.22 34.4 16.4 52.8 22.1 1.18 0.37 2.35 0.74 3.57 1.12 6.82 2.12 13.6 4.22 20.6 5.89 13.3 3.26 25.5 7.78 33 19.9 3.61 6.71 4.02 13.7 2.83 21.1-2 5.98-4.68 12.5-10 16l-0.262-2.31c-1.14-8.4-2.94-16-9.86-21.5-7.32-4.51-14.5-6.41-23.1-6.8-1.18-0.0585-1.18-0.0585-2.38-0.118-7.97-0.359-15.9-0.359-23.9-0.286-2.57 0.0225-5.15 0.0363-7.72 0.0477-7.3 0.0332-14.6 0.0759-21.9 0.138-4.5 0.0375-9 0.0606-13.5 0.0743-1.71 0.00806-3.41 0.0217-5.12 0.0409-2.37 0.0263-4.73 0.0344-7.1 0.0381-1.05 0.0185-1.05 0.0185-2.13 0.0374-1.94-0.00812-1.94-0.00812-5.06-0.362-2.5-3.75-2.06-5.27-1.62-9.69 0.106-1.25 0.211-2.51 0.32-3.8 0.101-1.16 0.201-2.32 0.305-3.51 0.543-7.31-0.949-12.9-5-19-0.33 1.32-0.66 2.64-1 4h2c-0.0819 3.48-0.195 6.96-0.312 10.4-0.0338 1.46-0.0338 1.46-0.0684 2.95-0.208 5.67-1.01 10.3-2.98 15.6-2.81 8.93 0.741 20.7 4.72 28.8 3.63 6.8 7.53 13.5 12.2 19.6 3.04 4.15 4.71 8.82 6.44 13.6h1c0.0449 0.671 0.0898 1.34 0.136 2.03 0.212 3.05 0.444 6.1 0.677 9.16l0.213 3.2c0.121 1.53 0.121 1.53 0.244 3.1 0.0681 0.937 0.136 1.87 0.206 2.84 0.607 3.1 1.7 5.11 3.52 7.68 0.66 0.33 1.32 0.66 2 1v2c0.557 0.227 1.11 0.454 1.69 0.688 5.01 2.85 8.56 7.32 11.3 12.3 0.519 4.24-0.194 7.16-2 11-6.25 0.822-10.7-2.07-16-5-0.315 0.603-0.629 1.21-0.953 1.83-2.28 4.27-4.31 7.99-8.05 11.2-1.46-0.398-2.92-0.819-4.38-1.25l-2.46-0.703c-2.66-1.29-2.96-2.43-4.16-5.05-0.99-0.33-1.98-0.66-3-1v-2h-2l-1-2c-2.71 1.04-5.1 2.06-7.56 3.62-5.02 2.01-10.1 1.99-15.4 1.38-2.31-2.31-2.37-2.9-2.5-6.06 0.15-5.82 2.67-9.69 6.5-13.9 2.06-1.65 4.12-3.13 6.36-4.52 2.94-2.67 2.61-5.93 2.8-9.72 0.0383-6.89-0.23-13.1-2.17-19.8-0.191-0.694-0.382-1.39-0.578-2.1-0.457-1.64-0.937-3.27-1.42-4.9h3c3.02 3.15 4.39 7.02 6 11 1.73-1.52 1.73-1.52 3-4-0.0318-2.77-0.496-5.25-1-8-0.66 0.66-1.32 1.32-2 2-0.481-1.42-0.96-2.83-1.44-4.25-0.267-0.789-0.534-1.58-0.809-2.39-0.754-2.36-0.754-2.36-1.22-4.58-0.381-2.01-0.381-2.01-2.59-3.03-0.959-0.371-0.959-0.371-1.94-0.75v-4c-0.66 0.66-1.32 1.32-2 2-2-3-2-3-2-6h-3c-0.66-0.99-1.32-1.98-2-3-0.66-0.33-1.32-0.66-2-1-0.374-1.99-0.707-3.99-1-6-0.33-0.33-0.66-0.66-1-1-0.262-2-0.521-4-0.75-6-0.258-2.06-0.679-4-1.25-6-0.33-1.32-0.66-2.64-1-4h9c-0.0309-1.21-0.0309-1.21-0.0625-2.44 0.0625-2.56 0.0625-2.56 1.06-3.56l-2.38 0.0625c-2.63-0.0625-2.63-0.0625-4.62-1.06-0.633-2.29-0.633-2.29-1.12-5.06-0.168-0.919-0.335-1.84-0.508-2.79-0.121-0.71-0.242-1.42-0.367-2.15h-2c-0.0825-1.05-0.165-2.1-0.25-3.19-0.821-4.17-1.92-5.73-4.75-8.81-1.01-1.33-2.01-2.66-3-4-0.66 0.66-1.32 1.32-2 2-0.66-0.66-1.32-1.32-2-2 0.99-0.33 1.98-0.66 3-1v-2h-2v-2c2.97-0.495 2.97-0.495 6-1v-2h-5v-8c0.99-0.33 1.98-0.66 3-1 0.99-1.49 0.99-1.49 2-3 0.33 0.99 0.66 1.98 1 3h2v-3h-2v-4h-3v-2c-0.99-0.33-1.98-0.66-3-1-1.13-4.75-1.13-4.75 0-7-0.99-0.33-1.98-0.66-3-1 0.99-0.66 1.98-1.32 3-2-3.37 0.547-5.08 1.05-8 3-2-1-2-1-3-2-0.99 0.495-0.99 0.495-2 1-0.562-1.94-0.562-1.94-1-4l1-1c-0.33-1.65-0.66-3.3-1-5l-11-1c0.66-1.65 1.32-3.3 2-5v-2c2.05 1.02 4.08 2.04 6.06 3.19 2.09 1.13 2.09 1.13 4.94-0.188v3c1.49 0.495 1.49 0.495 3 1v-2.44-3.56c-0.33-0.66-0.66-1.32-1-2h-2c-0.66-0.99-1.32-1.98-2-3-4.95 0.495-4.95 0.495-10 1-0.495 1.98-0.495 1.98-1 4-0.619-0.186-1.24-0.371-1.88-0.562-2.17-0.674-2.17-0.674-4.12 0.562l-2-2c-2.07-0.643-2.07-0.643-4-1v-4c-0.904 0.0116-1.81 0.0232-2.74 0.0352-1.18 0.00902-2.36 0.018-3.57 0.0273-1.17 0.0116-2.34 0.0232-3.55 0.0352-3.14-0.0977-3.14-0.0977-6.14-1.1-0.0825-1.28-0.165-2.56-0.25-3.88-0.222-2.19-0.222-2.19-0.75-4.12-1.85-1.26-1.85-1.26-4-2-1.75-2.62-1.75-2.62-3-5 0.99-0.66 1.98-1.32 3-2 0.736-3.57 0.736-3.57 1-7-1.09 0.0206-2.19 0.0412-3.31 0.0625-3.69-0.0625-3.69-0.0625-6.69-1.06v-2h-4c0.33-0.99 0.66-1.98 1-3h-3c-0.33 0.33-0.66 0.66-1 1-2.02 0.234-4.04 0.413-6.06 0.562-1.1 0.0838-2.21 0.168-3.35 0.254-1.28 0.0909-1.28 0.0909-2.59 0.184-0.104 0.777-0.209 1.55-0.316 2.36-0.684 2.64-0.684 2.64-3.62 4.96-3.06 1.69-3.06 1.69-5.06 1.69-0.33 1.32-0.66 2.64-1 4h-2c-0.66 3.96-1.32 7.92-2 12-0.33-0.99-0.66-1.98-1-3-1.98 0.495-1.98 0.495-4 1h2c-0.33 0.66-0.66 1.32-1 2 0.495 0.495 0.495 0.495 1 1 0.141 2.67 0.0425 5.32 0 8-1.98 0.495-1.98 0.495-4 1-0.495-0.99-0.495-0.99-1-2-0.99 0.495-0.99 0.495-2 1-0.495-0.99-0.495-0.99-1-2h-3c-0.33 1.32-0.66 2.64-1 4-0.124-0.804-0.248-1.61-0.375-2.44-0.206-0.846-0.412-1.69-0.625-2.56-0.66-0.33-1.32-0.66-2-1-0.625-2.06-0.625-2.06-1-4-0.99 0.99-0.99 0.99-2 2-0.99-0.99-1.98-1.98-3-3-0.33 0.99-0.66 1.98-1 3-0.964-2.89-1-5-1-8l-3 1c-2.14-3.2-2.23-4.02-2.12-7.69 0.018-0.808 0.0361-1.62 0.0547-2.45 0.0232-0.615 0.0464-1.23 0.0703-1.86h2c-0.248-1.58-0.248-1.58-0.5-3.19-0.396-3.02-0.592-5.78-0.5-8.81h5v-19h2c-0.33-0.99-0.66-1.98-1-3h2c0.371-1.86 0.371-1.86 0.75-3.75 0.938-3.79 2.16-5.74 5.25-8.25 0.66-0.66 1.32-1.32 2-2 0.66 0.33 1.32 0.66 2 1-0.186-0.598-0.371-1.2-0.562-1.81-0.438-2.19-0.438-2.19 0.562-5.19zm148 112 1 2zm2 3 1 2zm1 2 1 2zm1 3 1 2z" fill="#C1F9BD"/>
<path transform="translate(1331,83)" d="m0 0h51c-0.33 107-0.66 213-1 323h-50c-1.02-3.06-1.13-5.11-1.13-8.31-0.00261-1.11-0.00522-2.22-0.0079-3.36 0.00223-1.22 0.00446-2.45 0.00676-3.7-0.00156-1.29-0.00312-2.59-0.00473-3.92-0.00419-3.6-0.00211-7.2 9.86e-4 -10.8 0.00226-3.88-0.00123-7.76-0.00398-11.6-0.00445-7.61-0.00348-15.2-5.87e-4 -22.8 0.00226-6.18 0.00257-12.4 0.00148-18.5-1.53e-4 -0.879-3.06e-4 -1.76-4.64e-4 -2.66-3.2e-4 -1.78-6.44e-4 -3.57-9.73e-4 -5.35-0.00285-16.7 4.31e-4 -33.5 0.0058-50.2 0.00447-14.4 0.00369-28.8-9.19e-4 -43.1-0.00535-16.7-0.00746-33.4-0.00439-50.1 3.19e-4 -1.78 6.33e-4 -3.56 9.43e-4 -5.33 1.54e-4 -0.875 3.09e-4 -1.75 4.68e-4 -2.65 8.65e-4 -6.18-5.97e-4 -12.4-0.00295-18.5-0.0028-7.52-0.00206-15 0.00328-22.6 0.00263-3.84 0.00365-7.68 3.51e-4 -11.5-0.00351-4.16 6.73e-4 -8.31 0.00568-12.5-0.00223-1.22-0.00446-2.45-0.00676-3.7 0.00261-1.11 0.00522-2.22 0.0079-3.36 1.62e-4 -0.96 3.25e-4 -1.92 4.92e-4 -2.91 0.125-2.4 0.125-2.4 1.13-5.4z" fill="#FBFCFE"/>
<path transform="translate(364,72)" d="m0 0c0.99 0.66 1.98 1.32 3 2-1.01 12.9-6.17 24.6-12 36h-2c-0.103 0.557-0.206 1.11-0.312 1.69-1.72 5.8-5.97 10.2-9.75 14.8-1.97 2.42-1.97 2.42-3.38 5-1.85 2.97-4.04 5.08-6.56 7.5-0.945 0.961-1.89 1.93-2.82 2.89-0.954 0.973-1.91 1.95-2.86 2.92-0.485 0.502-0.971 1-1.47 1.52-1.24 1.26-2.54 2.47-3.84 3.67h-2c-0.99 1.98-0.99 1.98-2 4h-2c-0.495 1.49-0.495 1.49-1 3l-3 3v2c6.5-1.19 12.1-3.2 18.2-5.82 3.24-1.35 6.42-2.33 9.82-3.18 0.66 0.66 1.32 1.32 2 2-1.38 15.3-18.9 35.2-30.3 44.9-1.66 1.14-1.66 1.14-4.66 2.14-0.249 0.565-0.498 1.13-0.754 1.71-1.93 3.54-5.01 5.51-8.18 7.91-0.634 0.49-1.27 0.98-1.92 1.48-2.67 2.06-5.34 4.02-8.14 5.89 0.402 1.33 0.402 1.33 0.812 2.69 0.188 3.31 0.188 3.31-1.94 6-2.59 2.08-4.96 3.72-7.88 5.31-1.58 0.873-3.17 1.75-4.75 2.62-0.779 0.425-1.56 0.851-2.36 1.29-1.84 0.946-1.84 0.946-2.89 2.09-5.77 0.566-8.44-0.528-13-4l-2.69-1.56c-2.12-1.32-3.56-2.69-5.31-4.44-0.99-0.33-1.98-0.66-3-1-0.681-0.742-0.681-0.742-1.38-1.5-1.57-1.71-1.57-1.71-4.06-1.94-3.25-0.714-4.36-2.13-6.56-4.56l-3-2v-2h-2v-2h-2c-1.6-1.99-3.06-3.96-4.5-6.06-0.403-0.561-0.807-1.12-1.22-1.7-2.07-2.99-3.5-5.57-4.37-9.11-0.449-1.55-0.449-1.55-0.906-3.13l-3-1c-0.248-0.681-0.495-1.36-0.75-2.06-3.72-8.74-12.8-16-21.2-19.9 0.338-2.8 0.719-3.78 2.97-5.56 8.12-4.61 15.9-8.32 25-10.7 2.25-0.607 2.25-0.607 4.07-2.71 2.31-0.794 4.64-1.4 7-2.02 4.14-1.35 8.03-3.17 12-4.98 1.63-0.729 3.27-1.46 4.9-2.18 8.45-3.78 16.9-7.58 25.1-11.8 2.71-1.36 5.42-2.71 8.12-4.06 1.97-0.984 3.94-1.97 5.91-2.96 1.32-0.66 2.65-1.31 3.98-1.96 4.62-2.27 9.04-4.76 13.4-7.46 4.85-2.95 9.72-5.82 14.7-8.49 1.94-1.08 1.94-1.08 3.95-2.7 1.89-1.37 1.89-1.37 3.89-1.37v-2c1.91-1.3 1.91-1.3 4.5-2.75 7.56-4.38 14.2-9.76 21-15.2 4.39-3.55 8.76-6.98 13.5-10z" fill="#BBE1F5"/>
<path transform="translate(110 36.6)" d="m0 0c1.21-0.0116 2.42-0.0232 3.67-0.0352 19.9 0.0641 19.9 0.0641 27.3 5.59 3.03 3.4 5.3 6.94 7.57 10.9 4.18 7.25 7.58 11.5 15.9 13.9 2.11 0.269 4.23 0.465 6.35 0.598 1.77 0.119 1.77 0.119 3.58 0.24 1.22 0.0741 2.44 0.148 3.7 0.225 2.43 0.154 4.86 0.312 7.29 0.473 1.07 0.0658 2.14 0.132 3.25 0.199 4.88 0.456 4.88 0.456 6.84 1.27 1.94 2.8 2.26 5.16 2.27 8.52 0.00258 0.858 0.00516 1.72 0.00781 2.6-0.00773 0.889-0.0155 1.78-0.0234 2.69 0.00773 0.877 0.0155 1.75 0.0234 2.66-0.0156 5.23-0.572 9.58-2.27 14.5h-2c-0.99 2.97-1.98 5.94-3 9-1.32-0.33-2.64-0.66-4-1-0.33-0.99-0.66-1.98-1-3-0.619 0.619-0.619 0.619-1.25 1.25l-5.75 5.75c-0.433-0.66-0.866-1.32-1.31-2-0.557-0.66-1.11-1.32-1.69-2h-3c-0.33 0.99-0.66 1.98-1 3-2.48 0.495-2.48 0.495-5 1-1.32-1.98-2.64-3.96-4-6-0.227 0.639-0.454 1.28-0.688 1.94-1.31 2.06-1.31 2.06-3.94 2.81-0.784 0.0825-1.57 0.165-2.38 0.25-1.06-2.38-1.06-2.38-2-5 0.33-0.66 0.66-1.32 1-2-1.49 0.495-1.49 0.495-3 1-1.68-1.32-3.34-2.66-5-4-2.69-0.789-2.69-0.789-5-1 0.33-1.32 0.66-2.64 1-4-3.56-2.3-6.95-3.77-11-5v-2h2c-1.22-2.69-1.22-2.69-3-5v-2c0.66-0.33 1.32-0.66 2-1-0.99-1.98-0.99-1.98-2-4h2c0.495-0.99 0.495-0.99 1-2 0.66 0.33 1.32 0.66 2 1-0.737-3.14-1.55-6.11-3-9-3.02-1.45-3.02-1.45-6-2-0.495-1.48-0.495-1.48-1-3-0.99-0.66-1.98-1.32-3-2 0.33-1.98 0.66-3.96 1-6h-11c4.53-2.27 6.18-1.93 11-1v-2c-1.46-0.027-2.92-0.0464-4.38-0.0625-1.22-0.0174-1.22-0.0174-2.46-0.0352-2.21-0.047-2.21-0.047-4.16 1.1-0.465 1.9-0.465 1.9-0.625 4.06-0.186 1.95-0.186 1.95-0.375 3.94 0.722-0.186 1.44-0.371 2.19-0.562 2.94-0.457 4.95-0.173 7.81 0.562v1c-5.14 1.28-9.69 2-15 2-0.99 0.66-1.98 1.32-3 2-0.66-0.33-1.32-0.66-2-1v2h4c0.365 2.23 0.716 4.46 1.06 6.69 0.197 1.24 0.394 2.48 0.598 3.76 0.307 3.21 0.183 5.47-0.66 8.55-0.33-0.66-0.66-1.32-1-2-2.02-0.652-2.02-0.652-4-1-0.33 0.99-0.66 1.98-1 3h-4c-2 4.12-2.18 7.45-2 12-5.75 1.12-5.75 1.12-8 0-0.33 1.32-0.66 2.64-1 4v-4c-0.33 1.65-0.66 3.3-1 5-1.64 0.217-1.64 0.217-3.31 0.438-3.62 0.445-3.62 0.445-6.69 1.56v-2c-1.32-0.33-2.64-0.66-4-1l-1 5c-1.32-0.33-2.64-0.66-4-1l-1 2h-4v-2h-4c-1.67-0.304-3.34-0.631-5-1 0.495-0.99 0.495-0.99 1-2-0.99-0.33-1.98-0.66-3-1-2.45-4.17-1.91-7.37-1-12h-4c-0.66 1.32-1.32 2.64-2 4h-2c-0.33 0.99-0.66 1.98-1 3-0.714-13.9 3.7-25.8 12-37 0.66-0.33 1.32-0.66 2-1 0.433-0.763 0.866-1.53 1.31-2.31 1.9-3.02 3.83-4.58 6.69-6.69 0.736-0.637 1.47-1.27 2.23-1.93 3.12-2.33 6.09-3.69 9.71-5.13 1.78-0.729 1.78-0.729 3.59-1.47 10.8-3.82 21.6-4.95 33-4.84z" fill="#C5FAC1"/>
<path transform="translate(70,263)" d="m0 0c2.1-0.328 2.1-0.328 5 0 2.29 1.68 4.3 3.33 6.38 5.25 4.31 3.93 8.46 7 13.6 9.75v2c0.681 0.227 1.36 0.454 2.06 0.688 2.48 1.11 4.13 2.13 6.25 3.75 3.1 2.3 6.07 3.57 9.71 4.81 2.03 0.77 3.8 1.71 5.67 2.81 3.14 1.96 3.14 1.96 6.06 3 2.46 1.02 3.54 1.92 5.25 3.94 0.668 1.84 0.668 1.84 1.19 3.94 1.64 5.37 4.63 9.53 7.88 14.1 6.78 10.5 7.11 23.3 4.75 35.3-1.08 3.59-2.68 6.61-4.69 9.75-2.31 4-2.22 7.82-2.37 12.4-0.471 7.11-0.471 7.11-3.31 9.88-0.804 0.557-1.61 1.11-2.44 1.69 0.33 0.66 0.66 1.32 1 2-9.9 2.73-9.9 2.73-14 2-2.03-1.85-3.39-3.73-5-6-0.727 0.338-1.45 0.675-2.2 1.02-7.22 3.2-14 5.04-21.8 5.98-0.625-1.81-0.625-1.81-1-4 0.66-0.99 1.32-1.98 2-3v-3c-3.61-1.13-6.98-1.1-10.8-1.06-1.76 0.0135-1.76 0.0135-3.55 0.0273-0.892 0.0116-1.78 0.0232-2.7 0.0352 0-3.75 0.743-5.01 3-8 2.38-1.56 4.46-2.8 7-4 1.01-0.509 2.02-1.02 3.07-1.54 5.49-2.34 11.6-2.44 17.5-2.83 5.06-0.428 5.06-0.428 8.97-3.34 2.67-5.14 3.62-10.6 4.51-16.3 0.147-0.692 0.294-1.38 0.445-2.1 0.991-5.3 0.244-10.2-2.45-14.9-1.85-1.04-1.85-1.04-4-2-0.673-0.321-1.35-0.643-2.04-0.974-0.711-0.335-1.42-0.67-2.16-1.01-4.19-1.98-8.38-3.96-12.6-5.95-1.82-0.866-3.65-1.73-5.47-2.59-4.98-2.41-9.45-5-13.8-8.47v-2c-0.907-0.375-0.907-0.375-1.83-0.758-2.5-1.43-3.39-2.67-4.86-5.12-0.416-0.678-0.833-1.36-1.26-2.05-3.43-6.75-3.12-16.4-1.45-23.7 0.773-2.07 0.773-2.07 2.4-5.38 0.392-0.825 0.784-1.65 1.19-2.5 0.268-0.495 0.536-0.99 0.812-1.5zm45 118c-0.33 0.66-0.66 1.32-1 2h2c-0.33-0.66-0.66-1.32-1-2zm3 6v1h11v-1h-11z" fill="#C1F9BD"/>
<path transform="translate(302,34)" d="m0 0c0.99 0.33 1.98 0.66 3 1 2.03 11.3 0.751 23.2-3.06 34-1.24 3.96-1.59 7.88-1.94 12 0.451-0.5 0.902-1 1.37-1.52 0.539-0.49 1.08-0.98 1.63-1.48 2.14 0.251 3.46 0.459 5 2-0.165 3.08-0.524 5.96-1 9-0.0881 0.653-0.176 1.31-0.267 1.98-1.83 12.8-1.83 12.8-5.78 17.4-2.89 1.91-5.78 3.28-8.96 4.66-1.45 0.701-2.9 1.41-4.35 2.12-4.05 1.98-8.13 3.88-12.2 5.76-3.76 1.73-7.5 3.48-11.2 5.24-0.694 0.325-1.39 0.65-2.1 0.985-4.59 2.16-9.13 4.41-13.6 6.7-3.52 1.78-6.97 3.49-10.7 4.81-3.04 1.11-5.7 2.33-8.56 3.81-4.38 2.24-8.81 3.97-13.4 5.59-2.72 0.972-5.38 2.05-8.05 3.16-3.55 1.44-6.85 2.41-10.7 2.81-1.8-3.59-1.84-7.1-1-11 2.21-3.22 4.99-5.55 8-8l2.27-1.86c1.62-1.3 3.25-2.59 4.89-3.88 7.94-6.34 15.5-13.1 23.2-19.8 1.62-1.41 3.26-2.78 4.92-4.14 2.68-2.18 2.68-2.18 4.69-4.25 1.81-1.81 3.66-3.42 5.62-5.06 2.55-2.15 4.47-4.3 6.44-7h2c0.278-1.05 0.278-1.05 0.562-2.12 1.71-3.43 3.77-4.97 6.7-7.34 2.46-2.18 4-4.76 5.73-7.54 2.76-3.58 5.81-6.81 9-10 1.34-1.66 2.68-3.33 4-5 0.681-0.754 0.681-0.754 1.38-1.52 3.71-4.11 6.51-8.42 9.23-13.2 1.3-2.09 2.59-3.58 4.39-5.23 0.557-0.557 1.11-1.11 1.69-1.69 0.433-0.433 0.866-0.866 1.31-1.31z" fill="#BBE1F5"/>
<path transform="translate(77,139)" d="m0 0c0.763 0.784 1.53 1.57 2.31 2.38 2.6 2.7 2.6 2.7 5.69 4.62v2c0.723 0.278 1.45 0.557 2.19 0.844 2.81 1.16 2.81 1.16 5.21 2.38 6.21 3.14 11.7 4.39 18.6 5.19 5 0.652 9.85 1.87 14.7 3.09 0.874 0.214 1.75 0.428 2.65 0.648 1.23 0.313 1.23 0.313 2.49 0.633 0.733 0.186 1.47 0.373 2.22 0.564 1.95 0.654 1.95 0.654 4.95 2.65-0.33 1.32-0.66 2.64-1 4 2.31 1.32 4.62 2.64 7 4v3c1.49 0.495 1.49 0.495 3 1 0.33 0.99 0.66 1.98 1 3-0.742 0.289-1.49 0.577-2.25 0.875-0.908 0.371-1.82 0.743-2.75 1.12-1.11 0.371-1.11 0.371-2.25 0.75-2.1 1.21-2.1 1.21-2.5 4.38-0.0825 0.949-0.165 1.9-0.25 2.88-0.66-0.33-1.32-0.66-2-1v-5h-2c0.495 2.97 0.495 2.97 1 6h-2v5c-0.66-0.33-1.32-0.66-2-1 0.33-1.65 0.66-3.3 1-5-1.09 0.0206-2.19 0.0412-3.31 0.0625-3.69-0.0625-3.69-0.0625-6.69-1.06v-2h-4c0.33-0.99 0.66-1.98 1-3h-3c-0.33 0.33-0.66 0.66-1 1-2.02 0.234-4.04 0.413-6.06 0.562-1.1 0.0838-2.21 0.168-3.35 0.254-1.28 0.0909-1.28 0.0909-2.59 0.184-0.104 0.777-0.209 1.55-0.316 2.36-0.684 2.64-0.684 2.64-3.62 4.96-3.06 1.69-3.06 1.69-5.06 1.69-0.33 1.32-0.66 2.64-1 4h-2c-0.66 3.96-1.32 7.92-2 12-0.33-0.99-0.66-1.98-1-3-1.98 0.495-1.98 0.495-4 1h2c-0.33 0.66-0.66 1.32-1 2 0.495 0.495 0.495 0.495 1 1 0.141 2.67 0.0425 5.32 0 8-1.98 0.495-1.98 0.495-4 1-0.495-0.99-0.495-0.99-1-2-0.99 0.495-0.99 0.495-2 1-0.495-0.99-0.495-0.99-1-2h-3c-0.33 1.32-0.66 2.64-1 4-0.124-0.804-0.248-1.61-0.375-2.44-0.206-0.846-0.412-1.69-0.625-2.56-0.66-0.33-1.32-0.66-2-1-0.625-2.06-0.625-2.06-1-4-0.99 0.99-0.99 0.99-2 2-0.99-0.99-1.98-1.98-3-3-0.33 0.99-0.66 1.98-1 3-0.964-2.89-1-5-1-8l-3 1c-2.14-3.2-2.23-4.02-2.12-7.69 0.018-0.808 0.0361-1.62 0.0547-2.45 0.0232-0.615 0.0464-1.23 0.0703-1.86h2c-0.248-1.58-0.248-1.58-0.5-3.19-0.396-3.02-0.592-5.78-0.5-8.81h5v-19h2c-0.33-0.99-0.66-1.98-1-3h2c0.371-1.86 0.371-1.86 0.75-3.75 0.938-3.79 2.16-5.74 5.25-8.25 0.66-0.66 1.32-1.32 2-2 0.66 0.33 1.32 0.66 2 1-0.186-0.598-0.371-1.2-0.562-1.81-0.438-2.19-0.438-2.19 0.562-5.19z" fill="#C1F9BD"/>
<path transform="translate(138,165)" d="m0 0c5.74 1.06 10.2 4.8 15 8 3.79 2.53 6.92 2.29 11.3 2.38 14.1 0.562 26.4 3.74 36.4 14.3 6.05 7.41 9.92 14.4 10.2 24.1-0.0421 2.26-0.0421 2.26 1.11 4.21-1.13 0.144-2.27 0.289-3.44 0.438-3.37 0.174-3.37 0.174-4.56 1.56 0.773 0.619 0.773 0.619 1.56 1.25 0.474 0.577 0.949 1.16 1.44 1.75-0.33 1.32-0.66 2.64-1 4h-13v-7c-0.99 0.33-1.98 0.66-3 1-0.577-0.804-1.16-1.61-1.75-2.44-2.4-2.73-2.88-2.97-6.25-3.56-0.908-0.495-1.82-0.99-2.75-1.5-3.91-1.81-6.97-2.08-11.2-2.5-2.5-0.835-4.67-1.79-7-3 1.98-0.495 1.98-0.495 4-1-3.66-0.749-6.42-1.24-10 0-0.66-1.32-1.32-2.64-2-4-4.95 0.495-4.95 0.495-10 1-0.0619-0.784-0.124-1.57-0.188-2.38-0.268-0.866-0.536-1.73-0.812-2.62-2.35-1.34-2.35-1.34-5-2-0.99-0.33-1.98-0.66-3-1-1.25-7.24-1.25-7.24 0-11v-2h2c0.33 1.65 0.66 3.3 1 5 0.206-0.928 0.412-1.86 0.625-2.81 1.38-3.19 1.38-3.19 4.38-5 0.99-0.392 1.98-0.784 3-1.19 0.66-0.33 1.32-0.66 2-1v-2c-1.65-0.33-3.3-0.66-5-1v-3c-2.94-2.21-2.94-2.21-6-4 0.66-0.99 1.32-1.98 2-3z" fill="#C5FAC1"/>
<path transform="translate(252,244)" d="m0 0c4.66 1.41 8.83 3.37 13.1 5.62 14 7.18 28.8 12.7 43.9 17.4 1.18 0.37 2.35 0.74 3.57 1.12 6.82 2.12 13.6 4.22 20.6 5.89 13.3 3.26 25.5 7.78 33 19.9 3.65 6.79 3.21 13.6 2.83 21.1h-2c-0.144-1.07-0.289-2.14-0.438-3.25-0.655-4.37-1.71-8.32-3.12-12.5-0.269-0.799-0.539-1.6-0.816-2.42-0.205-0.603-0.41-1.21-0.621-1.83v4 2h-11c-0.495-1.98-0.495-1.98-1-4h-2c-0.33 0.99-0.66 1.98-1 3h-5c0.33-0.99 0.66-1.98 1-3h-2v-3c-0.66-0.33-1.32-0.66-2-1 0.495-0.99 0.495-0.99 1-2-1.49-0.495-1.49-0.495-3-1v-9c-2.97-0.99-5.94-1.98-9-3v-2c-3.96-0.33-7.92-0.66-12-1v-2c-4.29-0.33-8.58-0.66-13-1-0.495 1.49-0.495 1.49-1 3-0.99 0.66-1.98 1.32-3 2 0.186 0.743 0.371 1.49 0.562 2.25 0.43 2.7 0.289 4.2-0.562 6.75h-3c-2.04 1.28-4.04 2.61-6 4v-2h-2.81c-5.4 0-7.09-0.331-11.2-4-0.33-0.66-0.66-1.32-1-2-2.31-0.731-4.65-1.4-7-2-0.66 0.66-1.32 1.32-2 2-2.61 1.05-5.2 1.7-8 2-3.6-1.86-4.57-6.4-6-10-0.371-0.763-0.743-1.53-1.12-2.31-1.13-3.47-1.36-6.85-1.63-10.5-0.122-2.25-0.122-2.25-1.25-4.21h-4v-3h-3c0.33-0.99 0.66-1.98 1-3 0.784-0.0619 1.57-0.124 2.38-0.188 0.866-0.268 1.73-0.536 2.62-0.812 1.37-2.48 1.37-2.48 2-5 0.99 0.33 1.98 0.66 3 1v-2z" fill="#C5FAC1"/>
<path transform="translate(156,64)" d="m0 0c1.04 0.472 2.07 0.944 3.14 1.43 6.02 2.26 12.2 2.35 18.6 2.7 2.41 0.145 4.82 0.294 7.23 0.445 1.06 0.0595 2.12 0.119 3.21 0.18 4.82 0.429 4.82 0.429 6.81 1.25 1.94 2.8 2.26 5.16 2.27 8.52 0.00387 1.29 0.00387 1.29 0.00781 2.6-0.00773 0.889-0.0155 1.78-0.0234 2.69 0.0116 1.32 0.0116 1.32 0.0234 2.66-0.0156 5.23-0.572 9.58-2.27 14.5h-2c-0.99 2.97-1.98 5.94-3 9-1.32-0.33-2.64-0.66-4-1-0.33-0.99-0.66-1.98-1-3-0.412 0.412-0.825 0.825-1.25 1.25-1.92 1.92-3.83 3.83-5.75 5.75-0.433-0.66-0.866-1.32-1.31-2-0.835-0.99-0.835-0.99-1.69-2h-3c-0.33 0.99-0.66 1.98-1 3-2.47 0.495-2.47 0.495-5 1-1.32-1.98-2.64-3.96-4-6-0.227 0.639-0.454 1.28-0.688 1.94-1.31 2.06-1.31 2.06-3.94 2.81-0.784 0.0825-1.57 0.165-2.38 0.25-1.06-2.37-1.06-2.37-2-5 0.33-0.66 0.66-1.32 1-2-1.49 0.495-1.49 0.495-3 1-1.68-1.32-3.34-2.66-5-4-2.69-0.789-2.69-0.789-5-1 0.33-1.32 0.66-2.64 1-4-3.56-2.3-6.95-3.77-11-5v-2h2c-1.22-2.69-1.22-2.69-3-5v-2c0.66-0.33 1.32-0.66 2-1-0.66-1.32-1.32-2.64-2-4h2c0.33-0.66 0.66-1.32 1-2h3c0.34 1.33 0.34 1.33 0.688 2.69 1.5 3.78 3.24 5.7 6.31 8.31h2c0.289-0.804 0.577-1.61 0.875-2.44 1.12-2.56 1.12-2.56 3.12-3.56v-3c1.32 0.33 2.64 0.66 4 1v-2c2.97 0.66 5.94 1.32 9 2v1c-1.98 0.33-3.96 0.66-6 1 0.969 0.124 1.94 0.248 2.94 0.375 1.52 0.309 1.52 0.309 3.06 0.625 0.495 0.99 0.495 0.99 1 2 0.495-1.48 0.495-1.48 1-3 0.66 0.99 1.32 1.98 2 3 3.58 0.25 3.58 0.25 7 0 0.597-2.76 1-5.16 1-8v-2c-1.11 0.0206-2.23 0.0413-3.38 0.0625-3.62-0.0625-3.62-0.0625-5.62-1.06v2c-2.96-0.613-4.38-1.25-7-3 0.33-0.66 0.66-1.32 1-2 0.664 0.0722 1.33 0.144 2.01 0.219 0.883 0.0928 1.77 0.186 2.68 0.281 1.31 0.139 1.31 0.139 2.64 0.281 2.57 0.21 5.1 0.256 7.68 0.219-1.09-0.0735-1.09-0.0735-2.2-0.148-10.8-0.833-10.8-0.833-14.8-2.85-0.648-2.07-0.648-2.07-1-4z" fill="#C1F9BD"/>
<path transform="translate(232,334)" d="m0 0h2v4c0.99-0.33 1.98-0.66 3-1 8.18 4.46 11.7 13.8 15 22h1c0.0553 0.66 0.111 1.32 0.168 2 0.255 3.02 0.512 6.04 0.77 9.06 0.087 1.04 0.174 2.08 0.264 3.15 0.454 5.29 0.972 10.5 1.8 15.8h-2v-2h-5c-0.66-2.64-1.32-5.28-2-8h2c-2.62-2.62-4.52-2.66-8.1-3.05-2.04-0.14-2.04-0.14-3.71 1.48-0.392 0.516-0.784 1.03-1.19 1.56h-3c-0.625-3.38-0.625-3.38-1-7 0.66-0.66 1.32-1.32 2-2-0.289-0.687-0.577-1.37-0.875-2.08-0.371-0.901-0.743-1.8-1.12-2.73-0.371-0.893-0.743-1.79-1.12-2.71-0.875-2.48-0.875-2.48-0.875-5.48-0.66-0.33-1.32-0.66-2-1-0.0425-2-0.0408-4 0-6 0.33-0.33 0.66-0.66 1-1-0.33-0.66-0.66-1.32-1-2h2c-0.165-0.763-0.33-1.53-0.5-2.31-0.5-2.69-0.5-2.69-0.5-5.69 0.979-1.02 1.98-2.02 3-3v-2z" fill="#C4F9C0"/>
<path transform="translate(70,263)" d="m0 0c3.64-0.501 4.97-0.0168 8.15 1.98 1.09 0.87 2.16 1.75 3.23 2.65 0.558 0.427 1.12 0.853 1.69 1.29 1.58 1.31 1.58 1.31 3.93 4.08-0.148 3.34-0.148 3.34-1 6h3c-0.33 2.64-0.66 5.28-1 8-0.99-0.99-1.98-1.98-3-3-0.66 0.99-1.32 1.98-2 3-1.98-0.66-3.96-1.32-6-2 1.14 6.46 2.78 10.9 7 16v2c1.65 0.66 3.3 1.32 5 2v2c1.32 0.33 2.64 0.66 4 1-0.33 0.33-0.66 0.66-1 1 1.13 0.536 2.27 1.07 3.44 1.62 3.11 1.74 3.45 2 4.5 5.62 0.0206 0.908 0.0412 1.82 0.0625 2.75-4.99-1.5-9.41-3.59-14-6-0.806-0.406-1.61-0.812-2.44-1.23-0.803-0.419-1.61-0.838-2.43-1.27-1.11-0.572-1.11-0.572-2.24-1.16-1.88-1.34-1.88-1.34-2.89-3.38-1.26-2.5-2.52-2.77-4.99-3.97-1.45-1.8-1.45-1.8-2.69-3.88-0.416-0.678-0.833-1.36-1.26-2.05-3.43-6.75-3.12-16.4-1.45-23.7 0.773-2.07 0.773-2.07 2.4-5.38 0.392-0.825 0.784-1.65 1.19-2.5 0.268-0.495 0.536-0.99 0.812-1.5z" fill="#C0FABB"/>
<path transform="translate(300,108)" d="m0 0h4c0.495 2.97 0.495 2.97 1 6-11.8 7.49-24.4 14.2-37.3 19.8-3.48 1.54-6.92 3.16-10.4 4.77-5.43 2.54-10.9 5.04-16.4 7.44-1.18 0.516-2.35 1.03-3.56 1.56-1.13 0.474-2.27 0.949-3.44 1.44-0.614 0.269-1.23 0.539-1.86 0.816-5.32 2.2-10.4 2.84-16.1 3.18 2.99-1.99 5.6-2.94 9-4-0.959-0.433-0.959-0.433-1.94-0.875-2.06-1.12-2.06-1.12-3.06-3.12 1.67-0.716 3.34-1.43 5.02-2.15 1.77-0.759 3.53-1.52 5.3-2.29 3.62-1.56 7.29-2.98 11-4.4 3.66-1.56 7.18-3.36 10.7-5.16 1.32-0.667 2.64-1.33 3.96-2 0.975-0.491 0.975-0.491 1.97-0.992 5.48-2.76 10.9-5.45 16.6-7.88 4.31-1.97 8.51-4.15 12.7-6.32 3.85-1.96 7.62-3.5 11.8-4.82 0.33-0.33 0.66-0.66 1-1z" fill="#000001"/>
<path transform="translate(35.6 203)" d="m0 0c0.784 0.0412 1.57 0.0825 2.38 0.125 1.18 2.39 2.34 4.79 3.5 7.19 0.334 0.674 0.668 1.35 1.01 2.04 3.18 6.65 3.18 6.65 2.49 10.8-1.62 1.71-3.29 3.37-5 5-2.58 4.21-3.62 8.25-4.47 13-0.527 1.95-0.527 1.95-2.53 3.95-2.39 0.348-2.39 0.348-5 0-4.94-3.81-8.13-8.82-9-15 0.191-9.24 3.2-16 9.62-22.8 0.784-0.743 1.57-1.49 2.38-2.25 2-2 2-2 4.62-2.12z" fill="#C0FABA"/>
<path transform="translate(151,135)" d="m0 0c0.66 0.99 1.32 1.98 2 3 2.29 0.471 2.29 0.471 4.88 0.5 4.06 0.145 6.05 0.81 9.12 3.5 1.32-0.66 2.64-1.32 4-2 0.66 1.32 1.32 2.64 2 4h3v-2c3.49 0.646 6.07 2.02 9 4 1.48 2.97 1.36 4.66 1 8-3.44 8.98-3.44 8.98-7.06 11.3-1.94 0.652-1.94 0.652-3.75-0.16-0.722-0.392-1.44-0.784-2.19-1.19-2.32-0.387-4.66-0.73-7-1v-3c-1.32-0.66-2.64-1.32-4-2v-5c-2.31 0.66-4.62 1.32-7 2-0.33-0.99-0.66-1.98-1-3-0.66-0.33-1.32-0.66-2-1v-7h-3v-2c-4.46-0.99-4.46-0.99-9-2v2c-1.32 0.33-2.64 0.66-4 1-0.688-1.81-0.688-1.81-1-4 1.06-1.66 1.06-1.66 3-3 3.14-0.0742 3.14-0.0742 6.69 0.312 1.18 0.12 2.36 0.24 3.57 0.363 1.36 0.16 1.36 0.16 2.74 0.324v-2z" fill="#C1F9BD"/>
<path transform="translate(242,274)" d="m0 0 1 2c0.99 0.33 1.98 0.66 3 1 0.124 0.969 0.248 1.94 0.375 2.94 0.206 1.01 0.412 2.02 0.625 3.06 0.66 0.33 1.32 0.66 2 1v3c2.31 0.33 4.62 0.66 7 1v1c2.97 0.495 2.97 0.495 6 1 0.33-1.32 0.66-2.64 1-4h8c-2.33 1.21-4.5 2.17-7 3h7c0.66 1.32 1.32 2.64 2 4 1.32-0.33 2.64-0.66 4-1v2h2v2h4v2c0.66-0.33 1.32-0.66 2-1 4.83-0.252 9.67-0.192 14.5-0.188 0.7-7.25e-4 1.4-0.00145 2.12-0.0022 10.9 0.00125 21.6 0.533 32.4 2.19-3.54 2.24-5.98 2.06-10.1 1.62-8.01-0.701-15.9-0.711-24-0.639-2.59 0.0224-5.18 0.0362-7.77 0.0477-7.35 0.0333-14.7 0.0758-22 0.138-4.52 0.0375-9.04 0.0606-13.6 0.0743-1.72 0.00806-3.44 0.0217-5.15 0.0409-2.39 0.0263-4.77 0.0344-7.16 0.0381-0.71 0.0124-1.42 0.0247-2.15 0.0374-1.96-0.00812-1.96-0.00812-5.11-0.362-2.54-3.8-2.05-5.51-1.62-10 0.463-4.99 0.463-4.99 0.625-10 0.99-0.33 1.98-0.66 3-1 0.33 1.98 0.66 3.96 1 6 0.99-0.33 1.98-0.66 3-1-0.33-0.66-0.66-1.32-1-2-0.134-2.67-0.0432-5.32 0-8z" fill="#C0FABA"/>
<path transform="translate(45,79)" d="m0 0c2 2 2 2 2 6 2.25-0.9 2.25-0.9 3.5-3.56 0.495-0.804 0.99-1.61 1.5-2.44h2c0.532 1.6 1.05 3.21 1.56 4.81 0.29 0.893 0.58 1.79 0.879 2.71 0.559 2.48 0.559 2.48-0.441 5.48 0.641-0.133 1.28-0.266 1.94-0.402 5.01-1.02 9.99-1.94 15.1-2.6v3h9c0.495 1.48 0.495 1.48 1 3 0.99 0.33 1.98 0.66 3 1-0.33-0.33-0.66-0.66-1-1v-2c3.15 0.699 6.03 1.76 9 3v2c-5.75 1.12-5.75 1.12-8 0-0.33 1.32-0.66 2.64-1 4v-4c-0.495 2.47-0.495 2.47-1 5-1.64 0.217-1.64 0.217-3.31 0.438-3.62 0.445-3.62 0.445-6.69 1.56v-2c-1.32-0.33-2.64-0.66-4-1-0.33 1.65-0.66 3.3-1 5-1.32-0.33-2.64-0.66-4-1-0.33 0.66-0.66 1.32-1 2h-4v-2h-4c-1.67-0.304-3.34-0.631-5-1 0.33-0.66 0.66-1.32 1-2-0.99-0.33-1.98-0.66-3-1-2.45-4.17-1.91-7.37-1-12h-4c-0.66 1.32-1.32 2.64-2 4h-2c-0.33 0.99-0.66 1.98-1 3-0.0543-1.75-0.0929-3.5-0.125-5.25-0.0348-1.46-0.0348-1.46-0.0703-2.95 0.197-2.82 0.75-4.41 2.2-6.8 0.33 0.66 0.66 1.32 1 2 0.33-0.66 0.66-1.32 1-2h2v-3z" fill="#C2FABD"/>
<path transform="translate(105,286)" d="m0 0c9.53 3.61 9.53 3.61 13.8 6.12 3.04 1.9 3.04 1.9 5.94 2.94 3.34 1.39 4.84 2.97 6.27 6.31 0.393 1.3 0.393 1.3 0.793 2.62 0.412 1.3 0.412 1.3 0.832 2.62 0.355 2.38 0.355 2.38-1.64 5.38-1.98 1.03-3.98 2.03-6 3-0.66 0.66-1.32 1.32-2 2-3.12 0.125-3.12 0.125-6 0v-2c-0.66-0.33-1.32-0.66-2-1-0.33 0.66-0.66 1.32-1 2-0.763-0.474-1.53-0.949-2.31-1.44-2.65-1.66-2.65-1.66-5.69-2.56-0.66-0.33-1.32-0.66-2-1 0.206-0.598 0.412-1.2 0.625-1.81 0.682-2.47 0.682-2.47-1.62-5.19 0.375-2.19 0.375-2.19 1-4 0.33 0.99 0.66 1.98 1 3-0.165-0.516-0.33-1.03-0.5-1.56-0.654-3.19-0.622-6.19-0.5-9.44 0.33-0.33 0.66-0.66 1-1-0.99-0.66-1.98-1.32-3-2 0.99-0.99 1.98-1.98 3-3z" fill="#C5FAC1"/>
<path transform="translate(120,211)" d="m0 0c3 1 3 1 5 4l2 2c-0.375 3.63-0.375 3.63-1 7h-2c0.351 1.09 0.701 2.19 1.06 3.31 0.938 3.69 0.938 3.69-0.0625 6.69 0.394 2.64 0.394 2.64 1 5-1.18 0.433-1.18 0.433-2.38 0.875-2.72 0.974-2.72 0.974-4.62 3.12-3.12 0.125-3.12 0.125-6 0v2c0.66 0.33 1.32 0.66 2 1-2.97 0.495-2.97 0.495-6 1-0.268-0.928-0.536-1.86-0.812-2.81-0.9-3.15-0.9-3.15-2.81-4.69-2.08-2.27-1.38-4.52-1.38-7.5-0.99-0.66-1.98-1.32-3-2v-2c-1.32-0.33-2.64-0.66-4-1 0.33-0.66 0.66-1.32 1-2 1.26-0.103 2.52-0.206 3.81-0.312 3.44-0.339 4-0.508 6.62-3.06 1.67-2.59 1.67-2.59 2.56-5.62 2.43-1.19 4.28-2 7-2 0.66-0.99 1.32-1.98 2-3z" fill="#C1F9BD"/>
<path transform="translate(110 187)" d="m0 0c1.18-0.0213 1.18-0.0213 2.38-0.043 2.06 0.23 2.06 0.23 4.06 2.23v2c-1.1 0.255-1.1 0.255-2.23 0.516-7.15 1.78-11.2 3.6-16.1 9.11-2.63 5.46-1.5 10.7 0.375 16.4h6c0.0206-0.722 0.0413-1.44 0.0625-2.19 1.2-3.61 2.83-4.82 5.96-6.86 3.13-1.5 5.6-1.48 8.98-0.949 0.66 0.99 1.32 1.98 2 3-1.29 1.01-2.58 2-3.88 3-0.719 0.557-1.44 1.11-2.18 1.69-1.95 1.31-1.95 1.31-3.95 1.31-0.0825 0.743-0.165 1.49-0.25 2.25-0.954 3.5-1.69 4.76-4.75 6.75-4.6 0.361-8.05-0.397-11.9-2.88-4.04-4.16-4.04-4.16-4.12-7.69 0.0206-0.804 0.0413-1.61 0.0625-2.44-0.33-0.66-0.66-1.32-1-2-0.243-4.94-0.255-8.49 2-13h2c0.0851-0.605 0.17-1.21 0.258-1.83 0.96-2.8 2.09-3.39 4.62-4.86 0.699-0.416 1.4-0.833 2.12-1.26 3.26-1.71 5.94-2.21 9.57-2.24zm-18.6 27.2 1 2zm14 0 1 2z" fill="#010403"/>
<path transform="translate(169,93)" d="m0 0c0.33 0.66 0.66 1.32 1 2 3.58 1.08 3.58 1.08 7 0 2.12 0.938 2.12 0.938 4 2 0.33-0.33 0.66-0.66 1-1 0.33 0.66 0.66 1.32 1 2 0.99-0.33 1.98-0.66 3-1 0.66 0.33 1.32 0.66 2 1 0.33-0.66 0.66-1.32 1-2v3c2.97 0.495 2.97 0.495 6 1-0.66 0.33-1.32 0.66-2 1-0.907 2.11-0.907 2.11-1.62 4.56-0.26 0.826-0.521 1.65-0.789 2.5-0.193 0.638-0.387 1.28-0.586 1.93-1.94-0.312-1.94-0.312-4-1-0.33-0.99-0.66-1.98-1-3-0.412 0.412-0.825 0.825-1.25 1.25-1.92 1.92-3.83 3.83-5.75 5.75-3-3.88-3-3.88-3-5-0.638-0.11-1.28-0.219-1.93-0.332-0.826-0.159-1.65-0.317-2.5-0.48-0.824-0.151-1.65-0.302-2.5-0.457-0.682-0.241-1.36-0.482-2.07-0.73-0.33-0.99-0.66-1.98-1-3h-6c0.66-0.33 1.32-0.66 2-1-0.66-0.33-1.32-0.66-2-1 0-2 0-2 2-4 0.33-0.66 0.66-1.32 1-2 2.31-0.731 4.65-1.4 7-2z" fill="#C0F9BA"/>
<path transform="translate(79,137)" d="m0 0c0.888 0.597 0.888 0.597 1.79 1.21 11.1 7.45 19.2 11.1 32.6 12.5 1.21 0.13 2.42 0.259 3.66 0.393 2.97 0.317 5.93 0.623 8.9 0.92 0.495 1.49 0.495 1.49 1 3 2.29 1.17 2.29 1.17 5 2.06 4.9 1.73 4.9 1.73 6 3.94-1.98-0.33-3.96-0.66-6-1-0.33 0.66-0.66 1.32-1 2-0.993-0.266-1.99-0.531-3.01-0.805-1.37-0.359-2.74-0.715-4.12-1.07-0.727-0.189-1.45-0.377-2.2-0.571-4.56-1.14-8.98-1.86-13.7-2.3-8.56-1.05-15.6-5.1-23-9.25v-2c-0.619-0.268-1.24-0.536-1.88-0.812-2.12-1.19-2.12-1.19-4.12-4.19v-4z" fill="#010403"/>
<path transform="translate(91,373)" d="m0 0c6.88 2.88 6.88 2.88 8 4 0.66-0.66 1.32-1.32 2-2 2.16 0.242 2.16 0.242 4.62 0.875 0.817 0.204 1.63 0.407 2.48 0.617 0.626 0.168 1.25 0.335 1.9 0.508v3h6c-6.99 8.16-17 9.28-27 11-0.625-1.81-0.625-1.81-1-4 0.66-0.99 1.32-1.98 2-3v-3c-3.61-1.13-6.98-1.1-10.8-1.06-1.76 0.0135-1.76 0.0135-3.55 0.0273-0.892 0.0116-1.78 0.0232-2.7 0.0352-0.33-0.66-0.66-1.32-1-2 0.626-0.049 1.25-0.098 1.9-0.148 0.817-0.0748 1.63-0.15 2.48-0.227 0.812-0.0696 1.62-0.139 2.46-0.211 2.37-0.243 2.37-0.243 4.16-2.41 2.33-0.368 4.66-0.702 7-1 0.33-0.33 0.66-0.66 1-1z" fill="#C0FABA"/>
<path transform="translate(591,97)" d="m0 0h1v286h-1v-286z" fill="#020504"/>
<path transform="translate(217,394)" d="m0 0c1.32 0.66 2.64 1.32 4 2v2c0.99 0.33 1.98 0.66 3 1-0.66 0.66-1.32 1.32-2 2 0.654 3.11 0.654 3.11 3 4.06 0.66 0.309 1.32 0.619 2 0.938 0.33 0.66 0.66 1.32 1 2-3.79 4.23-7.19 6.76-13 7.25-3.05 0.0547-5.98 0.0955-9.02-0.254-2.37-2.37-2.32-3.01-2.38-6.25 0.0963-4.59 1.31-7.24 4.38-10.8 0.99-0.33 1.98-0.66 3-1-0.156 0.566-0.312 1.13-0.473 1.71-0.195 0.733-0.389 1.47-0.59 2.22-0.197 0.731-0.394 1.46-0.598 2.21-0.112 0.61-0.224 1.22-0.34 1.85 0.33 0.33 0.66 0.66 1 1 0.33-0.99 0.66-1.98 1-3 0.33 0.99 0.66 1.98 1 3 0.99-0.33 1.98-0.66 3-1 0.66 0.33 1.32 0.66 2 1v-2h-2c0-3 0-3 1-6 0.66-0.33 1.32-0.66 2-1-0.66-0.66-1.32-1.32-2-2 0.33-0.33 0.66-0.66 1-1z" fill="#C0FABA"/>
<path transform="translate(863,359)" d="m0 0c28 0.33 56.1 0.66 85 1 0.495 1.98 0.495 1.98 1 4-27.7-0.33-55.4-0.66-84-1v-2h-2v-2z" fill="#000201"/>
<path transform="translate(118 65.9)" d="m0 0c4.12 1.37 5.37 2.27 7.38 6.12 0.748 4.33 0.743 7.73-1.5 11.6-3.51 2.02-6.62 2.3-10.5 1.44-3.14-2.03-4.64-3.47-5.51-7.16-0.246-3.28-0.186-5.75 1.62-8.57 2.76-2.65 4.74-3.27 8.52-3.4zm-2.62 1.12 4 1z" fill="#000100"/>
<path transform="translate(101,196)" d="m0 0c0.743 0.474 1.48 0.949 2.25 1.44 2.36 1.34 4.12 2.07 6.75 2.56-0.0413 0.949-0.0825 1.9-0.125 2.88-0.225 3.23-0.225 3.23 2.12 5.12-1.42 0.835-1.42 0.835-2.88 1.69-3.21 2.38-4.08 3.55-5.12 7.31-2.88 0.188-2.88 0.188-6 0-2.78-4.18-3.46-8-3-13 1.61-3.07 3.6-5.51 6-8z" fill="#BAF1B8"/>
<path transform="translate(356,305)" d="m0 0v2c0.99-0.33 1.98-0.66 3-1 0.66 0.33 1.32 0.66 2 1v3h3c2.25 2.19 2.25 2.19 4 5-0.374 3.68-1.58 6.48-3.38 9.69-0.42 0.767-0.84 1.53-1.27 2.32-1.35 1.99-1.35 1.99-4.35 3.99-0.0864-0.762-0.173-1.52-0.262-2.31-1.16-8.56-3.3-15.7-9.74-21.7 3-2 3-2 7-2z" fill="#C0FABB"/>
<path transform="translate(727,153)" d="m0 0h1v187h-1v-187z" fill="#CEE9F8"/>
<path transform="translate(119 51.4)" d="m0 0c0.808 0.111 1.62 0.222 2.45 0.336 0.922 0.143 0.922 0.143 1.86 0.289v2h-9c2.97 0.33 5.94 0.66 9 1-0.0928 1.42-0.0928 1.42-0.188 2.88 0.0619 1.03 0.124 2.06 0.188 3.12 0.99 0.66 1.98 1.32 3 2-0.66 0.124-1.32 0.248-2 0.375-0.99 0.206-1.98 0.413-3 0.625-0.686 0.134-1.37 0.268-2.08 0.406-2 0.431-3.96 1.01-5.92 1.59-0.33 0.99-0.66 1.98-1 3-1.65 0.33-3.3 0.66-5 1-0.33 0.99-0.66 1.98-1 3h-1v-6h-4v-2c0.598-0.144 1.2-0.289 1.81-0.438 1.75-0.45 3.47-0.991 5.19-1.56 2.66-0.412 5.33-0.693 8-1-0.66-0.66-1.32-1.32-2-2-0.33 0.66-0.66 1.32-1 2-0.66-0.33-1.32-0.66-2-1-0.293-6.05-0.293-6.05 0-8 3.35-2.24 3.91-2.17 7.69-1.62z" fill="#C2FABD"/>
<path transform="translate(77,257)" d="m0 0h3c1.36 1.39 1.36 1.39 2.75 3.25 2.12 2.63 3.94 4.36 6.94 5.94 3.11 1.7 4.7 2.69 6.31 5.81-0.33 0.99-0.66 1.98-1 3 1.84 2.05 1.84 2.05 4 3-0.33 0.66-0.66 1.32-1 2h-3v-2c-0.677-0.218-1.35-0.436-2.05-0.66-3.84-1.75-6.86-4.15-10.1-6.78-0.628-0.49-1.26-0.981-1.9-1.49-2.87-2.28-4.84-3.98-6.91-7.08h3c-0.66-1.32-1.32-2.64-2-4h2v-1z" fill="#000102"/>
<path transform="translate(214,244)" d="m0 0c5.38 1.34 7.99 3.48 11 8h-2v2c0.99 0.33 1.98 0.66 3 1 0.95 3.7 0.95 6.3 0 10-1.32-0.33-2.64-0.66-4-1-0.33 0.66-0.66 1.32-1 2v-6h-4c-0.33-1.32-0.66-2.64-1-4-2.31-0.33-4.62-0.66-7-1 0.33-1.32 0.66-2.64 1-4 1.49 0.99 1.49 0.99 3 2 0.33-2.97 0.66-5.94 1-9z" fill="#C5FAC1"/>
<path transform="translate(125,70)" d="m0 0c2.06 0.438 2.06 0.438 4 1 1.05 3.22 0.908 5.3 0.0625 8.56-0.678 2.66-1.06 4.66-1.06 7.44l-3 3v3c-2.71 1.35-5.01 1.07-8 1v-2h5v-2c-0.66 0.33-1.32 0.66-2 1-2 0.04-4 0.0435-6 0-0.99-1.98-1.98-3.96-3-6 0.687-0.0374 1.37-0.0748 2.08-0.113 0.901-0.0657 1.8-0.131 2.73-0.199 0.893-0.058 1.79-0.116 2.71-0.176 2.88-0.593 3.86-1.07 5.48-3.51 0.325-2.48 0.325-2.48 0.125-5.12-0.0706-1.62-0.119-3.25-0.125-4.88l1-1z" fill="#C1F9BD"/>
<path transform="translate(152,259)" d="m0 0c1.32 0.33 2.64 0.66 4 1-0.33 1.65-0.66 3.3-1 5 0.99-0.99 1.98-1.98 3-3 0.33 1.98 0.66 3.96 1 6h3c-0.33-2.31-0.66-4.62-1-7 0.66 0.33 1.32 0.66 2 1 0.081 2.1 0.139 4.21 0.188 6.31 0.0348 1.17 0.0696 2.34 0.105 3.55-0.293 3.14-0.293 3.14-1.8 5.05-0.737 0.536-0.737 0.536-1.49 1.08-0.99-0.33-1.98-0.66-3-1-1.34-3.01-2.14-5.09-1.62-8.38 0.206-0.536 0.412-1.07 0.625-1.62h-2v2.75 7.25h-2c0.66 1.32 1.32 2.64 2 4h-2c-0.33 0.66-0.66 1.32-1 2-1.5-1.25-1.5-1.25-3-3v-4h3c-0.0116-0.641-0.0232-1.28-0.0352-1.94-0.0537-5.15 0.153-9.99 1.04-15.1z" fill="#C1FABD"/>
<path transform="translate(360,292)" d="m0 0c4.31 3.45 5.01 6.84 6 12 0.227 0.887 0.454 1.77 0.688 2.69 0.36 2.67-0.0212 4.72-0.688 7.31-0.99-1.32-1.98-2.64-3-4-0.66 0.66-1.32 1.32-2 2-0.33-0.99-0.66-1.98-1-3 0.33-0.66 0.66-1.32 1-2h-5v-2c-0.743 0.351-1.49 0.701-2.25 1.06-2.88 0.983-3.96 0.97-6.75-0.0625 0.165-0.557 0.33-1.11 0.5-1.69 0.54-2.5 0.571-4.76 0.5-7.31h2c0.33 1.32 0.66 2.64 1 4h11c-0.66-1.65-1.32-3.3-2-5v-4z" fill="#C2FABE"/>
<path transform="translate(232,265)" d="m0 0c3.41 2.63 4.4 5.89 5 10 0.227 4.68 0.161 9.32 0 14-0.0296 1.01-0.0593 2.02-0.0898 3.06-0.301 5.05-0.301 5.05-0.91 6.94-2.05 1.27-2.05 1.27-4 2-0.33-0.33-0.66-0.66-1-1-0.66 0.99-1.32 1.98-2 3-0.66-0.33-1.32-0.66-2-1 0.474-2.13 0.95-4.27 1.43-6.4 0.377-1.72 0.737-3.44 1.08-5.16 0.244-1.2 0.244-1.2 0.492-2.43 0.217-1.11 0.217-1.11 0.438-2.25 0.186-0.577 0.371-1.15 0.562-1.75 0.66-0.33 1.32-0.66 2-1 0.113-6.11-0.104-12-1-18z" fill="#010403"/>
<path transform="translate(227,363)" d="m0 0h1c0.33 2.64 0.66 5.28 1 8h-3c0.32 0.565 0.639 1.13 0.969 1.71 1.39 3.09 1.47 5.92 1.69 9.27 0.181 2.25 0.181 2.25 2.34 4.02 0.33 0.66 0.66 1.32 1 2h-2c-0.33 1.32-0.66 2.64-1 4-0.33-0.66-0.66-1.32-1-2-0.0619 0.784-0.124 1.57-0.188 2.38-0.812 2.62-0.812 2.62-3.25 4-2.56 0.625-2.56 0.625-4.56-0.375 0.875-4.75 0.875-4.75 2-7 0.232-3.14 0.394-6.27 0.518-9.41 0.19-3.65 0.506-6.47 2.48-9.59h2c-0.186-0.969-0.371-1.94-0.562-2.94-0.144-1.01-0.289-2.02-0.438-3.06 0.33-0.33 0.66-0.66 1-1z" fill="#C1FABB"/>
<path transform="translate(224,268)" d="m0 0c2.62 0.938 2.62 0.938 5 2v4h2v16h-3c-0.248-0.949-0.495-1.9-0.75-2.88-0.936-3.21-0.936-3.21-3.38-4.5-0.619-0.206-1.24-0.413-1.88-0.625v-3c-0.66-0.33-1.32-0.66-2-1-0.625-2.06-0.625-2.06-1-4 0.99-0.33 1.98-0.66 3-1v-4c0.66-0.33 1.32-0.66 2-1z" fill="#C1FABB"/>
<path transform="translate(123,331)" d="m0 0c2 0 2 0 3.62 1.06 2.06 2.9 1.57 5.48 1.38 8.94h-2c0.33 2.64 0.66 5.28 1 8 1.32-0.33 2.64-0.66 4-1-0.787 3.41-1.87 6.69-3 10-1.98 0.33-3.96 0.66-6 1-1.12-4.75-1.12-4.75 0-7-0.66-0.33-1.32-0.66-2-1 0.66-0.66 1.32-1.32 2-2 1.08-5.76 1.21-11.3 0-17 0.33-0.33 0.66-0.66 1-1z" fill="#C1FABB"/>
<path transform="translate(170,140)" d="m0 0c0.99 0.66 1.98 1.32 3 2v2h3v-2c3.49 0.646 6.07 2.02 9 4 1.4 2.8 1.25 4.9 1 8-1.5 1.88-1.5 1.88-3 3v-2c-0.66-0.33-1.32-0.66-2-1l-2-2c-0.66-0.33-1.32-0.66-2-1v-4c-0.71-0.049-1.42-0.098-2.15-0.148-0.919-0.0748-1.84-0.15-2.79-0.227-1.37-0.104-1.37-0.104-2.78-0.211-1.13-0.205-1.13-0.205-2.29-0.414-0.33-0.66-0.66-1.32-1-2l4-4z" fill="#B6EBB4"/>
<path transform="translate(139,131)" d="m0 0c3.88 1.88 3.88 1.88 5 3 0.33-0.99 0.66-1.98 1-3 2.64 0.66 5.28 1.32 8 2v2c2.47 0.495 2.47 0.495 5 1 0.33 0.99 0.66 1.98 1 3-2.88 0.125-2.88 0.125-6 0l-2-2c-2.47-0.12-4.84-0.14-7.31-0.0625-4.44 0.1-8.36 0.0234-12.7-0.938h-4c0.99-1.32 1.98-2.64 3-4 1.11 0.206 2.23 0.412 3.38 0.625 1.79 0.186 1.79 0.186 3.62 0.375l2-2z" fill="#BAF1B8"/>
<path transform="translate(128,377)" d="m0 0c1.96 3.51 2.96 7.13 4 11-4.84 1.34-8.93 2.25-14 2-0.66-1.32-1.32-2.64-2-4h2c-0.33-1.98-0.66-3.96-1-6 1.07 0.0619 2.14 0.124 3.25 0.188 3.86-0.193 5.04-0.584 7.75-3.19zm-10 10v1h11v-1h-11z" fill="#C1FABB"/>
<path transform="translate(1067,352)" d="m0 0c0.495 0.99 0.495 0.99 1 2-3.23 5.21-6.34 9.16-12.2 11.4-9.48 2.1-20.4 1.94-28.8-3.38-2.62-2.75-2.62-2.75-4-5 0.33-0.66 0.66-1.32 1-2 0.485 0.41 0.969 0.82 1.47 1.24 6.92 5.56 13 7.3 21.9 7.07 6.82-0.793 12.8-2.77 17.3-8.06 0.763-1.07 1.53-2.14 2.31-3.25z" fill="#000101"/>
<path transform="translate(724,353)" d="m0 0c0.495 1.49 0.495 1.49 1 3-3.34 5.06-7.04 8.48-13 10-10.1 1.13-19.4 0.849-28-5.06-0.66-0.639-1.32-1.28-2-1.94v-2c-0.66-0.33-1.32-0.66-2-1 3 0 3 0 5.06 1.81 6.56 4.89 14.9 6.27 22.9 5.19 7.16-1.71 11.9-3.79 16-10z" fill="#000101"/>
<path transform="translate(40,203)" d="m0 0c2.26-0.00391 2.26-0.00391 5 1 1.69 2.51 2.72 5.25 3.81 8.06 0.311 0.759 0.623 1.52 0.943 2.3 0.765 1.87 1.51 3.75 2.24 5.64-0.99 0.99-1.98 1.98-3 3-2.38-2.16-3.61-4.12-5-7-0.437-0.816-0.874-1.63-1.32-2.47-0.45-0.855-0.9-1.71-1.36-2.59-0.458-0.857-0.915-1.71-1.39-2.6-0.926-2.34-0.926-2.34 0.0742-5.34zm3 8 1 2z" fill="#010403"/>
<path transform="translate(100,205)" d="m0 0v2c1.98-0.33 3.96-0.66 6-1 0.955 2.17 1.14 3.56 0.398 5.82-0.757 1.74-1.57 3.46-2.4 5.18-2.88 0.188-2.88 0.188-6 0-2.68-4.02-2.16-6.24-2-11 2-1 2-1 4-1z" fill="#BFF7BC"/>
<path transform="translate(151,107)" d="m0 0h2c0.268 0.639 0.536 1.28 0.812 1.94 1.07 2.39 1.07 2.39 4.19 3.06 0.33 0.99 0.66 1.98 1 3-0.33 0.33-0.66 0.66-1 1-1.13-0.0206-2.27-0.0413-3.44-0.0625-3.61-0.349-3.61-0.349-5.56 2.06-3.62-0.375-3.62-0.375-7-1-0.33-2.31-0.66-4.62-1-7 3.72 0.507 6.73 1.12 10 3-0.278-1.21-0.278-1.21-0.562-2.44-0.144-0.846-0.289-1.69-0.438-2.56 0.33-0.33 0.66-0.66 1-1z" fill="#010403"/>
<path transform="translate(113,193)" d="m0 0c1.81 1.56 1.81 1.56 3 3-0.99 1.49-0.99 1.49-2 3h-2c0.0619 1.42 0.0619 1.42 0.125 2.88-0.125 3.12-0.125 3.12-2.12 5.12-1.33-2.67-0.671-4.17 0-7-2.31-0.33-4.62-0.66-7-1v-4c3.48-2.88 5.73-3.57 10-2z" fill="#C1F9BD"/>
<path transform="translate(101,83)" d="m0 0c1.32 0.33 2.64 0.66 4 1 0.33 1.65 0.66 3.3 1 5-0.99 0.33-1.98 0.66-3 1-0.33 0.99-0.66 1.98-1 3-1.75 0.625-1.75 0.625-4 1-0.907 0.186-1.81 0.371-2.75 0.562-0.743 0.144-1.48 0.289-2.25 0.438 0.667-3.33 1.33-6.67 2-10h5l1-2z" fill="#C2FABD"/>
<path transform="translate(234,408)" d="m0 0h3c1.02 1.66 2.02 3.32 3 5 0.99 0.33 1.98 0.66 3 1l3 3c2.1 1.18 2.1 1.18 4 2-1.94 1.75-1.94 1.75-5 3-3.51-0.59-6.2-1.8-9-4-1.59-2.91-2.4-5.75-3-9 0.33-0.33 0.66-0.66 1-1z" fill="#C0FABB"/>
<path transform="translate(675,209)" d="m0 0h1v78h-1v-78z" fill="#020504"/>
<path transform="translate(165,254)" d="m0 0h4c0.186 4.1-0.196 6.39-2 10-0.394 4.34 0.426 7.9 1.55 12 0.606 2.68 0.582 5.24 0.445 7.97h-3c-1.74-3.02-2.26-5.22-2.27-8.7-0.00258-0.88-0.00516-1.76-0.00781-2.67 0.00773-0.911 0.0155-1.82 0.0234-2.76-0.00773-0.919-0.0155-1.84-0.0234-2.79 0.00258-0.878 0.00516-1.76 0.00781-2.66 0.00226-0.802 0.00451-1.6 0.00684-2.43 0.259-2 0.259-2 2.26-4 0.33-0.99 0.66-1.98 1-3-0.66-0.33-1.32-0.66-2-1z" fill="#060A09"/>
<path transform="translate(88,266)" d="m0 0c3.85 1.25 6.03 2.39 8 6-0.33 0.99-0.66 1.98-1 3 1.84 2.05 1.84 2.05 4 3-0.33 0.66-0.66 1.32-1 2h-3v-2c-0.763-0.268-1.53-0.536-2.31-0.812-2.61-1.15-3.93-1.99-5.69-4.19-1-3-1-3-0.0625-5.19 0.526-0.897 0.526-0.897 1.06-1.81z" fill="#040605"/>
<path transform="translate(110,366)" d="m0 0c-2.24 2.24-2.94 2.54-6 3-2.25-0.0844-4.5-0.235-6.75-0.438-1.17-0.102-2.34-0.204-3.55-0.309-1.34-0.126-1.34-0.126-2.7-0.254v3c-4.46 0.495-4.46 0.495-9 1 0.33-1.32 0.66-2.64 1-4 9.08-1.69 17.8-2.25 27-2z" fill="#C5FAC1"/>
<path transform="translate(140,112)" d="m0 0h1v5h8v3c-5.61 0.826-10.4 1.07-16 0v-4c0.99-0.33 1.98-0.66 3-1 0.99 0.66 1.98 1.32 3 2 0.33-1.65 0.66-3.3 1-5z" fill="#000002"/>
<path transform="translate(82,369)" d="m0 0v3h3c-1.75 3.88-1.75 3.88-4 5-2.67 0.134-5.32 0.0432-8 0 4.32-8 4.32-8 9-8z" fill="#BFF7BC"/>
<path transform="translate(186,69)" d="m0 0c2.97 0.33 5.94 0.66 9 1 1.1 4.41 0.587 5.89-1 10-0.33-0.66-0.66-1.32-1-2-0.66-0.33-1.32-0.66-2-1v-2c-0.825-0.474-1.65-0.949-2.5-1.44-0.825-0.516-1.65-1.03-2.5-1.56v-3z" fill="#C4F9C0"/>
<path transform="translate(168,284)" d="m0 0c1.85 3.31 2.75 6.57 3.62 10.2 0.26 1.08 0.521 2.16 0.789 3.27 0.193 0.82 0.387 1.64 0.586 2.48-1.81 0.688-1.81 0.688-4 1-1.77-1.02-1.77-1.02-3-3-0.109-3.1-0.109-3.1 0.25-6.62 0.108-1.17 0.217-2.34 0.328-3.54 0.422-2.84 0.422-2.84 1.42-3.84zm0 9 1 3zm-1 3 1 2z" fill="#020504"/>
<path transform="translate(107,70)" d="m0 0 2 1v11c1.32 0.66 2.64 1.32 4 2-0.33 0.99-0.66 1.98-1 3-1.98 0.33-3.96 0.66-6 1-0.0269-2.63-0.0468-5.25-0.0625-7.88-0.00838-0.746-0.0168-1.49-0.0254-2.26-0.0254-5.64-0.0254-5.64 1.09-7.86z" fill="#AADCA6"/>
<path transform="translate(262,405)" d="m0 0 2 2c0.66-0.66 1.32-1.32 2-2v3h2v2c-8.43 1.43-8.43 1.43-13-1v-3c3.38-0.625 3.38-0.625 7-1z" fill="#C1FABB"/>
<path transform="translate(228,248)" d="m0 0c2.97 0.495 2.97 0.495 6 1v11c-0.577-0.784-1.16-1.57-1.75-2.38-2.08-2.43-3.34-3.48-6.25-4.62 0.66-1.65 1.32-3.3 2-5z" fill="#C1FBBB"/>
<path transform="translate(227,353)" d="m0 0c0.33 0.99 0.66 1.98 1 3 0.99 0.33 1.98 0.66 3 1 0.925 4.72 1.23 7.67-1 12-0.66-0.33-1.32-0.66-2-1-0.668-2.87-0.668-2.87-1.19-6.44-0.179-1.17-0.358-2.35-0.543-3.56-0.27-3-0.27-3 0.73-5z" fill="#C2FABE"/>
<path transform="translate(200,152)" d="m0 0c0.99 0.371 1.98 0.743 3 1.12 4.47 1.32 7.63 0.256 12-1.12-2.43 2.95-4.32 3.32-8 4-0.33 0.66-0.66 1.32-1 2-0.99 0.33-1.98 0.66-3 1 0.33 0.66 0.66 1.32 1 2-0.99-0.33-1.98-0.66-3-1v-4c-0.66-0.33-1.32-0.66-2-1 0.33-0.99 0.66-1.98 1-3z" fill="#010403"/>
<path transform="translate(165,106)" d="m0 0c2.69 0.176 5.33 0.618 8 1-0.688 2.44-0.688 2.44-2 5-2.62 0.812-2.62 0.812-5 1-0.99-1.32-1.98-2.64-3-4 1-2 1-2 2-3z" fill="#B5E8BF"/>
<path transform="translate(156,105)" d="m0 0c2.69 0.312 2.69 0.312 5 1-0.66 1.98-1.32 3.96-2 6-1.65-0.33-3.3-0.66-5-1-0.33-0.99-0.66-1.98-1-3 1.19-1.56 1.19-1.56 3-3z" fill="#ABDDA9"/>
<path transform="translate(266,398)" d="m0 0h4c2.97 3.61 3.32 6.41 3 11-0.99 0.495-0.99 0.495-2 1v-6h-2c-0.33 0.66-0.66 1.32-1 2-0.66-2.64-1.32-5.28-2-8z" fill="#C4FAC0"/>
<path transform="translate(103 366)" d="m0 0c1.28 0.00902 2.56 0.018 3.88 0.0273 0.987 0.0116 1.97 0.0232 2.99 0.0352-3.03 3.03-5.32 2.96-9.56 3.19-3.44-0.188-3.44-0.188-6.44-2.19 3-1.5 5.79-1.09 9.12-1.06z" fill="#C6FBC2"/>
<path transform="translate(315,156)" d="m0 0c3 1 3 1 4 3 0.66 0.66 1.32 1.32 2 2-3.3 0.66-6.6 1.32-10 2 0.33-1.65 0.66-3.3 1-5 0.99-0.66 1.98-1.32 3-2z" fill="#020504"/>
<path transform="translate(156,64)" d="m0 0c1.13 0.474 2.27 0.949 3.44 1.44 4.48 1.7 8.81 2.24 13.6 2.56-0.33 0.66-0.66 1.32-1 2-10.2 0.407-10.2 0.407-15-2-0.656-2.08-0.656-2.08-1-4z" fill="#C0F7BD"/>
<path transform="translate(210,397)" d="m0 0 1 2c-0.777 2.16-0.777 2.16-1.94 4.62-0.38 0.817-0.761 1.63-1.15 2.48-0.3 0.626-0.601 1.25-0.91 1.9-0.99-1.32-1.98-2.64-3-4 3.75-5.88 3.75-5.88 6-7z" fill="#BAF1B8"/>
<path transform="translate(362,322)" d="m0 0c0.99 0.66 1.98 1.32 3 2-3.75 5.88-3.75 5.88-6 7-0.625-2.88-0.625-2.88-1-6 2-2 2-2 4-3z" fill="#BAF0B9"/>
<path transform="translate(165,254)" d="m0 0h4c0.185 4.07-0.109 6.44-2 10-0.383 1.99-0.726 3.99-1 6h-1c-0.222-1.62-0.427-3.25-0.625-4.88-0.116-0.905-0.232-1.81-0.352-2.74-0.00773-0.786-0.0155-1.57-0.0234-2.38 0.66-0.66 1.32-1.32 2-2 0.33-0.99 0.66-1.98 1-3-0.66-0.33-1.32-0.66-2-1z" fill="#29372A"/>
<path transform="translate(160,107)" d="m0 0c3.16 1.37 3.99 1.99 6 5 2.06 0.724 2.06 0.724 4 1-0.33 0.66-0.66 1.32-1 2h-4c-0.33-0.66-0.66-1.32-1-2-0.99 0.33-1.98 0.66-3 1-0.33-2.31-0.66-4.62-1-7z" fill="#010403"/>
<path transform="translate(300,74)" d="m0 0c6.65 1.48 6.65 1.48 8.44 4.12 0.278 0.928 0.278 0.928 0.562 1.88-2.64-0.33-5.28-0.66-8-1-0.33 0.99-0.66 1.98-1 3h-1c0.33-2.64 0.66-5.28 1-8z" fill="#010403"/>
<path transform="translate(196,74)" d="m0 0h1v20c-2.15-3.23-2.2-4.28-2-8-0.66-0.33-1.32-0.66-2-1 0.66-0.99 1.32-1.98 2-3 0.451-2.05 0.451-2.05 0.625-4.19 0.124-1.26 0.248-2.52 0.375-3.81z" fill="#C6FBC2"/>
<path transform="translate(167,261)" d="m0 0c0.99 0.33 1.98 0.66 3 1-0.33 3.3-0.66 6.6-1 10h-2c-1.26-2.52-0.919-3.85-0.562-6.62 0.102-0.817 0.204-1.63 0.309-2.48 0.0838-0.626 0.168-1.25 0.254-1.9z" fill="#BAF1B8"/>
<path transform="translate(134,115)" d="m0 0c2.47 0.99 2.47 0.99 5 2v2h2c-0.33 0.66-0.66 1.32-1 2-2.31-0.33-4.62-0.66-7-1 0-4 0-4 1-5z" fill="#010403"/>
<path transform="translate(150,106)" d="m0 0c0.33 0.66 0.66 1.32 1 2-0.938 2.62-0.938 2.62-2 5-2.44-0.812-2.44-0.812-5-2-0.33-0.99-0.66-1.98-1-3 2.31-0.66 4.62-1.32 7-2z" fill="#B3E9B2"/>
<path transform="translate(158,70)" d="m0 0c5.28 0.66 10.6 1.32 16 2v1c-6.75 1.12-6.75 1.12-9 0v2c-2.96-0.613-4.38-1.25-7-3v-2z" fill="#C2FABE"/>
<path transform="translate(170,140)" d="m0 0c0.99 0.66 1.98 1.32 3 2v2c0.66 0.33 1.32 0.66 2 1-3.15 0.701-5.73 1-9 1 1.75-4.88 1.75-4.88 4-6z" fill="#BAF1B8"/>
<path transform="translate(196,152)" d="m0 0c0.33 0.66 0.66 1.32 1 2 1.98 0.727 3.98 1.4 6 2l-2 1v3c-0.99 0.33-1.98 0.66-3 1 0.33-1.32 0.66-2.64 1-4-1.32-0.33-2.64-0.66-4-1 0.33-1.32 0.66-2.64 1-4z" fill="#000002"/>
<path transform="translate(180 107)" d="m0 0c0.784 0.0413 1.57 0.0825 2.38 0.125-0.66 1.65-1.32 3.3-2 5h-3c-0.66-0.99-1.32-1.98-2-3 2-2 2-2 4.62-2.12z" fill="#BAF0BA"/>
<path transform="translate(1464,224)" d="m0 0h1v15h-1v-15z" fill="#020504"/>
<path transform="translate(232,273)" d="m0 0h1v10h-1v-10z" fill="#020504"/>
<path transform="translate(1580,374)" d="m0 0h1v7h-1v-7z" fill="#020504"/>
</svg>
