<?xml version="1.0" encoding="UTF-8"?>
<svg version="1.1" viewBox="0 0 1600 496" width="1280" height="1280" xmlns="http://www.w3.org/2000/svg">
<path transform="translate(308,27)" d="m0 0c3.66 3.39 5.29 5.6 5.63 10.6 0.00933 1.75-0.0143 3.51-0.0664 5.26-0.0122 0.918-0.0245 1.84-0.0371 2.78-0.253 8.48-1.97 16.3-4.53 24.3 0.619 0.248 1.24 0.495 1.88 0.75 2.55 1.5 3.14 2.49 4.12 5.25 1.17 8.11-1.1 16.2-3 24 15.8-9.45 30.8-20 44.7-32.1 3.5-2.82 5.31-3.91 9.85-3.83 3.5 0.938 3.5 0.938 5.94 2.75 3.81 7.77 1.73 15.9-0.812 23.8-6.7 19.4-17.6 36.5-31.7 51.3-1.97 1.96-1.97 1.96-2.93 4.11 0.887-0.0619 1.77-0.124 2.69-0.188 3.74 0.212 5.38 0.906 8.31 3.19 2.06 2.62 2.01 3.86 1.73 7.23-4.24 22-25.8 44.1-42.7 57.8-1.86 1.25-3.73 2.49-5.62 3.69-4.41 2.9-5.28 5.12-6.5 10.1-2.78 7.02-12.4 10.7-18.7 13.9-2.32 1.07-2.32 1.07-3.19 3.26 0.815 0.257 1.63 0.513 2.47 0.777 2.54 0.88 4.97 1.8 7.44 2.85 10.1 4.26 20.2 7.77 30.7 10.9 0.634 0.188 1.27 0.375 1.92 0.569 5.72 1.69 11.4 3.36 17.2 4.99 3.51 1.01 7.02 2.03 10.5 3.06 1.04 0.288 2.08 0.576 3.15 0.873 11.9 3.53 21.3 10.7 28 21.2 4.55 9.26 4.23 22.2 0.992 31.9-2.63 6.08-6.22 12.6-11.4 16.9-3.44 0.5-3.44 0.5-7 0-3.66-3.61-4.52-6.39-5-11.4-0.683-5.17-1.3-8.66-5-12.6-11.2-8.53-28.6-8.16-42.1-8.13-1.57-0.00198-1.57-0.00198-3.16-4e-3 -3.35-0.0019-6.71 0.00438-10.1 0.0118-1.14 8.86e-4 -2.27 0.00177-3.45 0.00269-17.1 0.0157-34.1 0.233-51.2 1.12 3.81 10.8 7.84 20.9 14.3 30.4 5.77 8.57 9.35 15.8 10.1 26.3 0.71 8.55 1.27 14.9 7.73 21.1 1.86 1.57 3.75 3.06 5.68 4.53 4.08 3.18 5.92 6.49 6.68 11.7 0.00991 7.47-0.907 13-5.91 18.8-1.53 1.31-1.53 1.31-4.15 1.75-4.57-0.592-8.28-2.4-12.4-4.44-0.266 0.593-0.531 1.19-0.805 1.8-1.98 3.65-4.68 6.03-8.2 8.2-7.09 1.56-11.5-1.59-17.5-5.27-2.54-1.73-2.54-1.73-4.54-3.73-2.97 0.35-5.69 1.21-8.56 2.06-5.41 1.34-10.9 1.75-16.4 0.938-3.59-3.09-4.81-6.08-5.27-10.8-0.244-7.88 0.499-13.8 5.27-20.2 1.59-1.4 3.19-2.77 4.81-4.12 3.58-3.35 4.74-5.75 4.96-10.7-0.196-16.3-6.48-27.8-17.8-39.2-1.65-1.52-3.32-3.02-5-4.5-7.89-6.97-14.2-14.1-19.1-23.4-1.78-2.41-1.78-2.41-5-2.21l-3.9 0.152c-3.3-0.623-6.52-1.53-9.75-2.44l-2.57-0.697c-3.26-0.887-6.47-1.8-9.68-2.87 0.323 0.549 0.645 1.1 0.978 1.66 1.47 2.51 2.93 5.01 4.4 7.52 0.508 0.864 1.02 1.73 1.54 2.62 0.49 0.841 0.98 1.68 1.48 2.55 0.45 0.77 0.901 1.54 1.36 2.33 3.5 6.54 3.62 12 3.61 19.3-0.00133 1.68-0.00133 1.68-0.00269 3.4-0.119 8.35-0.302 17.8-5.98 24.5-1.97 2.96-1.8 5.39-1.89 8.91-0.401 7.29-0.939 11.6-6.19 16.9-7.88 5.81-15.8 5.88-25.3 5.25-0.99-0.33-1.98-0.66-3-1-2.07 0.511-2.07 0.511-4.31 1.38-6.34 2.01-13 3.2-19.7 2.62-3.08-1.82-4.67-2.89-5.71-6.36-0.0348-0.789-0.0696-1.58-0.105-2.39-0.0477-0.799-0.0954-1.6-0.145-2.42-0.0142-0.603-0.0284-1.21-0.043-1.83l-2.7 0.141-3.55 0.109-3.52 0.141c-3.23-0.391-3.23-0.391-5.62-2.21-1.62-2.18-1.62-2.18-2.24-5.37 1.01-6.13 3.98-10.5 8.68-14.6 10.6-7.43 22.3-10 34.9-11.2 3.76-9.27 3.76-9.27 4-19-3.32-3.08-6.69-4.95-10.8-6.73-1.11-0.492-2.22-0.985-3.37-1.49-2.31-1.01-4.62-2.01-6.93-3-13.1-5.82-24.4-14.2-29.9-27.8-3.2-11.2-1.8-26 3.16-36.4 1.1-3.34 0.822-5.18-0.164-8.55-1.93-3.18-1.93-3.18-4.38-6.19-0.791-1.02-1.58-2.05-2.4-3.11-0.735-0.893-1.47-1.79-2.23-2.71-0.487-0.615-0.975-1.23-1.48-1.86-2.17-1.62-3.89-1.35-6.52-1.14l-0.48 2.45c-1.04 4.75-1.93 8.67-4.64 12.7-3.93 2.48-7.25 3.19-11.9 2.81-6.23-2.62-9.54-8.43-13-14-0.388-0.596-0.776-1.19-1.18-1.8-2.41-6.41-1.82-15.6 0.0156-22.2 3.93-8.29 10-15.4 17.2-21 1.28-2.57 0.964-4.03 0.688-6.88-0.0786-0.864-0.157-1.73-0.238-2.62-0.393-3.07-0.89-6.09-1.42-9.14-6.38-37.8-7.89-83.6 13.6-117 2.77-3.82 5.87-7.19 9.33-10.4 0.527-0.532 1.05-1.06 1.6-1.61 15.2-14.5 34.7-16.7 54.7-16.8 0.733-0.00635 1.47-0.0127 2.22-0.0193 12.8-0.0689 25.4 0.608 35.5 9.46 4.36 4.73 7.47 10.3 10.6 15.9 1.38 2.37 1.38 2.37 4.39 4.1 2.95 0.505 2.95 0.505 6.32 0.746l3.81 0.35c2.64 0.228 5.28 0.45 7.91 0.672 17.3 1.6 17.3 1.6 22 6.23 2.68 5.37 2.22 10.7 2.25 16.6l0.0625 3.17c0.0565 11.4-2.67 22.3-10.7 30.8-3.25 1.86-5.91 2.12-9.62 2.5-1.62 0.501-1.62 0.501-3.27 1.01-3.84 1.02-7.01 1.22-11 1.18-0.656-0.00283-1.31-0.00566-1.99-0.00858-2.07-0.0111-4.14-0.0362-6.2-0.0617-1.41-0.01-2.83-0.0192-4.24-0.0273-3.44-0.0219-6.88-0.0563-10.3-0.0977v2l2.95 0.25c4.71 0.672 8.62 2.69 12.9 4.75 5.77 2.7 10.7 4.9 17.2 4.77 2.67 0.316 4 1.43 5.95 3.23v2c4.96-3 9.04-6.68 13.3-10.6 2.59-2.32 5.24-4.54 7.94-6.73 15.6-12.7 30.4-26.2 44.7-40.4 1.41-1.39 2.82-2.78 4.22-4.17 6.06-6.05 11.5-12.4 16.9-19.1 0.875-1.04 1.76-2.07 2.64-3.1 5.53-6.43 10.4-13.1 15.1-20.2 4.06-6.01 8.63-10.5 16.3-7.7zm-113 43 1 2zm-87 3v5h1v-5h-1zm89 0 1 2zm1 4v13h1v-13h-1zm-1 16 1 3zm-1 4 1 2zm-44 8-1 2h3v-2h-2zm9 1 1 2 1-2h-2zm22 0v3l2-3h-2zm-10 1-2 3 4-2-2-1zm-31 2 1 2 1-2h-2zm39 1 1 2zm-22 1v3zm11 0-1 3h2l1-3h-2zm-30 2 2 4v-4h-2zm-6 1-2 3c0.99-0.33 1.98-0.66 3-1-0.33-0.66-0.66-1.32-1-2zm-24 3 2 2c3.36 0.0211 3.36 0.0211 7.12-0.375 1.28-0.111 2.56-0.222 3.88-0.336l2.99-0.289v-1h-16zm30 0 1 2zm-9 3-2 3c0.99-0.33 1.98-0.66 3-1-0.33-0.66-0.66-1.32-1-2zm-20 1v2h2v-2h-2zm2 2 1 2zm-35 9v6h1v-6h-1zm81 4 1 2zm5 2c0.66 1.98 1.32 3.96 2 6h1v-6h-3zm31 5v11h2c0.054-1.46 0.0928-2.92 0.125-4.38 0.0232-0.812 0.0464-1.62 0.0703-2.46 0.0184-2.38 0.0184-2.38-2.2-4.16zm-8 5c-0.33 1.98-0.66 3.96-1 6 0.66-0.99 1.32-1.98 2-3-0.33-0.99-0.66-1.98-1-3zm24 41 1 2zm2 3 1 2zm1 2 1 2zm2 4c0.33 0.99 0.66 1.98 1 3v-3h-1zm-178 5c0.66 1.32 1.32 2.64 2 4 0.33-0.66 0.66-1.32 1-2-0.33-0.66-0.66-1.32-1-2h-2zm181 0 1 2zm2 3 1 2zm-132 1c-0.33 0.99-0.66 1.98-1 3h2c-0.33-0.99-0.66-1.98-1-3zm-49 1 1 2zm1 2 1 2zm2 1 1 2zm46 0c0.33 0.99 0.66 1.98 1 3 0.33-0.99 0.66-1.98 1-3h-2zm-45 5v2h2v-2h-2zm2 2c0.33 1.32 0.66 2.64 1 4 0.33-0.66 0.66-1.32 1-2-0.66-0.66-1.32-1.32-2-2zm-4 6c-0.33 0.66-0.66 1.32-1 2 0.99-0.33 1.98-0.66 3-1-0.66-0.33-1.32-0.66-2-1zm-4 5 1 2zm-1 4v4l-2 1c0.66 1.32 1.32 2.64 2 4 0.33-2.97 0.66-5.94 1-9h-1zm131 16c-0.535 1.24-1.05 2.5-1.56 3.75l-0.879 2.11c-0.822 2.45-0.822 2.45 0.441 6.14 0.99-3.96 1.98-7.92 3-12h-1zm57 2c0.33 0.99 0.66 1.98 1 3v-3h-1zm2 3 1 2zm1 2 1 2zm1 3 1 2zm0 4c0.144 0.554 0.289 1.11 0.438 1.68 0.186 0.724 0.371 1.45 0.562 2.2 0.186 0.719 0.371 1.44 0.562 2.18 0.438 1.95 0.438 1.95 0.438 3.95h2c-0.33-2.97-0.66-5.94-1-9-0.99-0.33-1.98-0.66-3-1zm-65 4v9h1v-9h-1zm69 6v10h1v-10h-1zm-68 5c-1.08 5.29-0.926 8.93 1 14l2 1c-0.525-5.03-1.11-10-2-15h-1zm1 15 1 2zm2 1 1 2zm-1 2 1 2zm-39 1c0.99 2.64 1.98 5.28 3 8 1.13-1.83 1.13-1.83 2-4-0.33-0.99-0.66-1.98-1-3l-4-1zm100 4 1 3zm140 1 1 3zm2 1v6h1v-6h-1zm-237 1 1 2zm96 1c-0.33 2.64-0.66 5.28-1 8 2.35-1.9 2.35-1.9 2.12-5.12-0.0619-1.42-0.0619-1.42-0.125-2.88h-1zm140 6 1 3zm-139 1c-0.33 1.65-0.66 3.3-1 5l2-2c-0.33-0.99-0.66-1.98-1-3zm1 4 1 2zm-86 12v7h1v-7h-1zm0 17 1 2zm103 2 1 2zm1 2 1 2zm1 2 1 2zm1 2 1 2zm-1 3 1 2zm2 0 1 3zm-111 1 1 2zm-1 2 1 2zm111 0 1 2zm2 1 1 3zm-114 1 1 2zm-2 3 1 2zm117 2v6h1v-6h-1zm-117 3v11h1v-11h-1zm118 5v7h1v-7h-1zm-183 3v1h19v-1h-19zm43 4c-0.33 0.66-0.66 1.32-1 2h2c-0.33-0.66-0.66-1.32-1-2zm20 0 1 2zm121 0 1 3zm-144 2c-0.99 0.99-1.98 1.98-3 3l5-2-2-1zm22 0-5 4 5-1v-3zm-36.7 5.44-3.57 0.871-2.74 0.691v1c1.73-0.115 3.46-0.243 5.19-0.375 0.963-0.0696 1.93-0.139 2.92-0.211 2.91-0.416 5.22-1.21 7.89-2.41-3.81-1.27-5.82-0.521-9.69 0.438zm20.7-1.44v1h11v-1h-11zm156 16 1 3zm-20 3 1 4z" fill="#F9FCFE"/>
<path transform="translate(308,27)" d="m0 0c3.66 3.39 5.29 5.6 5.63 10.6 0.00933 1.75-0.0143 3.51-0.0664 5.26-0.0122 0.918-0.0245 1.84-0.0371 2.78-0.253 8.48-1.97 16.3-4.53 24.3 0.619 0.248 1.24 0.495 1.88 0.75 2.55 1.5 3.14 2.49 4.12 5.25 1.17 8.11-1.1 16.2-3 24 15.8-9.45 30.8-20 44.7-32.1 3.5-2.82 5.31-3.91 9.85-3.83 3.5 0.938 3.5 0.938 5.94 2.75 3.81 7.77 1.73 15.9-0.812 23.8-6.7 19.4-17.6 36.5-31.7 51.3-1.97 1.96-1.97 1.96-2.93 4.11 0.887-0.0619 1.77-0.124 2.69-0.188 3.74 0.212 5.38 0.906 8.31 3.19 2.06 2.62 2.01 3.86 1.73 7.23-4.24 22-25.8 44.1-42.7 57.8-1.86 1.25-3.73 2.49-5.62 3.69-4.41 2.9-5.28 5.12-6.5 10.1-2.78 7.02-12.4 10.7-18.7 13.9-2.32 1.07-2.32 1.07-3.19 3.26 0.815 0.257 1.63 0.513 2.47 0.777 2.54 0.88 4.97 1.8 7.44 2.85 10.1 4.26 20.2 7.77 30.7 10.9 0.634 0.188 1.27 0.375 1.92 0.569 5.72 1.69 11.4 3.36 17.2 4.99 3.51 1.01 7.02 2.03 10.5 3.06 1.04 0.288 2.08 0.576 3.15 0.873 11.9 3.53 21.3 10.7 28 21.2 4.55 9.26 4.23 22.2 0.992 31.9-2.63 6.08-6.22 12.6-11.4 16.9-3.44 0.5-3.44 0.5-7 0-3.66-3.61-4.52-6.39-5-11.4-0.683-5.17-1.3-8.66-5-12.6-11.2-8.53-28.6-8.16-42.1-8.13-1.57-0.00198-1.57-0.00198-3.16-4e-3 -3.35-0.0019-6.71 0.00438-10.1 0.0118-1.14 8.86e-4 -2.27 0.00177-3.45 0.00269-17.1 0.0157-34.1 0.233-51.2 1.12 3.81 10.8 7.84 20.9 14.3 30.4 5.77 8.57 9.35 15.8 10.1 26.3 0.71 8.55 1.27 14.9 7.73 21.1 1.86 1.57 3.75 3.06 5.68 4.53 4.08 3.18 5.92 6.49 6.68 11.7 0.00991 7.47-0.907 13-5.91 18.8-1.53 1.31-1.53 1.31-4.15 1.75-4.57-0.592-8.28-2.4-12.4-4.44-0.266 0.593-0.531 1.19-0.805 1.8-1.98 3.65-4.68 6.03-8.2 8.2-7.09 1.56-11.5-1.59-17.5-5.27-2.54-1.73-2.54-1.73-4.54-3.73-2.97 0.35-5.69 1.21-8.56 2.06-5.41 1.34-10.9 1.75-16.4 0.938-3.59-3.09-4.81-6.08-5.27-10.8-0.244-7.88 0.499-13.8 5.27-20.2 1.59-1.4 3.19-2.77 4.81-4.12 3.58-3.35 4.74-5.75 4.96-10.7-0.196-16.3-6.48-27.8-17.8-39.2-1.65-1.52-3.32-3.02-5-4.5-7.89-6.97-14.2-14.1-19.1-23.4-1.78-2.41-1.78-2.41-5-2.21l-3.9 0.152c-3.3-0.623-6.52-1.53-9.75-2.44l-2.57-0.697c-3.26-0.887-6.47-1.8-9.68-2.87 0.323 0.549 0.645 1.1 0.978 1.66 1.47 2.51 2.93 5.01 4.4 7.52 0.508 0.864 1.02 1.73 1.54 2.62 0.49 0.841 0.98 1.68 1.48 2.55 0.45 0.77 0.901 1.54 1.36 2.33 3.5 6.54 3.62 12 3.61 19.3-0.00133 1.68-0.00133 1.68-0.00269 3.4-0.119 8.35-0.302 17.8-5.98 24.5-1.97 2.96-1.8 5.39-1.89 8.91-0.401 7.29-0.939 11.6-6.19 16.9-7.88 5.81-15.8 5.88-25.3 5.25-0.99-0.33-1.98-0.66-3-1-2.07 0.511-2.07 0.511-4.31 1.38-6.34 2.01-13 3.2-19.7 2.62-3.08-1.82-4.67-2.89-5.71-6.36-0.0348-0.789-0.0696-1.58-0.105-2.39-0.0477-0.799-0.0954-1.6-0.145-2.42-0.0142-0.603-0.0284-1.21-0.043-1.83l-2.7 0.141-3.55 0.109-3.52 0.141c-3.23-0.391-3.23-0.391-5.62-2.21-1.62-2.18-1.62-2.18-2.24-5.37 1.01-6.13 3.98-10.5 8.68-14.6 10.6-7.43 22.3-10 34.9-11.2 3.76-9.27 3.76-9.27 4-19-3.32-3.08-6.69-4.95-10.8-6.73-1.11-0.492-2.22-0.985-3.37-1.49-2.31-1.01-4.62-2.01-6.93-3-13.1-5.82-24.4-14.2-29.9-27.8-3.2-11.2-1.8-26 3.16-36.4 1.1-3.34 0.822-5.18-0.164-8.55-1.93-3.18-1.93-3.18-4.38-6.19-0.791-1.02-1.58-2.05-2.4-3.11-0.735-0.893-1.47-1.79-2.23-2.71-0.487-0.615-0.975-1.23-1.48-1.86-2.17-1.62-3.89-1.35-6.52-1.14l-0.48 2.45c-1.04 4.75-1.93 8.67-4.64 12.7-3.93 2.48-7.25 3.19-11.9 2.81-6.23-2.62-9.54-8.43-13-14-0.388-0.596-0.776-1.19-1.18-1.8-2.41-6.41-1.82-15.6 0.0156-22.2 3.93-8.29 10-15.4 17.2-21 1.28-2.57 0.964-4.03 0.688-6.88-0.0786-0.864-0.157-1.73-0.238-2.62-0.393-3.07-0.89-6.09-1.42-9.14-6.38-37.8-7.89-83.6 13.6-117 2.77-3.82 5.87-7.19 9.33-10.4 0.527-0.532 1.05-1.06 1.6-1.61 15.2-14.5 34.7-16.7 54.7-16.8 0.733-0.00635 1.47-0.0127 2.22-0.0193 12.8-0.0689 25.4 0.608 35.5 9.46 4.36 4.73 7.47 10.3 10.6 15.9 1.38 2.37 1.38 2.37 4.39 4.1 2.95 0.505 2.95 0.505 6.32 0.746l3.81 0.35c2.64 0.228 5.28 0.45 7.91 0.672 17.3 1.6 17.3 1.6 22 6.23 2.68 5.37 2.22 10.7 2.25 16.6l0.0625 3.17c0.0565 11.4-2.67 22.3-10.7 30.8-3.25 1.86-5.91 2.12-9.62 2.5-1.62 0.501-1.62 0.501-3.27 1.01-3.84 1.02-7.01 1.22-11 1.18-0.656-0.00283-1.31-0.00566-1.99-0.00858-2.07-0.0111-4.14-0.0362-6.2-0.0617-1.41-0.01-2.83-0.0192-4.24-0.0273-3.44-0.0219-6.88-0.0563-10.3-0.0977v2l2.95 0.25c4.71 0.672 8.62 2.69 12.9 4.75 5.77 2.7 10.7 4.9 17.2 4.77 2.67 0.316 4 1.43 5.95 3.23v2c4.96-3 9.04-6.68 13.3-10.6 2.59-2.32 5.24-4.54 7.94-6.73 15.6-12.7 30.4-26.2 44.7-40.4 1.41-1.39 2.82-2.78 4.22-4.17 6.06-6.05 11.5-12.4 16.9-19.1 0.875-1.04 1.76-2.07 2.64-3.1 5.53-6.43 10.4-13.1 15.1-20.2 4.06-6.01 8.63-10.5 16.3-7.7zm-218 11c-2.54 0.653-5.07 1.25-7.62 1.81-6.46 1.52-11.8 3.48-17.4 7.19l-3.12 1.81c-12.6 9.6-19.4 23.7-23.2 38.7-0.711 2.45-0.711 2.45-1.72 4.31-3.98 8.58-2.41 21.7-2.68 31.1-0.0361 1.24-0.0361 1.24-0.0729 2.51-0.653 24 0.627 47.5 7.76 70.6 0.362 1.25 0.362 1.25 0.73 2.52 2.17 7.08 5.12 13.5 8.54 20 1.63 3.13 2.97 5.99 3.73 9.43h2c0.115 0.572 0.229 1.14 0.348 1.73 0.714 2.48 1.73 4.33 3.09 6.52 0.432 0.706 0.864 1.41 1.31 2.14 0.414 0.531 0.828 1.06 1.25 1.61h2l0.625 2.06c1.8 3.85 4.28 7.02 7.38 9.94h2c0.268 0.639 0.536 1.28 0.812 1.94 1.07 2.39 1.07 2.39 4.19 3.06 0.667 1.33 1.33 2.67 2 4 0.99 0.33 1.98 0.66 3 1 0.268 0.639 0.536 1.28 0.812 1.94 1.72 2.99 4 3.05 7.19 4.06 0.33 0.99 0.66 1.98 1 3 0.99 0.33 1.98 0.66 3 1 0.99 0.33 1.98 0.66 3 1 0.33 0.99 0.66 1.98 1 3 4.99 3.58 12.8 8 19 8v2c0.929 0.326 1.86 0.652 2.82 0.988 1.24 0.437 2.47 0.874 3.75 1.32l3.69 1.3c2.41 0.892 4.8 1.85 7.15 2.89 4.14 1.72 8.28 2.99 12.6 4.19 0.768 0.225 1.54 0.45 2.33 0.682 4.72 1.32 8.78 1.87 13.7 1.63 1.97-4.93 2.18-8.78 2-14 0.329 1.22 0.329 1.22 0.664 2.46 4.18 14.6 12.2 29 23.3 39.5 1.32 0.69 2.65 1.36 4 2 1.38 1.29 2.71 2.63 4 4 1.63 1.7 3.29 3.38 5 5h2c5.81 11.5 11.5 22.9 12 36 0.04 0.797 0.0799 1.59 0.121 2.41 0.13 4.56 0.0323 8.47-2.12 12.6-1.52 1.2-1.52 1.2-3.31 2.38-5.13 3.38-8.03 7.46-9.29 13.5-0.314 2.76-0.584 5.34-0.402 8.11 2.63 2.63 3.9 2.33 7.56 2.38 5.23-0.0628 8.93-1.01 13.5-3.5 1.94-0.875 1.94-0.875 5.94-0.875 0.186 0.722 0.371 1.44 0.562 2.19 1.99 3.89 4.5 5.96 8.44 7.81 4.31 0.773 7.28 0.479 11-2v-3h2c0.33-1.98 0.66-3.96 1-6 1.63 0.45 3.25 0.911 4.88 1.38 0.905 0.255 1.81 0.51 2.74 0.773 2.38 0.852 2.38 0.852 4.38 2.85 2.58 0.167 2.58 0.167 5 0 2.44-4.33 2.81-8.11 2-13-1.64-2.57-2.81-4.02-5-6-0.663-0.623-1.33-1.25-2.01-1.89-4.06-3.77-4.06-3.77-8.99-6.11-2.23-5.92-2.62-12-3.12-18.2-0.512-5.4-1.89-9.72-3.88-14.8-0.037-2-0.0476-4 0-6-0.66-0.66-1.32-1.32-2-2h-2c-5.7-7.67-11-16.9-14-26h-2c0.0838-0.638 0.168-1.28 0.254-1.93l0.309-2.5c0.104-0.824 0.209-1.65 0.316-2.5 0.04-0.682 0.0799-1.36 0.121-2.07-0.33-0.33-0.66-0.66-1-1v-6c-0.306-1.34-0.635-2.68-1-4 0-3.12 0.597-5.38 1.44-8.38 1.47-5.65 2.06-11.1 2.35-16.9 0.211-2.71 0.211-2.71 1.21-5.71 1.96 6.4 2.08 11.7 1.56 18.4-0.128 1.78-0.252 3.56-0.371 5.34-0.0599 0.776-0.12 1.55-0.181 2.35-0.156 2.02-0.156 2.02 0.99 3.94 1-0.00444 2-0.00888 3.03-0.0135 9.5-0.0408 19-0.0707 28.5-0.0902 4.88-0.0104 9.77-0.0244 14.6-0.0473 4.73-0.022 9.45-0.0337 14.2-0.0389 1.79-0.00365 3.58-0.0108 5.36-0.0217 9.08-0.0532 18.1 0.113 27.1 1.05 0.725 0.0709 1.45 0.142 2.2 0.215 8.2 0.958 14.7 4.31 21 9.39 4.74 6.28 5.77 12.9 6.94 20.6 7.78-7.36 9.75-14.5 10.4-25-0.151-5.2-1.9-10.5-4.38-15-1.32-0.699-2.65-1.37-4-2-0.699-1.32-1.37-2.65-2-4-6.02-5.42-14.5-7.51-22-10-1.37-0.468-1.37-0.468-2.76-0.945-4.77-1.62-9.49-2.9-14.4-3.93-3.91-0.862-7.63-2.02-11.4-3.34-3.56-1.17-7.18-2.05-10.8-2.94-2.83-0.927-5.03-2.31-7.58-3.84-1.76-0.61-3.53-1.17-5.31-1.69-8-2.57-15.3-6.46-22.7-10.3-2.29-1.17-4.58-2.34-6.88-3.5-1.42-0.727-1.42-0.727-2.87-1.47-2.15-1.17-2.15-1.17-4.26-1.03v-2c-1.15-0.54-2.31-1.08-3.5-1.64-4.56-2.28-8.52-5.09-12.6-8.18l-2.03-1.5c-4.63-3.5-9.19-7.2-12.9-11.7v-2h-2c-0.272-0.727-0.544-1.45-0.824-2.2-1.14-2.7-2.45-5.06-3.99-7.55-2-3.24-3.81-6.47-5.5-9.88-4.68-8.44-12.8-14-21.7-17.4-4.97-1.41-9.93-1.98-15.1-2.2l-2.15-0.0967c-1.4-0.0542-2.8-0.0895-4.2-0.104-4.84-0.161-7.06-1.36-10.6-4.6-2.92-1.82-5.96-3.39-9-5-0.81-0.449-1.62-0.897-2.45-1.36-5.07-2.71-9.63-4.34-15.3-5.18-2.23-0.457-2.23-0.457-4.18-1.48-2.52-1.21-4.57-1.32-7.36-1.48-4.49-0.35-8.41-1.02-12.7-2.5-0.758-0.244-1.52-0.487-2.3-0.738-7-2.47-12.1-6.39-17.7-11.3 3.73 0 5.76 1.21 9 3 0.99 0.99 0.99 0.99 2 2 1.99 0.607 1.99 0.607 4.25 1 2.6 0.502 4.94 1.07 7.42 2 4.42 1.33 8.75 1.64 13.3 2 5.64 0.448 10.7 0.959 16 3 1.64 0.485 3.29 0.965 4.94 1.44 4.17 1.24 8.07 2.82 12.1 4.56 9.57 3.55 19.7 6.62 30 5 4.69-3.38 5.33-6.61 6.44-12.2 0.825-4.69 0.825-4.69-1.44-8.81-0.99-0.33-1.98-0.66-3-1-1.69-1.56-1.69-1.56-3-3-2.48 0.99-2.48 0.99-5 2l-1-2h-4c-0.33-0.99-0.66-1.98-1-3-3.58-1-3.58-1-7 0-0.33-0.66-0.66-1.32-1-2-1.07-1.3-1.07-1.3-3.56-1.06-0.804 0.0206-1.61 0.0412-2.44 0.0625-0.33-0.99-0.66-1.98-1-3l-3.12 0.0625c-3.88-0.0625-3.88-0.0625-7.06-0.625-2.76-0.429-4.19-0.186-6.81 0.562-0.66-0.33-1.32-0.66-2-1-1.08 0.217-1.08 0.217-2.19 0.438-4.45 0.891-8.25 1.13-12.6-0.438-3.27-2.91-3.96-5.85-5.25-10h-2c0.33-0.66 0.66-1.32 1-2h15v2l5-2v-2c6.75 0.875 6.75 0.875 9 2 1.02-4.1 1.02-4.1 0-8l2.25 1.06c2.88 0.981 4.02 1.21 6.75-0.0625l1-3h2l2 5c3 0.332 3 0.332 4.69-1.5 0.65-0.742 0.65-0.742 1.31-1.5-0.33-0.99-0.66-1.98-1-3l8 5 6-4c0.433 0.495 0.866 0.99 1.31 1.5 1.68 1.83 1.68 1.83 4.69 1.5 0.33-0.66 0.66-1.32 1-2h9c1.4-2.65 2.72-5.29 4-8 0.308-0.628 0.616-1.26 0.934-1.9 3.63-8.76 3.33-21 1.07-30.1-5.82-1.26-11.4-2.04-17.4-2.14-0.955-0.0201-1.91-0.0401-2.89-0.0608-1.91-0.0292-3.81-0.0346-5.72-0.0132-7.08-0.122-11.8-1.92-17-6.78-1.98-2.48-3.48-5.06-4.94-7.88-1.31-2.42-2.65-4.77-4.06-7.12h-2c-0.186-0.598-0.371-1.2-0.562-1.81-2.1-3.2-4.96-3.98-8.44-5.19-0.672-0.259-1.34-0.519-2.04-0.786-7.11-2.48-13.9-2.64-21.4-2.55-2.05 0.0239-4.1 0.0205-6.15 0.0139-7.11-0.281-7.11-0.281-13.4 2.32zm107 35 1 2zm1 4v13h1v-13h-1zm-1 16 1 3zm-1 4 1 2zm-15 13 1 2zm-11 1-1 3h2l1-3h-2zm-39 9-2 3c0.99-0.33 1.98-0.66 3-1-0.33-0.66-0.66-1.32-1-2zm64 23v11h2c0.054-1.46 0.0928-2.92 0.125-4.38 0.0232-0.812 0.0464-1.62 0.0703-2.46 0.0184-2.38 0.0184-2.38-2.2-4.16zm-8 5c-0.33 1.98-0.66 3.96-1 6 0.66-0.99 1.32-1.98 2-3-0.33-0.99-0.66-1.98-1-3zm24 41 1 2zm2 3 1 2zm1 2 1 2zm2 4c0.33 0.99 0.66 1.98 1 3v-3h-1zm-178 5c0.66 1.32 1.32 2.64 2 4 0.33-0.66 0.66-1.32 1-2-0.33-0.66-0.66-1.32-1-2h-2zm181 0 1 2zm2 3 1 2zm-181 2 1 2zm1 2 1 2zm2 1 1 2zm1 5v2h2v-2h-2zm2 2c0.33 1.32 0.66 2.64 1 4 0.33-0.66 0.66-1.32 1-2-0.66-0.66-1.32-1.32-2-2zm-4 6c-0.33 0.66-0.66 1.32-1 2 0.99-0.33 1.98-0.66 3-1-0.66-0.33-1.32-0.66-2-1zm-4 5 1 2zm-1 4v4l-2 1c0.66 1.32 1.32 2.64 2 4 0.33-2.97 0.66-5.94 1-9h-1zm196 40v10h1v-10h-1zm-65 21 1 2zm-1 2 1 2zm-39 1c0.99 2.64 1.98 5.28 3 8 1.13-1.83 1.13-1.83 2-4-0.33-0.99-0.66-1.98-1-3l-4-1zm242 6v6h1v-6h-1zm-237 1 1 2zm236 7 1 3zm-138 5 1 2zm-86 12v7h1v-7h-1zm0 17 1 2zm105 6 1 2zm1 2 1 2zm1 3 1 3zm-111 1 1 2zm-1 2 1 2zm113 1 1 3zm-114 1 1 2zm-2 3 1 2zm117 2v6h1v-6h-1zm-117 3v11h1v-11h-1zm118 5v7h1v-7h-1zm-183 3v1h19v-1h-19zm43 4c-0.33 0.66-0.66 1.32-1 2h2c-0.33-0.66-0.66-1.32-1-2zm20 0 1 2zm121 0 1 3zm-144 2c-0.99 0.99-1.98 1.98-3 3l5-2-2-1zm22 0-5 4 5-1v-3zm-36.7 5.44-3.57 0.871-2.74 0.691v1c1.73-0.115 3.46-0.243 5.19-0.375 0.963-0.0696 1.93-0.139 2.92-0.211 2.91-0.416 5.22-1.21 7.89-2.41-3.81-1.27-5.82-0.521-9.69 0.438zm20.7-1.44v1h11v-1h-11zm156 16 1 3z"/>
<path transform="translate(1419,83)" d="m0 0h64c1.32 6.27 2.64 12.5 4 19 1.04 3.66 1.04 3.66 2.15 7.29 3.07 9.79 5.66 19.8 8.11 29.7 2.36 9.46 4.97 18.9 7.67 28.2 1.25 4.35 2.48 8.7 3.7 13.1 0.206 0.729 0.412 1.46 0.625 2.21 1.04 3.73 1.99 7.46 2.8 11.2 0.645 2.98 1.39 5.81 2.45 8.67 1.1 3.17 1.89 6.26 2.5 9.56 0.755 4.05 1.87 7.8 3.22 11.7 1.92 5.7 3.35 11.6 4.79 17.4 0.175 0.71 0.349 1.42 0.53 2.15 0.343 1.4 0.682 2.8 1.02 4.2 0.897 3.67 2.04 7.07 3.45 10.6 0.797 3.14 1.51 6.29 2.22 9.45 0.258 0.84 0.516 1.68 0.781 2.55l2 1c-9.22e-4 -0.926-0.00184-1.85-0.00279-2.81-0.0222-22.5-0.0386-45.1-0.049-67.6-0.00516-10.9-0.0122-21.8-0.0236-32.7-0.00997-9.5-0.0164-19-0.0186-28.5-0.0013-5.03-0.00437-10.1-0.0116-15.1-0.00679-4.74-0.00888-9.47-0.00738-14.2-2.75e-4 -1.74-0.00226-3.47-0.0061-5.21-0.00499-2.38-0.00377-4.75-0.00105-7.13-0.00291-0.684-0.00583-1.37-0.00883-2.07 0.0135-4.38 0.498-8.23 1.13-12.6h45c-0.33 1.98-0.66 3.96-1 6-0.0847 1.89-0.124 3.79-0.123 5.69-0.00199 1.12-0.00398 2.23-0.00603 3.38 0.00437 1.82 0.00437 1.82 0.00883 3.68-8.54e-4 1.3-0.00171 2.6-0.00259 3.94-0.00223 3.6 0.00176 7.2 0.00678 10.8 0.00432 3.89 0.00286 7.77 0.0021 11.7-5.24e-4 6.73 0.00261 13.5 0.00824 20.2 0.00813 9.73 0.0107 19.5 0.012 29.2 0.00219 15.8 0.00884 31.6 0.0183 47.4 0.00918 15.3 0.0163 30.7 0.0205 46 2.63e-4 0.945 5.25e-4 1.89 7.96e-4 2.86 0.00131 4.74 0.00257 9.48 0.00381 14.2 0.0104 39.3 0.0283 78.7 0.0503 118h-51c-0.33-1.32-0.66-2.64-1-4h-2c-0.121-0.664-0.242-1.33-0.367-2.01-0.168-0.883-0.335-1.77-0.508-2.68-0.162-0.87-0.325-1.74-0.492-2.64-0.641-2.71-1.58-5.1-2.63-7.68-1.52-4.93-2.95-9.87-3.56-15-0.244-3.17-0.244-3.17-2.44-6-0.668-2.63-0.668-2.63-1.19-5.56-0.179-0.971-0.358-1.94-0.543-2.94-0.27-2.5-0.27-2.5 0.73-4.5h-2c-1.12-3.36-1.96-6.76-2.81-10.2-0.176-0.706-0.352-1.41-0.533-2.14-0.898-3.61-1.79-7.22-2.67-10.8-1.76-7.19-3.69-14.3-5.91-21.4-2.98-9.66-5.8-19.4-7.61-29.3-0.662-3.1-1.7-6.04-2.75-9.03-0.856-2.55-1.49-5.14-2.11-7.75-1.12-4.43-2.43-8.82-3.7-13.2-0.679-2.39-1.31-4.76-1.9-7.17-1.88-7.19-3.8-14.4-5.88-21.5-4.14-14.4-7.93-28.9-11.1-43.5-1.19 4.71-1.15 9.28-1.16 14.1-0.00494 0.919-0.00988 1.84-0.015 2.78-0.0154 3.08-0.0237 6.16-0.0321 9.24-0.00958 2.21-0.0196 4.42-0.03 6.62-0.027 6-0.0481 12-0.068 18-0.0219 6.26-0.0492 12.5-0.0761 18.8-0.0443 10.5-0.0851 21-0.123 31.5-0.0394 10.8-0.0808 21.7-0.125 32.5-0.00272 0.668-0.00545 1.34-0.00826 2.02-0.0137 3.35-0.0274 6.7-0.0411 10.1-0.114 27.8-0.22 55.6-0.323 83.4h-45c-1.28-2.55-1.13-4.33-1.13-7.19-0.00261-1.11-0.00522-2.21-0.0079-3.35 0.00223-1.22 0.00446-2.45 0.00676-3.71-0.00156-1.29-0.00312-2.59-0.00473-3.92-0.00419-3.6-0.0021-7.2 9.86e-4 -10.8 0.00225-3.88-0.00123-7.76-0.00398-11.6-0.00446-7.61-0.00348-15.2-5.87e-4 -22.8 0.00225-6.18 0.00257-12.4 0.00148-18.5-1.53e-4 -0.878-3.06e-4 -1.76-4.64e-4 -2.66-3.2e-4 -1.78-6.44e-4 -3.57-9.73e-4 -5.35-0.00285-16.7 4.32e-4 -33.5 0.0058-50.2 0.00447-14.4 0.00369-28.8-9.19e-4 -43.1-0.00535-16.7-0.00746-33.4-0.00439-50.1 3.19e-4 -1.78 6.33e-4 -3.56 9.43e-4 -5.34 1.54e-4 -0.875 3.09e-4 -1.75 4.68e-4 -2.65 8.64e-4 -6.17-5.96e-4 -12.3-0.00295-18.5-0.0028-7.52-0.00205-15 0.00328-22.6 0.00263-3.84 0.00365-7.68 3.51e-4 -11.5-0.00352-4.16 6.76e-4 -8.32 0.00568-12.5-0.00223-1.22-0.00446-2.44-0.00676-3.7 0.00261-1.11 0.00522-2.22 0.0079-3.37 1.62e-4 -0.96 3.25e-4 -1.92 4.92e-4 -2.91 0.125-2.53 0.125-2.53 1.13-6.53zm98 281 1 2z" fill="#F9FCFE"/>
<path transform="translate(431,83)" d="m0 0h50c-0.33 0.66-0.66 1.32-1 2-0.0816 1.8-0.0972 3.6-0.0823 5.4 0.00704 1.15 0.0141 2.29 0.0213 3.48 0.0129 1.26 0.0259 2.53 0.0392 3.83 0.0101 1.34 0.0198 2.68 0.0291 4.02 0.0265 3.64 0.0593 7.29 0.0931 10.9 0.0343 3.81 0.0629 7.61 0.0921 11.4 0.0562 7.21 0.118 14.4 0.181 21.6 0.0717 8.21 0.138 16.4 0.203 24.6 0.135 16.9 0.278 33.8 0.424 50.7 19.1 0.33 38.3 0.66 58 1-0.0116-9.36-0.0232-18.7-0.0352-28.4-0.00511-5.93-0.00997-11.9-0.0137-17.8-0.00593-9.42-0.0129-18.8-0.0266-28.3-0.00998-6.86-0.0164-13.7-0.0186-20.6-0.0013-3.63-0.00435-7.26-0.0116-10.9-0.00809-4.06-0.00826-8.12-0.0078-12.2-0.0036-1.2-0.00719-2.39-0.0109-3.62 0.00137-1.11 0.00275-2.23 0.00417-3.37-9.22e-4 -0.959-0.00184-1.92-0.00279-2.91 0.15-3.69 0.665-7.36 1.12-11h51v323h-51c-0.604-4.83-1.13-9.01-1.13-13.8-0.00423-1.61-0.00423-1.61-0.00854-3.26 0.00304-1.73 0.00304-1.73 0.00613-3.5-0.00263-1.85-0.00263-1.85-0.00531-3.74-0.00363-3.37-0.0028-6.73 3.79e-4 -10.1 0.00254-3.53 1.81e-4 -7.06-0.00139-10.6-0.00181-5.92 5.68e-4 -11.8 0.00534-17.8 0.00545-6.84 0.00367-13.7-0.00183-20.5-0.00454-5.88-0.00518-11.8-0.00256-17.6 0.00156-3.51 0.00177-7.02-0.00154-10.5-0.00342-3.91 0.00132-7.81 0.0069-11.7-0.00202-1.16-0.00405-2.33-0.00613-3.53 0.00282-1.06 0.00564-2.12 0.00854-3.22 5.66e-4 -1.39 5.66e-4 -1.39 0.00114-2.8 0.126-2.33 0.126-2.33 1.13-5.33h-59c-0.33 45.5-0.66 91.1-1 138h-49c-1.01-3.03-1.13-5.05-1.13-8.22-0.00261-1.09-0.00522-2.18-0.0079-3.3 0.00223-1.2 0.00446-2.4 0.00676-3.64-0.00156-1.27-0.00312-2.54-0.00473-3.85-0.00419-3.54-0.00211-7.07 9.86e-4 -10.6 0.00226-3.81-0.00123-7.62-0.00398-11.4-0.00445-7.47-0.00348-14.9-5.87e-4 -22.4 0.00226-6.07 0.00257-12.1 0.00148-18.2-1.53e-4 -0.863-3.06e-4 -1.73-4.64e-4 -2.62-3.2e-4 -1.75-6.44e-4 -3.51-9.73e-4 -5.26-0.00285-16.5 4.31e-4 -32.9 0.0058-49.4 0.00446-14.1 0.0037-28.2-9.19e-4 -42.4-0.00535-16.4-0.00746-32.8-0.00439-49.2 3.19e-4 -1.75 6.33e-4 -3.5 9.43e-4 -5.25 1.54e-4 -0.86 3.09e-4 -1.72 4.68e-4 -2.61 8.63e-4 -6.06-5.93e-4 -12.1-0.00295-18.2-0.00281-7.39-0.00204-14.8 0.00328-22.2 0.00263-3.77 0.00366-7.54 3.51e-4 -11.3-0.00354-4.09 6.92e-4 -8.18 0.00568-12.3-0.00223-1.19-0.00446-2.38-0.00676-3.6 0.00261-1.1 0.00522-2.2 0.0079-3.34 1.62e-4 -0.943 3.25e-4 -1.89 4.92e-4 -2.86 0.154-3.68 0.669-7.34 1.13-11z" fill="#F8FBFD"/>
<path transform="translate(1051,79)" d="m0 0c1.14 0.018 2.28 0.0361 3.46 0.0547 11.8 0.449 21.8 4.27 32.5 8.95v2c0.837 0.118 0.837 0.118 1.69 0.238 6.94 2.29 13 10 17.3 15.8 0.418 0.541 0.835 1.08 1.27 1.64 5.08 6.8 8.01 13.6 10.1 21.8 0.657 2.72 0.657 2.72 1.78 5.89 2.82 11.9 2.03 24.8 2.05 36.9 0.00628 1.9 0.0129 3.79 0.0199 5.69 0.0208 6.18 0.0314 12.4 0.0414 18.5 0.00405 2.14 0.00817 4.28 0.0124 6.42 0.019 10.1 0.0332 20.1 0.0416 30.2 0.00978 11.6 0.0361 23.1 0.0765 34.7 0.0302 8.97 0.045 17.9 0.0483 26.9 0.00234 5.34 0.0112 10.7 0.0365 16 0.0234 5.03 0.0275 10 0.0172 15.1-4.92e-4 1.83 0.00572 3.66 0.0196 5.49 0.162 22.7-5.26 43.1-21.2 60-15.7 15.1-36.9 19.2-58 19-20.6-0.453-39.8-5.85-54.7-20.6-5.1-5.44-9.13-11.1-12.6-17.7-0.383-0.673-0.766-1.35-1.16-2.04-0.84-1.96-0.84-1.96-0.84-5.96-0.66-0.33-1.32-0.66-2-1-2.3-4.38-2.63-8.97-3.12-13.8-0.0864-0.788-0.173-1.58-0.262-2.39-0.211-1.93-0.413-3.87-0.613-5.8h-1c-0.0235-21.2-0.0411-42.4-0.0518-63.6-0.00512-9.84-0.0121-19.7-0.0236-29.5-0.0101-8.6-0.0164-17.2-0.0186-25.8-0.00128-4.53-0.00421-9.07-0.0116-13.6-0.0269-17.2-3.9e-5 -34.3 0.431-51.5 0.037-1.49 0.0711-2.98 0.102-4.47 0.0442-2.04 0.103-4.08 0.162-6.12 0.0308-1.15 0.0616-2.3 0.0933-3.48 0.309-2.87 0.898-4.48 2.32-6.94 0.474-1.85 0.908-3.7 1.31-5.56 2.48-10.2 6.96-21 14.7-28.4 0.701-0.743 1.4-1.48 2.12-2.25 7.54-7.21 15.2-11.8 24.9-15.8 1.12-0.48 1.12-0.48 2.27-0.969 11.4-4.36 24.7-4.44 36.7-4.03zm-27 54c-8.48 11.9-7.15 25-7.13 39-0.00136 1.81-0.00314 3.62-0.00531 5.42-0.00454 4.89-0.0028 9.77 3.79e-4 14.7 0.00254 5.13 1.81e-4 10.3-0.00139 15.4-0.00182 8.61 5.71e-4 17.2 0.00534 25.8 0.00544 9.93 0.00368 19.9-0.00183 29.8-0.00455 8.55-0.00517 17.1-0.00256 25.6 0.00155 5.1 0.00178 10.2-0.00154 15.3-0.0029 4.79-8.64e-4 9.59 0.00489 14.4 0.00132 1.75 9.53e-4 3.51-0.00126 5.26-0.387 12.8-0.387 12.8 1.13 25.4 0.66 0.66 1.32 1.32 2 2 0.804 1.11 0.804 1.11 1.62 2.25 5.51 6.38 11.4 10.1 19.9 11 7.86 0.357 15.6-0.855 21.7-6.12 5.22-5.71 7.05-10.4 7.23-18.2 0.0187-0.727 0.0375-1.45 0.0568-2.2 0.0602-2.51 0.104-5.02 0.147-7.52 0.0273-1.35 0.0273-1.35 0.0551-2.73 0.603-30.1 0.559-60.1 0.574-90.2 4.7e-4 -0.879 9.39e-4 -1.76 0.00142-2.66 4.68e-4 -0.88 9.37e-4 -1.76 0.00142-2.67 0.00507-7.23 0.0253-14.5 0.0482-21.7 0.0216-7.06 0.0317-14.1 0.033-21.2 0.00104-4.18 0.00681-8.36 0.0248-12.5 0.0165-3.9 0.0186-7.8 0.00986-11.7-7.67e-4 -1.42 0.00353-2.84 0.0135-4.27 0.0511-7.77-0.28-14.4-3.37-21.6-0.588-1.58-0.588-1.58-1.19-3.19-3.45-5.35-8.19-8.69-14.4-10.2-9.93-1.64-21.2-0.318-28.4 7.38zm-56 7 1 2z" fill="#F9FCFE"/>
<path transform="translate(698 78.9)" d="m0 0c19.2-0.414 40.5 2.21 55.8 15.1 0.33 0.99 0.66 1.98 1 3 0.722 0.557 1.44 1.11 2.19 1.69 3.6 2.96 6.33 6.37 8.81 10.3v2h2c9.56 19.5 11.2 36.8 11.1 58.1 0.00136 1.9 0.00314 3.79 0.00531 5.69 0.00453 5.12 0.0028 10.2-3.79e-4 15.3-0.00255 5.37-1.8e-4 10.7 0.00139 16.1 0.00181 9.01-5.67e-4 18-0.00534 27-0.00545 10.4-0.00367 20.8 0.00183 31.2 0.00454 8.96 0.00518 17.9 0.00256 26.9-0.00155 5.34-0.00178 10.7 0.00154 16 0.0029 5.02 8.66e-4 10-0.00489 15.1-0.00132 1.84-9.52e-4 3.67 0.00126 5.51 0.0262 23.9 0.0262 23.9-3.7 34.8-0.264 0.774-0.528 1.55-0.8 2.35-5.77 16.1-16.4 28.9-31.6 36.8-22.3 10-50 11.6-73.1 3.18-18.1-7.28-30.5-19.4-38.9-37.2-0.775-2.54-1-4.31-1-7h-2c-1.46-5.45-2.51-10.7-3.11-16.4-0.0842-0.778-0.168-1.56-0.255-2.36-0.857-8.54-0.926-17.1-0.912-25.6-0.00436-1.75-0.00955-3.51-0.0155-5.26-0.0132-4.7-0.014-9.41-0.0114-14.1 0.00108-3.95-0.00384-7.91-0.00861-11.9-0.011-9.34-0.0116-18.7-0.00549-28 0.00604-9.58-0.00628-19.2-0.0276-28.7-0.0177-8.28-0.0236-16.6-0.0204-24.8 0.0018-4.92-6.71e-4 -9.84-0.0147-14.8-0.0127-4.63-0.0105-9.26 0.00241-13.9 0.00233-1.68-2.48e-4 -3.36-0.00862-5.04-0.0417-9.03 0.417-17.8 1.72-26.7 0.116-0.807 0.233-1.61 0.352-2.44 0.884-5.54 2.4-10.7 4.31-16 0.304-0.884 0.608-1.77 0.922-2.68 6-15.9 16.7-28 32.1-35.4 11.6-5.23 22.6-7.57 35.3-8.02zm-17.2 55.1c-4.59 7.02-6.08 13.6-6.21 22-0.0199 1.17-0.0399 2.35-0.0604 3.56-0.0167 1.27-0.0334 2.54-0.0507 3.85-0.0208 1.36-0.0419 2.72-0.0632 4.08-0.0562 3.68-0.106 7.36-0.153 11-0.03 2.32-0.0614 4.64-0.093 6.95-0.587 43.4-0.653 86.9 0.0318 130 0.0311 1.98 0.0608 3.97 0.0906 5.95 0.0567 3.66 0.12 7.31 0.187 11 0.0167 1.08 0.0334 2.16 0.0507 3.27 0.0199 0.994 0.0399 1.99 0.0604 3.01 0.0155 0.859 0.0311 1.72 0.0471 2.6 0.165 2.55 0.602 4.95 1.16 7.44h2c0.0206 0.701 0.0412 1.4 0.0625 2.12 1.57 4.81 5.43 7.5 9.78 9.89 8.37 3.76 17.1 4.22 25.8 1.49 5.56-2.25 9.34-5.24 12.3-10.5 1.05-3.31 1.65-6.54 2-10h1c0.0935-25.3 0.164-50.5 0.207-75.8 0.0206-11.7 0.0487-23.5 0.0945-35.2 0.0399-10.2 0.0657-20.4 0.0746-30.7 0.00521-5.41 0.0174-10.8 0.0466-16.2 0.0272-5.1 0.0355-10.2 0.0295-15.3 0.0011-1.87 9e-3 -3.73 0.0244-5.6 0.141-13.6 0.141-13.6-4.48-26.3-0.413-0.928-0.825-1.86-1.25-2.81-4.51-5.64-10.8-7.98-17.8-9.19-9.25-0.856-18.6 2.17-25 9z" fill="#F9FCFE"/>
<path transform="translate(1156,83)" d="m0 0c11-0.0466 21.9-0.082 32.9-0.104 5.1-0.0104 10.2-0.0245 15.3-0.0473 4.93-0.0219 9.86-0.0337 14.8-0.0389 1.87-0.00366 3.74-0.0108 5.61-0.0217 13.1-0.0733 26.3-0.146 38.8 4.59 1.14 0.434 2.29 0.869 3.47 1.32 3.84 1.59 7.5 3.33 11.2 5.31v2c0.599 0.262 1.2 0.523 1.82 0.793 2.31 1.28 3.48 2.47 5.12 4.52 1.75 2.16 3.47 4.07 5.5 5.99 2.78 2.93 4.75 5.96 6.62 9.51 0.344 0.648 0.687 1.3 1.04 1.96 7.46 14.8 8.06 30.7 8.03 47 6.76e-4 1.41 0.00165 2.82 0.0029 4.24 0.00147 2.95-6.4e-4 5.89-0.00534 8.84-0.00568 3.74-0.00242 7.48 0.00357 11.2 0.00365 2.91 0.00245 5.83-1.28e-4 8.74-6.58e-4 1.38 1.18e-4 2.75 0.00248 4.13 0.0314 23.4-2.31 45.3-19.1 63.1-21.9 20.6-53.1 19-81 19-0.33 39.9-0.66 79.9-1 121h-48c-2.48-2.48-2.24-3.89-2.26-7.27 0.00514-0.74 0.0103-1.48 0.0156-2.24-0.00362-1.18-0.00362-1.18-0.00732-2.38-0.00567-2.65 0.00305-5.31 0.0116-7.96-0.00105-1.9-0.00297-3.81-0.00568-5.71-0.00483-5.21 0.00296-10.4 0.013-15.6 0.00866-5.53 0.00631-11.1 0.00544-16.6 2.73e-4 -10.6 0.0118-21.3 0.0276-31.9 0.0124-8.53 0.0204-17.1 0.0253-25.6 0.0418-69.2 0.224-138 1.18-208zm50 46c-1.17 2.34-1.12 3.7-1.12 6.3-0.00137 0.903-0.00275 1.81-0.00417 2.74 0.0036 0.993 0.00719 1.99 0.0109 3.01-1.46e-4 1.04-2.92e-4 2.09-4.43e-4 3.16 6.99e-4 3.46 0.00849 6.93 0.0163 10.4 0.00186 2.4 0.00329 4.79 0.00429 7.19 0.00382 6.32 0.0137 12.6 0.0247 18.9 0.0102 6.44 0.0148 12.9 0.0198 19.3 0.0107 12.6 0.0276 25.3 0.0488 37.9 4.24 2.12 9.76 1.27 14.4 1.3 1.37 0.0114 2.75 0.0318 4.12 0.0615 9.1 0.197 18.2 0.289 25.4-6.07 8.26-8.76 7.22-20.8 7.2-32 6.75e-4 -1.34 0.00165-2.68 0.0029-4.02 0.00147-2.8-6.5e-4 -5.59-0.00534-8.39-0.00569-3.56-0.00242-7.13 0.00357-10.7 0.00363-2.76 0.00245-5.52-1.28e-4 -8.29-9.81e-4 -1.95 0.00203-3.89 0.00513-5.84-0.0298-11.3-0.716-20.3-7.14-30-5.37-4.81-11.5-5.13-18.4-5.1-1.06 0.00212-1.06 0.00212-2.14 0.00429-2.24 0.00558-4.48 0.0181-6.72 0.0309-1.52 0.00502-3.05 0.00958-4.57 0.0137-3.73 0.011-7.45 0.0283-11.2 0.0488z" fill="#F8FBFD"/>
<path transform="translate(814,83)" d="m0 0h50c-0.33 0.66-0.66 1.32-1 2-0.0936 1.4-0.126 2.81-0.126 4.21-0.00391 1.33-0.00391 1.33-0.0079 2.69 0.00223 0.983 0.00446 1.97 0.00676 2.98-0.00156 1.04-0.00312 2.08-0.00473 3.15-0.00401 3.51-8.2e-4 7.01 0.00232 10.5-0.00135 2.5-0.00313 5.01-0.00531 7.51-0.0041 6.11-0.00348 12.2-5.87e-4 18.3 0.00226 4.98 0.00257 9.95 0.00148 14.9-2.3e-4 1.06-2.3e-4 1.06-4.64e-4 2.15-3.2e-4 1.44-6.44e-4 2.88-9.73e-4 4.32-0.00286 13.5 4.32e-4 27 0.0058 40.5 0.00445 11.6 0.0037 23.1-9.19e-4 34.7-0.00537 13.4-0.00745 26.9-0.00439 40.3 3.19e-4 1.44 6.33e-4 2.88 9.43e-4 4.31 1.54e-4 0.707 3.09e-4 1.41 4.68e-4 2.14 8.59e-4 4.96-5.85e-4 9.91-0.00295 14.9-0.00312 6.7-8.51e-4 13.4 0.00489 20.1 0.00131 2.45 9.58e-4 4.9-0.00126 7.35-0.00277 3.37 7.39e-4 6.73 0.00568 10.1-0.00223 0.949-0.00446 1.9-0.00676 2.88 0.0244 8.7 0.62 17.2 1.13 25.9 27.7 0.33 55.4 0.66 84 1v46h-134c-0.633-4.43-1.13-8.12-1.13-12.5-0.00261-1.04-0.00522-2.09-0.0079-3.17 0.00335-1.7 0.00335-1.7 0.00676-3.43-0.00156-1.21-0.00312-2.43-0.00473-3.68-0.00329-3.36-0.00212-6.72 9.86e-4 -10.1 0.00227-3.63-0.00123-7.26-0.00398-10.9-0.00445-7.11-0.00349-14.2-5.87e-4 -21.3 0.00226-5.78 0.00256-11.6 0.00148-17.4-1.53e-4 -0.824-3.06e-4 -1.65-4.64e-4 -2.5-3.2e-4 -1.67-6.44e-4 -3.35-9.73e-4 -5.02-0.00285-15.7 4.26e-4 -31.4 0.0058-47.1 0.00446-13.4 0.0037-26.9-9.19e-4 -40.3-0.00537-15.6-0.00745-31.3-0.00439-46.9 3.19e-4 -1.67 6.33e-4 -3.34 9.43e-4 -5.01 2.31e-4 -1.23 2.31e-4 -1.23 4.68e-4 -2.49 8.6e-4 -5.76-5.86e-4 -11.5-0.00295-17.3-0.00282-7.04-0.00201-14.1 0.00328-21.1 0.00261-3.59 0.00369-7.17 3.51e-4 -10.8-0.00358-3.91 7.28e-4 -7.81 0.00568-11.7-0.00223-1.11-0.00446-2.22-0.00676-3.36 0.0221-9.06 0.599-17.9 1.13-27z" fill="#F9FCFE"/>
<path transform="translate(1331,83)" d="m0 0h51c-0.33 0.66-0.66 1.32-1 2-0.0943 1.75-0.124 3.51-0.123 5.26-0.00199 1.12-0.00398 2.24-0.00603 3.4 0.00291 1.24 0.00583 2.49 0.00883 3.77-0.00128 1.97-0.00128 1.97-0.00259 3.98-0.00224 3.66 0.00178 7.31 0.00678 11 0.0043 3.94 0.00286 7.87 0.0021 11.8-5.25e-4 6.83 0.00262 13.7 0.00824 20.5 0.00812 9.87 0.0107 19.7 0.012 29.6 0.00219 16 0.00885 32 0.0183 48 0.00917 15.6 0.0163 31.1 0.0205 46.7 2.63e-4 0.958 5.25e-4 1.92 7.96e-4 2.9 0.00131 4.81 0.00257 9.61 0.00381 14.4 0.0104 39.9 0.0283 79.8 0.0503 120h-50c-1.01-3.03-1.13-5.05-1.13-8.22-0.00261-1.09-0.00522-2.18-0.0079-3.3 0.00223-1.2 0.00446-2.4 0.00676-3.64-0.00156-1.27-0.00312-2.54-0.00473-3.85-0.00419-3.54-0.00211-7.07 9.86e-4 -10.6 0.00226-3.81-0.00123-7.62-0.00398-11.4-0.00445-7.47-0.00348-14.9-5.87e-4 -22.4 0.00226-6.07 0.00257-12.1 0.00148-18.2-1.53e-4 -0.863-3.06e-4 -1.73-4.64e-4 -2.62-3.2e-4 -1.75-6.44e-4 -3.51-9.73e-4 -5.26-0.00285-16.5 4.31e-4 -32.9 0.0058-49.4 0.00446-14.1 0.0037-28.2-9.19e-4 -42.4-0.00535-16.4-0.00746-32.8-0.00439-49.2 3.19e-4 -1.75 6.33e-4 -3.5 9.43e-4 -5.25 1.54e-4 -0.86 3.09e-4 -1.72 4.68e-4 -2.61 8.63e-4 -6.06-5.93e-4 -12.1-0.00295-18.2-0.00281-7.39-0.00204-14.8 0.00328-22.2 0.00263-3.77 0.00366-7.54 3.51e-4 -11.3-0.00354-4.09 6.92e-4 -8.18 0.00568-12.3-0.00223-1.19-0.00446-2.38-0.00676-3.6 0.00261-1.1 0.00522-2.2 0.0079-3.34 1.62e-4 -0.943 3.25e-4 -1.89 4.92e-4 -2.86 0.154-3.68 0.669-7.34 1.13-11z" fill="#F9FCFE"/>
<path transform="translate(366,72)" d="m0 0c2.51 10.6-3.12 22.7-8 32-0.321 0.615-0.643 1.23-0.974 1.86-4.62 8.75-9.57 16.6-16 24.1-0.529 0.748-1.06 1.5-1.6 2.27-0.461 0.572-0.923 1.14-1.4 1.73h-2c-0.0619 0.557-0.124 1.11-0.188 1.69-1.16 3.3-3.27 4.94-5.81 7.31-0.722 0.742-1.44 1.49-2.19 2.25-2.59 2.53-5.21 4.99-7.88 7.44-1.25 1.15-1.25 1.15-2.54 2.32-2.4 1.99-2.4 1.99-4.65 3.01-1.97 0.848-1.97 0.848-2.5 3.11-0.0825 0.619-0.165 1.24-0.25 1.88 0.522-0.182 1.04-0.364 1.58-0.551 5.33-1.82 10.7-3.34 16.1-4.7 2.45-0.609 2.45-0.609 4.29-2.75 2.68-0.629 5.24-0.781 8-1 0.33 0.33 0.66 0.66 1 1-0.359 5.39-1.05 8.42-4 13l-1.46 2.46c-4.05 6.79-7.84 13-13.5 18.5-0.619 0.804-1.24 1.61-1.88 2.44-2.21 2.67-4.57 4.75-7.25 6.94-2 1.69-2 1.69-4.2 3.96-2.95 2.93-6.02 5.66-9.18 8.36-0.556 0.485-1.11 0.971-1.68 1.47-3.12 2.66-5.9 4.59-9.82 5.84 0.33 2.64 0.66 5.28 1 8-16.7 13.2-16.7 13.2-25 13-4.21-1.4-6.97-2.83-10-6-2.1-0.714-2.1-0.714-4-1v-2c-1.65-1.33-1.65-1.33-3.75-2.56-0.696-0.434-1.39-0.869-2.11-1.32-2.06-1.19-2.06-1.19-4.17-1.59-6.99-1.9-13.8-11-18-16.5-0.676-1.66-1.34-3.33-2-5l-2-1c-1.03-1.72-2-3.47-2.94-5.25-4.45-8.42-9.2-16.3-18.1-20.8v-2c-0.784-0.227-1.57-0.454-2.38-0.688-2.62-1.31-2.62-1.31-3.94-3.94-0.227-0.784-0.454-1.57-0.688-2.38 0.908-0.433 1.82-0.866 2.75-1.31 3.11-1.47 3.11-1.47 5-3.12 2.96-2.06 6.13-3.18 9.5-4.38 1.43-0.525 2.87-1.05 4.3-1.57 0.734-0.266 1.47-0.532 2.23-0.806 15.3-5.17 15.3-5.17 29.7-12.4 3.05-1.76 6.15-2.69 9.51-3.69 2.18-0.661 2.18-0.661 3.99-2.75 3.16-1.45 6.33-2.75 9.58-3.98 0.882-0.338 1.76-0.675 2.67-1.02 0.83-0.309 1.66-0.619 2.52-0.938 2.29-1.09 3.48-2.28 5.23-4.06 2.33-0.689 4.66-1.35 7-2 1.69-0.967 3.35-1.97 5-3 2.12-1.21 4.25-2.42 6.38-3.62 14.9-8.35 14.9-8.35 28.9-18.1 2.18-1.63 4.5-2.89 6.89-4.19 2.8-1.67 5.33-3.69 7.9-5.7 1.89-1.37 1.89-1.37 3.95-2.36 2.13-1.1 3.3-2.28 4.95-4.01 1.8-1.52 3.61-3.01 5.44-4.5 0.947-0.773 1.89-1.55 2.87-2.34 0.888-0.712 1.78-1.42 2.69-2.16 0.713-0.588 1.43-1.18 2.16-1.78 1.84-1.22 1.84-1.22 4.84-1.22z" fill="#F9FCFE"/>
<path transform="translate(72,262)" d="m0 0c1.11 0.681 1.11 0.681 2.25 1.38 2.59 1.6 2.59 1.6 4.81 2.56 2.42 1.33 3.99 3.1 5.94 5.06 10.5 9.01 22.1 15.9 34.7 21.5 6.17 2.84 9.83 4.94 12.3 11.4 0.953 2.49 1.88 4.9 3.12 7.26 0.875 1.87 0.875 1.87 0.875 4.87 0.922 0.385 0.922 0.385 1.86 0.777 3.63 2.08 4.76 5.4 6.14 9.22 0.653 3 0.883 5.93 1 9l0.121 2.44c0.206 7.72-0.326 15-4.62 21.6-3.09 5-3.34 10.2-3.6 15.9-0.373 5.44-1.9 7.46-5.9 11v3c-4.62 0.33-9.24 0.66-14 1-0.33-1.32-0.66-2.64-1-4-3.01-1-4.85-1.51-7.8-0.195-0.683 0.353-1.37 0.706-2.07 1.07-5.8 2.71-11.8 3.38-18.1 4.12-0.33-0.99-0.66-1.98-1-3 1-1.67 2-3.33 3-5-0.33-0.99-0.66-1.98-1-3-5.61-0.33-11.2-0.66-17-1-0.33-0.99-0.66-1.98-1-3h2v-2c3-4.09 6.97-5.38 11.6-7.07 2.39-0.846 2.39-0.846 4.29-1.95 2.39-1.09 4.3-1.38 6.91-1.61 0.889-0.0838 1.78-0.168 2.7-0.254 0.92-0.0786 1.84-0.157 2.79-0.238 0.936-0.0864 1.87-0.173 2.84-0.262 2.3-0.212 4.61-0.416 6.91-0.613 4.73-10.2 7.84-20.5 5.38-31.9-3.94-6.08-12.2-8.43-18.5-11.3-3.41-1.55-6.81-3.14-10.2-4.73-1.29-0.602-2.58-1.2-3.86-1.8-0.932-0.436-1.86-0.871-2.82-1.32v-2c-0.804-0.268-1.61-0.536-2.44-0.812-0.846-0.392-1.69-0.784-2.56-1.19-0.495-1.49-0.495-1.49-1-3-0.614-0.298-1.23-0.596-1.86-0.902-4.63-2.38-6.51-7.38-8.14-12.1-1.16-8.04-0.738-16.3 2-24 2.62-2.94 2.62-2.94 5-5zm43 119c-0.33 0.66-0.66 1.32-1 2h2c-0.33-0.66-0.66-1.32-1-2zm3 6v1h11v-1h-11z" fill="#F9FCFE"/>
<path transform="translate(302,34)" d="m0 0c0.99 0.33 1.98 0.66 3 1 0.973 6.08 0.959 11.6 0.312 17.7-0.0889 0.873-0.178 1.75-0.269 2.64-0.826 7.27-2.59 13.8-5.04 20.7-0.352 1.33-0.693 2.66-1 4 2.31-0.99 4.62-1.98 7-3 1.68 1.68 1.17 3.7 1.19 6-0.0545 5.28-0.773 9.94-2.19 15-0.171 0.786-0.343 1.57-0.52 2.38-1.05 4.09-2.07 6.82-5.67 9.18-1.59 0.843-3.2 1.65-4.81 2.44-1.1 0.581-2.21 1.16-3.34 1.76-8.66 4.52-17.5 8.43-26.6 12.2-4.25 1.78-8.17 3.64-12.1 6.06-2.28 1.03-4.57 2.03-6.88 3-1.17 0.495-2.35 0.99-3.55 1.5-2.34 0.982-4.68 1.96-7.02 2.94-2.48 1.09-4.85 2.21-7.25 3.45-5.24 2.66-10.7 4.74-16.2 6.86-1.04 0.411-2.09 0.822-3.16 1.25-7.7 3-7.7 3-9.96 3-2.64-9.44-2.64-9.44-1.2-13 1.89-2.32 4.01-3.93 6.58-5.43 2.81-1.73 5.02-3.67 7.43-5.93 3.04-2.8 6.07-5.41 9.44-7.81 2.58-1.87 4.57-3.71 6.56-6.19 4.04-4.99 9.19-8.72 14.2-12.7 4.56-3.67 8.39-7.52 12.2-12 1.87-2.06 3.83-3.84 5.95-5.64 3.37-2.87 6.11-5.9 8.88-9.38 1.08-1.23 2.16-2.46 3.25-3.69 5.15-5.86 10.1-11.9 14.9-18 1.86-2.29 1.86-2.29 3.86-4.16 2.11-2.25 3.52-4.61 4.99-7.31 4.09-7.35 4.09-7.35 7.01-8.81z" fill="#F9FCFE"/>
<path transform="translate(1566,250)" d="m0 0h1v22h2c0.33 5.94 0.66 11.9 1 18 0.33-13.2 0.66-26.4 1-40h1v22h2c0.939 17.1 1.16 34.1 1.13 51.2-0.00577 3.55-0.00235 7.1 0.00357 10.7 0.00363 2.78 0.00246 5.56-1.28e-4 8.34-9.74e-4 1.94 0.00202 3.87 0.00513 5.81-0.0171 6.43-0.277 12.7-1.14 19h-3v-4h-2v4c-1.98 0.495-1.98 0.495-4 1-2.1-3.46-2.3-6.29-2.41-10.3-0.0387-1.21-0.0773-2.41-0.117-3.65-0.0309-1.25-0.0619-2.51-0.0938-3.8-0.0387-1.27-0.0773-2.54-0.117-3.85-0.0943-3.13-0.18-6.27-0.258-9.4h1c0.99-5.28 1.98-10.6 3-16h-2c0.00524-0.568 0.0105-1.14 0.0159-1.72 0.0863-10.8 0.103-21.5-1.02-32.3 0.66 0.99 1.32 1.98 2 3 0.33-13.2 0.66-26.4 1-40z" fill="#FBFDFF"/>
<path transform="translate(143,97)" d="m0 0h8v2h-6v2c1.3-0.144 2.6-0.289 3.94-0.438 0.731-0.0812 1.46-0.162 2.21-0.246 1.86-0.135 1.86-0.135 2.85-1.32 2.65-0.242 5.28-0.426 7.94-0.562 0.773-0.041 1.55-0.082 2.34-0.124 21.2-1.07 21.2-1.07 27.7 4.69-0.66 2.31-1.32 4.62-2 7-2.31-0.33-4.62-0.66-7-1v-2c-0.99 1.65-1.98 3.3-3 5-2.47-0.99-2.47-0.99-5-2v-2c-2.95 1.37-5.44 2.99-8 5-4.88-3.88-4.88-3.88-6-5-0.248 0.619-0.495 1.24-0.75 1.88-1.46 2.48-2.63 3.08-5.25 4.12-0.268-0.804-0.536-1.61-0.812-2.44-0.392-0.846-0.784-1.69-1.19-2.56-0.99-0.33-1.98-0.66-3-1-0.33 1.65-0.66 3.3-1 5-3.27-0.564-4.83-1.5-7-4-0.33 2.64-0.66 5.28-1 8-1.81 0.625-1.81 0.625-4 1-0.99-0.66-1.98-1.32-3-2-1.18 1.24-1.18 1.24-2.38 2.5-2.62 2.5-2.62 2.5-4.62 2.5v-2c-0.66-0.33-1.32-0.66-2-1 0.33-1.32 0.66-2.64 1-4 1.32 0.33 2.64 0.66 4 1v-9c4.04-1.01 7.87-1.52 12-2-0.33-0.99-0.66-1.98-1-3 0.938-2.19 0.938-2.19 2-4zm9 8c-0.33 0.66-0.66 1.32-1 2h3v-2h-2z" fill="#FBFCFE"/>
<path transform="translate(35,202)" d="m0 0c2.53 0.991 3.77 1.62 5.2 3.99 0.307 0.767 0.614 1.53 0.93 2.32 0.327 0.806 0.655 1.61 0.992 2.44 0.437 1.11 0.437 1.11 0.883 2.25 0.413 0.907 0.825 1.81 1.25 2.75 0.907 2.72 1.25 4.41 0.75 7.25-0.763 0.743-1.53 1.49-2.31 2.25-3.47 3.55-4.43 7.04-5.69 11.8h-2c0.0412 0.949 0.0825 1.9 0.125 2.88-0.125 3.12-0.125 3.12-2.12 5.12-2.43 0.363-2.43 0.363-5 0-1.73-1.64-1.73-1.64-3.19-3.81-0.733-1.06-0.733-1.06-1.48-2.14-0.44-0.674-0.879-1.35-1.33-2.04-0.66-0.99-1.32-1.98-2-3-0.266-2.96-0.266-2.96-0.25-6.38-0.00516-1.12-0.0103-2.24-0.0156-3.4 0.767-9.32 6.72-14.9 13.4-20.7 0.905-0.762 0.905-0.762 1.83-1.54z" fill="#F8FAFC"/>
<path transform="translate(1330,225)" d="m0 0h2c0.998 20 1.14 39.9 1.1 59.9-0.00637 4.27-0.00685 8.55-0.00803 12.8-0.00308 8.05-0.0112 16.1-0.0213 24.1-0.0113 9.18-0.0167 18.4-0.0217 27.5-0.0104 18.8-0.0279 37.7-0.0503 56.5h-2c-1.18-3.55-1.12-6.37-1.12-10.1-8.54e-4 -0.729-0.00171-1.46-0.00259-2.21-0.00165-2.45 0.00386-4.9 0.00932-7.35 2.82e-4 -1.75 1.24e-4 -3.51-4.43e-4 -5.26-2.88e-4 -4.77 0.0056-9.54 0.0126-14.3 0.00624-4.98 0.00684-9.96 0.00803-14.9 0.00311-9.43 0.0113-18.9 0.0213-28.3 0.0112-10.7 0.0167-21.5 0.0217-32.2 0.0105-22.1 0.0281-44.2 0.0503-66.3z" fill="#FBFDFF"/>
<path transform="translate(814,188)" d="m0 0c2.16 3.24 2.24 4.07 2.21 7.8-0.00334 0.984-0.00669 1.97-0.0101 2.98-0.0135 1.07-0.027 2.15-0.0409 3.25-0.00552 1.12-0.011 2.24-0.0167 3.4-0.0124 2.42-0.029 4.85-0.0494 7.27-0.0531 6.4-0.0751 12.8-0.094 19.2-0.00414 1.29-0.00829 2.57-0.0126 3.9-0.0235 13 0.277 26 0.745 38.9 0.353 10.7 0.112 21.4-0.275 32.1-0.618 17.4-0.574 34.8-0.527 52.2 0.0105 4.31 0.0148 8.63 0.0198 12.9 0.0105 8.37 0.0274 16.7 0.0488 25.1h-1v-20h-2c-0.0236-19.3-0.0411-38.7-0.0518-58-0.00511-8.98-0.012-18-0.0236-26.9-0.0101-7.85-0.0165-15.7-0.0186-23.5-0.00128-4.14-0.00418-8.27-0.0116-12.4-0.0394-22.7 0.351-45.4 1.11-68.1z" fill="#FBFDFF"/>
<path transform="translate(967,172)" d="m0 0h2v154h-2c-1.02-8.06-1.14-16-1.13-24.1-0.00136-1.4-0.00314-2.79-0.00531-4.19-0.00453-3.76-0.00281-7.53 3.79e-4 -11.3 0.00254-3.95 1.81e-4 -7.89-0.00139-11.8-0.00181-6.62 5.66e-4 -13.2 0.00534-19.9 0.00546-7.65 0.00366-15.3-0.00183-23-0.00453-6.58-0.00518-13.2-0.00256-19.7 0.00156-3.93 0.00176-7.85-0.00154-11.8-0.00288-3.68-9e-4 -7.37 0.00489-11.1 0.00196-2-0.00102-4-0.00413-6 0.00282-1.18 0.00564-2.37 0.00854-3.59 3.77e-4 -1.03 7.54e-4 -2.06 0.00114-3.13 0.126-2.44 0.126-2.44 1.13-4.44z" fill="#FBFDFF"/>
<path transform="translate(114 188)" d="m0 0c1.12 1.56 1.12 1.56 1.12 2.56-3.63 0.66-7.26 1.32-11 2-0.33 0.99-0.66 1.98-1 3-0.804 0.763-1.61 1.53-2.44 2.31-2.83 2.96-3.76 4.7-4.56 8.69 0.303 3.58 0.866 6.6 2 10 2.95-0.102 2.95-0.102 6-1 0.674-1.66 1.34-3.33 2-5 4.15-3.09 5.72-4.08 10.9-3.75 1.01 0.248 2.02 0.495 3.06 0.75-0.188 1.81-0.188 1.81-1 4-2.64 1.87-4.93 2.98-8 4-0.309 0.949-0.619 1.9-0.938 2.88-1.06 3.12-1.06 3.12-2.75 5-3.43 1.67-5.53 1.7-9.31 1.12-4.13-2.42-6.56-4.97-8.44-9.38-0.186-0.866-0.371-1.73-0.562-2.62l2-2c-0.66-0.33-1.32-0.66-2-1-0.397-6.61 1.1-10.3 4.81-15.6 4.59-4.99 13.5-11 20.1-5.94z"/>
<path transform="translate(1419,84)" d="m0 0h15v2h-13c-0.0234 9.82-0.041 19.6-0.0518 29.5-0.00517 4.56-0.0122 9.13-0.0236 13.7-0.011 4.42-0.0169 8.84-0.0194 13.3-0.00182 1.67-0.00536 3.34-0.0109 5.01-0.0273 8.65 0.101 17.3 0.604 25.9 0.724 12.8 0.649 25.6 0.637 38.4-0.00259 3.55-1.69e-4 7.1 0.00139 10.7 0.00181 5.97-5.42e-4 11.9-0.00534 17.9-0.00541 6.81-0.00369 13.6 0.00183 20.4 0.00461 5.93 0.00515 11.9 0.00256 17.8-0.00153 3.51-0.00186 7.01 0.00154 10.5 0.0126 19-0.382 38-1.14 57h-1c-0.33-57.4-0.66-115-1-174h-1c-0.0231-11-0.0409-22.1-0.0518-33.1-0.00522-5.12-0.0123-10.2-0.0236-15.4-0.0108-4.94-0.0168-9.88-0.0194-14.8-0.00185-1.89-0.00547-3.77-0.0109-5.66-0.00724-2.64-0.00826-5.28-0.0078-7.92-0.0036-0.784-0.00719-1.57-0.0109-2.38 0.0061-3.19 0.107-5.72 1.12-8.77z" fill="#FBFDFF"/>
<path transform="translate(627,215)" d="m0 0c-0.00222 1.19-0.00444 2.38-0.00673 3.61-0.0205 11.4-0.0354 22.7-0.0451 34.1-0.00517 5.83-0.0121 11.7-0.0236 17.5-1.41 39.6-1.41 39.6 2.08 78.8 0.112 2.68 0.0463 5.32 0 8-0.66 0.33-1.32 0.66-2 1-2.79-17.2-3.4-33.9-3.29-51.3 0.00561-2.64 0.00987-5.27 0.0129-7.91 0.00921-6.16 0.0337-12.3 0.064-18.5 0.0339-7.03 0.0501-14.1 0.0651-21.1 0.0311-14.4 0.0836-28.8 0.151-43.3 2-1 2-1 3-1z" fill="#FBFCFE"/>
<path transform="translate(430,262)" d="m0 0h2c0.175 11.8 0.341 23.6 0.5 35.4 0.0119 0.883 0.0238 1.77 0.036 2.67 0.349 26.1 0.558 52.2 0.527 78.3-8.56e-4 0.71-0.00171 1.42-0.00259 2.15-0.011 8.47-0.0305 16.9-0.0599 25.4h-2c-1.06-3.17-1.12-5.39-1.12-8.71-0.00137-1.19-0.00275-2.38-0.00417-3.61 0.0036-1.31 0.00719-2.62 0.0109-3.96 2.82e-4 -1.39 1.24e-4 -2.78-4.43e-4 -4.17-2.87e-4 -3.77 0.0056-7.55 0.0126-11.3 0.00624-3.94 0.00684-7.89 0.00803-11.8 0.00311-7.47 0.0113-14.9 0.0213-22.4 0.0112-8.5 0.0167-17 0.0217-25.5 0.0105-17.5 0.0281-35 0.0503-52.5z" fill="#FBFDFF"/>
<path transform="translate(778,169)" d="m0 0h1c0.0467 22.7 0.082 45.5 0.104 68.2 0.0103 10.6 0.0244 21.1 0.0473 31.7 0.0199 9.2 0.0328 18.4 0.0373 27.6 0.00261 4.87 0.00876 9.75 0.0233 14.6 0.0136 4.59 0.0178 9.17 0.0148 13.8 5.51e-4 1.69 0.00454 3.37 0.0122 5.06 0.00993 2.3 0.00757 4.6 0.0021 6.89 0.00184 1.29 0.00369 2.57 0.00559 3.9-0.23 3.02-0.645 4.7-2.25 7.23-0.364-1.6-0.716-3.21-1.06-4.81-0.197-0.893-0.394-1.79-0.598-2.71-0.34-2.48-0.34-2.48 0.66-5.48-0.66 0.33-1.32 0.66-2 1-0.658 3.03-0.658 3.03-1 6h-2c-3.25-6.5-0.76-17 0-24h3v11h2v-11h2c-0.00608-0.689-0.0122-1.38-0.0184-2.09-0.148-16.8-0.29-33.6-0.425-50.4-0.0654-8.13-0.133-16.3-0.205-24.4-0.0631-7.09-0.122-14.2-0.177-21.3-0.029-3.75-0.0599-7.5-0.0955-11.3-0.0335-3.54-0.0618-7.08-0.0862-10.6-0.0144-1.9-0.0342-3.8-0.0543-5.69-0.0472-7.8 0.342-15.5 1.06-23.2z" fill="#FBFDFF"/>
<path transform="translate(1155,273)" d="m0 0h2c1.25 2.49 1.13 4.16 1.13 6.95 0.00282 1.05 0.00564 2.09 0.00854 3.17-0.00202 1.15-0.00405 2.31-0.00613 3.5 0.00175 1.21 0.0035 2.42 0.00531 3.67 0.00366 3.33 0.00279 6.66-3.79e-4 9.99-0.00253 3.48-1.85e-4 6.96 0.00139 10.4 0.00182 5.85-5.82e-4 11.7-0.00534 17.6-0.00543 6.76-0.00369 13.5 0.00183 20.3 0.00454 5.8 0.00518 11.6 0.00256 17.4-0.00156 3.47-0.00177 6.93 0.00154 10.4 0.00343 3.87-0.00133 7.74-0.0069 11.6 0.00202 1.15 0.00405 2.3 0.00613 3.48-0.00282 1.06-0.00564 2.11-0.00854 3.2-3.77e-4 0.915-7.54e-4 1.83-0.00114 2.77-0.128 2.61-0.548 5.02-1.13 7.56-0.66-0.33-1.32-0.66-2-1v-131z" fill="#FAFCFE"/>
<path transform="translate(1156,131)" d="m0 0h2v118h-2c-1.16-2.31-1.13-3.63-1.13-6.2-0.00311-0.883-0.00622-1.77-0.00943-2.68 0.00198-0.974 0.00397-1.95 0.00601-2.95-0.00132-1.03-0.00264-2.06-4e-3 -3.12-0.00194-3.43 0.0045-6.87 0.0118-10.3 8.86e-4 -1.17 0.00177-2.35 0.00269-3.56 0.0261-29.7 0.555-59.5 1.12-89.2z" fill="#FBFDFF"/>
<path transform="translate(863,359)" d="m0 0c28 0.33 56.1 0.66 85 1 0.495 1.49 0.495 1.49 1 3h-84c-0.66-1.32-1.32-2.64-2-4z"/>
<path transform="translate(121,68)" d="m0 0c3 2 3 2 4 5 0.488 4.39 0.503 6.3-2.12 9.94-3.37 2.42-4.81 2.67-8.88 2.06-3.43-1.18-5.24-2.83-7-6-0.5-2.94-0.5-2.94 0-6 4.36-5.33 7.52-8.32 14-5zm-13 5v5h1v-5h-1z"/>
<path transform="translate(1331,86)" d="m0 0h2c0.0232 11.1 0.0409 22.3 0.0518 33.4 0.00522 5.17 0.0123 10.3 0.0236 15.5 0.0109 4.99 0.0168 9.97 0.0194 15 0.00185 1.9 0.00546 3.8 0.0109 5.71 0.00726 2.66 0.00826 5.33 0.0078 7.99 0.0036 0.786 0.00719 1.57 0.0109 2.38-0.00719 3.82-0.196 7.37-1.12 11.1h-2c-0.0232-11.1-0.0409-22.3-0.0518-33.4-0.00522-5.17-0.0123-10.3-0.0236-15.5-0.0109-4.99-0.0168-9.97-0.0194-15-0.00185-1.9-0.00546-3.8-0.0109-5.71-0.00726-2.66-0.00826-5.33-0.0078-7.99-0.0036-0.786-0.00719-1.57-0.0109-2.38 0.00719-3.82 0.196-7.37 1.12-11.1z" fill="#FBFDFF"/>
<path transform="translate(1381,134)" d="m0 0h1v219h-1v-219z"/>
<path transform="translate(433,134)" d="m0 0c0.0307 9.79 0.051 19.6 0.0625 29.4 8.56e-4 0.724 0.00171 1.45 0.00259 2.19 0.0259 24.8-0.263 49.6-1.07 74.4h-1c-0.749-25.9-1.1-51.9-1.06-77.8 8.56e-4 -0.679 0.00171-1.36 0.00259-2.06 0.0113-8.38 0.0314-16.8 0.0599-25.1 2-1 2-1 3-1z" fill="#FBFDFF"/>
<path transform="translate(141 131)" d="m0 0c5.69 0.415 10 1.2 15 4.04 1.99 1.16 1.99 1.16 5.23 2.04 1.27 0.464 1.27 0.464 2.56 0.938 0.495 1.49 0.495 1.49 1 3-4.57-0.549-8.67-1.42-13-3v-2c-0.724 0.162-1.45 0.325-2.2 0.492-9.34 1.69-19.4 0.218-28.8-0.492-0.33-0.99-0.66-1.98-1-3-0.66-0.33-1.32-0.66-2-1 0.901 0.00786 0.901 0.00786 1.82 0.0159 2.71 0.0207 5.41 0.0338 8.12 0.0466 0.946 0.00838 1.89 0.0168 2.87 0.0254 0.899 0.00322 1.8 0.00645 2.72 0.00977 0.833 0.00524 1.67 0.0105 2.52 0.0159 2.51-0.146 2.56-1.11 5.17-1.13z" fill="#F5F8F7"/>
<path transform="translate(1417,194)" d="m0 0h1v150h-1v-150z" fill="#F5F8F7"/>
<path transform="translate(725,352)" d="m0 0 1 2c-4.25 6.64-8.33 10.3-15.9 12.6-9.34 1.92-17.7-0.218-26.1-4.57-2.9-2.52-4.45-4.15-5-8 0.66-0.33 1.32-0.66 2-1 0.681 0.928 1.36 1.86 2.06 2.81 3.82 4.59 9.1 6.51 14.9 7.19 7.59 0.691 14.2-0.329 21-4 2.44-2.19 4.08-4.31 6-7z"/>
<path transform="translate(1020,349)" d="m0 0c0.413 0.557 0.825 1.11 1.25 1.69 0.577 0.763 1.15 1.53 1.75 2.31 0.835 1.24 0.835 1.24 1.69 2.5 4.39 4.74 10.3 7.11 16.7 7.74 7.76 0.217 15.6-0.663 21.6-6.06 1.85-2.08 1.85-2.08 3.98-5.18 0.495 0.99 0.495 0.99 1 2-3.66 6.46-7.75 9.63-14.7 12.1-10.2 2.69-17.4 1.02-26.6-4.02-3.08-2.43-4.26-4.49-5.68-8.12v-2c-0.66-0.33-1.32-0.66-2-1 0.33-0.66 0.66-1.32 1-2z"/>
<path transform="translate(161,106)" d="m0 0c-1.73 5.83-1.73 5.83-4.12 7.38-0.619 0.206-1.24 0.412-1.88 0.625-0.268-0.804-0.536-1.61-0.812-2.44-0.392-0.846-0.784-1.69-1.19-2.56-0.99-0.33-1.98-0.66-3-1-0.33 1.65-0.66 3.3-1 5-3.27-0.564-4.83-1.5-7-4-0.33 2.64-0.66 5.28-1 8-1.81 0.625-1.81 0.625-4 1-0.99-0.66-1.98-1.32-3-2 0.33-0.99 0.66-1.98 1-3h3c0.0206-0.598 0.0412-1.2 0.0625-1.81 0.938-2.19 0.938-2.19 3.56-3.94 5.99-2.33 13-1.47 19.4-1.25z" fill="#F5F8F7"/>
<path transform="translate(274,160)" d="m0 0v4c-1.64 0.217-1.64 0.217-3.31 0.438-3.62 0.445-3.62 0.445-6.69 1.56-1.67 0.0387-3.33 0.045-5 0-0.33 1.65-0.66 3.3-1 5h-2v4c0.66 0.33 1.32 0.66 2 1-1.65 0.33-3.3 0.66-5 1-0.99-1.65-1.98-3.3-3-5 0.66-0.33 1.32-0.66 2-1-0.66-1.32-1.32-2.64-2-4 0.66-0.99 1.32-1.98 2-3 2.24-0.406 2.24-0.406 4.88-0.5 6.68-0.239 10-3.86 17.1-3.5z" fill="#FBFDFF"/>
<path transform="translate(1305,151)" d="m0 0h1c0.0232 8.35 0.041 16.7 0.0518 25.1 0.00521 3.88 0.0123 7.76 0.0236 11.6 0.0109 3.75 0.0169 7.5 0.0194 11.2 0.00184 1.43 0.00543 2.85 0.0109 4.28 0.00731 2.01 0.00768 4.01 0.0078 6.02 0.00222 1.14 0.00444 2.28 0.00673 3.45-0.127 3.5-0.567 6.86-1.12 10.3-0.33-0.66-0.66-1.32-1-2h-2c0.144-0.536 0.289-1.07 0.438-1.62 1.48-6.25 1.68-12.1 1.62-18.5-0.00379-0.979-0.00757-1.96-0.0115-2.97-0.0162-4.17-0.0442-8.33-0.0715-12.5-0.0691-11.5-0.101-22.9 1.02-34.4z" fill="#FBFDFF"/>
<path transform="translate(1072,302)" d="m0 0h1c0.121 15-0.0607 30-1 45h-2c-0.0493-6.09-0.0857-12.2-0.11-18.3-0.0101-2.07-0.0237-4.14-0.041-6.22-0.0242-2.97-0.0356-5.95-0.0444-8.92-0.0103-0.93-0.0206-1.86-0.0313-2.82-1.51e-4 -0.861-3.02e-4 -1.72-4.58e-4 -2.61-0.00444-0.759-0.00888-1.52-0.0135-2.3 0.241-1.87 0.241-1.87 2.24-3.87z" fill="#FBFDFF"/>
<path transform="translate(168,254)" d="m0 0h1c0.879 4.35 1.01 8.15 0.625 12.6-0.0902 1.09-0.18 2.19-0.273 3.32-0.352 3.12-0.352 3.12-0.887 5.79-0.623 3.13-0.527 6.16-0.465 9.34-0.66-0.33-1.32-0.66-2-1-0.487-2.67-0.848-5.25-1.12-7.94-0.0849-0.768-0.17-1.54-0.257-2.33-0.586-5.6-0.797-11.1-0.618-16.7l2 1c0.66-1.32 1.32-2.64 2-4z" fill="#BFC1C0"/>
<path transform="translate(1379,101)" d="m0 0h1c0.88 7.59 1.11 15.1 1.12 22.8 0.00451 0.886 0.00902 1.77 0.0137 2.69-0.0118 5.28-0.373 10.3-1.14 15.6-0.66-0.33-1.32-0.66-2-1-0.0248-4.73-0.0429-9.46-0.0549-14.2-0.00501-1.61-0.0118-3.22-0.0205-4.82-0.0122-2.32-0.0178-4.64-0.0222-6.96-0.00516-0.713-0.0103-1.43-0.0156-2.16-4.51e-4 -4.06 0.326-7.88 1.11-11.9z" fill="#FBFDFF"/>
<path transform="translate(163,105)" d="m0 0c2.58-0.0541 5.17-0.0937 7.75-0.125 1.09-0.0251 1.09-0.0251 2.21-0.0508 3.84-0.0349 6.79 7.84e-4 10 2.18-0.99 1.65-1.98 3.3-3 5-1.65-0.66-3.3-1.32-5-2v-2c-2.95 1.37-5.44 2.99-8 5-1.65-1.32-3.3-2.64-5-4 0.33-1.32 0.66-2.64 1-4z" fill="#F5F8F7"/>
<path transform="translate(1562,390)" d="m0 0h9v10h-9v-10z" fill="#FBFDFF"/>
<path transform="translate(1203,286)" d="m0 0h2v44h-1c-0.0606-1.29-0.121-2.58-0.184-3.9-0.0844-1.68-0.169-3.36-0.254-5.04-0.0393-0.85-0.0786-1.7-0.119-2.58-0.0419-0.809-0.0838-1.62-0.127-2.45-0.0367-0.749-0.0733-1.5-0.111-2.27-0.023-1.79-0.023-1.79-1.21-2.77-0.0989-1.43-0.131-2.86-0.133-4.3-0.00129-0.877-0.00258-1.75-0.00391-2.66 0.00387-0.923 0.00773-1.85 0.0117-2.8-0.00387-0.908-0.00773-1.81-0.0117-2.75 0.00129-0.882 0.00258-1.76 0.00391-2.67 0.00113-0.805 0.00226-1.61 0.00342-2.44 0.138-2.54 0.575-4.91 1.13-7.39z" fill="#FBFDFF"/>
<path transform="translate(1418,371)" d="m0 0h3c-0.33 11.6-0.66 23.1-1 35-2-2-2-2-2.23-5.26 3.17e-4 -1.39 0.0116-2.77 0.0317-4.16 0.00283-0.73 0.00566-1.46 0.00858-2.21 0.0112-2.33 0.0363-4.67 0.0617-7 0.01-1.58 0.0192-3.16 0.0273-4.74 0.0221-3.88 0.0566-7.76 0.0977-11.6z" fill="#FBFDFF"/>
<path transform="translate(1535,241)" d="m0 0h3v35c-3-3-3-3-3.34-6.28 4.74e-4 -1.34 0.0173-2.68 0.0476-4.01 0.00424-0.706 0.00849-1.41 0.0129-2.14 0.0168-2.25 0.0544-4.5 0.0926-6.76 0.015-1.53 0.0287-3.06 0.041-4.58 0.0331-3.74 0.0848-7.49 0.146-11.2z" fill="#FBFDFF"/>
<path transform="translate(1069,203)" d="m0 0h1v74h-1v-74z" fill="#F5F8F7"/>
<path transform="translate(1330,185)" d="m0 0h2c0.82 6.4 1.13 12.6 1.06 19.1-0.00451 0.866-0.00902 1.73-0.0137 2.62-0.0116 2.1-0.0296 4.21-0.0488 6.31-0.99 0.33-1.98 0.66-3 1v-29z" fill="#FBFDFF"/>
<path transform="translate(1072,149)" d="m0 0h1v32h-2c-1.14-2.27-1.13-3.54-1.13-6.06-0.00129-0.797-0.00258-1.59-0.00391-2.41 0.00387-0.833 0.00773-1.67 0.0117-2.52-0.0058-1.25-0.0058-1.25-0.0117-2.52 0.00129-0.797 0.00258-1.59 0.00391-2.41 0.00113-0.731 0.00226-1.46 0.00342-2.21 0.129-1.85 0.129-1.85 1.13-3.85 0.226-1.7 0.409-3.41 0.562-5.12 0.0838-0.91 0.168-1.82 0.254-2.76 0.0606-0.699 0.121-1.4 0.184-2.12z" fill="#FBFDFF"/>
<path transform="translate(675,219)" d="m0 0h1v65h-1v-65z"/>
<path transform="translate(813,124)" d="m0 0h2c1.2 3.76 1.15 7.47 1.12 11.4-0.00193 0.724-0.00387 1.45-0.00586 2.19-0.0742 9.82-0.605 19.6-1.12 29.4h-1c-0.33-14.2-0.66-28.4-1-43z" fill="#FBFDFF"/>
<path transform="translate(1256,179)" d="m0 0h2c0.913 6.65 0.989 12.9 0.562 19.6-0.0522 0.913-0.104 1.83-0.158 2.77-0.128 2.22-0.263 4.45-0.404 6.67h-2v-29z" fill="#FBFDFF"/>
<path transform="translate(36,111)" d="m0 0h1c0.33 15.2 0.66 30.4 1 46-3-3-3-3-3.32-4.99 0.0366-1.14 0.0366-1.14 0.074-2.29 0.0202-0.861 0.0405-1.72 0.0614-2.61 0.0374-0.925 0.0747-1.85 0.113-2.8 0.0264-0.95 0.0529-1.9 0.0801-2.88 0.0878-3.04 0.197-6.07 0.307-9.11 0.0633-2.06 0.125-4.12 0.186-6.17 0.151-5.05 0.322-10.1 0.502-15.1z" fill="#FBFDFF"/>
<path transform="translate(1256,145)" d="m0 0c2.3 3.45 2.24 4.71 2.2 8.76-0.00645 1.12-0.0129 2.24-0.0195 3.39-0.0168 1.17-0.0335 2.33-0.0508 3.54-0.00902 1.18-0.018 2.36-0.0273 3.57-0.0236 2.91-0.0565 5.83-0.0977 8.74h-2c-0.0606-1.3-0.121-2.6-0.184-3.95-0.0845-1.73-0.169-3.45-0.254-5.18-0.0393-0.856-0.0786-1.71-0.119-2.59-0.183-3.66-0.41-7.11-1.1-10.7-0.34-2.57-0.34-2.57 1.66-5.57z" fill="#FBFDFF"/>
<path transform="translate(728,311)" d="m0 0h2c0.0495 5.05 0.0858 10.1 0.11 15.2 0.01 1.72 0.0237 3.44 0.041 5.16 0.0243 2.47 0.0356 4.94 0.0444 7.42 0.0103 0.767 0.0206 1.53 0.0313 2.32 0.00144 6.85 0.00144 6.85-2.23 9.94-0.99 0.495-0.99 0.495-2 1 0.33-4.62 0.66-9.24 1-14h1v-27z" fill="#E4E7E6"/>
<path transform="translate(1255,223)" d="m0 0c0.625 1.88 0.625 1.88 1 4-0.66 0.66-1.32 1.32-2 2-0.433 1.21-0.433 1.21-0.875 2.44-1.65 3.76-3.87 4.97-7.5 6.69-2.86 0.954-5.64 1.46-8.62 1.88v-2c0.996-0.329 0.996-0.329 2.01-0.664 6.01-2.16 9.5-3.93 13-9.34 0.696-2.19 0.696-2.19 1-4 0.66-0.33 1.32-0.66 2-1z" fill="#777879"/>
<path transform="translate(430,91)" d="m0 0h3v24c-0.66-0.33-1.32-0.66-2-1-1.45-4.63-1.11-9.51-1.06-14.3 0.00451-0.836 0.00902-1.67 0.0137-2.53 0.0117-2.05 0.0297-4.1 0.0488-6.15z" fill="#FBFDFF"/>
<path transform="translate(169,260)" d="m0 0h1c0.885 9.37 1.12 18.6 1 28h-2l-0.684-6.05c-0.229-2.02-0.229-2.02-1.32-3.95-0.0397-1.67-0.0438-3.33 0-5h2v-13z" fill="#FBFDFF"/>
<path transform="translate(968,144)" d="m0 0c0.66 0.33 1.32 0.66 2 1-0.33 7.92-0.66 15.8-1 24h-2c-0.0291-3.42-0.0468-6.83-0.0625-10.2-0.00838-0.968-0.0168-1.94-0.0254-2.93-0.00322-0.935-0.00645-1.87-0.00977-2.83-0.00524-0.859-0.0105-1.72-0.0159-2.6 0.108-2.27 0.478-4.21 1.11-6.38z" fill="#FBFDFF"/>
<path transform="translate(623,159)" d="m0 0h1v48h-1v-48z" fill="#F5F8F7"/>
<path transform="translate(541,375)" d="m0 0h1v31h-2c-0.33-2.64-0.66-5.28-1-8h2v-23z" fill="#FCFDFF"/>
<path transform="translate(862,344)" d="m0 0h1v19c-0.99 0.33-1.98 0.66-3 1-0.211-7.04-0.0797-13.2 2-20z" fill="#FCFDFF"/>
<path transform="translate(778,150)" d="m0 0h1v17c-0.33-0.99-0.66-1.98-1-3h-2v-4c-0.66-0.33-1.32-0.66-2-1h2v-4c-0.66-0.33-1.32-0.66-2-1h2c0.66-1.32 1.32-2.64 2-4z" fill="#FBFDFF"/>
<path transform="translate(96,268)" d="m0 0c6.88 0.875 6.88 0.875 8 2 0.0408 2 0.0425 4 0 6-1.32-0.33-2.64-0.66-4-1v-2c-1.98-0.66-3.96-1.32-6-2 0.66-0.99 1.32-1.98 2-3z" fill="#FBFDFF"/>
<path transform="translate(141,108)" d="m0 0c1.16 3.48 0.708 5.46 0 9-1.81 0.625-1.81 0.625-4 1-0.99-0.66-1.98-1.32-3-2 0.33-0.99 0.66-1.98 1-3h3c0.186-0.959 0.186-0.959 0.375-1.94 0.206-0.681 0.412-1.36 0.625-2.06l2-1z" fill="#E3E5E4"/>
<path transform="translate(158 106)" d="m0 0c1.13 0.0206 2.27 0.0413 3.44 0.0625-1.48 5.66-1.48 5.66-4.12 7.38-0.928 0.309-0.928 0.309-1.88 0.625-0.66-2.31-1.32-4.62-2-7 1-1 1-1 4.56-1.06z" fill="#E9EBEA"/>
<path transform="translate(305,77)" d="m0 0c0.66 0.33 1.32 0.66 2 1v3h-2c-0.33 0.99-0.66 1.98-1 3-0.33-0.99-0.66-1.98-1-3h-2c-0.268 0.639-0.536 1.28-0.812 1.94-1.19 2.06-1.19 2.06-4.19 3.06v-5c1.11-0.474 2.23-0.949 3.38-1.44 1.89-0.816 3.78-1.64 5.62-2.56z" fill="#F5F8F7"/>
<path transform="translate(37,167)" d="m0 0h3c1.29 7.43 1.29 7.43 0 11h-2c-1.98-2.92-1.99-4.12-1.62-7.75 0.206-1.07 0.413-2.15 0.625-3.25z" fill="#F9FBFC"/>
<path transform="translate(1120,147)" d="m0 0c1.27 3.87 1.11 7.73 1.06 11.8-0.00451 0.697-0.00902 1.39-0.0137 2.11-0.0117 1.71-0.0297 3.42-0.0488 5.14-0.66-0.33-1.32-0.66-2-1v-6h-1c-0.054-1.62-0.0928-3.25-0.125-4.88-0.0232-0.905-0.0464-1.81-0.0703-2.74 0.195-2.38 0.195-2.38 2.2-4.38z" fill="#FBFDFF"/>
<path transform="translate(1204,132)" d="m0 0h1v28h-1c-0.169-1.42-0.335-2.83-0.5-4.25-0.0928-0.789-0.186-1.58-0.281-2.39-0.379-4.09-0.107-8.04 0.281-12.1 0.139-1.48 0.139-1.48 0.281-2.98 0.0722-0.748 0.144-1.5 0.219-2.27-0.66-0.33-1.32-0.66-2-1 0.66-0.99 1.32-1.98 2-3z" fill="#FCFDFF"/>
<path transform="translate(1472,109)" d="m0 0h1v7h5v1h-5v8h-2c-1-5.96-1.07-10.3 1-16z" fill="#FCFDFF"/>
<path transform="translate(1120,323)" d="m0 0h1v25h-1c-0.0606-0.892-0.121-1.78-0.184-2.7-0.0838-1.17-0.168-2.34-0.254-3.55-0.0812-1.16-0.162-2.32-0.246-3.52-0.209-3.08-0.209-3.08-0.91-5.39-0.753-3.42 0.657-6.54 1.59-9.84z" fill="#FCFDFF"/>
<path transform="translate(538,173)" d="m0 0h1v36h-1v-36z" fill="#F5F8F7"/>
<path transform="translate(236,273)" d="m0 0h2c1.96 6.9 1.02 14 0 21h-1c-0.33-6.93-0.66-13.9-1-21z" fill="#FBFDFF"/>
<path transform="translate(589,392)" d="m0 0h1c0.33 4.62 0.66 9.24 1 14h-3c-0.0269-2.15-0.0463-4.29-0.0625-6.44-0.0116-1.19-0.0232-2.39-0.0352-3.62 0.0977-2.94 0.0977-2.94 1.1-3.94z" fill="#FBFDFF"/>
<path transform="translate(358,321)" d="m0 0c0.99 1.49 0.99 1.49 2 3 0.99-0.66 1.98-1.32 3-2 0.812 1.69 0.812 1.69 1 4-2.44 2.75-2.44 2.75-5 5-0.625-3.44-1-6.49-1-10z" fill="#F5F8F7"/>
<path transform="translate(727,228)" d="m0 0h1v31h-1v-31z" fill="#F5F8F7"/>
<path transform="translate(219,370)" d="m0 0h2c2.28 8.04 2.28 8.04 1 12h-2c-0.33-3.96-0.66-7.92-1-12z" fill="#FBFDFF"/>
<path transform="translate(80.3 373)" d="m0 0c0.835 0.557 0.835 0.557 1.69 1.12-1 1.5-1 1.5-3 3-2.72 0.273-5.26 0.135-8 0 0.66-0.33 1.32-0.66 2-1v-2c4.43-2.22 4.43-2.22 7.31-1.12z" fill="#F8FAFB"/>
<path transform="translate(120,333)" d="m0 0v11c-0.99-0.33-1.98-0.66-3-1v-9c2-1 2-1 3-1z" fill="#F5F8F7"/>
<path transform="translate(1370,391)" d="m0 0h2v10h-3c-0.0269-1.48-0.0463-2.96-0.0625-4.44-0.0116-0.824-0.0232-1.65-0.0352-2.5 0.0977-2.07 0.0977-2.07 1.1-3.07z" fill="#FCFDFF"/>
<path transform="translate(1365,391)" d="m0 0h2v10h-3c-0.0269-1.48-0.0463-2.96-0.0625-4.44-0.0116-0.824-0.0232-1.65-0.0352-2.5 0.0977-2.07 0.0977-2.07 1.1-3.07z" fill="#FCFDFF"/>
<path transform="translate(1580,372)" d="m0 0h1v28h-1v-28z"/>
<path transform="translate(969,339)" d="m0 0h1c0.33 5.94 0.66 11.9 1 18-0.66 0.33-1.32 0.66-2 1-0.893-6.58-0.955-12.4 0-19z" fill="#FBFDFF"/>
<path transform="translate(573,389)" d="m0 0c0.99 0.33 1.98 0.66 3 1v10h-3c-0.125-6.75-0.125-6.75 1-9-0.66-0.33-1.32-0.66-2-1 0.33-0.33 0.66-0.66 1-1z" fill="#FBFDFF"/>
<path transform="translate(216 412)" d="m0 0c1.35 0.153 1.35 0.153 2.73 0.309 0.687 0.0838 1.37 0.168 2.08 0.254-3.31 2.21-4.34 2.22-8.19 2.12-0.901-0.018-1.8-0.0361-2.73-0.0547-0.687-0.0232-1.37-0.0464-2.08-0.0703v-2c3.2-1.07 4.89-0.948 8.19-0.562z" fill="#FAFBFD"/>
<path transform="translate(1154,317)" d="m0 0h1v26h-1v-26z" fill="#F5F8F7"/>
<path transform="translate(168,141)" d="m0 0h4c0.33 0.99 0.66 1.98 1 3-2 2-2 2-4.62 2.12-0.784-0.0412-1.57-0.0825-2.38-0.125 0.66-1.65 1.32-3.3 2-5z" fill="#F5F8F7"/>
<path transform="translate(164,95)" d="m0 0c2.97 0.33 5.94 0.66 9 1-3 3-3 3-5.69 3.19-1.14-0.0928-1.14-0.0928-2.31-0.188-0.33-1.32-0.66-2.64-1-4z" fill="#FAFDFF"/>
<path transform="translate(1580,89)" d="m0 0h1v26h-1v-26z"/>
<path transform="translate(1417,172)" d="m0 0h1v20h-1v-20z" fill="#F5F8F7"/>
<path transform="translate(538,294)" d="m0 0h1v15h-1v-15z" fill="#F5F8F7"/>
<path transform="translate(727,211)" d="m0 0h1v15h-1v-15z" fill="#F5F8F7"/>
<path transform="translate(538,278)" d="m0 0h1v13h-1v-13z" fill="#F5F8F7"/>
<path transform="translate(591,223)" d="m0 0h1v13h-1v-13z"/>
<path transform="translate(727,292)" d="m0 0h1v12h-1v-12z" fill="#F5F8F7"/>
<path transform="translate(591,179)" d="m0 0h1v12h-1v-12z"/>
<path transform="translate(591,155)" d="m0 0h1v12h-1v-12z"/>
<path transform="translate(591,203)" d="m0 0h1v10h-1v-10z"/>
<path transform="translate(727,199)" d="m0 0h1v10h-1v-10z" fill="#F5F8F7"/>
<path transform="translate(727,261)" d="m0 0h1v9h-1v-9z" fill="#F5F8F7"/>
<path transform="translate(591,312)" d="m0 0h1v8h-1v-8z"/>
<path transform="translate(538,98)" d="m0 0h1v8h-1v-8z" fill="#F5F8F7"/>
<path transform="translate(1417,357)" d="m0 0h1v7h-1v-7z" fill="#F5F8F7"/>
<path transform="translate(727,190)" d="m0 0h1v7h-1v-7z" fill="#F5F8F7"/>
<path transform="translate(727,176)" d="m0 0h1v7h-1v-7z" fill="#F5F8F7"/>
<path transform="translate(538,164)" d="m0 0h1v7h-1v-7z" fill="#F5F8F7"/>
<path transform="translate(1534,92)" d="m0 0h1v7h-1v-7z" fill="#F5F8F7"/>
<path transform="translate(591,376)" d="m0 0h1v6h-1v-6z"/>
<path transform="translate(591,321)" d="m0 0h1v6h-1v-6z"/>
<path transform="translate(727,277)" d="m0 0h1v6h-1v-6z" fill="#F5F8F7"/>
<path transform="translate(948,371)" d="m0 0h1v5h-1v-5z"/>
<path transform="translate(727,285)" d="m0 0h1v5h-1v-5z" fill="#F5F8F7"/>
<path transform="translate(727,321)" d="m0 0 1 4z" fill="#F5F8F7"/>
<path transform="translate(1069,197)" d="m0 0 1 4z" fill="#F5F8F7"/>
</svg>
