<svg xmlns="http://www.w3.org/2000/svg" width="108" height="24" viewBox="0 0 108 24" fill="none">
    <path d="M107.131 10.8321V7.95077H103.893V3.47142L103.784 3.50851L100.743 4.53678L100.683 4.55691V7.95092H95.8825V6.06016C95.8825 5.17976 96.0607 4.50603 96.4118 4.05672C96.7605 3.6128 97.2592 3.38711 97.8953 3.38711C98.3525 3.38711 98.826 3.50613 99.3024 3.74085L99.4219 3.79981V0.765401L99.3657 0.742579C98.9212 0.566023 98.3167 0.477112 97.5673 0.477112C96.6228 0.477112 95.7646 0.704225 95.0162 1.15433C94.2674 1.60507 93.6783 2.24853 93.2657 3.06665C92.8545 3.88381 92.6458 4.8276 92.6458 5.87204V7.95077H90.3911V10.8321H92.6458V22.9705H95.8825V10.8321H100.683V18.5458C100.683 21.7227 102.039 23.3327 104.714 23.3327C105.153 23.3327 105.616 23.2758 106.088 23.1643C106.569 23.0499 106.896 22.9356 107.089 22.8136L107.131 22.7857V19.8778L107 19.974C106.824 20.1033 106.605 20.209 106.349 20.2876C106.091 20.3677 105.876 20.4078 105.709 20.4078C105.083 20.4078 104.619 20.2212 104.332 19.853C104.041 19.4816 103.893 18.8319 103.893 17.9231V10.8321H107.131ZM83.1629 20.4082C81.9881 20.4082 81.0619 19.9778 80.4091 19.1299C79.7524 18.2777 79.4196 17.0627 79.4196 15.519C79.4196 13.9264 79.7524 12.6799 80.4094 11.8126C81.0626 10.9511 81.98 10.5138 83.1366 10.5138C84.2589 10.5138 85.1523 10.9314 85.7923 11.7557C86.4354 12.5843 86.7618 13.8208 86.7618 15.432C86.7618 17.063 86.4549 18.3159 85.8496 19.154C85.2485 19.9857 84.3447 20.4082 83.1629 20.4082ZM83.3068 7.58894C81.0655 7.58894 79.2852 8.31465 78.0159 9.74596C76.7474 11.1774 76.1043 13.1584 76.1043 15.6343C76.1043 17.9859 76.7321 19.8775 77.9704 21.2555C79.2088 22.634 80.8941 23.3323 82.9791 23.3323C85.1517 23.3323 86.8965 22.5965 88.1653 21.1454C89.4339 19.6958 90.0766 17.7336 90.0766 15.3155C90.0766 12.9271 89.4735 11.0215 88.2835 9.65261C87.0929 8.28312 85.4182 7.58894 83.3068 7.58894ZM70.8857 7.58894C69.361 7.58894 68.0999 8.01987 67.1365 8.86952C66.1672 9.72425 65.6755 10.8452 65.6755 12.2017C65.6755 12.9068 65.7817 13.5332 65.9905 14.0644C66.2006 14.5974 66.5258 15.0667 66.9578 15.4606C67.3865 15.8512 68.0483 16.2604 68.9252 16.6768C69.6624 17.012 70.2122 17.2955 70.5614 17.519C70.9028 17.738 71.145 17.9582 71.2818 18.1726C71.4148 18.3824 71.4822 18.6696 71.4822 19.024C71.4822 20.0331 70.7983 20.5241 69.3912 20.5241C68.8692 20.5241 68.2739 20.4036 67.6217 20.1662C66.9742 19.9324 66.363 19.59 65.8096 19.1509L65.6752 19.0444V22.4879L65.7246 22.5133C66.1825 22.7469 66.76 22.9439 67.4406 23.0989C68.1198 23.254 68.737 23.333 69.2731 23.333C70.9276 23.333 72.2599 22.9 73.232 22.0453C74.2103 21.1847 74.7062 20.0372 74.7062 18.6338C74.7062 17.6214 74.4392 16.7532 73.9132 16.053C73.3906 15.3585 72.4838 14.7209 71.2189 14.1573C70.2111 13.7104 69.5656 13.3394 69.2992 13.0546C69.0425 12.7794 68.9121 12.3903 68.9121 11.8976C68.9121 11.4608 69.073 11.1109 69.4034 10.8275C69.7363 10.5427 70.1997 10.3978 70.7808 10.3978C71.3201 10.3978 71.8719 10.492 72.4206 10.6764C72.969 10.8609 73.4506 11.108 73.8526 11.4102L73.9849 11.5101V8.24365L73.9341 8.21956C73.5632 8.0438 73.0741 7.89339 72.48 7.77136C71.8887 7.65012 71.3523 7.58894 70.8857 7.58894ZM57.2375 20.4082C56.063 20.4082 55.1365 19.9778 54.4839 19.1299C53.827 18.2777 53.4948 17.063 53.4948 15.519C53.4948 13.9264 53.8274 12.6799 54.4846 11.8126C55.1372 10.9511 56.0544 10.5138 57.2116 10.5138C58.3335 10.5138 59.2269 10.9314 59.867 11.7557C60.5103 12.5843 60.8366 13.8208 60.8366 15.432C60.8366 17.063 60.5295 18.3159 59.9242 19.154C59.3231 19.9857 58.4197 20.4082 57.2375 20.4082ZM57.3818 7.58894C55.1399 7.58894 53.3595 8.31465 52.0909 9.74596C50.8224 11.1774 50.1789 13.1584 50.1789 15.6343C50.1789 17.9869 50.8071 19.8775 52.0455 21.2555C53.2838 22.634 54.9689 23.3323 57.054 23.3323C59.2263 23.3323 60.9715 22.5965 62.2403 21.1454C63.5086 19.6958 64.1516 17.7336 64.1516 15.3155C64.1516 12.9271 63.5484 11.0215 62.3581 9.65261C61.1672 8.28312 59.4928 7.58894 57.3818 7.58894ZM45.2656 10.5519V7.95077H42.0683V22.9702H45.2656V15.2872C45.2656 13.9808 45.5337 12.9075 46.0627 12.0968C46.5849 11.2958 47.2808 10.8899 48.1305 10.8899C48.4185 10.8899 48.7417 10.9424 49.0919 11.0462C49.4384 11.1494 49.6894 11.2614 49.8374 11.3793L49.9718 11.4869V7.92509L49.92 7.90053C49.6222 7.76074 49.201 7.69021 48.668 7.69021C47.8645 7.69021 47.1455 7.97549 46.5297 8.53717C45.9891 9.03086 45.5984 9.70776 45.2996 10.5519H45.2656ZM36.3426 7.58894C34.8757 7.58894 33.5674 7.9365 32.4545 8.62165C31.3394 9.30837 30.4769 10.2888 29.8902 11.5354C29.306 12.7791 29.0094 14.2318 29.0094 15.8519C29.0094 17.271 29.297 18.5733 29.8654 19.721C30.4341 20.8707 31.239 21.7701 32.2579 22.3939C33.2754 23.0169 34.4513 23.3328 35.7534 23.3328C37.2728 23.3328 38.5701 22.9971 39.6103 22.3351L39.6523 22.3085V19.0717L39.5179 19.1801C39.0468 19.5594 38.5202 19.8621 37.9537 20.0802C37.3886 20.2981 36.8734 20.4082 36.4216 20.4082C35.167 20.4082 34.1599 19.9744 33.4288 19.1192C32.6962 18.2629 32.3247 17.0605 32.3247 15.5474C32.3247 14.0248 32.7121 12.7915 33.4756 11.8814C34.2368 10.9741 35.2458 10.5138 36.4744 10.5138C37.5253 10.5138 38.5493 10.907 39.5182 11.6836L39.6523 11.7912V8.38074L39.609 8.3538C39.2444 8.12827 38.7471 7.94205 38.1298 7.80084C37.5151 7.65994 36.9138 7.58894 36.3426 7.58894ZM26.8073 7.95092H23.6101V22.9702H26.8073V7.95092ZM25.2414 1.55261C24.7152 1.55261 24.2562 1.75056 23.8791 2.14282C23.5005 2.53619 23.3084 3.03146 23.3084 3.61596C23.3084 4.19128 23.4982 4.67752 23.8732 5.06042C24.2459 5.44222 24.7063 5.63573 25.2416 5.63573C25.7767 5.63573 26.2388 5.44222 26.6159 5.06106C26.9954 4.67752 27.1879 4.19143 27.1879 3.61596C27.1879 3.05191 27.0005 2.5617 26.6315 2.15867C26.2628 1.75643 25.7949 1.55261 25.2414 1.55261ZM17.264 6.84278V22.9702H20.5269V2.01238H16.0108L10.2706 17.5792L4.69998 2.01238H0V22.97H3.06634V6.84119H3.17162L9.05402 22.9702H11.3681L17.1587 6.84278H17.264Z" fill="#D2D2D2"/>
</svg>