<svg id="Layer_1" data-name="Layer 1" xmlns="http://www.w3.org/2000/svg" viewBox="0 0 470 231"><defs><style>.cls-1{fill:#fff;}</style></defs><path class="cls-1" d="M110.37,102.78h-8.45V69.52c0-2.72.16-6.06.5-10h-.15a34.73,34.73,0,0,1-1.39,4.84L85.54,102.78H79.66L64.29,64.65a35.07,35.07,0,0,1-1.36-5.13h-.15c.19,2.06.29,5.41.29,10.07v33.19H55.19V51.39h12L80.7,85.61a50.28,50.28,0,0,1,2,5.88h.18q1.32-4,2.15-6L98.8,51.39h11.57Zm13.35-44.4a5,5,0,0,1-3.5-1.33,4.35,4.35,0,0,1-1.45-3.37,4.45,4.45,0,0,1,1.45-3.4,4.92,4.92,0,0,1,3.5-1.36,5.08,5.08,0,0,1,3.58,1.36,4.57,4.57,0,0,1,0,6.72A5,5,0,0,1,123.72,58.38Zm4.12,44.4h-8.32V66.08h8.32Zm35.29-1.69a20.49,20.49,0,0,1-10.43,2.55q-8.17,0-13.19-5.11t-5-13.24q0-9.08,5.4-14.57t14.42-5.5A21,21,0,0,1,163.16,67v7.74A13.4,13.4,0,0,0,155,71.85a11.33,11.33,0,0,0-8.63,3.57A13,13,0,0,0,143,84.75q0,5.7,3.17,9A11.28,11.28,0,0,0,154.67,97a13.28,13.28,0,0,0,8.46-3.19ZM190.82,74a6.88,6.88,0,0,0-4.34-1.18,7.42,7.42,0,0,0-6.16,3.33q-2.48,3.33-2.47,9.07v17.56h-8.32V66.08h8.32v7.56H178a12.76,12.76,0,0,1,3.75-6,8.45,8.45,0,0,1,5.64-2.16,6.93,6.93,0,0,1,3.44.68Zm19.67,29.64q-8.49,0-13.57-5.15t-5.07-13.63q0-9.26,5.29-14.44t14.24-5.2q8.61,0,13.41,5t4.8,14q0,8.79-5.18,14.07T210.49,103.64Zm.39-31.79a9.47,9.47,0,0,0-7.7,3.4q-2.84,3.41-2.83,9.39,0,5.77,2.86,9.09A9.63,9.63,0,0,0,210.88,97a9.14,9.14,0,0,0,7.55-3.26c1.75-2.17,2.63-5.27,2.63-9.28s-.88-7.16-2.63-9.35A9.11,9.11,0,0,0,210.88,71.85Zm23,29.78v-7.7a16.59,16.59,0,0,0,10.28,3.54q7.53,0,7.53-4.44a3.48,3.48,0,0,0-.65-2.13,6,6,0,0,0-1.74-1.56,13.47,13.47,0,0,0-2.58-1.22l-3.31-1.22a35.31,35.31,0,0,1-4.07-1.9,12.63,12.63,0,0,1-3-2.27,8.65,8.65,0,0,1-1.81-2.89,10.51,10.51,0,0,1-.61-3.76,8.67,8.67,0,0,1,1.26-4.68,10.82,10.82,0,0,1,3.37-3.4,16.16,16.16,0,0,1,4.8-2.08,21.76,21.76,0,0,1,5.55-.7,25.17,25.17,0,0,1,9.1,1.54V74a15.32,15.32,0,0,0-8.88-2.66,11.33,11.33,0,0,0-2.85.33,7.3,7.3,0,0,0-2.17.89,4.4,4.4,0,0,0-1.4,1.38,3.34,3.34,0,0,0-.5,1.78,3.83,3.83,0,0,0,.5,2,4.5,4.5,0,0,0,1.49,1.45,13,13,0,0,0,2.36,1.15c.92.35,2,.72,3.18,1.13a44.91,44.91,0,0,1,4.24,2,14.14,14.14,0,0,1,3.21,2.28,8.9,8.9,0,0,1,2,2.93,10,10,0,0,1,.72,4,9.06,9.06,0,0,1-1.29,4.87,10.86,10.86,0,0,1-3.44,3.44,16,16,0,0,1-5,2,26,26,0,0,1-5.94.67A24.9,24.9,0,0,1,233.92,101.63Zm48.37,2q-8.51,0-13.57-5.15t-5.07-13.63q0-9.26,5.29-14.44t14.24-5.2q8.61,0,13.4,5t4.81,14q0,8.79-5.18,14.07T282.29,103.64Zm.39-31.79a9.47,9.47,0,0,0-7.7,3.4q-2.84,3.41-2.83,9.39,0,5.77,2.86,9.09A9.63,9.63,0,0,0,282.68,97a9.11,9.11,0,0,0,7.54-3.26c1.76-2.17,2.64-5.27,2.64-9.28s-.88-7.16-2.64-9.35A9.08,9.08,0,0,0,282.68,71.85Zm44.86-16.63a7.61,7.61,0,0,0-3.84-1q-6,0-6.05,6.85v5h8.53V72.6h-8.5v30.18h-8.31V72.6H303.1V66.08h6.27V60.13a11.57,11.57,0,0,1,3.8-9.15,15.89,15.89,0,0,1,14.37-2.67ZM352,102.38a14.46,14.46,0,0,1-6.42,1.22q-10.67,0-10.67-10.25V72.6h-6.13V66.08h6.13V57.59l8.31-2.37V66.08H352V72.6h-8.78V91c0,2.17.39,3.73,1.18,4.66a4.91,4.91,0,0,0,3.94,1.4A5.75,5.75,0,0,0,352,95.79ZM73.36,132.3a7.65,7.65,0,0,0-3.84-1q-6.06,0-6,6.84v5H72v6.52H63.5v30.18H55.19V149.68H48.92v-6.52h6.27v-5.95a11.54,11.54,0,0,1,3.8-9.15,13.78,13.78,0,0,1,9.49-3.35,14,14,0,0,1,4.88.68Zm19,48.42q-8.49,0-13.56-5.14t-5.07-13.64q0-9.24,5.28-14.44t14.25-5.2q8.6,0,13.4,5.06t4.8,14q0,8.77-5.18,14.06T92.34,180.72Zm.4-31.79A9.51,9.51,0,0,0,85,152.34q-2.84,3.41-2.83,9.39,0,5.76,2.87,9.08a9.61,9.61,0,0,0,7.67,3.31,9.12,9.12,0,0,0,7.54-3.26q2.63-3.26,2.63-9.28c0-4-.88-7.15-2.63-9.35A9.09,9.09,0,0,0,92.74,148.93ZM139,151.08a6.87,6.87,0,0,0-4.33-1.18,7.44,7.44,0,0,0-6.17,3.33c-1.64,2.22-2.47,5.25-2.47,9.07v17.56H117.7v-36.7H126v7.56h.14a12.83,12.83,0,0,1,3.75-6,8.41,8.41,0,0,1,5.64-2.17,6.93,6.93,0,0,1,3.44.68Zm21.24,26.73V169A13.69,13.69,0,0,0,163,171a21.62,21.62,0,0,0,3.45,1.45,27.23,27.23,0,0,0,3.66.92,20,20,0,0,0,3.37.32q5.37,0,8-1.79a5.92,5.92,0,0,0,2.63-5.2,5.63,5.63,0,0,0-.88-3.17,9.22,9.22,0,0,0-2.45-2.46,25.8,25.8,0,0,0-3.71-2.13c-1.42-.68-3-1.39-4.57-2.13-1.74-.93-3.37-1.88-4.87-2.83a21,21,0,0,1-3.93-3.17,13.22,13.22,0,0,1-2.61-3.93,12.61,12.61,0,0,1-.95-5.12,11.81,11.81,0,0,1,1.63-6.29,13.71,13.71,0,0,1,4.3-4.41,19.62,19.62,0,0,1,6.07-2.58,28.93,28.93,0,0,1,6.95-.84q8.07,0,11.76,1.83v8.42q-4.38-3.15-11.25-3.15a21,21,0,0,0-3.79.35,11.24,11.24,0,0,0-3.36,1.19,7.2,7.2,0,0,0-2.42,2.11,5.19,5.19,0,0,0-.93,3.12,5.83,5.83,0,0,0,.71,3,7.77,7.77,0,0,0,2.1,2.3,21.71,21.71,0,0,0,3.37,2c1.32.66,2.86,1.37,4.6,2.13q2.69,1.4,5.07,2.94a23.84,23.84,0,0,1,4.2,3.41,14.9,14.9,0,0,1,2.86,4.14,12,12,0,0,1,1.06,5.17,12.87,12.87,0,0,1-1.58,6.6,12.66,12.66,0,0,1-4.24,4.37,18.93,18.93,0,0,1-6.15,2.43,34.17,34.17,0,0,1-7.35.76c-.86,0-1.91-.07-3.17-.2s-2.54-.32-3.85-.57a35.07,35.07,0,0,1-3.73-.92A11.68,11.68,0,0,1,160.22,177.81ZM217,179.46a14.27,14.27,0,0,1-6.41,1.22q-10.68,0-10.68-10.25V149.68h-6.13v-6.52h6.13v-8.49l8.31-2.37v10.86H217v6.52h-8.78V168c0,2.18.4,3.73,1.19,4.66a4.91,4.91,0,0,0,3.94,1.4,5.7,5.7,0,0,0,3.65-1.22Zm34.16.4H243.1v-5.74H243a12.14,12.14,0,0,1-11.14,6.6q-5.41,0-8.48-2.94a10.29,10.29,0,0,1-3.06-7.78q0-10.38,12-12.11l10.89-1.54q0-7.84-7.45-7.85A17.7,17.7,0,0,0,223.86,153v-7.28a25.82,25.82,0,0,1,13.4-3.44q13.91,0,13.91,13.69Zm-8-18-7.7,1.08a12.22,12.22,0,0,0-5.4,1.74q-1.81,1.26-1.81,4.46a4.88,4.88,0,0,0,1.67,3.81,6.41,6.41,0,0,0,4.46,1.49,8.24,8.24,0,0,0,6.29-2.67,9.47,9.47,0,0,0,2.49-6.72Zm35.54-10.75a6.9,6.9,0,0,0-4.34-1.18,7.41,7.41,0,0,0-6.16,3.33c-1.65,2.22-2.48,5.25-2.48,9.07v17.56h-8.31v-36.7h8.31v7.56h.15a12.74,12.74,0,0,1,3.74-6,8.45,8.45,0,0,1,5.65-2.17,7,7,0,0,1,3.44.68Zm25.85,28.38a14.35,14.35,0,0,1-6.42,1.22q-10.68,0-10.68-10.25V149.68h-6.12v-6.52h6.12v-8.49l8.32-2.37v10.86h8.78v6.52h-8.78V168c0,2.18.39,3.73,1.18,4.66a4.91,4.91,0,0,0,3.94,1.4,5.75,5.75,0,0,0,3.66-1.22Zm38,.4H334.2v-5.81h-.14a12,12,0,0,1-11.26,6.67q-13,0-13-15.63V143.16h8.31v21.07q0,9.9,7.63,9.89a7.71,7.71,0,0,0,6.08-2.72,10.41,10.41,0,0,0,2.38-7.13V143.16h8.31Zm15-5.41h-.15v22.29h-8.31V143.16h8.31v6.45h.15q4.26-7.31,12.47-7.31,7,0,10.89,4.91t3.91,13.19q0,9.18-4.41,14.69a14.58,14.58,0,0,1-12,5.52A12,12,0,0,1,357.51,174.45ZM357.29,160v4.55a9.7,9.7,0,0,0,2.57,6.81,8.42,8.42,0,0,0,6.5,2.79,8.51,8.51,0,0,0,7.26-3.6q2.63-3.6,2.63-10.05,0-5.41-2.46-8.47a8,8,0,0,0-6.64-3.07,8.94,8.94,0,0,0-7.15,3.16A11.64,11.64,0,0,0,357.29,160Zm31.53,18.74V171a16.59,16.59,0,0,0,10.28,3.54q7.53,0,7.53-4.44A3.48,3.48,0,0,0,406,168a6,6,0,0,0-1.74-1.56,13.5,13.5,0,0,0-2.58-1.22c-1-.36-2.09-.76-3.31-1.22a33.71,33.71,0,0,1-4.07-1.9,12.18,12.18,0,0,1-3-2.27,8.65,8.65,0,0,1-1.81-2.89,10.74,10.74,0,0,1-.61-3.76,8.67,8.67,0,0,1,1.26-4.68,10.82,10.82,0,0,1,3.37-3.4,16.16,16.16,0,0,1,4.8-2.08,22.21,22.21,0,0,1,5.55-.7,25.38,25.38,0,0,1,9.1,1.54v7.28a15.31,15.31,0,0,0-8.88-2.65,11.4,11.4,0,0,0-2.85.32,7.3,7.3,0,0,0-2.17.89,4.61,4.61,0,0,0-1.4,1.38,3.34,3.34,0,0,0-.5,1.78,3.8,3.8,0,0,0,.5,2,4.63,4.63,0,0,0,1.49,1.46,13.1,13.1,0,0,0,2.37,1.14c.91.35,2,.73,3.17,1.13,1.57.65,3,1.3,4.24,2a14.14,14.14,0,0,1,3.21,2.28,9,9,0,0,1,2,2.94,9.93,9.93,0,0,1,.72,4,9.06,9.06,0,0,1-1.29,4.87,10.76,10.76,0,0,1-3.44,3.44,16,16,0,0,1-5,2,25.42,25.42,0,0,1-5.93.67A25,25,0,0,1,388.82,178.71Z"/></svg>