<svg xmlns="http://www.w3.org/2000/svg" viewBox="0 0 394.26 394.26"><defs><style>.cls-1{fill:#74bde9;}.cls-2,.cls-5{fill:none;stroke:#034ea1;stroke-miterlimit:10;}.cls-2{stroke-width:2.34px;}.cls-3,.cls-4{fill:#034ea1;}.cls-4{fill-rule:evenodd;}.cls-5{stroke-width:1.17px;}</style></defs><title>MSME</title><g id="Layer_2" data-name="Layer 2"><g id="Layer_1-2" data-name="Layer 1"><path class="cls-1" d="M393.09,197.13c0,108.23-87.73,196-196,196s-196-87.73-196-196,87.74-196,196-196,196,87.73,196,196"/><path class="cls-2" d="M393.09,197.13c0,108.23-87.73,196-196,196s-196-87.73-196-196,87.74-196,196-196S393.09,88.9,393.09,197.13Z"/><path class="cls-3" d="M51,112.31c-.79,1.25-2.44,1.75-3.84,2.16a12.36,12.36,0,0,1,1,4,54.9,54.9,0,0,0,8.37-1.3l.41,2.19-11.48,1c-1.2.1-3.37.07-4.33-.53a1.67,1.67,0,0,1-.4-2.14c.47-.75,2-.92,2.26-1.31.07-.1-.06-.29-.31-.44L37.4,112.7l-3.25,5.17-4.11-.1L43.6,96.18l4.12.1-2.24,3.57,16.06,10.09-4.37,2-4.8-3.26A7.31,7.31,0,0,1,51,112.31m-11.55-2.88,6.23,3.91a9.08,9.08,0,0,0,2-2.41c.36-.57,1.45-3.81,1.2-4.36l-5.48-3.45Z"/><path class="cls-3" d="M67.63,117.69a5.32,5.32,0,0,1-7,1.14c-2.07-1.51-2.43-4.16-.77-6.44,1.44-2,4.88-3.63,13.11-4.3l.16,1.78c-8.18.6-9.46,1.28-10.38,2.54a3.75,3.75,0,0,0,.67,4.8c.75.55,1.47.71,1.84.2s-.09-3-.49-4l3.57,0a5.33,5.33,0,0,1-.69,4.38"/><path class="cls-3" d="M65.53,91.76c-.72.89-2.3,1.72-4.6,2.3-.87,4.1-.62,5.54.59,6.52,1.47,1.18,3.31,1,4.13,0,1.19-1.48.77-2.57.41-2.86s-1.53-.25-1.92-.57a1.73,1.73,0,0,1-.07-2c.64-.78,4.09-2,5-1.28a3.34,3.34,0,0,1,1.15,2.86l7.09,1.11L77,100l-7.07-1.75a8.35,8.35,0,0,1-1.47,2.7c-1.93,2.4-7.91,3.79-10.43,1.77-1.54-1.24-2-2.6-.9-7.2-3.88,1.19-5.58,1.29-7.12,0a5,5,0,0,1-.86-6.85c2.21-2.75,7.53-3.39,10.09-1.33a5.56,5.56,0,0,1,1.73,5.22,4.92,4.92,0,0,0,.78-.77,13.33,13.33,0,0,0,2.64-7.17l3.34,2.69a12.76,12.76,0,0,1-2.15,4.42m-9.76-3A1.82,1.82,0,0,0,53,88.9a3.21,3.21,0,0,0,.17,4.29,4.09,4.09,0,0,0,4,.61,5,5,0,0,0-1.48-5.08"/><path class="cls-3" d="M73.82,86.72a.92.92,0,0,1-.12,1.42c-.8.81-6.39.76-7.47-.31a1,1,0,0,1,.09-1.4l.86-.86L61.7,80.11l-3,3-4-1L70.83,65.93l4,1-3,3L85.29,83.3l-4.69,1-3.37-3.65-4.75,4.77Zm-9.39-9.36L70,82.89l4.69-4.71-5.54-5.53Z"/><path class="cls-3" d="M94.11,72.08A5.36,5.36,0,0,1,94.86,75l0,5.61-2-.63c0-1.07,0-3.37-.38-3.79s0-.36-2.8-.73l.66-4.54c3.06.46,3.18.47,3.8,1.21"/><path class="cls-3" d="M119.55,45.37a3.42,3.42,0,0,0-.87.32c-1.86,1-3,3.2-2.42,7l-3.77-.37a10.25,10.25,0,0,1-.26-2.29,3.07,3.07,0,0,0-2.9,0c-1.75.93-2.12,3.18-1.09,5.11,1.26,2.37,4.22,3.28,8.83,4.16l-.94,2.26c-7.46-1.94-10.43-4-11.69-6.4-1.48-2.78-.48-6.27,1.89-7.53,1.49-.79,3.33-.63,6.06.63a5.76,5.76,0,0,1,2.34-4.11,6.37,6.37,0,0,1,3.94-.28l-2.26-4.24L98.86,49l-3.52-2.12L120,33.75l3.51,2.13-3.67,2,8.92,16.73L124,54.11Z"/><path class="cls-3" d="M137.82,47.05c-3.36,1.34-8-1.47-9-3.93-.59-1.49-.32-2.73,1.4-4.32l0-.08c-2.68.21-4.35-.34-5.33-2.8l-1.84.73-3.26-2.5,13.09-5.23,3.26,2.5-6.8,2.72c-.39.61,0,1.47.14,1.94a3.1,3.1,0,0,0,2.44,1.56,12.6,12.6,0,0,1,2.23-1.21,13,13,0,0,1,2.69,2.19c.14.35,0,.54-.48.73-3.79,1.51-4.77,3.36-4.21,4.76.26.67,1.44,1,3.2.31s3.91-3,5.75-6.69l1.5,3.75c-1.28,2.82-2.6,4.71-4.75,5.57"/><polygon class="cls-3" points="142.35 46.71 137.53 31.12 134.61 32.08 131.5 29.38 142.81 25.66 145.91 28.36 141.08 29.95 147.01 47.97 142.35 46.71"/><path class="cls-3" d="M147.28,47.78A5.3,5.3,0,0,1,153.51,51c.59,2-.59,4.92-3.82,5.88-3.42,1-7.67-.13-12.64-2.51l.82-1.52c3.87,2.09,7.6,2.83,9.42,2.28,2.62-.78,4-3.42,3.62-4.63-.28-.93-.76-1.35-1.25-1.25s-1.59,1.75-2.36,3.29l-3.43-1.65a5.7,5.7,0,0,1,3.41-3.13"/><path class="cls-3" d="M178.68,35.65a11.1,11.1,0,0,1-3.44-.31l-2-2.53c.46,0,1.1,0,1.69-.05,1-.13,1.34-.74,1.14-2.24L175,22.61l-5.8.77,1.48,11c.13,1,.57,2,4,3.54l10.09,4.41a3.37,3.37,0,0,1,2.2,2.46,6.28,6.28,0,0,1-1.19,3.43l-3.8-2a4.33,4.33,0,0,0,.44-1.75,2.12,2.12,0,0,0-1.31-1.57C180,42.3,169.66,38,168.79,37.57c-1.41-.71-1.76-1.42-1.87-2.26L165.39,23.9l-3,.4-2.55-3.22,21.92-2.94,2.55,3.22-5.46.73,1.43,10.63c.28,2.12-.27,2.75-1.6,2.93"/><path class="cls-3" d="M193.57,36.23c-3.83.07-7.77-3.87-7.82-7.19-.05-3,2.77-5.6,6.76-5.67a7.08,7.08,0,0,1,3.34.66,22,22,0,0,1,3.29,3l-.1-5.76-15.39.25L181.49,18l23.84-.39,2.17,3.5-4.59.07.32,19-4-2.58.15-3.87c-2.2,1.67-4,2.5-5.76,2.53m5.65-6.61v-.51a9.19,9.19,0,0,0-6-2.21,4,4,0,0,0-3.84,4.18,2.08,2.08,0,0,0,2.14,2.24c1.77,0,5.6-2.2,7.68-3.7"/><rect class="cls-3" x="203.47" y="10.55" width="3.57" height="3.63" transform="translate(44.83 141) rotate(-42.17)"/><path class="cls-3" d="M230.25,37.74c-.12.57-.6.81-1.26.68-1.11-.24-4.12-5-3.81-6.43a1,1,0,0,1,1.22-.69l1.19.25L229.18,24l-4.12-.86-1.34-3.89L246,23.89l1.33,3.89-4.11-.86-3.89,18.57L236,42.08l1.22-4.82-6.58-1.38Zm2.71-13-1.6,7.65,6.51,1.37,1.6-7.66Z"/><path class="cls-3" d="M251.27,45.14c-3.69-1.16-5.79-5.7-5-8.15.51-1.6,1.85-2.64,4.75-2.47l0-.08c-2.11-1.28-3.41-3.86-2.8-5.82.7-2.21,3.1-3.53,5.9-2.64,2,.62,3.94,2.78,3.14,5.31-.57,1.8-2.76,2.61-5.53,1.74-.09.28.12.61.55.92a6.85,6.85,0,0,0,1.62.73c.72.23,1.47.64,1.76.73l.83,3.92c-.47-.19-1.2-.51-1.84-.71-4.34-1.36-6-.29-6.24.64-.24.76.21,1.69,2.78,2.5,2.08.66,6-.1,9.15-1.75L259,44.3a11.7,11.7,0,0,1-7.71.84m1.3-13.08a2.21,2.21,0,0,0,2.9-1.25,1.93,1.93,0,0,0-1.37-2.37,2.37,2.37,0,0,0-2.82,2.95,3.47,3.47,0,0,0,1.29.67"/><path class="cls-3" d="M264,49.27c-3.37-1.44-5.08-6.29-3.92-11.66a23,23,0,0,0,4.79.37,1.77,1.77,0,0,0,1.3-.68,5.12,5.12,0,0,0,.18-2.67L260.24,32,259.71,28l21.64,9.29.53,4.08L278,39.66l-7.49,17.43-2.62-4,1.72-3.48a11.07,11.07,0,0,1-5.67-.33m4.55-13.69a25.6,25.6,0,0,1-.41,5.77c-.32.73-1.18.91-3.92.47-1.19-.2-1.88,0-2.23.83-.45,1-.07,2.07,1.79,2.87,1.43.61,5.48.57,7.62-.16l3.11-7.23Z"/><path class="cls-3" d="M281.59,56.7a.94.94,0,0,1-1.41.25c-1-.57-2.35-6-1.59-7.3a1,1,0,0,1,1.38-.27l1,.61,3.9-6.68-3.64-2.12,0-4.11,19.69,11.48,0,4.11-3.64-2.12-9.55,16.39-2.12-4.3,2.68-4.18-5.81-3.39Zm6.67-11.44L284.32,52l5.74,3.35L294,48.6Z"/><path class="cls-3" d="M315.54,59.13l15.57,14.19-.82,4-5.2-4.73c-.11,2-.57,4.25-1.14,4.87s-2.19.91-3.73.41c1,3.5.82,5-.59,6.52-2.07,2.27-5.57,1.92-7.81-.12-2.73-2.49-3.52-6-2-12.85l1.8.21c-1.19,5.24-.65,7.32,1.28,9.08a3.66,3.66,0,0,0,5.07.12,3.89,3.89,0,0,0,.21-3.79A12.38,12.38,0,0,1,315,75.26a2,2,0,0,1-.69-1.37,7.35,7.35,0,0,1,.54-3.15c.36-.41.67-.36,1.13.06l2.33,2.13c1.78,1.11,3.85,1.52,4.56.74a4.94,4.94,0,0,0,.35-2.75l-8.52-7.77Z"/><path class="cls-3" d="M329.41,101.43l.31-.22a15.63,15.63,0,0,1-6.67-3.59c-2.35-2.75-2.07-8.13-.13-9.8a2.81,2.81,0,0,1,2.26-.66,7.88,7.88,0,0,1,2.26-5.58c1.47-1.25,3-.93,4.58,1l3.14,3.67,1.57-1.34-6.8-8L331.25,73,348.41,93.1,347.09,97l-2.73-3.19-14.42,12.32Zm4.92-11-3.47-4.07c-1.32-1.53-2.37-1.79-3.2-1.08a2.11,2.11,0,0,0-.59,2.22,14.77,14.77,0,0,1,5.05,4.1,5.14,5.14,0,0,1-1.5,3.1c-.32.27-1.23.17-2.6-1.43a15.13,15.13,0,0,1-1.42-2.11,3.08,3.08,0,0,0-3.11-.27c-.67.57-.55,1.69.85,3.32,1.25,1.47,4.81,3.24,8.55,4.3l8.95-7.65-2.92-3.42-3.36,2.87c-.51.44-1,.44-1.23.12"/><path class="cls-3" d="M339.89,110.71a.94.94,0,0,1-1.38-.41c-.62-1,.59-6.41,1.86-7.24a1,1,0,0,1,1.35.38l.67,1,6.48-4.23-2.3-3.52L348.38,93l12.46,19.09L359,115.8l-2.3-3.52-15.88,10.37,0-4.8,4.27-2.54-3.68-5.63ZM351,103.47l-6.55,4.28,3.63,5.56,6.56-4.27Z"/><polygon class="cls-3" points="48.72 230.97 50.19 237.84 34.72 244.57 34.73 244.64 51.61 244.48 53.07 251.31 30.17 256.22 29.26 251.98 47.55 248.07 47.53 248 28.37 247.84 27.6 244.25 45.02 236.26 45.01 236.2 26.72 240.11 25.81 235.88 48.72 230.97"/><path class="cls-3" d="M48.6,255.36l1.39,4.3-16.78,5.43-1.39-4.3Zm5.74-1.86,1.39,4.3L52.05,259l-1.39-4.31Z"/><path class="cls-3" d="M48.15,272.67c1.58-.64,3.16-1.64,2.52-3.22-.84-2.06-2.8-1.66-6.57-.13-4,1.64-5.56,2.69-4.8,4.57.57,1.4,2,1.55,4.66.48l1.63,4c-4.29,1.74-7.41.93-9.22-3.51-1.7-4.2-.5-7.09,6.06-9.75s9.72-.73,11.29,3.13-.08,6.86-3.94,8.43Z"/><path class="cls-3" d="M56.63,276.11,58.58,280,56.47,281l0,.06c1.94,0,3.51.69,4.35,2.36a6.41,6.41,0,0,1,.32.76l-3.87,1.95c-.18-.42-.37-.87-.57-1.29a3.07,3.07,0,0,0-4.35-1.55l-9.46,4.78-2-4Z"/><path class="cls-3" d="M65.15,290.75c2.94,4.58,1,7.56-4.25,10.78s-8.83,3.37-11.55-1c-2.94-4.59-1-7.57,4.26-10.79s8.82-3.37,11.54,1.05M52,298.87c1,1.56,2.81,1.12,6.55-1.19s5-3.75,4-5.32c-1.17-1.89-3.48-.7-6.55,1.19s-5.17,3.42-4,5.32"/><path class="cls-3" d="M62.3,309.69l-3.46,2.5c-2.82,2-5.29,2.81-7.61.16L53.09,311a2.4,2.4,0,0,0,3.1-.14l.42-.31-1-1.38,4.15-3Z"/><path class="cls-3" d="M73.3,319.76l-.5.47c-1.62,1.49-2.23,2.9-.54,4.74a2.69,2.69,0,0,0,4,.11c1.57-1.44,1.41-2.77.1-5.8-1.79-4.06-1.82-6.66,1-9.31,3.34-3.09,7-2.62,10,.66,2.85,3.08,3.59,6.55.29,9.6l-.48.44-3.07-3.33c1.61-1.49,2-2.91.82-4.23a2.42,2.42,0,0,0-3.83-.13c-1.06,1-1.42,1.89-.69,3.94l1.31,3.74c1.27,3.65.57,5.55-1.53,7.48-3.64,3.36-7.32,2.65-10.79-1.11-3.63-3.92-3.22-7.16,0-10.09l.7-.65Z"/><path class="cls-3" d="M89.4,322.11l3.33,2.77-1.16,1.38.05,0a5,5,0,0,1,4.88,1.12,3.88,3.88,0,0,1,1.32,4.77l.05,0a4.4,4.4,0,0,1,5.23.69c2.29,1.91,2.18,4.25,0,6.87l-8.2,9.84-3.48-2.89,7.89-9.47c1-1.14,1.09-2.08.11-2.9s-2.44-.76-3.74.81l-7.43,8.91-3.48-2.89,7.89-9.47c.95-1.14,1.09-2.08.11-2.9s-2.44-.76-3.74.81l-7.43,8.91-3.48-2.89Z"/><path class="cls-3" d="M105.5,341.91l.23-.36c2.19-3.43,5.28-3.09,8.16-1.26,4.53,2.89,4.19,5.32,2.48,8l-5,7.83A7.19,7.19,0,0,0,110,359.3L106.37,357a7.26,7.26,0,0,1,.52-1.85l-.06,0c-1.87,1-3.2.68-5-.48-2.66-1.7-2.15-4.56-.88-6.55,1.78-2.8,3.63-3.21,6.72-2.25l2.53.79c1.33.42,2,.22,2.63-.77a1.88,1.88,0,0,0-.61-3,2,2,0,0,0-3,.81l-.27.42Zm5.14,7.32a5.64,5.64,0,0,1-2.11-.29c-1.76-.66-2.84-.3-3.69,1-.72,1.13-.91,2.34.12,3a2.67,2.67,0,0,0,3.81-.8Z"/><rect class="cls-3" x="109.26" y="349.59" width="23.41" height="4.52" transform="translate(-246.25 291.95) rotate(-61.76)"/><rect class="cls-3" x="116.34" y="353.16" width="23.42" height="4.53" transform="translate(-247.95 318.71) rotate(-64.61)"/><path class="cls-3" d="M151.22,368.52a9.67,9.67,0,0,0,1.85-3.13l3.88,1.23a12.21,12.21,0,0,1-4.38,5.88l1.64,5.06L149.42,376l-.7-2.11a7.51,7.51,0,0,1-6.07.45c-5.66-1.79-5.6-6.11-4.81-8.61s3.22-4.18,6.54-5l-.41-1.41c-.67-2.24-.63-3.23-.23-4.51.93-2.91,3.83-3.95,7.18-2.89,3.82,1.21,4.92,3.83,4.09,6.42-.7,2.22-2.49,3.55-5.7,4.56Zm-5.58-4.44c-2.1.78-3,1.68-3.48,3.06a3.12,3.12,0,0,0,2.2,3.93,3.7,3.7,0,0,0,3.35-.49Zm2.19-5.4.29.92,1-.43a3.34,3.34,0,0,0,2.18-2,1.87,1.87,0,0,0-1.37-2.5,1.84,1.84,0,0,0-2.48,1.21,4.88,4.88,0,0,0,.35,2.8"/><polygon class="cls-3" points="168.84 356.93 175.81 357.76 177.17 374.57 177.23 374.58 182.55 358.57 189.48 359.4 186.7 382.64 182.4 382.13 184.62 363.57 184.56 363.56 178.2 381.63 174.56 381.19 172.64 362.14 172.58 362.13 170.36 380.69 166.06 380.18 168.84 356.93"/><path class="cls-3" d="M195.59,374.55l0,1.41c0,2.06.63,4.08,2.3,4.06,1.51,0,2.11-1.19,2.34-3.35l4.06-.07c-.1,4.1-2,6.43-6.29,6.5-6.55.1-6.9-4.94-7-9.33-.07-4.72.77-9.13,6.87-9.23,5.28-.08,6.52,3.44,6.6,8.85l0,1Zm4.58-2.77c-.14-2.68-.49-4.19-2.36-4.15s-2.3,1.9-2.27,3.54v.69Z"/><path class="cls-3" d="M217,379.65h-.06a4.3,4.3,0,0,1-3.75,2.72c-3.69.37-5.66-2.16-6.32-8.69s.76-9.41,4.45-9.79a4.25,4.25,0,0,1,4,1.71h.06l-.75-7.37,4.5-.46,2.37,23.31-4.31.43Zm-2.69-.88c2-.2,2.18-2.2,1.79-6s-1-5.74-3-5.53-2.15,2.19-1.76,6,1,5.74,2.94,5.54"/><path class="cls-3" d="M221.48,357l4.45-.8.69,3.81-4.46.8Zm1.07,5.94,4.45-.8,3.11,17.37-4.45.79Z"/><path class="cls-3" d="M242.55,374.49l-.06,0a4.86,4.86,0,0,1-3.72,3.57c-2.73.71-4.74-.36-5.61-3.72l-3.3-12.67,4.39-1.14,3.06,11.78c.44,1.71,1.19,2.23,2.49,1.89,1.49-.38,2.08-1.52,1.58-3.43l-2.94-11.33,4.38-1.14,4.44,17.08-4.19,1.09Z"/><path class="cls-3" d="M245.34,357.79l4-1.63.68,1.67.06,0a5,5,0,0,1,3.28-3.77,3.86,3.86,0,0,1,4.83,1.08l.06,0a4.4,4.4,0,0,1,3.07-4.29c2.77-1.12,4.78.08,6.06,3.24l4.81,11.88-4.19,1.7-4.63-11.42c-.55-1.37-1.32-1.95-2.5-1.47-1.34.55-1.82,1.8-1.06,3.69l4.36,10.75-4.19,1.7-4.63-11.42c-.56-1.37-1.32-1.94-2.5-1.47-1.34.55-1.82,1.81-1.06,3.69l4.36,10.75L252,374.14Z"/><polygon class="cls-3" points="282.6 332.59 284.67 335.86 277.59 340.33 280.54 344.99 287.19 340.79 289.26 344.06 282.6 348.26 285.97 353.59 293.32 348.95 295.39 352.23 284.04 359.39 271.53 339.58 282.6 332.59"/><path class="cls-3" d="M287.47,336.21l3.41-2.66,1.28,1.62,0,0a4.85,4.85,0,0,1,2-4.76c2.22-1.73,4.49-1.55,6.63,1.19l8.07,10.3-3.57,2.79-7.5-9.58c-1.09-1.4-2-1.57-3-.74s-1.3,2.22-.08,3.77l7.21,9.22-3.56,2.79Z"/><path class="cls-3" d="M297.27,321.75l3.32-3.07,3.43,3.71,1.93-1.78,2.09,2.27-1.93,1.78,6.47,7c.94,1,1.53,1.22,2.49.34.27-.25.51-.52.71-.74l2.13,2.31a27,27,0,0,1-2,2.15c-2.61,2.4-3.82,2-6.25-.58l-6.85-7.42-1.68,1.56L299,327l1.69-1.56Z"/><path class="cls-3" d="M316.49,323.38l1,1c1.51,1.4,3.38,2.37,4.52,1.15s.6-2.35-.8-4l2.76-3c2.9,2.9,3.24,5.91.34,9-4.46,4.81-8.34,1.57-11.56-1.42-3.46-3.21-6.06-6.87-1.91-11.34,3.58-3.87,7-2.33,10.95,1.35l.75.69Zm1.17-5.22c-2-1.76-3.36-2.55-4.63-1.17s-.22,3,1,4.09l.51.47Z"/><path class="cls-3" d="M316.86,308.71l2.68-3.4,1.85,1.46.05,0c-.78-1.78-.86-3.47.29-4.94a5.3,5.3,0,0,1,.56-.6l3.4,2.67c-.31.34-.64.71-.92,1.07a3.05,3.05,0,0,0,.43,4.59l8.33,6.55-2.8,3.56Z"/><path class="cls-3" d="M323.44,300.34l2.38-3.61,1.56,1,0-.06a4.28,4.28,0,0,1,.25-4.62c2-3.09,5.24-3,10.72.57s6.82,6.52,4.79,9.62a4.23,4.23,0,0,1-3.84,2l0,.06,6.19,4.06L343,313.19Zm16,2.24c1.08-1.64-.35-3.05-3.56-5.15s-5.07-2.86-6.15-1.21.33,3.07,3.54,5.18,5.07,2.85,6.17,1.18"/><path class="cls-3" d="M332,286.82,334.1,283l2.08,1.12,0-.06c-1.07-1.62-1.44-3.27-.55-4.92a7.28,7.28,0,0,1,.44-.69l3.81,2.06c-.24.39-.51.8-.72,1.21a3,3,0,0,0,1.21,4.45l9.32,5-2.15,4Z"/><path class="cls-3" d="M331.62,274.64l1.91-4.1,3.51,1.63-1.91,4.1Zm5.47,2.55,1.91-4.1,16,7.44-1.91,4.11Z"/><path class="cls-3" d="M352.52,271.57l.55.21a2.25,2.25,0,0,0,3.23-1.29,2,2,0,0,0-1.14-2.89,2.07,2.07,0,0,0-2.45.82L350.5,271c-1.71,2-3.61,2.66-5.94,1.77-2.73-1.05-4.31-3.62-2.65-8,1.47-3.83,3.87-5,6.85-3.84l.67.26L348,265c-1.66-.63-2.67-.45-3.2.92a1.92,1.92,0,0,0,1,2.67c.8.31,1.63.14,2.63-1.1l1.83-2.21c1.91-2.33,3.63-2.79,6.11-1.85,3.46,1.33,4.2,4.56,2.84,8.11-1.82,4.75-4.4,5.27-7.56,4.06l-.58-.22Z"/><path class="cls-3" d="M355.4,256l1.36.38c2,.55,4.1.56,4.55-1s-.54-2.37-2.56-3.2l1.09-3.92c3.91,1.26,5.59,3.77,4.46,7.88-1.76,6.32-6.69,5.22-10.93,4-4.55-1.26-8.54-3.32-6.91-9.2,1.41-5.09,5.14-5.28,10.35-3.84l1,.27Zm-1.35-5.17c-2.62-.63-4.16-.71-4.67,1.09s1.19,2.74,2.76,3.18l.67.18Z"/><path class="cls-3" d="M361.31,241.63l.58.1a2.26,2.26,0,0,0,2.93-1.87,2,2,0,0,0-1.66-2.63,2.09,2.09,0,0,0-2.26,1.26l-1.69,2.93c-1.31,2.3-3,3.29-5.5,2.85-2.87-.51-4.91-2.74-4.09-7.32.72-4,2.86-5.62,6-5.06l.71.13-.72,4c-1.74-.31-2.7,0-3,1.5a1.92,1.92,0,0,0,1.49,2.43c.84.15,1.63-.17,2.38-1.57l1.38-2.52c1.44-2.64,3.05-3.42,5.66-3,3.65.66,5,3.69,4.31,7.43-.9,5-3.34,6-6.67,5.41l-.61-.11Z"/><path class="cls-4" d="M162.56,84.23h0c3.06-.55,5.11-3.19,8.55-2.64,1.46,2.41,5.44,3.22,8.17,3.91.84-2.22,2.95-2.59,2.53-6.64-1.2-2.76.94-4.13,6.15-4.6,4.6-1.45,4.67-.39,6.57-.24s3.86-1.26,5.13-.22l3.53-.15c6.83-.34,6.49,2.6,8.06,5.07,1.1,1.73.14,4.12,1.47,5.64,1.53.78,2.22,1.72,2.07,2.83a6.45,6.45,0,0,1,4.9-.34c.73-5.15,10.58-6.78,13.81,2.57C238,90,239.86,91.5,240,95c8.91,9.93-2.57,10.29-3.92,15.31-5.77,7.28-5.8-3-7.37.26,6.6,9.85,3.21,21.37-5.39,33.83a53.39,53.39,0,0,1-.52,12.62l-.78,3.57c1.61,2.87,1.95,8.68,4.83,8.61,1.66-.92,3.16.12,4.48,3.12,1.28.38,1.71,1.73,1.29,4.07a56.77,56.77,0,0,1,4.75,7.56l-.19,2.62c2.22,1.62,2.09,4.51-.41,5.37-.38,6.79-4,10.48-9.73,12a5.67,5.67,0,0,1-5.86,5.73H174.42c-4.76,0-6.76-2.44-6.08-5.86q-10.5-.24-9.82-9.77-3.95-3.3-.79-6.64a12.24,12.24,0,0,1,1-5.92,1.92,1.92,0,0,1,1.17-2.63q3.88-2.45,2.19-4.9c2.51-1.69,2.48-5.7,4.48-6.17,7,2.28,3.64-8.92,5.46-13.38-2.12-3.54-2.73-7.38-1.81-12.23-10.79-11.59-11-23-5.28-32.39-5.1,8.44-7.76-3.89-12.5-6.46q-3.8-4,2-8.06c-1.24-4.94,3.85-5,5.77-7.46a7.5,7.5,0,0,1,2.33-3.58M176.12,206h0a1.07,1.07,0,1,1-.82,1,1,1,0,0,1,.82-1m-1.21-30.75h0a1,1,0,0,1,.82,1,1,1,0,0,1-.83,1,1.07,1.07,0,0,1,0-2.08M178.73,206h0a1.07,1.07,0,1,1-.82,1,.95.95,0,0,1,.82-1m-1.22-30.76h0a1.07,1.07,0,1,1-.82,1,.95.95,0,0,1,.82-1m4.08,30.7h0a1.07,1.07,0,1,1-.83,1,.95.95,0,0,1,.83-1m-1.22-30.76h0a1.07,1.07,0,1,1-.83,1,.95.95,0,0,1,.83-1m4,30.7h0a1,1,0,0,1,.83,1.05,1,1,0,0,1-.83,1,1.08,1.08,0,0,1,0-2.09m-1.21-30.75h0a1.07,1.07,0,1,1-.83,1,1,1,0,0,1,.83-1M186.91,206h0a1.07,1.07,0,1,1-.83,1.05,1,1,0,0,1,.83-1.05m-1.22-30.75h0a1.07,1.07,0,1,1-.83,1,1,1,0,0,1,.83-1M189.6,206h0a.94.94,0,0,1,.82,1,.84.84,0,1,1-.82-1m-1.22-30.75h0a1.07,1.07,0,1,1-.82,1,.95.95,0,0,1,.82-1M192.15,206h0a1.07,1.07,0,0,1,0,2.08,1.07,1.07,0,0,1,0-2.08m-1.51-31.19h0a1.08,1.08,0,1,1-.82,1,1,1,0,0,1,.82-1m4.21,31.2h0a1,1,0,0,1,.82,1,.85.85,0,1,1-1.65,0,1,1,0,0,1,.83-1m13.31-29.89h0a1,1,0,0,1,.82,1.05.85.85,0,1,1-1.65,0,1,1,0,0,1,.83-1.05m-10.4,30h0a1.07,1.07,0,0,1,0,2.09,1,1,0,0,1-.81-1,1,1,0,0,1,.82-1m13.31-29.89h0a1.07,1.07,0,1,1-.83,1,1,1,0,0,1,.83-1m-10.54,29.78h0a1.07,1.07,0,1,1-.83,1,.95.95,0,0,1,.83-1m13.31-29.89h0a.94.94,0,0,1,.82,1,.85.85,0,1,1-1.65,0,.94.94,0,0,1,.83-1M203.29,206h0a1.08,1.08,0,1,1-.82,1.05,1,1,0,0,1,.82-1.05m13.32-29.88h0a1.06,1.06,0,1,1-.83,1,.95.95,0,0,1,.83-1m-10.69,29.84h0a1.07,1.07,0,1,1-.83,1,1,1,0,0,1,.83-1M219.23,176h0a1.07,1.07,0,1,1-.83,1,.95.95,0,0,1,.83-1m-10.55,30h0a1.07,1.07,0,1,1-.82,1,1,1,0,0,1,.82-1M222,176.11h0a1.07,1.07,0,1,1-.83,1,.95.95,0,0,1,.83-1M211.38,206h0a1.07,1.07,0,1,1-.83,1,1,1,0,0,1,.83-1m13.31-29.9h0a1.07,1.07,0,1,1-.83,1,1,1,0,0,1,.83-1M213.93,205.9h0a1.07,1.07,0,0,1,0,2.08.94.94,0,0,1-.82-1,1,1,0,0,1,.82-1M227.24,176h0a1,1,0,0,1,.83,1,1,1,0,0,1-.83,1,.94.94,0,0,1-.82-1,1,1,0,0,1,.82-1m-10.75,29.91h0a1.07,1.07,0,1,1-.83,1.05,1,1,0,0,1,.83-1.05m2.77,0h0a1,1,0,0,1,.82,1,1,1,0,0,1-.83,1.05,1.07,1.07,0,0,1,0-2.09M187.87,81.07h0c5.24-2.39,10.49-3,15.73-1.22,1.3,1.58,4.23,1.34,3.9,4.74,1.42,2.3,2,4.27.75,5.58-2.64,1.47-2.52-1.2-3.78-1.8,8.35-6.7-7.38-10.48-4.75-1.08,0,3.61-5.31,2.14-3.81,0,1.28-8.83-9.44-7.36-8.42-.32.18,1.25,5.07.23,3.07,2.36a3.47,3.47,0,0,0-1.74,3.14l-.13,2q-1.71,3.85,2.12,4.31c1,1.49.31,2.49-1.42,1.54l-2.2-2.28-.14-4.76.81-3q-2.82-.9-2.12-3.24a31.87,31.87,0,0,0,2.13-6m2.38,1.81h0c2.76-1.31,3.6-.1,3.57,2.08-1.29-1.65-1.48-2-3.57-2.08m10,8.66h0c2.87,2,4.05.72,4.43-1.76-1.77,1.66-2.05,2-4.43,1.76m-9.76,3.09h0c2.42,2.94,4.06,2,5.25-.54-2.4,1.23-2.8,1.49-5.25.54m7.55-.4h0c4.29,3.72,7.21,2.5,9.31-.68-4.25,1.56-5,1.88-9.31.68m-6.59-9.88h0c1.21,0,2.2.69,2.2,1.52s-1,1.52-2.21,1.52-2.2-.68-2.2-1.52,1-1.52,2.21-1.52m12.77-1.46h0c-.71.61-2.3.86-2.14,1.83l-.18.94c4-3.46,5.53,2.21-.25,2l-1.21-1.75c.26-3.45,2-3.5,3.78-3m-11.14,6h0a.75.75,0,1,1-.57.73.66.66,0,0,1,.57-.73m8.81.24h0a.68.68,0,0,1,.69.67.7.7,0,0,1-.7.67.67.67,0,1,1,0-1.34m-10.6,1.29h0c.23-.12.69.24,1,.82s.43,1.15.21,1.27-.68-.24-1-.82-.43-1.14-.21-1.27m-1.2,1.72h0c.18-.17.73.07,1.21.55s.72,1,.53,1.18-.72-.08-1.2-.55-.73-1-.54-1.18m7.45-.7h0c1,0,1.89.5,1.89,1.1s-1.56.12-2.22,1-1.44-.73-1.44-1.34.73-.73,1.77-.73m-.13,5.24h0c1,0,1.76.54,1.76,1.22s-.8,1.21-1.77,1.21-1.76-.55-1.76-1.21.8-1.22,1.77-1.22m-5,1.7H194c1.26,4.1,7.09,4,7.56.24.71-.4,2.3-1,2.13,1-1.15-1.7-1.07,3.24-1.39,3.89-2.47.86-4.66,1.14-5.78-.6-4.12,1.42-5.41-.41-4.15-4.51m15.51-17.89h0c.25-2.52,1.13-1.87,2.26-.61a2.74,2.74,0,0,1-.31,3l.42,2c1.47.57,2.09,1.78,1.88,3.65-1.13,2.71,2,5.29-.38,8.85l-1.38-.72c-.4.85,1.58,4.5-1.2,2.57-.71-1.31-.92-2.36-.25-3.54-.08-1.22-.17-2.44-.25-3.66q3.54-2.74-.47-6.94c-.11-1.54.16-3.08-.32-4.62m-16.11-5h0c.49,0,.89.71.89,1.58s-.4,1.58-.89,1.58-.88-.71-.88-1.58.4-1.58.88-1.58m2.46-.42h0c.48,0,.87.71.87,1.58s-.39,1.58-.88,1.58-.88-.7-.88-1.58.4-1.58.89-1.58m2.7.18h0c.48,0,.88.72.87,1.59s-.39,1.58-.88,1.58-.88-.71-.88-1.58.4-1.59.89-1.59m2.44-.17h0c.49,0,.89.71.89,1.58s-.41,1.58-.89,1.58-.88-.71-.88-1.58.4-1.58.88-1.58m2.8-.32h0c.42,0,.66.83.53,1.84s-.56,1.83-1,1.83-.66-.82-.54-1.83.56-1.84,1-1.84m4.93,20.08h0l.63,1.46c-.24,2.15-2,2.09-2.4,3.29-1.31,1.86-1.34.57-.88-1.1q1.83-.6,2.65-3.65M187.37,76.68h0c1.43-1.49,2.6.29,3,1.71L187.46,78c-1.59-.1-2.8,0-2.12,1.89,4.69.52.45,1.66-.26,2.68l-.37,3.77c.37,3.41-1.27,6.7-3.39-.72,1.09-3.33,2.43-2,2.14-.13,2-.28.45-3.47.68-5.21-1.44-2.65-.36-3.83,3.23-3.56m16.1.37h0c3.41-3.2,6.8-2.19,4.16.12l-1.26,2.2c.87,1.25.87,2.14.37,1.58a25.58,25.58,0,0,0-3.05-1.82c3.17-1.79,3.83-4.19-.05-1.61Zm-38.64,9h0c5.38-3.9,8.1-2.89,7.42,4.26l-1.06,3.27c1.44,1.83,1.24,3-1,2.94q2.88,2.31.24,4.13l-3.05-2.3c1-1.21,3.06-1.69-.69-2.91,6.11-1.88.7-10.18.13-7.39q3.45,3.93-.14,5.93c-.32.18,1.92-4.36-1.11-4.07-3.77.37-3.53-3.22-.78-3.86m-9.2,9.85h0q-.81-4.06,3.41-4.74a2.29,2.29,0,0,1,3.2-.94c1.55,1.19,5,2.16.57,3.25l-1,1q5.49.9,3.94,4.73c.23,5.9-.36,8.88-1.79,9-1.82,2.27-3.14,2.74-4,1.44l3.9-3.73-.35-2.39c-1.22-1.28-2.82-3.3-.27-3.12.72-1.07,2.07-3.71-.48-1.36-.75-.43-1.25-2.3-2.63-.9-1.07.41-1.89-.15-2.07-1.46,2.26-1.37,2.6-3.4.62-4.12-2.48.23-3.12,1.42-1.91,3.59.54,1.21-1.43,2.67-2.14,4-1.39,1.64-2.79,1-1.91-1.65Zm.87,4.39h0c.84.65,3.58-2,2.14.12q-1,2.85-4,1.34Zm2.38,6h0c.7,0,1.26.33,1.26.73s-.56.73-1.26.73-1.25-.32-1.25-.73.57-.73,1.25-.73M221.71,87h0c1.39-3.62,7.39-3.86,6.66.35,3.7-.11,3.6,2.44.12,2.56-2,.23-2,2.18-2.94,3.26-3.17-.07-2.7,2.05-3.1,3.44-1.75.64-2.87-2.48-.33-4.27,1.46-1,.79-3.12-.9-.85a7.82,7.82,0,0,1,.49-4.49m7.79,4.5h0q2.77-1.53,4.53-.61l1.86.74c4.45,1.45-1.79,2.06-1,4.73-2.14-.12-2.51-2.55-4.15-1.46-1.67-.4-3-1.29-1.25-3.4m-.51,6h0c.54-1.66,2.1-1.87,4.65-.61.85,1.29,3.58,1.37,2.54,3.89l3.52.73c1,.82.53,1.64-.52,1.37l-2.78-.52c-1.71-5-6.25-.4-7.54-2.31Zm8.55-2.69h0c-.42-.24-1.15.2-1.63,1s-.54,1.61-.12,1.85,1.15-.2,1.63-1,.54-1.61.12-1.85m-.25,3.66h0c1.34.16,1.43-3.69,2.9-1-.09,1,4.1,4.18-.26,3.16Zm.37,5.11h0a.93.93,0,1,1-.76.92.86.86,0,0,1,.76-.92m-23.51-13.5h0a7.36,7.36,0,0,1,4.78-2.32c3,1.1-1.09,2.07-1.76,2.92-.76-1.54-1.89.08-1.77,1.22-1,0-2-.36-1.25-1.82m1.26,4.26h0a7.34,7.34,0,0,0,4.7-2.47c.3-1.12-.23-1.77-.59-1.33a5.41,5.41,0,0,1-3.27,1.3c.07.45-1,1.35-1.66,1-.6.83-.82,1.28.82,1.55m9.68.48h0c2-1.95,2.52-1.62,1.51,1-.93.57-1.59,1-1.26,2.08-.55,1.53-.59,2-1.64.24a2.85,2.85,0,0,1,1.39-3.29m-8.94.24h0a5.16,5.16,0,0,0,3.66-1,4.28,4.28,0,0,1-.64,2.92c-1.14-.89-2.29.65-3.45,1l-.95-.12a5.39,5.39,0,0,0,1.38-2.81M216,99.45h0c2.74-3.58,7.76-.82,3.15,1.09l-1.89.24c-.5,1.34-1.27,2-1.89.37Zm-28.16,26.23h0c.42-4.41,5.55-4.52,2.92-.6l-1.33,1.13c.23,1.41-.06,2.3-1.28,1.24Zm.93,4.58h0c1-3.4,5.06-2.71,2.37,0l-1.22.69c0,1.13-.4,1.79-1.19.79Zm27.82-26.15h0c2.21-3.31,6.31-1.81,2.55.43l-1.53.47c-.41,1.16-1,1.77-1.54.58Zm1.3,3.61h0c2.18-3.67,6.19-3,2.51-.07l-1.51.76c-.4,1.23-1,1.93-1.5.87Zm-33.85,10h0c1.73-2.91,4.92-2.36,2,0l-1.19.6c-.32,1-.8,1.53-1.2.68Zm42.49,13.51h0c.54-3.83,3.84-4.52,1.91-.87l-.93,1.13c.07,1.17-.17,2-.9,1.22Zm-3.2,4.85h0c.49-3.4,3.42-4,1.7-.77l-.82,1c.06,1-.16,1.75-.8,1.07Zm-2.28-2h0c.44-3.09,3.11-3.65,1.54-.7l-.75.92c.06.94-.14,1.59-.72,1Zm-2-2.91h0c.44-3.09,3.11-3.65,1.54-.7l-.74.92c.05.94-.15,1.59-.73,1Zm-2.89,4.19h0c.44-3.09,3.11-3.65,1.54-.7l-.75.91c.06.95-.14,1.59-.72,1Zm1.89,3.68h0c.38-2.75,2.76-3.26,1.37-.63l-.67.82c0,.84-.13,1.41-.64.87Zm2.65,2.06h0c.51-2.41,3.57-2.85,1.78-.54l-.86.71c.05.74-.17,1.25-.83.77ZM189.67,134h0c.86-3,3.58-3.22,1.62-.49l-.86.81c-.08.94-.37,1.56-.86.88Zm.59,3.14h0c1.39-3.14,4.37-3,1.84-.3l-1.06.75c-.24,1-.63,1.64-1.07.84Zm1.35,11.22h0c-2-7.57,2.93-10.08,2.4-2.62l-.15,4.55c.86,2.44.4,7-1.59,5.78Zm2.22-8.85h0c1-2.85,3.61-2.92,1.59-.39l-.88.73c-.13.9-.44,1.48-.87.8Zm3,2.23h0c-.3-2.21,2.06-3,1.28-.74l-.49.76c.27.64.24,1.12-.44.79Zm-2-7.72h0c2-3.19,5.16-2.6,2-.08l-1.26.67c-.4,1.06-.93,1.68-1.27.75Zm29.64-5.33h0c.45-3.18,3.19-3.76,1.58-.72l-.77.94c.06,1-.15,1.64-.74,1ZM222,126.13h0c.55-3.83,3.86-4.54,1.92-.87l-.93,1.13c.07,1.18-.18,2-.9,1.22Zm-2.37-2.42h0c.58-4,4-4.73,2-.9l-1,1.19c.06,1.22-.19,2.06-.94,1.27Zm-27.49-8h0c2.13-5,7.15-4.92,3.08-.59l-1.74,1.25c-.31,1.59-.94,2.6-1.72,1.37ZM189,114.55h0c1.75-4.13,5.91-4.07,2.53-.48l-1.43,1c-.26,1.33-.78,2.15-1.42,1.14Zm-.8,5.65h0c1.05-3.26,4.23-3.49,1.9-.53l-1,.88c-.1,1-.44,1.68-1,1Zm15-4.41h0c-2.11-5-7.13-4.93-3.06-.59l1.72,1.25c.31,1.59.94,2.6,1.72,1.36Zm4.26-1.27h0c-2.77-3.79-7-2.79-2.69.09l1.7.72c.57,1.27,1.31,2,1.71.82Zm5.08-1.08h0c-1.81-2.37-4.47-1.69-1.71.09L212,114c.38.8.86,1.25,1.1.5Zm-4.34,5.8h0c-2-3.27-5.5-2.74-2.2-.11l1.34.7c.38,1.09.92,1.73,1.34.79Zm-.45,3.6h0c-1.53-3.08-4.72-2.86-2-.26l1.14.72c.26,1,.7,1.62,1.14.81Zm.25,4.47h0c-1.51-3.83-5.33-3.88-2.32-.51l1.29,1c.2,1.22.67,2,1.28,1.06Zm-.34,3.75h0c-1.5-3.83-5.32-3.87-2.32-.5l1.3,1c.2,1.22.66,2,1.27,1.06Zm-.83,4.53h0c-.51-4.07-4.2-5-2.12-1l1,1.25c-.11,1.23.15,2.09,1,1.34Zm-14.41-14.84h0c2.11-4.71,7-4.91,3-.7l-1.7,1.24c-.31,1.49-.94,2.45-1.68,1.35Zm10.15-1.28h0c-2.59-4.61-7.6-4.38-3.12-.44l1.85,1.11c.47,1.48,1.19,2.41,1.85,1.22Zm-9.73,6.4h0c1.67-4.82,6.24-5.75,2.76-1.12l-1.52,1.43c-.2,1.48-.72,2.49-1.49,1.55Zm9.53,1.67h0c-3.56-5.26-8.66-5.53-3.2-.48l1.95.82c.74,1.6,1.68,2.71,2.18,1.69Zm-1.67,2.37h0c-1.36-2-3.74-.81-1.66,1.11l.74.32c.28.6.64.27.83-.12Zm.55,4.08h0c-1.36-2-3.74-.82-1.66,1.11l.74.31c.28.6.64.28.83-.11Zm-.67,4h0c-1.36-2-3.74-.81-1.66,1.11l.74.32c.28.61.64.27.83-.11Zm2.82-.59h0c-1.14-1.68-3.14-.68-1.4.93l.63.27c.24.51.54.23.7-.1Zm-.89-13.21h0c-2.53-4.44-7.2-4.56-2.92-.61l1.75,1.15c.47,1.4,1.17,2.3,1.75,1.25Zm15.19-3.22h0c.45-3.13,3.14-3.7,1.56-.71l-.76.93c.06.94-.15,1.6-.73,1Zm-3.57-9.53h0c.45-3.12,3.14-3.69,1.55-.7l-.75.92c.05.95-.14,1.61-.73,1Zm2.75,5.63h0c.35-2.49,2.5-3,1.24-.57l-.6.74c0,.77-.12,1.28-.58.79Zm-1.14,3.54h0c.1-2.5,2.2-3.16,1.18-.67l-.52.79c.11.75,0,1.28-.5.83Zm-.61-5.79h0c.48-3.37,3.4-4,1.69-.76l-.82,1c.06,1-.16,1.74-.79,1.07Zm9.59-4h0c.64-3.37,3.89-3.9,1.9-.72l-.93,1c0,1-.23,1.74-.91,1Zm-1.24-5.14h0c1.92-4,6.18-3.67,2.61-.3l-1.49.93c-.31,1.31-.87,2.11-1.49,1ZM219,111h0c2.24-3.14,6.37-2.56,2.58-.06l-1.55.66c-.42,1-1,1.66-1.55.73Zm.86,3h0c2.23-3.47,6.46-2.71,2.68.34l-1.35,1.17c.3,1.39,1.5,2.35-1.15.68ZM178.1,90.19h0c-2.16-3.65-7.8-.83-3.42,1.13l1.89.24c.27,1.38.94,2,1.87.38Zm3.08.49h0c.51,0,.39-2.55,1.39-.49.45,1.08,1.17.92,1.74,1.38q2.91-.19-.24,3.49c-.71-.2-2.06.94-2.39-.36-.17-1.34.3-2.8-.5-4m.41,7h0c0,.58.15-2.37,2-1.27,1.87-2,1.37.63,1.75,1.37,1,.65,1.31,1.42.16,3.11-.65-.06-2.22-.11-3.9-3.21m2.12,5.69h0c-1.54-.72-2.79-2.56,1.78-1.06,1.87-2,1.77.52,2.15,1.27,2.21-1.1,1.83.55-.24,3-.65,0-2-2.44-3.69-3.22m5.49,4.12h0c-.56-1,.05-3.43,1.68-.92,1.28-.44,1.67.65,2.07.52,1.71-1,.71,1-.89,3.17a6.61,6.61,0,0,1-2.86-2.77m4.86,1.29h0c.17-.71.82-3,1.47-1.12,1-.36.84.91,1.17.8a1.56,1.56,0,0,1,.08,2.45c-1.09.29-3-.69-2.72-2.13m7.76,1h0c.45-.83-.54-4.43-1.86-2.39-1-.37-.14,1-.47.9a1.55,1.55,0,0,0-.09,2.45c.41,0,1.83.11,2.42-1m3.73-.51h0c.45-.83-.54-4.41-1.86-2.39-1-.36-.15,1-.46.9a1.56,1.56,0,0,0-.1,2.46c.41,0,1.83.1,2.42-1M174.83,85.87h0c.72,0,1.3.4,1.3.89s-.58.89-1.3.89-1.3-.4-1.3-.89.58-.89,1.3-.89m4.81,4h0a.75.75,0,1,1-.92.73.86.86,0,0,1,.92-.73M179,86.94h0a.75.75,0,1,1-.92.73.84.84,0,0,1,.92-.73m-5.67,5.83h0c.65-.66,1.31-.27,2,.22.46.71,1.77,0,1.64,2.1-.07,1.17,2.58,1.25.73,3.24-1-1.57-1.95-2.41-3.79-2.31a6.23,6.23,0,0,0-.54-3.25m-.24,4.28h0c.63-.57,1.27-.24,1.91.18.46.61,1.74,0,1.62,1.79-.07,1,2.53,1.07.71,2.76a3.84,3.84,0,0,0-3.71-2,4.8,4.8,0,0,0-.53-2.77m6.49-3.75h0c-.53,0-.61.44-.63.89.13.47-.69.72.3,1.47.56.42-.41,1.55,1.17,1.53a2.07,2.07,0,0,1,.4-2.44,3.82,3.82,0,0,1-1.24-1.45M167,101.89h0c-.54-1.57,1.3-1.26,2.28-.63.82,1.6,2.19,3.11,2.48,4.92-2.49,1.44-.43-1-1.93-1.44a4.41,4.41,0,0,0-2.61-1.8Zm5.45,3.35h0c-.72-1.39,1-1.11,1.91-.55,1,1.41,2.75,2,3.29,3.61-1,2.5-.43-.67-1.72,0a6.33,6.33,0,0,0-3-1.38Zm.2-3.43h0c-.72-1.38,1-1.11,1.91-.56,1,1.42,2.74,2,3.28,3.62-1,2.5-.43-.67-1.72,0a6.39,6.39,0,0,0-3-1.39Zm-5.9,4.4h0c-.54-1.57,1.31-1.26,2.28-.63.39,1.71,2.52,3.21,2.15,5.66-2.48,1.43-1.61.47-1.72-1.76-.54-.7-1.19-1.94-2.5-2.23Zm-.63,4.68h0c.66-3.2,1.08-1.39,1.3-.52l.92,2.49c2.65.71.75,2,1.13,3.07-.76.58-2,1.46-1.3-.74.4-1.64-2.56-1.19-2.05-4.3M223,103.56h0c-2.86.09-1.22-3.47-.75-3.54l3.37-.14c1.15-4.69,1.83-2.57,1.48-3.06.07.46.37,3.53-.39,3.81s0,.29-1.11.44c-2.28.3-2.48,1.47-2.6,2.49m-57.34,12.31h0c.56-2.39.93-1,1.12-.39l.79,1.85c2.28.53.65,1.52,1,2.27-.65.44-1.71,1.09-1.12-.53.34-1.23-2.2-.89-1.76-3.2m-1.39,3.07h0c.38-2.72.84-1.19,1.07-.44l.91,2.11c2.27.6.74,1.73,1.11,2.59-.61.5-1.6,1.24-1.13-.62.25-1.39-2.23-1-2-3.64m21,9.29h0c1.32-2.73,1.25-1.19,1.22-.45l.18,2.12c2.08.59.16,1.73.22,2.59-.78.5-2,1.24-.92-.62.73-1.4-1.87-1-.7-3.64m10.26.05h0c2.7-1.5,1.73-.28,1.27.31l-1.11,1.83c1.33,1.64-.92,1.49-1.37,2.25-.93,0-2.39-.12-.38-1,1.43-.73-.93-1.87,1.59-3.36M215,132.05h0c1.9-2.19,1.37-1,1.12-.36l-.5,1.71c1.49.48-.41,1.39-.61,2.09-.79.4-2,1-.56-.5,1-1.12-1.2-.81.55-2.94m2.47-6.81h0c2.18-2.51,1.57-1.09,1.29-.41l-.58,2c1.71.56-.47,1.61-.7,2.41-.9.46-2.32,1.15-.64-.58,1.17-1.29-1.38-.94.63-3.38m-54.2-2.41h0c.3-2.15.66-.94.84-.35l.72,1.66c1.8.47.59,1.36.88,2-.48.4-1.26,1-.89-.49.2-1.09-1.76-.79-1.55-2.86m-.08,3.82h0c.23-1.64.5-.72.64-.27l.55,1.27c1.37.36.44,1,.67,1.55-.37.31-1,.75-.68-.37.15-.84-1.34-.6-1.18-2.18m3.31,5.72h0c.28-1.71.61-.74.78-.28l.66,1.32c1.65.38.54,1.09.81,1.63-.44.31-1.16.78-.83-.39.19-.87-1.61-.63-1.42-2.28m1-3.13h0c.38-2.05.84-.89,1.06-.34l.91,1.6c2.26.45.74,1.29,1.12,1.95-.61.38-1.6.94-1.13-.47.24-1-2.22-.75-2-2.74m5,2.76h0c.35-1.89.77-.83,1-.31l.83,1.46c2.09.42.69,1.2,1,1.8-.56.35-1.46.86-1-.43.23-1-2-.7-1.79-2.52m-1.3,3.3h0c.32-1.72.71-.75.89-.28l.76,1.33c1.91.38.63,1.1.94,1.64-.51.32-1.34.78-1-.39.21-.88-1.85-.64-1.64-2.3m-2.83-10.18h0c.48-2.31,1.06-1,1.34-.38l1.14,1.79c2.86.51.94,1.47,1.41,2.2-.77.43-2,1.05-1.43-.52.32-1.19-2.79-.86-2.46-3.09m.91-3.05h0c.44-1.88,1-.82,1.22-.31l1,1.47c2.58.41.85,1.19,1.27,1.78-.69.35-1.81.86-1.29-.42.28-1-2.53-.7-2.23-2.52m1.26-4.4h0c.43-2.38.94-1,1.2-.39l1,1.85c2.55.52.84,1.5,1.26,2.26-.69.43-1.8,1.08-1.28-.55.28-1.21-2.5-.87-2.2-3.17m.63-4.48h0c.42-2.38.94-1,1.2-.39l1,1.85c2.55.52.84,1.51,1.25,2.26-.68.44-1.79,1.08-1.27-.54.28-1.22-2.49-.88-2.2-3.18m.63-4.47h0c.42-2.38,1.81-.51,2.06.13l1,1.11c2.56.53.52,2.14.93,2.89-.68.44-2.33.67-1.81-1,.28-1.21-2.5-.88-2.2-3.17m50.67,7.1h0c1.91-1.4,3.66-1.74,2,.74-1.25,2.79-.32,3.48,1.37,1.19,1.45-.7,2.12-.94,1.55,1.5-3.5,3.34-5.45.7-4.93-3.43m-15.79-10.34h0c-.42-2.22.68-4.67,1.4-2.24,1.35.63,1.39,0,.66-.95-.28-1.53-.14-2.23,2.12-1,.37,2.17-1.16,3.18-2,4.31-1.21,1.59-1.54,1.72-2.14-.09M227,120.92h0c1.43-1,2.75-1.31,1.51.56-.94,2.08-.25,2.6,1,.88,1.08-.52,1.59-.7,1.16,1.13-2.63,2.51-4.09.52-3.7-2.57m-51.43,2.51h0c-1.4-.13-2.37.28-.76,1.09,1.52,1.11,1.29,1.81-.29,1.11-.94.12-1.36.2-.29,1.37,2.81.66,2.93-1.47,1.34-3.57m2.16,4.58h0c-.87-.93-1.79-1.25-1.21.29.31,1.68-.3,2-.93.58-.71-.49-1-.68-1.07.76,1.5,2.15,2.94.77,3.21-1.63m50.78-25.33h0c3-1.3,3.66-.8,2.94,1.49-1.13.58-2.27,1.15-1.08,3.08l2.61.66c1.28,2.59.76,3.44-1.26,2.84.78-1.34-2.14-2.69-3.21-4Zm3.55,2.54h0c1.18.61,4.05-.27,3.53,1.84l.17,1.74a4.42,4.42,0,0,0-3.24-1.94c-2-.55-.93-.94-.46-1.64m-4,8.51h0c.41,0,.76.47.76,1s-.35,1-.77,1-.77-.47-.77-1,.35-1,.78-1m-29.51,61.21h0a13.74,13.74,0,1,1-14,13.74,13.85,13.85,0,0,1,14-13.74m0,1.82h0a11.92,11.92,0,1,1-12.13,11.92,12,12,0,0,1,12.13-11.92m0,8.93h0a3,3,0,1,1-3.05,3,3,3,0,0,1,3.05-3m-.11-7h0c-.17-1.3,2.35-1.25,2.16,0l-.86,5.76h-.56Zm-2.37.3h0c-.42-1.23,2.06-1.65,2.12-.39l.28,5.81-.55.11Zm-2.71.9h0c-.8-1.05,1.42-2.2,1.88-1l2.16,5.44-.49.26Zm-2.06,1.65h0c-1-.83.84-2.47,1.58-1.43l3.44,4.77-.41.37Zm-1.94,1.71h0c-1.21-.57.2-2.58,1.18-1.75l4.53,3.82-.31.46ZM188,185.62h0c-1.32-.27-.45-2.55.7-2l5.36,2.65-.19.52Zm.29,5.32h0c-1.31.33-1.58-2.09-.27-2.07l6,.08.06.54Zm1,2.67h0c-1.16.67-2.12-1.57-.87-1.91l5.81-1.57.22.5Zm1.52,2.17h0c-.95.92-2.46-1-1.33-1.65l5.24-2.89.34.43Zm2.37,1.94h0c-.64,1.15-2.67-.28-1.77-1.21l4.13-4.24.46.31Zm2.74,1.09h0c-.26,1.28-2.63.48-2.05-.65l2.68-5.22.53.17Zm2.75.24h0c.14,1.3-2.37,1.2-2.16,0l1-5.75h.56Zm2.51-.29h0c.35,1.26-2.14,1.55-2.14.29l0-5.82.56-.08Zm2.51-1.11h0c.55,1.19-1.86,1.87-2.07.63l-.95-5.76.53-.16Zm2.7-1.36h0c.86,1-1.29,2.27-1.82,1.11l-2.46-5.31.47-.28Zm1.66-2.08h0c1.1.76-.64,2.52-1.46,1.54l-3.8-4.51.37-.4Zm1.18-2.46h0c1.26.46,0,2.59-1,1.85l-4.88-3.4.26-.49Zm.38-2.57h0c1.34.12.75,2.48-.47,2l-5.63-2.06.13-.53Zm-21.72-.62h0c-1.35.05-1.08-2.37.19-2.08l5.86,1.34,0,.53Zm13.33-9.66h0c.17-1.29,2.59-.63,2.09.53L201,184.8l-.55-.13Zm2.62.95h0c.5-1.21,2.68,0,1.89,1l-3.64,4.64-.49-.26Zm2.3,2h0c.93-1,2.49.95,1.38,1.61l-5.14,3L202,186Zm3,5h0c1.33-.22,1.39,2.21.09,2.09l-6-.58,0-.54Zm-.77-2.61h0c1.22-.56,2,1.76.68,2l-5.93,1-.18-.52Zm16.7,17.43h0a1,1,0,1,1,0,1.94,1,1,0,0,1-1-1,1,1,0,0,1,1-1m-3,.22h0a1,1,0,0,1,1,1,1,1,0,0,1-2,0,1,1,0,0,1,1-1m-2.69.21h0a1,1,0,1,1-1,1,1,1,0,0,1,1-1m-2.69.21h0a1,1,0,1,1-1,1,1,1,0,0,1,1-1m-2.54.07h0a1,1,0,1,1-1,1,1,1,0,0,1,1-1m-2.38.21h0a1,1,0,1,1-1,1,1,1,0,0,1,1-1m-2.38.07h0a1,1,0,1,1-1,1,1,1,0,0,1,1-1m-3.31-.09h0a1,1,0,1,1-1,1,1,1,0,0,1,1-1m-3.62.36h0a1,1,0,1,1-1,1,1,1,0,0,1,1-1m-2.91.28h0a1,1,0,1,1-1,1,1,1,0,0,1,1-1m-2.69-.38h0a1,1,0,1,1-1,1,1,1,0,0,1,1-1m-2.54-.08h0a1,1,0,1,1-1,1,1,1,0,0,1,1-1m-3-.09h0a1,1,0,1,1-1,1,1,1,0,0,1,1-1m-2.69-.38h0a1,1,0,1,1-1,1,1,1,0,0,1,1-1m-2.69-.09h0a1,1,0,1,1-1,1,1,1,0,0,1,1-1m-2.38-.09h0a1,1,0,1,1,0,1.94,1,1,0,0,1-1-1,1,1,0,0,1,1-1m-9.93,3.63h0a1,1,0,1,1-1,1,1,1,0,0,1,1-1M172.43,175h0a1,1,0,1,1-1,1,1,1,0,0,1,1-1M198.63,187h0a1.5,1.5,0,1,1-1.54,1.5,1.52,1.52,0,0,1,1.54-1.5m13.42-85.22h0c1.78-1.07,2.54-.29,1.71,1.17-1.1,1.79-1.39,3.31-.89,4.59l1.53-3.36c.72.14,1.54.18,1.26,2.45-1.16.43-1.45,1.9-2,2.88-.13.22-.76-.21-.87,0-1-2.15-1.05-4.84-.7-7.76M180,103.44h0c-1.77-1.07-1.84.38-1,1.84q1.64,2.68.87,4.6l-.72-2.29c-.72.13-1.14-.7-.86,1.57,1.15.44.23.93.82,1.91.14.22,1-.31,1.08-.07,1-2.14,2.26-5.41-.19-7.56m-1.83,8h0c-1.59-1-1.72.37-1,1.72q1.41,2.5.6,4.28l-.56-2.13c-.68.13-1-.65-.87,1.46,1.05.41.17.87.68,1.78.11.21.91-.29,1-.06,1-2,2.35-5,.16-7m-1.5,7.47h0c-1.22-.45-1.22.42-.62,1.19a2.61,2.61,0,0,1,.72,2.62l-.55-1.28c-.48.16-.79-.29-.53,1,.79.14.19.53.61,1,.1.12.63-.28.72-.15.6-1.37,1.35-3.42-.35-4.44m9.49,2.46h0c-.47-.26-1.32.31-1.89,1.28s-.64,2-.17,2.22,1.32-.32,1.89-1.28.64-2,.17-2.22M212.28,116h0c.35-.2,1,.23,1.38.94s.47,1.44.13,1.63-1-.23-1.38-.94-.47-1.44-.13-1.63m.87,4.13h0c.28-.14.76.19,1.09.75s.37,1.14.1,1.29-.77-.18-1.09-.75-.37-1.14-.1-1.29m-4.35-6.95h0c.47-.26,1.3.31,1.86,1.27s.63,1.94.17,2.2-1.31-.32-1.86-1.27-.64-1.95-.17-2.2m.77,4.18h0c.47-.25,1.3.32,1.86,1.27s.63,2,.17,2.2-1.31-.31-1.86-1.27-.64-1.94-.17-2.2m.71,4.18h0c.36-.21,1,.24,1.46,1s.5,1.54.13,1.74-1-.25-1.46-1-.5-1.53-.13-1.73m-.67,4.29h0c.37-.21,1,.24,1.46,1s.5,1.53.13,1.73-1-.25-1.46-1-.5-1.53-.13-1.73m-.73,4h0c.32-.26,1.06,0,1.65.7s.8,1.4.49,1.66-1.06,0-1.65-.69-.8-1.4-.49-1.67m3.59-2.27h0c.25-.21.84,0,1.3.54s.64,1.11.39,1.32-.84,0-1.31-.54-.63-1.11-.38-1.32m.4,3.32h0c.34,0,.66.51.72,1.19s-.16,1.26-.49,1.28-.66-.49-.72-1.18.16-1.26.49-1.29m-1,3.22h0c.33,0,.63.53.65,1.22s-.22,1.25-.56,1.25-.63-.53-.65-1.21.23-1.26.56-1.26m-3.29-.49h0c.33-.25,1.05.12,1.57.82s.69,1.46.35,1.7-1.05-.13-1.58-.82-.68-1.46-.34-1.7m-6.6-1.64h0c.24-.17.74.09,1.12.58s.48,1,.25,1.21-.75-.09-1.13-.58-.48-1-.24-1.21m-22.07-.07h0c.26-.18.8.1,1.21.63s.52,1.12.26,1.3-.79-.1-1.2-.62-.53-1.12-.27-1.31m-.61-4.89h0c.37-.06.77.5.92,1.25s-.06,1.41-.43,1.47-.77-.5-.9-1.25,0-1.41.41-1.47m-.36-1.24h0c-.32-.09-.41-.69-.22-1.34s.62-1.11.94-1,.41.69.21,1.33-.61,1.11-.93,1m34-2.66h0c.4-.22,1.11.26,1.58,1.07s.53,1.64.14,1.85-1.1-.26-1.57-1.07-.54-1.64-.15-1.85M188,110.92h0c.36.38,0,1.3-.85,2s-1.81,1-2.17.66,0-1.3.85-2,1.81-1,2.17-.66m-5.47.19h0c-.39-.34-.09-1.29.68-2.09s1.73-1.18,2.12-.83.08,1.3-.68,2.1-1.73,1.18-2.12.82m.93,2.67h0c.34.26.15,1-.42,1.73s-1.3,1-1.64.79-.15-1,.41-1.73,1.31-1,1.65-.79m-2,7h0c-.31-.12-.34-.72-.08-1.34s.73-1,1-.92.34.72.08,1.34-.73,1-1,.92m1,1.51h0c.39.13.48.88.2,1.68s-.83,1.34-1.22,1.22-.48-.89-.2-1.68.82-1.35,1.22-1.22m-1,6.74h0c-.34-.23-.2-1,.31-1.71s1.22-1.1,1.57-.87.2,1-.31,1.72-1.22,1.09-1.57.86m2.59,1.71h0c.31.19.25.86-.16,1.51s-1,1-1.31.84-.24-.86.17-1.51,1-1,1.3-.84m-.25,4h0c.36.06.56.7.43,1.45s-.52,1.3-.89,1.25-.56-.71-.43-1.46.52-1.31.89-1.24m2.5.06h0c.37,0,.62.64.58,1.4s-.4,1.35-.77,1.33-.62-.66-.57-1.41.39-1.35.76-1.32M207.47,113h0c-.31-.06-.45-.63-.32-1.26s.5-1.1.81-1,.46.62.32,1.26-.5,1.11-.81,1m3.63-2.14h0c-.25.1-.64-.24-.87-.77s-.2-1,.05-1.13.65.23.88.75.2,1-.06,1.15M172.48,142h0c.55,0,1,2.17,1,4.83s-.45,4.83-1,4.83-1-2.17-1-4.83.45-4.83,1-4.83m10.27-1.72h0c.27,0,.49,1.33.49,3s-.23,2.95-.5,2.95-.5-1.32-.5-2.95.23-3,.51-3m18.85,2.79h0c.79,0,1.72,2.7,2.05,6s0,6-.84,6-1.71-2.7-2.05-6,.05-6,.84-6m10.3-1.5h0c.44.23.38,3.17-.14,7.86s-1.07,8.45-2.17,7.8.06-3.92.58-8.61c.29-2.64.33-5.38.68-6.86.27-1.14.85-.28,1.05-.19M180,146.06h0c.33.23.73,3.16.17,7.86s-1.69,8.44-2.51,7.79.63-3.8,1.2-8.5c.32-2.64,0-5.48.33-7,.25-1.15.67-.29.81-.19m33.09-7.84h0c9.28,5.57,5.47,18.63,5.51,19.91l.12,3.05,1,0,.69-17.28q3.62-.09.56,16.58c.32,1.93,4.85,11-.69,6.1l.78,3.78c1.11-.65,2.07-.3,2.87,1.06-.43,1.93,3.56,2.68,0,3.64l-1.48-3.13-.76,4.42c-3.43-4.64-4.7-8.94-6.06-12.56-2.18-5.75-3.91-9.88-2.8-12.55Zm-33.7-3h0c-1.85,2.3-3.47,4.93-5.76,6.28,1.41,3.17,1.35,6.05.39,14.66-1.94,5.4-2.59,13.9-.45,11.35-.17.83,0-1.86.45-2.46s.22,2.81,1.16,2c1.61-1.36.39,4.16-4.52,3.24.09,1.46-2,3.35.6,4.81,1.25-1.71,5.71-1,3.52-2.88,2.92-3.92,3.5-6.36,3.54-9.44,0-2.56,1.47-.84,1.69-1.4,2.18-5.75,3.92-8.71,1.83-12.12Zm5.17,7.91h0c-1.13-6.84,8-3.92,5.77,6.16a11.06,11.06,0,0,0,1.1,7c1.06,2.21-.55,4.83,1,7a4.37,4.37,0,0,1-.89,3.37c-.28-1.59-.12-4.05-1.3-3.5.23,1.78.07,2.78-.5,3l-.28-2.86h-1.16c0,1.58.6,3,0,4.73-1.29.8-2,1.17-2.09,2.41-.7,1.08-1.25.44-1.65-1.06,1.93-1.14,3-2.76,2.18-5.42-.34,1.15-.23,1.87-1,1.74,1.2-9.85-1.76-15.4-1.15-22.66M194.92,149h0c.42-6.5,6.2-4.25,5.34,5.3a21.48,21.48,0,0,1,.37,12.91c-.93,1.67-.57,3.49.48,6.31A15.05,15.05,0,0,1,195,174c-1.81-8.17,1.27-16.78-.11-25m9-6.38h0c.4-2,6.35-7.16,5.49-1.86,1.11,6.25-4.27,18.66-.09,20.65,0,2.24.33,4.92-.4,7.31-2.78.7-4.16-21.1-5-26.1m-21.14,15.84h0c1.47,1.39,1.92,4.07,2.21,6.17-1.24,2.78-2.33,3.11-3.72,2.72a84.87,84.87,0,0,0,1.51-8.89m-20.15,27.11h0a5.85,5.85,0,0,1,3.32,3.1,3.25,3.25,0,0,1-3.32,2.29,27.89,27.89,0,0,0,0-5.39M212,159.91h0c.65,0,1.18,1.87,1.17,4.16s-.53,4.15-1.18,4.15-1.19-1.86-1.18-4.15.53-4.16,1.19-4.16m-6.66,2.36h0c.32,0,.57,1.86.57,4.16s-.27,4.16-.58,4.16-.57-1.87-.56-4.16.26-4.16.57-4.16m-39.91,17.19h0c1.46-1.24,2.55-1.26,3.7-.65.24.13.1,1.08.39,1.31s1.05-.23,1.3.2a5.17,5.17,0,0,1,.55,2.89l.74,1-.11,1.45.93.19.2,2.06c2.12,2.25,4.45-1.61,6.07,1.12,5.18.29,2.2-3.5,3.07-5.48a5.89,5.89,0,0,1,2.69-3.29c.92-.54,1.15-.19.7.58a11.74,11.74,0,0,0-1.8,5.59c-.21,4.91-3.52,2-4.13,3.9-1.36,3.37,6,6.43,6.32,10.37h-1.54c-3-7.55-9.49-3.49-9.33-7.46-2.56,2.5-4.44.83-5.63-1.75-.09,2.23-.32,4.16-2,4.08-2.95.22-2.93,2.63.05,4.23l-1,.72c-2.84-1.32-3.41-3.83-1.12-5.25a1.7,1.7,0,0,0,.9-2.68l.26-4.16c.11-2.08,1.24-4,.31-6.27-.28-.56-.69-.55-.83.23a2.15,2.15,0,0,1-.06,2.37c-.22.4-.95.52-1.3-.3.44-1.48-.47-4,.71-5m2.85,2.38h0c.12-.08.37.17.7.64.12.17.24.72.37.93s.16-.07.24.08.15.72.27.95.3.14.42.38l.19.43c.09.18,0,.6.24.52s.14.35.21.51,0,.75.09.91.3.11.39.35,0,.8.07.91c.21.58.37.77.23.86s-.53-.33-1-1.09c-.13-.21-.16-.59-.3-.86s-.28-.18-.37-.36-.21-.87-.3-1.05-.14.15-.23,0-.25-1.18-.35-1.41c-.17-.39-.27-.07-.4-.42s0-.2-.11-.48c-.21-.73-.49-1.67-.36-1.76m3.95-3.43h11.86v1.14c-4.47,2.18-2.58,9.52-5.27,7.68l-2.54-.3a4.94,4.94,0,0,1-2.39-4.59l-1.36.08Zm45,4.3h0a.73.73,0,0,1,.64.79.66.66,0,1,1-1.29,0,.73.73,0,0,1,.65-.79m-52.51-6.17h0a.87.87,0,0,0,.79-.93.8.8,0,1,0-1.57,0,.86.86,0,0,0,.78.93m2.36-3h0a.94.94,0,1,1-1.07.93,1,1,0,0,1,1.07-.93m50.38-.86h0a1,1,0,1,1-.89,1,1,1,0,0,1,.89-1M233.79,181h0c.46,0,.82,3.33.81,7.4s-.38,7.38-.82,7.38-.82-3.31-.81-7.38.38-7.4.82-7.4m-65.48,15.36h0q11.41-.72,11.56,3.15l.15,3.87-1,.06-.14-1.67c-.5-.62-1.14-1.11-1.93-.59l-.63,1.42-.85,0-.27-1.61a1.64,1.64,0,0,0-2.69-.33l-.26,1.7-1.05-.17-.31-1.94L168,199.2c-.94-1-.54-1.91.3-2.86m44.49-6h0l1.28.16.5,3.85c.37,1.44,3.13,1.29,2.91,3l-2.48,4h-.81l1-1.86c-.3-.91,1.49-2.84-1.64-.9l-.91,2.92-5.82.28c4.63-4.59,6.5-8.41,6-11.47m10.53-1.15h0q7.78-1,4.88,6.6a21.3,21.3,0,0,0-3,5h-1.93l2.35-4.19c2.11-3.14,1.41-3.4-1.22-1.67l-1.86-.31Zm-8.44-7h0l.35-3,.69,2.06,1.17.09,1.65-2.11c.33,1.78,1.76,3.23,1,5.31-.28.78-1,2-2.37,1.57a9.35,9.35,0,0,0,.15,4.58l.58.88a17.46,17.46,0,0,1,.58-4.73c2-.81,6.07-5.35,3.76,1.45A86,86,0,0,0,220,201.5l-1.77-.15c1.42-3.12.45-5.84-2.48-8.2l.16-1.85.15-4a3.74,3.74,0,0,1-1.21-5.19m-27.48-12h0c.45,1.68,1.3,2.67,1.54.46.62-2.19,1.49-2.18,1.38-.07.51,1.06.79,1.51,1.64-.18-.44-3.54-2.86-2.87-4.56-.21m14.72,2.93h0c.39,1.45,1.13,2.31,1.33.4.54-1.89,1.29-1.88,1.19-.06.44.92.68,1.3,1.42-.16-.38-3.06-2.47-2.48-3.94-.18m-37.58-.82h0c1.39-3.14,4.38-3,1.84-.31l-1.07.76c-.23,1-.63,1.63-1,.83Zm3.8-1.54h0c1.4-3.14,4.38-3,1.84-.31l-1.06.76c-.23,1-.64,1.64-1.06.83Zm9.31.88h0c1.39-3.13,4.38-3,1.84-.3l-1.06.75c-.23,1-.63,1.65-1.06.84Zm3-.48h0c1.39-3.14,4.37-3,1.84-.3l-1.07.76c-.22,1-.63,1.63-1.06.83Zm47.74,29.46h0c1.91-2.27.59-4.41-.49-1.47l-.17,1.08c-.7.57-1,1.13-.23,1.11ZM230,172.18h0c-1.37-3.14-4.36-3-1.83-.31l1.06.76c.23,1,.63,1.64,1.06.83Zm-2.49.58h0c-1.38-3.13-4.37-3-1.83-.31l1.06.76c.22,1,.62,1.64,1.05.83Zm-12.56-.28h0c-.34-3.39-3.23-4.13-1.66-.83l.77,1c-.1,1,.08,1.74.74,1.11Zm-3.56.57h0c.76-3.33-1.76-4.88-1.31-1.28l.41,1.21c-.42,1-.47,1.69.36,1.28Zm-2.73.07h0c.48-3.38-2.15-4.74-1.41-1.18l.51,1.18c-.35,1-.34,1.71.46,1.23Zm1.55,5.58h0l2.36.61,1.1.61v5.33l-1.88-2.74ZM225,196.21h0l-3.13-.14-.33,1.35.25,3.22,1-1.37Zm-4.94-16.86h0c4-.16,6.73,1.69,7.3,5.83v2.23c0,.92-1.11,1.7-2,.13-.51-3-2-4.6-4.61-4.67Zm8.33,2.48h0l.88,5.09.8-.5-.14-5.34,1.27,4.85.32-4.38,1,.28,0,14-.89-1.51-1,3.24c-.5-2.24-.08-6.33-1.47-6.71Zm-23.57-26.18h0l-.89-.37-1.43,9.55c.46,3.64,1.07,1.94,1.41.12Zm-22.67,34.94h0c.66-.32,1.6.2,2.08,1.16s.34,2-.34,2.29-1.6-.2-2.08-1.15-.33-2,.34-2.3m2.73,4.39h0a.87.87,0,1,1-.9.88.88.88,0,0,1,.9-.88m2.75,3.85h0a.94.94,0,1,1-.83.93.89.89,0,0,1,.83-.93M185.46,173c.42,0,.76.5.76,1.12s-.34,1.12-.77,1.12-.77-.51-.77-1.12.35-1.12.78-1.12"/><path class="cls-4" d="M199.78,228.45h-.1v.09h-1.56v9.53l-1.67-1.2V234.5l-.32.15-.82.32-.66.08h-.31l-.3,0-.29-.08-.27-.1-.28-.14-.25-.16-.24-.2-.24-.22-.06-.07,0-.06,0-.06,0-.05,0-.07,0-.06,0-.06,0-.06-.31-.54-.05-.17,0-.15,0-.15,0-.16,0-.15,0-.16v-.31l0-.36.08-.33.13-.31.17-.28.23-.26.27-.22.32-.2.35-.16.13,0,.15-.05.17,0,.2,0,.23-.05.26,0,.28,0,.33,0h.81l.68,1.06v-1.89h-6.19l0,9.54-1.62-1.23V233H186v.69l0,.12,0,.11-.07.11-.08.09-.1.07-.12.05-.14,0-.19,0-.18,0-.18-.07-.18-.09-.18-.12-.19-.14-.19-.16-.19-.18,0,0,0,0,0,0,0,0,0-.05,0-.05,0,0,0-.06,0-.06,0,0,0-.05,0-.05,0-.06,0,0,0,0,0,0-.05-.07,0-.08,0-.08,0-.08,0-.07,0-.08V232l0-.11.05-.1.07-.1.09-.08.1-.06.11,0,.14,0h.54v-2.93h-2.48l0,9.54-1.64-1.23V234.1h0l-.06,0-.07,0-.07,0-.08,0-.09.05-.1,0-.31.15-.31.08h-.21l-.05,0-.34,0h-.37l-.17,0-.16,0-.16,0-.16,0-.16,0-.14-.05-.15-.07-.14-.07-.15-.08-.14-.08-.14-.11-.14-.11-.14-.11-.14-.14-.1-.11-.1-.13-.1-.12-.1-.14-.1-.15-.1-.15-.11-.17-.11-.19-.07-.2,0-.19,0-.19,0-.19,0-.2v-.15H172.8l0,0,0,0,0,0,0,0-.19.36-.07.5v.31l0,.34.07.33.11.36.13.37.17.38.18.39.23.41.39.65.81,1.07-1.13.66-.18-.1-.09-.06-.09-.08-.08-.08-.07-.09-.08-.11-.07-.12-.07-.12-.72-1.42,0-.1,0-.09,0-.11,0-.11,0-.12-.06-.12,0-.13-.05-.14-.06-.14,0-.14-.06-.13-.05-.13,0-.12,0-.12,0-.11,0-.13-.06-.19-.05-.2,0-.2-.05-.2,0-.2,0-.21,0-.2,0-.23v-.35l0-.16,0-.15.05-.15L171,231l.07-.13.06-.11.17-.3.11-.14.11-.12.12-.11.14-.1.15-.08.16-.08.16-.05.19,0H176v1l.34-.1.08,0,.08,0,.07-.08.07-.07.07-.09.05-.11,0-.11,0-.11,0-.38,0-.47v-.19h0v-.2l-.1-.16h-7.08v9.53l-1.68-1.2v-4.14l-.3.15-.12,0-.11,0-.11,0-.11,0h-.74l-.12,0-.1,0-.12,0-.13,0-.13-.05-.14,0-.15-.06-.19-.07-.56-.42-.08-.1h0l0,0-.3.51-.47.48-.27.19.49.75.67,1,.77,1.07.38.41.66.67-1.4.69-.73-1.12-.57-.87-.82-1.16-.45-.66-.21-.36-.2-.35-.17-.34-.15-.33-.13-.33-.1-.32-.08-.31-.06-.33,0-.23.09-.21v0l0-.06.05-.06,0,0,.06,0,.05,0,.07,0,.11,0h1.28v-2.14h-2.65V227h27.9l-1.83-2.25,0,0h0l0,0,0,0h0l0,0,0,0h0l-.37-.07h-2l-.9-1.8h3l.43.07.1,0h.19l0,0,0,0,0,0,.69.92.78,1.11.28.36.24.37.28.39.26.41.32.48h9.71ZM196.45,231h0l-.73,0H195l-.06,0-.09,0-.26,0-.21.05-.2.06-.19.07-.18.1-.17.11-.16.14-.14.14h0l0,0,0,0,0,0,0,.06,0,0v0l0,.05V232l0,.05,0,.07v.49l0,.12,0,.12.05.11,0,.11.06.11.08.09h0l0,0,0,0,0,0,.06,0,.06,0,.06,0,0,0,.06,0,.08,0,.09,0h.67l.09,0h.08l.08,0,.08,0,.08,0,.08,0,.08,0,.09-.05.1,0,.1-.06.11-.07.11-.08.13-.09.09-.05.07-.07.08,0,.06-.05.06-.05,0,0,0,0,0-.05.14-.18Zm32.07-8.1h.18l0,0,0,0,0,0,.7.92.77,1.11.29.36.23.37.28.39.26.41.32.48h1.85v1.42h-.1v.09h-1.54V238L230.22,237v-5.6H227l0,0h-.07l-.24.22-.16.32-.06.44v.52l0,.08v.08l0,.07,0,.09,0,.07,0,.09,0,.08,0,.09,0,.08.08.19.1.2.1.18.11.18.11.18.13.17.13.17.14.17.49.52,1.08,1-1.25.58-.18-.06-.1-.05-.1-.06-.09-.07-.09-.08-.08-.08-.09-.11-.07-.1-.88-1.28-.16-.24-.15-.25-.14-.22-.13-.24-.13-.23-.1-.23-.1-.22-.09-.22-.08-.22-.06-.2-.06-.21,0-.19,0-.18,0-.18,0-.17v-.5l0-.16,0-.14,0-.14,0-.13,0-.12.06-.12.21-.33.27-.31.31-.25.33-.16h4v-1.18h-6.57l0,9.54L222,236.85V234.1h0l-.06,0-.08,0-.07,0-.08,0-.09.05-.1,0-.31.15-.3.08h-.22l-.05,0-.34,0h-.36l-.18,0-.16,0-.16,0-.16,0-.15,0-.15-.05-.15-.07-.14-.07-.15-.08-.14-.08-.14-.11-.14-.11-.13-.11-.14-.14-.11-.11-.1-.13-.1-.12-.1-.14-.1-.15-.1-.15-.1-.17-.11-.19-.07-.2-.06-.19,0-.19,0-.19,0-.2,0-.19v-.61h1l.47-.14.08,0,.08,0,.07-.08.07-.07.06-.09.07-.11,0-.11,0-.11,0-.38,0-.47v-.19h0v-.2h0l-.1-.16h-3.22V238l-1.65-1.16v-5.51h-1.84l.24.39.17.58,0,.57v.22l0,.2,0,.2,0,.2-.07.19-.08.18-.09.18-.12.19-.07.09-.07.09-.08.08-.08.08-.09.07-.1.07-.09.06-.11.06-.13,0-.1,0h-.1l-.1,0-.1,0h-.1l-.09,0-.12,0-.21,0-.2,0-.19-.05-.2-.06-.18-.09-.19-.1-.18-.13-.17-.14-.18-.15-.19-.18-.18-.2-.17-.2-.16-.23-.16-.24-.14-.26-.15-.26L207,232l-.56-1.53,1.39-.73v1.08l0,.06v.07l0,.07v.05l0,.06,0,.06,0,.06.24.76.07.19.07.18.09.18.1.16.1.15.11.14.12.14.14.12.11.09.13.08.12.07.12.05.13,0,.14,0,.14,0h.12l.24-.05.25-.12,0,0,0-.05,0-.07,0-.09,0-.09,0-.11,0-.14,0-.13v-.34l0-.11,0-.11,0-.11,0-.1,0-.11,0-.1-.06-.1-.06-.11-.07-.11-.07-.12-.09-.11-.09-.11-.08-.11-.34-.31,0,0,0,0-.06,0-.07-.06-.1-.08-.11-.08-.12-.09-.65-.48,5.07,0v-1.23h-7.44V227h24l-1.84-2.25,0,0h0l0,0,0,0h0l0,0,0,0h0l-.38-.07h-2l-.9-1.8H228l.42.07Zm-60.58,5.68H165v2.61l.19.13.36.12.33.09h.56l.11,0h.11l.12,0,.11,0,.11,0,.11,0,.12,0,.08,0,.08,0,.09,0,.09-.06.11-.06.11-.08.11-.09.05,0Zm10,0h0l.12.24.25.6.08.57v.22l0,.21,0,.2-.05.2-.07.2-.09.18-.1.18-.12.17,0,.07-.06.07-.07.06-.07.07-.08.06-.08,0-.09.05-.1.06-.34.12-.32.12-.29,0,.08.13.1.11.13.13.14.11.16.09.19.08.21.06.23,0,.26,0h.62l.38-.11.35-.17.39-.24.42-.37.17-.2v-3.41Zm10.7,2.93h0v-2.93H186v2.93Zm31.14-2.93.12.24.25.6.08.57v.22l0,.21,0,.2-.06.2-.07.2-.09.18-.1.18-.11.17-.06.07-.06.07-.07.06-.07.07-.07.06-.09,0-.09.05-.1.06-.33.12-.33.12-.29,0,.08.13.1.11.13.13.14.11.17.09.19.08.2.06.23,0,.26,0h.61l.39-.11.35-.17.39-.24.42-.37.18-.2v-3.41Z"/><path class="cls-3" d="M228.89,273.67a12.3,12.3,0,0,1-3.7-.83l-1.8-3.06a17.78,17.78,0,0,0,1.85.2c1.06,0,1.57-.61,1.57-2.27v-8.79h-6.42v12.21c0,1.11.32,2.26,3.88,4.44l10.35,6.28a3.71,3.71,0,0,1,2,3,6.86,6.86,0,0,1-1.81,3.56L231,285.64a5,5,0,0,0,.74-1.85,2.34,2.34,0,0,0-1.2-1.89c-1.21-.79-11.84-7-12.72-7.58-1.43-1-1.71-1.8-1.71-2.73V258.92H212.8L210.49,255h24.32l2.31,3.88h-6.06v11.79c0,2.36-.69,3-2.17,3"/><path class="cls-3" d="M243.68,273.48c0,.65-.46,1-1.2,1-1.25,0-5.55-4.39-5.55-6.05a1.07,1.07,0,0,1,1.16-1h1.34v-8.51H234.8L232.49,255h25.06l2.31,3.88h-4.62v20.85l-4.39-2.91.23-5.45h-7.4Zm0-6H251v-8.6h-7.31Z"/><path class="cls-3" d="M132,273.67a12.37,12.37,0,0,1-3.7-.83l-1.8-3.06a17.78,17.78,0,0,0,1.85.2c1.06,0,1.57-.61,1.57-2.27v-8.79h-6.43v12.21c0,1.11.33,2.26,3.89,4.44l10.35,6.28a3.71,3.71,0,0,1,2,3,6.86,6.86,0,0,1-1.81,3.56l-3.83-2.78a5,5,0,0,0,.74-1.85,2.34,2.34,0,0,0-1.2-1.89c-1.21-.79-11.84-7-12.72-7.58-1.43-1-1.71-1.8-1.71-2.73V258.92h-3.33L113.58,255H137.9l2.31,3.88h-6.06v11.79c0,2.36-.69,3-2.17,3"/><path class="cls-3" d="M146.77,273.48c0,.65-.46,1-1.2,1-1.25,0-5.55-4.39-5.55-6.05a1.07,1.07,0,0,1,1.16-1h1.34v-8.51H137.9L135.58,255h25.06l2.31,3.88h-4.62v20.85l-4.39-2.91.23-5.45h-7.4Zm0-6h7.31v-8.6h-7.31Z"/><path class="cls-3" d="M178.89,273.67a12.3,12.3,0,0,1-3.7-.83l-1.81-3.06a18.09,18.09,0,0,0,1.85.2c1.07,0,1.57-.61,1.57-2.27v-8.79h-6.42v12.21c0,1.11.32,2.26,3.88,4.44l10.36,6.28a3.72,3.72,0,0,1,2,3,6.92,6.92,0,0,1-1.8,3.56L181,285.64a4.81,4.81,0,0,0,.74-1.85,2.32,2.32,0,0,0-1.2-1.89c-1.2-.79-11.83-7-12.71-7.58-1.44-1-1.71-1.8-1.71-2.73V258.92H162.8L160.49,255H184.8l2.32,3.88h-6.06v11.79c0,2.36-.7,3-2.17,3"/><path class="cls-3" d="M199.78,271.36c-1.62,0-3.05-1.25-4.26-2.31a13.52,13.52,0,0,1-3.19,3.28,60.4,60.4,0,0,0,6.11,7L196.63,281,189,270.94c-.79-1.06-2-3.09-2-4.34a1.83,1.83,0,0,1,1.75-1.62c1,0,2,1.34,2.54,1.34.14,0,.24-.23.24-.55v-6.85h-6.71L182.44,255h28l2.31,3.88h-4.62v20.85l-4.4-2.91.23-6.38a7.9,7.9,0,0,1-4.2.88m-4.07-12.44V267a10.06,10.06,0,0,0,3.42.47c.74,0,4.39-.88,4.76-1.44v-7.12Z"/><path class="cls-3" d="M267.22,281.43a2.08,2.08,0,0,0-1.84-.84,3.63,3.63,0,0,1-2.64-1.52,12,12,0,0,1-.23-3.15A1.56,1.56,0,0,1,264,274.4c1.06,0,1.8.55,2.5,2.5,4.53-.19,7.16-3.47,7.16-4.67a.71.71,0,0,0-.78-.74c-.79,0-3.33,1.25-5,1.25-2.36,0-5.73-4.4-5.73-7.35,0-2.59,1.43-3.84,2.87-3.84h6.47v-2.63H259.83L257.52,255H278l2.31,3.89h-4.9v5.21c0,.75-.32,1.12-.78,1.12h-7.58a2.19,2.19,0,0,0-2,2.26c0,1.07.41,1.34.88,1.34s5-1.25,6-1.25c1.34,0,1.94.28,2.41.93,1.38,2,2.54,4.39,2.54,5.82,0,2.09-3.84,5.69-8.05,6.11l3.51,5.64-1.89,1.15c-1.11-2-2.73-5.13-3.24-5.82"/><path class="cls-3" d="M269.16,248.05a4.44,4.44,0,0,1,4.49-4.53c2,0,3.93,1.43,4.53,6.29l-1.67.5c-.46-2.08-1.06-2.91-2-2.91-1.39,0-2.08.74-2.08,2.31a15.09,15.09,0,0,0,2,5.69h-2c-1.34-2-3.24-5.5-3.24-7.35"/><rect class="cls-3" x="127.51" y="293.6" width="9.34" height="27.95"/><path class="cls-3" d="M123.56,293.6v32.18H114l-.24-23.39c.19-5.18,4-7.73,9.83-8.79"/><path class="cls-3" d="M140.19,293.6v32.18h9.59l.24-23.39c-.19-5.18-4-7.73-9.83-8.79"/><rect class="cls-3" x="214.03" y="293.6" width="9.34" height="27.95"/><path class="cls-3" d="M210.6,293.6v32.18H200.51l-.26-23.39c.2-5.18,4.21-7.73,10.35-8.79"/><path class="cls-3" d="M227.58,293.6v32.18h9.34l.24-23.39c-.19-5.18-3.9-7.73-9.58-8.79"/><path class="cls-3" d="M243.56,303.73h37.12v-9.19l-27-.24c-6,.19-8.91,3.84-10.13,9.43"/><rect class="cls-3" x="244.02" y="306.37" width="26.97" height="7.68"/><path class="cls-3" d="M244,317.21h36.62v7.68l-26.63.19c-5.89-.15-8.78-3.2-10-7.87"/><path class="cls-3" d="M156.44,303.58h37.69v-9.45l-27.4-.24c-6.07.19-9,3.94-10.29,9.69"/><path class="cls-3" d="M194.65,317.62H156.44v7.68l27.78.19c6.15-.15,9.18-3.2,10.43-7.87"/><path class="cls-3" d="M155.92,306.39l30.14.11c5.14.25,8,3.56,8.37,7.72l-29.39,0c-5.84-.21-8.63-3-9.12-7.79"/><line class="cls-5" x1="113.68" y1="289.98" x2="279.91" y2="289.98"/></g></g></svg>