<?xml version="1.0" encoding="UTF-8"?>
<svg version="1.1" viewBox="0 0 1600 648" width="1280" height="1280" xmlns="http://www.w3.org/2000/svg">
<path transform="translate(637 252)" d="m0 0c7.07 6.11 7.07 6.11 8.13 10.7 0.99 0.33 1.98 0.66 3 1 1.56 2.81 1.56 2.81 3 6 0.287 0.567 0.575 1.13 0.871 1.72 4.37 8.82 8.43 17.5 10.1 27.3 0.331 1.08 0.663 2.16 1 3.27 3.01 11.3 3.4 26.4 0.996 37.7-1.32 0.00809-2.64 0.0162-4 0.0245-12.4 0.0774-24.8 0.165-37.3 0.263-6.39 0.05-12.8 0.0963-19.2 0.134-6.16 0.0368-12.3 0.0832-18.5 0.136-2.35 0.0186-4.7 0.0337-7.06 0.0453-3.29 0.0168-6.58 0.0459-9.87 0.0778-0.977 0.00216-1.95 0.00432-2.96 0.00655-0.897 0.0112-1.79 0.0223-2.72 0.0338-0.778 0.00553-1.56 0.0111-2.36 0.0168-2.45 0.299-4.06 0.962-6.15 2.26-1.48 2.96-1.06 5.74-1 9h2c1.23 1.76 1.23 1.76 2.62 4.12 4.27 6.58 9.89 11.2 17.5 13.4 10 1.65 22.1 2.3 30.9-3.53 1.18-1.53 2.34-3.07 3.5-4.62 4.68-4.77 8.63-5.23 15-5.33 3.62 0.00846 7.23 0.129 10.9 0.262 1.86 0.028 3.72 0.0522 5.58 0.0723 13.5 0.236 13.5 0.236 17 2.62-1.21 13-5.64 24.6-15 34-14.7 12.1-32.1 18.1-51 19-0.859 0.0412-1.72 0.0825-2.6 0.125-22.2 0.523-43.5-5.52-60.4-20.1-0.804-0.599-1.61-1.2-2.44-1.82-2.93-2.5-5.16-5.25-7.38-8.37-0.64-0.898-0.64-0.898-1.29-1.81-3.32-4.82-6.02-9.84-8.52-15.1-0.343-0.722-0.685-1.44-1.04-2.19-1.59-3.52-2.34-5.77-2.34-9.69h-2c-0.667-2.67-1.33-5.33-2-8-0.175-0.677-0.351-1.35-0.531-2.05-6.08-25.3 1.71-53.1 14.9-74.7 11.7-17.5 27.8-27.6 48.2-32.1 25.4-4.56 51.9-0.223 72.3 16.2zm-77.9 32.7c-2.01 2.87-3.57 5.81-5 9-0.65 1.36-0.65 1.36-1.31 2.75-0.769 2.52-0.837 4.63-0.688 7.25 3.27 1.94 5.7 2.25 9.47 2.24 1.64 0.00461 1.64 0.00461 3.32 0.00932 1.18-0.00719 2.35-0.0144 3.56-0.0218 1.21-4.58e-4 2.42-9.16e-4 3.67-0.00139 2.56-0.00302 5.11-0.0109 7.67-0.0233 3.93-0.0183 7.85-0.0205 11.8-0.0203 2.48-0.00491 4.96-0.0107 7.45-0.0176 1.18-0.00111 2.36-0.00223 3.58-0.00337 1.09-0.00638 2.18-0.0128 3.3-0.0193 1.44-0.00572 1.44-0.00572 2.91-0.0116 2.33 0.0165 2.33 0.0165 4.3-1.13 1.73-5.02 1.24-9.36-0.938-14.1-4.46-7.93-10.4-12.3-19.1-14.9-12-3.31-25.4-0.116-34 9zm-58 42v6h1v-6h-1z" fill="#FBFBFB"/>
<path transform="translate(1310 238)" d="m0 0c1.88 0.0783 1.88 0.0783 3.81 0.158 3.09 0.129 6.17 0.264 9.26 0.404 0.955 7.29 1.22 14.5 1.25 21.8 0.0309 1.65 0.0309 1.65 0.0625 3.33 0.0649 13.8-4.48 25.4-9.62 37.9-0.622 1.53-1.24 3.06-1.86 4.6-1.29 3.18-2.58 6.37-3.88 9.55-1.9 4.67-3.77 9.34-5.63 14-0.297 0.746-0.594 1.49-0.9 2.26-0.594 1.49-1.19 2.98-1.78 4.48-4.53 11.4-9.12 22.7-13.9 34-2.38 5.66-4.66 11.3-6.87 17.1-23.7 61.3-23.7 61.3-48.4 72.5-14.1 6.01-29.8 6.61-45 6.72-1.2 0.0139-1.2 0.0139-2.43 0.0281-3.86-0.0213-5.72-0.0903-9-2.28v-4h-2c-0.0585-4.33-0.0938-8.67-0.125-13l-0.0508-3.7c-0.0346-6.4-0.0635-12.3 2.18-18.3 3.12-1.04 5.39-1.15 8.66-1.21 1.12-0.0284 2.25-0.0567 3.4-0.0859 2.35-0.0516 4.7-0.096 7.05-0.133 7.79-0.213 15.1-0.634 21.4-5.57 2.51-5.23 2.57-10.4 0.831-15.9-1.23-3.38-2.63-6.68-4.08-9.97-1.31-3.09-1.31-3.09-1.31-5.09l-2-1c-0.718-2.05-1.43-4.11-2.08-6.18-1.06-3.26-2.22-6.48-3.42-9.7-0.402-1.09-0.804-2.18-1.22-3.3-1.2-2.64-2.2-3.91-4.28-5.82-0.359-1.66-0.689-3.33-1-5-0.474-0.908-0.949-1.82-1.44-2.75-1.67-3.48-2.37-6.62-3.04-10.4-0.174-0.612-0.348-1.22-0.527-1.86-0.66-0.33-1.32-0.66-2-1-0.951-2.09-1.81-4.22-2.62-6.38-0.446-1.16-0.892-2.33-1.35-3.52-1.02-3.1-1.02-3.1-1.02-6.1-0.66-0.33-1.32-0.66-2-1-0.638-2.3-1.02-4.61-1.44-6.97-0.186-0.67-0.371-1.34-0.562-2.03-0.66-0.33-1.32-0.66-2-1-0.701-1.65-1.36-3.32-2-5-0.662-1.23-1.33-2.46-2-3.69-2.06-4-2.85-7.88-3.51-12.3-0.162-0.661-0.325-1.32-0.492-2-0.66-0.33-1.32-0.66-2-1-1.07-2.4-1.07-2.4-2.12-5.38-0.353-0.977-0.706-1.95-1.07-2.96-0.805-2.66-0.805-2.66-0.805-5.66h-2c-0.0744-4.47-0.129-8.93-0.165-13.4-0.015-1.52-0.0355-3.04-0.0615-4.55-0.0366-2.19-0.0534-4.37-0.0667-6.56-0.0157-1.31-0.0314-2.63-0.0476-3.98 0.372-3.83 0.677-5.71 3.34-8.51 2.78-0.457 4.96-0.587 7.73-0.488 1.13 0.0106 1.13 0.0106 2.27 0.0214 2.4 0.028 4.79 0.0907 7.18 0.154 1.62 0.0251 3.25 0.0479 4.87 0.0684 3.98 0.0551 7.96 0.141 11.9 0.244 0.129 0.613 0.258 1.23 0.391 1.86 0.261 1.21 0.261 1.21 0.527 2.44 0.17 0.798 0.341 1.6 0.516 2.42 0.622 2.51 1.56 4.78 2.64 7.13 1.8 4.2 3.23 8.54 4.74 12.8 1 2.8 2.07 5.55 3.18 8.3 0.667 2 1.3 4.01 1.9 6.03 0.342 1.14 0.683 2.29 1.04 3.47 0.339 1.14 0.678 2.29 1.03 3.47 0.933 3.16 0.933 3.16 3.04 6.03 0.529 1.71 1 3.45 1.44 5.19 1 4.01 2.27 7.81 3.75 11.7 1.4 3.69 2.69 7.42 4 11.1 0.273 0.775 0.545 1.55 0.826 2.35 0.663 1.88 1.32 3.77 1.99 5.65h2c0.99 4.95 1.98 9.9 3 15h2c0.164 1.03 0.164 1.03 0.332 2.08 0.159 0.901 0.317 1.8 0.48 2.73 0.151 0.893 0.302 1.79 0.457 2.71 0.784 2.66 1.62 3.74 3.73 5.48 0.99-0.33 1.98-0.66 3-1 1.1-2.14 1.1-2.14 1.9-4.8 0.339-0.997 0.678-1.99 1.03-3.02 0.53-1.57 0.53-1.57 1.07-3.17 0.743-2.01 1.49-4.01 2.25-6.01 0.38-1.01 0.759-2.01 1.15-3.05 0.775-2.05 1.55-4.1 2.33-6.16 2.22-5.89 4.33-11.8 6.27-17.8 3.05-9.32 6.16-18.6 9.67-27.7 2.47-6.51 4.65-13.1 6.79-19.7 1.94-5.95 4.16-11.7 6.54-17.5 0.606-1.52 1.21-3.04 1.81-4.56 0.77-1.94 0.77-1.94 2.19-3.44 6.77-1.82 14-0.878 20.9-0.562zm-136 201v5h1v-5h-1z" fill="#FBFBFB"/>
<path transform="translate(346 238)" d="m0 0c8.24-0.0568 16.5-0.0867 24.7-0.102 1.74-0.00429 1.74-0.00429 3.51-0.00867 11-0.019 21.9-0.0189 32.8 0.559 1.05 0.0542 1.05 0.0542 2.13 0.109 16.8 1.04 33.3 8.78 44.6 21.5 0.174 0.708 0.348 1.42 0.527 2.14 0.156 0.612 0.312 1.22 0.473 1.86 0.99 0.33 1.98 0.66 3 1 0.712 1.65 1.37 3.32 2 5 0.725 0.907 0.725 0.907 1.46 1.83 1.77 2.5 2.37 4.58 3.1 7.54 0.697 2.8 1.36 5.43 2.47 8.1 1.36 4.98 1.23 9.72 1.19 14.9 2.92e-4 1.13 5.84e-4 2.26 8.85e-4 3.43-0.00139 3.73-0.0169 7.47-0.0326 11.2-0.00373 2.59-0.00658 5.18-0.00858 7.78-0.00685 6.12-0.0226 12.2-0.0427 18.4-0.0224 6.97-0.0334 13.9-0.0434 20.9-0.0209 14.3-0.056 28.7-0.101 43-2.29 1.14-3.54 1.12-6.08 1.11-1.26-1.13e-4 -1.26-1.13e-4 -2.55-2.29e-4 -1.36-0.00774-1.36-0.00774-2.75-0.0156-0.929-0.00141-1.86-0.00283-2.82-0.00429-2.98-0.00561-5.95-0.0182-8.93-0.0309-2.01-0.00501-4.03-0.00958-6.04-0.0137-4.94-0.011-9.89-0.0283-14.8-0.0488-2.44-3.75-2.29-7.5-2.29-11.8-0.00683-0.785-0.0137-1.57-0.0207-2.38-0.0136-1.7-0.0226-3.41-0.0277-5.11-0.00833-2.72-0.0289-5.44-0.0525-8.16-0.0482-5.8-0.081-11.6-0.112-17.4 0.127-32.6 0.127-32.6-2.5-65.1-0.164-1.29-0.329-2.59-0.498-3.92-0.763-4.69-2.87-7.13-6.5-10.1-16.5-8.96-37.7-5-55-5-0.33 42.2-0.66 84.5-1 128-2.28 1.14-3.59 1.14-6.13 1.18-1.28 0.0193-1.28 0.0193-2.58 0.0389-0.921 0.00739-1.84 0.0148-2.79 0.0224-0.944 0.00807-1.89 0.0161-2.86 0.0245-2 0.0138-4 0.0246-6 0.0324-3.06 0.0172-6.13 0.0611-9.19 0.105-1.94 0.0101-3.88 0.0186-5.82 0.0254-0.919 0.0175-1.84 0.035-2.78 0.0531-0.854-0.00293-1.71-0.00585-2.59-0.00887-1.13 0.0088-1.13 0.0088-2.28 0.0178-1.98-0.488-1.98-0.488-3.58-2.11-1.84-3.14-1.78-5.31-1.78-8.95-0.00702-0.987-0.00702-0.987-0.0142-1.99-0.012-2.2-0.00249-4.41 0.00695-6.61-0.00407-1.58-0.00941-3.16-0.0159-4.74-0.0137-4.29-0.00837-8.58 0.00114-12.9 0.00759-4.49 5.53e-4 -8.98-0.00416-13.5-0.00546-7.54 0.00174-15.1 0.016-22.6 0.0163-8.72 0.011-17.4-0.00548-26.2-0.0136-7.48-0.0155-15-0.00768-22.4 0.00468-4.47 0.00529-8.94-0.00461-13.4-0.00866-4.2-0.00266-8.4 0.0147-12.6 0.00397-1.54 0.00282-3.09-0.00379-4.63-0.00819-2.11 0.00207-4.21 0.017-6.31 0.00113-1.18 0.00226-2.36 0.00343-3.57 0.414-3.28 1.05-4.68 3.38-7 2.42-0.546 2.42-0.546 5.39-0.609 1.16-0.0324 2.31-0.0648 3.51-0.0981 1.94-0.021 1.94-0.021 3.91-0.0425 1.38-0.0275 2.75-0.056 4.13-0.0854 6.07-0.115 12.1-0.144 18.2-0.187zm73.8 58 1 2zm1 4v10h1v-10h-1z" fill="#FAFAFA"/>
<path transform="translate(1120 170)" d="m0 0c2.1 0.0151 4.21 0.0288 6.31 0.041 5.1 0.0301 10.2 0.0889 15.3 0.146v40c-3.07 1.53-6.31 1.18-9.68 1.21-1.57 0.0281-3.13 0.0567-4.7 0.0859-2.47 0.0412-4.94 0.0781-7.41 0.104-2.38 0.0277-4.76 0.0736-7.15 0.122-0.734 0.00325-1.47 0.00651-2.22 0.00986-4.43 0.106-7.32 0.733-10.9 3.47-2.64 5.46-2.7 13.1-2 19 0.639 1.35 1.3 2.68 2 4 0.648-0.00524 1.3-0.0105 1.97-0.0159 3.03-0.0212 6.06-0.0339 9.1-0.0466 1.53-0.0126 1.53-0.0126 3.09-0.0254 8.37-0.0261 16.4 0.527 24.8 1.09-0.33 12.9-0.66 25.7-1 39-12.5 0.66-25.1 1.32-38 2-1.83 6.28-1.83 6.28-2.28 12.4-0.0112 1.02-0.0223 2.04-0.0338 3.09-0.00216 1.1-0.00432 2.19-0.00655 3.32-0.01 1.17-0.0201 2.34-0.0304 3.55-0.0308 3.86-0.0479 7.72-0.0648 11.6-0.0187 2.68-0.0382 5.36-0.0587 8.04-0.0467 6.33-0.0835 12.7-0.117 19-0.0383 7.2-0.0877 14.4-0.138 21.6-0.103 14.8-0.192 29.6-0.273 44.4-2.29 1.14-3.54 1.12-6.08 1.11-1.26-1.13e-4 -1.26-1.13e-4 -2.55-2.29e-4 -1.36-0.00774-1.36-0.00774-2.75-0.0156-0.929-0.00141-1.86-0.00283-2.82-0.00429-2.98-0.00561-5.95-0.0182-8.93-0.0309-2.01-0.00501-4.03-0.00958-6.04-0.0137-4.94-0.011-9.89-0.0283-14.8-0.0488-0.33-1.32-0.66-2.64-1-4h-2c-0.33-40.9-0.66-81.8-1-124-7.26-0.33-14.5-0.66-22-1-6-2-6-2-8-5-0.386-4.09-0.329-8.18-0.316-12.3 0.00315-2.01-0.0211-4.02-0.0457-6.02-6.45e-4 -1.28-0.00129-2.55-0.00195-3.87-0.00298-1.16-0.00596-2.33-0.00903-3.53 0.414-3.67 1.55-6.11 3.37-9.3 1.28-0.0606 2.56-0.121 3.88-0.184 1.71-0.0845 3.42-0.169 5.12-0.254 0.839-0.0393 1.68-0.0786 2.54-0.119 5.2-0.262 10.3-0.733 15.5-1.44 0.0198-0.65 0.0396-1.3 0.0601-1.97 0.0962-2.99 0.206-5.98 0.315-8.97 0.0464-1.53 0.0464-1.53 0.0938-3.1 0.553-14.4 4.7-28.2 14.7-39 16.1-14.4 35.9-14.4 56.2-14.1z" fill="#FAFAFA"/>
<path transform="translate(716,201)" d="m0 0h44c0.33 11.9 0.66 23.8 1 36 21.8 0.99 21.8 0.99 44 2 0.0206 6.25 0.0412 12.5 0.0625 18.9 0.0091 1.97 0.0182 3.95 0.0276 5.98 0.00292 1.56 0.00547 3.11 0.00757 4.67 0.00512 0.815 0.0102 1.63 0.0155 2.47 3.1e-4 1.98-0.0508 3.96-0.113 5.94-2.13 2.13-6.83 1.33-9.78 1.43-1.81 0.0736-3.62 0.148-5.43 0.223-2.87 0.114-5.74 0.223-8.61 0.322-2.76 0.0972-5.52 0.213-8.28 0.331-0.861 0.0251-1.72 0.0503-2.61 0.0761-2.11 0.0967-4.21 0.345-6.3 0.619-2.42 3.64-2.3 6.33-2.29 10.5-0.00672 0.765-0.0134 1.53-0.0204 2.32-0.019 2.53-0.0229 5.06-0.0251 7.59-0.00643 1.76-0.0132 3.51-0.0202 5.27-0.012 3.68-0.0157 7.37-0.0145 11.1 2.03e-4 4.72-0.0271 9.44-0.0615 14.2-0.0222 3.63-0.0263 7.26-0.0252 10.9-0.00236 1.74-0.0112 3.48-0.0267 5.22-0.0196 2.43-0.0139 4.87-0.00179 7.3-0.0112 0.72-0.0225 1.44-0.0341 2.18 0.0433 3.44 0.281 5.18 2.44 7.91 4.27 3.22 8.95 2.77 14.1 2.88 0.771 0.0208 1.54 0.0416 2.34 0.063 2.46 0.0652 4.91 0.124 7.37 0.183 1.67 0.0432 3.34 0.0868 5 0.131 4.08 0.107 8.16 0.208 12.2 0.307 1.09 4.33 1.06 8.47 0.914 12.9-0.0212 0.745-0.0425 1.49-0.0644 2.26-0.0461 1.57-0.095 3.13-0.147 4.7-0.0783 2.41-0.145 4.81-0.211 7.22-0.0462 1.52-0.0931 3.05-0.141 4.57-0.0198 0.723-0.0397 1.45-0.0602 2.19-0.176 5.05-0.176 5.05-1.29 6.17-3.06 0.139-6.1 0.213-9.16 0.238-0.937 0.00807-1.87 0.0161-2.84 0.0245-2 0.0139-4 0.0246-6 0.0324-3 0.017-6 0.0608-9.01 0.105-18 0.147-36.1-1.91-49.9-14.7-5.13-5.68-9.27-12-10.1-19.7-0.66-0.33-1.32-0.66-2-1-1.76-5.61-2.31-10.7-2.33-16.6-0.0117-0.817-0.0233-1.63-0.0353-2.48-0.0357-2.67-0.0578-5.35-0.0792-8.02-0.0213-1.87-0.0432-3.73-0.0659-5.6-0.0452-3.9-0.0841-7.8-0.118-11.7-0.0437-5-0.1-10-0.162-15-0.0461-3.85-0.0869-7.7-0.126-11.5-0.0191-1.85-0.0394-3.69-0.0611-5.54-0.0291-2.57-0.0514-5.14-0.0718-7.71-0.0098-0.766-0.0196-1.53-0.0297-2.32-0.0313-5.26-0.0313-5.26 1.08-7.49-0.736 0.0105-1.47 0.0209-2.23 0.0317-3.34 0.0416-6.68 0.0676-10 0.0933-1.16 0.0168-2.32 0.0335-3.51 0.0508-1.12 0.00645-2.23 0.0129-3.38 0.0195-1.03 0.0105-2.05 0.0209-3.11 0.0317-2.8-0.231-4.41-0.695-6.75-2.23-1.49-2.98-1.16-6.04-1.17-9.31-0.00499-1.08-0.00499-1.08-0.0101-2.19-0.00507-1.53-0.00741-3.06-0.00725-4.59-0.00219-2.34-0.0203-4.68-0.0393-7.02-0.00293-1.49-0.00492-2.97-0.00586-4.46-0.00719-0.7-0.0144-1.4-0.0218-2.12 0.0173-3.67 0.157-5.18 2.25-8.32 2.8-0.432 2.8-0.432 6.32-0.512 1.26-0.0354 2.51-0.0709 3.81-0.107 1.98-0.0338 1.98-0.0338 4-0.0684 1.34-0.0332 2.68-0.0677 4.02-0.104 3.29-0.0827 6.57-0.152 9.86-0.209-0.0157-0.908-0.0314-1.82-0.0476-2.75-0.0513-3.39-0.0888-6.78-0.117-10.2-0.015-1.46-0.0355-2.93-0.0615-4.39-0.0367-2.11-0.0535-4.22-0.0667-6.33-0.0157-1.27-0.0314-2.53-0.0476-3.84 0.341-3.53 0.341-3.53 3.34-9.53zm-2 160 1 4zm90 10 1 2z" fill="#FAFAFA"/>
<path transform="translate(36.6 299)" d="m0 0c2.15-0.00136 4.3-0.00314 6.45-0.00531 5.8-0.00453 11.6-0.0028 17.4 3.79e-4 6.08 0.00254 12.2 1.81e-4 18.3-0.00139 10.2-0.00181 20.4 5.68e-4 30.6 0.00534 11.8 0.00545 23.6 0.00367 35.4-0.00183 10.1-0.00454 20.3-0.00518 30.4-0.00256 6.05 0.00156 12.1 0.00177 18.2-0.00154 5.68-0.00288 11.4-8.92e-4 17 0.00489 2.09 0.00132 4.17 9.4e-4 6.26-0.00126 2.84-0.00273 5.69 6.88e-4 8.53 0.00568 1.24-0.00335 1.24-0.00335 2.51-0.00676 3.89 0.0133 7.53 0.178 11.3 1.13-0.33 0.99-0.66 1.98-1 3 0.33 0.66 0.66 1.32 1 2 0.089 1.36 0.118 2.72 0.114 4.08-1.21e-4 0.852-2.42e-4 1.7-3.66e-4 2.58-0.00512 0.897-0.0102 1.79-0.0155 2.72-0.00101 0.824-0.00201 1.65-0.00305 2.5-0.00524 3.08-0.0192 6.16-0.0321 9.25-0.012 3.72-0.0227 7.45-0.0334 11.2-0.00552 1.85-0.0111 3.7-0.0166 5.55-0.00239 0.8-0.00479 1.6-0.00726 2.42-0.00171 0.571-0.00342 1.14-0.00518 1.73-42.7 1.08-85.5 1.16-128 1.13-7.42-0.00436-14.8-0.00122-22.3 0.00363-7.28 0.00457-14.6 0.00517-21.8 0.00256-4.3-0.00154-8.59-0.00183-12.9 0.00154-30.2 0.0202-30.2 0.0202-43.4-0.52-0.848-0.0303-1.7-0.0607-2.57-0.0919-5.57-0.281-5.57-0.281-7.81-2.52-0.247-1.9-0.247-1.9-0.243-4.25-0.00308-0.878-0.00615-1.76-0.00932-2.66 0.00719-0.949 0.0144-1.9 0.0218-2.88 4.58e-4 -0.971 9.16e-4 -1.94 0.00139-2.94 0.00302-2.06 0.0109-4.11 0.0233-6.17 0.0183-3.16 0.0205-6.32 0.0203-9.47 0.00492-1.99 0.0107-3.99 0.0176-5.98 0.00111-0.951 0.00223-1.9 0.00337-2.88 0.00638-0.874 0.0128-1.75 0.0193-2.65 0.00381-0.773 0.00762-1.55 0.0116-2.34 0.134-1.78 0.134-1.78 1.13-2.78 11.8-1.53 23.8-1.14 35.6-1.13z" fill="#F2F2F2"/>
<path transform="translate(1382 299)" d="m0 0c1.26 0.00232 1.26 0.00232 2.55 0.00469 1.33-0.0034 1.33-0.0034 2.69-0.00687 3-0.00637 5.99-0.00551 8.99-0.00469 2.14-0.00299 4.28-0.00639 6.41-0.0102 5.83-0.00887 11.7-0.0112 17.5-0.0118 4.86-9.47e-4 9.72-0.00462 14.6-0.00817 11.5-0.00816 22.9-0.0106 34.4-0.00987 11.8 6e-4 23.7-0.00994 35.5-0.0257 10.1-0.0131 20.3-0.0184 30.4-0.0178 6.07 2.55e-4 12.1-0.00261 18.2-0.0132 5.71-0.00967 11.4-0.00977 17.1-0.00248 2.1 0.00105 4.19-0.00133 6.29-0.00736 2.86-0.0077 5.72-0.00309 8.58 0.00463 1.25-0.00772 1.25-0.00772 2.52-0.0156 4.55 0.0272 8.19 0.531 12.5 2.26 0.0506 6.23 0.0857 12.5 0.11 18.7 0.0101 2.12 0.0237 4.24 0.041 6.36 0.0242 3.04 0.0356 6.09 0.0444 9.13 0.0103 0.952 0.0206 1.9 0.0313 2.89 1.51e-4 0.881 3.02e-4 1.76 4.58e-4 2.67 0.00444 0.777 0.00888 1.55 0.0135 2.36-0.241 1.91-0.241 1.91-2.24 3.91-2.8 0.249-5.5 0.374-8.3 0.414-1.3 0.029-1.3 0.029-2.62 0.0587-1.86 0.0397-3.71 0.0747-5.57 0.105-2.69 0.0447-5.38 0.103-8.07 0.164-11.8 0.247-23.6 0.285-35.3 0.281-0.796-1.12e-4 -1.59-2.23e-4 -2.41-3.39e-4 -17.9-0.00435-35.8-0.105-53.8-0.225-4.39-0.0289-8.77-0.0564-13.2-0.0841-8.24-0.0522-16.5-0.106-24.7-0.159-9.41-0.0614-18.8-0.121-28.2-0.181-19.3-0.123-38.6-0.248-57.9-0.373-1.14-4.73-0.531-7.09 1.32-11.6 0.254-0.63 0.507-1.26 0.768-1.91 0.54-1.33 1.09-2.67 1.64-4 0.826-1.99 1.63-3.99 2.44-5.99 9.96-24.6 9.96-24.6 17.6-24.6z" fill="#FCFCFC"/>
<path transform="translate(846,170)" d="m0 0c1.91-0.361 1.91-0.361 4.27-0.341 0.881 2.27e-4 1.76 4.53e-4 2.67 6.87e-4 0.952 0.0155 1.9 0.031 2.89 0.0469 0.974 0.00424 1.95 0.00849 2.95 0.0129 3.12 0.0168 6.24 0.0545 9.35 0.0926 2.11 0.015 4.22 0.0287 6.33 0.041 5.18 0.0331 10.4 0.0834 15.5 0.146 0.902 2.71 1.13 4.25 1.13 7.02 0.00261 0.82 0.00522 1.64 0.0079 2.49-0.00223 0.901-0.00446 1.8-0.00676 2.73 0.00156 0.957 0.00312 1.91 0.00473 2.9 4e-3 3.22 8.23e-4 6.44-0.00232 9.67 0.00135 2.3 0.00313 4.61 0.00531 6.91 0.00457 6.27 0.00279 12.5-3.79e-4 18.8-0.00253 6.55-1.86e-4 13.1 0.00139 19.6 0.00214 11.7-0.00118 23.4-0.00626 35.1-0.00447 10.6-0.00369 21.2 9.19e-4 31.9 0.00535 12.3 0.00735 24.6 0.00439 37-0.00156 6.53-0.00176 13.1 0.00154 19.6 0.00288 6.13 9.06e-4 12.3-0.00489 18.4-0.00133 2.26-9.32e-4 4.51 0.00126 6.77 0.00271 3.07-6.66e-4 6.13-0.00568 9.2 0.00223 0.906 0.00446 1.81 0.00676 2.74-0.0196 6.13-0.0196 6.13-1.13 7.24-1.38 0.0928-2.77 0.117-4.15 0.114-0.881-7.55e-5 -1.76-1.51e-4 -2.67-2.29e-4 -0.957-0.00516-1.91-0.0103-2.9-0.0156-0.975-0.00141-1.95-0.00283-2.96-0.00429-3.13-0.00562-6.26-0.0182-9.38-0.0309-2.12-0.00501-4.23-0.00958-6.35-0.0137-5.2-0.0111-10.4-0.0278-15.6-0.0488-1.6-2.83-2.25-4.85-2.25-8.09-0.00522-0.811-0.0104-1.62-0.0158-2.46 0.00446-0.885 0.00892-1.77 0.0135-2.68-0.00312-0.945-0.00624-1.89-0.00945-2.86-0.00799-3.17-0.00165-6.35 0.00463-9.52-0.00271-2.27-0.00627-4.54-0.0106-6.81-0.00913-6.18-0.00558-12.4 7.58e-4 -18.5 0.00505-6.45 3.7e-4 -12.9-0.00277-19.4-0.00387-11.5 0.00235-23.1 0.0125-34.6 0.00894-10.5 0.00738-20.9-0.00184-31.4-0.0107-12.1-0.0147-24.3-0.00878-36.4 0.00312-6.43 0.00352-12.9-0.00307-19.3-0.00576-6.04-0.0018-12.1 0.00979-18.1 0.00265-2.22 0.00187-4.44-0.00253-6.67-0.00543-3.02 0.00135-6.05 0.0114-9.07-0.00669-1.33-0.00669-1.33-0.0135-2.69 0.0392-6.07 0.0392-6.07 2.27-9.41z" fill="#FBFBFB"/>
<path transform="translate(365)" d="m0 0c0.66 0.66 1.32 1.32 2 2 0.33-0.66 0.66-1.32 1-2h43c1.14 3.43 1.12 6.05 1.12 9.66 8.54e-4 0.68 0.00171 1.36 0.00259 2.06 0.00165 2.28-0.00386 4.57-0.00932 6.85-2.82e-4 1.64-1.24e-4 3.27 4.43e-4 4.91 2.87e-4 4.45-0.0056 8.89-0.0126 13.3-0.00624 4.64-0.00684 9.29-0.00803 13.9-0.00311 8.8-0.0113 17.6-0.0213 26.4-0.0112 10-0.0167 20-0.0217 30-0.0105 20.6-0.0281 41.2-0.0503 61.8-2.68 0.895-4.3 1.14-7.06 1.18-1.22 0.0193-1.22 0.0193-2.46 0.0389-0.872 0.00739-1.74 0.0148-2.64 0.0224-0.899 0.00807-1.8 0.0161-2.72 0.0245-1.9 0.0138-3.8 0.0246-5.7 0.0324-2.91 0.0173-5.82 0.0612-8.73 0.105-1.85 0.0101-3.69 0.0186-5.54 0.0254-0.872 0.0175-1.74 0.035-2.64 0.0531-0.811-0.00293-1.62-0.00585-2.46-0.00887-0.713 0.00587-1.43 0.0117-2.16 0.0178-1.9-0.488-1.9-0.488-3.49-2.09-1.88-3.2-1.77-5.47-1.76-9.18-0.00256-0.681-0.00513-1.36-0.00777-2.06-0.00494-2.28 0.0116-4.56 0.028-6.84 8.46e-4 -1.64 3.71e-4 -3.27-0.00133-4.91-8.62e-4 -4.44 0.0168-8.88 0.0377-13.3 0.0187-4.64 0.0205-9.28 0.0241-13.9 0.00933-8.79 0.034-17.6 0.064-26.4 0.0335-10 0.05-20 0.0651-30 0.0314-20.6 0.0841-41.2 0.151-61.8z" fill="#FDFDFD"/>
<path transform="translate(940,239)" d="m0 0h44v168c-2.26 1.13-3.53 1.14-6.03 1.18-0.831 0.0128-1.66 0.0257-2.52 0.0389-1.35 0.0111-1.35 0.0111-2.72 0.0224-0.922 0.00807-1.84 0.0161-2.79 0.0245-1.95 0.0138-3.91 0.0246-5.86 0.0324-2.99 0.0172-5.98 0.0611-8.97 0.105-1.9 0.0101-3.79 0.0186-5.69 0.0254-1.35 0.0263-1.35 0.0263-2.72 0.0531-0.834-0.00293-1.67-0.00585-2.53-0.00887-0.733 0.00587-1.47 0.0117-2.22 0.0178-1.94-0.488-1.94-0.488-3.54-2.11-1.85-3.14-1.78-5.31-1.78-8.95-0.00702-0.987-0.00702-0.987-0.0142-1.99-0.012-2.2-0.00249-4.41 0.00695-6.61-0.00407-1.58-0.00941-3.16-0.0159-4.74-0.0137-4.29-0.00837-8.58 0.00114-12.9 0.00759-4.49 5.53e-4 -8.98-0.00416-13.5-0.00546-7.54 0.00174-15.1 0.016-22.6 0.0163-8.72 0.011-17.4-0.00548-26.2-0.0136-7.48-0.0155-15-0.00768-22.4 0.00468-4.47 0.00529-8.94-0.00461-13.4-0.00866-4.2-0.00266-8.4 0.0147-12.6 0.00397-1.54 0.00282-3.09-0.00379-4.63-0.00819-2.11 0.00207-4.21 0.017-6.31 0.00113-1.18 0.00226-2.36 0.00343-3.57 0.378-3 0.378-3 3.38-7z" fill="#FBFBFB"/>
<path transform="translate(367,477)" d="m0 0h45c0.964 3.86 1.11 6.79 1.08 10.7-0.00323 0.677-0.00646 1.35-0.00979 2.05-0.0121 2.27-0.0314 4.54-0.0508 6.8-0.0101 1.63-0.0198 3.25-0.0291 4.88-0.0265 4.41-0.0592 8.83-0.0931 13.2-0.0344 4.61-0.0629 9.23-0.0921 13.8-0.0561 8.74-0.117 17.5-0.181 26.2-0.0717 9.95-0.138 19.9-0.203 29.8-0.135 20.5-0.277 40.9-0.424 61.4-6.21 0.0741-12.4 0.129-18.6 0.165-2.11 0.0151-4.23 0.0356-6.34 0.0615-3.04 0.0363-6.07 0.0534-9.11 0.0667-1.42 0.0232-1.42 0.0232-2.87 0.0469-1.32 3.4e-4 -1.32 3.4e-4 -2.67 6.87e-4 -0.775 0.00666-1.55 0.0133-2.35 0.0202-2.03-0.361-2.03-0.361-3.78-1.48-1.85-2.78-1.62-5-1.62-8.32-0.00397-0.656-0.00795-1.31-0.012-1.99-0.00964-2.2 0.0022-4.41 0.014-6.61-0.00243-1.58-0.00615-3.16-0.0111-4.74-0.00942-4.29 2.68e-5 -8.58 0.0133-12.9 0.0113-4.49 0.00721-8.98 0.00525-13.5-8.83e-4 -7.54 0.0102-15.1 0.0286-22.6 0.0212-8.72 0.0247-17.4 0.0184-26.2-0.0057-8.38-4.39e-5 -16.8 0.0112-25.1 0.00464-3.57 0.00552-7.14 0.00341-10.7-0.00188-4.2 0.00623-8.41 0.0221-12.6 0.00424-1.54 0.0051-3.09 0.00231-4.63-0.00323-2.11 0.00587-4.21 0.0181-6.32 0.00205-1.18 0.00411-2.36 0.00622-3.57 0.254-3.12 0.254-3.12 2.25-8.12z" fill="#FDFDFD"/>
<path transform="translate(270 441)" d="m0 0c2.79 0.994 4.01 1.44 5.6 3.93 0.809 5.21 0.701 10.5 0.625 15.8-0.00966 0.752-0.0193 1.5-0.0293 2.28-0.203 8.46-0.616 15.8-6.65 22.3-2.55 2.26-5.15 4.32-7.95 6.26-9.54 6.68-17.4 15.8-25.5 24.1-1.78 1.82-3.57 3.63-5.36 5.45-0.54 0.558-1.08 1.12-1.64 1.69-2.95 2.97-5.44 4.95-9.48 6.16-6.28-5.29-12.1-11-17.9-16.8-1.51-1.5-3.02-3-4.53-4.5-0.963-0.96-1.93-1.92-2.89-2.88-0.866-0.861-1.73-1.72-2.62-2.61-2.01-2.25-2.01-2.25-3.01-5.25 2.42-4.38 5.13-6.94 9-10 1.09-1.17 2.15-2.37 3.19-3.58 0.928-1.07 0.928-1.07 1.87-2.17 1.26-1.47 2.52-2.93 3.78-4.4 35.8-41.6 35.8-41.6 63.6-35.8zm3.6 4.93 1 2z" fill="#FDFDFD"/>
<path transform="translate(222 120)" d="m0 0c3.19 1.67 4.42 3.54 6.62 6.38 1.14 1.03 2.3 2.03 3.48 3.02 6.25 5.4 11.9 11.4 17.7 17.2 4.57 4.61 9.16 9.09 14.1 13.3 2.37 2.04 4.56 4.13 6.67 6.44v2c1.32 0.66 2.64 1.32 4 2 0.0247 4.97 0.0428 9.93 0.0549 14.9 0.00504 1.69 0.0119 3.38 0.0205 5.07 0.0121 2.43 0.0178 4.85 0.0222 7.28 0.00516 0.76 0.0103 1.52 0.0156 2.3 1.96e-4 1.82-0.0513 3.63-0.113 5.45-3.75 3.75-14.4 2.67-19.7 2.76-13.9-0.24-21.4-6.47-30.8-16.1-2.79-2.94-5.49-5.95-8.18-8.98-2.78-3.09-5.66-6.08-8.54-9.08-4.17-4.39-8.3-8.81-12.3-13.3-0.805-0.895-1.61-1.79-2.44-2.71-1.91-2.47-2.98-4.6-3.96-7.54 5.29-6.3 11-12.1 16.8-17.9 1.51-1.51 3.02-3.02 4.53-4.53 0.964-0.963 1.93-1.93 2.89-2.89 1.3-1.3 1.3-1.3 2.63-2.62 3.4-3.2 3.4-3.2 6.51-2.38z" fill="#FAFAFA"/>
<path transform="translate(950 170)" d="m0 0c0.972 0.00566 1.94 0.0113 2.95 0.0172 3.11 0.0224 6.22 0.0726 9.32 0.123 2.11 0.0201 4.21 0.0383 6.32 0.0547 5.17 0.0441 10.3 0.113 15.5 0.195 0.0247 5.36 0.0429 10.7 0.0549 16.1 0.00503 1.82 0.0119 3.65 0.0205 5.47 0.0121 2.62 0.0178 5.24 0.0222 7.86 0.00516 0.816 0.0103 1.63 0.0156 2.47 3.28e-4 3.3-0.061 5.98-1.11 9.13-6.09 0.0247-12.2 0.0428-18.3 0.0549-2.07 0.00504-4.14 0.0119-6.22 0.0205-2.97 0.0121-5.95 0.0178-8.92 0.0222-0.93 0.00516-1.86 0.0103-2.82 0.0156-0.861 7.55e-5 -1.72 1.51e-4 -2.61 2.29e-4 -0.759 0.00222-1.52 0.00444-2.3 0.00673-1.87-0.12-1.87-0.12-3.87-1.12-1.17-3.51-1.18-6.71-1.2-10.4-0.0057-0.719-0.0114-1.44-0.0173-2.18-0.00944-1.52-0.016-3.04-0.0198-4.56-0.00972-2.32-0.0408-4.64-0.0723-6.96-0.00653-1.48-0.0118-2.95-0.0156-4.43-0.0123-0.692-0.0247-1.38-0.0374-2.1 0.013-2.82 0.288-5.2 1.27-7.85 3.61-2.67 7.67-2.04 12-1.95z" fill="#F6F6F6"/>
<path transform="translate(1376,299)" d="m0 0c28.3-0.0233 56.7-0.041 85-0.0518 13.2-0.00516 26.3-0.0122 39.5-0.0236 11.5-0.00996 22.9-0.0164 34.4-0.0186 6.07-0.00131 12.1-0.00438 18.2-0.0116 5.71-0.00678 11.4-0.00888 17.1-0.00738 2.1-2.76e-4 4.2-0.00227 6.3-0.0061 2.86-0.00496 5.72-0.00378 8.59-0.00105 0.834-0.00291 1.67-0.00583 2.53-0.00883 3.92 0.0101 7.52 0.16 11.4 1.13v1c-1.71 0.00635-1.71 0.00635-3.46 0.0128-27.7 0.103-55.5 0.212-83.2 0.327-2.67 0.011-5.34 0.022-8 0.033-0.663 0.00273-1.33 0.00546-2.01 0.00827-10.7 0.0441-21.5 0.0847-32.2 0.124-11 0.0404-22 0.0847-33.1 0.132-6.19 0.0266-12.4 0.0515-18.6 0.0722-5.82 0.0196-11.6 0.0437-17.5 0.0714-2.14 0.00938-4.28 0.017-6.43 0.0229-2.92 0.00825-5.83 0.0225-8.75 0.0384-1.28 0.00147-1.28 0.00147-2.59 0.00296-3.32 0.0233-6.03 0.099-9.2 1.16 0.66-1.32 1.32-2.64 2-4z" fill="#000002"/>
<path transform="translate(270 441)" d="m0 0c2.63 0.939 3.86 1.78 5.6 3.93-0.33 0.99-0.66 1.98-1 3l-1-2h-33v2c-1.4 1.38-1.4 1.38-3.38 3-4.45 3.76-8.48 7.86-12.5 12.1-2.1 1.94-2.1 1.94-4.1 1.94-0.268 0.639-0.536 1.28-0.812 1.94-1.19 2.06-1.19 2.06-4.19 3.06-0.33 0.66-0.66 1.32-1 2-0.33 0.66-0.66 1.32-1 2-1.49 0.495-1.49 0.495-3 1-0.33 0.66-0.66 1.32-1 2-0.33 0.66-0.66 1.32-1 2-1.49 0.495-1.49 0.495-3 1-0.124 0.577-0.248 1.15-0.375 1.75-0.931 3.35-3.11 4.9-5.62 7.25-1.27 1.27-1.27 1.27-2.56 2.56-2.15 2.15-4.29 4.29-6.44 6.44-0.66-0.33-1.32-0.66-2-1 2.61-4.25 5.12-6.93 9-10 1.09-1.17 2.15-2.37 3.19-3.58 0.928-1.07 0.928-1.07 1.87-2.17 1.26-1.47 2.52-2.93 3.78-4.4 35.8-41.6 35.8-41.6 63.6-35.8z" fill="#000002"/>
<path transform="translate(635 356)" d="m0 0c1.86 0.028 3.72 0.0522 5.58 0.0723 13.5 0.236 13.5 0.236 17 2.62-0.33 0.66-0.66 1.32-1 2-0.495-0.495-0.495-0.495-1-1-5.28-0.457-10.6-0.642-15.9-0.832-1.78-0.0697-3.56-0.152-5.34-0.248-11.5-1.08-11.5-1.08-21.8 2.91-1.63 1.54-1.63 1.54-2.94 3.17-5.46 6.02-10.2 7.86-18.2 8.29-11.6 0.345-20.4-0.0267-29.4-7.97-1.47-1.42-2.94-2.85-4.38-4.31 0.33-0.66 0.66-1.32 1-2 0.675 0.688 0.675 0.688 1.36 1.39 8.64 8.24 17.4 10.2 29.1 10.1 6.13-0.252 11.4-1.01 16.6-4.47 1.18-1.53 2.34-3.07 3.5-4.62 7-7.14 16.6-5.41 25.9-5.07z" fill="#000002"/>
<path transform="translate(367,477)" d="m0 0h45c0.495 1.98 0.495 1.98 1 4h-47c0.33-1.32 0.66-2.64 1-4z" fill="#000002"/>
<path transform="translate(364,501)" d="m0 0h1v136h-1v-136z" fill="#FDFDFD"/>
<path transform="translate(1215,419)" d="m0 0c1 3 1 3 0.0625 5.06-6.26 5.88-17.5 4.38-25.6 4.56-1.41 0.0383-2.82 0.0773-4.23 0.117-3.42 0.0938-6.85 0.18-10.3 0.258v-3c3.12-1.04 5.39-1.15 8.66-1.21 1.12-0.0284 2.25-0.0567 3.4-0.0859 2.35-0.0516 4.7-0.096 7.05-0.133 11.3-0.177 11.3-0.177 20.9-5.57z" fill="#000002"/>
<path transform="translate(552,304)" d="m0 0c0.814 0.244 0.814 0.244 1.64 0.493 2.74 0.59 5.24 0.627 8.04 0.621 1.71-1.13e-4 1.71-1.13e-4 3.46-2.29e-4 1.23-0.00516 2.45-0.0103 3.72-0.0156 1.89-0.00212 1.89-0.00212 3.82-0.00429 3.34-0.00465 6.68-0.0136 10-0.0247 3.41-0.0102 6.82-0.0148 10.2-0.0198 6.69-0.011 13.4-0.0278 20.1-0.0488-0.33 0.99-0.66 1.98-1 3-7.38 0.0927-14.8 0.164-22.1 0.207-3.43 0.0209-6.85 0.0492-10.3 0.0945-3.94 0.0518-7.88 0.0712-11.8 0.0889-1.85 0.031-1.85 0.031-3.73 0.0626-1.14 3.02e-4 -2.28 6.04e-4 -3.46 9.16e-4 -1.51 0.0133-1.51 0.0133-3.05 0.0269-2.52-0.481-2.52-0.481-4.37-2.51-0.38-0.651-0.76-1.3-1.15-1.97z" fill="#000002"/>
<path transform="translate(364,43)" d="m0 0h1v99h-1v-99z" fill="#FDFDFD"/>
<path transform="translate(936,278)" d="m0 0h1v98h-1v-98z" fill="#FDFDFD"/>
<path transform="translate(762,362)" d="m0 0c0.577 0.639 1.15 1.28 1.75 1.94 4.14 3.79 8.91 3.26 14.3 3.38 0.771 0.0208 1.54 0.0416 2.34 0.063 2.46 0.0652 4.91 0.124 7.37 0.183 1.67 0.0432 3.34 0.0868 5 0.131 4.08 0.107 8.16 0.208 12.2 0.307 0.495 2.48 0.495 2.48 1 5-0.66-0.66-1.32-1.32-2-2-2.59-0.221-5.08-0.325-7.68-0.344-0.762-0.0146-1.52-0.0292-2.31-0.0443-2.44-0.0466-4.88-0.0807-7.33-0.112-3.2-0.0412-6.41-0.095-9.61-0.156-1.1-0.00792-1.1-0.00792-2.22-0.016-5.22-0.101-9.09-0.562-12.9-4.33v-4z" fill="#000002"/>
<path transform="translate(843,288)" d="m0 0h1v35h-1v-35z" fill="#FDFDFD"/>
<path transform="translate(239,315)" d="m0 0h1v24h-1v-24z" fill="#000002"/>
<path transform="translate(761,216)" d="m0 0h1v13h-1v-13z" fill="#000002"/>
<path transform="translate(984,187)" d="m0 0h1v13h-1v-13z" fill="#000002"/>
<path transform="translate(364,490)" d="m0 0h1v5h-1v-5z" fill="#FDFDFD"/>
<path transform="translate(412,75)" d="m0 0 1 4z" fill="#000002"/>
</svg>
